<svg width="64" height="67" viewBox="0 0 64 67" fill="none" xmlns="http://www.w3.org/2000/svg">
<g filter="url(#filter0_d)">
<path d="M20.0303 20.7727C20.3818 20.7727 20.6927 20.5477 20.8033 20.2146L21.6868 17.5431L24.3583 16.6596C24.6914 16.549 24.9165 16.2381 24.9165 15.8866C24.9165 15.5351 24.6914 15.2241 24.3583 15.1136L21.6868 14.23L20.8033 11.5582C20.6927 11.2251 20.3818 11 20.0303 11C19.6788 11 19.3679 11.2251 19.2573 11.5582L18.3737 14.2296L15.7023 15.1132C15.3692 15.2238 15.1441 15.5347 15.1441 15.8862C15.1441 16.2377 15.3692 16.5486 15.7023 16.6592L18.3737 17.5427L19.2573 20.2142C19.3677 20.5477 19.6788 20.7727 20.0303 20.7727ZM19.2739 15.647C19.518 15.5659 19.7099 15.3743 19.7909 15.13L20.0303 14.407L20.2696 15.13C20.3507 15.3741 20.5424 15.5659 20.7867 15.647L21.5096 15.8864L20.7867 16.1257C20.5426 16.2068 20.3507 16.3985 20.2696 16.6427L20.0303 17.3657L19.7909 16.6427C19.7099 16.3987 19.5182 16.2068 19.2739 16.1257L18.551 15.8864L19.2739 15.647Z" fill="white"/>
<path d="M16.2144 22.4427L13.5429 21.5591L12.6594 18.8876C12.5488 18.5546 12.2379 18.3295 11.8864 18.3295C11.5349 18.3295 11.2239 18.5546 11.1134 18.8876L10.2296 21.5591L7.55818 22.4427C7.22509 22.5532 7 22.8642 7 23.2156C7 23.5671 7.22509 23.8781 7.55818 23.9886L10.2296 24.8722L11.1132 27.5436C11.2238 27.8767 11.5347 28.1018 11.8862 28.1018C12.2377 28.1018 12.5486 27.8767 12.6592 27.5436L13.5427 24.8722L16.2142 23.9886C16.5473 23.8781 16.7723 23.5671 16.7723 23.2156C16.7723 22.8642 16.5477 22.5532 16.2144 22.4427ZM12.6425 23.4552C12.3985 23.5363 12.2066 23.7279 12.1255 23.9722L11.8862 24.6952L11.6468 23.9722C11.5657 23.7281 11.3741 23.5363 11.1298 23.4552L10.4069 23.2158L11.1298 22.9765C11.3739 22.8954 11.5657 22.7037 11.6468 22.4595L11.8862 21.7365L12.1255 22.4595C12.2066 22.7035 12.3983 22.8954 12.6425 22.9765L13.3655 23.2158L12.6425 23.4552Z" fill="white"/>
<path d="M32.4418 53.457L29.7704 52.5735L28.8868 49.902C28.7762 49.5689 28.4653 49.3438 28.1138 49.3438C27.7623 49.3438 27.4514 49.5689 27.3408 49.902L26.4573 52.5735L23.7858 53.457C23.4527 53.5676 23.2277 53.8785 23.2277 54.23C23.2277 54.5815 23.4527 54.8924 23.7858 55.003L26.4573 55.8866L27.3408 58.558C27.4514 58.8911 27.7623 59.1162 28.1138 59.1162C28.4653 59.1162 28.7762 58.8911 28.8868 58.558L29.7704 55.8866L32.4418 55.003C32.7749 54.8924 33 54.5815 33 54.23C33 53.8785 32.7749 53.5676 32.4418 53.457ZM28.87 54.4694C28.6259 54.5505 28.4341 54.7421 28.353 54.9864L28.1136 55.7093L27.8743 54.9864C27.7932 54.7423 27.6015 54.5505 27.3573 54.4694L26.6343 54.23L27.3573 53.9907C27.6013 53.9096 27.7932 53.7179 27.8743 53.4736L28.1136 52.7507L28.353 53.4736C28.4341 53.7177 28.6257 53.9096 28.87 53.9907L29.5929 54.23L28.87 54.4694Z" fill="white"/>
<path d="M55.942 45.7327L51.1383 44.143L49.5486 39.3393C49.4381 39.006 49.1269 38.7809 48.7754 38.7809C48.424 38.7809 48.113 39.006 48.0025 39.3391L46.4128 44.1428L41.6091 45.7325C41.2758 45.843 41.0509 46.154 41.0509 46.5055C41.0509 46.8569 41.276 47.1679 41.6091 47.2785L46.4128 48.8681L48.0025 53.6718C48.113 54.0051 48.424 54.23 48.7754 54.23C49.1269 54.23 49.4379 54.0049 49.5484 53.6718L51.1381 48.8681L55.9418 47.2785C56.2751 47.1679 56.5 46.8569 56.5 46.5055C56.5 46.154 56.2753 45.8432 55.942 45.7327ZM50.2382 47.4513C49.9941 47.5324 49.8022 47.7241 49.7211 47.9684L48.7754 50.8251L47.8298 47.9684C47.7487 47.7243 47.557 47.5324 47.3127 47.4513L44.456 46.5057L47.3127 45.56C47.5568 45.4789 47.7487 45.2872 47.8298 45.043L48.7754 42.1862L49.7211 45.043C49.8022 45.287 49.9939 45.4789 50.2382 45.56L53.0949 46.5057L50.2382 47.4513Z" fill="white"/>
<path d="M41.9727 7C34.3531 7 28.1541 13.0895 28.1541 20.5745C28.1541 24.0649 29.5025 27.2515 31.7139 29.659L30.769 30.5872L29.9892 29.8134C29.9721 29.7924 29.9541 29.7718 29.9343 29.7523C29.9158 29.7341 29.8964 29.7173 29.8764 29.7015L29.2629 29.0928C28.9851 28.8172 28.5325 28.8151 28.2521 29.0878C27.9716 29.3607 27.9693 29.8052 28.247 30.0808L28.4171 30.2496L11.2094 47.1536C10.9302 47.4278 10.9302 47.8723 11.2094 48.1465L13.9048 50.7943C14.0444 50.9314 14.2274 51 14.4103 51C14.5932 51 14.7762 50.9315 14.9158 50.7943L32.1051 33.9087L32.2701 34.0725C32.4099 34.2112 32.5939 34.2807 32.7781 34.2807C32.9598 34.2807 33.1415 34.213 33.2809 34.0775C33.5614 33.8046 33.5637 33.3601 33.286 33.0845L31.7749 31.5851L32.7249 30.652C35.1756 32.8244 38.4196 34.1489 41.9727 34.1489C49.5922 34.1489 55.7913 28.0594 55.7913 20.5745C55.7913 13.0895 49.5922 7 41.9727 7ZM14.4102 49.305L12.7255 47.65L29.4229 31.2476L31.0992 32.9108L14.4102 49.305ZM41.9727 32.7447C35.1412 32.7447 29.5836 27.2851 29.5836 20.5745C29.5836 13.8638 35.1413 8.40426 41.9727 8.40426C48.804 8.40426 54.3617 13.8638 54.3617 20.5745C54.3617 27.2851 48.8041 32.7447 41.9727 32.7447Z" fill="white"/>
<path d="M41.9726 9.80851C35.9295 9.80851 31.013 14.6381 31.013 20.5745C31.013 26.5108 35.9295 31.3404 41.9726 31.3404C44.3733 31.3404 46.6532 30.5915 48.5656 29.1747C48.8809 28.9412 48.9437 28.5009 48.706 28.1913C48.4683 27.8818 48.0201 27.82 47.7049 28.0535C46.0424 29.2852 44.0603 29.9362 41.9726 29.9362C36.7176 29.9362 32.4426 25.7365 32.4426 20.5745C32.4426 15.4124 36.7177 11.2128 41.9726 11.2128C47.2275 11.2128 51.5027 15.4124 51.5027 20.5745C51.5027 22.6253 50.84 24.5725 49.5862 26.2054C49.3485 26.515 49.4113 26.9553 49.7265 27.1888C50.0416 27.4223 50.4899 27.3605 50.7276 27.051C52.1698 25.1725 52.9322 22.933 52.9322 20.5745C52.9322 14.6381 48.0157 9.80851 41.9726 9.80851Z" fill="white"/>
<path d="M41.9727 26.1915C41.5779 26.1915 41.258 26.5059 41.258 26.8936C41.258 27.2814 41.5779 27.5957 41.9727 27.5957C45.9139 27.5957 49.1203 24.446 49.1203 20.5745C49.1203 16.7029 45.9139 13.5532 41.9727 13.5532C40.6235 13.5532 39.3079 13.9261 38.1681 14.6315C37.8341 14.8382 37.7339 15.2717 37.9444 15.5998C38.1549 15.928 38.5963 16.0265 38.9301 15.8197C39.8415 15.2556 40.8935 14.9574 41.9727 14.9574C45.1256 14.9574 47.6907 17.4772 47.6907 20.5745C47.6907 23.6717 45.1256 26.1915 41.9727 26.1915Z" fill="white"/>
<path d="M35.9227 16.8371C35.2047 17.9567 34.8251 19.249 34.8251 20.5744C34.8251 20.9621 35.145 21.2765 35.5398 21.2765C35.9347 21.2765 36.2546 20.9621 36.2546 20.5744C36.2546 19.5143 36.5581 18.4808 37.1322 17.5857C37.3426 17.2575 37.2425 16.824 36.9084 16.6173C36.5745 16.4107 36.1332 16.5089 35.9227 16.8371Z" fill="white"/>
</g>
<defs>
<filter id="filter0_d" x="0" y="0" width="63.5" height="66.1162" filterUnits="userSpaceOnUse" color-interpolation-filters="sRGB">
<feFlood flood-opacity="0" result="BackgroundImageFix"/>
<feColorMatrix in="SourceAlpha" type="matrix" values="0 0 0 0 0 0 0 0 0 0 0 0 0 0 0 0 0 0 127 0"/>
<feOffset/>
<feGaussianBlur stdDeviation="3.5"/>
<feColorMatrix type="matrix" values="0 0 0 0 0 0 0 0 0 0.765517 0 0 0 0 1 0 0 0 1 0"/>
<feBlend mode="normal" in2="BackgroundImageFix" result="effect1_dropShadow"/>
<feBlend mode="normal" in="SourceGraphic" in2="effect1_dropShadow" result="shape"/>
</filter>
</defs>
</svg>
