<svg width="31" height="38" viewBox="0 0 31 38" fill="none" xmlns="http://www.w3.org/2000/svg">
<g filter="url(#filter0_d)">
<path d="M15.4668 7C10.7971 7 7 10.7971 7 15.4668C7 18.8623 9.05628 22.4819 11.0684 25.2988C13.0804 28.1157 15.0938 30.1289 15.0938 30.1289C15.193 30.228 15.3275 30.2837 15.4678 30.2837C15.608 30.2837 15.7426 30.228 15.8418 30.1289C15.8418 30.1289 17.8551 28.1157 19.8672 25.2988C21.8793 22.4819 23.9336 18.8623 23.9336 15.4668C23.9336 10.7971 20.1365 7 15.4668 7ZM15.4668 8.05859C19.5646 8.05859 22.875 11.369 22.875 15.4668C22.875 18.4213 20.9625 21.9443 19.0059 24.6836C17.2361 27.1613 15.7886 28.6033 15.4668 28.9316C15.1444 28.6026 13.6991 27.1607 11.9297 24.6836C9.97302 21.9443 8.05859 18.4213 8.05859 15.4668C8.05859 11.369 11.369 8.05859 15.4668 8.05859Z" fill="white"/>
<path d="M15.4668 11.7617C13.4273 11.7617 11.7637 13.4273 11.7637 15.4668C11.7637 17.5063 13.4273 19.1719 15.4668 19.1719C17.5063 19.1719 19.1719 17.5063 19.1719 15.4668C19.1719 13.4273 17.5063 11.7617 15.4668 11.7617ZM15.4668 12.8203C16.9343 12.8203 18.1133 13.9993 18.1133 15.4668C18.1133 16.9343 16.9343 18.1133 15.4668 18.1133C13.9993 18.1133 12.8223 16.9343 12.8223 15.4668C12.8223 13.9993 13.9993 12.8203 15.4668 12.8203Z" fill="white"/>
</g>
<defs>
<filter id="filter0_d" x="0" y="0" width="30.9336" height="37.2837" filterUnits="userSpaceOnUse" color-interpolation-filters="sRGB">
<feFlood flood-opacity="0" result="BackgroundImageFix"/>
<feColorMatrix in="SourceAlpha" type="matrix" values="0 0 0 0 0 0 0 0 0 0 0 0 0 0 0 0 0 0 127 0"/>
<feOffset/>
<feGaussianBlur stdDeviation="3.5"/>
<feColorMatrix type="matrix" values="0 0 0 0 0 0 0 0 0 0.765517 0 0 0 0 1 0 0 0 1 0"/>
<feBlend mode="normal" in2="BackgroundImageFix" result="effect1_dropShadow"/>
<feBlend mode="normal" in="SourceGraphic" in2="effect1_dropShadow" result="shape"/>
</filter>
</defs>
</svg>
