<svg width="113" height="113" viewBox="0 0 113 113" fill="none" xmlns="http://www.w3.org/2000/svg">
<g filter="url(#filter0_f)">
<circle cx="56.9668" cy="56.9673" r="49.5" stroke="#38A7C9"/>
</g>
<circle cx="56.9668" cy="56.9673" r="49.5" stroke="white"/>
<g filter="url(#filter1_f)">
<path d="M73.7306 63.6621H72.3755V65.0172H73.7306V63.6621Z" fill="#07A7D8"/>
<path d="M71.0204 63.6621H69.6653V65.0172H71.0204V63.6621Z" fill="#07A7D8"/>
<path d="M68.3102 63.6621H66.955V65.0172H68.3102V63.6621Z" fill="#07A7D8"/>
<path d="M70.3428 70.4377C70.5225 70.4377 70.6949 70.3663 70.8219 70.2392C70.949 70.1121 71.0204 69.9398 71.0204 69.7601V67.7274H73.7306C74.6288 67.7264 75.4898 67.3691 76.1249 66.734C76.76 66.0989 77.1173 65.2378 77.1184 64.3397V39.9476C77.1173 39.0494 76.76 38.1884 76.1249 37.5533C75.4898 36.9182 74.6288 36.5609 73.7306 36.5598H38.4976C37.5995 36.5609 36.7384 36.9182 36.1033 37.5533C35.4682 38.1884 35.1109 39.0494 35.1099 39.9476V64.3397C35.1109 65.2378 35.4682 66.0989 36.1033 66.734C36.7384 67.3691 37.5995 67.7264 38.4976 67.7274H50.0161V73.1479H49.3386C48.7995 73.1479 48.2824 73.362 47.9012 73.7432C47.52 74.1244 47.3059 74.6415 47.3059 75.1806V77.8908C47.3059 78.0705 47.3773 78.2428 47.5043 78.3699C47.6314 78.497 47.8037 78.5683 47.9834 78.5683H64.2448C64.4245 78.5683 64.5969 78.497 64.7239 78.3699C64.851 78.2428 64.9224 78.0705 64.9224 77.8908V75.1806C64.9224 74.6415 64.7082 74.1244 64.327 73.7432C63.9458 73.362 63.4288 73.1479 62.8897 73.1479H62.2121V67.7274H66.955V69.7601C66.955 69.9398 67.0264 70.1121 67.1535 70.2392C67.2806 70.3663 67.4529 70.4377 67.6326 70.4377H68.3102V75.1806C68.3112 76.0787 68.6685 76.9398 69.3036 77.5749C69.9387 78.21 70.7998 78.5673 71.6979 78.5683H77.1184V77.2132H71.6979C71.1588 77.2132 70.6418 76.9991 70.2606 76.6179C69.8794 76.2367 69.6653 75.7197 69.6653 75.1806V70.4377H70.3428ZM38.4976 37.9149H73.7306C74.2697 37.9149 74.7867 38.1291 75.1679 38.5103C75.5491 38.8915 75.7633 39.4085 75.7633 39.9476V60.9519H70.3428V56.8865H71.0204C71.2001 56.8865 71.3724 56.8151 71.4995 56.6881C71.6266 56.561 71.6979 56.3887 71.6979 56.209V53.4987C71.6979 53.319 71.6266 53.1467 71.4995 53.0196C71.3724 52.8926 71.2001 52.8212 71.0204 52.8212H64.2448C64.0651 52.8212 63.8928 52.8926 63.7657 53.0196C63.6386 53.1467 63.5673 53.319 63.5673 53.4987V56.209C63.5673 56.3887 63.6386 56.561 63.7657 56.6881C63.8928 56.8151 64.0651 56.8865 64.2448 56.8865H64.9224V60.9519H60.857V56.8865H61.5346C61.7143 56.8865 61.8866 56.8151 62.0137 56.6881C62.1408 56.561 62.2121 56.3887 62.2121 56.209V53.4987C62.2121 53.319 62.1408 53.1467 62.0137 53.0196C61.8866 52.8926 61.7143 52.8212 61.5346 52.8212H54.759C54.5793 52.8212 54.407 52.8926 54.2799 53.0196C54.1528 53.1467 54.0815 53.319 54.0815 53.4987V56.209C54.0815 56.3887 54.1528 56.561 54.2799 56.6881C54.407 56.8151 54.5793 56.8865 54.759 56.8865H55.4366V60.9519H36.465V39.9476C36.465 39.4085 36.6791 38.8915 37.0603 38.5103C37.4415 38.1291 37.9586 37.9149 38.4976 37.9149ZM64.9224 55.5314V54.1763H70.3428V55.5314H64.9224ZM68.9877 56.8865V60.9519H66.2775V56.8865H68.9877ZM55.4366 55.5314V54.1763H60.857V55.5314H55.4366ZM59.5019 56.8865V60.9519H56.7917V56.8865H59.5019ZM36.465 64.3397V62.307H75.7633V64.3397C75.7633 64.8787 75.5491 65.3958 75.1679 65.777C74.7867 66.1582 74.2697 66.3723 73.7306 66.3723H38.4976C37.9586 66.3723 37.4415 66.1582 37.0603 65.777C36.6791 65.3958 36.465 64.8787 36.465 64.3397ZM63.5673 75.1806V77.2132H48.661V75.1806C48.661 75.0009 48.7324 74.8285 48.8595 74.7015C48.9865 74.5744 49.1589 74.503 49.3386 74.503H62.8897C63.0694 74.503 63.2417 74.5744 63.3688 74.7015C63.4959 74.8285 63.5673 75.0009 63.5673 75.1806ZM60.857 73.1479H51.3712V67.7274H60.857V73.1479ZM69.6653 67.7274V69.0826H68.3102V67.7274H69.6653Z" fill="#07A7D8"/>
<path d="M40.5303 51.4661C41.0273 51.4633 41.5138 51.3226 41.9356 51.0595L46.8038 55.3871C46.5999 55.8337 46.5608 56.3382 46.6936 56.8109C46.8264 57.2836 47.1224 57.694 47.5292 57.9691C47.9359 58.2442 48.4269 58.3662 48.9151 58.3135C49.4033 58.2608 49.857 58.0368 50.1956 57.6812C50.5342 57.3257 50.7359 56.8616 50.7647 56.3714C50.7936 55.8812 50.6477 55.3967 50.3531 55.0039C50.0585 54.6111 49.6342 54.3354 49.1556 54.2258C48.677 54.1162 48.175 54.1798 47.7388 54.4053L42.8774 50.0832C43.1187 49.6738 43.2442 49.2065 43.2405 48.7312C43.2368 48.256 43.104 47.7907 42.8564 47.3851L45.7577 44.4872C46.0288 44.6198 46.3265 44.6893 46.6283 44.6905C47.0304 44.6905 47.4234 44.5713 47.7576 44.3479C48.0919 44.1246 48.3524 43.8071 48.5063 43.4357C48.6601 43.0643 48.7004 42.6556 48.6219 42.2613C48.5435 41.867 48.3499 41.5048 48.0656 41.2205C47.7814 40.9362 47.4192 40.7426 47.0249 40.6642C46.6306 40.5858 46.2219 40.626 45.8505 40.7799C45.479 40.9337 45.1616 41.1943 44.9382 41.5285C44.7149 41.8628 44.5957 42.2558 44.5957 42.6578C44.5968 42.9597 44.6663 43.2573 44.7989 43.5285L41.8976 46.4298C41.4848 46.1808 41.0124 46.0481 40.5303 46.0456C39.8115 46.0456 39.1222 46.3312 38.6139 46.8394C38.1056 47.3477 37.8201 48.037 37.8201 48.7558C37.8201 49.4746 38.1056 50.164 38.6139 50.6723C39.1222 51.1805 39.8115 51.4661 40.5303 51.4661ZM49.3386 56.209C49.3386 56.343 49.2988 56.474 49.2244 56.5854C49.1499 56.6968 49.0441 56.7837 48.9203 56.8349C48.7965 56.8862 48.6603 56.8997 48.5288 56.8735C48.3974 56.8474 48.2767 56.7828 48.1819 56.6881C48.0871 56.5933 48.0226 56.4726 47.9965 56.3412C47.9703 56.2097 47.9837 56.0735 48.035 55.9497C48.0863 55.8259 48.1731 55.7201 48.2846 55.6456C48.396 55.5711 48.527 55.5314 48.661 55.5314C48.8407 55.5314 49.013 55.6028 49.1401 55.7299C49.2672 55.8569 49.3386 56.0293 49.3386 56.209ZM46.6283 41.9803C46.7623 41.9803 46.8933 42.02 47.0048 42.0945C47.1162 42.1689 47.203 42.2747 47.2543 42.3985C47.3056 42.5223 47.319 42.6586 47.2929 42.79C47.2667 42.9214 47.2022 43.0422 47.1074 43.1369C47.0127 43.2317 46.892 43.2962 46.7605 43.3224C46.6291 43.3485 46.4929 43.3351 46.369 43.2838C46.2452 43.2325 46.1394 43.1457 46.065 43.0343C45.9905 42.9228 45.9508 42.7918 45.9508 42.6578C45.9508 42.4781 46.0222 42.3058 46.1492 42.1787C46.2763 42.0517 46.4486 41.9803 46.6283 41.9803ZM40.5303 47.4007C40.7983 47.4007 41.0603 47.4802 41.2832 47.6291C41.506 47.778 41.6797 47.9896 41.7823 48.2373C41.8848 48.4849 41.9117 48.7573 41.8594 49.0202C41.8071 49.2831 41.678 49.5245 41.4885 49.7141C41.299 49.9036 41.0576 50.0326 40.7947 50.0849C40.5318 50.1372 40.2594 50.1104 40.0117 50.0078C39.7641 49.9052 39.5525 49.7315 39.4036 49.5087C39.2547 49.2859 39.1752 49.0239 39.1752 48.7558C39.1752 48.3964 39.318 48.0518 39.5721 47.7976C39.8262 47.5435 40.1709 47.4007 40.5303 47.4007Z" fill="#07A7D8"/>
<path d="M52.0488 50.111H73.7306C73.9103 50.111 74.0827 50.0396 74.2097 49.9125C74.3368 49.7854 74.4082 49.6131 74.4082 49.4334V41.3027C74.4082 41.123 74.3368 40.9507 74.2097 40.8236C74.0827 40.6965 73.9103 40.6252 73.7306 40.6252H52.0488C51.8691 40.6252 51.6967 40.6965 51.5697 40.8236C51.4426 40.9507 51.3712 41.123 51.3712 41.3027V49.4334C51.3712 49.6131 51.4426 49.7854 51.5697 49.9125C51.6967 50.0396 51.8691 50.111 52.0488 50.111ZM52.7263 41.9803H73.0531V48.7558H52.7263V41.9803Z" fill="#07A7D8"/>
<path d="M71.6979 43.3354H54.0815V44.6905H71.6979V43.3354Z" fill="#07A7D8"/>
<path d="M71.6979 46.0456H54.0815V47.4007H71.6979V46.0456Z" fill="#07A7D8"/>
</g>
<path d="M73.7306 63.6621H72.3755V65.0172H73.7306V63.6621Z" fill="white"/>
<path d="M71.0204 63.6621H69.6653V65.0172H71.0204V63.6621Z" fill="white"/>
<path d="M68.3102 63.6621H66.955V65.0172H68.3102V63.6621Z" fill="white"/>
<path d="M70.3428 70.4377C70.5225 70.4377 70.6949 70.3663 70.8219 70.2392C70.949 70.1121 71.0204 69.9398 71.0204 69.7601V67.7274H73.7306C74.6288 67.7264 75.4898 67.3691 76.1249 66.734C76.76 66.0989 77.1173 65.2378 77.1184 64.3397V39.9476C77.1173 39.0494 76.76 38.1884 76.1249 37.5533C75.4898 36.9182 74.6288 36.5609 73.7306 36.5598H38.4976C37.5995 36.5609 36.7384 36.9182 36.1033 37.5533C35.4682 38.1884 35.1109 39.0494 35.1099 39.9476V64.3397C35.1109 65.2378 35.4682 66.0989 36.1033 66.734C36.7384 67.3691 37.5995 67.7264 38.4976 67.7274H50.0161V73.1479H49.3386C48.7995 73.1479 48.2824 73.362 47.9012 73.7432C47.52 74.1244 47.3059 74.6415 47.3059 75.1806V77.8908C47.3059 78.0705 47.3773 78.2428 47.5043 78.3699C47.6314 78.497 47.8037 78.5683 47.9834 78.5683H64.2448C64.4245 78.5683 64.5969 78.497 64.7239 78.3699C64.851 78.2428 64.9224 78.0705 64.9224 77.8908V75.1806C64.9224 74.6415 64.7082 74.1244 64.327 73.7432C63.9458 73.362 63.4288 73.1479 62.8897 73.1479H62.2121V67.7274H66.955V69.7601C66.955 69.9398 67.0264 70.1121 67.1535 70.2392C67.2806 70.3663 67.4529 70.4377 67.6326 70.4377H68.3102V75.1806C68.3112 76.0787 68.6685 76.9398 69.3036 77.5749C69.9387 78.21 70.7998 78.5673 71.6979 78.5683H77.1184V77.2132H71.6979C71.1588 77.2132 70.6418 76.9991 70.2606 76.6179C69.8794 76.2367 69.6653 75.7197 69.6653 75.1806V70.4377H70.3428ZM38.4976 37.9149H73.7306C74.2697 37.9149 74.7867 38.1291 75.1679 38.5103C75.5491 38.8915 75.7633 39.4085 75.7633 39.9476V60.9519H70.3428V56.8865H71.0204C71.2001 56.8865 71.3724 56.8151 71.4995 56.6881C71.6266 56.561 71.6979 56.3887 71.6979 56.209V53.4987C71.6979 53.319 71.6266 53.1467 71.4995 53.0196C71.3724 52.8926 71.2001 52.8212 71.0204 52.8212H64.2448C64.0651 52.8212 63.8928 52.8926 63.7657 53.0196C63.6386 53.1467 63.5673 53.319 63.5673 53.4987V56.209C63.5673 56.3887 63.6386 56.561 63.7657 56.6881C63.8928 56.8151 64.0651 56.8865 64.2448 56.8865H64.9224V60.9519H60.857V56.8865H61.5346C61.7143 56.8865 61.8866 56.8151 62.0137 56.6881C62.1408 56.561 62.2121 56.3887 62.2121 56.209V53.4987C62.2121 53.319 62.1408 53.1467 62.0137 53.0196C61.8866 52.8926 61.7143 52.8212 61.5346 52.8212H54.759C54.5793 52.8212 54.407 52.8926 54.2799 53.0196C54.1528 53.1467 54.0815 53.319 54.0815 53.4987V56.209C54.0815 56.3887 54.1528 56.561 54.2799 56.6881C54.407 56.8151 54.5793 56.8865 54.759 56.8865H55.4366V60.9519H36.465V39.9476C36.465 39.4085 36.6791 38.8915 37.0603 38.5103C37.4415 38.1291 37.9586 37.9149 38.4976 37.9149ZM64.9224 55.5314V54.1763H70.3428V55.5314H64.9224ZM68.9877 56.8865V60.9519H66.2775V56.8865H68.9877ZM55.4366 55.5314V54.1763H60.857V55.5314H55.4366ZM59.5019 56.8865V60.9519H56.7917V56.8865H59.5019ZM36.465 64.3397V62.307H75.7633V64.3397C75.7633 64.8787 75.5491 65.3958 75.1679 65.777C74.7867 66.1582 74.2697 66.3723 73.7306 66.3723H38.4976C37.9586 66.3723 37.4415 66.1582 37.0603 65.777C36.6791 65.3958 36.465 64.8787 36.465 64.3397ZM63.5673 75.1806V77.2132H48.661V75.1806C48.661 75.0009 48.7324 74.8285 48.8595 74.7015C48.9865 74.5744 49.1589 74.503 49.3386 74.503H62.8897C63.0694 74.503 63.2417 74.5744 63.3688 74.7015C63.4959 74.8285 63.5673 75.0009 63.5673 75.1806ZM60.857 73.1479H51.3712V67.7274H60.857V73.1479ZM69.6653 67.7274V69.0826H68.3102V67.7274H69.6653Z" fill="white"/>
<path d="M40.5303 51.4661C41.0273 51.4633 41.5138 51.3226 41.9356 51.0595L46.8038 55.3871C46.5999 55.8337 46.5608 56.3382 46.6936 56.8109C46.8264 57.2836 47.1224 57.694 47.5292 57.9691C47.9359 58.2442 48.4269 58.3662 48.9151 58.3135C49.4033 58.2608 49.857 58.0368 50.1956 57.6812C50.5342 57.3257 50.7359 56.8616 50.7647 56.3714C50.7936 55.8812 50.6477 55.3967 50.3531 55.0039C50.0585 54.6111 49.6342 54.3354 49.1556 54.2258C48.677 54.1162 48.175 54.1798 47.7388 54.4053L42.8774 50.0832C43.1187 49.6738 43.2442 49.2065 43.2405 48.7312C43.2368 48.256 43.104 47.7907 42.8564 47.3851L45.7577 44.4872C46.0288 44.6198 46.3265 44.6893 46.6283 44.6905C47.0304 44.6905 47.4234 44.5713 47.7576 44.3479C48.0919 44.1246 48.3524 43.8071 48.5063 43.4357C48.6601 43.0643 48.7004 42.6556 48.6219 42.2613C48.5435 41.867 48.3499 41.5048 48.0656 41.2205C47.7814 40.9362 47.4192 40.7426 47.0249 40.6642C46.6306 40.5858 46.2219 40.626 45.8505 40.7799C45.479 40.9337 45.1616 41.1943 44.9382 41.5285C44.7149 41.8628 44.5957 42.2558 44.5957 42.6578C44.5968 42.9597 44.6663 43.2573 44.7989 43.5285L41.8976 46.4298C41.4848 46.1808 41.0124 46.0481 40.5303 46.0456C39.8115 46.0456 39.1222 46.3312 38.6139 46.8394C38.1056 47.3477 37.8201 48.037 37.8201 48.7558C37.8201 49.4746 38.1056 50.164 38.6139 50.6723C39.1222 51.1805 39.8115 51.4661 40.5303 51.4661ZM49.3386 56.209C49.3386 56.343 49.2988 56.474 49.2244 56.5854C49.1499 56.6968 49.0441 56.7837 48.9203 56.8349C48.7965 56.8862 48.6603 56.8997 48.5288 56.8735C48.3974 56.8474 48.2767 56.7828 48.1819 56.6881C48.0871 56.5933 48.0226 56.4726 47.9965 56.3412C47.9703 56.2097 47.9837 56.0735 48.035 55.9497C48.0863 55.8259 48.1731 55.7201 48.2846 55.6456C48.396 55.5711 48.527 55.5314 48.661 55.5314C48.8407 55.5314 49.013 55.6028 49.1401 55.7299C49.2672 55.8569 49.3386 56.0293 49.3386 56.209ZM46.6283 41.9803C46.7623 41.9803 46.8933 42.02 47.0048 42.0945C47.1162 42.1689 47.203 42.2747 47.2543 42.3985C47.3056 42.5223 47.319 42.6586 47.2929 42.79C47.2667 42.9214 47.2022 43.0422 47.1074 43.1369C47.0127 43.2317 46.892 43.2962 46.7605 43.3224C46.6291 43.3485 46.4929 43.3351 46.369 43.2838C46.2452 43.2325 46.1394 43.1457 46.065 43.0343C45.9905 42.9228 45.9508 42.7918 45.9508 42.6578C45.9508 42.4781 46.0222 42.3058 46.1492 42.1787C46.2763 42.0517 46.4486 41.9803 46.6283 41.9803ZM40.5303 47.4007C40.7983 47.4007 41.0603 47.4802 41.2832 47.6291C41.506 47.778 41.6797 47.9896 41.7823 48.2373C41.8848 48.4849 41.9117 48.7573 41.8594 49.0202C41.8071 49.2831 41.678 49.5245 41.4885 49.7141C41.299 49.9036 41.0576 50.0326 40.7947 50.0849C40.5318 50.1372 40.2594 50.1104 40.0117 50.0078C39.7641 49.9052 39.5525 49.7315 39.4036 49.5087C39.2547 49.2859 39.1752 49.0239 39.1752 48.7558C39.1752 48.3964 39.318 48.0518 39.5721 47.7976C39.8262 47.5435 40.1709 47.4007 40.5303 47.4007Z" fill="white"/>
<path d="M52.0488 50.111H73.7306C73.9103 50.111 74.0827 50.0396 74.2097 49.9125C74.3368 49.7854 74.4082 49.6131 74.4082 49.4334V41.3027C74.4082 41.123 74.3368 40.9507 74.2097 40.8236C74.0827 40.6965 73.9103 40.6252 73.7306 40.6252H52.0488C51.8691 40.6252 51.6967 40.6965 51.5697 40.8236C51.4426 40.9507 51.3712 41.123 51.3712 41.3027V49.4334C51.3712 49.6131 51.4426 49.7854 51.5697 49.9125C51.6967 50.0396 51.8691 50.111 52.0488 50.111ZM52.7263 41.9803H73.0531V48.7558H52.7263V41.9803Z" fill="white"/>
<path d="M71.6979 43.3354H54.0815V44.6905H71.6979V43.3354Z" fill="white"/>
<path d="M71.6979 46.0456H54.0815V47.4007H71.6979V46.0456Z" fill="white"/>
<defs>
<filter id="filter0_f" x="0.966797" y="0.967285" width="112" height="112" filterUnits="userSpaceOnUse" color-interpolation-filters="sRGB">
<feFlood flood-opacity="0" result="BackgroundImageFix"/>
<feBlend mode="normal" in="SourceGraphic" in2="BackgroundImageFix" result="shape"/>
<feGaussianBlur stdDeviation="3" result="effect1_foregroundBlur"/>
</filter>
<filter id="filter1_f" x="29.1099" y="30.5598" width="54.0085" height="54.0085" filterUnits="userSpaceOnUse" color-interpolation-filters="sRGB">
<feFlood flood-opacity="0" result="BackgroundImageFix"/>
<feBlend mode="normal" in="SourceGraphic" in2="BackgroundImageFix" result="shape"/>
<feGaussianBlur stdDeviation="3" result="effect1_foregroundBlur"/>
</filter>
</defs>
</svg>
