<svg width="26" height="21" viewBox="0 0 26 21" fill="none" xmlns="http://www.w3.org/2000/svg">
<path d="M15.2233 0C15.1007 0 14.979 0.0440497 14.8818 0.138862C14.6883 0.327227 14.6887 0.613341 14.8818 0.802126L23.7148 9.4426C24.3095 10.0228 24.3082 10.9785 23.7131 11.5587L14.8814 20.1975C14.6887 20.3858 14.6883 20.6745 14.8814 20.8624V20.8641C14.9773 20.9576 15.0964 21 15.2211 21C15.3471 21 15.4645 20.9572 15.5608 20.8628L24.3955 12.224C25.3726 11.27 25.373 9.73039 24.3973 8.77849L15.5608 0.139701C15.4632 0.0440497 15.345 0.000838983 15.2224 0.000838983L15.2233 0ZM0.858293 10.0316C0.585219 10.0316 0.376221 10.2359 0.376221 10.5006C0.376221 10.7653 0.585649 10.9697 0.858293 10.9697H19.1521C19.4256 10.9697 19.6329 10.7674 19.6329 10.5006C19.6329 10.2338 19.4256 10.0316 19.1521 10.0316H0.858293Z" fill="white"/>
</svg>
