<svg width="851" height="918" viewBox="0 0 851 918" fill="none" xmlns="http://www.w3.org/2000/svg">
<mask id="mask0" mask-type="alpha" maskUnits="userSpaceOnUse" x="0" y="0" width="1073" height="918">
<rect width="1072.24" height="918" fill="#C4C4C4"/>
</mask>
<g mask="url(#mask0)">
<g filter="url(#filter0_f)">
<path d="M836.216 547.125C833.718 547.175 831.403 545.509 830.737 542.978C829.954 539.998 831.736 536.95 834.7 536.167C837.265 535.518 839.863 536.734 841.046 538.965L854.552 546.442C855.368 543.361 855.435 540.014 854.569 536.717C851.904 526.542 841.462 520.431 831.286 523.112C821.094 525.76 814.999 536.201 817.647 546.375C820.311 556.567 830.77 562.678 840.946 560.014C844.51 559.081 847.574 557.199 849.939 554.702L836.216 547.125ZM146.12 263.236L236.652 190.449C237.351 190.682 238.051 190.915 238.784 191.115C246.561 193.23 254.439 192.297 261.167 189.033L388.854 223.72C388.288 226.002 387.988 228.383 387.988 230.831C387.988 240.04 392.268 248.232 398.946 253.561H371.101V267.666L370.234 280.155L367.953 279.822L361.241 325.882H320.888V384.698H311.063V407.745H349.317L322.704 590.354H238.367V655.415H231.056V702.491V703.606H221.763V729.984H231.056V815.094L150.234 822.804V836.658L154.148 836.292V868.165H122.855V826.717V743.222V696.812V675.114H103.369V204.886C112.679 239.207 129.3 263.286 132.481 266.1C133.563 267.05 134.962 267.549 136.528 267.549C140.658 267.549 145.254 263.936 146.12 263.236ZM444.978 238.974L634.901 290.563C634.468 291.995 634.252 293.493 634.252 295.059C634.252 302.735 639.714 309.13 646.959 310.595V472.989L623.41 410.726C622.927 409.393 621.062 405.047 617.714 405.047L616.998 405.114C613.001 405.88 572.498 425.346 560.891 466.594C549.982 507.909 574.997 545.31 578.044 548.024C578.76 548.657 579.676 548.973 580.692 548.973C583.124 548.973 585.705 547.025 586.421 546.442L639.648 503.629C642.046 505.194 644.91 506.11 647.975 506.11C649.723 506.11 651.389 505.827 652.954 505.277H653.271V505.161C655.819 504.212 658.034 502.63 659.716 500.582L680.3 506.093C679.334 512.704 679.717 519.499 681.45 526.159C686.512 545.509 701.767 559.681 721.453 563.144L830.77 572.603L833.135 572.819C834.101 572.919 835.1 572.969 836.099 572.969C838.764 572.969 841.462 572.619 844.06 571.937C850.855 570.155 856.717 566.258 860.931 560.796L864.794 562.928L851.504 578.931L698.353 567.124L668.11 524.161L668.293 703.606H653.754V729.984H676.203H676.22H668.293V786.302H653.754V806.318H656.985V868.165H603.042V729.984H612.352V703.606H603.042V702.491V680.46V655.415H595.731V590.354H511.411L507.831 565.775C507.814 565.609 507.781 565.442 507.764 565.276L484.798 407.745H523.052V384.698H513.227V325.882H472.874L466.162 279.822L463.88 280.155L463.014 267.649V253.561H435.169C439.799 249.881 443.279 244.802 444.978 238.974ZM665.845 297.19C669.875 296.075 673.139 292.894 674.288 288.714L680.633 265.384C682.399 258.957 678.568 252.279 672.123 250.514L273.807 142.324C269.66 136.146 263.365 131.383 255.638 129.268C254.905 129.069 254.172 128.902 253.456 128.752L212.387 20.1458C211.571 17.9144 208.507 10.6373 203.177 10.6373L202.078 10.7539C194.95 12.1194 122.655 46.9893 101.937 120.642C100.238 127.054 99.0393 133.398 98.2565 139.659H97.0408V675.114H77.5555V696.812V743.222V826.717V868.165V897.789H983.854V868.165H973.712V806.318H975.161V786.302H960.605V729.984H975.161V703.606H964.153V234.528H935.524V267.616L935.241 267.982C934.692 268.715 934.608 269.697 935.008 270.513C935.141 270.78 935.308 270.996 935.524 271.196V300.088L935.241 300.454C934.692 301.187 934.608 302.153 935.008 302.969C935.141 303.235 935.308 303.468 935.524 303.651V332.543L935.241 332.909C934.692 333.642 934.608 334.625 935.008 335.441C935.141 335.69 935.308 335.924 935.524 336.123V365.015L935.241 365.381C934.692 366.114 934.608 367.08 935.008 367.896C935.141 368.162 935.308 368.395 935.524 368.579V397.47L935.241 397.837C934.692 398.57 934.608 399.552 935.008 400.368C935.141 400.618 935.308 400.851 935.524 401.051V429.926L935.241 430.309C934.692 431.025 934.608 432.007 935.008 432.823C935.141 433.09 935.308 433.323 935.524 433.506V462.398L935.241 462.764C934.692 463.497 934.608 464.463 935.008 465.279C935.141 465.545 935.308 465.778 935.524 465.978V494.853L935.241 495.219C934.692 495.952 934.608 496.935 935.008 497.751C935.141 498.017 935.308 498.25 935.524 498.433V527.325L935.241 527.692C934.692 528.424 934.608 529.407 935.008 530.223C935.141 530.472 935.308 530.706 935.524 530.905V559.78L935.241 560.147C934.692 560.88 934.608 561.862 935.008 562.678C935.141 562.944 935.308 563.161 935.524 563.361V592.252L935.241 592.619C934.692 593.352 934.608 594.317 935.008 595.133C935.141 595.4 935.308 595.633 935.524 595.833V624.725L935.241 625.091C934.692 625.807 934.608 626.789 935.008 627.605C935.141 627.872 935.308 628.088 935.524 628.288V657.18L935.241 657.546C934.692 658.279 934.608 659.261 935.008 660.077C935.141 660.327 935.308 660.56 935.524 660.76V689.635L935.241 690.002C934.692 690.734 934.608 691.717 935.008 692.533C935.141 692.799 935.308 693.016 935.524 693.215V703.606H921.268V234.528H892.64V267.982C892.09 268.715 891.991 269.697 892.407 270.513C892.473 270.646 892.54 270.763 892.64 270.88V300.454C892.09 301.187 891.991 302.153 892.407 302.969C892.473 303.102 892.54 303.235 892.64 303.352V332.909C892.09 333.642 891.991 334.625 892.407 335.441C892.473 335.574 892.54 335.69 892.64 335.807V365.381C892.09 366.114 891.991 367.08 892.407 367.896C892.473 368.029 892.54 368.146 892.64 368.279V397.837C892.09 398.57 891.991 399.552 892.407 400.368C892.473 400.501 892.54 400.618 892.64 400.734V430.309C892.09 431.025 891.991 432.007 892.407 432.823C892.473 432.957 892.54 433.09 892.64 433.206V462.764C892.09 463.497 891.991 464.463 892.407 465.279C892.473 465.429 892.54 465.545 892.64 465.662V495.219C892.09 495.952 891.991 496.935 892.407 497.751C892.473 497.884 892.54 498.017 892.64 498.134V527.692C892.09 528.424 891.991 529.407 892.407 530.223C892.473 530.356 892.54 530.472 892.64 530.589V560.147C892.09 560.88 891.991 561.862 892.407 562.678C892.473 562.811 892.54 562.944 892.64 563.061V592.619C892.09 593.352 891.991 594.317 892.407 595.133C892.473 595.267 892.54 595.4 892.64 595.516V625.091C892.09 625.807 891.991 626.789 892.407 627.605C892.473 627.739 892.54 627.855 892.64 627.988V657.546C892.09 658.279 891.991 659.261 892.407 660.077C892.473 660.211 892.54 660.327 892.64 660.444V690.002C892.09 690.734 891.991 691.717 892.407 692.533C892.473 692.666 892.54 692.782 892.64 692.899V703.606H877.934V642.809V547.125L870.956 555.518L865.544 552.52C867.809 546.492 868.159 539.948 866.493 533.603C864.378 525.493 859.215 518.683 851.638 514.27L749.948 466.677C739.672 462.331 728.397 461.515 717.606 464.346C704.549 467.76 693.59 476.086 686.745 487.759C685.58 489.758 684.564 491.806 683.681 493.904L662.98 488.359C662.081 482.947 658.3 478.501 653.271 476.636V310.595C659.849 309.28 664.945 303.901 665.845 297.19ZM472.541 499.05H391.785L479.186 544.677L472.541 499.05ZM417.049 655.415H442.963V642.942H391.185L391.152 642.975V655.415H399.429H417.049ZM449.291 655.415H450.474V642.942H449.291V655.415ZM456.802 655.415H495.323L493.508 642.942H456.802V655.415ZM520.904 655.415H557.36V642.942H519.672V646.972L520.904 655.415ZM563.688 655.415H589.202V642.942H563.688V655.415ZM244.696 655.415H270.427V642.942H244.696V655.415ZM276.755 655.415H313.228L314.443 647.055V642.942H276.755V655.415ZM369.901 655.415H377.313V651.085L369.901 655.415ZM383.641 655.415H384.823V646.672L383.641 647.372V655.415ZM416.883 325.882H417.049H447.293L442.896 295.642H391.219L390.503 300.587L416.883 325.882ZM432.421 407.745H374.881L366.954 462.198L432.421 407.745ZM506.898 372.858H486.347V384.698H506.898V372.858ZM480.035 372.858H479.718L480.035 375.006V372.858ZM441.447 384.515V384.698H441.631L441.447 384.515ZM429.307 372.858H398.996V384.698H435.119V378.437L429.307 372.858ZM392.668 372.858H379.977L378.245 384.698H392.668V372.858ZM354.396 372.858H354.08V375.073L354.396 372.858ZM347.752 372.858H327.217V384.698H347.752V372.858ZM327.217 366.53H347.752V349.095H327.217V366.53ZM354.08 366.53H355.329L357.577 351.01V349.095H354.08V366.53ZM380.893 366.53H392.668V349.095H383.425L380.893 366.53ZM398.996 366.53H422.712L404.525 349.095H398.996V366.53ZM450.674 349.095H441.447V349.445L452.239 359.803L450.674 349.095ZM478.786 366.53H480.035V349.095H476.538V351.01L478.786 366.53ZM486.347 366.53H506.898V349.095H486.347V366.53ZM327.217 342.768H347.752V332.21H327.217V342.768ZM354.08 342.768H357.577V332.21H354.08V342.768ZM384.357 342.768H392.668V337.722L386.922 332.21H385.889L384.357 342.768ZM434.486 342.768H435.119V332.21H423.478L434.486 342.768ZM441.447 342.768H449.758L448.226 332.21H441.447V342.768ZM476.538 342.768H480.035V332.21H476.538V342.768ZM486.347 342.768H506.898V332.21H486.347V342.768ZM320.772 603.659L321.788 596.682H320.772V603.659ZM359.842 510.923L353.464 554.685H443.712L359.842 510.923ZM349.783 579.996L348.268 590.354H411.47H417.049H430.922L448.625 579.996H349.783ZM347.352 596.682L345.72 607.856H377.313V596.682H347.352ZM344.804 614.184L341.54 636.614H351.932L377.313 621.76V614.184H344.804ZM340.607 642.942L340.557 643.275L341.123 642.942H340.607ZM392.618 473.755H468.843L460.616 417.203L392.618 473.755ZM383.641 618.064L384.823 617.364V614.184H383.641V618.064ZM401.045 607.856L420.13 596.682H417.049H411.47H391.152V607.856H401.045ZM485.464 587.74L480.984 590.354H485.847L485.464 587.74ZM470.192 596.682L456.802 604.525V607.856H488.395L486.763 596.682H470.192ZM440.298 614.184L401.994 636.614H442.963V614.184H440.298ZM492.592 636.614L489.311 614.184H456.802V636.614H492.592ZM512.344 596.682L513.343 603.576V596.682H512.344ZM270.427 636.614V614.184H244.696V636.614H270.427ZM589.202 636.614V614.184H563.688V636.614H589.202ZM557.36 636.614V614.184H519.672V636.614H557.36ZM450.474 636.614V614.184H449.291V636.614H450.474ZM314.443 636.614V614.184H276.755V636.614H314.443ZM270.427 607.856V596.682H244.696V607.856H270.427ZM589.202 607.856V596.682H563.688V607.856H589.202ZM557.36 607.856V596.682H519.672V607.856H557.36ZM384.823 607.856V596.682H383.641V607.856H384.823ZM314.443 607.856V596.682H276.755V607.856H314.443ZM806.405 729.984H757.309L781.857 754.529L806.405 729.984ZM897.436 239.323H914.357L897.436 261.654V239.323ZM916.472 244.486V267.033H899.385L916.472 244.486ZM916.472 276.958V299.505H899.385L916.472 276.958ZM916.472 309.413V331.96H899.385L916.472 309.413ZM916.472 341.885V364.416H899.385L916.472 341.885ZM916.472 374.34V396.888H899.385L916.472 374.34ZM916.472 406.812V429.36H899.385L916.472 406.812ZM916.472 439.268V461.815H899.385L916.472 439.268ZM916.472 471.74V494.27H899.385L916.472 471.74ZM916.472 504.195V526.742H899.385L916.472 504.195ZM916.472 536.667V559.214H899.385L916.472 536.667ZM916.472 569.122V591.67H899.385L916.472 569.122ZM916.472 601.594V624.125H899.385L916.472 601.594ZM916.472 634.05V656.597H899.385L916.472 634.05ZM916.472 666.505V689.052H899.385L916.472 666.505ZM916.472 693.865V703.606H897.436V693.865H916.472ZM897.436 683.674V661.41H914.307L897.436 683.674ZM897.436 651.218V628.921H914.307L897.436 651.218ZM897.436 618.746V596.482H914.307L897.436 618.746ZM897.436 586.291V563.994H914.307L897.436 586.291ZM897.436 553.819V531.555H914.307L897.436 553.819ZM897.436 521.347V499.083H914.307L897.436 521.347ZM897.436 488.892V466.627H914.307L897.436 488.892ZM897.436 456.436V434.155H914.307L897.436 456.436ZM897.436 423.964V401.683H914.307L897.436 423.964ZM897.436 391.509V369.228H914.307L897.436 391.509ZM897.436 359.037V336.773H914.307L897.436 359.037ZM897.436 326.582V304.301H914.307L897.436 326.582ZM897.436 294.11V271.845H914.307L897.436 294.11ZM949.53 703.606L956.908 693.865H940.321V703.606H949.53ZM959.356 698.611L955.559 703.606H959.356V698.611ZM956.908 271.845H940.321V293.743L956.908 271.845ZM940.321 261.288L956.958 239.323H940.321V261.288ZM959.356 244.119L942.003 267.033H959.356V244.119ZM959.356 276.591L942.003 299.505H959.356V276.591ZM959.356 309.047L942.003 331.96H959.356V309.047ZM959.356 341.519L942.003 364.416H959.356V341.519ZM959.356 373.974L942.003 396.888H959.356V373.974ZM959.356 406.446L942.003 429.36H959.356V406.446ZM959.356 438.901L942.003 461.815H959.356V438.901ZM959.356 471.373L942.003 494.27H959.356V471.373ZM959.356 503.829L942.003 526.742H959.356V503.829ZM959.356 536.301L942.003 559.214H959.356V536.301ZM959.356 568.756L942.003 591.67H959.356V568.756ZM959.356 601.228L942.003 624.125H959.356V601.228ZM959.356 633.683L942.003 656.597H959.356V633.683ZM959.356 666.139L942.003 689.052H959.356V666.139ZM940.321 683.307L956.908 661.41H940.321V683.307ZM940.321 650.852L956.925 628.921H940.321V650.852ZM940.321 618.38L956.908 596.482H940.321V618.38ZM940.321 585.925L956.925 563.994H940.321V585.925ZM940.321 553.453L956.908 531.555H940.321V553.453ZM940.321 520.981L956.908 499.083H940.321V520.981ZM940.321 488.525L956.908 466.627H940.321V488.525ZM940.321 456.07L956.908 434.155H940.321V456.07ZM940.321 423.598L956.908 401.683H940.321V423.598ZM940.321 391.143L956.925 369.228H940.321V391.143ZM940.321 358.671L956.908 336.773H940.321V358.671ZM940.321 326.215L956.908 304.301H940.321V326.215ZM680.95 734.73V783.271L705.232 758.992L680.95 734.73ZM878.034 783.271V734.73L853.769 758.992L878.034 783.271ZM890.692 734.663V783.338L915.04 758.992L890.692 734.663ZM947.948 782.971V735.029L923.983 758.992L947.948 782.971ZM686.879 786.302H732.528L709.695 763.472L686.879 786.302ZM750.864 785.503L777.377 758.992L750.864 732.498V785.503ZM738.207 734.979L714.175 758.992L738.207 783.021V734.979ZM759.024 786.302H804.69L781.857 763.472L759.024 786.302ZM826.457 786.302H872.122L849.289 763.472L826.457 786.302ZM896.67 786.302H942.336L919.503 763.472L896.67 786.302ZM808.121 780.79V737.211L786.32 758.992L808.121 780.79ZM820.778 734.963V783.038L844.826 758.992L820.778 734.963ZM734.243 729.984H685.163L709.695 754.529L734.243 729.984ZM944.051 729.984H894.955L919.503 754.529L944.051 729.984ZM873.838 729.984H824.741L849.289 754.529L873.838 729.984ZM860.364 549.656L861.28 550.155C862.979 545.243 863.196 539.948 861.863 534.819C860.065 527.958 855.685 522.196 849.539 518.599L747.999 471.074C738.84 467.194 728.597 466.444 718.821 468.992C706.997 472.073 697.088 479.616 690.892 490.191C689.943 491.806 689.11 493.471 688.378 495.153L689.194 495.369C694.523 483.163 705.182 473.438 719.038 469.808C743.036 463.53 767.668 477.918 773.946 501.93C780.242 525.926 765.836 550.555 741.837 556.833C717.839 563.128 693.207 548.723 686.912 524.711C685.397 518.949 685.097 513.137 685.813 507.559L684.98 507.342C684.214 513.154 684.58 519.116 686.113 524.944C690.693 542.462 704.465 555.284 722.069 558.382L835.05 568.14C837.665 568.223 840.296 567.957 842.861 567.291C848.357 565.842 853.137 562.761 856.667 558.432L855.751 557.915C852.454 561.879 847.94 564.893 842.594 566.308C828.955 569.855 814.949 561.679 811.368 548.024C807.804 534.386 815.998 520.381 829.638 516.818C843.277 513.237 857.283 521.43 860.847 535.068C862.163 540.064 861.897 545.093 860.364 549.656ZM735.675 522.812C737.107 525.943 738.456 529.107 739.739 532.271C741.038 535.518 743.286 538.516 743.386 542.062C743.503 543.611 743.503 545.176 743.303 546.808C758.941 540.814 768.401 524.611 765.919 508.042C764.637 508.991 763.288 509.74 761.922 510.373C758.774 512.022 755.061 511.539 751.597 511.988C748.182 512.438 744.752 512.821 741.288 513.104C741.371 517.117 739.206 520.881 735.675 522.812ZM710.727 514.22L694.723 509.94C694.456 512.704 694.506 515.519 694.923 518.35C696.188 517.417 697.521 516.684 698.886 516.035C702.034 514.403 705.748 514.869 709.212 514.436C709.728 514.353 710.228 514.286 710.727 514.22ZM698.137 497.767L723.917 504.661C724.334 504.345 724.767 504.062 725.233 503.812C723.751 500.615 722.369 497.401 721.07 494.154C719.771 490.907 717.539 487.892 717.422 484.346C717.306 482.897 717.306 481.415 717.472 479.866C708.779 483.246 702.001 489.774 698.137 497.767ZM730.512 524.178C726.499 524.211 722.768 521.996 720.87 518.449C717.705 519.898 714.541 521.264 711.344 522.546C708.096 523.845 705.098 526.076 701.551 526.193C700.052 526.293 698.503 526.309 696.921 526.11C702.883 541.779 719.071 551.255 735.642 548.807C734.676 547.491 733.893 546.126 733.244 544.727C731.595 541.563 732.078 537.866 731.612 534.402C731.179 531.005 730.796 527.608 730.512 524.178ZM730.313 502.48C734.26 502.43 737.957 504.561 739.905 507.992C743.07 506.543 746.251 505.161 749.465 503.879C752.712 502.563 755.71 500.348 759.274 500.215C760.773 500.115 762.288 500.115 763.871 500.298C757.842 484.812 741.787 475.437 725.333 477.818C726.232 479.067 726.965 480.366 727.565 481.698C729.213 484.845 728.747 488.559 729.197 492.022C729.646 495.486 730.013 498.95 730.313 502.48Z" stroke="#38A7C9" stroke-width="1.5"/>
<path d="M615.448 460.333L583.822 451.707L574.446 470.275L573.097 491.007L604.74 499.633L606.072 478.901L615.448 460.333ZM653.753 490.89C653.753 494.087 651.171 496.669 647.974 496.669C644.793 496.669 642.212 494.087 642.212 490.89C642.212 487.71 644.793 485.128 647.974 485.128C651.171 485.128 653.753 487.71 653.753 490.89ZM683.197 670.535H678.701V662.759H683.197V670.535ZM691.175 670.535H686.695V662.759H691.175V670.535ZM699.169 670.535H694.672V662.759H699.169V670.535ZM683.197 682.358H678.701V674.549H683.197V682.358ZM691.175 682.358H686.695V674.549H691.175V682.358ZM699.169 682.358H694.672V674.565H699.169V682.358ZM683.197 694.165H678.701V686.372H683.197V694.165ZM691.175 694.165H686.695V686.372H691.175V694.165ZM699.169 694.165H694.672V686.372H699.169V694.165ZM716.839 670.535H712.342V662.759H716.839V670.535ZM724.816 670.535H720.319V662.759H724.816V670.535ZM732.81 670.552H728.313V662.759H732.81V670.552ZM716.839 682.358H712.342V674.549H716.839V682.358ZM724.816 682.358H720.319V674.565H724.816V682.358ZM732.81 682.358H728.313V674.565H732.81V682.358ZM716.839 694.165H712.342V686.372H716.839V694.165ZM724.816 694.165H720.319V686.372H724.816V694.165ZM732.81 694.165H728.313V686.372H732.81V694.165ZM750.463 670.535H745.983V662.759H750.463V670.535ZM758.457 670.552H753.961V662.759H758.457V670.552ZM766.434 670.552H761.954V662.759H766.434V670.552ZM750.463 682.358H745.983V674.565H750.463V682.358ZM758.457 682.358H753.961V674.565H758.457V682.358ZM766.434 682.358H761.954V674.565H766.434V682.358ZM750.463 694.165H745.983V686.372H750.463V694.165ZM758.457 694.165H753.961V686.372H758.457V694.165ZM766.434 694.165H761.954V686.372H766.434V694.165ZM784.104 670.552H779.608V662.759H784.104V670.552ZM792.082 670.552H787.602V662.759H792.082V670.552ZM800.059 670.552H795.579V662.759H800.059V670.552ZM784.104 682.358H779.608V674.565H784.104V682.358ZM792.082 682.358H787.602V674.565H792.082V682.358ZM800.059 682.358H795.579V674.565H800.059V682.358ZM784.104 694.165H779.608V686.372H784.104V694.165ZM792.082 694.165H787.602V686.372H792.082V694.165ZM800.059 694.165H795.579V686.372H800.059V694.165ZM817.729 670.552H813.249V662.759H817.729V670.552ZM825.723 670.552H821.226V662.759H825.723V670.552ZM833.7 670.552H829.22V662.759H833.7V670.552ZM817.729 682.358H813.249V674.565H817.729V682.358ZM825.723 682.358H821.226V674.565H825.723V682.358ZM833.7 682.358H829.22V674.565H833.7V682.358ZM817.729 694.165H813.249V686.372H817.729V694.165ZM825.723 694.165H821.226V686.372H825.723V694.165ZM833.7 694.165H829.22V686.372H833.7V694.165ZM851.354 670.552H846.874V662.759H851.354V670.552ZM859.348 670.552H854.851V662.759H859.348V670.552ZM867.325 670.552H862.845V662.759H867.325V670.552ZM851.354 682.358H846.874V674.565H851.354V682.358ZM859.348 682.358H854.851V674.565H859.348V682.358ZM867.325 682.358H862.845V674.582H867.325V682.358ZM851.354 694.165H846.874V686.372H851.354V694.165ZM859.348 694.165H854.851V686.372H859.348V694.165ZM867.325 694.165H862.845V686.372H867.325V694.165ZM683.197 598.481H678.701V590.687H683.197V598.481ZM691.175 598.481H686.695V590.687H691.175V598.481ZM699.169 598.481H694.672V590.687H699.169V598.481ZM683.197 610.287H678.701V602.477H683.197V610.287ZM691.175 610.287H686.695V602.477H691.175V610.287ZM699.169 610.287H694.672V602.494H699.169V610.287ZM683.197 622.077H678.701V614.317H683.197V622.077ZM691.175 622.077H686.695V614.317H691.175V622.077ZM699.169 622.077H694.672V614.317H699.169V622.077ZM716.839 598.481H712.342V590.687H716.839V598.481ZM724.816 598.481H720.319V590.687H724.816V598.481ZM732.81 598.481H728.313V590.687H732.81V598.481ZM716.839 610.287H712.342V602.477H716.839V610.287ZM724.816 610.287H720.319V602.494H724.816V610.287ZM732.81 610.287H728.313V602.494H732.81V610.287ZM716.839 622.077H712.342V614.317H716.839V622.077ZM724.816 622.077H720.319V614.317H724.816V622.077ZM732.81 622.077H728.313V614.317H732.81V622.077ZM750.463 598.481H745.983V590.687H750.463V598.481ZM758.457 598.481H753.961V590.687H758.457V598.481ZM766.434 598.481H761.954V590.687H766.434V598.481ZM750.463 610.287H745.983V602.494H750.463V610.287ZM758.457 610.287H753.961V602.494H758.457V610.287ZM766.434 610.287H761.954V602.494H766.434V610.287ZM750.463 622.077H745.983V614.317H750.463V622.077ZM758.457 622.077H753.961V614.317H758.457V622.077ZM766.434 622.077H761.954V614.317H766.434V622.077ZM784.104 598.481H779.608V590.687H784.104V598.481ZM792.082 598.481H787.602V590.687H792.082V598.481ZM800.059 598.481H795.579V590.687H800.059V598.481ZM784.104 610.287H779.608V602.494H784.104V610.287ZM792.082 610.287H787.602V602.494H792.082V610.287ZM800.059 610.287H795.579V602.494H800.059V610.287ZM784.104 622.077H779.608V614.317H784.104V622.077ZM792.082 622.077H787.602V614.317H792.082V622.077ZM800.059 622.094H795.579V614.317H800.059V622.094ZM817.729 598.481H813.249V590.687H817.729V598.481ZM825.723 598.481H821.226V590.687H825.723V598.481ZM833.7 598.481H829.22V590.687H833.7V598.481ZM817.729 610.287H813.249V602.494H817.729V610.287ZM825.723 610.287H821.226V602.494H825.723V610.287ZM833.7 610.287H829.22V602.494H833.7V610.287ZM817.729 622.077H813.249V614.317H817.729V622.077ZM825.723 622.094H821.226V614.317H825.723V622.094ZM833.7 622.094H829.22V614.317H833.7V622.094ZM851.354 598.481H846.874V590.687H851.354V598.481ZM859.348 598.481H854.851V590.687H859.348V598.481ZM867.325 598.481H862.845V590.687H867.325V598.481ZM851.354 610.287H846.874V602.494H851.354V610.287ZM859.348 610.287H854.851V602.494H859.348V610.287ZM867.325 610.287H862.845V602.511H867.325V610.287ZM851.354 622.094H846.874V614.317H851.354V622.094ZM859.348 622.094H854.851V614.317H859.348V622.094ZM867.325 622.094H862.845V614.317H867.325V622.094ZM295.94 855.776H288.728V837.941H295.94V855.776ZM284.115 855.776H276.904V837.941H284.115V855.776ZM272.291 855.776H265.08V837.941H272.291V855.776ZM225.776 855.776H218.565V837.941H225.776V855.776ZM213.952 855.776H206.74V837.941H213.952V855.776ZM202.127 855.776H194.916V837.941H202.127V855.776ZM474.538 855.776H467.344V837.941H474.538V855.776ZM462.73 855.776H455.519V837.941H462.73V855.776ZM450.906 855.776H443.695V837.941H450.906V855.776ZM404.391 855.776H397.18V837.941H404.391V855.776ZM392.567 855.776H385.356V837.941H392.567V855.776ZM380.742 855.776H373.531V837.941H380.742V855.776ZM692.39 825.685H686.262V815.011H692.39V825.685ZM944.433 858.024H938.305V847.35H944.433V858.024ZM933.508 858.024H927.363V847.35H933.508V858.024ZM922.567 858.024H916.438V847.35H922.567V858.024ZM944.433 841.854H938.305V831.197H944.433V841.854ZM933.508 841.854H927.363V831.197H933.508V841.854ZM922.567 841.854H916.438V831.197H922.567V841.854ZM944.433 825.702H938.305V815.027H944.433V825.702ZM933.508 825.702H927.363V815.027H933.508V825.702ZM922.567 825.685H916.438V815.027H922.567V825.685ZM898.385 858.024H892.256V847.35H898.385V858.024ZM887.476 858.024H881.331V847.35H887.476V858.024ZM876.535 858.024H870.389V847.35H876.535V858.024ZM898.385 841.854H892.256V831.197H898.385V841.854ZM887.476 841.854H881.331V831.197H887.476V841.854ZM876.535 841.854H870.389V831.197H876.535V841.854ZM898.385 825.702H892.256V815.027H898.385V825.702ZM887.476 825.685H881.331V815.027H887.476V825.685ZM876.535 825.685H870.389V815.027H876.535V825.685ZM852.37 858.024H846.224V847.35H852.37V858.024ZM841.428 858.024H835.299V847.35H841.428V858.024ZM830.519 858.024H824.357V847.35H830.519V858.024ZM852.37 841.854H846.224V831.197H852.37V841.854ZM841.428 841.854H835.299V831.197H841.428V841.854ZM830.519 841.854H824.357V831.18H830.519V841.854ZM852.37 825.685H846.224V815.027H852.37V825.685ZM841.428 825.685H835.299V815.027H841.428V825.685ZM830.519 825.685H824.357V815.011H830.519V825.685ZM806.338 858.024H800.192V847.35H806.338V858.024ZM784.471 858.007H778.325V847.35H784.471V858.007ZM806.338 841.854H800.192V831.197H806.338V841.854ZM795.396 841.854H789.267V831.18H795.396V841.854ZM784.471 841.854H778.325V831.18H784.471V841.854ZM806.338 825.685H800.192V815.027H806.338V825.685ZM795.396 825.685H789.267V815.011H795.396V825.685ZM784.471 825.685H778.325V815.011H784.471V825.685ZM760.289 858.024H754.16V847.35H760.289V858.024ZM749.364 858.007H743.235V847.35H749.364V858.007ZM738.439 858.007H732.277V847.35H738.439V858.007ZM760.289 841.854H754.16V831.18H760.289V841.854ZM749.364 841.854H743.235V831.18H749.364V841.854ZM738.439 841.854H732.277V831.18H738.439V841.854ZM760.289 825.685H754.16V815.011H760.289V825.685ZM749.364 825.685H743.235V815.011H749.364V825.685ZM738.439 825.685H732.277V815.011H738.439V825.685ZM714.257 858.007H708.112V847.35H714.257V858.007ZM703.332 858.007H697.203V847.35H703.332V858.007ZM692.39 858.007H686.262V847.35H692.39V858.007ZM714.257 841.854H708.112V831.18H714.257V841.854ZM703.332 841.854H697.203V831.18H703.332V841.854ZM692.39 841.854H686.262V831.18H692.39V841.854ZM714.257 825.685H708.112V815.011H714.257V825.685ZM703.332 825.685H697.203V815.011H703.332V825.685ZM266.362 757.56H258.901V744.588H266.362V757.56ZM573.097 796.926H565.636V783.954H573.097V796.926ZM559.79 796.926H552.329V783.938H559.79V796.926ZM546.484 796.91H539.023V783.938H546.484V796.91ZM573.097 777.243H565.636V764.288H573.097V777.243ZM559.79 777.243H552.329V764.288H559.79V777.243ZM546.484 777.243H539.023V764.288H546.484V777.243ZM573.097 757.594H565.636V744.605H573.097V757.594ZM559.79 757.594H552.329V744.605H559.79V757.594ZM546.484 757.577H539.023V744.605H546.484V757.577ZM517.073 796.926H509.595V783.938H517.073V796.926ZM503.783 796.91H496.305V783.938H503.783V796.91ZM490.476 796.91H482.998V783.938H490.476V796.91ZM517.073 777.243H509.595V764.288H517.073V777.243ZM503.783 777.243H496.305V764.288H503.783V777.243ZM490.476 777.243H482.998V764.271H490.476V777.243ZM517.073 757.594H509.595V744.605H517.073V757.594ZM503.783 757.577H496.305V744.605H503.783V757.577ZM490.476 757.577H482.998V744.605H490.476V757.577ZM461.048 796.91H453.571V783.938H461.048V796.91ZM447.742 796.91H440.281V783.938H447.742V796.91ZM434.452 796.91H426.974V783.938H434.452V796.91ZM461.048 777.243H453.571V764.288H461.048V777.243ZM447.742 777.243H440.281V764.271H447.742V777.243ZM434.452 777.243H426.974V764.271H434.452V777.243ZM461.048 757.577H453.571V744.605H461.048V757.577ZM447.742 757.577H440.281V744.605H447.742V757.577ZM434.452 757.577H426.974V744.588H434.452V757.577ZM405.024 796.91H397.563V783.938H405.024V796.91ZM391.717 796.91H384.256V783.938H391.717V796.91ZM378.427 796.91H370.95V783.938H378.427V796.91ZM405.024 777.243H397.563V764.271H405.024V777.243ZM391.717 777.243H384.256V764.271H391.717V777.243ZM378.427 777.243H370.95V764.271H378.427V777.243ZM405.024 757.577H397.563V744.605H405.024V757.577ZM391.717 757.577H384.256V744.588H391.717V757.577ZM378.427 757.577H370.95V744.588H378.427V757.577ZM349 796.91H341.522V783.938H349V796.91ZM335.693 796.91H328.215V783.938H335.693V796.91ZM322.403 796.91H314.909V783.938H322.403V796.91ZM349 777.243H341.522V764.271H349V777.243ZM335.693 777.243H328.215V764.271H335.693V777.243ZM322.403 777.243H314.909V764.271H322.403V777.243ZM349 757.577H341.522V744.588H349V757.577ZM335.693 757.577H328.215V744.588H335.693V757.577ZM322.403 757.56H314.909V744.588H322.403V757.56ZM292.975 796.91H285.498V783.938H292.975V796.91ZM279.669 796.91H272.208V783.938H279.669V796.91ZM266.362 796.91H258.901V783.938H266.362V796.91ZM292.975 777.243H285.498V764.271H292.975V777.243ZM279.669 777.243H272.208V764.271H279.669V777.243ZM266.362 777.243H258.901V764.271H266.362V777.243ZM292.975 757.577H285.498V744.588H292.975V757.577ZM279.669 757.56H272.208V744.588H279.669V757.56ZM795.396 858.024H789.267V847.35H795.396V858.024ZM524.134 880.954C520.437 880.954 517.439 877.94 517.439 874.226V869.414H512.893V861.454H517.439V840.605C517.439 836.909 520.437 833.894 524.134 833.894C527.848 833.894 530.846 836.909 530.846 840.605V861.454H535.376V869.414H530.846V874.226C530.846 877.94 527.848 880.954 524.134 880.954ZM553.928 880.954C550.214 880.954 547.217 877.94 547.217 874.226V869.414H542.67V861.454H547.217V840.605C547.217 836.909 550.214 833.894 553.928 833.894C557.625 833.894 560.623 836.909 560.623 840.605V861.454H565.153V869.414H560.623V874.226C560.623 877.94 557.625 880.954 553.928 880.954ZM584.255 880.954C580.558 880.954 577.544 877.94 577.544 874.226V869.414H573.014V861.454H577.544V840.605C577.544 836.909 580.558 833.894 584.255 833.894C587.969 833.894 590.967 836.909 590.967 840.605V861.454H595.497V869.414H590.967V874.226C590.967 877.94 587.969 880.954 584.255 880.954ZM178.428 190.466L156.528 184.488L134.612 178.526L117.008 189.85L134.661 240.756L140.724 242.421L146.802 244.07L187.855 209.15L178.428 190.466ZM257.319 162.956C255.803 168.535 250.041 171.832 244.445 170.3C238.866 168.785 235.585 163.023 237.101 157.444C238.616 151.866 244.379 148.569 249.958 150.101C255.537 151.616 258.834 157.361 257.319 162.956ZM199.096 109.069L142.139 93.5494L125.252 126.971L122.854 164.322L179.794 179.842L182.209 142.491L199.096 109.069ZM203.293 99.2112L181.376 93.2497L159.493 87.2715L150.05 68.5876L191.102 33.6677L197.181 35.3163L203.243 36.9649L220.896 87.9043L203.293 99.2112ZM603.957 505.528L591.8 502.214L579.642 498.9L569.866 505.195L579.659 533.47L583.04 534.403L586.42 535.319L609.203 515.902L603.957 505.528ZM617.78 454.855L605.606 451.541L593.448 448.227L588.202 437.853L611.002 418.453L614.383 419.369L617.763 420.284L627.573 448.577L617.78 454.855Z" stroke="#38A7C9" stroke-width="1.5"/>
</g>
<path d="M836.216 547.125C833.718 547.175 831.403 545.509 830.737 542.978C829.954 539.998 831.736 536.95 834.7 536.167C837.265 535.518 839.863 536.734 841.046 538.965L854.552 546.442C855.368 543.361 855.435 540.014 854.569 536.717C851.904 526.542 841.462 520.431 831.286 523.112C821.094 525.76 814.999 536.201 817.647 546.375C820.311 556.567 830.77 562.678 840.946 560.014C844.51 559.081 847.574 557.199 849.939 554.702L836.216 547.125ZM146.12 263.236L236.652 190.449C237.351 190.682 238.051 190.915 238.784 191.115C246.561 193.23 254.439 192.297 261.167 189.033L388.854 223.72C388.288 226.002 387.988 228.383 387.988 230.831C387.988 240.04 392.268 248.232 398.946 253.561H371.101V267.666L370.234 280.155L367.953 279.822L361.241 325.882H320.888V384.698H311.063V407.745H349.317L322.704 590.354H238.367V655.415H231.056V702.491V703.606H221.763V729.984H231.056V815.094L150.234 822.804V836.658L154.148 836.292V868.165H122.855V826.717V743.222V696.812V675.114H103.369V204.886C112.679 239.207 129.3 263.286 132.481 266.1C133.563 267.05 134.962 267.549 136.528 267.549C140.658 267.549 145.254 263.936 146.12 263.236ZM444.978 238.974L634.901 290.563C634.468 291.995 634.252 293.493 634.252 295.059C634.252 302.735 639.714 309.13 646.959 310.595V472.989L623.41 410.726C622.927 409.393 621.062 405.047 617.714 405.047L616.998 405.114C613.001 405.88 572.498 425.346 560.891 466.594C549.982 507.909 574.997 545.31 578.044 548.024C578.76 548.657 579.676 548.973 580.692 548.973C583.124 548.973 585.705 547.025 586.421 546.442L639.648 503.629C642.046 505.194 644.91 506.11 647.975 506.11C649.723 506.11 651.389 505.827 652.954 505.277H653.271V505.161C655.819 504.212 658.034 502.63 659.716 500.582L680.3 506.093C679.334 512.704 679.717 519.499 681.45 526.159C686.512 545.509 701.767 559.681 721.453 563.144L830.77 572.603L833.135 572.819C834.101 572.919 835.1 572.969 836.099 572.969C838.764 572.969 841.462 572.619 844.06 571.937C850.855 570.155 856.717 566.258 860.931 560.796L864.794 562.928L851.504 578.931L698.353 567.124L668.11 524.161L668.293 703.606H653.754V729.984H676.203H676.22H668.293V786.302H653.754V806.318H656.985V868.165H603.042V729.984H612.352V703.606H603.042V702.491V680.46V655.415H595.731V590.354H511.411L507.831 565.775C507.814 565.609 507.781 565.442 507.764 565.276L484.798 407.745H523.052V384.698H513.227V325.882H472.874L466.162 279.822L463.88 280.155L463.014 267.649V253.561H435.169C439.799 249.881 443.279 244.802 444.978 238.974ZM665.845 297.19C669.875 296.075 673.139 292.894 674.288 288.714L680.633 265.384C682.399 258.957 678.568 252.279 672.123 250.514L273.807 142.324C269.66 136.146 263.365 131.383 255.638 129.268C254.905 129.069 254.172 128.902 253.456 128.752L212.387 20.1458C211.571 17.9144 208.507 10.6373 203.177 10.6373L202.078 10.7539C194.95 12.1194 122.655 46.9893 101.937 120.642C100.238 127.054 99.0393 133.398 98.2565 139.659H97.0408V675.114H77.5555V696.812V743.222V826.717V868.165V897.789H983.854V868.165H973.712V806.318H975.161V786.302H960.605V729.984H975.161V703.606H964.153V234.528H935.524V267.616L935.241 267.982C934.692 268.715 934.608 269.697 935.008 270.513C935.141 270.78 935.308 270.996 935.524 271.196V300.088L935.241 300.454C934.692 301.187 934.608 302.153 935.008 302.969C935.141 303.235 935.308 303.468 935.524 303.651V332.543L935.241 332.909C934.692 333.642 934.608 334.625 935.008 335.441C935.141 335.69 935.308 335.924 935.524 336.123V365.015L935.241 365.381C934.692 366.114 934.608 367.08 935.008 367.896C935.141 368.162 935.308 368.395 935.524 368.579V397.47L935.241 397.837C934.692 398.57 934.608 399.552 935.008 400.368C935.141 400.618 935.308 400.851 935.524 401.051V429.926L935.241 430.309C934.692 431.025 934.608 432.007 935.008 432.823C935.141 433.09 935.308 433.323 935.524 433.506V462.398L935.241 462.764C934.692 463.497 934.608 464.463 935.008 465.279C935.141 465.545 935.308 465.778 935.524 465.978V494.853L935.241 495.219C934.692 495.952 934.608 496.935 935.008 497.751C935.141 498.017 935.308 498.25 935.524 498.433V527.325L935.241 527.692C934.692 528.424 934.608 529.407 935.008 530.223C935.141 530.472 935.308 530.706 935.524 530.905V559.78L935.241 560.147C934.692 560.88 934.608 561.862 935.008 562.678C935.141 562.944 935.308 563.161 935.524 563.361V592.252L935.241 592.619C934.692 593.352 934.608 594.317 935.008 595.133C935.141 595.4 935.308 595.633 935.524 595.833V624.725L935.241 625.091C934.692 625.807 934.608 626.789 935.008 627.605C935.141 627.872 935.308 628.088 935.524 628.288V657.18L935.241 657.546C934.692 658.279 934.608 659.261 935.008 660.077C935.141 660.327 935.308 660.56 935.524 660.76V689.635L935.241 690.002C934.692 690.734 934.608 691.717 935.008 692.533C935.141 692.799 935.308 693.016 935.524 693.215V703.606H921.268V234.528H892.64V267.982C892.09 268.715 891.991 269.697 892.407 270.513C892.473 270.646 892.54 270.763 892.64 270.88V300.454C892.09 301.187 891.991 302.153 892.407 302.969C892.473 303.102 892.54 303.235 892.64 303.352V332.909C892.09 333.642 891.991 334.625 892.407 335.441C892.473 335.574 892.54 335.69 892.64 335.807V365.381C892.09 366.114 891.991 367.08 892.407 367.896C892.473 368.029 892.54 368.146 892.64 368.279V397.837C892.09 398.57 891.991 399.552 892.407 400.368C892.473 400.501 892.54 400.618 892.64 400.734V430.309C892.09 431.025 891.991 432.007 892.407 432.823C892.473 432.957 892.54 433.09 892.64 433.206V462.764C892.09 463.497 891.991 464.463 892.407 465.279C892.473 465.429 892.54 465.545 892.64 465.662V495.219C892.09 495.952 891.991 496.935 892.407 497.751C892.473 497.884 892.54 498.017 892.64 498.134V527.692C892.09 528.424 891.991 529.407 892.407 530.223C892.473 530.356 892.54 530.472 892.64 530.589V560.147C892.09 560.88 891.991 561.862 892.407 562.678C892.473 562.811 892.54 562.944 892.64 563.061V592.619C892.09 593.352 891.991 594.317 892.407 595.133C892.473 595.267 892.54 595.4 892.64 595.516V625.091C892.09 625.807 891.991 626.789 892.407 627.605C892.473 627.739 892.54 627.855 892.64 627.988V657.546C892.09 658.279 891.991 659.261 892.407 660.077C892.473 660.211 892.54 660.327 892.64 660.444V690.002C892.09 690.734 891.991 691.717 892.407 692.533C892.473 692.666 892.54 692.782 892.64 692.899V703.606H877.934V642.809V547.125L870.956 555.518L865.544 552.52C867.809 546.492 868.159 539.948 866.493 533.603C864.378 525.493 859.215 518.683 851.638 514.27L749.948 466.677C739.672 462.331 728.397 461.515 717.606 464.346C704.549 467.76 693.59 476.086 686.745 487.759C685.58 489.758 684.564 491.806 683.681 493.904L662.98 488.359C662.081 482.947 658.3 478.501 653.271 476.636V310.595C659.849 309.28 664.945 303.901 665.845 297.19ZM472.541 499.05H391.785L479.186 544.677L472.541 499.05ZM417.049 655.415H442.963V642.942H391.185L391.152 642.975V655.415H399.429H417.049ZM449.291 655.415H450.474V642.942H449.291V655.415ZM456.802 655.415H495.323L493.508 642.942H456.802V655.415ZM520.904 655.415H557.36V642.942H519.672V646.972L520.904 655.415ZM563.688 655.415H589.202V642.942H563.688V655.415ZM244.696 655.415H270.427V642.942H244.696V655.415ZM276.755 655.415H313.228L314.443 647.055V642.942H276.755V655.415ZM369.901 655.415H377.313V651.085L369.901 655.415ZM383.641 655.415H384.823V646.672L383.641 647.372V655.415ZM416.883 325.882H417.049H447.293L442.896 295.642H391.219L390.503 300.587L416.883 325.882ZM432.421 407.745H374.881L366.954 462.198L432.421 407.745ZM506.898 372.858H486.347V384.698H506.898V372.858ZM480.035 372.858H479.718L480.035 375.006V372.858ZM441.447 384.515V384.698H441.631L441.447 384.515ZM429.307 372.858H398.996V384.698H435.119V378.437L429.307 372.858ZM392.668 372.858H379.977L378.245 384.698H392.668V372.858ZM354.396 372.858H354.08V375.073L354.396 372.858ZM347.752 372.858H327.217V384.698H347.752V372.858ZM327.217 366.53H347.752V349.095H327.217V366.53ZM354.08 366.53H355.329L357.577 351.01V349.095H354.08V366.53ZM380.893 366.53H392.668V349.095H383.425L380.893 366.53ZM398.996 366.53H422.712L404.525 349.095H398.996V366.53ZM450.674 349.095H441.447V349.445L452.239 359.803L450.674 349.095ZM478.786 366.53H480.035V349.095H476.538V351.01L478.786 366.53ZM486.347 366.53H506.898V349.095H486.347V366.53ZM327.217 342.768H347.752V332.21H327.217V342.768ZM354.08 342.768H357.577V332.21H354.08V342.768ZM384.357 342.768H392.668V337.722L386.922 332.21H385.889L384.357 342.768ZM434.486 342.768H435.119V332.21H423.478L434.486 342.768ZM441.447 342.768H449.758L448.226 332.21H441.447V342.768ZM476.538 342.768H480.035V332.21H476.538V342.768ZM486.347 342.768H506.898V332.21H486.347V342.768ZM320.772 603.659L321.788 596.682H320.772V603.659ZM359.842 510.923L353.464 554.685H443.712L359.842 510.923ZM349.783 579.996L348.268 590.354H411.47H417.049H430.922L448.625 579.996H349.783ZM347.352 596.682L345.72 607.856H377.313V596.682H347.352ZM344.804 614.184L341.54 636.614H351.932L377.313 621.76V614.184H344.804ZM340.607 642.942L340.557 643.275L341.123 642.942H340.607ZM392.618 473.755H468.843L460.616 417.203L392.618 473.755ZM383.641 618.064L384.823 617.364V614.184H383.641V618.064ZM401.045 607.856L420.13 596.682H417.049H411.47H391.152V607.856H401.045ZM485.464 587.74L480.984 590.354H485.847L485.464 587.74ZM470.192 596.682L456.802 604.525V607.856H488.395L486.763 596.682H470.192ZM440.298 614.184L401.994 636.614H442.963V614.184H440.298ZM492.592 636.614L489.311 614.184H456.802V636.614H492.592ZM512.344 596.682L513.343 603.576V596.682H512.344ZM270.427 636.614V614.184H244.696V636.614H270.427ZM589.202 636.614V614.184H563.688V636.614H589.202ZM557.36 636.614V614.184H519.672V636.614H557.36ZM450.474 636.614V614.184H449.291V636.614H450.474ZM314.443 636.614V614.184H276.755V636.614H314.443ZM270.427 607.856V596.682H244.696V607.856H270.427ZM589.202 607.856V596.682H563.688V607.856H589.202ZM557.36 607.856V596.682H519.672V607.856H557.36ZM384.823 607.856V596.682H383.641V607.856H384.823ZM314.443 607.856V596.682H276.755V607.856H314.443ZM806.405 729.984H757.309L781.857 754.529L806.405 729.984ZM897.436 239.323H914.357L897.436 261.654V239.323ZM916.472 244.486V267.033H899.385L916.472 244.486ZM916.472 276.958V299.505H899.385L916.472 276.958ZM916.472 309.413V331.96H899.385L916.472 309.413ZM916.472 341.885V364.416H899.385L916.472 341.885ZM916.472 374.34V396.888H899.385L916.472 374.34ZM916.472 406.812V429.36H899.385L916.472 406.812ZM916.472 439.268V461.815H899.385L916.472 439.268ZM916.472 471.74V494.27H899.385L916.472 471.74ZM916.472 504.195V526.742H899.385L916.472 504.195ZM916.472 536.667V559.214H899.385L916.472 536.667ZM916.472 569.122V591.67H899.385L916.472 569.122ZM916.472 601.594V624.125H899.385L916.472 601.594ZM916.472 634.05V656.597H899.385L916.472 634.05ZM916.472 666.505V689.052H899.385L916.472 666.505ZM916.472 693.865V703.606H897.436V693.865H916.472ZM897.436 683.674V661.41H914.307L897.436 683.674ZM897.436 651.218V628.921H914.307L897.436 651.218ZM897.436 618.746V596.482H914.307L897.436 618.746ZM897.436 586.291V563.994H914.307L897.436 586.291ZM897.436 553.819V531.555H914.307L897.436 553.819ZM897.436 521.347V499.083H914.307L897.436 521.347ZM897.436 488.892V466.627H914.307L897.436 488.892ZM897.436 456.436V434.155H914.307L897.436 456.436ZM897.436 423.964V401.683H914.307L897.436 423.964ZM897.436 391.509V369.228H914.307L897.436 391.509ZM897.436 359.037V336.773H914.307L897.436 359.037ZM897.436 326.582V304.301H914.307L897.436 326.582ZM897.436 294.11V271.845H914.307L897.436 294.11ZM949.53 703.606L956.908 693.865H940.321V703.606H949.53ZM959.356 698.611L955.559 703.606H959.356V698.611ZM956.908 271.845H940.321V293.743L956.908 271.845ZM940.321 261.288L956.958 239.323H940.321V261.288ZM959.356 244.119L942.003 267.033H959.356V244.119ZM959.356 276.591L942.003 299.505H959.356V276.591ZM959.356 309.047L942.003 331.96H959.356V309.047ZM959.356 341.519L942.003 364.416H959.356V341.519ZM959.356 373.974L942.003 396.888H959.356V373.974ZM959.356 406.446L942.003 429.36H959.356V406.446ZM959.356 438.901L942.003 461.815H959.356V438.901ZM959.356 471.373L942.003 494.27H959.356V471.373ZM959.356 503.829L942.003 526.742H959.356V503.829ZM959.356 536.301L942.003 559.214H959.356V536.301ZM959.356 568.756L942.003 591.67H959.356V568.756ZM959.356 601.228L942.003 624.125H959.356V601.228ZM959.356 633.683L942.003 656.597H959.356V633.683ZM959.356 666.139L942.003 689.052H959.356V666.139ZM940.321 683.307L956.908 661.41H940.321V683.307ZM940.321 650.852L956.925 628.921H940.321V650.852ZM940.321 618.38L956.908 596.482H940.321V618.38ZM940.321 585.925L956.925 563.994H940.321V585.925ZM940.321 553.453L956.908 531.555H940.321V553.453ZM940.321 520.981L956.908 499.083H940.321V520.981ZM940.321 488.525L956.908 466.627H940.321V488.525ZM940.321 456.07L956.908 434.155H940.321V456.07ZM940.321 423.598L956.908 401.683H940.321V423.598ZM940.321 391.143L956.925 369.228H940.321V391.143ZM940.321 358.671L956.908 336.773H940.321V358.671ZM940.321 326.215L956.908 304.301H940.321V326.215ZM680.95 734.73V783.271L705.232 758.992L680.95 734.73ZM878.034 783.271V734.73L853.769 758.992L878.034 783.271ZM890.692 734.663V783.338L915.04 758.992L890.692 734.663ZM947.948 782.971V735.029L923.983 758.992L947.948 782.971ZM686.879 786.302H732.528L709.695 763.472L686.879 786.302ZM750.864 785.503L777.377 758.992L750.864 732.498V785.503ZM738.207 734.979L714.175 758.992L738.207 783.021V734.979ZM759.024 786.302H804.69L781.857 763.472L759.024 786.302ZM826.457 786.302H872.122L849.289 763.472L826.457 786.302ZM896.67 786.302H942.336L919.503 763.472L896.67 786.302ZM808.121 780.79V737.211L786.32 758.992L808.121 780.79ZM820.778 734.963V783.038L844.826 758.992L820.778 734.963ZM734.243 729.984H685.163L709.695 754.529L734.243 729.984ZM944.051 729.984H894.955L919.503 754.529L944.051 729.984ZM873.838 729.984H824.741L849.289 754.529L873.838 729.984ZM860.364 549.656L861.28 550.155C862.979 545.243 863.196 539.948 861.863 534.819C860.065 527.958 855.685 522.196 849.539 518.599L747.999 471.074C738.84 467.194 728.597 466.444 718.821 468.992C706.997 472.073 697.088 479.616 690.892 490.191C689.943 491.806 689.11 493.471 688.378 495.153L689.194 495.369C694.523 483.163 705.182 473.438 719.038 469.808C743.036 463.53 767.668 477.918 773.946 501.93C780.242 525.926 765.836 550.555 741.837 556.833C717.839 563.128 693.207 548.723 686.912 524.711C685.397 518.949 685.097 513.137 685.813 507.559L684.98 507.342C684.214 513.154 684.58 519.116 686.113 524.944C690.693 542.462 704.465 555.284 722.069 558.382L835.05 568.14C837.665 568.223 840.296 567.957 842.861 567.291C848.357 565.842 853.137 562.761 856.667 558.432L855.751 557.915C852.454 561.879 847.94 564.893 842.594 566.308C828.955 569.855 814.949 561.679 811.368 548.024C807.804 534.386 815.998 520.381 829.638 516.818C843.277 513.237 857.283 521.43 860.847 535.068C862.163 540.064 861.897 545.093 860.364 549.656ZM735.675 522.812C737.107 525.943 738.456 529.107 739.739 532.271C741.038 535.518 743.286 538.516 743.386 542.062C743.503 543.611 743.503 545.176 743.303 546.808C758.941 540.814 768.401 524.611 765.919 508.042C764.637 508.991 763.288 509.74 761.922 510.373C758.774 512.022 755.061 511.539 751.597 511.988C748.182 512.438 744.752 512.821 741.288 513.104C741.371 517.117 739.206 520.881 735.675 522.812ZM710.727 514.22L694.723 509.94C694.456 512.704 694.506 515.519 694.923 518.35C696.188 517.417 697.521 516.684 698.886 516.035C702.034 514.403 705.748 514.869 709.212 514.436C709.728 514.353 710.228 514.286 710.727 514.22ZM698.137 497.767L723.917 504.661C724.334 504.345 724.767 504.062 725.233 503.812C723.751 500.615 722.369 497.401 721.07 494.154C719.771 490.907 717.539 487.892 717.422 484.346C717.306 482.897 717.306 481.415 717.472 479.866C708.779 483.246 702.001 489.774 698.137 497.767ZM730.512 524.178C726.499 524.211 722.768 521.996 720.87 518.449C717.705 519.898 714.541 521.264 711.344 522.546C708.096 523.845 705.098 526.076 701.551 526.193C700.052 526.293 698.503 526.309 696.921 526.11C702.883 541.779 719.071 551.255 735.642 548.807C734.676 547.491 733.893 546.126 733.244 544.727C731.595 541.563 732.078 537.866 731.612 534.402C731.179 531.005 730.796 527.608 730.512 524.178ZM730.313 502.48C734.26 502.43 737.957 504.561 739.905 507.992C743.07 506.543 746.251 505.161 749.465 503.879C752.712 502.563 755.71 500.348 759.274 500.215C760.773 500.115 762.288 500.115 763.871 500.298C757.842 484.812 741.787 475.437 725.333 477.818C726.232 479.067 726.965 480.366 727.565 481.698C729.213 484.845 728.747 488.559 729.197 492.022C729.646 495.486 730.013 498.95 730.313 502.48Z" stroke="white"/>
<path d="M615.448 460.333L583.822 451.707L574.446 470.275L573.097 491.007L604.74 499.633L606.072 478.901L615.448 460.333ZM653.753 490.89C653.753 494.087 651.171 496.669 647.974 496.669C644.793 496.669 642.212 494.087 642.212 490.89C642.212 487.71 644.793 485.128 647.974 485.128C651.171 485.128 653.753 487.71 653.753 490.89ZM683.197 670.535H678.701V662.759H683.197V670.535ZM691.175 670.535H686.695V662.759H691.175V670.535ZM699.169 670.535H694.672V662.759H699.169V670.535ZM683.197 682.358H678.701V674.549H683.197V682.358ZM691.175 682.358H686.695V674.549H691.175V682.358ZM699.169 682.358H694.672V674.565H699.169V682.358ZM683.197 694.165H678.701V686.372H683.197V694.165ZM691.175 694.165H686.695V686.372H691.175V694.165ZM699.169 694.165H694.672V686.372H699.169V694.165ZM716.839 670.535H712.342V662.759H716.839V670.535ZM724.816 670.535H720.319V662.759H724.816V670.535ZM732.81 670.552H728.313V662.759H732.81V670.552ZM716.839 682.358H712.342V674.549H716.839V682.358ZM724.816 682.358H720.319V674.565H724.816V682.358ZM732.81 682.358H728.313V674.565H732.81V682.358ZM716.839 694.165H712.342V686.372H716.839V694.165ZM724.816 694.165H720.319V686.372H724.816V694.165ZM732.81 694.165H728.313V686.372H732.81V694.165ZM750.463 670.535H745.983V662.759H750.463V670.535ZM758.457 670.552H753.961V662.759H758.457V670.552ZM766.434 670.552H761.954V662.759H766.434V670.552ZM750.463 682.358H745.983V674.565H750.463V682.358ZM758.457 682.358H753.961V674.565H758.457V682.358ZM766.434 682.358H761.954V674.565H766.434V682.358ZM750.463 694.165H745.983V686.372H750.463V694.165ZM758.457 694.165H753.961V686.372H758.457V694.165ZM766.434 694.165H761.954V686.372H766.434V694.165ZM784.104 670.552H779.608V662.759H784.104V670.552ZM792.082 670.552H787.602V662.759H792.082V670.552ZM800.059 670.552H795.579V662.759H800.059V670.552ZM784.104 682.358H779.608V674.565H784.104V682.358ZM792.082 682.358H787.602V674.565H792.082V682.358ZM800.059 682.358H795.579V674.565H800.059V682.358ZM784.104 694.165H779.608V686.372H784.104V694.165ZM792.082 694.165H787.602V686.372H792.082V694.165ZM800.059 694.165H795.579V686.372H800.059V694.165ZM817.729 670.552H813.249V662.759H817.729V670.552ZM825.723 670.552H821.226V662.759H825.723V670.552ZM833.7 670.552H829.22V662.759H833.7V670.552ZM817.729 682.358H813.249V674.565H817.729V682.358ZM825.723 682.358H821.226V674.565H825.723V682.358ZM833.7 682.358H829.22V674.565H833.7V682.358ZM817.729 694.165H813.249V686.372H817.729V694.165ZM825.723 694.165H821.226V686.372H825.723V694.165ZM833.7 694.165H829.22V686.372H833.7V694.165ZM851.354 670.552H846.874V662.759H851.354V670.552ZM859.348 670.552H854.851V662.759H859.348V670.552ZM867.325 670.552H862.845V662.759H867.325V670.552ZM851.354 682.358H846.874V674.565H851.354V682.358ZM859.348 682.358H854.851V674.565H859.348V682.358ZM867.325 682.358H862.845V674.582H867.325V682.358ZM851.354 694.165H846.874V686.372H851.354V694.165ZM859.348 694.165H854.851V686.372H859.348V694.165ZM867.325 694.165H862.845V686.372H867.325V694.165ZM683.197 598.481H678.701V590.687H683.197V598.481ZM691.175 598.481H686.695V590.687H691.175V598.481ZM699.169 598.481H694.672V590.687H699.169V598.481ZM683.197 610.287H678.701V602.477H683.197V610.287ZM691.175 610.287H686.695V602.477H691.175V610.287ZM699.169 610.287H694.672V602.494H699.169V610.287ZM683.197 622.077H678.701V614.317H683.197V622.077ZM691.175 622.077H686.695V614.317H691.175V622.077ZM699.169 622.077H694.672V614.317H699.169V622.077ZM716.839 598.481H712.342V590.687H716.839V598.481ZM724.816 598.481H720.319V590.687H724.816V598.481ZM732.81 598.481H728.313V590.687H732.81V598.481ZM716.839 610.287H712.342V602.477H716.839V610.287ZM724.816 610.287H720.319V602.494H724.816V610.287ZM732.81 610.287H728.313V602.494H732.81V610.287ZM716.839 622.077H712.342V614.317H716.839V622.077ZM724.816 622.077H720.319V614.317H724.816V622.077ZM732.81 622.077H728.313V614.317H732.81V622.077ZM750.463 598.481H745.983V590.687H750.463V598.481ZM758.457 598.481H753.961V590.687H758.457V598.481ZM766.434 598.481H761.954V590.687H766.434V598.481ZM750.463 610.287H745.983V602.494H750.463V610.287ZM758.457 610.287H753.961V602.494H758.457V610.287ZM766.434 610.287H761.954V602.494H766.434V610.287ZM750.463 622.077H745.983V614.317H750.463V622.077ZM758.457 622.077H753.961V614.317H758.457V622.077ZM766.434 622.077H761.954V614.317H766.434V622.077ZM784.104 598.481H779.608V590.687H784.104V598.481ZM792.082 598.481H787.602V590.687H792.082V598.481ZM800.059 598.481H795.579V590.687H800.059V598.481ZM784.104 610.287H779.608V602.494H784.104V610.287ZM792.082 610.287H787.602V602.494H792.082V610.287ZM800.059 610.287H795.579V602.494H800.059V610.287ZM784.104 622.077H779.608V614.317H784.104V622.077ZM792.082 622.077H787.602V614.317H792.082V622.077ZM800.059 622.094H795.579V614.317H800.059V622.094ZM817.729 598.481H813.249V590.687H817.729V598.481ZM825.723 598.481H821.226V590.687H825.723V598.481ZM833.7 598.481H829.22V590.687H833.7V598.481ZM817.729 610.287H813.249V602.494H817.729V610.287ZM825.723 610.287H821.226V602.494H825.723V610.287ZM833.7 610.287H829.22V602.494H833.7V610.287ZM817.729 622.077H813.249V614.317H817.729V622.077ZM825.723 622.094H821.226V614.317H825.723V622.094ZM833.7 622.094H829.22V614.317H833.7V622.094ZM851.354 598.481H846.874V590.687H851.354V598.481ZM859.348 598.481H854.851V590.687H859.348V598.481ZM867.325 598.481H862.845V590.687H867.325V598.481ZM851.354 610.287H846.874V602.494H851.354V610.287ZM859.348 610.287H854.851V602.494H859.348V610.287ZM867.325 610.287H862.845V602.511H867.325V610.287ZM851.354 622.094H846.874V614.317H851.354V622.094ZM859.348 622.094H854.851V614.317H859.348V622.094ZM867.325 622.094H862.845V614.317H867.325V622.094ZM295.94 855.776H288.728V837.941H295.94V855.776ZM284.115 855.776H276.904V837.941H284.115V855.776ZM272.291 855.776H265.08V837.941H272.291V855.776ZM225.776 855.776H218.565V837.941H225.776V855.776ZM213.952 855.776H206.74V837.941H213.952V855.776ZM202.127 855.776H194.916V837.941H202.127V855.776ZM474.538 855.776H467.344V837.941H474.538V855.776ZM462.73 855.776H455.519V837.941H462.73V855.776ZM450.906 855.776H443.695V837.941H450.906V855.776ZM404.391 855.776H397.18V837.941H404.391V855.776ZM392.567 855.776H385.356V837.941H392.567V855.776ZM380.742 855.776H373.531V837.941H380.742V855.776ZM692.39 825.685H686.262V815.011H692.39V825.685ZM944.433 858.024H938.305V847.35H944.433V858.024ZM933.508 858.024H927.363V847.35H933.508V858.024ZM922.567 858.024H916.438V847.35H922.567V858.024ZM944.433 841.854H938.305V831.197H944.433V841.854ZM933.508 841.854H927.363V831.197H933.508V841.854ZM922.567 841.854H916.438V831.197H922.567V841.854ZM944.433 825.702H938.305V815.027H944.433V825.702ZM933.508 825.702H927.363V815.027H933.508V825.702ZM922.567 825.685H916.438V815.027H922.567V825.685ZM898.385 858.024H892.256V847.35H898.385V858.024ZM887.476 858.024H881.331V847.35H887.476V858.024ZM876.535 858.024H870.389V847.35H876.535V858.024ZM898.385 841.854H892.256V831.197H898.385V841.854ZM887.476 841.854H881.331V831.197H887.476V841.854ZM876.535 841.854H870.389V831.197H876.535V841.854ZM898.385 825.702H892.256V815.027H898.385V825.702ZM887.476 825.685H881.331V815.027H887.476V825.685ZM876.535 825.685H870.389V815.027H876.535V825.685ZM852.37 858.024H846.224V847.35H852.37V858.024ZM841.428 858.024H835.299V847.35H841.428V858.024ZM830.519 858.024H824.357V847.35H830.519V858.024ZM852.37 841.854H846.224V831.197H852.37V841.854ZM841.428 841.854H835.299V831.197H841.428V841.854ZM830.519 841.854H824.357V831.18H830.519V841.854ZM852.37 825.685H846.224V815.027H852.37V825.685ZM841.428 825.685H835.299V815.027H841.428V825.685ZM830.519 825.685H824.357V815.011H830.519V825.685ZM806.338 858.024H800.192V847.35H806.338V858.024ZM784.471 858.007H778.325V847.35H784.471V858.007ZM806.338 841.854H800.192V831.197H806.338V841.854ZM795.396 841.854H789.267V831.18H795.396V841.854ZM784.471 841.854H778.325V831.18H784.471V841.854ZM806.338 825.685H800.192V815.027H806.338V825.685ZM795.396 825.685H789.267V815.011H795.396V825.685ZM784.471 825.685H778.325V815.011H784.471V825.685ZM760.289 858.024H754.16V847.35H760.289V858.024ZM749.364 858.007H743.235V847.35H749.364V858.007ZM738.439 858.007H732.277V847.35H738.439V858.007ZM760.289 841.854H754.16V831.18H760.289V841.854ZM749.364 841.854H743.235V831.18H749.364V841.854ZM738.439 841.854H732.277V831.18H738.439V841.854ZM760.289 825.685H754.16V815.011H760.289V825.685ZM749.364 825.685H743.235V815.011H749.364V825.685ZM738.439 825.685H732.277V815.011H738.439V825.685ZM714.257 858.007H708.112V847.35H714.257V858.007ZM703.332 858.007H697.203V847.35H703.332V858.007ZM692.39 858.007H686.262V847.35H692.39V858.007ZM714.257 841.854H708.112V831.18H714.257V841.854ZM703.332 841.854H697.203V831.18H703.332V841.854ZM692.39 841.854H686.262V831.18H692.39V841.854ZM714.257 825.685H708.112V815.011H714.257V825.685ZM703.332 825.685H697.203V815.011H703.332V825.685ZM266.362 757.56H258.901V744.588H266.362V757.56ZM573.097 796.926H565.636V783.954H573.097V796.926ZM559.79 796.926H552.329V783.938H559.79V796.926ZM546.484 796.91H539.023V783.938H546.484V796.91ZM573.097 777.243H565.636V764.288H573.097V777.243ZM559.79 777.243H552.329V764.288H559.79V777.243ZM546.484 777.243H539.023V764.288H546.484V777.243ZM573.097 757.594H565.636V744.605H573.097V757.594ZM559.79 757.594H552.329V744.605H559.79V757.594ZM546.484 757.577H539.023V744.605H546.484V757.577ZM517.073 796.926H509.595V783.938H517.073V796.926ZM503.783 796.91H496.305V783.938H503.783V796.91ZM490.476 796.91H482.998V783.938H490.476V796.91ZM517.073 777.243H509.595V764.288H517.073V777.243ZM503.783 777.243H496.305V764.288H503.783V777.243ZM490.476 777.243H482.998V764.271H490.476V777.243ZM517.073 757.594H509.595V744.605H517.073V757.594ZM503.783 757.577H496.305V744.605H503.783V757.577ZM490.476 757.577H482.998V744.605H490.476V757.577ZM461.048 796.91H453.571V783.938H461.048V796.91ZM447.742 796.91H440.281V783.938H447.742V796.91ZM434.452 796.91H426.974V783.938H434.452V796.91ZM461.048 777.243H453.571V764.288H461.048V777.243ZM447.742 777.243H440.281V764.271H447.742V777.243ZM434.452 777.243H426.974V764.271H434.452V777.243ZM461.048 757.577H453.571V744.605H461.048V757.577ZM447.742 757.577H440.281V744.605H447.742V757.577ZM434.452 757.577H426.974V744.588H434.452V757.577ZM405.024 796.91H397.563V783.938H405.024V796.91ZM391.717 796.91H384.256V783.938H391.717V796.91ZM378.427 796.91H370.95V783.938H378.427V796.91ZM405.024 777.243H397.563V764.271H405.024V777.243ZM391.717 777.243H384.256V764.271H391.717V777.243ZM378.427 777.243H370.95V764.271H378.427V777.243ZM405.024 757.577H397.563V744.605H405.024V757.577ZM391.717 757.577H384.256V744.588H391.717V757.577ZM378.427 757.577H370.95V744.588H378.427V757.577ZM349 796.91H341.522V783.938H349V796.91ZM335.693 796.91H328.215V783.938H335.693V796.91ZM322.403 796.91H314.909V783.938H322.403V796.91ZM349 777.243H341.522V764.271H349V777.243ZM335.693 777.243H328.215V764.271H335.693V777.243ZM322.403 777.243H314.909V764.271H322.403V777.243ZM349 757.577H341.522V744.588H349V757.577ZM335.693 757.577H328.215V744.588H335.693V757.577ZM322.403 757.56H314.909V744.588H322.403V757.56ZM292.975 796.91H285.498V783.938H292.975V796.91ZM279.669 796.91H272.208V783.938H279.669V796.91ZM266.362 796.91H258.901V783.938H266.362V796.91ZM292.975 777.243H285.498V764.271H292.975V777.243ZM279.669 777.243H272.208V764.271H279.669V777.243ZM266.362 777.243H258.901V764.271H266.362V777.243ZM292.975 757.577H285.498V744.588H292.975V757.577ZM279.669 757.56H272.208V744.588H279.669V757.56ZM795.396 858.024H789.267V847.35H795.396V858.024ZM524.134 880.954C520.437 880.954 517.439 877.94 517.439 874.226V869.414H512.893V861.454H517.439V840.605C517.439 836.909 520.437 833.894 524.134 833.894C527.848 833.894 530.846 836.909 530.846 840.605V861.454H535.376V869.414H530.846V874.226C530.846 877.94 527.848 880.954 524.134 880.954ZM553.928 880.954C550.214 880.954 547.217 877.94 547.217 874.226V869.414H542.67V861.454H547.217V840.605C547.217 836.909 550.214 833.894 553.928 833.894C557.625 833.894 560.623 836.909 560.623 840.605V861.454H565.153V869.414H560.623V874.226C560.623 877.94 557.625 880.954 553.928 880.954ZM584.255 880.954C580.558 880.954 577.544 877.94 577.544 874.226V869.414H573.014V861.454H577.544V840.605C577.544 836.909 580.558 833.894 584.255 833.894C587.969 833.894 590.967 836.909 590.967 840.605V861.454H595.497V869.414H590.967V874.226C590.967 877.94 587.969 880.954 584.255 880.954ZM178.428 190.466L156.528 184.488L134.612 178.526L117.008 189.85L134.661 240.756L140.724 242.421L146.802 244.07L187.855 209.15L178.428 190.466ZM257.319 162.956C255.803 168.535 250.041 171.832 244.445 170.3C238.866 168.785 235.585 163.023 237.101 157.444C238.616 151.866 244.379 148.569 249.958 150.101C255.537 151.616 258.834 157.361 257.319 162.956ZM199.096 109.069L142.139 93.5494L125.252 126.971L122.854 164.322L179.794 179.842L182.209 142.491L199.096 109.069ZM203.293 99.2112L181.376 93.2497L159.493 87.2715L150.05 68.5876L191.102 33.6677L197.181 35.3163L203.243 36.9649L220.896 87.9043L203.293 99.2112ZM603.957 505.528L591.8 502.214L579.642 498.9L569.866 505.195L579.659 533.47L583.04 534.403L586.42 535.319L609.203 515.902L603.957 505.528ZM617.78 454.855L605.606 451.541L593.448 448.227L588.202 437.853L611.002 418.453L614.383 419.369L617.763 420.284L627.573 448.577L617.78 454.855Z" stroke="white"/>
</g>
<defs>
<filter id="filter0_f" x="61.8055" y="-5.1127" width="937.799" height="918.652" filterUnits="userSpaceOnUse" color-interpolation-filters="sRGB">
<feFlood flood-opacity="0" result="BackgroundImageFix"/>
<feBlend mode="normal" in="SourceGraphic" in2="BackgroundImageFix" result="shape"/>
<feGaussianBlur stdDeviation="7.5" result="effect1_foregroundBlur"/>
</filter>
</defs>
</svg>
