<svg width="19" height="20" viewBox="0 0 19 20" fill="none" xmlns="http://www.w3.org/2000/svg">
<path d="M9.8025 1.66628V0.833147H11.9341V0H6.81911V0.833147H8.95072V1.66628C6.6505 1.74856 4.60335 2.66715 3.07104 4.08315L2.29991 3.33257L3.23935 2.41715L2.64325 1.75201L0.0841436 4.25115L0.680247 4.834L1.70383 3.91858L2.47145 4.66914C0.935925 6.24971 0 8.41628 0 10.8334C0 15.9171 4.17556 20 9.375 20C14.5744 20 18.75 15.9171 18.75 10.8331C18.75 5.91686 14.7428 1.91656 9.8025 1.66628ZM9.375 19.1669C4.6875 19.1669 0.852047 15.4166 0.852047 10.8331C0.852047 6.24972 4.6875 2.49915 9.375 2.49915C14.0625 2.49915 17.898 6.24943 17.898 10.8331C17.898 15.4166 14.0625 19.1669 9.375 19.1669Z" fill="white"/>
<path d="M9.08517 10.5213L9.68782 11.1103L14.8082 6.10078L14.2055 5.51184L9.08517 10.5213Z" fill="white"/>
<path d="M9.375 4.83057C9.75069 4.83057 10.0552 4.53277 10.0552 4.16542C10.0552 3.79807 9.75069 3.50028 9.375 3.50028C8.99931 3.50028 8.69475 3.79807 8.69475 4.16542C8.69475 4.53277 8.99931 4.83057 9.375 4.83057Z" fill="white"/>
<path d="M9.375 18.166C9.75069 18.166 10.0552 17.8682 10.0552 17.5009C10.0552 17.1335 9.75069 16.8357 9.375 16.8357C8.99931 16.8357 8.69475 17.1335 8.69475 17.5009C8.69475 17.8682 8.99931 18.166 9.375 18.166Z" fill="white"/>
<path d="M2.55589 11.4983C2.93158 11.4983 3.23614 11.2005 3.23614 10.8331C3.23614 10.4658 2.93158 10.168 2.55589 10.168C2.1802 10.168 1.87565 10.4658 1.87565 10.8331C1.87565 11.2005 2.1802 11.4983 2.55589 11.4983Z" fill="white"/>
<path d="M16.1941 11.4983C16.5698 11.4983 16.8744 11.2005 16.8744 10.8331C16.8744 10.4658 16.5698 10.168 16.1941 10.168C15.8184 10.168 15.5139 10.4658 15.5139 10.8331C15.5139 11.2005 15.8184 11.4983 16.1941 11.4983Z" fill="white"/>
</svg>
