<svg width="19" height="21" viewBox="0 0 19 21" fill="none" xmlns="http://www.w3.org/2000/svg">
<path d="M7.67763 10.3411H6.59263C6.28903 10.3411 5.78083 10.3411 5.78083 9.79225V8.16935C5.78083 7.61181 6.30891 7.61181 6.59263 7.61181H7.66438C7.96798 7.61181 8.47619 7.61181 8.47619 8.16501V9.80093C8.47619 10.3411 7.99565 10.3411 7.67763 10.3411ZM6.59224 8.00678C6.17017 8.00678 6.17017 8.05768 6.17017 8.16974V9.79264C6.17017 9.90471 6.17017 9.94692 6.59224 9.94692H7.67724C8.08607 9.94692 8.08607 9.91339 8.08607 9.80133V8.1654C8.08607 8.05334 8.08607 8.00678 7.66399 8.00678H6.59224Z" fill="white"/>
<path d="M11.7861 10.3411H10.7008C10.3972 10.3411 9.88895 10.3411 9.88895 9.79225V8.16935C9.88895 7.61181 10.417 7.61181 10.7008 7.61181H11.7725C12.0761 7.61181 12.5843 7.61181 12.5843 8.16501V9.80093C12.5843 10.3411 12.1038 10.3411 11.7861 10.3411ZM10.7008 8.00678C10.2787 8.00678 10.2787 8.05768 10.2787 8.16974V9.79264C10.2787 9.90471 10.2787 9.94692 10.7008 9.94692H11.7861C12.1946 9.94692 12.1946 9.91339 12.1946 9.80133V8.1654C12.1946 8.05334 12.1946 8.00678 11.7725 8.00678H10.7008Z" fill="white"/>
<path d="M15.9632 10.3411H14.8782C14.5746 10.3411 14.0664 10.3411 14.0664 9.79225V8.16935C14.0664 7.61181 14.5945 7.61181 14.8782 7.61181H15.95C16.2536 7.61181 16.7618 7.61181 16.7618 8.16501V9.80093C16.7618 10.3411 16.2813 10.3411 15.9632 10.3411ZM14.8782 8.00678C14.4562 8.00678 14.4562 8.05768 14.4562 8.16974V9.79264C14.4562 9.90471 14.4562 9.94692 14.8782 9.94692H15.9632C16.3721 9.94692 16.3721 9.91339 16.3721 9.80133V8.1654C16.3721 8.05334 16.3721 8.00678 15.95 8.00678H14.8782Z" fill="white"/>
<path d="M3.57302 14.122H2.48802C2.18442 14.122 1.67622 14.122 1.67622 13.5731V11.9502C1.67622 11.3931 2.2043 11.3931 2.48802 11.3931H3.55977C3.86337 11.3931 4.37157 11.3931 4.37157 11.9463V13.5822C4.37157 14.122 3.89104 14.122 3.57302 14.122ZM2.48802 11.7876C2.06595 11.7876 2.06595 11.8385 2.06595 11.9502V13.5731C2.06595 13.6852 2.06595 13.7274 2.48802 13.7274H3.57302C3.98185 13.7274 3.98185 13.6938 3.98185 13.5822V11.9463C3.98185 11.8338 3.98185 11.7876 3.55977 11.7876H2.48802Z" fill="white"/>
<path d="M7.67763 14.122H6.59263C6.28903 14.122 5.78083 14.122 5.78083 13.5731V11.9502C5.78083 11.3931 6.30891 11.3931 6.59263 11.3931H7.66438C7.96798 11.3931 8.47619 11.3931 8.47619 11.9463V13.5822C8.47619 14.122 7.99565 14.122 7.67763 14.122ZM6.59263 11.7876C6.17017 11.7876 6.17017 11.8385 6.17017 11.9502V13.5731C6.17017 13.6852 6.17017 13.7274 6.59224 13.7274H7.67724C8.08568 13.7274 8.08568 13.6938 8.08568 13.5822V11.9463C8.08568 11.8338 8.08568 11.7876 7.6636 11.7876H6.59263Z" fill="white"/>
<path d="M11.8594 14.122H10.774C10.4704 14.122 9.96222 14.122 9.96222 13.5731V11.9502C9.96222 11.3931 10.4903 11.3931 10.774 11.3931H11.8458C12.1494 11.3931 12.658 11.3931 12.658 11.9463V13.5822C12.6576 14.122 12.177 14.122 11.8594 14.122ZM10.774 11.7876C10.3519 11.7876 10.3519 11.8385 10.3519 11.9502V13.5731C10.3519 13.6852 10.3519 13.7274 10.774 13.7274H11.8594C12.2682 13.7274 12.2682 13.6938 12.2682 13.5822V11.9463C12.2682 11.8338 12.2682 11.7876 11.8458 11.7876H10.774Z" fill="white"/>
<path d="M15.9632 14.122H14.879C14.5754 14.122 14.0668 14.122 14.0668 13.5731V11.9502C14.0668 11.3931 14.5949 11.3931 14.879 11.3931H15.95C16.2536 11.3931 16.7622 11.3931 16.7622 11.9463V13.5822C16.7622 14.122 16.2813 14.122 15.9632 14.122ZM14.879 11.7876C14.4566 11.7876 14.4566 11.8385 14.4566 11.9502V13.5731C14.4566 13.6852 14.4566 13.7274 14.879 13.7274H15.9632C16.3725 13.7274 16.3725 13.6938 16.3725 13.5822V11.9463C16.3725 11.8338 16.3725 11.7876 15.95 11.7876H14.879Z" fill="white"/>
<path d="M3.4639 18.0674H2.3789C2.0753 18.0674 1.56709 18.0674 1.56709 17.5185V15.896C1.56709 15.3385 2.09518 15.3385 2.3789 15.3385H3.45065C3.75425 15.3385 4.26245 15.3385 4.26245 15.8913V17.5272C4.26206 18.0674 3.78192 18.0674 3.4639 18.0674ZM2.37851 15.733C1.95643 15.733 1.95643 15.7843 1.95643 15.896V17.5185C1.95643 17.6306 1.95643 17.6728 2.37851 17.6728H3.46351C3.87233 17.6728 3.87233 17.6392 3.87233 17.5276V15.8917C3.87233 15.7796 3.87233 15.7334 3.45026 15.7334L2.37851 15.733Z" fill="white"/>
<path d="M7.67763 18.0674H6.59263C6.28903 18.0674 5.78083 18.0674 5.78083 17.5185V15.896C5.78083 15.3385 6.30891 15.3385 6.59263 15.3385H7.66438C7.96798 15.3385 8.47619 15.3385 8.47619 15.8913V17.5272C8.4758 18.0674 7.99526 18.0674 7.67763 18.0674ZM6.59224 15.733C6.17017 15.733 6.17017 15.7843 6.17017 15.896V17.5185C6.17017 17.6306 6.17017 17.6728 6.59224 17.6728H7.67724C8.08568 17.6728 8.08568 17.6392 8.08568 17.5276V15.8917C8.08568 15.7796 8.08568 15.7334 7.6636 15.7334L6.59224 15.733Z" fill="white"/>
<path d="M11.8976 18.0674H10.8122C10.5086 18.0674 10.0004 18.0674 10.0004 17.5185V15.896C10.0004 15.3385 10.5285 15.3385 10.8122 15.3385H11.884C12.1876 15.3385 12.6958 15.3385 12.6958 15.8913V17.5272C12.6962 18.0674 12.2156 18.0674 11.8976 18.0674ZM10.8126 15.733C10.3905 15.733 10.3905 15.7843 10.3905 15.896V17.5185C10.3905 17.6306 10.3905 17.6728 10.8126 17.6728H11.898C12.3068 17.6728 12.3068 17.6392 12.3068 17.5276V15.8917C12.3068 15.7796 12.3068 15.7334 11.8847 15.7334L10.8126 15.733Z" fill="white"/>
<path d="M16.0018 18.0674H14.9176C14.614 18.0674 14.1054 18.0674 14.1054 17.5185V15.896C14.1054 15.3385 14.6335 15.3385 14.9176 15.3385H15.9886C16.2922 15.3385 16.8008 15.3385 16.8008 15.8913V17.5272C16.8004 18.0674 16.3198 18.0674 16.0018 18.0674ZM14.9172 15.733C14.4947 15.733 14.4947 15.7843 14.4947 15.896V17.5185C14.4947 17.6306 14.4947 17.6728 14.9172 17.6728H16.0014C16.4107 17.6728 16.4107 17.6392 16.4107 17.5276V15.8917C16.4107 15.7796 16.4107 15.7334 15.9882 15.7334L14.9172 15.733Z" fill="white"/>
<path d="M19 4.98115V17.3788C19 20.1724 16.5338 20.1724 13.9265 20.1724H5.18104C2.51998 20.1724 0 20.1724 0 17.3117V5.01272C0 3.09112 1.18984 2.43217 2.69419 2.20726V0.542138C2.69419 0.431656 2.78967 0.344849 2.90152 0.344849C3.01727 0.344849 3.10886 0.431656 3.10886 0.542138V4.02627C3.10886 4.13675 3.01766 4.22356 2.90152 4.22356C2.78967 4.22356 2.69419 4.13675 2.69419 4.02627V2.61368C1.26428 2.83464 0.41428 3.43046 0.41428 5.01272V17.3117C0.41428 19.6595 2.22573 19.7779 5.18104 19.7779H13.9265C16.9029 19.7779 18.5857 19.6674 18.5857 17.3788V4.98115C18.5857 3.40283 17.7607 2.81886 16.3058 2.60579V4.02627C16.3058 4.13675 16.2107 4.22356 16.0985 4.22356C15.9823 4.22356 15.8911 4.13675 15.8911 4.02627V0.542138C15.8911 0.431656 15.9819 0.344849 16.0985 0.344849C16.2107 0.344849 16.3058 0.431656 16.3058 0.542138V2.19937C17.8355 2.41244 19 3.05955 19 4.98115Z" fill="white"/>
<path d="M14.939 2.14807V2.55449C14.4398 2.4953 13.8681 2.48347 13.2277 2.48347H9.46298V4.02627C9.46298 4.13675 9.38425 4.22356 9.29227 4.22356C9.1964 4.22356 9.12118 4.13675 9.12118 4.02627V2.48347H6.09573C5.46242 2.48347 4.88718 2.4953 4.38443 2.55844V2.15597C4.93551 2.08889 5.52751 2.08889 6.09573 2.08889H9.12118V0.542138C9.12118 0.431656 9.1964 0.344849 9.29227 0.344849C9.38464 0.344849 9.46298 0.431656 9.46298 0.542138V2.08889H13.2277C13.8096 2.08889 14.395 2.08889 14.939 2.14807Z" fill="white"/>
<path d="M16.7068 5.9017H2.5835C2.47594 5.9017 2.38864 5.81332 2.38864 5.70441C2.38864 5.59551 2.47594 5.50712 2.5835 5.50712H16.7068C16.8144 5.50712 16.9017 5.59551 16.9017 5.70441C16.9017 5.81332 16.8148 5.9017 16.7068 5.9017Z" fill="white"/>
</svg>
