<svg width="59" height="58" viewBox="0 0 59 58" fill="none" xmlns="http://www.w3.org/2000/svg">
<g filter="url(#filter0_d)">
<path d="M49.6241 35.8525H48.9017V32.2459C48.9017 31.672 48.6733 31.1216 48.2669 30.7158C47.8604 30.31 47.3092 30.082 46.7343 30.082C46.4877 30.0844 46.2433 30.1293 46.0119 30.2147V29.3607C46.0119 28.7867 45.7836 28.2363 45.3771 27.8305C44.9707 27.4247 44.4194 27.1967 43.8446 27.1967H43.1221V9.16393C43.1221 8.97263 43.046 8.78916 42.9105 8.65389C42.7751 8.51862 42.5913 8.44262 42.3997 8.44262H40.2324V7.72131C40.2324 7.53001 40.1562 7.34654 40.0208 7.21127C39.8853 7.076 39.7015 7 39.5099 7H10.6122C10.4206 7 10.2369 7.076 10.1014 7.21127C9.96589 7.34654 9.88977 7.53001 9.88977 7.72131V8.44262H7.72244C7.53084 8.44262 7.34708 8.51862 7.2116 8.65389C7.07611 8.78916 7 8.97263 7 9.16393V43.7869C7 43.9782 7.07611 44.1617 7.2116 44.2969C7.34708 44.4322 7.53084 44.5082 7.72244 44.5082H36.5349L37.3426 46.121V49.5574H35.8977V51H50.3466V49.5574H48.9017V46.2494L51.5798 43.5755C51.7153 43.4403 51.7914 43.2569 51.7914 43.0656V38.0164C51.7914 37.4425 51.5631 36.8921 51.1567 36.4863C50.7502 36.0804 50.1989 35.8525 49.6241 35.8525ZM38.7875 8.44262V40.1803H25.7835V8.44262H38.7875ZM11.3347 8.44262H24.3386V40.1803H11.3347V8.44262ZM8.44489 9.88525H9.88977V40.9016C9.88977 41.0929 9.96589 41.2764 10.1014 41.4117C10.2369 41.547 10.4206 41.6229 10.6122 41.6229H39.5099C39.7015 41.6229 39.8853 41.547 40.0208 41.4117C40.1562 41.2764 40.2324 41.0929 40.2324 40.9016V9.88525H41.6772V43.0656H8.44489V9.88525ZM50.3466 42.7669L47.6685 45.4408C47.533 45.5761 47.4568 45.7595 47.4568 45.9508V49.5574H38.7875V45.9508C38.7887 45.8392 38.764 45.7288 38.7152 45.6284L38.1503 44.5082H42.3997C42.5913 44.5082 42.7751 44.4322 42.9105 44.2969C43.046 44.1617 43.1221 43.9782 43.1221 43.7869V28.6393H43.8446C44.0362 28.6393 44.2199 28.7153 44.3554 28.8506C44.4909 28.9859 44.567 29.1694 44.567 29.3607V38.7377H46.0119V32.2459C46.0119 32.0546 46.088 31.8711 46.2235 31.7359C46.359 31.6006 46.5427 31.5246 46.7343 31.5246C46.926 31.5246 47.1097 31.6006 47.2452 31.7359C47.3807 31.8711 47.4568 32.0546 47.4568 32.2459V40.2525C46.6414 40.4197 45.9087 40.8627 45.3823 41.5065C44.8559 42.1504 44.5679 42.9557 44.567 43.7869V45.2295H46.0119V43.7869C46.0119 43.213 46.2402 42.6626 46.6467 42.2568C47.0532 41.8509 47.6044 41.6229 48.1792 41.6229C48.3708 41.6229 48.5546 41.547 48.6901 41.4117C48.8256 41.2764 48.9017 41.0929 48.9017 40.9016V37.2951H49.6241C49.8157 37.2951 49.9995 37.3711 50.135 37.5063C50.2705 37.6416 50.3466 37.8251 50.3466 38.0164V42.7669Z" fill="white"/>
<path d="M15.3081 17.459C15.7928 18.9918 16.7197 19.9836 17.8366 19.9836C18.9535 19.9836 19.8775 18.9889 20.3652 17.459C21.9004 16.975 22.8937 16.0496 22.8937 14.9344C22.8937 13.8193 21.8975 12.8967 20.3652 12.4098C19.8775 10.8799 18.9506 9.88525 17.8366 9.88525C16.7226 9.88525 15.7957 10.8799 15.3081 12.4098C13.7758 12.8967 12.7795 13.8222 12.7795 14.9344C12.7795 16.0467 13.7758 16.9721 15.3081 17.459ZM17.8366 18.541C17.5809 18.541 17.2767 18.2626 17.0123 17.7814C17.2796 17.8045 17.5534 17.8197 17.8366 17.8197C18.1198 17.8197 18.3936 17.8045 18.6609 17.7814C18.3965 18.2626 18.0924 18.541 17.8366 18.541ZM16.3918 14.9344C16.3921 14.4902 16.4315 14.0468 16.5095 13.6094C17.3873 13.4526 18.286 13.4526 19.1638 13.6094C19.3208 14.4858 19.3208 15.3831 19.1638 16.2595C18.286 16.4162 17.3873 16.4162 16.5095 16.2595C16.4315 15.8221 16.3921 15.3787 16.3918 14.9344ZM21.4489 14.9344C21.4489 15.1898 21.17 15.4934 20.6881 15.7574C20.7112 15.4906 20.7264 15.2172 20.7264 14.9344C20.7264 14.6517 20.7112 14.3783 20.6881 14.1114C21.17 14.3754 21.4489 14.6791 21.4489 14.9344ZM17.8366 11.3279C18.0924 11.3279 18.3965 11.6063 18.6609 12.0874C18.3936 12.0643 18.1198 12.0492 17.8366 12.0492C17.5534 12.0492 17.2796 12.0643 17.0123 12.0874C17.2767 11.6063 17.5809 11.3279 17.8366 11.3279ZM14.9852 14.1114C14.962 14.3783 14.9469 14.6517 14.9469 14.9344C14.9469 15.2172 14.962 15.4906 14.9852 15.7574C14.5033 15.4934 14.2244 15.1898 14.2244 14.9344C14.2244 14.6791 14.5033 14.3754 14.9852 14.1114Z" fill="white"/>
<path d="M22.8937 21.4262H12.7795V22.8689H22.8937V21.4262Z" fill="white"/>
<path d="M22.8937 24.3115H12.7795V25.7541H22.8937V24.3115Z" fill="white"/>
<path d="M22.8937 27.1967H12.7795V28.6393H22.8937V27.1967Z" fill="white"/>
<path d="M22.8937 30.082H12.7795V31.5246H22.8937V30.082Z" fill="white"/>
<path d="M22.1713 32.9672H13.502C13.3104 32.9672 13.1266 33.0432 12.9911 33.1785C12.8557 33.3138 12.7795 33.4972 12.7795 33.6885V38.0164C12.7795 38.2077 12.8557 38.3912 12.9911 38.5264C13.1266 38.6617 13.3104 38.7377 13.502 38.7377H22.1713C22.3629 38.7377 22.5467 38.6617 22.6821 38.5264C22.8176 38.3912 22.8937 38.2077 22.8937 38.0164V33.6885C22.8937 33.4972 22.8176 33.3138 22.6821 33.1785C22.5467 33.0432 22.3629 32.9672 22.1713 32.9672ZM21.4489 37.2951H14.2244V34.4098H21.4489V37.2951Z" fill="white"/>
<path d="M29.3957 27.1967C29.7176 27.1955 30.0349 27.1215 30.3241 26.9803L33.2247 29.8764C33.0816 30.1645 33.0072 30.4817 33.0072 30.8033C33.0072 31.1248 33.0816 31.4421 33.2247 31.7302L30.3241 34.6262C30.0349 34.4851 29.7176 34.4111 29.3957 34.4098C28.9671 34.4098 28.548 34.5367 28.1916 34.7745C27.8352 35.0123 27.5574 35.3503 27.3934 35.7457C27.2293 36.1411 27.1864 36.5762 27.27 36.9959C27.3537 37.4157 27.5601 37.8013 27.8632 38.1039C28.1663 38.4065 28.5525 38.6126 28.9729 38.6961C29.3933 38.7796 29.8291 38.7368 30.2251 38.573C30.6211 38.4092 30.9596 38.1318 31.1978 37.776C31.4359 37.4201 31.5631 37.0018 31.5631 36.5738C31.5618 36.2524 31.4877 35.9355 31.3463 35.6469L34.2469 32.7508C34.536 32.892 34.8534 32.966 35.1753 32.9672C35.7501 32.9672 36.3013 32.7392 36.7078 32.3334C37.1142 31.9276 37.3426 31.3772 37.3426 30.8033C37.3426 30.2294 37.1142 29.679 36.7078 29.2731C36.3013 28.8673 35.7501 28.6393 35.1753 28.6393C34.8534 28.6406 34.536 28.7146 34.2469 28.8557L31.3463 25.9597C31.4877 25.671 31.5618 25.3541 31.5631 25.0328C31.5631 24.6048 31.4359 24.1864 31.1978 23.8306C30.9596 23.4747 30.6211 23.1974 30.2251 23.0336C29.8291 22.8698 29.3933 22.8269 28.9729 22.9104C28.5525 22.9939 28.1663 23.2 27.8632 23.5027C27.5601 23.8053 27.3537 24.1909 27.27 24.6106C27.1864 25.0304 27.2293 25.4655 27.3934 25.8609C27.5574 26.2563 27.8352 26.5943 28.1916 26.832C28.548 27.0698 28.9671 27.1967 29.3957 27.1967ZM29.3957 37.2951C29.2528 37.2951 29.1132 37.2528 28.9944 37.1735C28.8755 37.0943 28.783 36.9816 28.7283 36.8498C28.6736 36.718 28.6593 36.573 28.6872 36.433C28.715 36.2931 28.7838 36.1646 28.8849 36.0637C28.9859 35.9628 29.1146 35.8941 29.2548 35.8663C29.3949 35.8385 29.5402 35.8528 29.6722 35.9074C29.8042 35.962 29.917 36.0544 29.9964 36.173C30.0758 36.2916 30.1182 36.4311 30.1182 36.5738C30.1182 36.7651 30.0421 36.9485 29.9066 37.0838C29.7711 37.2191 29.5873 37.2951 29.3957 37.2951ZM35.8977 30.8033C35.8977 30.9459 35.8553 31.0854 35.776 31.204C35.6966 31.3226 35.5837 31.4151 35.4517 31.4697C35.3197 31.5243 35.1745 31.5386 35.0343 31.5107C34.8942 31.4829 34.7655 31.4142 34.6644 31.3133C34.5634 31.2124 34.4946 31.0839 34.4667 30.944C34.4388 30.8041 34.4531 30.659 34.5078 30.5272C34.5625 30.3954 34.6551 30.2828 34.7739 30.2035C34.8927 30.1243 35.0324 30.082 35.1753 30.082C35.3669 30.082 35.5506 30.158 35.6861 30.2932C35.8216 30.4285 35.8977 30.612 35.8977 30.8033ZM29.3957 24.3115C29.5386 24.3115 29.6783 24.3538 29.7971 24.433C29.9159 24.5123 30.0085 24.6249 30.0632 24.7568C30.1179 24.8886 30.1322 25.0336 30.1043 25.1735C30.0764 25.3134 30.0076 25.442 29.9066 25.5428C29.8055 25.6437 29.6768 25.7124 29.5367 25.7402C29.3965 25.7681 29.2513 25.7538 29.1193 25.6992C28.9872 25.6446 28.8744 25.5521 28.795 25.4335C28.7156 25.3149 28.6733 25.1754 28.6733 25.0328C28.6733 24.8415 28.7494 24.658 28.8849 24.5227C29.0204 24.3875 29.2041 24.3115 29.3957 24.3115Z" fill="white"/>
<path d="M27.9508 19.9836H36.6201C36.8118 19.9836 36.9955 19.9076 37.131 19.7723C37.2665 19.6371 37.3426 19.4536 37.3426 19.2623V10.6066C37.3426 10.4153 37.2665 10.2318 37.131 10.0965C36.9955 9.96124 36.8118 9.88525 36.6201 9.88525H27.9508C27.7592 9.88525 27.5755 9.96124 27.44 10.0965C27.3045 10.2318 27.2284 10.4153 27.2284 10.6066V19.2623C27.2284 19.4536 27.3045 19.6371 27.44 19.7723C27.5755 19.9076 27.7592 19.9836 27.9508 19.9836ZM28.6733 11.3279H35.8977V18.541H28.6733V11.3279Z" fill="white"/>
<path d="M34.4528 12.7705H30.1182V14.2131H34.4528V12.7705Z" fill="white"/>
<path d="M34.4528 15.6557H30.1182V17.0984H34.4528V15.6557Z" fill="white"/>
</g>
<defs>
<filter id="filter0_d" x="0" y="0" width="58.7914" height="58" filterUnits="userSpaceOnUse" color-interpolation-filters="sRGB">
<feFlood flood-opacity="0" result="BackgroundImageFix"/>
<feColorMatrix in="SourceAlpha" type="matrix" values="0 0 0 0 0 0 0 0 0 0 0 0 0 0 0 0 0 0 127 0"/>
<feOffset/>
<feGaussianBlur stdDeviation="3.5"/>
<feColorMatrix type="matrix" values="0 0 0 0 0 0 0 0 0 0.765517 0 0 0 0 1 0 0 0 1 0"/>
<feBlend mode="normal" in2="BackgroundImageFix" result="effect1_dropShadow"/>
<feBlend mode="normal" in="SourceGraphic" in2="effect1_dropShadow" result="shape"/>
</filter>
</defs>
</svg>
