<svg width="60" height="43" viewBox="0 0 60 43" fill="none" xmlns="http://www.w3.org/2000/svg">
<g filter="url(#filter0_d)">
<path d="M51.5409 7H7.92521C7.41477 7 7.00049 7.41428 7.00049 7.92473V34.8953C7.00049 35.4058 7.41477 35.82 7.92521 35.82H51.5409C52.0513 35.82 52.4656 35.4058 52.4656 34.8953V7.92473C52.4656 7.41382 52.0518 7 51.5409 7ZM50.6161 33.9706H8.84994V8.84945H50.6161V33.9706Z" fill="white"/>
<path d="M13.2424 14.0122H43.45C43.9604 14.0122 44.3747 13.5979 44.3747 13.0875C44.3747 12.577 43.9604 12.1627 43.45 12.1627H13.2424C12.7319 12.1627 12.3177 12.577 12.3177 13.0875C12.3177 13.5979 12.7315 14.0122 13.2424 14.0122Z" fill="white"/>
<path d="M13.2424 19.5605H31.4285C31.939 19.5605 32.3533 19.1463 32.3533 18.6358C32.3533 18.1254 31.939 17.7111 31.4285 17.7111H13.2424C12.7319 17.7111 12.3177 18.1254 12.3177 18.6358C12.3177 19.1463 12.7315 19.5605 13.2424 19.5605Z" fill="white"/>
<path d="M13.2424 25.1089H33.972C34.4824 25.1089 34.8967 24.6946 34.8967 24.1842C34.8967 23.6737 34.4824 23.2595 33.972 23.2595H13.2424C12.7319 23.2595 12.3177 23.6737 12.3177 24.1842C12.3177 24.6946 12.7315 25.1089 13.2424 25.1089Z" fill="white"/>
<path d="M13.2424 30.6573H36.3606C36.871 30.6573 37.2853 30.243 37.2853 29.7325C37.2853 29.2221 36.871 28.8078 36.3606 28.8078H13.2424C12.7319 28.8078 12.3177 29.2221 12.3177 29.7325C12.3177 30.243 12.7315 30.6573 13.2424 30.6573Z" fill="white"/>
<path d="M41.6005 21.41V31.3508C41.6005 31.7073 41.8053 32.0323 42.1271 32.1858C42.4485 32.338 42.8299 32.2945 43.1074 32.0693L45.569 30.0751L48.0311 32.0693C48.1989 32.2057 48.4056 32.2755 48.6132 32.2755C48.7486 32.2755 48.8846 32.2459 49.0113 32.1858C49.3326 32.0323 49.5379 31.7078 49.5379 31.3508V21.41C49.5379 20.8996 49.1236 20.4853 48.6132 20.4853H42.5252C42.0148 20.4853 41.6005 20.8996 41.6005 21.41ZM46.1511 28.1665C45.9814 28.0287 45.7752 27.9603 45.569 27.9603C45.3628 27.9603 45.1566 28.0287 44.9869 28.1665L43.45 29.4112V25.8792H47.6885V29.4117L46.1511 28.1665ZM47.6885 22.3347V24.0302H43.45V22.3347H47.6885Z" fill="white"/>
</g>
<defs>
<filter id="filter0_d" x="0.000488281" y="0" width="59.4651" height="42.82" filterUnits="userSpaceOnUse" color-interpolation-filters="sRGB">
<feFlood flood-opacity="0" result="BackgroundImageFix"/>
<feColorMatrix in="SourceAlpha" type="matrix" values="0 0 0 0 0 0 0 0 0 0 0 0 0 0 0 0 0 0 127 0"/>
<feOffset/>
<feGaussianBlur stdDeviation="3.5"/>
<feColorMatrix type="matrix" values="0 0 0 0 0 0 0 0 0 0.765517 0 0 0 0 1 0 0 0 1 0"/>
<feBlend mode="normal" in2="BackgroundImageFix" result="effect1_dropShadow"/>
<feBlend mode="normal" in="SourceGraphic" in2="effect1_dropShadow" result="shape"/>
</filter>
</defs>
</svg>
