<svg width="59" height="58" viewBox="0 0 59 58" fill="none" xmlns="http://www.w3.org/2000/svg">
<g filter="url(#filter0_d)">
<path d="M26.9137 28.3955C32.9186 28.3955 37.8038 23.5965 37.8038 17.6978C37.8038 11.799 32.9186 7 26.9137 7C20.9089 7 16.0237 11.799 16.0237 17.6978C16.0237 23.5965 20.9089 28.3955 26.9137 28.3955ZM26.9137 8.40426C32.1303 8.40426 36.3743 12.5733 36.3743 17.6978C36.3743 22.8222 32.1303 26.9913 26.9137 26.9913C21.6971 26.9913 17.4531 22.8222 17.4531 17.6978C17.4531 12.5733 21.6971 8.40426 26.9137 8.40426Z" fill="white"/>
<path d="M35.2758 39.0102H33.564C33.1693 39.0102 32.8492 39.3245 32.8492 39.7123L32.8491 41.1398L27.6287 48.1492V42.8161L34.4228 33.694C35.8367 34.3134 37.1771 35.1135 38.421 36.0867C38.7298 36.3284 39.1795 36.2783 39.4254 35.9749C39.6713 35.6716 39.6204 35.2299 39.3117 34.9882C35.7561 32.2063 31.4691 30.7357 26.914 30.7357C24.2787 30.7357 21.7619 31.2424 19.4575 32.1598C19.406 32.1741 19.3557 32.194 19.3075 32.2201C17.1873 33.0842 15.2505 34.2975 13.5726 35.7876C13.5628 35.794 13.5527 35.7998 13.5431 35.8066C13.4881 35.8461 13.4412 35.8922 13.4013 35.9425C9.46733 39.5186 7 44.6301 7 50.2979C7 50.6856 7.32002 51 7.71475 51C8.10949 51 8.42951 50.6856 8.42951 50.2979C8.42951 45.2796 10.5129 40.7304 13.8742 37.4406L15.875 40.1269C16.0095 40.3076 16.2239 40.4144 16.4518 40.4144H19.5491V41.3691C19.5491 41.5181 19.5974 41.6634 19.687 41.7837L26.337 50.7125C26.3399 50.7165 26.3435 50.72 26.3466 50.7239C26.3575 50.7379 26.3688 50.7514 26.3806 50.7644C26.3866 50.771 26.3925 50.7776 26.3987 50.7839C26.4119 50.7974 26.4258 50.8101 26.44 50.8226C26.445 50.827 26.4499 50.8318 26.455 50.8361C26.4749 50.8524 26.4955 50.8677 26.5171 50.8819C26.5199 50.8837 26.523 50.8852 26.5259 50.8871C26.5448 50.8992 26.5643 50.9103 26.5844 50.9206C26.5906 50.9238 26.5968 50.9265 26.6031 50.9295C26.6205 50.9377 26.6381 50.9454 26.6562 50.9523C26.6635 50.955 26.6706 50.9576 26.678 50.96C26.6957 50.9661 26.7137 50.9714 26.7321 50.9761C26.7396 50.9781 26.7471 50.9802 26.7548 50.9818C26.7738 50.9861 26.7932 50.9893 26.8127 50.992C26.8197 50.993 26.8265 50.9944 26.8336 50.9951C26.8599 50.998 26.8866 50.9998 26.9136 50.9998C26.9407 50.9998 26.9674 50.998 26.9937 50.9951C27.0007 50.9944 27.0076 50.993 27.0146 50.992C27.0341 50.9893 27.0534 50.9861 27.0725 50.9818C27.0801 50.9802 27.0876 50.9781 27.0952 50.9761C27.1136 50.9714 27.1316 50.9661 27.1493 50.96C27.1565 50.9575 27.1638 50.955 27.171 50.9523C27.1891 50.9454 27.2068 50.9377 27.2241 50.9295C27.2304 50.9265 27.2367 50.9238 27.2429 50.9206C27.263 50.9103 27.2825 50.8992 27.3014 50.8871C27.3043 50.8852 27.3073 50.8837 27.3102 50.8819C27.3317 50.8677 27.3524 50.8524 27.3722 50.8361C27.3775 50.8318 27.3822 50.827 27.3873 50.8226C27.4015 50.8101 27.4154 50.7974 27.4285 50.7839C27.4347 50.7776 27.4406 50.7709 27.4466 50.7644C27.4586 50.7513 27.4698 50.7378 27.4807 50.7239C27.4837 50.72 27.4873 50.7165 27.4903 50.7125L34.1404 41.7837C34.2299 41.6634 34.2783 41.5182 34.2783 41.3691V40.4144H35.2753C35.6701 40.4144 35.9901 40.1 35.9901 39.7123C35.9901 39.3245 35.6705 39.0102 35.2758 39.0102ZM26.1991 48.1491L20.9785 41.1396V39.7123C20.9785 39.3245 20.6585 39.0101 20.2637 39.0101H16.8144L14.9322 36.483C16.2743 35.3582 17.7813 34.4183 19.4125 33.7039L26.1991 42.816V48.1491ZM26.9138 41.3976L20.7842 33.1675C22.7033 32.503 24.7661 32.14 26.9138 32.14C29.0408 32.14 31.1047 32.4857 33.0508 33.1576L26.9138 41.3976Z" fill="white"/>
<path d="M25.4845 20.5003C25.8793 20.5003 26.1993 20.1859 26.1993 19.7981C26.1993 19.4109 26.52 19.096 26.914 19.096C27.3082 19.096 27.6288 19.4109 27.6288 19.7981C27.6288 20.1859 27.9488 20.5003 28.3435 20.5003H32.3126C33.5475 20.5003 34.5522 19.5133 34.5522 18.3002V16.1237C34.5522 14.9106 33.5475 13.9237 32.3126 13.9237H21.5154C20.2805 13.9237 19.2759 14.9106 19.2759 16.1237V18.3002C19.2759 19.5133 20.2805 20.5003 21.5154 20.5003H25.4845ZM20.7054 18.3002V16.1237C20.7054 15.685 21.0688 15.328 21.5154 15.328H32.3126C32.7593 15.328 33.1227 15.685 33.1227 16.1237V18.3002C33.1227 18.739 32.7593 19.096 32.3126 19.096H28.9358C28.6409 18.2787 27.8459 17.6917 26.914 17.6917C25.9822 17.6917 25.1872 18.2787 24.8922 19.096H21.5153C21.0688 19.096 20.7054 18.739 20.7054 18.3002Z" fill="white"/>
<path d="M46.7204 36.5039V29.0974C46.7204 28.7097 46.4005 28.3953 46.0057 28.3953H42.3882C41.9934 28.3953 41.6735 28.7097 41.6735 29.0974V36.5039C38.6616 37.5451 36.6025 40.3646 36.6025 43.5397C36.6025 47.6533 40.0093 51 44.1969 51C48.3845 51 51.7913 47.6534 51.7913 43.5398C51.7913 40.3647 49.7323 37.5451 46.7204 36.5039ZM44.1969 49.5957C41.0395 49.5957 38.4303 47.2514 38.0747 44.2418H45.3585C45.7533 44.2418 46.0732 43.9275 46.0732 43.5397C46.0732 43.152 45.7533 42.8376 45.3585 42.8376H38.0745C38.3637 40.41 40.1329 38.3501 42.5756 37.6976C42.8869 37.6145 43.1028 37.3369 43.1028 37.0201V29.7996H45.2907V37.0201C45.2907 37.3369 45.5068 37.6145 45.8179 37.6976C48.2607 38.3501 50.0298 40.41 50.3191 42.8376H48.2175C47.8227 42.8376 47.5027 43.152 47.5027 43.5397C47.5027 43.9275 47.8227 44.2418 48.2175 44.2418H50.319C49.9635 47.2515 47.3544 49.5957 44.1969 49.5957Z" fill="white"/>
</g>
<defs>
<filter id="filter0_d" x="0" y="0" width="58.7913" height="58" filterUnits="userSpaceOnUse" color-interpolation-filters="sRGB">
<feFlood flood-opacity="0" result="BackgroundImageFix"/>
<feColorMatrix in="SourceAlpha" type="matrix" values="0 0 0 0 0 0 0 0 0 0 0 0 0 0 0 0 0 0 127 0"/>
<feOffset/>
<feGaussianBlur stdDeviation="3.5"/>
<feColorMatrix type="matrix" values="0 0 0 0 0 0 0 0 0 0.765517 0 0 0 0 1 0 0 0 1 0"/>
<feBlend mode="normal" in2="BackgroundImageFix" result="effect1_dropShadow"/>
<feBlend mode="normal" in="SourceGraphic" in2="effect1_dropShadow" result="shape"/>
</filter>
</defs>
</svg>
