<svg width="54" height="54" viewBox="0 0 54 54" fill="none" xmlns="http://www.w3.org/2000/svg">
<g filter="url(#filter0_d)">
<path d="M26.9989 7C15.9715 7 7 16.0486 7 27.1711C7 36.8442 13.8304 45.1758 23.2407 46.9818C23.3052 46.994 23.3694 47 23.4327 47C23.9121 47 24.3398 46.6567 24.4328 46.164C24.5381 45.606 24.1749 45.068 23.6219 44.9617C15.1717 43.34 9.03845 35.8581 9.03845 27.1711C9.03845 17.1823 17.0955 9.05604 26.9989 9.05604C36.9021 9.05604 44.9592 17.1823 44.9592 27.1711C44.9592 35.4377 39.4048 42.6132 31.5855 44.6859V27.1711C31.5855 26.6033 31.1291 26.143 30.5662 26.143H23.4314C22.8686 26.143 22.4122 26.6033 22.4122 27.1711V41.0643C22.4122 41.6321 22.8686 42.0925 23.4314 42.0925C23.9942 42.0925 24.4505 41.6321 24.4505 41.0643V28.1991H29.547V45.9718C29.547 46.2779 29.6825 46.5684 29.9164 46.7636C30.1505 46.9589 30.4577 47.0382 30.7568 46.9818C40.1673 45.1756 46.9976 36.8442 46.9976 27.1711C46.9976 16.0486 38.0262 7 26.9989 7ZM26.9989 22.1738C29.5278 22.1738 31.5855 20.0984 31.5855 17.5475C31.5855 14.9967 29.5278 12.9213 26.9989 12.9213C24.4698 12.9213 22.4122 14.9967 22.4122 17.5475C22.4122 20.0984 24.4698 22.1738 26.9989 22.1738ZM26.9989 14.9774C28.4038 14.9774 29.547 16.1305 29.547 17.5475C29.547 18.9646 28.4038 20.1177 26.9989 20.1177C25.5938 20.1177 24.4505 18.9646 24.4505 17.5475C24.4505 16.1305 25.5938 14.9774 26.9989 14.9774Z" fill="white"/>
</g>
<defs>
<filter id="filter0_d" x="0" y="0" width="53.9976" height="54" filterUnits="userSpaceOnUse" color-interpolation-filters="sRGB">
<feFlood flood-opacity="0" result="BackgroundImageFix"/>
<feColorMatrix in="SourceAlpha" type="matrix" values="0 0 0 0 0 0 0 0 0 0 0 0 0 0 0 0 0 0 127 0"/>
<feOffset/>
<feGaussianBlur stdDeviation="3.5"/>
<feColorMatrix type="matrix" values="0 0 0 0 0 0 0 0 0 0.765517 0 0 0 0 1 0 0 0 1 0"/>
<feBlend mode="normal" in2="BackgroundImageFix" result="effect1_dropShadow"/>
<feBlend mode="normal" in="SourceGraphic" in2="effect1_dropShadow" result="shape"/>
</filter>
</defs>
</svg>
