<svg width="50" height="58" viewBox="0 0 50 58" fill="none" xmlns="http://www.w3.org/2000/svg">
<g filter="url(#filter0_d)">
<path fill-rule="evenodd" clip-rule="evenodd" d="M22.8021 7C21.0695 7 19.6408 8.4209 19.6408 10.144V12.2392C19.6408 12.5171 19.7518 12.7835 19.9493 12.98C20.1469 13.1765 20.4148 13.2869 20.6942 13.2869H23.8515V15.4129C19.7044 15.6534 15.935 17.3036 13.0166 19.8858L11.4992 18.3768L12.244 17.636C12.3461 17.5397 12.4278 17.4241 12.4842 17.2959C12.5406 17.1677 12.5707 17.0295 12.5725 16.8896C12.5744 16.7497 12.548 16.6108 12.495 16.4811C12.442 16.3515 12.3635 16.2337 12.264 16.1348C12.1645 16.0358 12.0461 15.9577 11.9157 15.905C11.7853 15.8523 11.6457 15.8261 11.505 15.8279C11.3643 15.8298 11.2254 15.8596 11.0965 15.9157C10.9675 15.9719 10.8512 16.0531 10.7544 16.1546L7.7772 19.1154C7.6751 19.2117 7.59343 19.3274 7.53702 19.4556C7.4806 19.5838 7.45058 19.7219 7.44872 19.8619C7.44686 20.0018 7.4732 20.1407 7.52619 20.2703C7.57918 20.4 7.65774 20.5177 7.75725 20.6167C7.85675 20.7157 7.97517 20.7938 8.10553 20.8465C8.23589 20.8992 8.37554 20.9254 8.51625 20.9235C8.65695 20.9217 8.79586 20.8918 8.92477 20.8357C9.05369 20.7796 9.16999 20.6984 9.26683 20.5969L10.0086 19.8592L11.527 21.3693C8.71352 24.5156 7.00049 28.6554 7.00049 33.1901C7.00049 43.0138 15.0268 51 24.9049 51C34.783 51 42.8144 43.0138 42.8144 33.1901C42.8144 28.6544 41.0994 24.5138 38.2838 21.3672L39.8033 19.8561L40.5481 20.5969C40.6449 20.6984 40.7612 20.7796 40.8902 20.8357C41.0191 20.8918 41.158 20.9217 41.2987 20.9235C41.4394 20.9254 41.579 20.8992 41.7094 20.8465C41.8398 20.7938 41.9582 20.7156 42.0577 20.6167C42.1572 20.5177 42.2357 20.4 42.2887 20.2703C42.3417 20.1407 42.3681 20.0018 42.3662 19.8619C42.3643 19.7219 42.3343 19.5838 42.2779 19.4556C42.2215 19.3274 42.1398 19.2117 42.0377 19.1154L39.0605 16.1546C38.9637 16.0531 38.8474 15.9719 38.7185 15.9157C38.5896 15.8596 38.4506 15.8298 38.3099 15.8279C38.1692 15.8261 38.0296 15.8523 37.8992 15.905C37.7689 15.9577 37.6504 16.0358 37.5509 16.1348C37.4514 16.2337 37.3729 16.3515 37.3199 16.4811C37.2669 16.6108 37.2406 16.7497 37.2424 16.8896C37.2443 17.0295 37.2743 17.1677 37.3307 17.2959C37.3871 17.4241 37.4688 17.5397 37.5709 17.636L38.3126 18.3737L36.7942 19.8838C33.8753 17.3027 30.1055 15.6533 25.9594 15.4129V13.2869H29.1197C29.2581 13.287 29.3952 13.26 29.5231 13.2074C29.651 13.1548 29.7673 13.0777 29.8652 12.9804C29.9631 12.8831 30.0408 12.7675 30.0938 12.6404C30.1469 12.5132 30.1741 12.3769 30.1742 12.2392V10.144C30.1742 8.4209 28.7454 7 27.0128 7H22.8021ZM22.8021 9.09529H27.0128C27.6146 9.09529 28.0662 9.54542 28.0662 10.144V11.1916H21.7487V10.144C21.7487 9.54542 22.2003 9.09529 22.8021 9.09529ZM24.9049 17.4754C33.6444 17.4754 40.7065 24.4987 40.7065 33.1901C40.7065 41.8814 33.6444 48.9047 24.9049 48.9047C16.1654 48.9047 9.10326 41.8814 9.10326 33.1901C9.10326 24.4987 16.1654 17.4754 24.9049 17.4754Z" fill="white"/>
<path fill-rule="evenodd" clip-rule="evenodd" d="M24.8915 22.7013C24.6123 22.7054 24.3461 22.8195 24.1515 23.0187C23.9569 23.2178 23.8497 23.4856 23.8535 23.7633V33.1911C23.8536 33.4689 23.9646 33.7353 24.1621 33.9318L30.4828 40.2176C30.5799 40.3182 30.6961 40.3985 30.8248 40.4538C30.9534 40.5091 31.0919 40.5383 31.2321 40.5398C31.3722 40.5412 31.5113 40.5148 31.6411 40.4621C31.7708 40.4095 31.8887 40.3315 31.9879 40.233C32.087 40.1344 32.1653 40.0172 32.2183 39.8881C32.2713 39.759 32.2978 39.6208 32.2964 39.4814C32.2949 39.342 32.2655 39.2043 32.2099 39.0763C32.1543 38.9484 32.0735 38.8328 31.9724 38.7362L25.9604 32.7573V23.7633C25.9623 23.6232 25.936 23.4842 25.8829 23.3544C25.8299 23.2246 25.7512 23.1067 25.6516 23.0077C25.5519 22.9087 25.4333 22.8306 25.3027 22.778C25.1722 22.7253 25.0324 22.6992 24.8915 22.7013Z" fill="white"/>
<path fill-rule="evenodd" clip-rule="evenodd" d="M24.9054 18.523C24.6259 18.523 24.3579 18.6334 24.1603 18.8299C23.9627 19.0264 23.8517 19.293 23.8517 19.5709C23.8517 19.8488 23.9627 20.1153 24.1603 20.3119C24.3579 20.5084 24.6259 20.6188 24.9054 20.6188C28.2019 20.618 31.5131 21.9824 33.8444 24.3C36.1755 26.6175 37.5494 29.9114 37.5498 33.1897C37.5506 36.4684 36.1761 39.7606 33.8444 42.0795C31.5126 44.3984 28.2023 45.7653 24.9054 45.7646C24.767 45.7646 24.63 45.7916 24.5022 45.8443C24.3743 45.897 24.2582 45.9742 24.1603 46.0715C24.0625 46.1688 23.9849 46.2843 23.9319 46.4115C23.879 46.5386 23.8517 46.6748 23.8517 46.8125C23.8517 46.9501 23.879 47.0863 23.9319 47.2135C23.9849 47.3406 24.0625 47.4561 24.1603 47.5534C24.2582 47.6507 24.3743 47.7279 24.5022 47.7806C24.63 47.8333 24.767 47.8604 24.9054 47.8604C28.7813 47.8613 32.5973 46.2894 35.3374 43.5643C38.0776 40.8393 39.6582 37.0443 39.6572 33.1897C39.6567 29.3364 38.0779 25.5396 35.3374 22.8151C32.597 20.0908 28.78 18.5221 24.9054 18.523Z" fill="white"/>
<path fill-rule="evenodd" clip-rule="evenodd" d="M11.2121 34.2388C10.9327 34.2388 10.6648 34.1284 10.4672 33.9319C10.2697 33.7354 10.1587 33.469 10.1587 33.1911C10.1587 32.9133 10.2697 32.6468 10.4672 32.4503C10.6648 32.2539 10.9327 32.1435 11.2121 32.1435C11.4915 32.1435 11.7594 32.2539 11.957 32.4503C12.1546 32.6468 12.2655 32.9133 12.2656 33.1911C12.2656 33.3287 12.2383 33.465 12.1854 33.5921C12.1324 33.7192 12.0548 33.8346 11.957 33.9319C11.8592 34.0292 11.7431 34.1064 11.6152 34.159C11.4874 34.2117 11.3504 34.2388 11.2121 34.2388Z" fill="white"/>
<path fill-rule="evenodd" clip-rule="evenodd" d="M12.5201 27.2887C12.4003 27.2199 12.2953 27.1283 12.2111 27.0192C12.1269 26.91 12.0651 26.7854 12.0293 26.6525C11.9935 26.5196 11.9844 26.3811 12.0024 26.2447C12.0205 26.1082 12.0654 25.9767 12.1346 25.8575C12.2743 25.6169 12.5044 25.4413 12.7742 25.3694C13.0441 25.2975 13.3316 25.3352 13.5736 25.4741C13.8155 25.6131 13.9921 25.8418 14.0644 26.1102C14.1367 26.3786 14.0989 26.6646 13.9592 26.9052C13.89 27.0244 13.7979 27.1288 13.6882 27.2126C13.5784 27.2963 13.4532 27.3577 13.3195 27.3933C13.1859 27.4289 13.0465 27.4381 12.9094 27.4201C12.7722 27.4021 12.64 27.3575 12.5201 27.2887Z" fill="white"/>
<path fill-rule="evenodd" clip-rule="evenodd" d="M17.1472 21.9202C17.078 21.8011 17.0332 21.6695 17.0151 21.5331C16.997 21.3967 17.0062 21.2581 17.042 21.1252C17.0778 20.9923 17.1396 20.8677 17.2238 20.7586C17.308 20.6494 17.413 20.5579 17.5328 20.4891C17.7748 20.3501 18.0623 20.3125 18.3322 20.3844C18.602 20.4563 18.8321 20.6319 18.9718 20.8725C19.1115 21.1132 19.1494 21.3991 19.0771 21.6675C19.0048 21.9359 18.8282 22.1647 18.5863 22.3036C18.4665 22.3724 18.3342 22.4171 18.197 22.435C18.0599 22.453 17.9205 22.4439 17.7869 22.4083C17.6533 22.3727 17.528 22.3112 17.4182 22.2275C17.3085 22.1437 17.2164 22.0393 17.1472 21.9202Z" fill="white"/>
<path fill-rule="evenodd" clip-rule="evenodd" d="M13.5736 40.9082C13.4538 40.9769 13.3215 41.0216 13.1844 41.0396C13.0472 41.0575 12.9078 41.0484 12.7742 41.0128C12.6406 40.9772 12.5153 40.9158 12.4056 40.832C12.2958 40.7483 12.2037 40.6438 12.1345 40.5247C11.9949 40.2841 11.957 39.9981 12.0293 39.7298C12.1016 39.4614 12.2782 39.2325 12.5201 39.0936C12.7621 38.9547 13.0496 38.917 13.3195 38.989C13.5894 39.0609 13.8195 39.2364 13.9592 39.477C14.0283 39.5962 14.0732 39.7277 14.0913 39.8641C14.1093 40.0005 14.1002 40.1391 14.0644 40.272C14.0286 40.4049 13.9668 40.5295 13.8826 40.6386C13.7984 40.7478 13.6934 40.8394 13.5736 40.9082Z" fill="white"/>
<path fill-rule="evenodd" clip-rule="evenodd" d="M18.9718 45.5098C18.9027 45.6289 18.8106 45.7334 18.7008 45.8171C18.5911 45.9009 18.4658 45.9623 18.3322 45.9979C18.1985 46.0335 18.0592 46.0426 17.922 46.0247C17.7848 46.0067 17.6526 45.962 17.5328 45.8933C17.2908 45.7543 17.1143 45.5255 17.042 45.2571C16.9697 44.9887 17.0075 44.7028 17.1472 44.4622C17.2869 44.2216 17.517 44.046 17.7869 43.9741C18.0567 43.9021 18.3443 43.9397 18.5862 44.0786C18.706 44.1474 18.8111 44.239 18.8953 44.3482C18.9795 44.4573 19.0413 44.5819 19.0771 44.7148C19.1129 44.8477 19.122 44.9863 19.104 45.1227C19.0859 45.2591 19.041 45.3906 18.9718 45.5098Z" fill="white"/>
</g>
<defs>
<filter id="filter0_d" x="0.000488281" y="0" width="49.814" height="58" filterUnits="userSpaceOnUse" color-interpolation-filters="sRGB">
<feFlood flood-opacity="0" result="BackgroundImageFix"/>
<feColorMatrix in="SourceAlpha" type="matrix" values="0 0 0 0 0 0 0 0 0 0 0 0 0 0 0 0 0 0 127 0"/>
<feOffset/>
<feGaussianBlur stdDeviation="3.5"/>
<feColorMatrix type="matrix" values="0 0 0 0 0 0 0 0 0 0.765517 0 0 0 0 1 0 0 0 1 0"/>
<feBlend mode="normal" in2="BackgroundImageFix" result="effect1_dropShadow"/>
<feBlend mode="normal" in="SourceGraphic" in2="effect1_dropShadow" result="shape"/>
</filter>
</defs>
</svg>
