<svg width="113" height="113" viewBox="0 0 113 113" fill="none" xmlns="http://www.w3.org/2000/svg">
<g filter="url(#filter0_f)">
<circle r="50" transform="matrix(1 0 -2.58096e-08 -1 56.9003 56.621)" fill="url(#paint0_linear)"/>
<circle r="49.5" transform="matrix(1 0 -2.58096e-08 -1 56.9003 56.621)" stroke="#38A7C9"/>
</g>
<g filter="url(#filter1_f)">
<path d="M71.129 56.5185V61.2614H65.2464C63.9895 61.2614 62.7205 60.8359 61.5517 60.0127C61.1845 59.7559 60.9656 59.3087 60.9656 58.8174V57.8736H64.3534V53.8083H49.4471V57.8736H52.8349V58.8174C52.8349 59.3094 52.6161 59.7565 52.2217 60.0316C51.0794 60.8359 49.811 61.2614 48.5541 61.2614H42.6716V56.5185H35.896V76.8452H42.6716V72.1023H48.5541C49.8388 72.1023 51.0807 72.5095 52.1465 73.2779C53.5362 74.282 55.1806 74.8125 56.9003 74.8125C58.6199 74.8125 60.2643 74.282 61.6547 73.2779C62.7205 72.5095 63.9624 72.1023 65.2464 72.1023H71.129V76.8452H77.9045V56.5185H71.129ZM50.8022 55.1634H62.9983V56.5185H50.8022V55.1634ZM41.3165 75.4901H37.2511V57.8736H41.3165V75.4901ZM65.2464 70.7472C63.6758 70.7472 62.1595 71.2425 60.8613 72.1795C59.704 73.0156 58.3333 73.4574 56.9003 73.4574C55.4672 73.4574 54.0965 73.0156 52.9386 72.1795C51.6404 71.2425 50.1247 70.7472 48.5541 70.7472H42.6716V62.6165H48.5541C50.0928 62.6165 51.6309 62.1056 53.026 61.1232C53.7544 60.613 54.19 59.7511 54.19 58.8174V57.8736H59.6105V58.8174C59.6105 59.7511 60.0462 60.613 60.7982 61.1394C62.1696 62.1056 63.7084 62.6165 65.2464 62.6165H71.129V70.7472H65.2464ZM76.5494 75.4901H72.4841V57.8736H76.5494V75.4901Z" fill="#07A7D8"/>
<path d="M44.0267 38.902H54.8676V40.2571H53.5125V46.3551H54.8676V49.0654H49.4471V53.1307H64.3534V49.0654H58.9329V46.3551H60.288V40.2571H58.9329V38.902H69.7738C70.8945 38.902 71.8065 37.99 71.8065 36.8693C71.8065 35.7487 70.8945 34.8367 69.7738 34.8367H44.0267C42.906 34.8367 41.994 35.7487 41.994 36.8693C41.994 37.99 42.906 38.902 44.0267 38.902ZM62.9983 51.7756H50.8022V50.4205H62.9983V51.7756ZM57.5778 49.0654H56.2227V46.3551H57.5778V49.0654ZM58.9329 45H54.8676V41.6122H58.9329V45ZM57.5778 40.2571H56.2227V38.902H57.5778V40.2571ZM44.0267 36.1918H69.7738C70.1479 36.1918 70.4514 36.496 70.4514 36.8693C70.4514 37.2427 70.1479 37.5469 69.7738 37.5469H44.0267C43.6527 37.5469 43.3491 37.2427 43.3491 36.8693C43.3491 36.496 43.6527 36.1918 44.0267 36.1918Z" fill="#07A7D8"/>
<path d="M75.1943 59.2287H73.8392V60.5838H75.1943V59.2287Z" fill="#07A7D8"/>
<path d="M75.1943 66.0043H73.8392V67.3594H75.1943V66.0043Z" fill="#07A7D8"/>
<path d="M75.1943 72.7799H73.8392V74.135H75.1943V72.7799Z" fill="#07A7D8"/>
<path d="M39.9613 59.2287H38.6062V60.5838H39.9613V59.2287Z" fill="#07A7D8"/>
<path d="M39.9613 66.0043H38.6062V67.3594H39.9613V66.0043Z" fill="#07A7D8"/>
<path d="M39.9613 72.7799H38.6062V74.135H39.9613V72.7799Z" fill="#07A7D8"/>
<path d="M59.6105 65.3267H50.8022V66.6818H59.6105V65.3267Z" fill="#07A7D8"/>
<path d="M62.3207 65.3267H60.9656V66.6818H62.3207V65.3267Z" fill="#07A7D8"/>
</g>
<path d="M71.129 56.5185V61.2614H65.2464C63.9895 61.2614 62.7205 60.8359 61.5517 60.0127C61.1845 59.7559 60.9656 59.3087 60.9656 58.8174V57.8736H64.3534V53.8083H49.4471V57.8736H52.8349V58.8174C52.8349 59.3094 52.6161 59.7565 52.2217 60.0316C51.0794 60.8359 49.811 61.2614 48.5541 61.2614H42.6716V56.5185H35.896V76.8452H42.6716V72.1023H48.5541C49.8388 72.1023 51.0807 72.5095 52.1465 73.2779C53.5362 74.282 55.1806 74.8125 56.9003 74.8125C58.6199 74.8125 60.2643 74.282 61.6547 73.2779C62.7205 72.5095 63.9624 72.1023 65.2464 72.1023H71.129V76.8452H77.9045V56.5185H71.129ZM50.8022 55.1634H62.9983V56.5185H50.8022V55.1634ZM41.3165 75.4901H37.2511V57.8736H41.3165V75.4901ZM65.2464 70.7472C63.6758 70.7472 62.1595 71.2425 60.8613 72.1795C59.704 73.0156 58.3333 73.4574 56.9003 73.4574C55.4672 73.4574 54.0965 73.0156 52.9386 72.1795C51.6404 71.2425 50.1247 70.7472 48.5541 70.7472H42.6716V62.6165H48.5541C50.0928 62.6165 51.6309 62.1056 53.026 61.1232C53.7544 60.613 54.19 59.7511 54.19 58.8174V57.8736H59.6105V58.8174C59.6105 59.7511 60.0462 60.613 60.7982 61.1394C62.1696 62.1056 63.7084 62.6165 65.2464 62.6165H71.129V70.7472H65.2464ZM76.5494 75.4901H72.4841V57.8736H76.5494V75.4901Z" fill="white"/>
<path d="M44.0267 38.902H54.8676V40.2571H53.5125V46.3551H54.8676V49.0654H49.4471V53.1307H64.3534V49.0654H58.9329V46.3551H60.288V40.2571H58.9329V38.902H69.7738C70.8945 38.902 71.8065 37.99 71.8065 36.8693C71.8065 35.7487 70.8945 34.8367 69.7738 34.8367H44.0267C42.906 34.8367 41.994 35.7487 41.994 36.8693C41.994 37.99 42.906 38.902 44.0267 38.902ZM62.9983 51.7756H50.8022V50.4205H62.9983V51.7756ZM57.5778 49.0654H56.2227V46.3551H57.5778V49.0654ZM58.9329 45H54.8676V41.6122H58.9329V45ZM57.5778 40.2571H56.2227V38.902H57.5778V40.2571ZM44.0267 36.1918H69.7738C70.1479 36.1918 70.4514 36.496 70.4514 36.8693C70.4514 37.2427 70.1479 37.5469 69.7738 37.5469H44.0267C43.6527 37.5469 43.3491 37.2427 43.3491 36.8693C43.3491 36.496 43.6527 36.1918 44.0267 36.1918Z" fill="white"/>
<path d="M75.1943 59.2287H73.8392V60.5838H75.1943V59.2287Z" fill="white"/>
<path d="M75.1943 66.0043H73.8392V67.3594H75.1943V66.0043Z" fill="white"/>
<path d="M75.1943 72.7799H73.8392V74.135H75.1943V72.7799Z" fill="white"/>
<path d="M39.9613 59.2287H38.6062V60.5838H39.9613V59.2287Z" fill="white"/>
<path d="M39.9613 66.0043H38.6062V67.3594H39.9613V66.0043Z" fill="white"/>
<path d="M39.9613 72.7799H38.6062V74.135H39.9613V72.7799Z" fill="white"/>
<path d="M59.6105 65.3267H50.8022V66.6818H59.6105V65.3267Z" fill="white"/>
<path d="M62.3207 65.3267H60.9656V66.6818H62.3207V65.3267Z" fill="white"/>
<g filter="url(#filter2_f)">
<circle cx="56.9004" cy="56.6211" r="49.5" stroke="#38A7C9"/>
</g>
<circle cx="56.9004" cy="56.6211" r="49.5" stroke="white"/>
<defs>
<filter id="filter0_f" x="0.900391" y="0.621094" width="112" height="112" filterUnits="userSpaceOnUse" color-interpolation-filters="sRGB">
<feFlood flood-opacity="0" result="BackgroundImageFix"/>
<feBlend mode="normal" in="SourceGraphic" in2="BackgroundImageFix" result="shape"/>
<feGaussianBlur stdDeviation="3" result="effect1_foregroundBlur"/>
</filter>
<filter id="filter1_f" x="29.896" y="28.8367" width="54.0085" height="54.0085" filterUnits="userSpaceOnUse" color-interpolation-filters="sRGB">
<feFlood flood-opacity="0" result="BackgroundImageFix"/>
<feBlend mode="normal" in="SourceGraphic" in2="BackgroundImageFix" result="shape"/>
<feGaussianBlur stdDeviation="3" result="effect1_foregroundBlur"/>
</filter>
<filter id="filter2_f" x="2.90039" y="2.62109" width="108" height="108" filterUnits="userSpaceOnUse" color-interpolation-filters="sRGB">
<feFlood flood-opacity="0" result="BackgroundImageFix"/>
<feBlend mode="normal" in="SourceGraphic" in2="BackgroundImageFix" result="shape"/>
<feGaussianBlur stdDeviation="2" result="effect1_foregroundBlur"/>
</filter>
<linearGradient id="paint0_linear" x1="50" y1="0" x2="50" y2="99.9999" gradientUnits="userSpaceOnUse">
<stop stop-color="#066E8D"/>
<stop offset="1" stop-color="#066E8D" stop-opacity="0"/>
</linearGradient>
</defs>
</svg>
