<svg width="109" height="109" viewBox="0 0 109 109" fill="none" xmlns="http://www.w3.org/2000/svg">
<g filter="url(#filter0_f)">
<path d="M69.129 54.8647V59.6076H63.2464C61.9895 59.6076 60.7205 59.1821 59.5517 58.3588C59.1845 58.1021 58.9656 57.6549 58.9656 57.1636V56.2198H62.3534V52.1545H47.4471V56.2198H50.8349V57.1636C50.8349 57.6555 50.6161 58.1027 50.2217 58.3778C49.0794 59.1821 47.811 59.6076 46.5541 59.6076H40.6716V54.8647H33.896V75.1914H40.6716V70.4485H46.5541C47.8388 70.4485 49.0807 70.8557 50.1465 71.6241C51.5362 72.6282 53.1806 73.1587 54.9003 73.1587C56.6199 73.1587 58.2643 72.6282 59.6547 71.6241C60.7205 70.8557 61.9624 70.4485 63.2464 70.4485H69.129V75.1914H75.9045V54.8647H69.129ZM48.8022 53.5096H60.9983V54.8647H48.8022V53.5096ZM39.3165 73.8363H35.2511V56.2198H39.3165V73.8363ZM63.2464 69.0934C61.6758 69.0934 60.1595 69.5887 58.8613 70.5257C57.704 71.3618 56.3333 71.8036 54.9003 71.8036C53.4672 71.8036 52.0965 71.3618 50.9386 70.5257C49.6404 69.5887 48.1247 69.0934 46.5541 69.0934H40.6716V60.9627H46.5541C48.0928 60.9627 49.6309 60.4518 51.026 59.4694C51.7544 58.9592 52.19 58.0973 52.19 57.1636V56.2198H57.6105V57.1636C57.6105 58.0973 58.0462 58.9592 58.7982 59.4856C60.1696 60.4518 61.7084 60.9627 63.2464 60.9627H69.129V69.0934H63.2464ZM74.5494 73.8363H70.4841V56.2198H74.5494V73.8363Z" fill="#07A7D8"/>
<path d="M42.0267 37.2482H52.8676V38.6033H51.5125V44.7013H52.8676V47.4116H47.4471V51.4769H62.3534V47.4116H56.9329V44.7013H58.288V38.6033H56.9329V37.2482H67.7738C68.8945 37.2482 69.8065 36.3362 69.8065 35.2155C69.8065 34.0949 68.8945 33.1829 67.7738 33.1829H42.0267C40.906 33.1829 39.994 34.0949 39.994 35.2155C39.994 36.3362 40.906 37.2482 42.0267 37.2482ZM60.9983 50.1218H48.8022V48.7667H60.9983V50.1218ZM55.5778 47.4116H54.2227V44.7013H55.5778V47.4116ZM56.9329 43.3462H52.8676V39.9584H56.9329V43.3462ZM55.5778 38.6033H54.2227V37.2482H55.5778V38.6033ZM42.0267 34.538H67.7738C68.1479 34.538 68.4514 34.8422 68.4514 35.2155C68.4514 35.5889 68.1479 35.8931 67.7738 35.8931H42.0267C41.6527 35.8931 41.3491 35.5889 41.3491 35.2155C41.3491 34.8422 41.6527 34.538 42.0267 34.538Z" fill="#07A7D8"/>
<path d="M73.1943 57.5749H71.8392V58.93H73.1943V57.5749Z" fill="#07A7D8"/>
<path d="M73.1943 64.3505H71.8392V65.7056H73.1943V64.3505Z" fill="#07A7D8"/>
<path d="M73.1943 71.1261H71.8392V72.4812H73.1943V71.1261Z" fill="#07A7D8"/>
<path d="M37.9613 57.5749H36.6062V58.93H37.9613V57.5749Z" fill="#07A7D8"/>
<path d="M37.9613 64.3505H36.6062V65.7056H37.9613V64.3505Z" fill="#07A7D8"/>
<path d="M37.9613 71.1261H36.6062V72.4812H37.9613V71.1261Z" fill="#07A7D8"/>
<path d="M57.6105 63.6729H48.8022V65.028H57.6105V63.6729Z" fill="#07A7D8"/>
<path d="M60.3207 63.6729H58.9656V65.028H60.3207V63.6729Z" fill="#07A7D8"/>
</g>
<path d="M69.129 54.8647V59.6076H63.2464C61.9895 59.6076 60.7205 59.1821 59.5517 58.3588C59.1845 58.1021 58.9656 57.6549 58.9656 57.1636V56.2198H62.3534V52.1545H47.4471V56.2198H50.8349V57.1636C50.8349 57.6555 50.6161 58.1027 50.2217 58.3778C49.0794 59.1821 47.811 59.6076 46.5541 59.6076H40.6716V54.8647H33.896V75.1914H40.6716V70.4485H46.5541C47.8388 70.4485 49.0807 70.8557 50.1465 71.6241C51.5362 72.6282 53.1806 73.1587 54.9003 73.1587C56.6199 73.1587 58.2643 72.6282 59.6547 71.6241C60.7205 70.8557 61.9624 70.4485 63.2464 70.4485H69.129V75.1914H75.9045V54.8647H69.129ZM48.8022 53.5096H60.9983V54.8647H48.8022V53.5096ZM39.3165 73.8363H35.2511V56.2198H39.3165V73.8363ZM63.2464 69.0934C61.6758 69.0934 60.1595 69.5887 58.8613 70.5257C57.704 71.3618 56.3333 71.8036 54.9003 71.8036C53.4672 71.8036 52.0965 71.3618 50.9386 70.5257C49.6404 69.5887 48.1247 69.0934 46.5541 69.0934H40.6716V60.9627H46.5541C48.0928 60.9627 49.6309 60.4518 51.026 59.4694C51.7544 58.9592 52.19 58.0973 52.19 57.1636V56.2198H57.6105V57.1636C57.6105 58.0973 58.0462 58.9592 58.7982 59.4856C60.1696 60.4518 61.7084 60.9627 63.2464 60.9627H69.129V69.0934H63.2464ZM74.5494 73.8363H70.4841V56.2198H74.5494V73.8363Z" fill="white"/>
<path d="M42.0267 37.2482H52.8676V38.6033H51.5125V44.7013H52.8676V47.4116H47.4471V51.4769H62.3534V47.4116H56.9329V44.7013H58.288V38.6033H56.9329V37.2482H67.7738C68.8945 37.2482 69.8065 36.3362 69.8065 35.2155C69.8065 34.0949 68.8945 33.1829 67.7738 33.1829H42.0267C40.906 33.1829 39.994 34.0949 39.994 35.2155C39.994 36.3362 40.906 37.2482 42.0267 37.2482ZM60.9983 50.1218H48.8022V48.7667H60.9983V50.1218ZM55.5778 47.4116H54.2227V44.7013H55.5778V47.4116ZM56.9329 43.3462H52.8676V39.9584H56.9329V43.3462ZM55.5778 38.6033H54.2227V37.2482H55.5778V38.6033ZM42.0267 34.538H67.7738C68.1479 34.538 68.4514 34.8422 68.4514 35.2155C68.4514 35.5889 68.1479 35.8931 67.7738 35.8931H42.0267C41.6527 35.8931 41.3491 35.5889 41.3491 35.2155C41.3491 34.8422 41.6527 34.538 42.0267 34.538Z" fill="white"/>
<path d="M73.1943 57.5749H71.8392V58.93H73.1943V57.5749Z" fill="white"/>
<path d="M73.1943 64.3505H71.8392V65.7056H73.1943V64.3505Z" fill="white"/>
<path d="M73.1943 71.1261H71.8392V72.4812H73.1943V71.1261Z" fill="white"/>
<path d="M37.9613 57.5749H36.6062V58.93H37.9613V57.5749Z" fill="white"/>
<path d="M37.9613 64.3505H36.6062V65.7056H37.9613V64.3505Z" fill="white"/>
<path d="M37.9613 71.1261H36.6062V72.4812H37.9613V71.1261Z" fill="white"/>
<path d="M57.6105 63.6729H48.8022V65.028H57.6105V63.6729Z" fill="white"/>
<path d="M60.3207 63.6729H58.9656V65.028H60.3207V63.6729Z" fill="white"/>
<g filter="url(#filter1_f)">
<circle cx="54.9004" cy="54.9673" r="49.5" stroke="#38A7C9"/>
</g>
<circle cx="54.9004" cy="54.9673" r="49.5" stroke="white"/>
<defs>
<filter id="filter0_f" x="27.896" y="27.1829" width="54.0085" height="54.0085" filterUnits="userSpaceOnUse" color-interpolation-filters="sRGB">
<feFlood flood-opacity="0" result="BackgroundImageFix"/>
<feBlend mode="normal" in="SourceGraphic" in2="BackgroundImageFix" result="shape"/>
<feGaussianBlur stdDeviation="3" result="effect1_foregroundBlur"/>
</filter>
<filter id="filter1_f" x="0.900391" y="0.967285" width="108" height="108" filterUnits="userSpaceOnUse" color-interpolation-filters="sRGB">
<feFlood flood-opacity="0" result="BackgroundImageFix"/>
<feBlend mode="normal" in="SourceGraphic" in2="BackgroundImageFix" result="shape"/>
<feGaussianBlur stdDeviation="2" result="effect1_foregroundBlur"/>
</filter>
</defs>
</svg>
