<svg width="222" height="67" viewBox="0 0 222 67" fill="none" xmlns="http://www.w3.org/2000/svg">
<path fill-rule="evenodd" clip-rule="evenodd" d="M87.6513 41.1056C94.4936 41.1056 98.4391 38.3953 98.539 33.3261H91.6967C91.497 35.4341 90.2983 36.3375 87.6513 36.3375C85.5037 36.3375 84.355 35.3839 84.355 33.3261V23.9405C84.355 21.7824 85.5537 20.8288 87.6513 20.8288C90.2484 20.8288 91.3971 21.7322 91.5968 23.9405H98.4391C98.2394 18.8211 94.4436 16.0607 87.7012 16.0607C81.0587 16.0607 77.2131 18.8211 77.2131 23.9405V33.3261C77.2131 38.3953 81.0587 41.1056 87.6513 41.1056ZM115.22 40.704H122.312L114.221 16.5626H106.88L98.7388 40.704H105.831L106.98 36.6888H114.121L115.22 40.704ZM108.328 32.0211L109.077 29.2607C109.577 27.5542 110.126 24.593 110.426 22.6356H110.625C110.975 24.593 111.574 27.5542 111.974 29.2607L112.773 32.0211H108.328ZM146.235 16.5626L140.941 25.6972C140.242 26.9018 139.093 29.0097 138.694 29.9132H138.544C138.144 29.0097 136.996 26.9018 136.297 25.6972L131.002 16.5626H124.06V40.704H130.753V34.7816C130.753 31.8204 130.403 28.9094 130.253 25.9481L130.503 25.898L133.55 32.2219L135.248 35.5345H141.99L143.688 32.2219L146.735 25.898L146.984 25.9481C146.785 28.9094 146.435 31.8204 146.435 34.7816V40.704H153.178V16.5626H146.235ZM171.657 40.704H178.749L170.658 16.5626H163.316L155.175 40.704H162.267L163.416 36.6888H170.558L171.657 40.704ZM164.764 32.0211L165.514 29.2607C166.013 27.5542 166.562 24.593 166.862 22.6356H167.062C167.411 24.593 167.961 27.5542 168.41 29.2607L169.209 32.0211H164.764ZM190.336 16.5626H180.497V40.704H187.389V32.9246H190.336C197.328 32.9246 201.473 29.9132 201.473 24.7436C201.473 19.574 197.328 16.5626 190.336 16.5626ZM190.236 28.2569H187.389V21.1801H190.236C192.983 21.1801 194.431 22.3846 194.431 24.7436C194.431 27.0523 192.983 28.2569 190.236 28.2569ZM214.908 40.704H222L213.859 16.5626H206.517L198.427 40.704H205.519L206.617 36.6888H213.759L214.908 40.704ZM207.966 32.0211L208.765 29.2607C209.264 27.5542 209.764 24.593 210.113 22.6356H210.313C210.663 24.593 211.162 27.5542 211.662 29.2607L212.411 32.0211H207.966ZM0 36.2371H65.5262L56.3865 44.4181H9.13971L0 36.2371ZM3.74578 24.7938V4.46677H7.84117V12.447H15.8322V4.46677H19.9276V24.7938H15.8322V15.9101H7.84117V24.7938H3.74578ZM23.9231 4.46677H40.0549V24.7938H35.9595V7.8797H28.0684V24.7938H23.9231V4.46677ZM44.0005 4.46677H48.0958V21.3808H55.9869V4.46677H60.0823V21.3808H61.7804V28.6584H58.3843V24.7938H44.0005V4.46677ZM0 0.702515H65.5262V32.4729H0V0.702515ZM52.8405 48.1824L44.5498 55.6105H21.0263L12.7357 48.1824H52.8405ZM41.0038 59.3246L32.7631 66.7025L24.5723 59.3246H41.0038Z" fill="white"/>
</svg>
