<svg width="113" height="113" viewBox="0 0 113 113" fill="none" xmlns="http://www.w3.org/2000/svg">
<g filter="url(#filter0_f)">
<circle r="50" transform="matrix(1 0 -2.58096e-08 -1 56.8671 56.621)" fill="url(#paint0_linear)"/>
<circle r="49.5" transform="matrix(1 0 -2.58096e-08 -1 56.8671 56.621)" stroke="#38A7C9"/>
</g>
<g filter="url(#filter1_f)">
<path d="M52.1242 49.5238V48.4905C52.1242 47.3698 51.2122 46.4579 50.0915 46.4579H48.7364V39.6823C49.4837 39.6823 50.0915 39.0745 50.0915 38.3272V36.9721C50.0915 36.2247 49.4837 35.6169 48.7364 35.6169H43.3159C42.5686 35.6169 41.9608 36.2247 41.9608 36.9721V38.3272C41.9608 39.0745 42.5686 39.6823 43.3159 39.6823V41.0374H39.9281V37.6496H35.8628V43.0701C35.8628 44.1907 36.7748 45.1027 37.8955 45.1027H43.3159V46.4579H41.9608C40.8401 46.4579 39.9281 47.3698 39.9281 48.4905V49.5238C37.5635 50.364 35.8628 52.6175 35.8628 55.2661V74.2377C35.8628 76.1057 37.3826 77.6255 39.2506 77.6255H52.8017C54.6697 77.6255 56.1895 76.1057 56.1895 74.2377V55.2661C56.1895 52.6175 54.4888 50.364 52.1242 49.5238ZM43.3159 36.9721H48.7364V38.3272H43.3159V36.9721ZM37.8955 43.7476C37.5221 43.7476 37.2179 43.4434 37.2179 43.0701V39.0047H38.573V42.3925H43.3159V43.7476H37.8955ZM44.671 39.6823H47.3813V46.4579H44.671V39.6823ZM41.9608 50.5232H48.0588V49.1681H41.9608C41.7318 49.1681 41.5062 49.183 41.2832 49.2081V48.4905C41.2832 48.1172 41.5875 47.813 41.9608 47.813H50.0915C50.4648 47.813 50.769 48.1172 50.769 48.4905V49.2081C50.5461 49.183 50.3205 49.1681 50.0915 49.1681H49.4139V50.5232H50.0915C51.9785 50.5232 53.6073 51.6337 54.3703 53.2334H37.682C38.445 51.6337 40.0738 50.5232 41.9608 50.5232ZM54.8344 55.2661V72.205H37.2179V55.2661C37.2179 55.0357 37.2403 54.8108 37.2721 54.5885H54.7802C54.812 54.8108 54.8344 55.0357 54.8344 55.2661ZM52.8017 76.2704H39.2506C38.1299 76.2704 37.2179 75.3584 37.2179 74.2377V73.5601H54.8344V74.2377C54.8344 75.3584 53.9224 76.2704 52.8017 76.2704Z" fill="#07A7D8"/>
<path d="M73.1284 46.4579H70.4182V44.2463C70.6614 44.0762 70.8884 43.8845 71.0958 43.6724V43.7476H75.1611V36.9721H71.0958V37.0466C70.2339 36.1658 69.0346 35.6169 67.708 35.6169C65.3236 35.6169 63.3499 37.3874 63.0193 39.6823H60.9324C59.0644 39.6823 57.5446 41.202 57.5446 43.0701V44.4252H58.8997V43.0701C58.8997 41.9494 59.8117 41.0374 60.9324 41.0374H63.0193C63.2103 42.3627 63.9469 43.5118 64.9977 44.2463V46.4579H62.2875C59.6721 46.4579 57.5446 48.5854 57.5446 51.2008V74.2377C57.5446 76.1057 59.0644 77.6255 60.9324 77.6255H74.4835C76.3516 77.6255 77.8713 76.1057 77.8713 74.2377V51.2008C77.8713 48.5854 75.7438 46.4579 73.1284 46.4579ZM73.806 38.3272V42.3925H71.9867C72.2815 41.7753 72.4509 41.0882 72.4509 40.3598C72.4509 39.6315 72.2815 38.9444 71.9867 38.3272H73.806ZM64.3202 40.3598C64.3202 38.4918 65.8399 36.9721 67.708 36.9721C69.576 36.9721 71.0958 38.4918 71.0958 40.3598C71.0958 42.2279 69.576 43.7476 67.708 43.7476C65.8399 43.7476 64.3202 42.2279 64.3202 40.3598ZM66.3529 44.9029C66.7824 45.0316 67.2371 45.1027 67.708 45.1027C68.1789 45.1027 68.6335 45.0316 69.0631 44.9029V46.4579H66.3529V44.9029ZM62.2875 47.813H73.1284C74.9965 47.813 76.5162 49.3327 76.5162 51.2008V51.8783H58.8997V51.2008C58.8997 49.3327 60.4195 47.813 62.2875 47.813ZM76.5162 53.2334V70.8499H58.8997V53.2334H76.5162ZM74.4835 76.2704H60.9324C59.8117 76.2704 58.8997 75.3584 58.8997 74.2377V72.205H76.5162V74.2377C76.5162 75.3584 75.6042 76.2704 74.4835 76.2704Z" fill="#07A7D8"/>
<path d="M43.6533 70.4739C44.339 70.7239 45.066 70.8499 45.7856 70.8499C45.854 70.8499 45.9218 70.8486 45.9896 70.8465C46.0018 70.8465 46.0133 70.8499 46.0261 70.8499C46.0424 70.8499 46.0573 70.8452 46.0736 70.8452C46.8826 70.8641 47.6652 70.7415 48.399 70.4739C52.8383 68.8559 52.4399 63.6902 51.6092 61.1852L51.4053 60.5693L50.7812 60.7469C50.3191 60.8776 49.6558 61.1947 49.1002 61.7212C48.7371 60.3972 47.9985 58.9357 46.5838 57.5739L46.0261 57.0115L45.4685 57.5739C44.0538 58.9357 43.3152 60.3972 42.9521 61.7212C42.3958 61.1947 41.7325 60.8776 41.2711 60.7469L40.647 60.5693L40.4431 61.1852C39.6124 63.6908 39.214 68.8565 43.6533 70.4739ZM44.671 68.1397C44.671 67.3923 45.2788 66.7846 46.0261 66.7846C46.7735 66.7846 47.3813 67.3923 47.3813 68.1397C47.3813 68.8755 46.7904 69.4738 46.0587 69.4914C46.0397 69.4907 46.0221 69.4928 46.0031 69.4921C46.0018 69.4921 46.0004 69.4921 45.999 69.4921C45.2646 69.4772 44.671 68.8775 44.671 68.1397ZM41.5346 62.3378C42.0313 62.6311 42.6384 63.1752 42.6384 64.0743H43.9935C43.9935 62.1277 44.6771 60.4033 46.0261 58.9405C47.3752 60.4033 48.0588 62.1277 48.0588 64.0743H49.4139C49.4139 63.1752 50.017 62.6332 50.5136 62.3384C50.6498 62.955 50.8029 63.8988 50.7623 64.9077C50.6864 66.8035 49.9634 68.1363 48.6185 68.8857C48.6876 68.6472 48.7364 68.3999 48.7364 68.1397C48.7364 66.645 47.5208 65.4295 46.0261 65.4295C44.5315 65.4295 43.3159 66.645 43.3159 68.1397C43.3159 68.3992 43.364 68.6451 43.4325 68.883C40.7398 67.3774 41.1864 63.8684 41.5346 62.3378Z" fill="#07A7D8"/>
<path d="M65.3352 67.7636C66.0209 68.0137 66.7479 68.1397 67.4674 68.1397C67.5359 68.1397 67.6036 68.1383 67.6714 68.1363C67.6836 68.1363 67.6951 68.1397 67.708 68.1397C67.7242 68.1397 67.7398 68.1349 67.7561 68.1349C68.563 68.1532 69.347 68.0313 70.0808 67.7636C74.5201 66.1456 74.1217 60.9799 73.291 58.475L73.0871 57.8591L72.4631 58.0366C72.001 58.1674 71.3376 58.4845 70.782 59.011C70.4189 57.687 69.6803 56.2248 68.2649 54.8623L67.708 54.3019L67.151 54.863C65.7363 56.2248 64.9971 57.687 64.6339 59.0116C64.0776 58.4852 63.4143 58.1681 62.9529 58.0373L62.3288 57.8598L62.1249 58.4757C61.2942 60.9806 60.8958 66.1463 65.3352 67.7636ZM66.3529 65.4295C66.3529 64.6821 66.9606 64.0743 67.708 64.0743C68.4553 64.0743 69.0631 64.6821 69.0631 65.4295C69.0631 66.1653 68.4729 66.7629 67.7418 66.7812C67.7229 66.7805 67.7046 66.7825 67.6856 66.7819C67.6843 66.7819 67.6829 66.7819 67.6815 66.7819C66.9464 66.7669 66.3529 66.1673 66.3529 65.4295ZM63.2164 59.6275C63.7131 59.9209 64.3202 60.465 64.3202 61.3641H65.6753C65.6753 59.4168 66.3583 57.6924 67.708 56.2296C69.0577 57.6924 69.7406 59.4168 69.7406 61.3641H71.0958C71.0958 60.465 71.6988 59.9229 72.1954 59.6282C72.3316 60.2448 72.4847 61.1886 72.4441 62.1975C72.3682 64.0933 71.6453 65.4261 70.3003 66.1754C70.3694 65.9369 70.4182 65.6896 70.4182 65.4295C70.4182 63.9348 69.2027 62.7192 67.708 62.7192C66.2133 62.7192 64.9977 63.9348 64.9977 65.4295C64.9977 65.689 65.0459 65.9349 65.1143 66.1727C62.4217 64.6672 62.8682 61.1581 63.2164 59.6275Z" fill="#07A7D8"/>
<path d="M68.3855 38.3272H67.0304V41.715H68.3855V38.3272Z" fill="#07A7D8"/>
</g>
<path d="M52.1242 49.5237V48.4904C52.1242 47.3697 51.2122 46.4577 50.0915 46.4577H48.7364V39.6822C49.4837 39.6822 50.0915 39.0744 50.0915 38.327V36.9719C50.0915 36.2246 49.4837 35.6168 48.7364 35.6168H43.3159C42.5686 35.6168 41.9608 36.2246 41.9608 36.9719V38.327C41.9608 39.0744 42.5686 39.6822 43.3159 39.6822V41.0373H39.9281V37.6495H35.8628V43.0699C35.8628 44.1906 36.7748 45.1026 37.8955 45.1026H43.3159V46.4577H41.9608C40.8401 46.4577 39.9281 47.3697 39.9281 48.4904V49.5237C37.5635 50.3638 35.8628 52.6174 35.8628 55.266V74.2376C35.8628 76.1056 37.3826 77.6254 39.2506 77.6254H52.8017C54.6697 77.6254 56.1895 76.1056 56.1895 74.2376V55.266C56.1895 52.6174 54.4888 50.3638 52.1242 49.5237ZM43.3159 36.9719H48.7364V38.327H43.3159V36.9719ZM37.8955 43.7475C37.5221 43.7475 37.2179 43.4433 37.2179 43.0699V39.0046H38.573V42.3924H43.3159V43.7475H37.8955ZM44.671 39.6822H47.3813V46.4577H44.671V39.6822ZM41.9608 50.5231H48.0588V49.168H41.9608C41.7318 49.168 41.5062 49.1829 41.2832 49.2079V48.4904C41.2832 48.1171 41.5875 47.8128 41.9608 47.8128H50.0915C50.4648 47.8128 50.769 48.1171 50.769 48.4904V49.2079C50.5461 49.1829 50.3205 49.168 50.0915 49.168H49.4139V50.5231H50.0915C51.9785 50.5231 53.6073 51.6336 54.3703 53.2333H37.682C38.445 51.6336 40.0738 50.5231 41.9608 50.5231ZM54.8344 55.266V72.2049H37.2179V55.266C37.2179 55.0356 37.2403 54.8107 37.2721 54.5884H54.7802C54.812 54.8107 54.8344 55.0356 54.8344 55.266ZM52.8017 76.2702H39.2506C38.1299 76.2702 37.2179 75.3582 37.2179 74.2376V73.56H54.8344V74.2376C54.8344 75.3582 53.9224 76.2702 52.8017 76.2702Z" fill="white"/>
<path d="M73.1284 46.4577H70.4182V44.2462C70.6614 44.0761 70.8884 43.8844 71.0958 43.6723V43.7475H75.1611V36.9719H71.0958V37.0465C70.2339 36.1656 69.0346 35.6168 67.708 35.6168C65.3236 35.6168 63.3499 37.3873 63.0193 39.6822H60.9324C59.0644 39.6822 57.5446 41.2019 57.5446 43.0699V44.4251H58.8997V43.0699C58.8997 41.9493 59.8117 41.0373 60.9324 41.0373H63.0193C63.2103 42.3626 63.9469 43.5117 64.9977 44.2462V46.4577H62.2875C59.6721 46.4577 57.5446 48.5853 57.5446 51.2006V74.2376C57.5446 76.1056 59.0644 77.6254 60.9324 77.6254H74.4835C76.3516 77.6254 77.8713 76.1056 77.8713 74.2376V51.2006C77.8713 48.5853 75.7438 46.4577 73.1284 46.4577ZM73.806 38.327V42.3924H71.9867C72.2815 41.7751 72.4509 41.0881 72.4509 40.3597C72.4509 39.6313 72.2815 38.9443 71.9867 38.327H73.806ZM64.3202 40.3597C64.3202 38.4917 65.8399 36.9719 67.708 36.9719C69.576 36.9719 71.0958 38.4917 71.0958 40.3597C71.0958 42.2277 69.576 43.7475 67.708 43.7475C65.8399 43.7475 64.3202 42.2277 64.3202 40.3597ZM66.3529 44.9027C66.7824 45.0315 67.2371 45.1026 67.708 45.1026C68.1789 45.1026 68.6335 45.0315 69.0631 44.9027V46.4577H66.3529V44.9027ZM62.2875 47.8128H73.1284C74.9965 47.8128 76.5162 49.3326 76.5162 51.2006V51.8782H58.8997V51.2006C58.8997 49.3326 60.4195 47.8128 62.2875 47.8128ZM76.5162 53.2333V70.8498H58.8997V53.2333H76.5162ZM74.4835 76.2702H60.9324C59.8117 76.2702 58.8997 75.3582 58.8997 74.2376V72.2049H76.5162V74.2376C76.5162 75.3582 75.6042 76.2702 74.4835 76.2702Z" fill="white"/>
<path d="M43.6533 70.4737C44.339 70.7238 45.066 70.8498 45.7856 70.8498C45.854 70.8498 45.9218 70.8484 45.9896 70.8464C46.0018 70.8464 46.0133 70.8498 46.0261 70.8498C46.0424 70.8498 46.0573 70.845 46.0736 70.845C46.8826 70.864 47.6652 70.7414 48.399 70.4737C52.8383 68.8557 52.4399 63.69 51.6092 61.1851L51.4053 60.5692L50.7812 60.7467C50.3191 60.8775 49.6558 61.1946 49.1002 61.7211C48.7371 60.3971 47.9985 58.9356 46.5838 57.5737L46.0261 57.0114L45.4685 57.5737C44.0538 58.9356 43.3152 60.3971 42.9521 61.7211C42.3958 61.1946 41.7325 60.8775 41.2711 60.7467L40.647 60.5692L40.4431 61.1851C39.6124 63.6907 39.214 68.8564 43.6533 70.4737ZM44.671 68.1396C44.671 67.3922 45.2788 66.7844 46.0261 66.7844C46.7735 66.7844 47.3813 67.3922 47.3813 68.1396C47.3813 68.8754 46.7904 69.4737 46.0587 69.4913C46.0397 69.4906 46.0221 69.4926 46.0031 69.492C46.0018 69.492 46.0004 69.492 45.999 69.492C45.2646 69.4771 44.671 68.8774 44.671 68.1396ZM41.5346 62.3376C42.0313 62.631 42.6384 63.1751 42.6384 64.0742H43.9935C43.9935 62.1276 44.6771 60.4032 46.0261 58.9404C47.3752 60.4032 48.0588 62.1276 48.0588 64.0742H49.4139C49.4139 63.1751 50.017 62.6331 50.5136 62.3383C50.6498 62.9549 50.8029 63.8987 50.7623 64.9076C50.6864 66.8034 49.9634 68.1362 48.6185 68.8855C48.6876 68.647 48.7364 68.3997 48.7364 68.1396C48.7364 66.6449 47.5208 65.4293 46.0261 65.4293C44.5315 65.4293 43.3159 66.6449 43.3159 68.1396C43.3159 68.3991 43.364 68.645 43.4325 68.8828C40.7398 67.3773 41.1864 63.8682 41.5346 62.3376Z" fill="white"/>
<path d="M65.3352 67.7635C66.0209 68.0135 66.7479 68.1396 67.4674 68.1396C67.5359 68.1396 67.6036 68.1382 67.6714 68.1362C67.6836 68.1362 67.6951 68.1396 67.708 68.1396C67.7242 68.1396 67.7398 68.1348 67.7561 68.1348C68.563 68.1531 69.347 68.0311 70.0808 67.7635C74.5201 66.1455 74.1217 60.9798 73.291 58.4749L73.0871 57.859L72.4631 58.0365C72.001 58.1673 71.3376 58.4844 70.782 59.0108C70.4189 57.6869 69.6803 56.2247 68.2649 54.8621L67.708 54.3018L67.151 54.8628C65.7363 56.2247 64.9971 57.6869 64.6339 59.0115C64.0776 58.485 63.4143 58.168 62.9529 58.0372L62.3288 57.8597L62.1249 58.4756C61.2942 60.9805 60.8958 66.1462 65.3352 67.7635ZM66.3529 65.4293C66.3529 64.682 66.9606 64.0742 67.708 64.0742C68.4553 64.0742 69.0631 64.682 69.0631 65.4293C69.0631 66.1652 68.4729 66.7628 67.7418 66.7811C67.7229 66.7804 67.7046 66.7824 67.6856 66.7817C67.6843 66.7817 67.6829 66.7817 67.6815 66.7817C66.9464 66.7668 66.3529 66.1672 66.3529 65.4293ZM63.2164 59.6274C63.7131 59.9208 64.3202 60.4649 64.3202 61.364H65.6753C65.6753 59.4167 66.3583 57.6923 67.708 56.2295C69.0577 57.6923 69.7406 59.4167 69.7406 61.364H71.0958C71.0958 60.4649 71.6988 59.9228 72.1954 59.6281C72.3316 60.2447 72.4847 61.1885 72.4441 62.1974C72.3682 64.0932 71.6453 65.4259 70.3003 66.1753C70.3694 65.9368 70.4182 65.6895 70.4182 65.4293C70.4182 63.9346 69.2027 62.7191 67.708 62.7191C66.2133 62.7191 64.9977 63.9346 64.9977 65.4293C64.9977 65.6888 65.0459 65.9348 65.1143 66.1726C62.4217 64.6671 62.8682 61.158 63.2164 59.6274Z" fill="white"/>
<path d="M68.3855 38.327H67.0304V41.7148H68.3855V38.327Z" fill="white"/>
<g filter="url(#filter2_f)">
<circle cx="56.8672" cy="56.6211" r="49.5" stroke="#38A7C9"/>
</g>
<circle cx="56.8672" cy="56.6211" r="49.5" stroke="white"/>
<defs>
<filter id="filter0_f" x="0.867188" y="0.621094" width="112" height="112" filterUnits="userSpaceOnUse" color-interpolation-filters="sRGB">
<feFlood flood-opacity="0" result="BackgroundImageFix"/>
<feBlend mode="normal" in="SourceGraphic" in2="BackgroundImageFix" result="shape"/>
<feGaussianBlur stdDeviation="3" result="effect1_foregroundBlur"/>
</filter>
<filter id="filter1_f" x="29.8628" y="29.6169" width="54.0085" height="54.0085" filterUnits="userSpaceOnUse" color-interpolation-filters="sRGB">
<feFlood flood-opacity="0" result="BackgroundImageFix"/>
<feBlend mode="normal" in="SourceGraphic" in2="BackgroundImageFix" result="shape"/>
<feGaussianBlur stdDeviation="3" result="effect1_foregroundBlur"/>
</filter>
<filter id="filter2_f" x="0.867188" y="0.621094" width="112" height="112" filterUnits="userSpaceOnUse" color-interpolation-filters="sRGB">
<feFlood flood-opacity="0" result="BackgroundImageFix"/>
<feBlend mode="normal" in="SourceGraphic" in2="BackgroundImageFix" result="shape"/>
<feGaussianBlur stdDeviation="3" result="effect1_foregroundBlur"/>
</filter>
<linearGradient id="paint0_linear" x1="50" y1="0" x2="50" y2="99.9999" gradientUnits="userSpaceOnUse">
<stop stop-color="#066E8D"/>
<stop offset="1" stop-color="#066E8D" stop-opacity="0"/>
</linearGradient>
</defs>
</svg>
