<svg width="113" height="113" viewBox="0 0 113 113" fill="none" xmlns="http://www.w3.org/2000/svg">
<g filter="url(#filter0_f)">
<path d="M73.1948 68.4857H63.709C62.0734 68.4857 60.7047 69.6518 60.3897 71.196H52.1906V67.1306H53.5457V63.0653H52.1906V56.1407L58.9851 54.442C59.08 55.4753 59.9411 56.2897 60.9988 56.2897C61.5212 56.2897 61.9935 56.0858 62.3539 55.7612V60.3551H63.709V64.4204H65.7417V67.1306H67.0968V64.4204H69.1295V60.3551H74.5499V55.7612C74.9104 56.0865 75.3827 56.2897 75.9051 56.2897C77.0257 56.2897 77.9377 55.3777 77.9377 54.2571C77.9377 53.1364 77.0257 52.2244 75.9051 52.2244C75.3827 52.2244 74.9104 52.4283 74.5499 52.7529V45.4488H71.8397V44.0937H73.1948V42.061C73.1948 40.9403 72.2828 40.0284 71.1622 40.0284H65.7417C64.621 40.0284 63.709 40.9403 63.709 42.061V44.0937H65.0641V45.4488H62.3539V46.3432L52.1906 49.2892V46.8039H50.8355V44.0937H52.1906C52.9379 44.0937 53.5457 43.4859 53.5457 42.7386V41.3835C53.5457 40.6361 52.9379 40.0284 52.1906 40.0284H50.8355V37.9957C50.8355 36.875 49.9235 35.963 48.8028 35.963H47.4477C46.327 35.963 45.415 36.875 45.415 37.9957V40.0284H44.0599C43.3125 40.0284 42.7048 40.6361 42.7048 41.3835V42.7386C42.7048 43.4859 43.3125 44.0937 44.0599 44.0937H45.415V46.8039H44.0599V63.0653H42.7048V64.4204H39.8699C39.6652 63.8465 39.2133 63.3946 38.6394 63.19V60.3551H37.2843V63.19C36.4977 63.4705 35.9292 64.2158 35.9292 65.098C35.9292 65.9801 36.4977 66.7255 37.2843 67.006V69.8409H38.6394V67.006C39.2133 66.8013 39.6652 66.3494 39.8699 65.7755H42.7048V67.1306H44.0599V71.196H41.3497V75.2613H44.2083L44.8858 77.9715H51.3646L52.0422 75.2613H67.2452L67.9228 77.9715H74.4016L75.0791 75.2613H77.9377V71.196H76.5142C76.1991 69.6518 74.8305 68.4857 73.1948 68.4857ZM37.9619 65.7755C37.5885 65.7755 37.2843 65.472 37.2843 65.098C37.2843 64.724 37.5885 64.4204 37.9619 64.4204C38.3352 64.4204 38.6394 64.724 38.6394 65.098C38.6394 65.472 38.3352 65.7755 37.9619 65.7755ZM63.709 69.8409H73.1948C74.077 69.8409 74.8223 70.4093 75.1028 71.196H61.801C62.0815 70.4093 62.8269 69.8409 63.709 69.8409ZM60.9988 54.9346C60.6255 54.9346 60.3213 54.6311 60.3213 54.2571C60.3213 53.883 60.6255 53.5795 60.9988 53.5795C61.3721 53.5795 61.6764 53.883 61.6764 54.2571C61.6764 54.6311 61.3721 54.9346 60.9988 54.9346ZM67.7744 63.0653H65.0641V60.3551H67.7744V63.0653ZM63.709 59V54.9346H65.1326C65.4476 56.4788 66.8156 57.6448 68.4519 57.6448C70.0882 57.6448 71.4562 56.4788 71.7713 54.9346H73.1948V59H63.709ZM66.4193 54.2571C66.4193 53.1364 67.3313 52.2244 68.4519 52.2244C69.5726 52.2244 70.4846 53.1364 70.4846 54.2571C70.4846 55.3777 69.5726 56.2897 68.4519 56.2897C67.3313 56.2897 66.4193 55.3777 66.4193 54.2571ZM75.9051 53.5795C76.2784 53.5795 76.5826 53.883 76.5826 54.2571C76.5826 54.6311 76.2784 54.9346 75.9051 54.9346C75.5317 54.9346 75.2275 54.6311 75.2275 54.2571C75.2275 53.883 75.5317 53.5795 75.9051 53.5795ZM65.0641 42.061C65.0641 41.687 65.3684 41.3835 65.7417 41.3835H71.1622C71.5355 41.3835 71.8397 41.687 71.8397 42.061V42.7386H65.0641V42.061ZM66.4193 44.0937H70.4846V45.4488H66.4193V44.0937ZM73.1948 46.8039V53.5795H71.7713C71.4562 52.0353 70.0882 50.8693 68.4519 50.8693C66.8156 50.8693 65.4476 52.0353 65.1326 53.5795H63.709V46.8039H73.1948ZM62.3539 47.7552V52.7536C61.9935 52.4283 61.5212 52.2251 60.9988 52.2251C60.391 52.2251 59.8503 52.4988 59.4777 52.9236L52.1906 54.7449V50.7012L62.3539 47.7552ZM46.7701 37.9957C46.7701 37.6217 47.0743 37.3181 47.4477 37.3181H48.8028C49.1761 37.3181 49.4803 37.6217 49.4803 37.9957V40.0284H46.7701V37.9957ZM44.0599 41.3835H52.1906L52.1912 42.7386H44.0599V41.3835ZM46.7701 44.0937H49.4803V46.8039H46.7701V44.0937ZM45.415 48.159H50.8355V63.0653H45.415V48.159ZM44.0599 64.4204H52.1906V65.7755H44.0599V64.4204ZM45.415 67.1306H50.8355V71.196H45.415V67.1306ZM50.3063 76.6164H45.9442L45.6054 75.2613H50.6451L50.3063 76.6164ZM73.3432 76.6164H68.9811L68.6423 75.2613H73.682L73.3432 76.6164ZM76.5826 73.9062H42.7048V72.5511H76.5826V73.9062Z" fill="#07A7D8"/>
<path d="M68.4519 54.9346C68.8261 54.9346 69.1295 54.6313 69.1295 54.2571C69.1295 53.8828 68.8261 53.5795 68.4519 53.5795C68.0777 53.5795 67.7744 53.8828 67.7744 54.2571C67.7744 54.6313 68.0777 54.9346 68.4519 54.9346Z" fill="#07A7D8"/>
<path d="M66.4193 48.159H65.0641V49.5142H66.4193V48.159Z" fill="#07A7D8"/>
<path d="M69.1295 48.159H67.7744V49.5142H69.1295V48.159Z" fill="#07A7D8"/>
<path d="M71.8397 48.159H70.4846V49.5142H71.8397V48.159Z" fill="#07A7D8"/>
</g>
<path d="M73.1948 68.4857H63.709C62.0734 68.4857 60.7047 69.6518 60.3897 71.196H52.1906V67.1306H53.5457V63.0653H52.1906V56.1407L58.9851 54.442C59.08 55.4753 59.9411 56.2897 60.9988 56.2897C61.5212 56.2897 61.9935 56.0858 62.3539 55.7612V60.3551H63.709V64.4204H65.7417V67.1306H67.0968V64.4204H69.1295V60.3551H74.5499V55.7612C74.9104 56.0865 75.3827 56.2897 75.9051 56.2897C77.0257 56.2897 77.9377 55.3777 77.9377 54.2571C77.9377 53.1364 77.0257 52.2244 75.9051 52.2244C75.3827 52.2244 74.9104 52.4283 74.5499 52.7529V45.4488H71.8397V44.0937H73.1948V42.061C73.1948 40.9403 72.2828 40.0284 71.1622 40.0284H65.7417C64.621 40.0284 63.709 40.9403 63.709 42.061V44.0937H65.0641V45.4488H62.3539V46.3432L52.1906 49.2892V46.8039H50.8355V44.0937H52.1906C52.9379 44.0937 53.5457 43.4859 53.5457 42.7386V41.3835C53.5457 40.6361 52.9379 40.0284 52.1906 40.0284H50.8355V37.9957C50.8355 36.875 49.9235 35.963 48.8028 35.963H47.4477C46.327 35.963 45.415 36.875 45.415 37.9957V40.0284H44.0599C43.3125 40.0284 42.7048 40.6361 42.7048 41.3835V42.7386C42.7048 43.4859 43.3125 44.0937 44.0599 44.0937H45.415V46.8039H44.0599V63.0653H42.7048V64.4204H39.8699C39.6652 63.8465 39.2133 63.3946 38.6394 63.19V60.3551H37.2843V63.19C36.4977 63.4705 35.9292 64.2158 35.9292 65.098C35.9292 65.9801 36.4977 66.7255 37.2843 67.006V69.8409H38.6394V67.006C39.2133 66.8013 39.6652 66.3494 39.8699 65.7755H42.7048V67.1306H44.0599V71.196H41.3497V75.2613H44.2083L44.8858 77.9715H51.3646L52.0422 75.2613H67.2452L67.9228 77.9715H74.4016L75.0791 75.2613H77.9377V71.196H76.5142C76.1991 69.6518 74.8305 68.4857 73.1948 68.4857ZM37.9619 65.7755C37.5885 65.7755 37.2843 65.472 37.2843 65.098C37.2843 64.724 37.5885 64.4204 37.9619 64.4204C38.3352 64.4204 38.6394 64.724 38.6394 65.098C38.6394 65.472 38.3352 65.7755 37.9619 65.7755ZM63.709 69.8409H73.1948C74.077 69.8409 74.8223 70.4093 75.1028 71.196H61.801C62.0815 70.4093 62.8269 69.8409 63.709 69.8409ZM60.9988 54.9346C60.6255 54.9346 60.3213 54.6311 60.3213 54.2571C60.3213 53.883 60.6255 53.5795 60.9988 53.5795C61.3721 53.5795 61.6764 53.883 61.6764 54.2571C61.6764 54.6311 61.3721 54.9346 60.9988 54.9346ZM67.7744 63.0653H65.0641V60.3551H67.7744V63.0653ZM63.709 59V54.9346H65.1326C65.4476 56.4788 66.8156 57.6448 68.4519 57.6448C70.0882 57.6448 71.4562 56.4788 71.7713 54.9346H73.1948V59H63.709ZM66.4193 54.2571C66.4193 53.1364 67.3313 52.2244 68.4519 52.2244C69.5726 52.2244 70.4846 53.1364 70.4846 54.2571C70.4846 55.3777 69.5726 56.2897 68.4519 56.2897C67.3313 56.2897 66.4193 55.3777 66.4193 54.2571ZM75.9051 53.5795C76.2784 53.5795 76.5826 53.883 76.5826 54.2571C76.5826 54.6311 76.2784 54.9346 75.9051 54.9346C75.5317 54.9346 75.2275 54.6311 75.2275 54.2571C75.2275 53.883 75.5317 53.5795 75.9051 53.5795ZM65.0641 42.061C65.0641 41.687 65.3684 41.3835 65.7417 41.3835H71.1622C71.5355 41.3835 71.8397 41.687 71.8397 42.061V42.7386H65.0641V42.061ZM66.4193 44.0937H70.4846V45.4488H66.4193V44.0937ZM73.1948 46.8039V53.5795H71.7713C71.4562 52.0353 70.0882 50.8693 68.4519 50.8693C66.8156 50.8693 65.4476 52.0353 65.1326 53.5795H63.709V46.8039H73.1948ZM62.3539 47.7552V52.7536C61.9935 52.4283 61.5212 52.2251 60.9988 52.2251C60.391 52.2251 59.8503 52.4988 59.4777 52.9236L52.1906 54.7449V50.7012L62.3539 47.7552ZM46.7701 37.9957C46.7701 37.6217 47.0743 37.3181 47.4477 37.3181H48.8028C49.1761 37.3181 49.4803 37.6217 49.4803 37.9957V40.0284H46.7701V37.9957ZM44.0599 41.3835H52.1906L52.1912 42.7386H44.0599V41.3835ZM46.7701 44.0937H49.4803V46.8039H46.7701V44.0937ZM45.415 48.159H50.8355V63.0653H45.415V48.159ZM44.0599 64.4204H52.1906V65.7755H44.0599V64.4204ZM45.415 67.1306H50.8355V71.196H45.415V67.1306ZM50.3063 76.6164H45.9442L45.6054 75.2613H50.6451L50.3063 76.6164ZM73.3432 76.6164H68.9811L68.6423 75.2613H73.682L73.3432 76.6164ZM76.5826 73.9062H42.7048V72.5511H76.5826V73.9062Z" fill="white"/>
<path d="M68.4519 54.9346C68.8261 54.9346 69.1295 54.6313 69.1295 54.2571C69.1295 53.8828 68.8261 53.5795 68.4519 53.5795C68.0777 53.5795 67.7744 53.8828 67.7744 54.2571C67.7744 54.6313 68.0777 54.9346 68.4519 54.9346Z" fill="white"/>
<path d="M66.4193 48.159H65.0641V49.5142H66.4193V48.159Z" fill="white"/>
<path d="M69.1295 48.159H67.7744V49.5142H69.1295V48.159Z" fill="white"/>
<path d="M71.8397 48.159H70.4846V49.5142H71.8397V48.159Z" fill="white"/>
<g filter="url(#filter1_f)">
<circle cx="56.9336" cy="56.9673" r="49.5" stroke="#38A7C9"/>
</g>
<circle cx="56.9336" cy="56.9673" r="49.5" stroke="white"/>
<defs>
<filter id="filter0_f" x="29.9292" y="29.963" width="54.0085" height="54.0085" filterUnits="userSpaceOnUse" color-interpolation-filters="sRGB">
<feFlood flood-opacity="0" result="BackgroundImageFix"/>
<feBlend mode="normal" in="SourceGraphic" in2="BackgroundImageFix" result="shape"/>
<feGaussianBlur stdDeviation="3" result="effect1_foregroundBlur"/>
</filter>
<filter id="filter1_f" x="0.933594" y="0.967285" width="112" height="112" filterUnits="userSpaceOnUse" color-interpolation-filters="sRGB">
<feFlood flood-opacity="0" result="BackgroundImageFix"/>
<feBlend mode="normal" in="SourceGraphic" in2="BackgroundImageFix" result="shape"/>
<feGaussianBlur stdDeviation="3" result="effect1_foregroundBlur"/>
</filter>
</defs>
</svg>
