<svg width="33" height="33" viewBox="0 0 33 33" fill="none" xmlns="http://www.w3.org/2000/svg">
<g filter="url(#filter0_d)">
<path d="M16.5 7C14.6211 7 12.7844 7.55717 11.2221 8.60104C9.65982 9.64491 8.44218 11.1286 7.72315 12.8645C7.00412 14.6004 6.81598 16.5105 7.18254 18.3534C7.5491 20.1962 8.45389 21.8889 9.78249 23.2175C11.1111 24.5461 12.8038 25.4509 14.6466 25.8175C16.4895 26.184 18.3996 25.9959 20.1355 25.2769C21.8714 24.5578 23.3551 23.3402 24.399 21.7779C25.4428 20.2156 26 18.3789 26 16.5C26 13.9804 24.9991 11.5641 23.2175 9.78248C21.4359 8.00089 19.0196 7 16.5 7ZM16.5 24.6429C14.8895 24.6429 13.3152 24.1653 11.9761 23.2705C10.637 22.3758 9.5933 21.104 8.97698 19.6161C8.36067 18.1282 8.19942 16.491 8.51361 14.9114C8.8278 13.3318 9.60334 11.8809 10.7421 10.7421C11.8809 9.60333 13.3319 8.8278 14.9114 8.51361C16.491 8.19941 18.1282 8.36067 19.6161 8.97698C21.104 9.59329 22.3758 10.637 23.2705 11.9761C24.1653 13.3152 24.6429 14.8895 24.6429 16.5C24.6429 18.6596 23.785 20.7308 22.2579 22.2579C20.7308 23.7849 18.6596 24.6429 16.5 24.6429ZM21.1754 18.8411C21.119 18.953 21.0327 19.0471 20.9261 19.113C20.8195 19.1788 20.6967 19.2139 20.5714 19.2143C20.465 19.2156 20.3599 19.1899 20.2661 19.1396L16.1946 17.1039C16.0827 17.0475 15.9886 16.9613 15.9228 16.8547C15.8569 16.7481 15.8218 16.6253 15.8214 16.5V10.3929C15.8214 10.2129 15.8929 10.0403 16.0202 9.91303C16.1474 9.78578 16.32 9.71429 16.5 9.71429C16.68 9.71429 16.8526 9.78578 16.9798 9.91303C17.1071 10.0403 17.1786 10.2129 17.1786 10.3929V16.0793L20.8768 17.9318C21.0366 18.0131 21.1577 18.1544 21.2137 18.3248C21.2696 18.4952 21.2558 18.6808 21.1754 18.8411Z" fill="white"/>
</g>
<defs>
<filter id="filter0_d" x="0" y="0" width="33" height="33" filterUnits="userSpaceOnUse" color-interpolation-filters="sRGB">
<feFlood flood-opacity="0" result="BackgroundImageFix"/>
<feColorMatrix in="SourceAlpha" type="matrix" values="0 0 0 0 0 0 0 0 0 0 0 0 0 0 0 0 0 0 127 0"/>
<feOffset/>
<feGaussianBlur stdDeviation="3.5"/>
<feColorMatrix type="matrix" values="0 0 0 0 0 0 0 0 0 0.765517 0 0 0 0 1 0 0 0 1 0"/>
<feBlend mode="normal" in2="BackgroundImageFix" result="effect1_dropShadow"/>
<feBlend mode="normal" in="SourceGraphic" in2="effect1_dropShadow" result="shape"/>
</filter>
</defs>
</svg>
