<svg width="254" height="88" viewBox="0 0 254 88" fill="none" xmlns="http://www.w3.org/2000/svg">
<path d="M39.9844 86.5381H20.1797V23.4912L0.726562 29.1748V14.1748L38.168 1.22559H39.9844V86.5381Z" fill="url(#paint0_linear)"/>
<path d="M122.545 51.6748C122.545 63.1982 119.948 72.085 114.752 78.335C109.596 84.585 102.311 87.71 92.8969 87.71C83.4047 87.71 76.0609 84.5654 70.8656 78.2764C65.6703 71.9873 63.0727 63.1201 63.0727 51.6748V36.0889C63.0727 24.5654 65.6508 15.6787 70.807 9.42871C76.0023 3.17871 83.3266 0.0537109 92.7797 0.0537109C102.233 0.0537109 109.557 3.19824 114.752 9.4873C119.948 15.7764 122.545 24.6631 122.545 36.1475V51.6748ZM102.799 33.5693C102.799 27.4365 101.998 22.8662 100.397 19.8584C98.7953 16.8115 96.2562 15.2881 92.7797 15.2881C89.3812 15.2881 86.9008 16.6943 85.3383 19.5068C83.8148 22.3193 82.9945 26.5771 82.8773 32.2803V54.0771C82.8773 60.4443 83.6781 65.1123 85.2797 68.0811C86.8812 71.0107 89.4203 72.4756 92.8969 72.4756C96.2562 72.4756 98.7367 71.0498 100.338 68.1982C101.94 65.3076 102.76 60.7959 102.799 54.6631V33.5693Z" fill="url(#paint1_linear)"/>
<path d="M189.637 51.6748C189.637 63.1982 187.04 72.085 181.845 78.335C176.688 84.585 169.403 87.71 159.989 87.71C150.497 87.71 143.153 84.5654 137.958 78.2764C132.762 71.9873 130.165 63.1201 130.165 51.6748V36.0889C130.165 24.5654 132.743 15.6787 137.899 9.42871C143.095 3.17871 150.419 0.0537109 159.872 0.0537109C169.325 0.0537109 176.649 3.19824 181.845 9.4873C187.04 15.7764 189.637 24.6631 189.637 36.1475V51.6748ZM169.891 33.5693C169.891 27.4365 169.091 22.8662 167.489 19.8584C165.887 16.8115 163.348 15.2881 159.872 15.2881C156.473 15.2881 153.993 16.6943 152.43 19.5068C150.907 22.3193 150.087 26.5771 149.97 32.2803V54.0771C149.97 60.4443 150.77 65.1123 152.372 68.0811C153.973 71.0107 156.512 72.4756 159.989 72.4756C163.348 72.4756 165.829 71.0498 167.43 68.1982C169.032 65.3076 169.852 60.7959 169.891 54.6631V33.5693Z" fill="url(#paint2_linear)"/>
<path d="M233.409 38.1396H253.39V55.0732H233.409V77.9834H214.952V55.0732H194.913V38.1396H214.952V15.874H233.409V38.1396Z" fill="url(#paint3_linear)"/>
<defs>
<linearGradient id="paint0_linear" x1="127.058" y1="0.0537109" x2="127.058" y2="87.71" gradientUnits="userSpaceOnUse">
<stop stop-color="#074167"/>
<stop offset="1" stop-color="#022031"/>
</linearGradient>
<linearGradient id="paint1_linear" x1="127.058" y1="0.0537109" x2="127.058" y2="87.71" gradientUnits="userSpaceOnUse">
<stop stop-color="#074167"/>
<stop offset="1" stop-color="#022031"/>
</linearGradient>
<linearGradient id="paint2_linear" x1="127.058" y1="0.0537109" x2="127.058" y2="87.71" gradientUnits="userSpaceOnUse">
<stop stop-color="#074167"/>
<stop offset="1" stop-color="#022031"/>
</linearGradient>
<linearGradient id="paint3_linear" x1="127.058" y1="0.0537109" x2="127.058" y2="87.71" gradientUnits="userSpaceOnUse">
<stop stop-color="#074167"/>
<stop offset="1" stop-color="#022031"/>
</linearGradient>
</defs>
</svg>
