<svg width="187" height="87" viewBox="0 0 187 87" fill="none" xmlns="http://www.w3.org/2000/svg">
<path d="M39.9844 85.5381H20.1797V22.4912L0.726562 28.1748V13.1748L38.168 0.225586H39.9844V85.5381Z" fill="url(#paint0_linear)"/>
<path d="M64.4789 43.8193L69.6937 0.225586H119.557V15.5771H85.7484L83.8148 32.5107C85.2211 31.6904 87.057 30.9678 89.3227 30.3428C91.6273 29.7178 93.8734 29.4053 96.0609 29.4053C104.537 29.4053 111.041 31.9248 115.573 36.9639C120.143 41.9639 122.428 48.9951 122.428 58.0576C122.428 63.5264 121.198 68.4873 118.737 72.9404C116.315 77.3545 112.897 80.7529 108.483 83.1357C104.069 85.5186 98.8539 86.71 92.8383 86.71C87.4867 86.71 82.4672 85.6162 77.7797 83.4287C73.0922 81.2021 69.4203 78.1748 66.7641 74.3467C64.1078 70.4795 62.7992 66.124 62.8383 61.2803H82.643C82.8383 64.4053 83.8344 66.8857 85.6312 68.7217C87.4281 70.5576 89.7914 71.4756 92.7211 71.4756C99.3617 71.4756 102.682 66.5537 102.682 56.71C102.682 47.6084 98.6195 43.0576 90.4945 43.0576C85.8852 43.0576 82.4477 44.542 80.182 47.5107L64.4789 43.8193Z" fill="url(#paint1_linear)"/>
<path d="M166.317 37.1396H186.298V54.0732H166.317V76.9834H147.86V54.0732H127.821V37.1396H147.86V14.874H166.317V37.1396Z" fill="url(#paint2_linear)"/>
<defs>
<linearGradient id="paint0_linear" x1="93.5121" y1="0.225586" x2="93.5121" y2="86.71" gradientUnits="userSpaceOnUse">
<stop stop-color="#074167"/>
<stop offset="1" stop-color="#022031"/>
</linearGradient>
<linearGradient id="paint1_linear" x1="93.5121" y1="0.225586" x2="93.5121" y2="86.71" gradientUnits="userSpaceOnUse">
<stop stop-color="#074167"/>
<stop offset="1" stop-color="#022031"/>
</linearGradient>
<linearGradient id="paint2_linear" x1="93.5121" y1="0.225586" x2="93.5121" y2="86.71" gradientUnits="userSpaceOnUse">
<stop stop-color="#074167"/>
<stop offset="1" stop-color="#022031"/>
</linearGradient>
</defs>
</svg>
