<svg width="193" height="89" viewBox="0 0 193 89" fill="none" xmlns="http://www.w3.org/2000/svg">
<path d="M61.7461 87.5381H2.21484V74.6475L29.6367 45.8193C36.3945 38.124 39.7734 32.0107 39.7734 27.4795C39.7734 23.8076 38.9727 21.0146 37.3711 19.1006C35.7695 17.1865 33.4453 16.2295 30.3984 16.2295C27.3906 16.2295 24.9492 17.5186 23.0742 20.0967C21.1992 22.6357 20.2617 25.8193 20.2617 29.6475H0.457031C0.457031 24.4131 1.76562 19.5889 4.38281 15.1748C7 10.7217 10.6328 7.24512 15.2812 4.74512C19.9297 2.24512 25.125 0.995117 30.8672 0.995117C40.0859 0.995117 47.1758 3.12402 52.1367 7.38184C57.1367 11.6396 59.6367 17.7529 59.6367 25.7217C59.6367 29.0811 59.0117 32.3623 57.7617 35.5654C56.5117 38.7295 54.5586 42.0693 51.9023 45.585C49.2852 49.0615 45.0469 53.7295 39.1875 59.5889L28.1719 72.3037H61.7461V87.5381Z" fill="url(#paint0_linear)"/>
<path d="M70.4789 45.8193L75.6937 2.22559H125.557V17.5771H91.7484L89.8148 34.5107C91.2211 33.6904 93.057 32.9678 95.3227 32.3428C97.6273 31.7178 99.8734 31.4053 102.061 31.4053C110.537 31.4053 117.041 33.9248 121.573 38.9639C126.143 43.9639 128.428 50.9951 128.428 60.0576C128.428 65.5264 127.198 70.4873 124.737 74.9404C122.315 79.3545 118.897 82.7529 114.483 85.1357C110.069 87.5186 104.854 88.71 98.8383 88.71C93.4867 88.71 88.4672 87.6162 83.7797 85.4287C79.0922 83.2021 75.4203 80.1748 72.7641 76.3467C70.1078 72.4795 68.7992 68.124 68.8383 63.2803H88.643C88.8383 66.4053 89.8344 68.8857 91.6312 70.7217C93.4281 72.5576 95.7914 73.4756 98.7211 73.4756C105.362 73.4756 108.682 68.5537 108.682 58.71C108.682 49.6084 104.62 45.0576 96.4945 45.0576C91.8852 45.0576 88.4477 46.542 86.182 49.5107L70.4789 45.8193Z" fill="url(#paint1_linear)"/>
<path d="M172.317 39.1396H192.298V56.0732H172.317V78.9834H153.86V56.0732H133.821V39.1396H153.86V16.874H172.317V39.1396Z" fill="url(#paint2_linear)"/>
<defs>
<linearGradient id="paint0_linear" x1="96.3773" y1="0.995117" x2="96.3773" y2="88.71" gradientUnits="userSpaceOnUse">
<stop stop-color="#074167"/>
<stop offset="1" stop-color="#022031"/>
</linearGradient>
<linearGradient id="paint1_linear" x1="96.3773" y1="0.995117" x2="96.3773" y2="88.71" gradientUnits="userSpaceOnUse">
<stop stop-color="#074167"/>
<stop offset="1" stop-color="#022031"/>
</linearGradient>
<linearGradient id="paint2_linear" x1="96.3773" y1="0.995117" x2="96.3773" y2="88.71" gradientUnits="userSpaceOnUse">
<stop stop-color="#074167"/>
<stop offset="1" stop-color="#022031"/>
</linearGradient>
</defs>
</svg>
