<svg width="261" height="89" viewBox="0 0 261 89" fill="none" xmlns="http://www.w3.org/2000/svg">
<path d="M21.2617 36.6201H30.5781C37.9609 36.6201 41.6523 33.0068 41.6523 25.7803C41.6523 22.9678 40.7734 20.6826 39.0156 18.9248C37.2578 17.1279 34.7773 16.2295 31.5742 16.2295C28.957 16.2295 26.6719 16.9912 24.7188 18.5146C22.8047 20.0381 21.8477 21.9326 21.8477 24.1982H2.10156C2.10156 19.7061 3.35156 15.7021 5.85156 12.1865C8.35156 8.6709 11.8086 5.93652 16.2227 3.9834C20.6758 1.99121 25.5586 0.995117 30.8711 0.995117C40.3633 0.995117 47.8242 3.16309 53.2539 7.49902C58.6836 11.835 61.3984 17.792 61.3984 25.3701C61.3984 29.042 60.2656 32.5186 58 35.7998C55.7734 39.042 52.5117 41.6787 48.2148 43.71C52.7461 45.3506 56.3008 47.8506 58.8789 51.21C61.457 54.5303 62.7461 58.6514 62.7461 63.5732C62.7461 71.1904 59.8164 77.2842 53.957 81.8545C48.0977 86.4248 40.4023 88.71 30.8711 88.71C25.2852 88.71 20.0898 87.6553 15.2852 85.5459C10.5195 83.3975 6.90625 80.4482 4.44531 76.6982C1.98438 72.9092 0.753906 68.6123 0.753906 63.8076H20.6172C20.6172 66.4248 21.6719 68.6904 23.7812 70.6045C25.8906 72.5186 28.4883 73.4756 31.5742 73.4756C35.0508 73.4756 37.8242 72.5186 39.8945 70.6045C41.9648 68.6514 43 66.1709 43 63.1631C43 58.8662 41.9258 55.8193 39.7773 54.0225C37.6289 52.2256 34.6602 51.3271 30.8711 51.3271H21.2617V36.6201Z" fill="url(#paint0_linear)"/>
<path d="M129.545 52.6748C129.545 64.1982 126.948 73.085 121.752 79.335C116.596 85.585 109.311 88.71 99.8969 88.71C90.4047 88.71 83.0609 85.5654 77.8656 79.2764C72.6703 72.9873 70.0727 64.1201 70.0727 52.6748V37.0889C70.0727 25.5654 72.6508 16.6787 77.807 10.4287C83.0023 4.17871 90.3266 1.05371 99.7797 1.05371C109.233 1.05371 116.557 4.19824 121.752 10.4873C126.948 16.7764 129.545 25.6631 129.545 37.1475V52.6748ZM109.799 34.5693C109.799 28.4365 108.998 23.8662 107.397 20.8584C105.795 17.8115 103.256 16.2881 99.7797 16.2881C96.3812 16.2881 93.9008 17.6943 92.3383 20.5068C90.8148 23.3193 89.9945 27.5771 89.8773 33.2803V55.0771C89.8773 61.4443 90.6781 66.1123 92.2797 69.0811C93.8812 72.0107 96.4203 73.4756 99.8969 73.4756C103.256 73.4756 105.737 72.0498 107.338 69.1982C108.94 66.3076 109.76 61.7959 109.799 55.6631V34.5693Z" fill="url(#paint1_linear)"/>
<path d="M196.637 52.6748C196.637 64.1982 194.04 73.085 188.845 79.335C183.688 85.585 176.403 88.71 166.989 88.71C157.497 88.71 150.153 85.5654 144.958 79.2764C139.762 72.9873 137.165 64.1201 137.165 52.6748V37.0889C137.165 25.5654 139.743 16.6787 144.899 10.4287C150.095 4.17871 157.419 1.05371 166.872 1.05371C176.325 1.05371 183.649 4.19824 188.845 10.4873C194.04 16.7764 196.637 25.6631 196.637 37.1475V52.6748ZM176.891 34.5693C176.891 28.4365 176.091 23.8662 174.489 20.8584C172.887 17.8115 170.348 16.2881 166.872 16.2881C163.473 16.2881 160.993 17.6943 159.43 20.5068C157.907 23.3193 157.087 27.5771 156.97 33.2803V55.0771C156.97 61.4443 157.77 66.1123 159.372 69.0811C160.973 72.0107 163.512 73.4756 166.989 73.4756C170.348 73.4756 172.829 72.0498 174.43 69.1982C176.032 66.3076 176.852 61.7959 176.891 55.6631V34.5693Z" fill="url(#paint2_linear)"/>
<path d="M240.409 39.1396H260.39V56.0732H240.409V78.9834H221.952V56.0732H201.913V39.1396H221.952V16.874H240.409V39.1396Z" fill="url(#paint3_linear)"/>
<defs>
<linearGradient id="paint0_linear" x1="130.572" y1="0.995117" x2="130.572" y2="88.71" gradientUnits="userSpaceOnUse">
<stop stop-color="#074167"/>
<stop offset="1" stop-color="#022031"/>
</linearGradient>
<linearGradient id="paint1_linear" x1="130.572" y1="0.995117" x2="130.572" y2="88.71" gradientUnits="userSpaceOnUse">
<stop stop-color="#074167"/>
<stop offset="1" stop-color="#022031"/>
</linearGradient>
<linearGradient id="paint2_linear" x1="130.572" y1="0.995117" x2="130.572" y2="88.71" gradientUnits="userSpaceOnUse">
<stop stop-color="#074167"/>
<stop offset="1" stop-color="#022031"/>
</linearGradient>
<linearGradient id="paint3_linear" x1="130.572" y1="0.995117" x2="130.572" y2="88.71" gradientUnits="userSpaceOnUse">
<stop stop-color="#074167"/>
<stop offset="1" stop-color="#022031"/>
</linearGradient>
</defs>
</svg>
