<svg width="113" height="113" viewBox="0 0 113 113" fill="none" xmlns="http://www.w3.org/2000/svg">
<g filter="url(#filter0_f)">
<circle cx="56.9668" cy="56.6211" r="49.5" stroke="#38A7C9"/>
</g>
<g filter="url(#filter1_f)">
<circle r="50" transform="matrix(1 0 -2.58096e-08 -1 56.9667 56.621)" fill="url(#paint0_linear)"/>
<circle r="49.5" transform="matrix(1 0 -2.58096e-08 -1 56.9667 56.621)" stroke="#38A7C9"/>
</g>
<circle cx="56.9668" cy="56.6211" r="49.5" stroke="white"/>
<g filter="url(#filter2_f)">
<path d="M73.7306 63.3159H72.3755V64.671H73.7306V63.3159Z" fill="#07A7D8"/>
<path d="M71.0204 63.3159H69.6653V64.671H71.0204V63.3159Z" fill="#07A7D8"/>
<path d="M68.3102 63.3159H66.955V64.671H68.3102V63.3159Z" fill="#07A7D8"/>
<path d="M70.3428 70.0915C70.5225 70.0915 70.6949 70.0201 70.8219 69.893C70.949 69.766 71.0204 69.5936 71.0204 69.4139V67.3812H73.7306C74.6288 67.3802 75.4898 67.0229 76.1249 66.3878C76.76 65.7527 77.1173 64.8916 77.1184 63.9935V39.6014C77.1173 38.7032 76.76 37.8422 76.1249 37.2071C75.4898 36.572 74.6288 36.2147 73.7306 36.2136H38.4976C37.5995 36.2147 36.7384 36.572 36.1033 37.2071C35.4682 37.8422 35.1109 38.7032 35.1099 39.6014V63.9935C35.1109 64.8916 35.4682 65.7527 36.1033 66.3878C36.7384 67.0229 37.5995 67.3802 38.4976 67.3812H50.0161V72.8017H49.3386C48.7995 72.8017 48.2824 73.0159 47.9012 73.3971C47.52 73.7783 47.3059 74.2953 47.3059 74.8344V77.5446C47.3059 77.7243 47.3773 77.8966 47.5043 78.0237C47.6314 78.1508 47.8037 78.2222 47.9834 78.2222H64.2448C64.4245 78.2222 64.5969 78.1508 64.7239 78.0237C64.851 77.8966 64.9224 77.7243 64.9224 77.5446V74.8344C64.9224 74.2953 64.7082 73.7783 64.327 73.3971C63.9458 73.0159 63.4288 72.8017 62.8897 72.8017H62.2121V67.3812H66.955V69.4139C66.955 69.5936 67.0264 69.766 67.1535 69.893C67.2806 70.0201 67.4529 70.0915 67.6326 70.0915H68.3102V74.8344C68.3112 75.7325 68.6685 76.5936 69.3036 77.2287C69.9387 77.8638 70.7998 78.2211 71.6979 78.2222H77.1184V76.867H71.6979C71.1588 76.867 70.6418 76.6529 70.2606 76.2717C69.8794 75.8905 69.6653 75.3735 69.6653 74.8344V70.0915H70.3428ZM38.4976 37.5687H73.7306C74.2697 37.5687 74.7867 37.7829 75.1679 38.1641C75.5491 38.5453 75.7633 39.0623 75.7633 39.6014V60.6057H70.3428V56.5403H71.0204C71.2001 56.5403 71.3724 56.4689 71.4995 56.3419C71.6266 56.2148 71.6979 56.0425 71.6979 55.8628V53.1525C71.6979 52.9728 71.6266 52.8005 71.4995 52.6734C71.3724 52.5464 71.2001 52.475 71.0204 52.475H64.2448C64.0651 52.475 63.8928 52.5464 63.7657 52.6734C63.6386 52.8005 63.5673 52.9728 63.5673 53.1525V55.8628C63.5673 56.0425 63.6386 56.2148 63.7657 56.3419C63.8928 56.4689 64.0651 56.5403 64.2448 56.5403H64.9224V60.6057H60.857V56.5403H61.5346C61.7143 56.5403 61.8866 56.4689 62.0137 56.3419C62.1408 56.2148 62.2121 56.0425 62.2121 55.8628V53.1525C62.2121 52.9728 62.1408 52.8005 62.0137 52.6734C61.8866 52.5464 61.7143 52.475 61.5346 52.475H54.759C54.5793 52.475 54.407 52.5464 54.2799 52.6734C54.1528 52.8005 54.0815 52.9728 54.0815 53.1525V55.8628C54.0815 56.0425 54.1528 56.2148 54.2799 56.3419C54.407 56.4689 54.5793 56.5403 54.759 56.5403H55.4366V60.6057H36.465V39.6014C36.465 39.0623 36.6791 38.5453 37.0603 38.1641C37.4415 37.7829 37.9586 37.5687 38.4976 37.5687ZM64.9224 55.1852V53.8301H70.3428V55.1852H64.9224ZM68.9877 56.5403V60.6057H66.2775V56.5403H68.9877ZM55.4366 55.1852V53.8301H60.857V55.1852H55.4366ZM59.5019 56.5403V60.6057H56.7917V56.5403H59.5019ZM36.465 63.9935V61.9608H75.7633V63.9935C75.7633 64.5326 75.5491 65.0496 75.1679 65.4308C74.7867 65.812 74.2697 66.0261 73.7306 66.0261H38.4976C37.9586 66.0261 37.4415 65.812 37.0603 65.4308C36.6791 65.0496 36.465 64.5326 36.465 63.9935ZM63.5673 74.8344V76.867H48.661V74.8344C48.661 74.6547 48.7324 74.4823 48.8595 74.3553C48.9865 74.2282 49.1589 74.1568 49.3386 74.1568H62.8897C63.0694 74.1568 63.2417 74.2282 63.3688 74.3553C63.4959 74.4823 63.5673 74.6547 63.5673 74.8344ZM60.857 72.8017H51.3712V67.3812H60.857V72.8017ZM69.6653 67.3812V68.7364H68.3102V67.3812H69.6653Z" fill="#07A7D8"/>
<path d="M40.5303 51.1199C41.0273 51.1171 41.5138 50.9764 41.9356 50.7133L46.8038 55.0409C46.5999 55.4875 46.5608 55.992 46.6936 56.4647C46.8264 56.9375 47.1224 57.3478 47.5292 57.6229C47.9359 57.898 48.4269 58.02 48.9151 57.9673C49.4033 57.9146 49.857 57.6906 50.1956 57.335C50.5342 56.9795 50.7359 56.5154 50.7647 56.0252C50.7936 55.5351 50.6477 55.0505 50.3531 54.6577C50.0585 54.2649 49.6342 53.9892 49.1556 53.8796C48.677 53.77 48.175 53.8336 47.7388 54.0591L42.8774 49.737C43.1187 49.3276 43.2442 48.8603 43.2405 48.3851C43.2368 47.9098 43.104 47.4446 42.8564 47.039L45.7577 44.141C46.0288 44.2736 46.3265 44.3431 46.6283 44.3443C47.0304 44.3443 47.4234 44.2251 47.7576 44.0017C48.0919 43.7784 48.3524 43.4609 48.5063 43.0895C48.6601 42.7181 48.7004 42.3094 48.6219 41.9151C48.5435 41.5208 48.3499 41.1586 48.0656 40.8743C47.7814 40.59 47.4192 40.3965 47.0249 40.318C46.6306 40.2396 46.2219 40.2798 45.8505 40.4337C45.479 40.5875 45.1616 40.8481 44.9382 41.1823C44.7149 41.5166 44.5957 41.9096 44.5957 42.3116C44.5968 42.6135 44.6663 42.9111 44.7989 43.1823L41.8976 46.0836C41.4848 45.8346 41.0124 45.7019 40.5303 45.6994C39.8115 45.6994 39.1222 45.985 38.6139 46.4932C38.1056 47.0015 37.8201 47.6909 37.8201 48.4096C37.8201 49.1284 38.1056 49.8178 38.6139 50.3261C39.1222 50.8343 39.8115 51.1199 40.5303 51.1199ZM49.3386 55.8628C49.3386 55.9968 49.2988 56.1278 49.2244 56.2392C49.1499 56.3506 49.0441 56.4375 48.9203 56.4888C48.7965 56.54 48.6603 56.5535 48.5288 56.5273C48.3974 56.5012 48.2767 56.4366 48.1819 56.3419C48.0871 56.2471 48.0226 56.1264 47.9965 55.995C47.9703 55.8635 47.9837 55.7273 48.035 55.6035C48.0863 55.4797 48.1731 55.3739 48.2846 55.2994C48.396 55.225 48.527 55.1852 48.661 55.1852C48.8407 55.1852 49.013 55.2566 49.1401 55.3837C49.2672 55.5107 49.3386 55.6831 49.3386 55.8628ZM46.6283 41.6341C46.7623 41.6341 46.8933 41.6738 47.0048 41.7483C47.1162 41.8227 47.203 41.9285 47.2543 42.0523C47.3056 42.1762 47.319 42.3124 47.2929 42.4438C47.2667 42.5753 47.2022 42.696 47.1074 42.7907C47.0127 42.8855 46.892 42.95 46.7605 42.9762C46.6291 43.0023 46.4929 42.9889 46.369 42.9376C46.2452 42.8863 46.1394 42.7995 46.065 42.6881C45.9905 42.5766 45.9508 42.4456 45.9508 42.3116C45.9508 42.1319 46.0222 41.9596 46.1492 41.8325C46.2763 41.7055 46.4486 41.6341 46.6283 41.6341ZM40.5303 47.0545C40.7983 47.0545 41.0603 47.134 41.2832 47.2829C41.506 47.4318 41.6797 47.6435 41.7823 47.8911C41.8848 48.1387 41.9117 48.4112 41.8594 48.674C41.8071 48.9369 41.678 49.1783 41.4885 49.3679C41.299 49.5574 41.0576 49.6864 40.7947 49.7387C40.5318 49.791 40.2594 49.7642 40.0117 49.6616C39.7641 49.559 39.5525 49.3854 39.4036 49.1625C39.2547 48.9397 39.1752 48.6777 39.1752 48.4096C39.1752 48.0503 39.318 47.7056 39.5721 47.4514C39.8262 47.1973 40.1709 47.0545 40.5303 47.0545Z" fill="#07A7D8"/>
<path d="M52.0488 49.7648H73.7306C73.9103 49.7648 74.0827 49.6934 74.2097 49.5663C74.3368 49.4392 74.4082 49.2669 74.4082 49.0872V40.9565C74.4082 40.7768 74.3368 40.6045 74.2097 40.4774C74.0827 40.3504 73.9103 40.279 73.7306 40.279H52.0488C51.8691 40.279 51.6967 40.3504 51.5697 40.4774C51.4426 40.6045 51.3712 40.7768 51.3712 40.9565V49.0872C51.3712 49.2669 51.4426 49.4392 51.5697 49.5663C51.6967 49.6934 51.8691 49.7648 52.0488 49.7648ZM52.7263 41.6341H73.0531V48.4096H52.7263V41.6341Z" fill="#07A7D8"/>
<path d="M71.6979 42.9892H54.0815V44.3443H71.6979V42.9892Z" fill="#07A7D8"/>
<path d="M71.6979 45.6994H54.0815V47.0545H71.6979V45.6994Z" fill="#07A7D8"/>
</g>
<path d="M73.7306 63.3159H72.3755V64.671H73.7306V63.3159Z" fill="white"/>
<path d="M71.0204 63.3159H69.6653V64.671H71.0204V63.3159Z" fill="white"/>
<path d="M68.3102 63.3159H66.955V64.671H68.3102V63.3159Z" fill="white"/>
<path d="M70.3428 70.0915C70.5225 70.0915 70.6949 70.0201 70.8219 69.893C70.949 69.766 71.0204 69.5936 71.0204 69.4139V67.3812H73.7306C74.6288 67.3802 75.4898 67.0229 76.1249 66.3878C76.76 65.7527 77.1173 64.8916 77.1184 63.9935V39.6014C77.1173 38.7032 76.76 37.8422 76.1249 37.2071C75.4898 36.572 74.6288 36.2147 73.7306 36.2136H38.4976C37.5995 36.2147 36.7384 36.572 36.1033 37.2071C35.4682 37.8422 35.1109 38.7032 35.1099 39.6014V63.9935C35.1109 64.8916 35.4682 65.7527 36.1033 66.3878C36.7384 67.0229 37.5995 67.3802 38.4976 67.3812H50.0161V72.8017H49.3386C48.7995 72.8017 48.2824 73.0159 47.9012 73.3971C47.52 73.7783 47.3059 74.2953 47.3059 74.8344V77.5446C47.3059 77.7243 47.3773 77.8966 47.5043 78.0237C47.6314 78.1508 47.8037 78.2222 47.9834 78.2222H64.2448C64.4245 78.2222 64.5969 78.1508 64.7239 78.0237C64.851 77.8966 64.9224 77.7243 64.9224 77.5446V74.8344C64.9224 74.2953 64.7082 73.7783 64.327 73.3971C63.9458 73.0159 63.4288 72.8017 62.8897 72.8017H62.2121V67.3812H66.955V69.4139C66.955 69.5936 67.0264 69.766 67.1535 69.893C67.2806 70.0201 67.4529 70.0915 67.6326 70.0915H68.3102V74.8344C68.3112 75.7325 68.6685 76.5936 69.3036 77.2287C69.9387 77.8638 70.7998 78.2211 71.6979 78.2222H77.1184V76.867H71.6979C71.1588 76.867 70.6418 76.6529 70.2606 76.2717C69.8794 75.8905 69.6653 75.3735 69.6653 74.8344V70.0915H70.3428ZM38.4976 37.5687H73.7306C74.2697 37.5687 74.7867 37.7829 75.1679 38.1641C75.5491 38.5453 75.7633 39.0623 75.7633 39.6014V60.6057H70.3428V56.5403H71.0204C71.2001 56.5403 71.3724 56.4689 71.4995 56.3419C71.6266 56.2148 71.6979 56.0425 71.6979 55.8628V53.1525C71.6979 52.9728 71.6266 52.8005 71.4995 52.6734C71.3724 52.5464 71.2001 52.475 71.0204 52.475H64.2448C64.0651 52.475 63.8928 52.5464 63.7657 52.6734C63.6386 52.8005 63.5673 52.9728 63.5673 53.1525V55.8628C63.5673 56.0425 63.6386 56.2148 63.7657 56.3419C63.8928 56.4689 64.0651 56.5403 64.2448 56.5403H64.9224V60.6057H60.857V56.5403H61.5346C61.7143 56.5403 61.8866 56.4689 62.0137 56.3419C62.1408 56.2148 62.2121 56.0425 62.2121 55.8628V53.1525C62.2121 52.9728 62.1408 52.8005 62.0137 52.6734C61.8866 52.5464 61.7143 52.475 61.5346 52.475H54.759C54.5793 52.475 54.407 52.5464 54.2799 52.6734C54.1528 52.8005 54.0815 52.9728 54.0815 53.1525V55.8628C54.0815 56.0425 54.1528 56.2148 54.2799 56.3419C54.407 56.4689 54.5793 56.5403 54.759 56.5403H55.4366V60.6057H36.465V39.6014C36.465 39.0623 36.6791 38.5453 37.0603 38.1641C37.4415 37.7829 37.9586 37.5687 38.4976 37.5687ZM64.9224 55.1852V53.8301H70.3428V55.1852H64.9224ZM68.9877 56.5403V60.6057H66.2775V56.5403H68.9877ZM55.4366 55.1852V53.8301H60.857V55.1852H55.4366ZM59.5019 56.5403V60.6057H56.7917V56.5403H59.5019ZM36.465 63.9935V61.9608H75.7633V63.9935C75.7633 64.5326 75.5491 65.0496 75.1679 65.4308C74.7867 65.812 74.2697 66.0261 73.7306 66.0261H38.4976C37.9586 66.0261 37.4415 65.812 37.0603 65.4308C36.6791 65.0496 36.465 64.5326 36.465 63.9935ZM63.5673 74.8344V76.867H48.661V74.8344C48.661 74.6547 48.7324 74.4823 48.8595 74.3553C48.9865 74.2282 49.1589 74.1568 49.3386 74.1568H62.8897C63.0694 74.1568 63.2417 74.2282 63.3688 74.3553C63.4959 74.4823 63.5673 74.6547 63.5673 74.8344ZM60.857 72.8017H51.3712V67.3812H60.857V72.8017ZM69.6653 67.3812V68.7364H68.3102V67.3812H69.6653Z" fill="white"/>
<path d="M40.5303 51.1199C41.0273 51.1171 41.5138 50.9764 41.9356 50.7133L46.8038 55.0409C46.5999 55.4875 46.5608 55.992 46.6936 56.4647C46.8264 56.9375 47.1224 57.3478 47.5292 57.6229C47.9359 57.898 48.4269 58.02 48.9151 57.9673C49.4033 57.9146 49.857 57.6906 50.1956 57.335C50.5342 56.9795 50.7359 56.5154 50.7647 56.0252C50.7936 55.5351 50.6477 55.0505 50.3531 54.6577C50.0585 54.2649 49.6342 53.9892 49.1556 53.8796C48.677 53.77 48.175 53.8336 47.7388 54.0591L42.8774 49.737C43.1187 49.3276 43.2442 48.8603 43.2405 48.3851C43.2368 47.9098 43.104 47.4446 42.8564 47.039L45.7577 44.141C46.0288 44.2736 46.3265 44.3431 46.6283 44.3443C47.0304 44.3443 47.4234 44.2251 47.7576 44.0017C48.0919 43.7784 48.3524 43.4609 48.5063 43.0895C48.6601 42.7181 48.7004 42.3094 48.6219 41.9151C48.5435 41.5208 48.3499 41.1586 48.0656 40.8743C47.7814 40.59 47.4192 40.3965 47.0249 40.318C46.6306 40.2396 46.2219 40.2798 45.8505 40.4337C45.479 40.5875 45.1616 40.8481 44.9382 41.1823C44.7149 41.5166 44.5957 41.9096 44.5957 42.3116C44.5968 42.6135 44.6663 42.9111 44.7989 43.1823L41.8976 46.0836C41.4848 45.8346 41.0124 45.7019 40.5303 45.6994C39.8115 45.6994 39.1222 45.985 38.6139 46.4932C38.1056 47.0015 37.8201 47.6909 37.8201 48.4096C37.8201 49.1284 38.1056 49.8178 38.6139 50.3261C39.1222 50.8343 39.8115 51.1199 40.5303 51.1199ZM49.3386 55.8628C49.3386 55.9968 49.2988 56.1278 49.2244 56.2392C49.1499 56.3506 49.0441 56.4375 48.9203 56.4888C48.7965 56.54 48.6603 56.5535 48.5288 56.5273C48.3974 56.5012 48.2767 56.4366 48.1819 56.3419C48.0871 56.2471 48.0226 56.1264 47.9965 55.995C47.9703 55.8635 47.9837 55.7273 48.035 55.6035C48.0863 55.4797 48.1731 55.3739 48.2846 55.2994C48.396 55.225 48.527 55.1852 48.661 55.1852C48.8407 55.1852 49.013 55.2566 49.1401 55.3837C49.2672 55.5107 49.3386 55.6831 49.3386 55.8628ZM46.6283 41.6341C46.7623 41.6341 46.8933 41.6738 47.0048 41.7483C47.1162 41.8227 47.203 41.9285 47.2543 42.0523C47.3056 42.1762 47.319 42.3124 47.2929 42.4438C47.2667 42.5753 47.2022 42.696 47.1074 42.7907C47.0127 42.8855 46.892 42.95 46.7605 42.9762C46.6291 43.0023 46.4929 42.9889 46.369 42.9376C46.2452 42.8863 46.1394 42.7995 46.065 42.6881C45.9905 42.5766 45.9508 42.4456 45.9508 42.3116C45.9508 42.1319 46.0222 41.9596 46.1492 41.8325C46.2763 41.7055 46.4486 41.6341 46.6283 41.6341ZM40.5303 47.0545C40.7983 47.0545 41.0603 47.134 41.2832 47.2829C41.506 47.4318 41.6797 47.6435 41.7823 47.8911C41.8848 48.1387 41.9117 48.4112 41.8594 48.674C41.8071 48.9369 41.678 49.1783 41.4885 49.3679C41.299 49.5574 41.0576 49.6864 40.7947 49.7387C40.5318 49.791 40.2594 49.7642 40.0117 49.6616C39.7641 49.559 39.5525 49.3854 39.4036 49.1625C39.2547 48.9397 39.1752 48.6777 39.1752 48.4096C39.1752 48.0503 39.318 47.7056 39.5721 47.4514C39.8262 47.1973 40.1709 47.0545 40.5303 47.0545Z" fill="white"/>
<path d="M52.0488 49.7648H73.7306C73.9103 49.7648 74.0827 49.6934 74.2097 49.5663C74.3368 49.4392 74.4082 49.2669 74.4082 49.0872V40.9565C74.4082 40.7768 74.3368 40.6045 74.2097 40.4774C74.0827 40.3504 73.9103 40.279 73.7306 40.279H52.0488C51.8691 40.279 51.6967 40.3504 51.5697 40.4774C51.4426 40.6045 51.3712 40.7768 51.3712 40.9565V49.0872C51.3712 49.2669 51.4426 49.4392 51.5697 49.5663C51.6967 49.6934 51.8691 49.7648 52.0488 49.7648ZM52.7263 41.6341H73.0531V48.4096H52.7263V41.6341Z" fill="white"/>
<path d="M71.6979 42.9892H54.0815V44.3443H71.6979V42.9892Z" fill="white"/>
<path d="M71.6979 45.6994H54.0815V47.0545H71.6979V45.6994Z" fill="white"/>
<defs>
<filter id="filter0_f" x="0.966797" y="0.621094" width="112" height="112" filterUnits="userSpaceOnUse" color-interpolation-filters="sRGB">
<feFlood flood-opacity="0" result="BackgroundImageFix"/>
<feBlend mode="normal" in="SourceGraphic" in2="BackgroundImageFix" result="shape"/>
<feGaussianBlur stdDeviation="3" result="effect1_foregroundBlur"/>
</filter>
<filter id="filter1_f" x="0.966797" y="0.621094" width="112" height="112" filterUnits="userSpaceOnUse" color-interpolation-filters="sRGB">
<feFlood flood-opacity="0" result="BackgroundImageFix"/>
<feBlend mode="normal" in="SourceGraphic" in2="BackgroundImageFix" result="shape"/>
<feGaussianBlur stdDeviation="3" result="effect1_foregroundBlur"/>
</filter>
<filter id="filter2_f" x="29.1099" y="30.2136" width="54.0085" height="54.0085" filterUnits="userSpaceOnUse" color-interpolation-filters="sRGB">
<feFlood flood-opacity="0" result="BackgroundImageFix"/>
<feBlend mode="normal" in="SourceGraphic" in2="BackgroundImageFix" result="shape"/>
<feGaussianBlur stdDeviation="3" result="effect1_foregroundBlur"/>
</filter>
<linearGradient id="paint0_linear" x1="50" y1="0" x2="50" y2="99.9999" gradientUnits="userSpaceOnUse">
<stop stop-color="#066E8D"/>
<stop offset="1" stop-color="#066E8D" stop-opacity="0"/>
</linearGradient>
</defs>
</svg>
