<svg width="26" height="21" viewBox="0 0 26 21" fill="none" xmlns="http://www.w3.org/2000/svg">
<path d="M10.747 21C10.8696 21 10.9913 20.9559 11.0885 20.8611C11.282 20.6728 11.2816 20.3867 11.0885 20.1979L2.25549 11.5574C1.66075 10.9772 1.66205 10.0215 2.25722 9.44134L11.0889 0.802543C11.2816 0.614178 11.282 0.325547 11.0889 0.137601L11.0889 0.135922C10.993 0.0423685 10.8739 -1.78321e-06 10.7492 -1.79422e-06C10.6232 -1.80535e-06 10.5058 0.0427889 10.4094 0.137181L1.57475 8.77597C0.597702 9.72997 0.597271 11.2696 1.57303 12.2215L10.4094 20.8603C10.5071 20.9559 10.6253 20.9992 10.7479 20.9992L10.747 21ZM25.112 10.9684C25.3851 10.9684 25.5941 10.7641 25.5941 10.4994C25.5941 10.2347 25.3846 10.0303 25.112 10.0303L6.81819 10.0303C6.54469 10.0303 6.33741 10.2326 6.33741 10.4994C6.33741 10.7662 6.54469 10.9684 6.81819 10.9684L25.112 10.9684Z" fill="white"/>
</svg>
