<svg width="1430" height="788" viewBox="0 0 1430 788" fill="none" xmlns="http://www.w3.org/2000/svg">
<g filter="url(#filter0_f)">
<path d="M752.852 150.407C751.053 150.207 751.454 151.206 750.455 151.206C749.857 152.604 750.255 153.003 750.255 154.002C750.055 155.399 751.453 157.397 754.25 157.596C754.048 158.993 755.048 159.591 756.047 159.591C757.045 159.591 759.64 155.199 759.64 155.199C759.839 152.405 754.649 150.608 752.852 150.407ZM999.861 197.138C999.462 197.138 998.464 197.537 998.263 198.335C998.063 199.733 999.262 203.727 1001.06 203.727C1002.06 203.727 1002.66 201.93 1002.66 201.53C1002.86 200.132 1002.26 199.534 1001.86 198.534L1002.06 197.136C1000.66 197.138 1000.26 197.138 999.861 197.138ZM672.977 298.584L673.178 295.788C672.779 295.788 672.779 294.39 672.379 294.39C670.982 294.19 671.581 292.393 671.78 290.995C670.382 291.394 666.788 292.991 666.788 294.79C666.388 297.585 670.182 298.384 672.977 298.584ZM750.255 128.042C751.653 128.24 751.853 126.644 752.852 126.445C752.052 125.446 750.654 123.848 750.654 123.848C749.258 123.648 747.86 123.648 747.66 125.046C747.461 126.843 748.458 127.841 750.255 128.042ZM963.518 194.341C964.916 194.541 965.116 192.943 965.116 192.544C965.116 192.145 964.916 189.748 964.316 189.548C963.917 189.548 964.316 188.549 963.917 188.15C963.518 187.151 961.321 185.953 959.923 185.554C959.923 185.953 959.923 186.553 959.723 186.952C959.724 188.35 962.519 194.142 963.518 194.341ZM763.035 153.004C762.437 155.401 762.835 156.4 761.638 157.597C761.04 158.995 757.645 160.192 757.645 161.59C757.444 163.987 762.236 164.386 762.037 167.182C761.836 169.978 763.035 172.374 765.432 172.574C770.224 172.974 772.021 178.366 777.213 178.765C780.408 178.966 783.005 177.767 783.203 174.572C783.402 171.776 781.208 171.177 781.208 168.78C781.208 168.381 782.404 166.584 782.404 166.584C782.803 160.992 783.003 159.994 783.203 157.198C783.402 154.402 782.205 151.406 779.808 151.207C778.411 151.007 778.81 152.605 778.61 153.403C777.414 155.6 775.815 157.996 774.416 158.796C774.017 157.797 773.618 157.398 773.618 156.4C773.817 154.602 775.814 153.205 775.814 151.406C776.014 149.01 775.016 149.41 773.217 149.21C772.818 149.21 764.034 151.207 763.035 153.004ZM784.8 196.938C786.598 197.138 787.794 195.341 788.794 194.341C791.391 192.144 794.785 190.945 798.18 190.347C801.974 189.15 806.565 186.753 806.965 181.561C807.166 178.166 802.173 171.177 799.776 170.978C796.582 170.777 795.384 173.573 795.184 176.369L793.788 176.17L793.986 173.374L795.785 167.783C795.785 167.783 795.785 166.784 795.984 166.385C795.984 165.386 795.185 164.388 794.187 164.388C793.788 164.388 790.593 167.982 789.993 168.78L789.594 173.573C788.197 178.166 787.599 181.96 785.8 185.155L785.401 189.349C784.402 190.147 783.206 193.342 783.006 194.94C782.804 196.338 783.801 196.938 784.8 196.938ZM751.454 143.618C751.254 145.415 754.049 145.815 755.048 146.214C756.845 147.812 756.444 151.606 759.44 151.805C763.234 152.004 763.832 148.809 766.829 148.211C768.825 147.812 774.019 147.812 774.217 145.016C774.418 143.218 771.023 142.419 771.223 140.023C771.423 138.226 774.618 137.827 774.817 135.031C775.017 132.634 773.219 131.038 771.422 131.038C769.625 130.837 769.226 123.848 766.829 123.648C765.432 123.449 765.231 125.046 765.231 125.445C765.231 125.445 762.236 127.641 761.638 128.042C760.24 127.841 756.247 130.037 756.047 131.836C755.846 133.635 758.243 134.433 758.243 135.231C758.042 137.628 755.846 140.823 753.65 140.624C753.65 141.623 753.45 142.022 753.45 142.421C752.451 142.819 751.454 143.218 751.454 143.618ZM650.613 100.283C652.011 100.483 653.009 99.4848 653.208 98.4861C653.208 98.0869 652.809 97.4874 653.409 97.0883C652.011 96.8879 650.613 96.8879 648.217 96.6891C647.818 96.6891 648.217 97.6878 648.217 97.6878C647.818 98.685 648.217 100.083 650.613 100.283ZM652.609 81.5114C653.608 81.5114 654.606 81.1122 654.606 80.3139C654.606 79.9147 654.207 78.916 653.808 78.916C653.409 78.916 652.809 78.3165 652.41 78.3165C651.012 78.1177 650.413 78.7157 650.413 80.1136C650.213 80.3139 652.009 81.5114 652.609 81.5114ZM645.82 101.881C644.822 101.881 644.423 100.883 643.624 100.684C642.227 100.483 639.83 105.676 639.83 107.074C639.631 109.47 641.827 111.067 644.623 111.267C649.416 111.666 651.812 109.07 651.012 103.279C649.015 103.079 646.021 104.278 645.82 101.881ZM662.993 91.6956C664.79 91.896 665.19 88.5007 665.19 88.1016L662.993 86.5034H661.994C661.994 87.5021 661.794 87.9012 661.794 88.3004C661.795 89.6998 662.194 91.6956 662.993 91.6956ZM653.409 105.674C653.208 108.47 655.005 109.07 657.002 109.268C662.194 109.668 663.791 107.471 664.19 103.278C664.39 101.481 662.393 101.282 660.995 101.082L660.795 103.478C660.197 105.674 653.608 102.879 653.409 105.674ZM653.409 302.378C653.208 303.776 654.606 304.376 655.605 304.376C657.002 304.575 662.993 302.178 662.993 300.782C662.993 299.783 660.398 298.585 659 298.585C658.201 300.78 653.608 299.982 653.409 302.378ZM1005.65 213.712L1006.65 214.311C1007.05 214.311 1008.85 211.715 1008.85 211.715C1009.45 209.918 1014.24 210.317 1015.24 209.918C1019.03 208.72 1023.43 208.121 1023.82 203.927C1024.22 198.335 1015.24 198.534 1010.45 198.135C1009.45 198.135 1006.25 202.928 1006.25 204.525C1006.05 206.921 1008.45 207.92 1008.25 210.317C1007.65 212.514 1005.85 211.715 1005.65 213.712ZM1415.21 478.712C1415.21 479.711 1417 479.711 1417.4 479.91C1417.8 479.91 1418 479.511 1418 478.911L1416.6 477.313C1416.2 477.315 1415.21 477.714 1415.21 478.712ZM965.915 182.56C965.714 185.755 968.511 185.155 970.307 186.753C971.106 187.752 970.507 189.549 970.906 190.548C972.902 194.541 977.095 195.341 981.49 195.54C981.889 196.938 983.686 197.138 985.083 197.337C987.479 197.537 987.479 196.139 987.679 194.142C987.88 192.345 987.479 191.346 987.479 190.347L987.679 188.95C991.473 189.148 992.672 185.155 993.87 182.759C996.066 179.165 1002.06 181.96 1002.26 178.166C1002.46 176.768 1001.86 176.17 1002.46 175.37C1000.66 175.171 1001.06 175.171 1000.06 175.171C999.06 175.171 998.663 175.97 997.265 175.97C993.471 175.769 989.077 170.978 989.277 168.182C989.478 166.385 989.478 165.785 989.478 164.787C990.476 164.787 991.275 164.987 991.874 164.987C992.074 168.781 993.671 173.175 997.465 173.374C1001.26 173.575 1002.66 172.376 1004.25 170.578C1004.85 170.179 1003.66 165.787 1003.85 164.787C1001.46 164.588 1002.46 159.396 1000.06 159.195C997.266 158.995 994.87 158.796 992.474 158.995C990.077 159.793 988.88 162.988 985.084 162.589C983.287 162.39 982.888 161.391 981.889 161.391C980.492 161.193 979.894 162.589 979.894 163.588C979.494 167.781 981.291 169.379 983.088 170.978L982.888 172.376C980.892 172.775 980.094 171.178 978.695 171.178C978.296 171.178 977.696 171.178 977.297 170.979C974.503 170.779 971.706 168.583 968.91 168.382C967.514 168.183 965.716 173.775 965.515 175.173C965.315 176.97 967.314 177.768 967.113 179.565C966.913 181.362 965.915 181.76 965.915 182.56ZM1415.8 487.299C1415.6 489.097 1416.6 489.695 1417.6 489.897C1418.6 489.897 1419.2 488.098 1419.2 487.699C1419.4 486.301 1419.4 486.301 1419.4 485.902C1419 485.303 1418.6 484.903 1418 484.903C1416.2 484.503 1416 486.3 1415.8 487.299ZM641.826 284.804C642.624 285.803 645.42 286.002 646.619 283.805C644.222 283.605 643.823 282.608 642.026 282.008L641.826 284.804ZM1421 505.673C1421.4 505.673 1422 504.874 1422.39 504.874C1422 503.876 1421.2 502.877 1419.8 502.677L1419.6 504.475C1420.2 504.672 1420.6 505.673 1421 505.673ZM1405.62 455.149C1405.42 456.546 1408.02 459.542 1409.02 459.74C1410.41 459.941 1411.01 458.544 1411.01 457.943C1411.21 456.546 1411.41 453.15 1411.61 450.356C1410.01 447.36 1412.21 443.764 1409.21 443.567C1409.21 443.567 1407.02 442.368 1406.42 442.368C1406.42 442.767 1406.22 445.763 1406.22 445.763C1406.02 448.16 1407.42 447.761 1407.22 450.556C1407.22 452.551 1405.82 452.951 1405.62 455.149ZM1415.41 293.991C1414.41 293.991 1413.61 293.791 1412.61 293.791C1410.21 293.591 1407.42 293.392 1406.22 291.793C1404.82 292.193 1405.22 292.592 1404.22 293.591L1404.02 296.386C1406.42 296.986 1407.82 296.587 1412.01 296.986C1414.61 297.186 1414.81 295.788 1415.41 293.991ZM1011.44 162.988C1015.24 163.189 1015.83 161.989 1019.03 162.19C1020.03 162.19 1020.43 162.39 1020.83 162.39C1020.83 161.391 1023.42 159.793 1024.82 159.793C1028.22 159.994 1032.01 152.804 1032.21 150.008C1032.21 149.01 1032.21 149.01 1032.41 148.211C1031.41 148.211 1030.61 147.213 1029.62 147.014C1028.62 147.014 1022.43 147.812 1021.43 149.21C1020.43 150.608 1019.83 152.405 1018.83 152.804L1017.43 152.604C1017.63 151.206 1016.24 150.608 1015.24 150.608C1012.44 150.407 1012.04 155.999 1010.84 157.397C1009.05 156.797 1008.65 155.8 1007.85 154.401H1006.85C1006.85 155.399 1006.65 156.198 1006.65 156.797C1006.45 159.793 1008.25 162.789 1011.44 162.988ZM1422.59 521.847C1422.59 522.846 1422.99 523.245 1423.99 523.444L1424.59 523.045C1424.59 522.646 1424.79 521.647 1424.79 520.648L1423.39 519.65C1422.79 520.45 1422.79 520.45 1422.59 521.847ZM1408.61 441.171C1410.41 441.369 1411.01 440.969 1411.61 439.572L1409.01 437.376C1407.62 437.176 1407.62 436.777 1406.82 436.179C1406.62 437.575 1406.62 438.574 1406.62 438.973C1406.22 440.172 1407.22 441.171 1408.61 441.171ZM1189.76 51.7556L1191.96 23.9972C1184.57 26.7929 1179.98 32.5847 1179.18 41.9706C1178.38 50.3592 1183.57 50.7584 1189.76 51.7556ZM1423.39 287.002L1426.39 286.204C1426.59 284.806 1427.39 285.405 1428.98 284.406C1428.59 283.009 1427.19 282.81 1425.79 282.81C1422.99 282.609 1420.6 283.808 1420.4 285.605C1420.4 285.605 1421.2 286.604 1421.2 287.003H1423.39V287.002ZM1424.99 510.665C1423.99 510.665 1423.79 509.066 1422.79 509.066C1422.79 509.466 1422.59 510.463 1422.59 510.863C1422.59 511.264 1422.99 512.261 1423.39 512.261C1423.79 512.261 1424.79 511.463 1425.39 511.064L1424.99 510.665ZM1412.61 468.128C1412.21 468.128 1411.61 468.527 1411.61 468.527C1412.41 469.923 1411.41 472.32 1413.21 472.522C1413.01 474.918 1414.01 474.918 1415.4 475.117C1416.8 475.317 1417.4 474.319 1417.4 472.921C1416.6 471.323 1414.61 468.328 1412.61 468.128ZM1404.82 403.626C1402.63 395.437 1399.03 399.831 1393.44 392.241C1391.24 389.246 1394.04 379.461 1396.83 378.862C1411.41 374.269 1387.45 376.665 1384.65 358.892C1383.85 351.703 1382.46 351.703 1385.85 348.508C1402.02 335.926 1375.27 332.532 1372.47 326.141C1358.29 295.586 1378.66 330.934 1376.06 309.366C1373.87 307.37 1370.67 305.572 1364.48 306.171C1358.89 304.773 1355.7 303.974 1353.5 300.58C1352.7 299.182 1351.9 296.587 1351.7 292.792C1351.7 292.792 1348.71 287.799 1344.51 294.589C1342.52 296.785 1348.51 304.374 1341.92 302.976C1335.93 300.58 1326.94 275.817 1319.15 266.231C1314.36 260.241 1319.35 257.245 1325.54 256.845C1326.74 254.05 1325.94 252.652 1322.35 249.455L1323.15 238.672C1325.34 234.478 1329.74 245.861 1332.53 246.06C1338.32 245.062 1327.34 234.677 1327.74 229.486C1330.34 202.726 1352.7 213.909 1350.5 210.315C1345.91 203.326 1340.12 184.354 1335.33 155.598C1331.93 155.399 1330.54 157.596 1327.54 157.395C1330.34 157.596 1331.53 155.399 1334.73 155.598C1333.53 148.009 1332.73 138.824 1331.53 129.837C1330.54 125.443 1343.12 121.649 1343.52 114.66C1343.92 110.466 1340.52 104.474 1330.93 105.073C1315.56 106.671 1305.98 98.2843 1297.59 114.858C1291.4 121.049 1284.01 113.86 1289.4 110.466C1294.99 106.073 1301.98 106.272 1301.38 96.2884C1300.38 71.5246 1282.01 82.9078 1278.02 73.1228C1278.02 61.7395 1299.98 78.1162 1296.59 60.3431C1295.99 49.9586 1300.98 52.1548 1304.18 52.9532C1319.15 56.5472 1313.36 44.566 1319.55 44.1668C1329.14 43.5673 1333.33 31.586 1330.13 28.9906C1315.36 35.3804 1320.55 17.8077 1306.77 24.3964C1299.38 27.5913 1319.95 12.614 1301.98 1.23071C1289.6 7.42167 1278.22 8.81954 1276.22 27.1921C1276.22 27.1921 1284.41 25.3951 1289.8 29.5886C1288.8 36.1788 1289.2 37.5767 1282.21 36.9786C1278.02 36.5794 1274.22 29.1895 1261.25 33.3845C1243.87 49.5594 1220.71 53.9533 1205.73 72.1255C1201.54 77.5181 1197.55 86.7037 1192.75 92.8947C1185.37 102.68 1178.78 109.27 1180.97 111.466C1188.16 117.657 1188.36 114.861 1195.35 116.459C1201.74 113.664 1201.94 124.048 1201.94 124.048C1198.95 126.245 1202.34 132.036 1192.16 127.642C1187.96 133.434 1182.77 131.636 1177.98 128.042C1173.98 125.445 1177.78 135.63 1174.98 143.019C1171.99 150.808 1159.21 151.805 1158.21 162.988C1158.21 163.387 1158.01 164.386 1158.41 165.385C1159.41 171.177 1164 177.767 1166.8 180.163C1172.79 193.343 1153.62 167.781 1146.43 175.171C1140.84 180.362 1145.83 170.777 1130.85 166.784C1116.87 163.389 1106.29 179.165 1105.69 185.755C1105.49 189.549 1102.1 208.122 1087.52 199.534C1075.54 200.932 1070.75 207.721 1071.15 203.927C1071.55 200.132 1076.94 191.545 1060.36 197.337C1046.78 200.532 1059.56 219.504 1052.78 221.301C1051.78 223.098 1052.38 207.922 1049.78 210.118C1047.78 211.915 1045.19 213.114 1042.79 214.711C1039.2 212.115 1049.38 209.919 1047.39 205.525C1038.2 206.723 1027.22 220.103 1016.63 217.308C1026.82 227.093 1015.63 223.898 1013.64 236.478C1022.62 237.676 1020.23 224.696 1023.62 242.469C1034.61 247.062 1028.62 251.456 1019.83 247.86C1012.24 253.452 1030.41 263.437 1015.63 258.046C1002.06 257.047 1007.85 255.05 998.861 267.231C990.874 273.222 987.08 260.641 986.48 267.231C986.081 272.823 996.266 293.193 982.487 288.199C973.302 285.203 967.112 279.812 967.91 268.628C967.312 264.833 958.525 267.43 959.923 260.84C955.93 256.247 961.721 250.456 942.75 251.055C940.953 261.44 926.176 250.257 921.383 256.446C917.988 258.044 924.379 265.633 925.178 268.028C928.771 277.813 915.194 275.218 906.806 278.014C892.231 283.007 899.019 267.429 894.626 270.026L879.25 272.222C876.256 274.418 868.666 279.412 867.069 276.016C864.274 269.627 864.471 279.61 854.688 276.416L853.291 276.215C852.292 275.616 851.494 275.216 850.096 274.019C835.719 277.214 853.291 282.805 848.299 285.202C842.706 295.187 830.926 295.787 826.134 300.978C826.533 289.594 857.284 265.431 859.08 242.865C859.678 234.478 846.9 217.702 838.912 217.104C836.118 216.905 830.527 216.505 827.531 218.103C825.933 226.49 821.74 224.693 818.945 224.493C816.149 224.294 834.32 210.115 807.961 212.311C805.366 210.113 818.944 210.314 811.955 202.725C805.965 199.33 802.17 200.128 801.572 202.326C798.577 204.921 795.582 212.311 791.986 215.705C788.392 219.698 797.778 226.089 787.594 229.483C787.594 229.483 774.214 224.091 785.996 236.872C781.003 234.076 780.405 235.075 779.007 234.874C778.608 234.874 772.817 242.064 770.021 241.266C767.227 240.666 775.413 233.677 770.222 233.278C763.63 238.071 760.038 236.673 756.244 237.471C746.859 236.673 756.842 241.864 753.448 243.861C751.052 245.658 742.066 245.259 736.875 248.654C727.888 253.646 722.698 259.438 718.104 265.228C712.912 270.42 728.487 294.984 714.909 282.003C701.531 283.8 696.339 282.003 688.351 281.403C676.969 280.605 674.773 284.997 679.566 295.981C681.162 299.376 672.976 306.765 682.161 311.358C685.556 309.36 683.759 321.342 687.752 318.947C691.546 324.937 693.343 327.334 686.154 333.924C686.154 333.924 690.347 346.105 688.751 349.3C681.762 359.685 682.161 355.89 680.963 352.894C689.749 336.918 683.559 331.726 677.37 349.3C677.568 346.505 681.362 333.525 683.56 330.928C694.742 314.753 680.165 326.335 677.769 319.145C674.973 311.358 672.178 311.157 666.587 303.968C666.587 304.367 665.588 304.766 664.19 304.766C661.395 304.966 657.6 305.165 657.002 306.962C664.79 316.548 657.201 315.949 649.015 307.361C646.819 309.957 639.032 314.55 654.407 323.337C654.407 323.337 660.797 333.323 656.404 335.319C653.609 333.722 653.609 329.328 650.813 326.932C644.224 326.332 640.03 319.942 639.631 317.546C639.631 310.356 643.825 306.562 646.62 300.972C646.62 300.972 648.417 294.981 647.619 287.791C641.827 282.2 643.425 305.564 638.234 304.167C627.25 305.763 626.851 309.359 625.654 314.152C623.057 321.94 630.246 334.921 623.458 337.117C620.662 343.507 617.867 348.5 617.467 353.292C616.868 361.679 614.672 365.474 630.446 362.279C636.836 364.275 639.631 371.065 640.43 379.254C641.228 387.442 634.839 384.444 633.441 389.638C632.442 395.627 643.026 399.822 642.427 401.22C636.836 401.22 630.846 397.025 631.245 392.833C631.644 388.641 633.242 385.443 636.637 379.055C632.243 374.86 634.241 366.075 623.857 366.673C615.27 366.873 613.872 372.065 614.871 389.638C605.086 393.631 607.483 393.832 604.687 398.424C596.7 410.207 589.91 400.023 586.117 410.806C579.728 402.817 569.544 405.813 569.943 399.224C570.142 395.829 561.956 391.437 571.939 392.833C577.53 393.832 573.537 403.816 581.924 404.415C588.513 404.415 593.106 389.638 603.889 383.447C607.284 369.069 616.47 384.845 607.882 362.878C603.889 353.492 615.271 335.519 620.063 327.332C625.056 318.745 615.869 319.944 619.663 309.359C623.257 300.173 626.853 307.562 631.245 294.181C633.242 287.192 631.445 285.195 623.257 281.201C615.469 276.807 615.869 271.615 610.078 280.203C607.88 282.799 602.09 302.769 586.116 301.97C575.932 310.159 590.908 313.153 581.922 318.145C579.726 328.329 566.347 330.126 575.732 336.518C581.523 340.312 577.728 346.104 580.924 350.097C580.924 350.097 582.121 359.682 576.331 359.682C569.742 360.081 566.146 343.307 560.557 331.924C560.158 330.925 559.359 328.927 558.96 327.93C555.166 320.941 543.585 317.746 538.991 310.356C538.991 310.356 537.194 309.757 532.8 311.355C529.804 312.552 531.603 320.341 531.603 320.341C531.603 320.341 524.215 323.536 521.618 327.13C523.016 333.921 513.631 338.913 515.229 328.927C515.628 324.136 524.014 325.733 520.222 318.344C505.844 320.939 503.449 320.34 495.061 312.552C484.077 319.74 486.873 314.349 484.077 313.152C476.689 310.156 473.094 307.56 482.28 306.762C481.681 301.57 501.25 301.57 486.273 298.973C483.478 298.773 481.081 298.574 478.685 298.373C476.489 302.966 472.695 307.36 470.698 297.774C467.902 297.974 459.714 297.974 456.12 297.574C442.542 296.575 439.548 290.185 426.767 304.364C424.171 307.559 421.375 301.169 418.18 298.572C419.977 292.582 417.382 284.792 417.382 284.792C421.176 284.194 419.779 278.802 431.959 284.993C438.748 287.989 437.95 274.009 436.552 269.217C430.76 265.023 426.367 254.24 425.968 258.034C424.969 266.022 428.963 267.22 414.186 274.608C399.809 281.997 418.979 284.993 406.598 291.982C406.598 292.381 405.2 290.983 401.806 293.579C400.808 294.977 398.612 297.173 396.615 300.369C398.61 292.979 383.636 295.576 397.812 291.982C396.214 287.59 393.418 282.197 390.423 282.397C380.439 287.788 373.451 281.599 368.259 281.2C355.478 280.201 361.27 296.777 355.878 300.17C350.485 295.977 345.293 283.795 346.892 274.808C347.491 272.412 334.911 264.823 333.114 281.798C342.499 289.186 335.111 292.782 331.716 292.981C326.723 292.182 324.527 289.786 324.327 286.591C324.527 286.591 324.527 286.392 324.726 286.392C324.127 281.2 325.725 274.61 325.924 271.415C325.324 265.623 327.919 263.427 333.911 253.642C347.49 249.448 345.293 242.658 345.891 227.481C345.891 226.284 346.092 225.085 346.092 224.086C351.083 202.719 348.488 230.476 353.48 239.264C355.876 257.835 364.463 273.811 380.037 275.01C395.612 276.209 403.201 264.427 402.002 248.85C401.804 240.263 395.613 234.673 398.607 214.503C393.016 207.514 396.411 206.714 391.819 199.325C366.06 194.532 396.612 197.727 386.827 191.337C387.026 171.367 391.219 194.532 394.015 190.539C391.619 185.146 393.616 178.558 386.427 178.558C382.434 180.554 376.043 172.966 372.25 171.767C356.476 168.173 350.285 173.765 349.686 187.543C349.686 200.324 338.702 194.332 331.914 197.528C329.918 199.325 328.32 201.921 327.121 204.716C322.729 211.906 318.935 219.694 310.548 217.696C308.751 217.097 309.15 224.287 302.96 223.687C302.76 232.674 300.365 233.472 296.57 233.073C295.772 244.456 292.377 243.656 285.388 243.057C285.988 260.631 281.395 265.023 279.398 264.825C279.398 264.825 261.227 266.82 245.651 265.424H245.252C239.661 265.025 234.869 264.227 230.874 262.428C229.077 266.622 226.881 270.616 226.681 274.409C224.884 280.4 233.67 282.598 229.276 289.786C225.482 295.578 226.48 283.396 224.884 280.4C220.891 278.204 218.494 278.003 217.095 277.005C212.302 271.812 210.905 277.404 209.507 276.405L209.108 280.599C204.315 280.2 203.118 279.6 202.718 284.393C202.919 282.596 202.919 281.597 203.517 281.198H203.118L195.13 280.599C192.335 285.192 189.14 285.39 186.543 288.386C184.947 290.184 184.746 292.58 182.749 294.178C181.351 294.977 177.557 293.38 175.561 294.577C172.965 296.174 175.561 299.369 174.962 302.165C174.362 302.564 169.171 304.162 169.171 304.162C165.577 306.759 165.178 312.949 162.98 315.945C161.981 317.742 159.585 317.541 159.386 320.337C158.987 325.13 163.18 325.928 162.98 329.123C162.781 331.52 159.386 331.72 159.186 334.115C159.186 335.114 165.974 337.91 166.375 339.907C167.173 342.903 165.776 347.496 168.571 347.696C167.374 349.892 165.974 349.892 163.58 350.692C160.185 352.289 161.582 357.682 153.994 357.082C152.596 362.274 150.998 364.87 149.801 369.063C149.201 371.859 150.998 372.858 149.801 375.254C148.802 376.652 146.406 375.852 145.409 375.852C145.208 379.249 148.804 379.849 148.603 383.642C148.404 385.039 147.406 385.838 147.406 387.436L146.806 388.832C145.409 389.232 145.609 391.03 144.211 391.03C138.021 390.631 137.423 382.042 132.63 381.643C130.233 381.444 130.833 385.238 130.833 386.237C130.434 391.03 121.049 390.629 120.449 397.221C120.249 400.414 121.448 401.613 123.844 401.812C125.641 402.013 126.84 401.014 127.239 400.216C128.836 402.612 130.035 406.205 131.432 408.204C134.028 410.8 140.218 409.802 139.819 414.993C139.62 417.389 137.623 419.585 137.023 420.983L137.224 425.177C137.823 424.178 138.82 423.38 140.22 422.58C138.222 423.779 136.626 426.972 135.227 426.972C134.827 426.972 133.829 425.376 133.829 425.376C131.432 426.176 127.439 429.17 127.239 431.567C127.04 435.361 130.235 436.559 131.432 438.554C133.229 440.552 131.633 443.348 131.832 444.745C130.434 446.143 130.035 448.141 129.036 449.34C128.037 451.137 124.644 451.336 124.444 453.732C124.044 458.525 128.037 457.325 129.236 459.324C130.833 462.719 128.837 465.513 131.033 467.51C132.83 469.11 139.021 469.508 138.82 471.904C138.622 473.301 138.421 476.098 138.421 477.095C138.221 479.492 137.224 480.691 138.421 483.286C139.22 485.683 142.215 484.484 142.813 486.88C144.411 490.875 147.207 497.664 147.207 497.664C147.007 499.062 148.605 506.05 149.603 508.048C149.603 508.847 149.802 510.044 149.603 511.243C147.406 513.84 143.812 513.239 140.018 512.84C139.818 515.237 141.215 515.836 141.016 517.633C137.222 517.835 136.823 515.836 134.427 517.035C134.226 518.834 134.226 518.834 134.226 519.831C134.026 523.226 130.233 528.617 125.441 528.217C121.647 528.018 120.449 520.229 115.656 519.831C115.257 519.831 114.658 521.229 113.661 521.027C111.264 520.828 110.665 518.032 108.268 517.834C105.473 517.632 101.879 521.027 100.281 522.826C103.875 526.42 108.068 526.819 109.466 527.817C113.858 532.013 111.462 533.609 103.076 531.612C102.677 531.612 101.679 531.014 101.28 531.014C97.6857 529.816 94.491 528.019 93.0918 526.621C88.299 520.03 89.6968 528.818 87.3004 529.018C90.2962 532.611 92.8915 535.608 89.6968 539.603C89.6968 539.603 79.5118 531.613 76.7177 536.208C72.9236 542.597 70.1281 541.001 68.53 538.803L63.5384 530.417L59.1463 533.013C61.3423 535.009 60.9432 540.8 60.544 544.595C60.1449 549.787 66.1351 557.775 62.5413 560.372C61.3438 563.166 63.7387 562.368 65.3368 566.762C67.1337 573.152 65.5371 577.746 66.3354 585.333C66.7346 587.331 66.9349 589.128 67.7332 591.524C68.7318 590.726 69.7289 590.726 71.1282 591.724C71.5273 592.323 73.9237 597.116 75.9209 597.714C75.3215 604.105 83.5092 614.887 88.1017 617.883C88.1017 617.883 88.1017 618.084 87.9013 618.084C87.9013 619.082 90.0974 620.679 90.0974 620.679C91.2949 622.676 92.8929 632.662 95.2893 633.859C95.0905 636.256 97.886 637.453 97.6857 639.252C97.6857 640.25 96.0891 640.449 96.0891 641.448C95.8888 645.241 104.277 645.841 107.472 646.041C107.072 646.639 107.472 646.44 107.273 647.838C107.072 650.634 111.266 650.435 113.463 654.029C114.661 656.025 114.063 659.42 115.459 662.017C112.663 663.214 110.668 665.212 110.267 668.607C109.868 673.799 114.661 673.2 114.86 676.595C116.057 680.389 115.658 684.184 117.855 687.18L117.057 697.564C117.456 699.562 119.453 702.957 121.848 703.157C124.644 703.356 125.243 700.961 127.64 701.16C130.435 701.36 131.434 701.36 133.83 701.559C135.627 701.759 137.025 702.357 138.622 700.961C139.42 697.167 139.221 693.372 138.622 688.579C141.218 680.791 134.629 673.203 143.215 666.212C144.413 663.418 154.598 659.024 151.402 653.033C148.407 648.04 148.207 644.646 151.402 640.252C152.001 638.854 153.399 639.054 155.396 638.654C158.192 638.453 162.584 637.855 166.179 633.861C168.375 631.265 170.172 630.465 172.569 630.068C175.964 630.267 178.559 632.464 181.753 632.663C186.945 632.065 192.137 632.464 196.93 633.463C195.532 631.865 196.132 632.065 194.734 630.467L195.333 621.48C198.528 622.678 198.329 624.475 201.125 625.675C202.922 621.48 202.523 619.683 202.922 614.491C203.321 609.3 204.719 604.106 201.125 600.713C198.929 598.715 193.536 599.714 193.936 594.921C194.136 591.126 197.529 590.926 199.328 587.731L197.93 586.133C197.132 585.134 194.735 583.938 194.934 581.141C195.135 578.345 197.132 576.946 199.128 575.75C203.121 574.152 208.312 574.152 209.712 567.162C211.109 561.97 219.097 562.169 223.489 561.172C225.486 560.773 225.685 558.575 227.883 558.575L230.278 558.775C228.681 561.569 229.878 563.966 229.279 571.956C230.278 572.554 232.474 574.152 234.272 574.152C241.261 574.751 238.465 563.567 246.852 564.168C250.646 564.567 252.643 562.17 256.037 562.57C257.435 562.77 258.832 564.168 260.629 564.367C265.422 564.766 267.818 562.57 273.01 562.969C273.409 562.969 275.006 562.57 275.407 562.77L274.408 563.568C279 564.966 277.204 571.356 283.194 571.757C285.59 571.957 286.988 571.157 288.785 572.156C290.582 573.754 288.785 577.348 289.184 579.345C289.982 582.141 297.571 581.341 297.171 586.134C296.973 589.929 298.369 599.914 302.165 602.112C305.959 602.91 305.758 604.707 305.959 607.104C306.159 610.898 309.153 613.893 312.947 614.294C316.742 614.693 319.736 611.897 323.931 612.298C330.52 612.896 328.724 618.889 332.717 621.084L340.704 621.684C345.497 626.276 342.701 638.857 351.687 639.655C353.484 639.856 354.683 638.059 357.079 638.259C361.273 638.658 360.673 645.648 365.466 646.047C373.453 646.645 377.047 644.051 379.245 638.657C379.644 633.466 375.252 634.463 374.053 632.067C373.654 631.068 374.652 629.67 373.853 628.671C373.454 627.274 369.659 626.873 369.86 625.475C369.86 624.476 371.456 623.678 371.456 622.681C371.657 619.886 368.861 620.084 369.06 617.687L369.858 614.492L369.658 616.289L369.459 616.889C371.256 614.693 380.042 618.086 380.042 618.086C382.239 613.891 381.839 605.905 387.031 606.304C391.823 606.703 393.221 611.097 398.014 611.495C399.412 611.697 400.011 610.698 400.011 609.3C400.211 607.502 394.22 604.108 393.421 602.11L393.622 599.714C396.018 599.914 397.017 599.914 398.014 599.114C397.216 597.717 394.021 596.918 394.021 594.921C394.221 592.524 396.816 589.927 399.612 590.128C401.01 590.328 408.797 595.121 409.996 596.718C416.186 597.117 417.983 597.317 421.378 597.518C426.969 597.917 430.964 602.909 436.754 601.511L440.548 601.711C440.548 602.11 440.947 602.71 441.346 602.71C443.741 602.91 445.339 600.113 447.735 600.315C450.531 600.514 451.329 603.51 452.128 604.508C452.727 604.109 453.724 603.111 455.522 603.311C456.92 603.511 473.495 604.707 473.495 604.707C475.292 604.909 476.29 603.909 477.088 602.112C479.884 603.309 481.282 602.511 483.678 601.713V601.113C483.877 601.113 483.877 601.315 484.077 601.315C487.871 601.514 489.668 601.714 493.262 604.31C496.058 605.908 496.657 610.3 500.451 610.499C501.45 610.499 502.447 610.3 503.047 609.5C503.845 610.898 506.241 620.885 506.241 621.882C505.842 626.076 504.444 627.871 501.448 629.47L501.248 632.265C503.645 632.466 504.842 634.062 506.241 634.062C508.038 634.263 509.237 632.466 511.033 632.466C514.827 632.665 512.829 639.654 515.626 639.854C517.024 640.055 517.622 639.455 518.621 638.258C518.621 638.258 521.617 642.85 522.016 642.85C523.014 642.85 526.209 642.65 526.209 644.048C526.01 647.243 521.418 645.047 521.017 648.839C520.818 650.638 522.814 650.837 523.213 650.837C525.01 651.037 523.213 650.837 525.01 651.037C527.407 651.236 528.205 653.633 530.003 653.831C533.398 654.032 534.995 651.435 538.191 651.235C541.985 650.037 543.982 649.838 545.579 648.838C550.971 648.639 554.166 646.443 559.356 646.842C560.754 647.042 562.152 647.042 562.751 647.042C562.552 650.438 560.555 651.236 557.76 650.837L557.559 654.232C560.954 659.623 565.348 663.418 567.744 669.807L580.723 721.929C580.723 722.929 581.522 724.326 582.321 724.526C587.113 724.925 586.714 716.738 590.908 717.137C592.306 717.336 595.9 719.334 595.9 720.93C595.501 725.125 598.497 724.525 598.096 730.116C599.494 729.717 602.889 730.515 605.085 730.715C611.275 731.115 615.27 728.72 619.862 729.117C625.054 729.516 628.449 734.909 629.446 738.904L630.844 739.104C630.644 739.303 630.644 739.303 630.445 739.503L631.044 739.104C631.044 739.503 630.046 740.5 630.046 740.901C629.647 746.093 634.239 746.892 637.435 748.689C639.631 750.287 638.035 753.083 637.834 755.28C638.035 759.474 643.626 760.471 647.418 760.672C647.22 763.068 648.616 764.067 650.414 764.266C654.608 764.665 655.007 759.473 659.8 759.272C659.599 761.669 659.599 763.067 659.4 764.864C659.2 767.659 661.996 768.858 662.595 771.255C662.595 771.255 669.983 773.251 673.578 769.259C675.576 761.869 684.162 766.263 688.755 764.266C691.151 763.068 693.747 761.271 695.744 760.072C694.945 759.072 692.748 756.478 692.948 753.681C692.748 756.476 694.944 758.674 695.744 760.072V760.471C706.128 754.081 713.716 747.69 721.902 745.895C733.084 742.898 753.451 748.889 752.054 753.482C750.457 761.869 762.638 762.469 772.622 763.068C789.594 764.466 799.58 764.266 800.578 751.486C800.776 748.69 793.986 745.694 794.387 740.103C794.985 731.115 803.173 725.125 806.369 719.733C817.95 723.527 832.728 726.922 843.91 731.116C851.697 734.112 847.103 749.888 860.282 750.886C876.259 752.084 876.656 740.702 895.627 742.3C902.614 742.898 907.407 748.891 911.402 747.892C912.4 747.493 913.399 747.493 913.798 747.692L914.397 747.292V747.692C915.795 742.1 922.585 740.702 923.384 735.51C922.585 740.701 915.797 742.499 914.397 747.692C914.397 747.692 915.994 757.677 932.569 758.676C962.321 760.074 983.289 733.713 987.881 723.728C990.677 718.734 1000.06 726.124 1006.25 725.126C1009.65 724.925 1013.24 720.533 1016.04 720.732C1021.23 721.131 1022.83 723.728 1029.42 725.126C1042 728.521 1042.6 714.741 1050.38 710.148C1054.38 708.151 1046.19 704.157 1046.79 694.772C1047.59 683.988 1047.79 681.991 1051.38 671.006C1058.17 650.237 1041 664.416 1040 657.828C1041.8 647.443 1048.99 639.654 1056.37 634.861C1062.76 630.667 1069.15 628.671 1071.95 628.471C1090.92 629.069 1091.72 625.276 1094.31 625.874C1114.88 629.869 1136.45 669.807 1148.23 675.998C1155.42 679.793 1161.01 670.407 1169.39 671.005C1177.38 671.604 1182.97 672.603 1186.37 672.803L1188.56 668.809L1189.36 665.614C1189.36 665.814 1189.36 666.013 1189.36 666.613C1189.16 669.408 1188.56 670.806 1186.57 673.004C1192.56 674.4 1190.56 676.199 1194.95 685.984C1198.55 694.772 1212.53 685.984 1220.11 674.203C1224.91 667.013 1228.1 657.228 1233.49 653.432C1234.89 653.633 1235.69 654.63 1236.09 655.63C1238.28 658.225 1238.88 662.419 1244.08 663.418C1241.48 672.204 1242.28 679.394 1244.08 686.583V686.982H1244.28C1246.87 696.567 1250.67 706.753 1250.47 722.128C1246.07 723.127 1237.69 722.527 1233.29 723.726C1232.69 730.316 1228.9 738.503 1229.3 739.103C1234.09 745.092 1237.89 744.894 1245.07 761.27C1245.47 762.268 1247.67 769.456 1247.47 772.452C1238.68 776.446 1242.48 781.638 1248.27 786.231C1243.68 779.241 1243.68 779.241 1251.86 776.645C1253.26 765.462 1252.06 762.068 1256.06 759.471C1262.45 755.277 1259.45 763.466 1265.24 764.064C1278.82 765.063 1286.81 743.495 1289.2 736.506C1293 723.526 1292.8 689.376 1295.2 660.619C1292 651.833 1290.8 644.643 1290.6 639.451C1289.2 624.076 1295 619.68 1291.6 610.096C1286.21 594.12 1273.83 584.134 1267.84 568.958C1263.45 557.174 1262.45 540.6 1248.47 537.205C1239.48 536.006 1264.05 526.62 1238.68 528.019C1233.89 527.62 1227.7 516.235 1213.92 529.417C1213.12 539.8 1219.32 544.593 1213.92 546.99C1204.34 559.571 1202.74 533.811 1201.54 541.198C1199.35 543.795 1202.74 550.384 1199.75 552.381C1194.55 546.791 1201.14 527.42 1178.98 544.992C1167.59 545.591 1180.97 524.223 1183.17 508.847C1185.97 490.675 1183.17 478.092 1184.17 476.696C1190.36 465.313 1186.17 449.936 1187.57 431.964C1188.56 419.182 1196.75 424.574 1201.14 414.59C1201.14 414.59 1208.53 405.602 1216.92 407.2C1214.52 402.807 1216.12 400.41 1219.52 398.013V398.413C1223.51 395.418 1229.9 392.621 1235.49 386.831C1235.49 386.831 1228.9 379.641 1231.7 375.648C1235.49 370.654 1247.87 368.458 1255.46 362.268C1259.65 363.067 1249.67 377.047 1256.86 374.25C1260.85 365.064 1268.64 363.865 1267.04 352.682C1271.24 347.29 1275.63 344.893 1276.63 337.904C1277.03 333.111 1265.44 347.889 1263.45 343.894C1259.85 336.105 1260.05 308.946 1256.06 303.954C1249.07 296.366 1257.86 286.98 1261.45 277.794C1270.63 281.388 1265.64 267.609 1268.24 269.407C1271.43 272.004 1275.83 287.978 1278.42 283.985C1283.41 275.398 1283.81 287.78 1287.21 286.181C1294 283.386 1280.02 269.607 1284.41 260.42C1286.01 257.625 1285.81 254.829 1285.61 252.432C1283.41 244.244 1272.43 239.053 1272.43 238.654C1272.63 234.86 1279.02 222.08 1285.01 223.476C1273.63 243.046 1296.4 247.041 1298.79 253.83C1303.78 268.808 1296.39 273.001 1304.58 295.966C1306.98 301.758 1309.97 312.941 1311.57 322.127C1316.56 343.895 1301.99 341.298 1314.57 351.283C1321.75 357.075 1312.17 363.864 1328.34 381.238C1328.34 381.238 1341.32 397.413 1357.7 405.801C1370.48 412.391 1393.84 427.17 1407.62 434.757C1409.61 420.999 1408.02 411.413 1404.82 403.626ZM108.668 645.061C109.067 645.46 110.065 646.658 111.064 646.658C109.866 646.658 109.267 645.86 108.668 645.061ZM168.374 627.288C169.172 627.886 170.171 628.287 170.77 628.686C169.972 628.287 168.973 627.886 168.374 627.288ZM277.202 560.988C277.401 560.789 277.802 560.588 278 560.39C277.802 560.588 277.402 560.79 277.202 560.988ZM278.401 559.99C278.6 559.99 278.6 559.99 278.401 559.99C281.596 558.593 286.188 559.191 288.984 557.594C285.988 559.59 281.197 558.791 278.401 559.99ZM1288.61 640.069C1288.21 640.27 1287.81 640.27 1287.41 640.27C1287.81 640.27 1288.2 640.069 1288.61 640.069ZM1194.55 658.641H1194.15C1193.95 658.641 1193.75 658.44 1193.75 658.44C1193.95 658.44 1194.15 658.641 1194.55 658.641ZM1193.95 659.041C1193.55 660.239 1192.76 660.838 1192.16 661.238L1193.35 659.84C1193.16 660.039 1193.56 659.439 1193.95 659.041ZM1203.94 531.434L1201.54 520.849L1195.75 527.439C1196.75 528.038 1195.95 529.835 1195.55 530.834L1203.94 531.434ZM1191.16 532.432L1191.56 527.24C1189.96 528.638 1188.96 529.837 1187.96 531.632C1189.36 531.233 1190.76 531.833 1191.16 532.432ZM1320.55 598.332C1316.56 594.139 1318.16 587.747 1313.77 583.155L1314.96 572.77C1317.96 564.981 1327.94 577.163 1336.53 574.966C1325.15 568.775 1325.35 565.58 1317.76 561.586C1305.38 555.396 1291.8 547.208 1284.01 537.623C1272.83 523.045 1272.83 516.853 1256.46 508.866C1255.06 514.058 1262.65 520.648 1252.26 519.451C1245.27 518.853 1261.45 528.636 1262.65 538.223C1265.24 542.216 1265.04 544.014 1267.64 548.008L1270.04 548.208C1283.61 550.605 1300.39 577.164 1306.18 595.137C1324.95 604.124 1324.15 626.29 1342.12 637.673C1342.12 632.482 1335.73 623.494 1337.73 621.298C1340.32 619.101 1342.32 617.303 1345.52 617.703C1348.91 617.904 1350.11 620.499 1355.1 622.298C1351.11 606.32 1326.74 614.906 1320.55 598.332ZM1338.73 268.629L1335.13 266.433C1334.73 266.433 1333.73 267.231 1333.53 268.23C1333.53 269.229 1333.33 270.027 1333.93 270.227L1334.53 276.019C1334.33 277.816 1337.53 279.014 1337.93 281.41C1338.33 282.409 1338.73 283.408 1339.12 283.408C1339.72 281.611 1338.33 276.218 1338.53 273.422C1338.33 271.824 1338.53 270.826 1338.73 268.629ZM370.455 616.703C370.254 616.904 370.056 617.103 370.056 617.503L370.455 616.703ZM1255.66 506.07C1253.86 504.074 1251.66 503.475 1250.47 500.879C1246.67 502.077 1246.07 501.878 1245.87 506.272C1251.26 507.668 1252.26 509.066 1255.66 506.07ZM1417.2 623.893C1415.8 623.693 1415.21 626.089 1415.01 627.886C1415.01 628.886 1415.8 628.886 1416.4 629.484C1417 628.486 1419 625.49 1418.6 625.49C1417.4 625.292 1417.6 623.893 1417.2 623.893ZM59.7457 527.837C59.9446 527.837 59.7457 528.236 59.7457 528.236C59.7457 528.236 59.9446 528.635 59.7457 528.835C59.7457 529.036 59.9446 529.234 60.1449 529.435C60.3437 529.634 60.3437 529.634 60.544 529.634C60.7443 529.634 60.7443 529.435 60.9432 529.235C61.1435 529.036 61.3423 529.036 61.3423 529.036C61.3423 529.036 61.7415 529.036 61.7415 528.835C61.7415 528.835 61.3423 528.436 61.142 528.236C60.9417 528.037 60.7429 528.037 60.7429 528.037C60.7429 528.037 60.5426 527.638 60.3437 527.638C60.3437 527.437 60.3437 527.437 60.3437 527.04C60.1449 526.641 60.1449 526.838 59.9446 526.838C59.7443 526.639 59.7443 526.639 59.7443 526.24C59.7443 526.041 59.5454 526.041 59.5454 525.841C59.5454 525.642 59.5454 525.441 59.3451 525.243C59.1448 525.243 59.1448 525.042 58.946 524.843C58.946 524.645 58.9459 524.645 58.7456 524.444C58.5453 524.245 58.5453 524.245 58.3465 524.245L57.9473 523.846C57.9473 523.846 57.5482 523.447 57.3479 523.248C57.1476 523.048 56.9487 523.048 56.7484 522.849C56.5481 522.649 56.3493 522.849 56.3493 522.849C56.3493 522.849 56.1504 522.849 55.9501 522.849C55.7498 522.849 55.7498 523.049 55.551 523.049C55.3506 523.25 55.3506 523.25 55.3506 523.25H54.9515C54.9515 523.25 54.5523 523.25 54.352 523.049C54.1517 522.849 54.1517 522.849 54.1517 522.849L53.9514 522.45C53.9514 522.251 53.7526 522.251 53.7526 522.051C53.7526 521.85 53.7526 521.85 53.9514 521.451C54.1517 521.052 53.9514 521.252 53.7526 521.052C53.7526 520.853 53.7526 520.853 53.7526 520.653C53.7526 520.453 53.9514 520.453 54.352 520.254C54.7512 520.052 54.352 520.254 54.5509 520.254C54.7512 520.254 54.5509 520.052 54.5509 520.052C54.352 519.853 54.352 520.052 54.1517 519.853C53.9514 519.853 53.7526 520.052 53.7526 520.052C53.7526 520.052 53.5523 520.052 53.3534 520.052C53.1546 520.052 52.9543 520.052 52.7539 520.052C52.5551 520.052 52.5551 520.254 52.3548 520.254C52.156 520.453 52.156 520.254 51.9557 520.254C51.7553 520.254 51.5565 520.254 51.3562 520.254C51.1559 520.052 50.7567 519.854 50.5579 519.654C50.359 519.454 49.7596 519.454 49.3604 519.255C49.1616 519.055 49.3604 519.255 48.9613 519.055C48.5621 518.856 48.761 518.856 48.5621 518.856C48.3618 518.654 48.3618 518.856 48.3618 518.457C48.3618 518.256 48.3618 518.256 48.3618 518.057C48.3618 517.859 48.3618 517.859 48.3618 517.459C48.3618 517.259 48.3618 517.259 48.3618 516.66C48.3618 516.26 48.5621 516.461 48.5621 516.062C48.5621 515.662 48.5621 515.463 48.5621 515.262C48.5621 515.063 48.761 514.263 48.761 513.865C48.9613 513.466 48.761 513.266 48.761 513.067C48.761 512.865 48.761 512.668 48.9613 512.467C49.1616 512.267 49.1616 512.068 49.3604 511.669C49.5607 511.27 49.3604 511.27 49.5607 511.07C49.7611 510.869 49.7611 510.071 49.7611 509.872C49.7611 509.673 49.7611 509.473 49.7611 509.274C49.7611 509.074 49.7611 509.074 49.9599 508.875C49.9599 508.676 49.9599 508.676 50.1602 508.476C50.1602 508.277 50.1602 508.277 50.3605 507.878C50.3605 507.478 50.3605 507.677 50.5594 507.478C50.5594 507.28 50.5594 507.28 50.7597 507.079C50.96 506.88 50.96 506.68 50.96 506.481C50.96 506.282 51.1588 506.082 51.1588 505.883C51.3591 505.683 51.3591 505.484 51.558 505.083C51.7568 504.884 51.558 504.885 51.7568 504.485C51.9571 504.285 51.9571 503.887 52.156 503.686C52.3548 503.487 52.3548 503.286 52.3548 503.286C52.3548 503.086 52.3548 503.086 52.5551 502.687C52.7554 502.288 52.7554 502.288 52.9543 502.089C53.1546 501.69 53.3534 501.888 53.3534 501.888C53.3534 501.888 53.5523 501.489 53.7526 501.289C53.7526 501.09 54.1517 500.691 54.5509 500.492C54.7497 500.093 54.95 500.093 55.1503 499.893C55.3492 499.692 55.1503 499.692 55.1503 499.293C55.1503 498.894 54.7512 499.493 54.352 499.692C53.9529 499.891 53.9529 500.091 53.5537 500.492C53.1546 500.891 53.1546 501.09 53.1546 501.289C52.9543 501.688 52.5551 501.688 52.5551 501.888C52.3548 502.089 52.3548 502.089 52.156 502.288C51.9556 502.488 51.9556 502.488 51.7568 502.886C51.558 503.086 51.558 503.086 51.3577 503.285C51.1573 503.484 50.7582 503.485 50.5594 503.684C50.1602 504.083 50.359 504.083 50.7582 504.284C51.1573 504.484 51.1573 504.284 51.3577 504.284C51.558 504.284 51.3577 504.484 51.1588 505.082C51.1588 505.681 50.9585 505.481 50.5594 506.081C50.1602 506.68 49.7611 507.478 49.7611 507.879C49.7611 508.28 49.7611 508.278 49.7611 508.477C49.7611 508.677 49.7611 508.677 49.5607 508.876C49.3619 509.077 49.3619 509.474 49.3619 510.074C49.1616 510.673 49.3619 510.673 49.1616 510.872C49.1616 511.271 48.7624 511.672 48.7624 512.47C48.5621 513.07 48.3633 513.668 48.163 514.069C47.9627 514.468 47.9627 515.265 47.9627 515.866C47.9627 516.467 47.9627 516.664 47.7624 517.063C47.5635 517.462 47.7624 517.863 47.5635 518.261C47.5635 518.66 47.3632 518.66 47.1644 518.66C46.9655 518.66 46.9655 518.461 46.7652 518.261C46.5649 518.06 46.3661 518.261 45.9669 518.06C45.5678 517.862 45.9669 517.661 46.1672 517.661C46.3675 517.462 46.3675 517.661 46.3675 517.462C46.3675 517.262 46.1672 517.262 46.1672 517.063C46.1672 516.864 45.9669 516.465 45.7681 516.065C45.7681 515.864 45.7681 515.665 45.7681 515.466C45.7681 515.265 45.5678 515.265 45.5678 514.867C45.5678 514.667 45.5678 514.667 45.3674 514.667C45.1686 514.667 44.9683 514.667 44.9683 514.468C44.9683 514.266 44.9683 514.266 44.9683 514.069C44.9683 513.868 44.9683 513.868 44.9683 513.469C44.9683 513.269 44.9683 513.269 44.9683 513.07C44.9683 512.868 45.1686 512.868 44.9683 512.671C44.9683 512.47 45.1686 512.272 45.1686 512.073C45.1686 511.871 45.3674 511.673 45.3674 511.473C45.5678 511.273 45.5678 511.673 45.7666 511.673C46.1657 511.673 45.9654 511.674 46.3661 511.872C46.5649 512.074 46.5649 511.872 46.7652 511.673C46.9655 511.673 46.9655 511.473 47.1644 511.274C47.3647 511.074 47.3647 510.875 47.3647 510.676C47.3647 510.475 47.565 510.277 47.7638 510.277C47.9641 510.077 47.7638 510.077 47.7638 509.878C47.7638 509.878 47.9641 509.679 48.163 509.479C48.3618 509.28 48.163 509.28 48.3618 509.08C48.5621 508.879 48.163 509.08 48.3618 508.68C48.761 508.281 48.3618 508.479 48.3618 508.081C48.3618 507.881 48.163 507.682 47.9627 507.481C47.7624 507.283 47.9627 507.283 47.9627 507.082C47.9627 506.883 47.9627 506.883 47.7624 506.683C47.7624 506.483 47.9627 506.483 47.9627 506.284C48.163 506.082 47.7624 506.082 47.5635 506.082C47.3632 506.082 47.5635 505.883 47.5635 505.683C47.5635 505.483 47.7624 505.683 48.3618 505.483C48.9613 505.483 48.5621 505.282 48.3618 505.282C48.163 505.282 48.163 505.082 47.9627 505.082C47.7624 505.082 47.5635 504.683 47.3632 504.484C47.1629 504.285 46.964 504.284 46.7637 504.085C46.5634 503.886 46.3646 503.686 46.3646 503.487C46.3646 503.087 46.3646 503.487 46.5634 503.487C46.7637 503.487 46.7637 503.487 46.9626 503.686C47.1614 503.887 47.1614 503.887 47.3617 503.887C47.7609 503.887 47.7609 503.887 47.9612 503.887C48.1615 503.887 48.1615 503.488 48.1615 503.488C48.1615 503.488 48.1615 503.488 48.1615 503.288C48.3603 503.087 48.1615 503.087 48.1615 502.889C48.1615 502.687 47.9612 502.687 47.9612 502.687C47.7609 502.687 47.562 502.687 47.3617 502.488C47.1614 502.288 47.1614 502.288 47.1614 502.089C47.3617 501.888 47.1614 502.089 47.3617 501.888C47.562 501.888 47.7609 501.888 47.9612 501.888C48.1615 501.888 48.1615 501.888 48.3603 501.888C48.5607 502.089 48.5607 501.688 48.5607 501.688C48.5607 501.489 48.1615 501.489 47.9612 501.289C47.7609 501.289 47.562 501.09 47.1629 501.09C46.7637 501.09 46.7637 501.09 46.3646 501.09C45.9654 501.09 45.9654 501.09 45.7651 500.89C45.5648 500.689 45.5648 500.89 45.366 500.689C45.366 500.491 45.5648 500.689 45.7651 500.491C46.1643 500.289 45.9654 500.491 46.5634 500.491C46.7637 500.491 46.7637 500.491 47.1629 500.491C47.562 500.491 47.3632 500.491 47.562 500.689C47.7609 500.89 47.9612 500.89 48.1615 500.89C48.3603 500.89 48.5607 500.689 48.761 500.491C48.9598 500.289 48.9598 500.289 49.1601 500.289C49.3604 500.09 49.1601 499.89 49.1601 499.89C48.9598 499.689 49.1601 499.49 49.1601 499.29C49.1601 499.091 48.9598 499.091 48.9598 499.091C48.9598 499.091 48.761 499.29 48.5607 499.29C48.3603 499.49 48.5607 499.49 48.3603 499.89C48.1615 500.09 47.9612 499.89 47.9612 499.689C47.9612 499.489 47.562 499.489 47.3617 499.489C47.1614 499.489 46.9626 499.689 46.7623 499.689C46.562 499.689 46.562 499.489 46.7623 499.29C46.9626 499.091 46.9626 498.891 47.3617 498.692C47.7609 498.493 47.562 498.094 47.562 498.094C47.562 497.892 47.562 497.695 47.562 497.495C47.562 497.294 47.7609 497.095 47.7609 496.895C47.9612 496.696 47.7609 496.297 47.7609 496.097C47.7609 495.896 47.562 495.697 47.562 495.497C47.562 495.298 47.3617 495.298 47.1629 495.098C46.9641 495.098 47.1629 494.898 46.9641 494.699C46.9641 494.497 46.7637 494.497 46.5649 494.099C46.3661 493.7 46.3661 493.5 46.3661 492.701C46.3661 491.903 46.3661 492.102 46.1657 491.903C45.9654 491.703 45.7666 491.305 45.5663 491.103C45.366 490.904 45.366 490.904 45.366 490.505C45.366 490.106 45.366 490.106 45.366 489.907C45.366 489.705 45.366 489.705 45.366 489.508C45.366 489.308 45.366 489.308 45.366 489.109C45.366 488.91 45.5663 488.71 45.5663 488.511C45.5663 488.311 45.5663 488.31 45.366 488.31C45.1671 488.11 45.366 488.11 45.366 487.711C45.366 487.512 45.366 487.512 45.366 487.113C45.366 486.714 45.1671 486.913 44.7665 486.913C44.3674 486.913 44.167 486.712 43.7679 486.513C43.3687 486.312 43.3687 486.312 42.9696 486.312C42.5704 486.113 42.7693 486.312 42.7693 486.513C42.569 486.513 42.569 486.913 42.3701 487.111C42.3701 487.312 42.3701 487.312 42.1698 487.511C41.9695 487.91 42.1698 487.511 41.7707 487.511C41.3715 487.511 41.5704 487.511 41.3715 487.71C41.1727 487.91 41.3715 487.91 41.5718 488.309C41.7721 488.708 41.5718 488.708 41.1727 488.708C41.1727 488.708 40.9724 488.708 40.9724 488.509C40.7721 488.509 40.7721 488.509 40.5732 488.509C40.3729 488.509 40.3729 488.509 40.1741 488.708C39.9752 488.708 39.9752 488.91 39.7749 489.107C39.5746 489.507 39.7749 489.107 39.9752 489.308C40.1741 489.508 40.3744 489.508 40.5747 489.707C40.7735 489.909 40.7735 489.909 40.9738 490.106C41.1741 490.306 40.9738 490.306 40.9738 490.706C40.9738 490.906 40.9738 491.105 40.9738 491.504C40.9738 491.903 40.7735 491.704 40.5747 491.903C40.3744 492.102 40.3744 491.903 40.1755 492.102C39.9767 492.304 40.1755 492.102 39.9767 492.304C39.7764 492.503 39.7764 492.304 39.3772 492.304C38.9781 492.304 39.3772 491.905 39.5761 491.905C39.9752 491.704 39.7764 491.905 39.9752 491.704C40.1741 491.504 39.9752 491.504 40.1741 491.504C40.3744 491.305 40.3744 491.305 40.1741 491.105C39.9752 490.906 39.9752 491.105 39.7749 491.307C39.5746 491.505 39.5746 491.105 39.7749 490.907C39.7749 490.707 39.5746 490.907 39.3758 491.106C39.1754 491.106 39.1754 491.308 38.7763 491.706C38.576 492.105 38.3771 491.706 38.1768 491.706C37.9765 491.505 38.3771 491.505 38.576 491.505C38.7763 491.505 38.7763 491.307 38.7763 490.907C38.9766 490.508 38.7763 490.308 38.576 490.308C38.3771 490.308 38.3771 490.308 38.3771 490.308C38.1768 490.308 38.1768 490.308 37.978 490.308C37.7792 490.308 37.7792 490.508 37.3785 490.508C36.9794 490.508 37.3785 490.508 37.3785 490.308C37.3785 490.108 37.3785 490.108 37.1797 489.708C37.1797 489.309 36.9794 489.509 36.7805 489.509C36.5817 489.509 36.5817 489.708 36.3814 489.708C36.1811 489.708 36.1811 489.509 36.1811 489.309C36.1811 489.109 36.1811 489.109 35.9822 488.91C35.7819 488.708 35.5831 488.91 35.3828 488.91C35.1825 488.91 34.9836 488.708 34.7833 488.708C34.583 488.708 34.3842 488.509 33.7847 488.309C33.1852 488.109 33.3855 488.309 33.1852 487.71C32.9864 487.111 32.5858 487.511 32.5858 487.511C32.5858 487.511 32.5858 487.511 32.3869 487.511C32.1866 487.511 32.1866 487.511 31.7875 487.31C31.3883 487.11 31.5872 487.11 31.3883 487.11C31.1895 487.11 30.9892 486.91 30.7903 486.91C30.59 486.91 30.1909 486.91 29.992 486.709C29.7917 486.709 29.5929 486.511 29.1937 486.511C28.9949 486.309 28.3954 486.309 28.1951 486.309C27.9948 486.309 27.796 486.309 27.1965 486.11C26.597 485.91 26.7973 486.11 26.9962 486.309C27.1965 486.51 27.1965 486.908 26.9962 486.908C26.7959 486.908 26.597 486.708 26.3967 486.509C26.1964 486.307 25.9976 486.509 25.5984 486.509C25.1993 486.509 25.3981 486.11 25.3981 486.11C25.3981 486.11 25.7973 485.909 25.3981 485.909C24.999 485.909 24.999 485.709 24.999 485.709C24.5998 485.709 24.7986 485.709 24.3995 485.51C24.0003 485.309 24.1992 485.309 24.0003 485.309C23.6012 485.11 23.6012 485.11 23.4009 485.11C23.202 485.11 23.0017 484.909 22.8014 484.909C22.6026 484.709 22.202 484.709 22.0031 484.709C21.8028 484.709 20.8057 484.709 20.405 484.909C20.0059 484.909 20.405 485.11 20.6053 485.509C20.6053 485.708 20.405 485.509 20.2062 485.509C20.0059 485.509 19.6067 485.708 19.807 485.908C20.0059 486.108 20.0059 486.108 20.2062 486.307C20.405 486.509 20.405 486.706 20.405 486.907C20.6053 487.107 20.6053 487.107 20.6053 487.506C20.6053 487.905 20.8057 487.705 21.0045 487.905C21.2048 487.905 21.2048 487.905 21.4036 487.905C21.6025 487.905 21.8028 488.106 22.0031 488.106C22.202 488.106 22.4023 488.505 22.6026 488.505C22.8014 488.505 23.202 489.103 23.4009 489.504C23.6012 489.702 23.6012 489.903 23.8 490.102C23.9989 490.501 23.9989 490.501 24.1992 490.901C24.3995 491.1 24.1992 491.1 24.5983 491.1C24.7986 491.302 24.7986 491.302 25.1978 491.302C25.3981 491.302 25.5969 491.501 25.7973 491.701C25.9976 491.701 26.1964 491.902 26.3967 491.902C26.597 491.902 26.9962 491.902 27.195 491.902C27.3939 491.902 27.7945 491.902 27.9933 492.1C28.1936 492.302 27.7945 492.302 27.7945 492.302C27.7945 492.302 26.7959 492.1 26.597 492.1C26.3967 492.1 25.9976 492.101 25.5984 491.902C25.1993 491.701 24.999 492.1 24.999 492.1L24.401 491.902C24.2007 491.902 24.2007 491.902 24.0018 492.1C23.803 492.1 23.803 492.302 23.803 492.5C23.803 492.7 23.803 492.5 24.0018 492.5C24.2021 492.5 24.0018 492.5 24.2021 492.5C24.4024 492.5 24.2021 492.7 24.2021 492.899C24.2021 493.098 23.803 493.099 23.803 493.298C23.803 493.497 23.4038 493.697 23.4038 493.697V494.297C23.4038 494.297 23.4038 494.895 23.4038 495.095C23.4038 495.295 23.4038 495.494 23.4038 495.494L23.6041 495.893V496.493C23.6041 496.693 23.4038 496.693 23.4038 496.892C23.4038 497.094 23.6041 497.094 23.6041 497.094H24.2036C24.2036 497.094 24.4039 497.094 24.4039 497.293C24.6028 497.293 24.6028 497.293 24.8031 497.293L25.0034 497.094H25.2022C25.2022 497.094 25.4025 497.094 25.6014 497.094C25.8002 497.094 25.8002 497.094 25.8002 497.293V497.692L26.0005 497.891C26.0005 497.891 26.2008 498.093 26.3997 498.093C26.6 498.291 26.6 498.291 26.7988 498.291C26.9991 498.291 27.198 498.492 27.3983 498.492C27.5986 498.492 27.5986 498.692 27.7974 498.891C27.9963 499.091 27.9963 499.091 27.9963 499.29C27.9963 499.49 27.7974 499.49 27.7974 499.49C27.7974 499.49 27.5971 499.49 27.3983 499.49C27.1994 499.49 27.3983 499.49 27.1994 499.49C26.9991 499.49 27.1994 499.89 27.1994 499.89L26.9991 500.09H26.7973C26.7973 500.09 26.5985 500.09 26.5985 500.289C26.3982 500.289 26.1994 500.289 26.1994 500.289L26.0005 500.09C26.0005 500.09 25.8002 500.09 25.8002 500.289C25.8002 500.289 25.5999 500.491 25.8002 500.688L26.0005 500.888L26.3997 501.089L26.6 501.287C26.6 501.287 26.7988 501.489 26.7988 501.687C26.9991 501.887 26.6 502.086 26.6 502.086L26.3997 501.687C26.3997 501.687 26.1994 501.488 26.0005 501.488C25.8002 501.488 25.8002 501.687 25.8002 501.687V501.887C25.8002 501.887 25.8002 502.087 25.5999 502.087V502.288C25.5999 502.288 25.8002 502.488 25.8002 502.687C26.0005 502.887 25.8002 502.887 26.0005 503.286C26.0005 503.487 25.6014 503.286 25.4011 503.086C25.2007 502.886 25.2007 502.687 25.0019 502.687C24.8016 502.687 24.8016 502.887 24.8016 503.086C24.8016 503.285 24.6013 503.485 24.6013 503.485C24.6013 503.485 24.4024 503.485 24.0018 503.684C23.6027 503.684 23.803 503.886 23.6027 503.886C23.6027 503.886 23.4024 504.285 23.2035 504.484C23.0032 504.683 22.8044 504.683 22.8044 504.883C22.6055 505.082 22.0061 505.481 22.0061 505.481H21.8057H21.6054C21.4066 505.481 21.4066 505.281 21.4066 505.281C21.2063 505.281 21.4066 505.281 21.0074 505.281C20.8086 505.281 20.6083 505.481 20.6083 505.481L20.408 505.681C20.2091 505.681 20.2091 505.882 20.0088 506.081C19.8085 506.081 19.6097 506.48 19.6097 506.48C19.6097 506.48 19.4094 506.68 19.2105 506.68C19.2105 506.68 19.0117 506.88 18.8114 507.079C18.8114 507.281 18.6125 507.281 18.4122 507.478C18.2119 507.679 18.2119 507.679 18.0131 507.679C17.8128 507.679 17.8128 507.679 17.8128 507.679C17.8128 507.679 17.4136 507.679 17.4136 507.879L17.6124 508.079L17.8128 508.479C17.8128 508.479 17.8128 508.679 17.8128 508.878C17.8128 509.077 17.6124 509.078 17.6124 509.078H17.4121C17.2118 509.078 17.4121 508.679 17.4121 508.679C17.4121 508.679 17.4121 508.679 17.2118 508.479C17.0115 508.28 17.0115 508.28 17.0115 508.28C17.0115 508.28 17.0115 508.079 17.0115 507.881C17.0115 507.682 16.8127 507.68 16.8127 507.68C16.8127 507.68 16.6124 507.68 16.4135 507.48C16.2147 507.281 16.2147 507.48 16.0144 507.48C15.8141 507.48 15.8141 507.48 15.8141 507.281C15.8141 507.079 15.4149 507.079 15.4149 507.079L15.2146 507.478C15.2146 507.478 15.2146 508.278 15.2146 508.477C15.2146 508.677 15.4149 508.677 15.2146 509.077C15.0158 509.277 14.8154 509.476 15.2146 509.476C15.4149 509.476 15.2146 509.678 15.2146 509.678C15.2146 509.678 15.0158 509.876 15.2146 510.077C15.2146 510.077 15.4149 510.277 15.6137 510.277L15.8126 510.476C15.8126 510.476 15.8126 510.678 16.0129 510.678C16.2132 510.877 16.0129 511.077 16.0129 511.077C16.0129 511.077 16.0129 511.277 16.0129 511.476C16.0129 511.675 16.0129 511.676 16.0129 511.676C16.0129 511.676 15.8126 511.875 15.6137 511.875C15.4134 512.077 15.6137 511.875 15.4134 512.077C15.2131 512.276 15.4134 512.276 15.4134 512.476C15.4134 512.677 15.4134 512.677 15.4134 512.875C15.4134 512.875 15.4134 513.077 15.2131 513.275C15.2131 513.475 15.2131 513.475 15.2131 513.874C15.2131 514.074 15.4134 514.074 15.6123 514.273C15.8111 514.474 15.6123 514.273 15.8111 514.474C16.2103 514.674 16.2103 514.674 16.4106 514.674C16.6109 514.674 16.6109 514.874 16.6109 514.874C16.6109 515.075 16.6109 515.075 16.8112 515.474C17.01 515.673 17.01 515.873 17.01 515.873C17.01 516.073 17.8083 516.671 17.8083 516.671H18.2075C18.2075 516.671 18.4078 516.671 18.6066 516.671C18.8055 516.671 18.8055 516.872 19.0058 516.872C19.2046 516.872 19.0058 516.872 19.4049 517.271C19.4049 517.271 19.6053 517.271 19.8041 517.271C20.0044 517.271 20.0044 517.271 20.0044 517.271C20.0044 517.271 20.2047 517.071 20.4036 517.071C20.8027 516.87 20.6039 517.071 21.003 516.87C21.003 516.87 21.2033 517.071 21.2033 517.269C21.2033 517.468 21.6025 517.669 21.8028 517.869C22.0031 518.068 22.0031 517.869 22.202 517.869C22.4023 517.869 22.4023 517.869 22.6011 517.869C22.7999 517.869 23.0003 517.869 23.2006 517.869C23.3994 517.869 23.2006 517.869 23.3994 517.869C23.5997 517.869 23.5997 518.068 23.7986 518.068C23.9974 518.068 23.9974 518.068 24.398 517.869C24.398 517.869 24.5969 517.869 24.7972 517.667C24.9975 517.667 24.9975 517.667 25.1963 517.468C25.3966 517.268 25.3966 517.468 25.3966 517.468L25.7958 517.268H26.7944C26.7944 517.268 27.1936 517.268 27.3939 517.268C27.5942 517.268 27.9933 517.268 27.9933 517.268L28.5928 517.468L29.1923 517.667L29.9906 517.869L31.188 518.467C31.3883 518.467 31.5872 518.666 31.5872 518.666H31.9863L32.1866 518.868L32.3869 519.066C32.3869 519.066 32.5858 519.267 32.7861 519.267C32.9864 519.267 32.7861 519.267 32.7861 519.467C32.9864 519.667 32.7861 519.467 32.7861 519.866H32.9864V520.065C32.9864 520.065 33.1852 520.265 33.1852 520.464C33.3855 520.665 33.1852 520.665 33.3855 520.464C33.5859 520.464 33.5859 520.464 33.7847 520.464C33.985 520.464 33.985 520.665 33.985 520.665C34.1853 520.665 34.1853 520.665 34.1853 520.665C34.3842 520.665 34.3842 520.865 34.3842 520.865L34.5845 521.264V521.463C34.5845 521.463 34.3842 521.663 34.5845 521.663C34.5845 521.663 34.5845 521.864 34.7848 522.062C34.7848 522.264 34.5845 522.264 34.5845 522.462C34.5845 522.662 34.7848 522.662 34.7848 522.662C34.7848 522.662 35.1839 522.662 35.3842 522.662C35.5831 522.662 35.7834 522.462 36.3829 522.263C36.782 522.061 37.7806 522.263 37.7806 522.263L38.1798 522.462C38.1798 522.462 38.1798 522.462 38.3801 522.462C38.5789 522.462 38.3801 522.462 38.5789 522.263V522.061C38.5789 521.862 38.5789 521.862 38.7792 521.862C38.9796 521.862 38.9796 521.862 39.1784 521.862C39.3787 521.862 39.3787 521.862 39.3787 521.862C39.579 521.862 39.3787 522.261 39.3787 522.261L39.579 522.661L39.9782 523.06V523.459C39.9782 523.459 40.1785 523.661 40.1785 523.459C40.1785 523.26 40.3773 523.06 40.3773 523.06L40.7765 522.859C40.7765 522.859 41.1756 523.06 41.3759 523.06C41.7751 523.26 41.5748 522.859 41.3759 522.661C41.1756 522.661 41.1756 522.261 41.1756 522.061C41.1756 522.061 41.3759 521.862 41.3759 521.662C41.3759 521.662 41.5748 521.662 41.7751 521.662C41.9754 521.662 42.3745 521.662 42.5734 521.862C42.7737 521.862 43.3717 522.061 43.572 522.061C43.7708 522.061 44.1715 522.263 44.1715 522.46L45.3689 523.659C45.3689 523.858 45.7681 524.658 45.7681 524.855C45.7681 524.855 45.7681 526.253 45.9684 526.253C46.1672 526.453 45.7681 526.851 45.7681 527.053C45.7681 527.252 45.7681 527.252 45.5678 527.452C45.5678 527.652 45.5678 527.652 45.5678 528.052C45.5678 528.451 45.5678 528.052 45.7681 528.25C45.9684 528.451 45.7681 528.25 45.9684 528.25C46.1672 528.25 46.1672 528.25 46.3675 528.451C46.5678 528.451 46.3675 528.451 46.7667 528.651C47.1658 528.851 46.7667 528.651 46.967 528.852C47.1673 529.052 46.967 528.851 46.967 529.052C46.967 529.251 47.1673 529.251 47.1673 529.251C47.3661 529.251 47.1673 529.251 47.3661 529.251C47.5665 529.251 47.3661 529.251 47.5665 529.251C47.7668 529.251 47.5665 529.251 47.7668 529.251C47.9656 529.251 47.9656 529.251 48.1659 529.452C48.3662 529.452 48.3662 529.452 48.3662 529.651C48.5651 529.852 48.5651 529.852 48.7654 530.051C48.7654 530.051 48.9657 530.05 48.9657 529.85C48.9657 529.65 49.1645 529.65 49.1645 529.65C49.1645 529.451 49.3648 529.451 49.5637 529.451C49.7625 529.451 49.5637 529.65 49.5637 529.65C49.5637 529.65 51.5594 528.252 51.3606 528.252C51.1618 528.452 51.3606 528.252 51.3606 528.452C51.3606 528.653 51.3606 528.452 51.5609 528.653C51.7612 528.853 51.5609 528.653 51.5609 528.853C51.5609 529.053 51.5609 528.853 51.3606 529.252C51.1618 529.651 51.3606 529.252 51.5609 529.454C51.7612 529.653 51.5609 529.853 51.5609 530.251C51.5609 530.65 51.7612 530.453 51.9601 530.453C52.1604 530.453 52.3592 530.453 52.5595 530.651C52.7598 530.651 52.7598 531.051 52.9587 531.251C53.1575 531.451 53.3578 531.65 53.3578 531.65H53.5581C53.757 531.65 53.9573 531.65 53.9573 531.65L54.3564 531.85C54.3564 531.85 54.5568 532.051 54.7556 531.85C54.9544 531.85 54.7556 531.65 54.7556 531.253C54.7556 531.052 54.9544 531.052 54.9544 531.052C54.9544 531.052 54.9544 530.852 55.1547 530.852C55.1547 530.651 55.3551 530.651 55.3551 530.651V530.453C55.3551 530.453 55.1547 530.453 55.1547 530.251C55.1547 530.251 55.1547 530.052 55.1547 529.852L54.9544 529.651C54.9544 529.651 54.7556 529.452 54.7556 529.252C54.7556 529.252 54.5553 529.053 54.5553 528.853C54.5553 528.653 54.5553 528.653 54.7556 528.653C54.9544 528.653 54.9544 528.653 54.9544 528.853C54.9544 528.853 54.9544 529.452 55.1547 529.452C55.3551 529.452 55.5539 529.651 55.5539 529.651H55.7542C55.7542 529.651 56.1534 529.452 56.3537 529.252C56.554 529.053 56.3537 529.252 56.554 529.252C56.7528 529.252 56.9531 529.252 56.9531 529.252L57.152 529.053C57.152 529.053 57.3523 529.053 57.5511 528.853C57.75 528.853 57.75 528.853 58.1506 528.853C58.3494 528.853 58.5497 528.853 58.5497 528.853L58.7501 528.653C58.7501 528.653 58.7501 528.452 58.7501 528.055C58.7501 527.853 58.7501 527.853 58.7501 527.853C58.7501 527.853 58.7501 527.654 58.9489 527.654C58.9489 527.654 59.1492 527.654 59.348 527.654C59.5454 527.837 59.5454 527.837 59.7457 527.837ZM1419 557.594C1418.8 560.39 1418.2 562.187 1418 565.183C1417.6 569.376 1419.4 571.972 1420.6 574.769C1421 574.769 1422.99 569.176 1422.99 568.777C1423.19 567.379 1423.39 563.586 1423.59 560.391C1423.79 556.994 1419.2 554.399 1419 557.594ZM1422.59 528.038C1422.39 530.435 1424.59 531.434 1424.59 533.03L1424.39 535.826C1424.39 535.826 1425.19 536.825 1425.79 536.825C1426.79 536.825 1426.79 536.025 1426.99 534.629C1427.38 530.435 1425.59 528.837 1424.39 526.44C1423.79 526.24 1422.79 527.239 1422.59 528.038ZM1400.43 626.29C1400.23 628.088 1400.63 628.686 1401.03 629.685C1402.03 634.478 1401.03 640.667 1407.22 641.068L1407.42 639.67C1406.62 638.671 1404.82 635.677 1405.02 633.878C1405.22 630.483 1405.22 630.483 1405.62 627.288C1405.82 625.89 1407.42 622.695 1408.02 621.697L1408.22 618.302C1404.22 619.1 1400.63 621.697 1400.43 626.29ZM1414.41 592.34C1414.61 589.544 1416.6 589.145 1416.8 585.95C1416.8 584.952 1416 583.155 1415.21 582.954C1411.41 582.754 1413.61 591.341 1408.02 590.942C1408.02 591.341 1408.02 591.941 1407.82 592.34C1407.62 594.139 1408.61 595.335 1408.42 596.733C1408.22 598.531 1408.02 601.526 1407.82 604.321C1408.22 605.32 1407.02 608.515 1408.42 610.113C1408.81 610.711 1410.21 610.314 1410.21 611.711C1410.01 614.108 1409.41 615.905 1411.21 616.902C1411.41 614.506 1412.81 613.707 1413.21 610.912C1413.41 608.515 1411.61 606.519 1411.81 604.123C1412.01 602.326 1414.8 601.926 1415.01 599.73C1415.01 596.734 1414.01 595.735 1414.41 592.34ZM1402.43 447.96C1402.63 446.562 1402.63 446.562 1402.63 444.763C1401.63 444.763 1400.83 444.165 1400.23 444.165C1399.83 444.165 1398.23 445.363 1398.23 446.361C1398.23 446.76 1400.43 447.96 1401.03 447.96C1401.43 447.759 1401.83 447.759 1402.43 447.96ZM598.894 75.3205C598.495 79.5141 602.488 78.5154 605.683 78.7157C606.082 78.7157 606.681 78.7157 607.48 78.9145C607.48 79.9132 608.278 80.9119 609.676 80.9119C610.674 80.9119 610.075 76.7183 610.075 76.7183C609.676 76.1188 607.877 75.1216 607.877 75.1216L601.687 74.7224C600.688 74.1229 599.89 74.1229 599.491 73.5249C598.495 74.5221 599.095 74.5221 598.894 75.3205ZM615.268 98.4861C615.068 100.283 616.466 100.482 617.464 101.082H618.463C618.663 98.685 620.659 96.4887 620.859 95.0909C620.46 95.0909 619.861 94.4914 619.462 94.4914C619.462 94.4914 618.463 94.8906 618.064 95.2897C616.267 95.6904 615.268 96.4887 615.268 98.4861ZM605.484 82.5101C604.485 82.5101 603.886 83.908 602.488 83.7076C601.09 83.5088 600.691 83.5088 600.292 82.5101C599.294 83.3085 599.095 84.7063 599.095 85.705C598.894 88.5007 598.894 89.4994 600.691 89.6983C603.487 89.8971 604.684 87.1014 605.683 87.3017C606.082 87.3017 607.081 88.3004 607.48 88.3004C608.478 88.3004 609.076 86.5034 610.476 86.7037C611.474 86.7037 613.67 86.904 614.27 86.904C617.665 87.1029 617.065 87.5035 618.663 84.9067V83.908C617.665 83.908 616.267 83.7076 616.467 82.7104C616.666 79.9147 617.067 81.3126 616.666 78.916C616.267 78.916 615.668 78.916 615.268 78.7172C612.473 78.5168 611.474 84.509 608.679 84.3086C607.281 84.5075 606.882 82.7104 605.484 82.5101ZM625.253 109.27C625.652 109.27 633.241 103.678 630.044 103.478C628.247 102.879 624.253 105.475 624.054 107.272C623.855 108.071 624.852 109.07 625.253 109.27ZM633.24 116.059C633.04 117.457 634.039 118.056 634.438 118.056C635.836 118.257 636.434 117.258 636.434 116.259C636.434 115.86 635.635 115.26 635.635 114.861C634.239 114.661 633.439 114.661 633.24 116.059ZM639.63 88.1016C641.427 88.3004 641.226 85.9039 642.225 85.9039C643.224 85.9039 644.022 86.1042 645.021 86.1042C645.42 86.1042 646.418 86.3045 646.619 84.3072C646.818 82.9093 645.82 81.9106 645.021 81.7103C644.022 81.7103 643.424 83.1081 643.424 84.506C643.025 84.506 642.026 83.9065 641.627 83.5073L636.836 83.1081V84.1068C636.634 85.9053 637.833 87.9012 639.63 88.1016ZM635.637 98.0869C635.637 98.0869 636.036 98.0869 637.035 98.2873C637.235 96.8894 638.033 96.8894 638.232 95.4915C638.232 95.0924 637.434 93.4942 637.434 93.095C637.434 92.6958 638.033 91.6971 638.033 91.2979C638.234 89.9001 636.236 89.7012 636.236 89.7012C632.442 89.5009 633.641 86.1071 631.245 85.9068C630.246 85.9068 630.645 86.9055 630.645 87.3047C630.443 90.697 632.242 97.8866 635.637 98.0869ZM637.432 105.475C637.033 105.475 636.434 105.475 636.434 105.475C635.435 105.475 635.635 104.078 634.637 103.877C632.24 103.678 629.046 107.672 629.046 109.07C629.046 110.068 629.246 111.466 630.243 111.466C632.64 111.666 633.837 108.871 636.035 109.07C636.434 109.07 637.033 108.271 637.033 107.672C637.233 106.873 637.432 105.875 637.432 105.475ZM532.799 293.791C532.199 295.588 527.807 296.787 527.607 298.983C527.607 299.982 533.797 309.967 534.395 309.967C536.792 310.168 538.789 307.97 538.988 305.575C538.988 304.576 537.391 300.782 535.992 300.581C534.993 300.581 536.192 297.186 536.192 297.186C536.393 295.989 533.597 294.99 532.799 293.791ZM99.0835 282.409L100.082 281.611C102.677 279.414 108.669 280.014 109.267 273.822C109.067 269.628 108.07 266.233 106.672 263.238C106.273 262.239 105.873 261.441 105.474 260.641C106.672 259.643 107.67 258.645 108.07 257.645C106.672 257.446 103.876 257.246 103.876 257.246C101.68 257.046 100.082 256.647 98.8846 256.247C98.4855 256.047 98.0863 255.648 97.886 255.449C97.886 255.649 97.886 255.649 97.886 255.848C94.6913 254.45 94.2922 252.653 90.8972 254.45C88.5008 255.648 85.7053 255.05 87.103 259.843C89.8971 268.43 95.8888 275.42 99.0835 282.409ZM507.04 263.437C507.439 263.437 508.836 263.637 509.037 262.639C509.237 260.242 509.237 260.242 509.436 257.846C509.636 255.449 509.237 253.652 507.04 253.452C505.243 253.253 505.243 253.253 505.044 255.249C504.843 257.645 506.64 259.242 506.442 261.04C506.241 262.438 505.241 263.238 507.04 263.437ZM544.98 228.09C546.776 229.088 546.177 231.086 546.576 232.883C546.975 234.879 551.568 236.078 553.964 236.278C556.76 236.478 555.761 232.085 555.961 229.888C557.758 230.488 558.757 231.485 560.155 231.685C560.754 229.289 559.156 227.293 559.755 225.894C560.554 227.291 561.353 229.289 562.751 229.488C564.548 229.688 564.749 227.691 564.749 226.891C564.947 224.494 563.551 224.494 564.947 223.096C565.347 224.095 566.744 225.692 567.145 225.692C569.541 225.892 572.337 219.501 573.933 218.702C574.732 219.701 575.131 220.7 576.529 220.9C577.926 221.099 577.726 218.702 579.125 218.702C580.124 218.702 584.317 219.102 586.314 218.303C587.712 217.505 587.113 215.108 588.91 214.709C596.298 211.913 600.092 212.313 609.477 211.115L625.053 212.313C631.841 209.918 641.028 208.719 641.826 198.933C642.425 192.343 633.04 191.146 632.84 192.145C629.445 193.342 628.647 197.537 626.649 197.736C625.252 198.135 622.855 196.938 622.057 196.938C618.263 196.737 615.668 198.735 612.473 198.534C607.281 198.135 605.284 193.142 600.092 192.743L599.892 195.139L589.109 194.341C585.714 195.538 583.716 197.136 580.722 197.935C579.723 198.334 579.524 201.13 578.127 201.13C577.728 201.13 575.53 198.932 575.53 198.932C573.534 200.729 572.935 201.13 571.138 201.329C570.739 199.333 569.74 199.732 567.943 199.732L567.744 203.127C568.743 203.727 569.142 204.126 569.541 205.124C568.144 204.924 566.746 204.924 565.348 204.725C565.547 207.122 566.545 207.721 567.344 210.118C565.547 209.919 564.548 208.92 564.149 207.922L561.753 207.721C561.552 210.118 561.953 210.517 561.353 211.915C560.355 212.314 558.957 211.715 558.957 211.715C556.162 211.516 557.16 215.309 555.562 217.705C554.164 216.109 552.965 214.709 551.569 214.51C548.374 214.31 542.383 216.107 542.184 218.504C542.184 219.502 547.575 223.096 548.375 224.095C546.977 223.895 544.98 223.895 544.98 223.895C543.981 223.895 541.785 223.096 541.584 225.493C541.185 227.691 543.582 226.892 544.98 228.09ZM459.115 283.009C461.91 283.207 463.507 282.01 465.305 282.01C468.101 282.21 469.1 282.21 470.497 282.409C470.896 282.409 472.894 282.608 473.094 280.612C473.294 279.214 471.897 277.217 471.097 277.217C470.098 277.217 468.301 270.826 467.902 269.827C463.709 270.027 457.717 272.424 457.318 278.414C456.919 281.41 456.718 282.808 459.115 283.009ZM514.827 255.449C513.629 259.643 514.626 257.246 514.428 261.04C514.227 263.836 510.433 263.637 510.234 266.433C509.635 274.421 520.618 279.014 525.61 282.808L528.405 283.009C528.006 276.818 526.809 273.422 527.407 265.834C528.804 248.859 535.993 247.461 543.981 240.671C542.982 240.072 542.583 239.672 542.583 239.074C544.58 238.675 547.376 238.075 547.975 237.676C545.978 234.281 543.582 233.083 542.982 228.689C540.586 228.49 536.992 226.892 536.992 226.293C535.594 225.294 535.195 225.294 533.797 224.696C532.6 226.892 532 229.289 531.002 231.086C529.205 230.486 528.405 228.89 526.409 228.89L523.014 228.689L522.814 231.086C523.612 233.083 524.411 234.082 525.81 235.48C524.811 235.48 520.618 235.48 520.019 236.878C518.422 238.675 519.22 241.47 516.425 241.272C514.628 241.071 514.229 238.275 512.831 238.077C509.037 237.876 506.841 242.27 506.442 246.065C506.241 251.456 512.43 254.85 514.827 255.449ZM628.247 271.026L628.448 268.629C626.651 268.43 626.651 268.43 625.652 268.43C623.256 268.23 619.462 269.828 619.062 273.222C618.862 274.62 621.259 275.819 622.257 275.819C625.053 276.019 626.649 275.219 629.246 276.418L629.445 274.022C628.047 273.822 627.249 272.824 626.649 272.824C627.648 272.424 628.247 271.425 628.247 271.026Z" fill="url(#paint0_linear)" fill-opacity="0.4"/>
</g>
<path d="M296.53 528.72C305.48 441.743 283.336 347.92 243.296 289.688" stroke="#2F97BC" stroke-opacity="0.5" stroke-linecap="round" stroke-linejoin="round"/>
<path d="M296.53 528.72C305.48 441.743 283.336 347.92 243.296 289.688" stroke="url(#paint1_linear)" stroke-linecap="round" stroke-linejoin="round"/>
<path d="M296.53 525.481C317.264 483.013 328.429 414.942 305.245 369.989" stroke="#2F97BC" stroke-opacity="0.5" stroke-linecap="round" stroke-linejoin="round"/>
<path d="M296.53 525.481C317.264 483.013 328.429 414.942 305.245 369.989" stroke="url(#paint2_linear)" stroke-linecap="round" stroke-linejoin="round"/>
<path d="M295.814 527.391C326.284 491.322 372.512 457.578 361.293 408.593" stroke="#2F97BC" stroke-opacity="0.5" stroke-linecap="round" stroke-linejoin="round"/>
<path d="M295.814 527.391C326.284 491.322 372.512 457.578 361.293 408.593" stroke="url(#paint3_linear)" stroke-linecap="round" stroke-linejoin="round"/>
<path d="M295.646 528.904C439.489 523.732 655.131 587.43 739.047 702.231" stroke="#2F97BC" stroke-opacity="0.5" stroke-linecap="round" stroke-linejoin="round"/>
<path d="M295.646 528.904C439.489 523.732 655.131 587.43 739.047 702.231" stroke="url(#paint4_linear)" stroke-linecap="round" stroke-linejoin="round"/>
<path d="M295.646 528.903C319.293 549.093 358.793 568.093 424.293 578.093" stroke="#2F97BC" stroke-opacity="0.5" stroke-linecap="round" stroke-linejoin="round"/>
<path d="M295.646 528.903C319.293 549.093 358.793 568.093 424.293 578.093" stroke="url(#paint5_linear)" stroke-linecap="round" stroke-linejoin="round"/>
<path d="M856.293 574.593C751.293 512.093 414.455 454.563 295.646 528.904C591.293 795.593 1135.29 760.593 1267.79 749.593" stroke="#2F97BC" stroke-opacity="0.5" stroke-linecap="round" stroke-linejoin="round"/>
<path d="M856.293 574.593C751.293 512.093 414.455 454.563 295.646 528.904C591.293 795.593 1135.29 760.593 1267.79 749.593" stroke="url(#paint6_linear)" stroke-linecap="round" stroke-linejoin="round"/>
<path d="M1239.29 642.593C986.595 412.525 459.832 432.778 295.646 528.905C446.632 480.867 827.567 591.42 911.483 706.221" stroke="#2F97BC" stroke-opacity="0.5" stroke-linecap="round" stroke-linejoin="round"/>
<path d="M1239.29 642.593C986.595 412.525 459.832 432.778 295.646 528.905C446.632 480.867 827.567 591.42 911.483 706.221" stroke="url(#paint7_linear)" stroke-linecap="round" stroke-linejoin="round"/>
<path d="M295.646 528.907C405.504 507.504 674.362 572.862 722.73 617.152" stroke="#2F97BC" stroke-opacity="0.5" stroke-linecap="round" stroke-linejoin="round"/>
<path d="M295.646 528.907C405.504 507.504 674.362 572.862 722.73 617.152" stroke="url(#paint8_linear)" stroke-linecap="round" stroke-linejoin="round"/>
<path d="M295.814 528.72C276.405 515.464 229.047 444.157 226.025 398.376" stroke="#2F97BC" stroke-opacity="0.5" stroke-linecap="round" stroke-linejoin="round"/>
<path d="M295.814 528.72C276.405 515.464 229.047 444.157 226.025 398.376" stroke="url(#paint9_linear)" stroke-linecap="round" stroke-linejoin="round"/>
<path d="M296.609 528.72C316.776 501.921 339.957 483.76 377.539 479.683" stroke="#2F97BC" stroke-opacity="0.5" stroke-linecap="round" stroke-linejoin="round"/>
<path d="M296.609 528.72C316.776 501.921 339.957 483.76 377.539 479.683" stroke="url(#paint10_linear)" stroke-linecap="round" stroke-linejoin="round"/>
<path d="M296.609 528.716C208.102 490.997 137.293 503.093 113.293 533.593" stroke="#2F97BC" stroke-opacity="0.5" stroke-linecap="round" stroke-linejoin="round"/>
<path d="M296.609 528.716C208.102 490.997 137.293 503.093 113.293 533.593" stroke="url(#paint11_linear)" stroke-linecap="round" stroke-linejoin="round"/>
<path d="M294.341 529.622C201.906 527.139 128.072 585.485 125.911 639.15" stroke="#2F97BC" stroke-opacity="0.5" stroke-linecap="round" stroke-linejoin="round"/>
<path d="M294.341 529.622C201.906 527.139 128.072 585.485 125.911 639.15" stroke="url(#paint12_linear)" stroke-linecap="round" stroke-linejoin="round"/>
<circle cx="857.426" cy="573.226" r="4.63302" fill="#07A7D8"/>
<rect width="9" height="9" rx="4.5" transform="matrix(4.37114e-08 1 1 -4.37114e-08 299.793 365.593)" fill="#38A7C9"/>
<circle cx="226.426" cy="399.065" r="4.63302" fill="white"/>
<text fill="white" xml:space="preserve" style="white-space: pre" font-family="Roboto" font-size="13" font-weight="bold" letter-spacing="0.01em"><tspan x="159.793" y="401.536">&#x412;&#x43e;&#x440;&#x43e;&#x43d;&#x435;&#x436;</tspan></text>
<g filter="url(#filter1_f)">
<rect width="11" height="11" rx="5.5" transform="matrix(4.37114e-08 1 1 -4.37114e-08 298.793 364.593)" fill="#38A7C9"/>
</g>
<text fill="#07A7D8" xml:space="preserve" style="white-space: pre" font-family="Roboto" font-size="16" font-weight="bold" letter-spacing="0.01em"><tspan x="313.793" y="375.061">&#x41c;&#x43e;&#x441;&#x43a;&#x432;&#x430;</tspan></text>
<circle cx="361.426" cy="409.226" r="4.63302" fill="white"/>
<text fill="white" xml:space="preserve" style="white-space: pre" font-family="Roboto" font-size="13" font-weight="bold" letter-spacing="0.01em"><tspan x="372.793" y="411.536">&#x41d;&#x438;&#x436;&#x43d;&#x438;&#x439; &#x41d;&#x43e;&#x432;&#x433;&#x43e;&#x440;&#x43e;&#x434;</tspan></text>
<circle cx="375.649" cy="480.509" r="4.63302" fill="white"/>
<text fill="white" xml:space="preserve" style="white-space: pre" font-family="Roboto" font-size="13" font-weight="bold" letter-spacing="0.01em"><tspan x="370.793" y="469.536">&#x41a;&#x430;&#x437;&#x430;&#x43d;&#x44c;</tspan></text>
<circle cx="125.467" cy="639.375" r="4.63302" fill="white"/>
<text fill="white" xml:space="preserve" style="white-space: pre" font-family="Roboto" font-size="13" font-weight="bold" letter-spacing="0.01em"><tspan x="133.793" y="643.536">&#x41a;&#x440;&#x430;&#x441;&#x43d;&#x43e;&#x434;&#x430;&#x440;</tspan></text>
<circle cx="112.426" cy="535.226" r="4.63302" fill="white"/>
<text fill="white" xml:space="preserve" style="white-space: pre" font-family="Roboto" font-size="13" font-weight="bold" letter-spacing="0.01em"><tspan x="0.792969" y="538.536">&#x420;&#x43e;&#x441;&#x442;&#x43e;&#x432;-&#x43d;&#x430;-&#x414;&#x43e;&#x43d;&#x443;</tspan></text>
<circle cx="1267.43" cy="747.225" r="4.63302" fill="white"/>
<text fill="white" xml:space="preserve" style="white-space: pre" font-family="Roboto" font-size="13" font-weight="bold" letter-spacing="0.01em"><tspan x="1285.79" y="750.536">&#x412;&#x43b;&#x430;&#x434;&#x438;&#x432;&#x43e;&#x441;&#x442;&#x43e;&#x43a;</tspan></text>
<circle cx="1242.43" cy="643.226" r="4.63302" fill="white"/>
<text fill="white" xml:space="preserve" style="white-space: pre" font-family="Roboto" font-size="13" font-weight="bold" letter-spacing="0.01em"><tspan x="1242.79" y="632.536">&#x425;&#x430;&#x431;&#x430;&#x440;&#x43e;&#x432;&#x441;&#x43a;</tspan></text>
<rect width="9" height="9" rx="4.5" transform="matrix(4.37114e-08 1 1 -4.37114e-08 852.793 568.593)" fill="white"/>
<text fill="white" xml:space="preserve" style="white-space: pre" font-family="Roboto" font-size="13" font-weight="bold" letter-spacing="0.01em"><tspan x="868.793" y="575.536">&#x41a;&#x440;&#x430;&#x441;&#x43d;&#x43e;&#x44f;&#x440;&#x441;&#x43a;</tspan></text>
<circle cx="425.426" cy="577.226" r="4.63302" fill="white"/>
<text fill="white" xml:space="preserve" style="white-space: pre" font-family="Roboto" font-size="13" font-weight="bold" letter-spacing="0.01em"><tspan x="435.793" y="581.536">&#x427;&#x435;&#x43b;&#x44f;&#x431;&#x438;&#x43d;&#x441;&#x43a;</tspan></text>
<circle cx="722.734" cy="616.88" r="4.63302" fill="white"/>
<text fill="white" xml:space="preserve" style="white-space: pre" font-family="Roboto" font-size="13" font-weight="bold" letter-spacing="0.01em"><tspan x="717.793" y="639.536">&#x41d;&#x43e;&#x432;&#x43e;&#x441;&#x438;&#x431;&#x438;&#x440;&#x441;&#x43a;</tspan></text>
<circle cx="737.674" cy="700.254" r="4.63302" fill="white"/>
<text fill="white" xml:space="preserve" style="white-space: pre" font-family="Roboto" font-size="13" font-weight="bold" letter-spacing="0.01em"><tspan x="750.793" y="704.536">&#x411;&#x430;&#x440;&#x43d;&#x430;&#x443;&#x43b;</tspan></text>
<circle cx="911.178" cy="705.555" r="4.63302" fill="white"/>
<text fill="white" xml:space="preserve" style="white-space: pre" font-family="Roboto" font-size="13" font-weight="bold" letter-spacing="0.01em"><tspan x="928.793" y="708.536">&#x418;&#x440;&#x43a;&#x443;&#x442;&#x441;&#x43a;</tspan></text>
<g filter="url(#filter2_f)">
<path fill-rule="evenodd" clip-rule="evenodd" d="M280.894 499.989H313.893V516.096H280.894V499.989ZM283.272 498.189C284.836 498.189 285.728 497.564 285.761 496.4H284.197C284.153 496.891 283.878 497.097 283.272 497.097C282.788 497.097 282.523 496.875 282.523 496.4V494.246C282.523 493.755 282.799 493.534 283.272 493.534C283.867 493.534 284.131 493.74 284.175 494.246H285.739C285.684 493.075 284.825 492.441 283.283 492.441C281.775 492.441 280.894 493.075 280.894 494.246V496.4C280.894 497.564 281.775 498.189 283.272 498.189ZM289.56 498.094H291.178L289.328 492.552H287.655L285.805 498.094H287.423L287.677 497.176H289.306L289.56 498.094ZM287.985 496.107L288.161 495.474C288.271 495.078 288.392 494.405 288.47 493.953H288.514C288.591 494.405 288.723 495.078 288.822 495.474L288.998 496.107H287.985ZM296.63 492.552L295.419 494.65C295.261 494.924 295.001 495.41 294.912 495.616H294.868C294.78 495.41 294.52 494.925 294.362 494.65L293.151 492.552H291.576V498.094H293.095V496.732C293.095 496.059 293.018 495.386 292.985 494.713L293.04 494.698L293.734 496.154L294.12 496.907H295.661L296.047 496.154L296.74 494.698L296.795 494.713C296.751 495.386 296.674 496.058 296.674 496.732V498.094H298.205V492.552H296.63ZM302.421 498.094H304.04L302.19 492.552H300.516L298.666 498.094H300.285L300.538 497.176H302.168L302.421 498.094ZM300.846 496.107L301.022 495.474C301.133 495.078 301.254 494.405 301.331 493.953H301.375C301.452 494.405 301.574 495.081 301.683 495.474L301.859 496.107H300.846ZM306.673 492.552H304.437V498.094H306.001V496.313H306.673C308.269 496.313 309.216 495.616 309.216 494.436C309.216 493.249 308.269 492.552 306.673 492.552ZM306.65 495.244H306.001V493.621H306.65C307.278 493.621 307.609 493.898 307.609 494.436C307.609 494.967 307.278 495.244 306.65 495.244ZM312.275 498.094H313.894L312.043 492.552H310.37L308.52 498.094H310.139L310.392 497.176H312.022L312.275 498.094ZM310.7 496.107L310.876 495.474C310.986 495.078 311.108 494.405 311.185 493.953H311.229C311.306 494.405 311.428 495.082 311.537 495.474L311.713 496.107H310.7ZM280.894 518.001H313.894L309.286 522.157H285.506L280.894 518.001ZM307.49 524.06L303.327 527.814H291.471L287.304 524.06H307.49ZM301.532 529.717L297.393 533.441L293.269 529.717H301.532ZM282.776 512.209V501.89H284.842V505.954H288.859V501.89H290.924V512.209H288.859V507.698H284.842V512.209H282.776ZM292.951 501.89H301.057V512.209H298.991V503.634H295.017V512.209H292.951V501.89ZM303.049 501.89H305.115V510.465H309.089V501.89H311.155V510.465H312.01V514.152H310.286V512.209H303.049V501.89Z" fill="#0C5480"/>
</g>
<path fill-rule="evenodd" clip-rule="evenodd" d="M281.358 500.353H313.428V516.007H281.358V500.353ZM283.67 498.605C285.189 498.605 286.056 497.997 286.088 496.866H284.569C284.526 497.343 284.258 497.543 283.67 497.543C283.199 497.543 282.942 497.328 282.942 496.866V494.773C282.942 494.296 283.21 494.081 283.67 494.081C284.248 494.081 284.505 494.281 284.547 494.773H286.067C286.013 493.634 285.179 493.019 283.681 493.019C282.215 493.019 281.358 493.634 281.358 494.773V496.866C281.358 497.997 282.215 498.605 283.67 498.605ZM289.78 498.513H291.353L289.556 493.126H287.929L286.131 498.513H287.704L287.95 497.62H289.534L289.78 498.513ZM288.25 496.581L288.421 495.966C288.528 495.581 288.646 494.927 288.721 494.488H288.764C288.839 494.927 288.967 495.581 289.063 495.966L289.234 496.581H288.25ZM296.651 493.126L295.474 495.165C295.321 495.432 295.068 495.904 294.982 496.104H294.939C294.854 495.904 294.601 495.432 294.447 495.165L293.27 493.126H291.74V498.513H293.216V497.189C293.216 496.534 293.141 495.881 293.109 495.227L293.163 495.212L293.837 496.627L294.212 497.358H295.71L296.084 496.627L296.759 495.212L296.812 495.227C296.769 495.881 296.694 496.534 296.694 497.189V498.513H298.182V493.126H296.651ZM302.279 498.513H303.852L302.054 493.126H300.428L298.63 498.513H300.203L300.449 497.62H302.033L302.279 498.513ZM300.749 496.581L300.92 495.966C301.027 495.581 301.145 494.927 301.22 494.488H301.263C301.337 494.927 301.456 495.584 301.562 495.966L301.733 496.581H300.749ZM306.411 493.126H304.238V498.513H305.758V496.781H306.411C307.962 496.781 308.883 496.104 308.883 494.958C308.883 493.804 307.962 493.126 306.411 493.126ZM306.389 495.743H305.758V494.165H306.389C306.999 494.165 307.321 494.434 307.321 494.958C307.321 495.473 306.999 495.743 306.389 495.743ZM311.855 498.513H313.428L311.63 493.126H310.004L308.206 498.513H309.779L310.025 497.62H311.609L311.855 498.513ZM310.325 496.581L310.496 495.966C310.603 495.581 310.721 494.927 310.796 494.488H310.839C310.914 494.927 311.032 495.585 311.138 495.966L311.309 496.581H310.325ZM281.358 517.859H313.428L308.951 521.897H285.841L281.358 517.859ZM307.206 523.746L303.16 527.395H291.638L287.588 523.746H307.206ZM301.415 529.244L297.393 532.863L293.385 529.244H301.415ZM283.188 512.23V502.201H285.195V506.151H289.099V502.201H291.107V512.23H289.099V507.846H285.195V512.23H283.188ZM293.076 502.201H300.953V512.23H298.946V503.896H295.084V512.23H293.076V502.201ZM302.89 502.201H304.897V510.535H308.76V502.201H310.767V510.535H311.598V514.118H309.923V512.23H302.89V502.201Z" fill="white"/>
<path d="M247.69 285.446C247.69 288.005 245.616 290.079 243.057 290.079C240.499 290.079 238.424 288.005 238.424 285.446C238.424 282.887 240.499 280.813 243.057 280.813C245.616 280.813 247.69 282.887 247.69 285.446Z" fill="white"/>
<path d="M263.775 286.867C263.703 287.862 263.335 288.645 262.67 289.216C262.01 289.787 261.138 290.073 260.055 290.073C258.87 290.073 257.937 289.675 257.256 288.879C256.579 288.08 256.24 286.984 256.24 285.591V285.026C256.24 284.138 256.397 283.355 256.71 282.678C257.023 282.001 257.469 281.482 258.049 281.123C258.633 280.759 259.31 280.577 260.08 280.577C261.147 280.577 262.006 280.862 262.657 281.434C263.309 282.005 263.686 282.807 263.787 283.839H261.883C261.837 283.243 261.669 282.811 261.382 282.544C261.098 282.274 260.664 282.138 260.08 282.138C259.446 282.138 258.969 282.367 258.652 282.824C258.339 283.277 258.178 283.981 258.17 284.938V285.636C258.17 286.634 258.32 287.364 258.62 287.826C258.925 288.287 259.403 288.518 260.055 288.518C260.643 288.518 261.081 288.384 261.369 288.118C261.661 287.847 261.828 287.43 261.87 286.867H263.775Z" fill="white"/>
<path d="M269.015 289.946C268.93 289.781 268.869 289.576 268.83 289.33C268.386 289.825 267.808 290.073 267.098 290.073C266.425 290.073 265.866 289.878 265.422 289.489C264.982 289.099 264.762 288.609 264.762 288.016C264.762 287.288 265.03 286.73 265.568 286.34C266.109 285.951 266.89 285.754 267.91 285.75H268.754V285.356C268.754 285.039 268.672 284.785 268.507 284.595C268.346 284.404 268.09 284.309 267.739 284.309C267.43 284.309 267.186 284.383 267.009 284.531C266.835 284.679 266.748 284.882 266.748 285.141H264.914C264.914 284.743 265.037 284.375 265.282 284.036C265.528 283.698 265.875 283.433 266.323 283.243C266.772 283.048 267.275 282.951 267.834 282.951C268.68 282.951 269.351 283.164 269.846 283.592C270.345 284.015 270.595 284.612 270.595 285.382V288.359C270.599 289.011 270.69 289.504 270.868 289.838V289.946H269.015ZM267.497 288.67C267.768 288.67 268.018 288.611 268.246 288.492C268.475 288.369 268.644 288.207 268.754 288.003V286.823H268.069C267.15 286.823 266.662 287.14 266.602 287.775L266.596 287.883C266.596 288.111 266.676 288.3 266.837 288.448C266.998 288.596 267.218 288.67 267.497 288.67Z" fill="white"/>
<path d="M278.088 289.946H276.248V287.305H273.969V289.946H272.134V283.078H273.969V285.833H276.248V283.078H278.088V289.946Z" fill="white"/>
<path d="M282.332 287.413H281.595V289.946H279.761V283.078H281.595V285.661H282.249L283.747 283.078H286.064L283.817 286.347L286.274 289.946H283.83L282.332 287.413Z" fill="white"/>
<path d="M292.796 284.55H290.593V289.946H288.752V284.55H286.588V283.078H292.796V284.55Z" fill="white"/>
<path d="M297.42 286.728H293.846V285.249H297.42V286.728Z" fill="white"/>
<path d="M306.671 289.946H304.761V282.246H301.06V289.946H299.156V280.704H306.671V289.946Z" fill="white"/>
<path d="M311.518 290.073C310.511 290.073 309.69 289.764 309.055 289.146C308.424 288.528 308.109 287.705 308.109 286.677V286.499C308.109 285.809 308.242 285.194 308.509 284.652C308.775 284.106 309.152 283.687 309.639 283.395C310.13 283.099 310.688 282.951 311.315 282.951C312.254 282.951 312.992 283.247 313.53 283.839C314.072 284.432 314.342 285.272 314.342 286.359V287.108H309.969C310.028 287.557 310.206 287.917 310.502 288.188C310.803 288.458 311.181 288.594 311.638 288.594C312.345 288.594 312.897 288.338 313.295 287.826L314.196 288.835C313.921 289.224 313.549 289.529 313.079 289.749C312.609 289.965 312.089 290.073 311.518 290.073ZM311.308 284.436C310.944 284.436 310.648 284.559 310.42 284.804C310.195 285.05 310.051 285.401 309.988 285.858H312.54V285.712C312.531 285.306 312.421 284.993 312.21 284.772C311.998 284.548 311.698 284.436 311.308 284.436Z" fill="white"/>
<path d="M321.144 284.55H318.941V289.946H317.1V284.55H314.936V283.078H321.144V284.55Z" fill="white"/>
<path d="M324.955 290.073C323.948 290.073 323.127 289.764 322.493 289.146C321.862 288.528 321.547 287.705 321.547 286.677V286.499C321.547 285.809 321.68 285.194 321.947 284.652C322.213 284.106 322.59 283.687 323.076 283.395C323.567 283.099 324.126 282.951 324.752 282.951C325.692 282.951 326.43 283.247 326.968 283.839C327.509 284.432 327.78 285.272 327.78 286.359V287.108H323.407C323.466 287.557 323.644 287.917 323.94 288.188C324.24 288.458 324.619 288.594 325.076 288.594C325.783 288.594 326.335 288.338 326.733 287.826L327.634 288.835C327.359 289.224 326.987 289.529 326.517 289.749C326.047 289.965 325.527 290.073 324.955 290.073ZM324.746 284.436C324.382 284.436 324.086 284.559 323.857 284.804C323.633 285.05 323.489 285.401 323.426 285.858H325.977V285.712C325.969 285.306 325.859 284.993 325.647 284.772C325.436 284.548 325.135 284.436 324.746 284.436Z" fill="white"/>
<path d="M335.14 286.575C335.14 287.633 334.899 288.482 334.416 289.121C333.938 289.755 333.291 290.073 332.474 290.073C331.78 290.073 331.219 289.832 330.792 289.349V292.586H328.957V283.078H330.659L330.722 283.75C331.166 283.217 331.746 282.951 332.461 282.951C333.308 282.951 333.966 283.264 334.436 283.89C334.905 284.516 335.14 285.38 335.14 286.48V286.575ZM333.306 286.442C333.306 285.803 333.191 285.31 332.963 284.963C332.739 284.616 332.411 284.442 331.979 284.442C331.403 284.442 331.008 284.662 330.792 285.103V287.915C331.016 288.367 331.416 288.594 331.992 288.594C332.868 288.594 333.306 287.876 333.306 286.442Z" fill="white"/>
<path d="M339.821 283.458C340.702 283.458 341.404 283.75 341.929 284.334C342.454 284.918 342.716 285.712 342.716 286.715V286.804C342.716 287.794 342.424 288.587 341.84 289.184C341.256 289.781 340.471 290.079 339.485 290.079C338.495 290.079 337.705 289.757 337.117 289.114C336.533 288.467 336.241 287.589 336.241 286.48V286.175C336.25 284.631 336.51 283.423 337.022 282.551C337.538 281.675 338.313 281.123 339.345 280.894C339.887 280.776 340.236 280.659 340.393 280.545C340.549 280.426 340.628 280.264 340.628 280.056H342.113C342.113 280.721 341.933 281.22 341.573 281.554C341.218 281.889 340.583 282.147 339.669 282.329C339.127 282.439 338.7 282.652 338.387 282.97C338.074 283.287 337.862 283.734 337.752 284.309C338.336 283.742 339.026 283.458 339.821 283.458ZM339.472 284.944C339.036 284.944 338.694 285.09 338.444 285.382C338.198 285.674 338.076 286.148 338.076 286.804C338.076 287.388 338.196 287.834 338.438 288.143C338.679 288.448 339.028 288.6 339.485 288.6C339.929 288.6 340.272 288.45 340.513 288.149C340.754 287.849 340.877 287.407 340.881 286.823V286.67C340.881 286.108 340.757 285.68 340.507 285.388C340.261 285.092 339.917 284.944 339.472 284.944Z" fill="white"/>
<path d="M346.508 287.35L347.778 283.078H349.746L346.985 291.012L346.832 291.374C346.422 292.271 345.745 292.72 344.801 292.72C344.534 292.72 344.264 292.68 343.988 292.599V291.209L344.268 291.215C344.615 291.215 344.873 291.162 345.042 291.057C345.216 290.951 345.351 290.775 345.448 290.53L345.664 289.965L343.258 283.078H345.233L346.508 287.35Z" fill="white"/>
<path d="M356.782 286.575C356.782 287.633 356.541 288.482 356.058 289.121C355.58 289.755 354.933 290.073 354.116 290.073C353.422 290.073 352.861 289.832 352.434 289.349V292.586H350.599V283.078H352.301L352.364 283.75C352.808 283.217 353.388 282.951 354.103 282.951C354.95 282.951 355.608 283.264 356.077 283.89C356.547 284.516 356.782 285.38 356.782 286.48V286.575ZM354.948 286.442C354.948 285.803 354.833 285.31 354.605 284.963C354.381 284.616 354.053 284.442 353.621 284.442C353.045 284.442 352.65 284.662 352.434 285.103V287.915C352.658 288.367 353.058 288.594 353.634 288.594C354.51 288.594 354.948 287.876 354.948 286.442Z" fill="white"/>
<path d="M362.733 284.563H359.889V289.946H358.055V283.078H362.733V284.563Z" fill="white"/>
<defs>
<filter id="filter0_f" x="13.9844" y="0.230713" width="1416" height="787" filterUnits="userSpaceOnUse" color-interpolation-filters="sRGB">
<feFlood flood-opacity="0" result="BackgroundImageFix"/>
<feBlend mode="normal" in="SourceGraphic" in2="BackgroundImageFix" result="shape"/>
<feGaussianBlur stdDeviation="0.5" result="effect1_foregroundBlur"/>
</filter>
<filter id="filter1_f" x="294.793" y="360.593" width="19" height="19" filterUnits="userSpaceOnUse" color-interpolation-filters="sRGB">
<feFlood flood-opacity="0" result="BackgroundImageFix"/>
<feBlend mode="normal" in="SourceGraphic" in2="BackgroundImageFix" result="shape"/>
<feGaussianBlur stdDeviation="2" result="effect1_foregroundBlur"/>
</filter>
<filter id="filter2_f" x="265.894" y="477.441" width="63" height="71" filterUnits="userSpaceOnUse" color-interpolation-filters="sRGB">
<feFlood flood-opacity="0" result="BackgroundImageFix"/>
<feBlend mode="normal" in="SourceGraphic" in2="BackgroundImageFix" result="shape"/>
<feGaussianBlur stdDeviation="7.5" result="effect1_foregroundBlur"/>
</filter>
<linearGradient id="paint0_linear" x1="986.178" y1="914.023" x2="554.088" y2="28.1691" gradientUnits="userSpaceOnUse">
<stop offset="0.0375523" stop-color="#025088"/>
<stop offset="0.143076" stop-color="#00599A"/>
<stop offset="0.198063" stop-color="#0C5488"/>
<stop offset="0.265625" stop-color="#005C90"/>
<stop offset="0.375" stop-color="#0C71BA"/>
<stop offset="0.483821" stop-color="#1999E0"/>
</linearGradient>
<linearGradient id="paint1_linear" x1="270.9" y1="289.688" x2="270.9" y2="528.72" gradientUnits="userSpaceOnUse">
<stop offset="0.203125" stop-color="white"/>
<stop offset="1" stop-color="white" stop-opacity="0"/>
</linearGradient>
<linearGradient id="paint2_linear" x1="333.638" y1="384.753" x2="268.137" y2="510.716" gradientUnits="userSpaceOnUse">
<stop offset="0.203125" stop-color="white"/>
<stop offset="1" stop-color="white" stop-opacity="0"/>
</linearGradient>
<linearGradient id="paint3_linear" x1="388.323" y1="354.977" x2="261.886" y2="497.237" gradientUnits="userSpaceOnUse">
<stop offset="0.395833" stop-color="white"/>
<stop offset="1" stop-color="white" stop-opacity="0"/>
</linearGradient>
<linearGradient id="paint4_linear" x1="575.887" y1="549.7" x2="462.54" y2="677.233" gradientUnits="userSpaceOnUse">
<stop offset="0.395833" stop-color="white"/>
<stop offset="1" stop-color="white" stop-opacity="0"/>
</linearGradient>
<linearGradient id="paint5_linear" x1="502.349" y1="525.389" x2="409.384" y2="629.989" gradientUnits="userSpaceOnUse">
<stop offset="0.395833" stop-color="white"/>
<stop offset="1" stop-color="white" stop-opacity="0"/>
</linearGradient>
<linearGradient id="paint6_linear" x1="975.332" y1="324.874" x2="562.179" y2="789.737" gradientUnits="userSpaceOnUse">
<stop offset="0.395833" stop-color="white"/>
<stop offset="1" stop-color="white" stop-opacity="0"/>
</linearGradient>
<linearGradient id="paint7_linear" x1="882.408" y1="364.065" x2="541.613" y2="747.512" gradientUnits="userSpaceOnUse">
<stop offset="0.395833" stop-color="white"/>
<stop offset="1" stop-color="white" stop-opacity="0"/>
</linearGradient>
<linearGradient id="paint8_linear" x1="581.521" y1="491.643" x2="436.859" y2="654.411" gradientUnits="userSpaceOnUse">
<stop offset="0.395833" stop-color="white"/>
<stop offset="1" stop-color="white" stop-opacity="0"/>
</linearGradient>
<linearGradient id="paint9_linear" x1="220.429" y1="401.516" x2="292.779" y2="530.424" gradientUnits="userSpaceOnUse">
<stop stop-color="white"/>
<stop offset="0.395833" stop-color="white"/>
<stop offset="1" stop-color="white" stop-opacity="0"/>
</linearGradient>
<linearGradient id="paint10_linear" x1="379.273" y1="483.819" x2="292.959" y2="520.017" gradientUnits="userSpaceOnUse">
<stop offset="0.395833" stop-color="white"/>
<stop offset="1" stop-color="white" stop-opacity="0"/>
</linearGradient>
<linearGradient id="paint11_linear" x1="286.805" y1="505.339" x2="127.39" y2="572.193" gradientUnits="userSpaceOnUse">
<stop stop-color="white" stop-opacity="0"/>
<stop offset="1" stop-color="white"/>
</linearGradient>
<linearGradient id="paint12_linear" x1="297.715" y1="537.667" x2="115.414" y2="614.118" gradientUnits="userSpaceOnUse">
<stop offset="0.369792" stop-color="white" stop-opacity="0"/>
<stop offset="1" stop-color="white"/>
</linearGradient>
</defs>
</svg>
