<svg width="34" height="27" viewBox="0 0 34 27" fill="none" xmlns="http://www.w3.org/2000/svg">
<g filter="url(#filter0_d)">
<path d="M9.89218 7.29614C8.77706 7.29614 7.85815 8.17425 7.85815 9.23981V17.8784C7.85815 18.9439 8.77706 19.822 9.89218 19.822H24.8084C25.9235 19.822 26.8424 18.9439 26.8424 17.8784V9.23981C26.8424 8.17425 25.9235 7.29614 24.8084 7.29614H9.89218ZM10.0405 8.59192H24.6671L17.767 14.4769C17.5039 14.7014 17.2114 14.7016 16.9477 14.4769L10.0405 8.59192ZM9.21417 9.62449L13.8614 13.5861L9.21417 17.8514V9.62449ZM25.4864 9.62449V17.8446L20.8533 13.5793L25.4864 9.62449ZM19.8363 14.4499L24.2646 18.5262H10.436L14.8784 14.4567L16.0437 15.4488C16.7845 16.0799 17.9302 16.0809 18.671 15.4488L19.8363 14.4499Z" fill="white"/>
</g>
<defs>
<filter id="filter0_d" x="0.858154" y="0.296143" width="32.9842" height="26.5259" filterUnits="userSpaceOnUse" color-interpolation-filters="sRGB">
<feFlood flood-opacity="0" result="BackgroundImageFix"/>
<feColorMatrix in="SourceAlpha" type="matrix" values="0 0 0 0 0 0 0 0 0 0 0 0 0 0 0 0 0 0 127 0"/>
<feOffset/>
<feGaussianBlur stdDeviation="3.5"/>
<feColorMatrix type="matrix" values="0 0 0 0 0 0 0 0 0 0.765517 0 0 0 0 1 0 0 0 1 0"/>
<feBlend mode="normal" in2="BackgroundImageFix" result="effect1_dropShadow"/>
<feBlend mode="normal" in="SourceGraphic" in2="effect1_dropShadow" result="shape"/>
</filter>
</defs>
</svg>
