<svg width="112" height="113" viewBox="0 0 112 113" fill="none" xmlns="http://www.w3.org/2000/svg">
<g filter="url(#filter0_f)">
<circle cx="55.9999" cy="56.9672" r="49.4999" stroke="#38A7C9"/>
</g>
<g filter="url(#filter1_f)">
<path d="M74.8797 69.4017H29.8835C29.624 69.4017 29.3752 69.5047 29.1918 69.6882C29.0083 69.8716 28.9053 70.1204 28.9053 70.3798V78.2053C28.9053 78.9836 29.2144 79.73 29.7648 80.2803C30.3151 80.8306 31.0615 81.1398 31.8398 81.1398H72.9233C73.7016 81.1398 74.448 80.8306 74.9984 80.2803C75.5487 79.73 75.8579 78.9836 75.8579 78.2053V70.3798C75.8579 70.1204 75.7548 69.8716 75.5714 69.6882C75.3879 69.5047 75.1391 69.4017 74.8797 69.4017ZM73.9015 73.3144H57.1746C57.0237 72.6026 56.7145 71.9339 56.2698 71.358H73.9015V73.3144ZM49.6143 73.3144C49.8164 72.7419 50.191 72.2461 50.6866 71.8954C51.1822 71.5448 51.7744 71.3564 52.3816 71.3564C52.9887 71.3564 53.5809 71.5448 54.0765 71.8954C54.5721 72.2461 54.9468 72.7419 55.1488 73.3144H49.6143ZM48.4943 71.358C48.0496 71.9339 47.7404 72.6026 47.5895 73.3144H30.8616V71.358H48.4943ZM73.9015 78.2053C73.9015 78.4647 73.7984 78.7135 73.615 78.897C73.4316 79.0804 73.1828 79.1835 72.9233 79.1835H31.8398C31.5804 79.1835 31.3316 79.0804 31.1481 78.897C30.9647 78.7135 30.8616 78.4647 30.8616 78.2053V75.2707H37.3039L36.0391 76.5355L37.4223 77.9187L40.0702 75.2707H43.173L41.9082 76.5355L43.2914 77.9187L45.9393 75.2707H49.0421L47.7773 76.5355L49.1604 77.9187L51.8084 75.2707H54.9111L53.6464 76.5355L55.0295 77.9187L57.6774 75.2707H60.7802L59.5154 76.5355L60.8986 77.9187L63.5465 75.2707H66.6493L65.3845 76.5355L66.7676 77.9187L69.4156 75.2707H73.9015V78.2053Z" fill="#07A7D8"/>
<path d="M75.7356 31.5129L70.4661 34.4807C70.0132 34.0777 69.4453 33.8269 68.8424 33.7636C68.2395 33.7002 67.6319 33.8276 67.1051 34.1276C66.4271 34.5093 65.9284 35.1447 65.7187 35.894C65.5091 36.6434 65.6056 37.4453 65.9871 38.1235L58.3162 42.4421C58.2248 42.4944 58.142 42.5604 58.0707 42.6378L56.0986 44.8122L52.8266 46.6542C52.8198 46.6542 52.8139 46.6649 52.8071 46.6688C52.6221 46.776 52.4496 46.9033 52.2926 47.0484C52.2407 47.0963 52.1947 47.1462 52.1488 47.201C52.0461 47.3072 51.9519 47.4213 51.867 47.5423C51.8201 47.6089 51.778 47.6773 51.7379 47.7478C51.6688 47.8689 51.6083 47.9947 51.557 48.1244C51.5266 48.1987 51.4953 48.2691 51.4709 48.3454C51.4132 48.5312 51.3739 48.7222 51.3535 48.9157C51.3535 48.9362 51.3427 48.9548 51.3408 48.9754C51.3103 49.3558 51.3541 49.7386 51.4699 50.1022C51.4914 50.1707 51.5296 50.2343 51.556 50.2979C51.5367 50.3217 51.5188 50.3465 51.5022 50.3722L48.8816 55.6289C48.611 56.1723 48.4697 56.7709 48.4689 57.3779V57.6636C48.4689 58.7013 48.8811 59.6965 49.6149 60.4303C50.3486 61.164 51.3439 61.5763 52.3816 61.5763C53.4193 61.5763 54.4145 61.164 55.1483 60.4303C55.8821 59.6965 56.2943 58.7013 56.2943 57.6636V57.3779C56.2933 56.7706 56.152 56.1717 55.8815 55.628L54.1423 52.1398C54.1883 52.1398 54.2342 52.1456 54.2802 52.1456C54.5015 52.143 54.7218 52.1147 54.9366 52.0615C54.9767 52.0517 55.0158 52.0439 55.0559 52.0332C55.096 52.0224 55.1332 52.0175 55.1713 52.0058C55.3591 51.9448 55.5404 51.8652 55.7123 51.7681L58.9853 49.9271L61.865 49.3696C61.968 49.3494 62.0671 49.3127 62.1585 49.261L69.8303 44.9414C70.1662 45.5485 70.7068 46.0165 71.3558 46.2619C72.0048 46.5073 72.7198 46.514 73.3733 46.2809C74.0268 46.0479 74.5762 45.5901 74.9235 44.9895C75.2707 44.3888 75.3932 43.6843 75.269 43.0016L80.5375 40.0358C81.1077 39.7265 81.6107 39.3068 82.0172 38.8012C82.4237 38.2955 82.7255 37.7141 82.9051 37.0907C83.0847 36.4674 83.1385 35.8145 83.0633 35.1701C82.9882 34.5257 82.7855 33.9028 82.4673 33.3374C82.1491 32.7721 81.7215 32.2758 81.2096 31.8773C80.6977 31.4788 80.1116 31.1861 79.4855 31.0163C78.8594 30.8465 78.2057 30.803 77.5626 30.8882C76.9195 30.9735 76.2998 31.1858 75.7395 31.5129H75.7356ZM68.7279 42.9909H61.329L66.9467 39.8284L68.7279 42.9909ZM57.1981 46.439C57.2901 46.3875 57.373 46.3215 57.4436 46.2433L58.6184 44.9472H65.8296L61.3299 47.4788L58.4502 48.0363C58.3473 48.0569 58.2482 48.0935 58.1567 48.1449L54.7478 50.0631C54.6592 50.1081 54.5642 50.1391 54.4661 50.1551C54.4079 50.1675 54.3485 50.174 54.289 50.1746C54.2235 50.1768 54.1579 50.1719 54.0934 50.1599C54.0343 50.1493 53.9764 50.1332 53.9202 50.112C53.8494 50.0875 53.7818 50.0547 53.7187 50.0142C53.6897 49.9958 53.6616 49.9758 53.6346 49.9545C53.5502 49.8844 53.4784 49.8004 53.4224 49.7061L53.4135 49.6953V49.6865C53.3707 49.6012 53.341 49.5098 53.3255 49.4156C53.3125 49.3541 53.3053 49.2915 53.304 49.2287C53.3012 49.1487 53.3077 49.0686 53.3236 48.99C53.3236 48.9715 53.3294 48.9519 53.3353 48.9343C53.3669 48.8289 53.4162 48.7297 53.481 48.6408C53.4947 48.6213 53.5114 48.6046 53.526 48.5861C53.5992 48.4954 53.688 48.4186 53.7882 48.3591L57.1981 46.439ZM54.3379 57.6636C54.3379 58.1824 54.1318 58.68 53.7649 59.0469C53.398 59.4138 52.9004 59.6199 52.3816 59.6199C51.8627 59.6199 51.3651 59.4138 50.9982 59.0469C50.6313 58.68 50.4252 58.1824 50.4252 57.6636V57.3779C50.4256 57.0741 50.4963 56.7745 50.6316 56.5025L52.3816 53.0025L54.1315 56.5015C54.2673 56.7751 54.338 57.0764 54.3379 57.3818V57.6636ZM73.3254 43.7656C73.2734 43.9521 73.1673 44.119 73.0205 44.2452C72.8737 44.3714 72.6927 44.4511 72.5005 44.4744C72.3083 44.4976 72.1135 44.4633 71.9408 44.3758C71.7681 44.2883 71.6253 44.1515 71.5304 43.9827L67.691 37.1648C67.5638 36.9386 67.5316 36.6711 67.6016 36.4212C67.6716 36.1712 67.838 35.9593 68.0642 35.8321C68.2904 35.7048 68.558 35.6726 68.8079 35.7426C69.0578 35.8126 69.2697 35.979 69.397 36.2052L73.2354 43.0241C73.3623 43.2497 73.3946 43.5163 73.3254 43.7656ZM80.962 36.5642C80.8589 36.9357 80.6833 37.2831 80.4452 37.5863C80.2071 37.8895 79.9113 38.1426 79.5749 38.3308L74.46 41.2106L71.5813 36.0967L76.6942 33.2169C77.2 32.9315 77.7791 32.8026 78.3582 32.8466C78.9373 32.8905 79.4903 33.1053 79.9473 33.4637C80.4042 33.8221 80.7446 34.308 80.9252 34.8599C81.1058 35.4119 81.1186 36.005 80.962 36.5642Z" fill="#07A7D8"/>
<path d="M44.5561 58.6417V59.6199C44.5577 61.176 45.1765 62.6679 46.2769 63.7682C47.3772 64.8685 48.8691 65.4874 50.4252 65.4889V63.5326C49.3875 63.5326 48.3923 63.1204 47.6585 62.3866C46.9247 61.6528 46.5125 60.6576 46.5125 59.6199V58.6417H44.5561Z" fill="#07A7D8"/>
<path d="M66.0761 65.489H64.1197V67.4453H66.0761V65.489Z" fill="#07A7D8"/>
<path d="M69.9888 65.489H68.0324V67.4453H69.9888V65.489Z" fill="#07A7D8"/>
<path d="M69.9888 61.5762H68.0324V63.5326H69.9888V61.5762Z" fill="#07A7D8"/>
<path d="M73.9015 65.489H71.9451V67.4453H73.9015V65.489Z" fill="#07A7D8"/>
<path d="M73.9015 61.5762H71.9451V63.5326H73.9015V61.5762Z" fill="#07A7D8"/>
<path d="M73.9015 57.6635H71.9451V59.6199H73.9015V57.6635Z" fill="#07A7D8"/>
<path d="M40.6434 65.489H38.6871V67.4453H40.6434V65.489Z" fill="#07A7D8"/>
<path d="M36.7307 65.489H34.7743V67.4453H36.7307V65.489Z" fill="#07A7D8"/>
<path d="M36.7307 61.5762H34.7743V63.5326H36.7307V61.5762Z" fill="#07A7D8"/>
<path d="M32.818 65.489H30.8616V67.4453H32.818V65.489Z" fill="#07A7D8"/>
<path d="M32.818 61.5762H30.8616V63.5326H32.818V61.5762Z" fill="#07A7D8"/>
<path d="M32.818 57.6635H30.8616V59.6199H32.818V57.6635Z" fill="#07A7D8"/>
<path d="M34.7743 52.7726C34.7743 52.1922 34.6022 51.6249 34.2798 51.1423C33.9573 50.6597 33.499 50.2836 32.9628 50.0615C32.4266 49.8394 31.8366 49.7812 31.2673 49.8945C30.6981 50.0077 30.1752 50.2872 29.7648 50.6976C29.3544 51.108 29.0749 51.6309 28.9617 52.2001C28.8484 52.7694 28.9065 53.3594 29.1287 53.8956C29.3508 54.4318 29.7269 54.8901 30.2095 55.2126C30.6921 55.5351 31.2594 55.7072 31.8398 55.7072C32.6181 55.7072 33.3645 55.398 33.9148 54.8477C34.4652 54.2973 34.7743 53.5509 34.7743 52.7726ZM31.8398 53.7508C31.6463 53.7508 31.4572 53.6934 31.2964 53.5859C31.1355 53.4785 31.0101 53.3257 30.9361 53.147C30.8621 52.9682 30.8427 52.7715 30.8804 52.5818C30.9182 52.392 31.0113 52.2177 31.1481 52.0809C31.2849 51.9441 31.4592 51.851 31.649 51.8132C31.8387 51.7755 32.0354 51.7949 32.2141 51.8689C32.3929 51.9429 32.5457 52.0683 32.6531 52.2292C32.7606 52.39 32.818 52.5792 32.818 52.7726C32.818 53.032 32.7149 53.2809 32.5315 53.4643C32.348 53.6477 32.0992 53.7508 31.8398 53.7508Z" fill="#07A7D8"/>
<path d="M73.3987 48.8599H72.4479C71.796 48.8607 71.1709 49.12 70.7099 49.581C70.2489 50.042 69.9896 50.6671 69.9888 51.319V53.248C69.9896 53.9 70.2489 54.525 70.7099 54.986C71.1709 55.447 71.796 55.7064 72.4479 55.7072H73.3987C74.0507 55.7064 74.6757 55.447 75.1367 54.986C75.5978 54.525 75.8571 53.9 75.8579 53.248V51.319C75.8571 50.6671 75.5978 50.042 75.1367 49.581C74.6757 49.12 74.0507 48.8607 73.3987 48.8599ZM73.9015 53.248C73.9015 53.314 73.8885 53.3794 73.8632 53.4404C73.838 53.5014 73.8009 53.5569 73.7542 53.6035C73.7076 53.6502 73.6521 53.6873 73.5911 53.7125C73.5301 53.7378 73.4647 53.7508 73.3987 53.7508H72.4479C72.3146 53.7508 72.1867 53.6978 72.0924 53.6035C71.9981 53.5092 71.9451 53.3814 71.9451 53.248V51.319C71.9451 51.1857 71.9981 51.0578 72.0924 50.9635C72.1867 50.8692 72.3146 50.8163 72.4479 50.8163H73.3987C73.5321 50.8163 73.66 50.8692 73.7542 50.9635C73.8485 51.0578 73.9015 51.1857 73.9015 51.319V53.248Z" fill="#07A7D8"/>
</g>
<path d="M74.8797 69.4017H29.8835C29.624 69.4017 29.3752 69.5047 29.1918 69.6882C29.0083 69.8716 28.9053 70.1204 28.9053 70.3798V78.2053C28.9053 78.9836 29.2144 79.73 29.7648 80.2803C30.3151 80.8306 31.0615 81.1398 31.8398 81.1398H72.9233C73.7016 81.1398 74.448 80.8306 74.9984 80.2803C75.5487 79.73 75.8579 78.9836 75.8579 78.2053V70.3798C75.8579 70.1204 75.7548 69.8716 75.5714 69.6882C75.3879 69.5047 75.1391 69.4017 74.8797 69.4017ZM73.9015 73.3144H57.1746C57.0237 72.6026 56.7145 71.9339 56.2698 71.358H73.9015V73.3144ZM49.6143 73.3144C49.8164 72.7419 50.191 72.2461 50.6866 71.8954C51.1822 71.5448 51.7744 71.3564 52.3816 71.3564C52.9887 71.3564 53.5809 71.5448 54.0765 71.8954C54.5721 72.2461 54.9468 72.7419 55.1488 73.3144H49.6143ZM48.4943 71.358C48.0496 71.9339 47.7404 72.6026 47.5895 73.3144H30.8616V71.358H48.4943ZM73.9015 78.2053C73.9015 78.4647 73.7984 78.7135 73.615 78.897C73.4316 79.0804 73.1828 79.1835 72.9233 79.1835H31.8398C31.5804 79.1835 31.3316 79.0804 31.1481 78.897C30.9647 78.7135 30.8616 78.4647 30.8616 78.2053V75.2707H37.3039L36.0391 76.5355L37.4223 77.9187L40.0702 75.2707H43.173L41.9082 76.5355L43.2914 77.9187L45.9393 75.2707H49.0421L47.7773 76.5355L49.1604 77.9187L51.8084 75.2707H54.9111L53.6464 76.5355L55.0295 77.9187L57.6774 75.2707H60.7802L59.5154 76.5355L60.8986 77.9187L63.5465 75.2707H66.6493L65.3845 76.5355L66.7676 77.9187L69.4156 75.2707H73.9015V78.2053Z" fill="white"/>
<path d="M75.7356 31.5129L70.4661 34.4807C70.0132 34.0777 69.4453 33.8269 68.8424 33.7636C68.2395 33.7002 67.6319 33.8276 67.1051 34.1276C66.4271 34.5093 65.9284 35.1447 65.7187 35.894C65.5091 36.6434 65.6056 37.4453 65.9871 38.1235L58.3162 42.4421C58.2248 42.4944 58.142 42.5604 58.0707 42.6378L56.0986 44.8122L52.8266 46.6542C52.8198 46.6542 52.8139 46.6649 52.8071 46.6688C52.6221 46.776 52.4496 46.9033 52.2926 47.0484C52.2407 47.0963 52.1947 47.1462 52.1488 47.201C52.0461 47.3072 51.9519 47.4213 51.867 47.5423C51.8201 47.6089 51.778 47.6773 51.7379 47.7478C51.6688 47.8689 51.6083 47.9947 51.557 48.1244C51.5266 48.1987 51.4953 48.2691 51.4709 48.3454C51.4132 48.5312 51.3739 48.7222 51.3535 48.9157C51.3535 48.9362 51.3427 48.9548 51.3408 48.9754C51.3103 49.3558 51.3541 49.7386 51.4699 50.1022C51.4914 50.1707 51.5296 50.2343 51.556 50.2979C51.5367 50.3217 51.5188 50.3465 51.5022 50.3722L48.8816 55.6289C48.611 56.1723 48.4697 56.7709 48.4689 57.3779V57.6636C48.4689 58.7013 48.8811 59.6965 49.6149 60.4303C50.3486 61.164 51.3439 61.5763 52.3816 61.5763C53.4193 61.5763 54.4145 61.164 55.1483 60.4303C55.8821 59.6965 56.2943 58.7013 56.2943 57.6636V57.3779C56.2933 56.7706 56.152 56.1717 55.8815 55.628L54.1423 52.1398C54.1883 52.1398 54.2342 52.1456 54.2802 52.1456C54.5015 52.143 54.7218 52.1147 54.9366 52.0615C54.9767 52.0517 55.0158 52.0439 55.0559 52.0332C55.096 52.0224 55.1332 52.0175 55.1713 52.0058C55.3591 51.9448 55.5404 51.8652 55.7123 51.7681L58.9853 49.9271L61.865 49.3696C61.968 49.3494 62.0671 49.3127 62.1585 49.261L69.8303 44.9414C70.1662 45.5485 70.7068 46.0165 71.3558 46.2619C72.0048 46.5073 72.7198 46.514 73.3733 46.2809C74.0268 46.0479 74.5762 45.5901 74.9235 44.9895C75.2707 44.3888 75.3932 43.6843 75.269 43.0016L80.5375 40.0358C81.1077 39.7265 81.6107 39.3068 82.0172 38.8012C82.4237 38.2955 82.7255 37.7141 82.9051 37.0907C83.0847 36.4674 83.1385 35.8145 83.0633 35.1701C82.9882 34.5257 82.7855 33.9028 82.4673 33.3374C82.1491 32.7721 81.7215 32.2758 81.2096 31.8773C80.6977 31.4788 80.1116 31.1861 79.4855 31.0163C78.8594 30.8465 78.2057 30.803 77.5626 30.8882C76.9195 30.9735 76.2998 31.1858 75.7395 31.5129H75.7356ZM68.7279 42.9909H61.329L66.9467 39.8284L68.7279 42.9909ZM57.1981 46.439C57.2901 46.3875 57.373 46.3215 57.4436 46.2433L58.6184 44.9472H65.8296L61.3299 47.4788L58.4502 48.0363C58.3473 48.0569 58.2482 48.0935 58.1567 48.1449L54.7478 50.0631C54.6592 50.1081 54.5642 50.1391 54.4661 50.1551C54.4079 50.1675 54.3485 50.174 54.289 50.1746C54.2235 50.1768 54.1579 50.1719 54.0934 50.1599C54.0343 50.1493 53.9764 50.1332 53.9202 50.112C53.8494 50.0875 53.7818 50.0547 53.7187 50.0142C53.6897 49.9958 53.6616 49.9758 53.6346 49.9545C53.5502 49.8844 53.4784 49.8004 53.4224 49.7061L53.4135 49.6953V49.6865C53.3707 49.6012 53.341 49.5098 53.3255 49.4156C53.3125 49.3541 53.3053 49.2915 53.304 49.2287C53.3012 49.1487 53.3077 49.0686 53.3236 48.99C53.3236 48.9715 53.3294 48.9519 53.3353 48.9343C53.3669 48.8289 53.4162 48.7297 53.481 48.6408C53.4947 48.6213 53.5114 48.6046 53.526 48.5861C53.5992 48.4954 53.688 48.4186 53.7882 48.3591L57.1981 46.439ZM54.3379 57.6636C54.3379 58.1824 54.1318 58.68 53.7649 59.0469C53.398 59.4138 52.9004 59.6199 52.3816 59.6199C51.8627 59.6199 51.3651 59.4138 50.9982 59.0469C50.6313 58.68 50.4252 58.1824 50.4252 57.6636V57.3779C50.4256 57.0741 50.4963 56.7745 50.6316 56.5025L52.3816 53.0025L54.1315 56.5015C54.2673 56.7751 54.338 57.0764 54.3379 57.3818V57.6636ZM73.3254 43.7656C73.2734 43.9521 73.1673 44.119 73.0205 44.2452C72.8737 44.3714 72.6927 44.4511 72.5005 44.4744C72.3083 44.4976 72.1135 44.4633 71.9408 44.3758C71.7681 44.2883 71.6253 44.1515 71.5304 43.9827L67.691 37.1648C67.5638 36.9386 67.5316 36.6711 67.6016 36.4212C67.6716 36.1712 67.838 35.9593 68.0642 35.8321C68.2904 35.7048 68.558 35.6726 68.8079 35.7426C69.0578 35.8126 69.2697 35.979 69.397 36.2052L73.2354 43.0241C73.3623 43.2497 73.3946 43.5163 73.3254 43.7656ZM80.962 36.5642C80.8589 36.9357 80.6833 37.2831 80.4452 37.5863C80.2071 37.8895 79.9113 38.1426 79.5749 38.3308L74.46 41.2106L71.5813 36.0967L76.6942 33.2169C77.2 32.9315 77.7791 32.8026 78.3582 32.8466C78.9373 32.8905 79.4903 33.1053 79.9473 33.4637C80.4042 33.8221 80.7446 34.308 80.9252 34.8599C81.1058 35.4119 81.1186 36.005 80.962 36.5642Z" fill="white"/>
<path d="M44.5561 58.6417V59.6199C44.5577 61.176 45.1765 62.6679 46.2769 63.7682C47.3772 64.8685 48.8691 65.4874 50.4252 65.4889V63.5326C49.3875 63.5326 48.3923 63.1204 47.6585 62.3866C46.9247 61.6528 46.5125 60.6576 46.5125 59.6199V58.6417H44.5561Z" fill="white"/>
<path d="M66.0761 65.489H64.1197V67.4453H66.0761V65.489Z" fill="white"/>
<path d="M69.9888 65.489H68.0324V67.4453H69.9888V65.489Z" fill="white"/>
<path d="M69.9888 61.5762H68.0324V63.5326H69.9888V61.5762Z" fill="white"/>
<path d="M73.9015 65.489H71.9451V67.4453H73.9015V65.489Z" fill="white"/>
<path d="M73.9015 61.5762H71.9451V63.5326H73.9015V61.5762Z" fill="white"/>
<path d="M73.9015 57.6635H71.9451V59.6199H73.9015V57.6635Z" fill="white"/>
<path d="M40.6434 65.489H38.6871V67.4453H40.6434V65.489Z" fill="white"/>
<path d="M36.7307 65.489H34.7743V67.4453H36.7307V65.489Z" fill="white"/>
<path d="M36.7307 61.5762H34.7743V63.5326H36.7307V61.5762Z" fill="white"/>
<path d="M32.818 65.489H30.8616V67.4453H32.818V65.489Z" fill="white"/>
<path d="M32.818 61.5762H30.8616V63.5326H32.818V61.5762Z" fill="white"/>
<path d="M32.818 57.6635H30.8616V59.6199H32.818V57.6635Z" fill="white"/>
<path d="M34.7743 52.7726C34.7743 52.1922 34.6022 51.6249 34.2798 51.1423C33.9573 50.6597 33.499 50.2836 32.9628 50.0615C32.4266 49.8394 31.8366 49.7812 31.2673 49.8945C30.6981 50.0077 30.1752 50.2872 29.7648 50.6976C29.3544 51.108 29.0749 51.6309 28.9617 52.2001C28.8484 52.7694 28.9065 53.3594 29.1287 53.8956C29.3508 54.4318 29.7269 54.8901 30.2095 55.2126C30.6921 55.5351 31.2594 55.7072 31.8398 55.7072C32.6181 55.7072 33.3645 55.398 33.9148 54.8477C34.4652 54.2973 34.7743 53.5509 34.7743 52.7726ZM31.8398 53.7508C31.6463 53.7508 31.4572 53.6934 31.2964 53.5859C31.1355 53.4785 31.0101 53.3257 30.9361 53.147C30.8621 52.9682 30.8427 52.7715 30.8804 52.5818C30.9182 52.392 31.0113 52.2177 31.1481 52.0809C31.2849 51.9441 31.4592 51.851 31.649 51.8132C31.8387 51.7755 32.0354 51.7949 32.2141 51.8689C32.3929 51.9429 32.5457 52.0683 32.6531 52.2292C32.7606 52.39 32.818 52.5792 32.818 52.7726C32.818 53.032 32.7149 53.2809 32.5315 53.4643C32.348 53.6477 32.0992 53.7508 31.8398 53.7508Z" fill="white"/>
<path d="M73.3987 48.8599H72.4479C71.796 48.8607 71.1709 49.12 70.7099 49.581C70.2489 50.042 69.9896 50.6671 69.9888 51.319V53.248C69.9896 53.9 70.2489 54.525 70.7099 54.986C71.1709 55.447 71.796 55.7064 72.4479 55.7072H73.3987C74.0507 55.7064 74.6757 55.447 75.1367 54.986C75.5978 54.525 75.8571 53.9 75.8579 53.248V51.319C75.8571 50.6671 75.5978 50.042 75.1367 49.581C74.6757 49.12 74.0507 48.8607 73.3987 48.8599ZM73.9015 53.248C73.9015 53.314 73.8885 53.3794 73.8632 53.4404C73.838 53.5014 73.8009 53.5569 73.7542 53.6035C73.7076 53.6502 73.6521 53.6873 73.5911 53.7125C73.5301 53.7378 73.4647 53.7508 73.3987 53.7508H72.4479C72.3146 53.7508 72.1867 53.6978 72.0924 53.6035C71.9981 53.5092 71.9451 53.3814 71.9451 53.248V51.319C71.9451 51.1857 71.9981 51.0578 72.0924 50.9635C72.1867 50.8692 72.3146 50.8163 72.4479 50.8163H73.3987C73.5321 50.8163 73.66 50.8692 73.7542 50.9635C73.8485 51.0578 73.9015 51.1857 73.9015 51.319V53.248Z" fill="white"/>
<circle cx="55.9999" cy="56.9672" r="49.4999" stroke="white"/>
<defs>
<filter id="filter0_f" x="0" y="0.967285" width="112" height="112" filterUnits="userSpaceOnUse" color-interpolation-filters="sRGB">
<feFlood flood-opacity="0" result="BackgroundImageFix"/>
<feBlend mode="normal" in="SourceGraphic" in2="BackgroundImageFix" result="shape"/>
<feGaussianBlur stdDeviation="3" result="effect1_foregroundBlur"/>
</filter>
<filter id="filter1_f" x="22.9053" y="24.8458" width="66.191" height="62.294" filterUnits="userSpaceOnUse" color-interpolation-filters="sRGB">
<feFlood flood-opacity="0" result="BackgroundImageFix"/>
<feBlend mode="normal" in="SourceGraphic" in2="BackgroundImageFix" result="shape"/>
<feGaussianBlur stdDeviation="3" result="effect1_foregroundBlur"/>
</filter>
</defs>
</svg>
