<svg width="112" height="113" viewBox="0 0 112 113" fill="none" xmlns="http://www.w3.org/2000/svg">
<g filter="url(#filter0_f)">
<circle cx="55.9999" cy="56.621" r="49.4999" stroke="#38A7C9"/>
</g>
<g filter="url(#filter1_f)">
<circle r="50" transform="matrix(1 0 -2.58096e-08 -1 56 56.621)" fill="url(#paint0_linear)"/>
<circle r="49.5" transform="matrix(1 0 -2.58096e-08 -1 56 56.621)" stroke="#38A7C9"/>
</g>
<g filter="url(#filter2_f)">
<path d="M74.8797 69.0555H29.8835C29.624 69.0555 29.3752 69.1585 29.1918 69.342C29.0083 69.5254 28.9053 69.7742 28.9053 70.0337V77.8591C28.9053 78.6374 29.2144 79.3838 29.7648 79.9341C30.3151 80.4844 31.0615 80.7936 31.8398 80.7936H72.9233C73.7016 80.7936 74.448 80.4844 74.9984 79.9341C75.5487 79.3838 75.8579 78.6374 75.8579 77.8591V70.0337C75.8579 69.7742 75.7548 69.5254 75.5714 69.342C75.3879 69.1585 75.1391 69.0555 74.8797 69.0555ZM73.9015 72.9682H57.1746C57.0237 72.2564 56.7145 71.5878 56.2698 71.0118H73.9015V72.9682ZM49.6143 72.9682C49.8164 72.3957 50.191 71.8999 50.6866 71.5492C51.1822 71.1986 51.7744 71.0102 52.3816 71.0102C52.9887 71.0102 53.5809 71.1986 54.0765 71.5492C54.5721 71.8999 54.9468 72.3957 55.1488 72.9682H49.6143ZM48.4943 71.0118C48.0496 71.5878 47.7404 72.2564 47.5895 72.9682H30.8616V71.0118H48.4943ZM73.9015 77.8591C73.9015 78.1185 73.7984 78.3673 73.615 78.5508C73.4316 78.7342 73.1828 78.8373 72.9233 78.8373H31.8398C31.5804 78.8373 31.3316 78.7342 31.1481 78.5508C30.9647 78.3673 30.8616 78.1185 30.8616 77.8591V74.9246H37.3039L36.0391 76.1893L37.4223 77.5725L40.0702 74.9246H43.173L41.9082 76.1893L43.2914 77.5725L45.9393 74.9246H49.0421L47.7773 76.1893L49.1604 77.5725L51.8084 74.9246H54.9111L53.6464 76.1893L55.0295 77.5725L57.6774 74.9246H60.7802L59.5154 76.1893L60.8986 77.5725L63.5465 74.9246H66.6493L65.3845 76.1893L66.7676 77.5725L69.4156 74.9246H73.9015V77.8591Z" fill="#07A7D8"/>
<path d="M75.7356 31.1667L70.4661 34.1345C70.0132 33.7316 69.4453 33.4807 68.8424 33.4174C68.2395 33.3541 67.6319 33.4814 67.1051 33.7814C66.4271 34.1631 65.9284 34.7985 65.7187 35.5478C65.5091 36.2972 65.6056 37.0991 65.9871 37.7773L58.3162 42.0959C58.2248 42.1482 58.142 42.2142 58.0707 42.2916L56.0986 44.4661L52.8266 46.308C52.8198 46.308 52.8139 46.3187 52.8071 46.3226C52.6221 46.4298 52.4496 46.5571 52.2926 46.7022C52.2407 46.7501 52.1947 46.8 52.1488 46.8548C52.0461 46.961 51.9519 47.0752 51.867 47.1961C51.8201 47.2627 51.778 47.3311 51.7379 47.4016C51.6688 47.5227 51.6083 47.6485 51.557 47.7782C51.5266 47.8525 51.4953 47.9229 51.4709 47.9992C51.4132 48.185 51.3739 48.376 51.3535 48.5695C51.3535 48.5901 51.3427 48.6086 51.3408 48.6292C51.3103 49.0096 51.3541 49.3924 51.4699 49.756C51.4914 49.8245 51.5296 49.8881 51.556 49.9517C51.5367 49.9755 51.5188 50.0003 51.5022 50.026L48.8816 55.2828C48.611 55.8261 48.4697 56.4247 48.4689 57.0317V57.3174C48.4689 58.3551 48.8811 59.3503 49.6149 60.0841C50.3486 60.8179 51.3439 61.2301 52.3816 61.2301C53.4193 61.2301 54.4145 60.8179 55.1483 60.0841C55.8821 59.3503 56.2943 58.3551 56.2943 57.3174V57.0317C56.2933 56.4244 56.152 55.8255 55.8815 55.2818L54.1423 51.7936C54.1883 51.7936 54.2342 51.7995 54.2802 51.7995C54.5015 51.7968 54.7218 51.7686 54.9366 51.7153C54.9767 51.7056 55.0158 51.6977 55.0559 51.687C55.096 51.6762 55.1332 51.6713 55.1713 51.6596C55.3591 51.5986 55.5404 51.519 55.7123 51.4219L58.9853 49.5809L61.865 49.0234C61.968 49.0032 62.0671 48.9665 62.1585 48.9148L69.8303 44.5952C70.1662 45.2023 70.7068 45.6703 71.3558 45.9157C72.0048 46.1611 72.7198 46.1678 73.3733 45.9348C74.0268 45.7017 74.5762 45.244 74.9235 44.6433C75.2707 44.0426 75.3932 43.3381 75.269 42.6554L80.5375 39.6896C81.1077 39.3803 81.6107 38.9606 82.0172 38.455C82.4237 37.9494 82.7255 37.3679 82.9051 36.7445C83.0847 36.1212 83.1385 35.4683 83.0633 34.8239C82.9882 34.1795 82.7855 33.5566 82.4673 32.9913C82.1491 32.4259 81.7215 31.9296 81.2096 31.5311C80.6977 31.1326 80.1116 30.8399 79.4855 30.6701C78.8594 30.5003 78.2057 30.4568 77.5626 30.5421C76.9195 30.6273 76.2998 30.8397 75.7395 31.1667H75.7356ZM68.7279 42.6447H61.329L66.9467 39.4822L68.7279 42.6447ZM57.1981 46.0928C57.2901 46.0414 57.373 45.9753 57.4436 45.8971L58.6184 44.601H65.8296L61.3299 47.1326L58.4502 47.6901C58.3473 47.7107 58.2482 47.7473 58.1567 47.7987L54.7478 49.7169C54.6592 49.7619 54.5642 49.793 54.4661 49.8089C54.4079 49.8213 54.3485 49.8278 54.289 49.8284C54.2235 49.8306 54.1579 49.8257 54.0934 49.8138C54.0343 49.8031 53.9764 49.787 53.9202 49.7658C53.8494 49.7413 53.7818 49.7085 53.7187 49.668C53.6897 49.6496 53.6616 49.6297 53.6346 49.6083C53.5502 49.5382 53.4784 49.4542 53.4224 49.3599L53.4135 49.3491V49.3403C53.3707 49.255 53.341 49.1636 53.3255 49.0694C53.3125 49.0079 53.3053 48.9453 53.304 48.8825C53.3012 48.8025 53.3077 48.7224 53.3236 48.6439C53.3236 48.6253 53.3294 48.6057 53.3353 48.5881C53.3669 48.4827 53.4162 48.3835 53.481 48.2946C53.4947 48.2751 53.5114 48.2585 53.526 48.2399C53.5992 48.1492 53.688 48.0724 53.7882 48.0129L57.1981 46.0928ZM54.3379 57.3174C54.3379 57.8362 54.1318 58.3338 53.7649 58.7007C53.398 59.0676 52.9004 59.2737 52.3816 59.2737C51.8627 59.2737 51.3651 59.0676 50.9982 58.7007C50.6313 58.3338 50.4252 57.8362 50.4252 57.3174V57.0317C50.4256 56.7279 50.4963 56.4283 50.6316 56.1563L52.3816 52.6563L54.1315 56.1553C54.2673 56.4289 54.338 56.7302 54.3379 57.0357V57.3174ZM73.3254 43.4194C73.2734 43.6059 73.1673 43.7728 73.0205 43.899C72.8737 44.0252 72.6927 44.1049 72.5005 44.1282C72.3083 44.1514 72.1135 44.1171 71.9408 44.0296C71.7681 43.9421 71.6253 43.8053 71.5304 43.6366L67.691 36.8186C67.5638 36.5924 67.5316 36.3249 67.6016 36.075C67.6716 35.825 67.838 35.6131 68.0642 35.4859C68.2904 35.3586 68.558 35.3265 68.8079 35.3964C69.0578 35.4664 69.2697 35.6328 69.397 35.8591L73.2354 42.6779C73.3623 42.9035 73.3946 43.1701 73.3254 43.4194ZM80.962 36.218C80.8589 36.5895 80.6833 36.9369 80.4452 37.2401C80.2071 37.5433 79.9113 37.7964 79.5749 37.9846L74.46 40.8644L71.5813 35.7505L76.6942 32.8707C77.2 32.5853 77.7791 32.4565 78.3582 32.5004C78.9373 32.5443 79.4903 32.7591 79.9473 33.1175C80.4042 33.4759 80.7446 33.9618 80.9252 34.5137C81.1058 35.0657 81.1186 35.6588 80.962 36.218Z" fill="#07A7D8"/>
<path d="M44.5561 58.2955V59.2737C44.5577 60.8298 45.1765 62.3217 46.2769 63.422C47.3772 64.5224 48.8691 65.1412 50.4252 65.1428V63.1864C49.3875 63.1864 48.3923 62.7742 47.6585 62.0404C46.9247 61.3066 46.5125 60.3114 46.5125 59.2737V58.2955H44.5561Z" fill="#07A7D8"/>
<path d="M66.0761 65.1428H64.1197V67.0991H66.0761V65.1428Z" fill="#07A7D8"/>
<path d="M69.9888 65.1428H68.0324V67.0991H69.9888V65.1428Z" fill="#07A7D8"/>
<path d="M69.9888 61.23H68.0324V63.1864H69.9888V61.23Z" fill="#07A7D8"/>
<path d="M73.9015 65.1428H71.9451V67.0991H73.9015V65.1428Z" fill="#07A7D8"/>
<path d="M73.9015 61.23H71.9451V63.1864H73.9015V61.23Z" fill="#07A7D8"/>
<path d="M73.9015 57.3173H71.9451V59.2737H73.9015V57.3173Z" fill="#07A7D8"/>
<path d="M40.6434 65.1428H38.6871V67.0991H40.6434V65.1428Z" fill="#07A7D8"/>
<path d="M36.7307 65.1428H34.7743V67.0991H36.7307V65.1428Z" fill="#07A7D8"/>
<path d="M36.7307 61.23H34.7743V63.1864H36.7307V61.23Z" fill="#07A7D8"/>
<path d="M32.818 65.1428H30.8616V67.0991H32.818V65.1428Z" fill="#07A7D8"/>
<path d="M32.818 61.23H30.8616V63.1864H32.818V61.23Z" fill="#07A7D8"/>
<path d="M32.818 57.3173H30.8616V59.2737H32.818V57.3173Z" fill="#07A7D8"/>
<path d="M34.7743 52.4264C34.7743 51.846 34.6022 51.2787 34.2798 50.7961C33.9573 50.3135 33.499 49.9374 32.9628 49.7153C32.4266 49.4932 31.8366 49.435 31.2673 49.5483C30.6981 49.6615 30.1752 49.941 29.7648 50.3514C29.3544 50.7618 29.0749 51.2847 28.9617 51.8539C28.8484 52.4232 28.9065 53.0132 29.1287 53.5494C29.3508 54.0856 29.7269 54.544 30.2095 54.8664C30.6921 55.1889 31.2594 55.361 31.8398 55.361C32.6181 55.361 33.3645 55.0518 33.9148 54.5015C34.4652 53.9511 34.7743 53.2047 34.7743 52.4264ZM31.8398 53.4046C31.6463 53.4046 31.4572 53.3472 31.2964 53.2398C31.1355 53.1323 31.0101 52.9795 30.9361 52.8008C30.8621 52.622 30.8427 52.4253 30.8804 52.2356C30.9182 52.0458 31.0113 51.8716 31.1481 51.7348C31.2849 51.598 31.4592 51.5048 31.649 51.467C31.8387 51.4293 32.0354 51.4487 32.2141 51.5227C32.3929 51.5967 32.5457 51.7221 32.6531 51.883C32.7606 52.0438 32.818 52.233 32.818 52.4264C32.818 52.6859 32.7149 52.9347 32.5315 53.1181C32.348 53.3016 32.0992 53.4046 31.8398 53.4046Z" fill="#07A7D8"/>
<path d="M73.3987 48.5137H72.4479C71.796 48.5145 71.1709 48.7738 70.7099 49.2348C70.2489 49.6958 69.9896 50.3209 69.9888 50.9729V52.9018C69.9896 53.5538 70.2489 54.1788 70.7099 54.6398C71.1709 55.1009 71.796 55.3602 72.4479 55.361H73.3987C74.0507 55.3602 74.6757 55.1009 75.1367 54.6398C75.5978 54.1788 75.8571 53.5538 75.8579 52.9018V50.9729C75.8571 50.3209 75.5978 49.6958 75.1367 49.2348C74.6757 48.7738 74.0507 48.5145 73.3987 48.5137ZM73.9015 52.9018C73.9015 52.9679 73.8885 53.0332 73.8632 53.0942C73.838 53.1552 73.8009 53.2107 73.7542 53.2573C73.7076 53.304 73.6521 53.3411 73.5911 53.3663C73.5301 53.3916 73.4647 53.4046 73.3987 53.4046H72.4479C72.3146 53.4046 72.1867 53.3516 72.0924 53.2573C71.9981 53.1631 71.9451 53.0352 71.9451 52.9018V50.9729C71.9451 50.8395 71.9981 50.7116 72.0924 50.6173C72.1867 50.523 72.3146 50.4701 72.4479 50.4701H73.3987C73.5321 50.4701 73.66 50.523 73.7542 50.6173C73.8485 50.7116 73.9015 50.8395 73.9015 50.9729V52.9018Z" fill="#07A7D8"/>
</g>
<path d="M74.8797 69.0555H29.8835C29.624 69.0555 29.3752 69.1585 29.1918 69.342C29.0083 69.5254 28.9053 69.7742 28.9053 70.0337V77.8591C28.9053 78.6374 29.2144 79.3838 29.7648 79.9341C30.3151 80.4844 31.0615 80.7936 31.8398 80.7936H72.9233C73.7016 80.7936 74.448 80.4844 74.9984 79.9341C75.5487 79.3838 75.8579 78.6374 75.8579 77.8591V70.0337C75.8579 69.7742 75.7548 69.5254 75.5714 69.342C75.3879 69.1585 75.1391 69.0555 74.8797 69.0555ZM73.9015 72.9682H57.1746C57.0237 72.2564 56.7145 71.5878 56.2698 71.0118H73.9015V72.9682ZM49.6143 72.9682C49.8164 72.3957 50.191 71.8999 50.6866 71.5492C51.1822 71.1986 51.7744 71.0102 52.3816 71.0102C52.9887 71.0102 53.5809 71.1986 54.0765 71.5492C54.5721 71.8999 54.9468 72.3957 55.1488 72.9682H49.6143ZM48.4943 71.0118C48.0496 71.5878 47.7404 72.2564 47.5895 72.9682H30.8616V71.0118H48.4943ZM73.9015 77.8591C73.9015 78.1185 73.7984 78.3673 73.615 78.5508C73.4316 78.7342 73.1828 78.8373 72.9233 78.8373H31.8398C31.5804 78.8373 31.3316 78.7342 31.1481 78.5508C30.9647 78.3673 30.8616 78.1185 30.8616 77.8591V74.9246H37.3039L36.0391 76.1893L37.4223 77.5725L40.0702 74.9246H43.173L41.9082 76.1893L43.2914 77.5725L45.9393 74.9246H49.0421L47.7773 76.1893L49.1604 77.5725L51.8084 74.9246H54.9111L53.6464 76.1893L55.0295 77.5725L57.6774 74.9246H60.7802L59.5154 76.1893L60.8986 77.5725L63.5465 74.9246H66.6493L65.3845 76.1893L66.7676 77.5725L69.4156 74.9246H73.9015V77.8591Z" fill="white"/>
<path d="M75.7356 31.1667L70.4661 34.1345C70.0132 33.7316 69.4453 33.4807 68.8424 33.4174C68.2395 33.3541 67.6319 33.4814 67.1051 33.7814C66.4271 34.1631 65.9284 34.7985 65.7187 35.5478C65.5091 36.2972 65.6056 37.0991 65.9871 37.7773L58.3162 42.0959C58.2248 42.1482 58.142 42.2142 58.0707 42.2916L56.0986 44.4661L52.8266 46.308C52.8198 46.308 52.8139 46.3187 52.8071 46.3226C52.6221 46.4298 52.4496 46.5571 52.2926 46.7022C52.2407 46.7501 52.1947 46.8 52.1488 46.8548C52.0461 46.961 51.9519 47.0752 51.867 47.1961C51.8201 47.2627 51.778 47.3311 51.7379 47.4016C51.6688 47.5227 51.6083 47.6485 51.557 47.7782C51.5266 47.8525 51.4953 47.9229 51.4709 47.9992C51.4132 48.185 51.3739 48.376 51.3535 48.5695C51.3535 48.5901 51.3427 48.6086 51.3408 48.6292C51.3103 49.0096 51.3541 49.3924 51.4699 49.756C51.4914 49.8245 51.5296 49.8881 51.556 49.9517C51.5367 49.9755 51.5188 50.0003 51.5022 50.026L48.8816 55.2828C48.611 55.8261 48.4697 56.4247 48.4689 57.0317V57.3174C48.4689 58.3551 48.8811 59.3503 49.6149 60.0841C50.3486 60.8179 51.3439 61.2301 52.3816 61.2301C53.4193 61.2301 54.4145 60.8179 55.1483 60.0841C55.8821 59.3503 56.2943 58.3551 56.2943 57.3174V57.0317C56.2933 56.4244 56.152 55.8255 55.8815 55.2818L54.1423 51.7936C54.1883 51.7936 54.2342 51.7995 54.2802 51.7995C54.5015 51.7968 54.7218 51.7686 54.9366 51.7153C54.9767 51.7056 55.0158 51.6977 55.0559 51.687C55.096 51.6762 55.1332 51.6713 55.1713 51.6596C55.3591 51.5986 55.5404 51.519 55.7123 51.4219L58.9853 49.5809L61.865 49.0234C61.968 49.0032 62.0671 48.9665 62.1585 48.9148L69.8303 44.5952C70.1662 45.2023 70.7068 45.6703 71.3558 45.9157C72.0048 46.1611 72.7198 46.1678 73.3733 45.9348C74.0268 45.7017 74.5762 45.244 74.9235 44.6433C75.2707 44.0426 75.3932 43.3381 75.269 42.6554L80.5375 39.6896C81.1077 39.3803 81.6107 38.9606 82.0172 38.455C82.4237 37.9494 82.7255 37.3679 82.9051 36.7445C83.0847 36.1212 83.1385 35.4683 83.0633 34.8239C82.9882 34.1795 82.7855 33.5566 82.4673 32.9913C82.1491 32.4259 81.7215 31.9296 81.2096 31.5311C80.6977 31.1326 80.1116 30.8399 79.4855 30.6701C78.8594 30.5003 78.2057 30.4568 77.5626 30.5421C76.9195 30.6273 76.2998 30.8397 75.7395 31.1667H75.7356ZM68.7279 42.6447H61.329L66.9467 39.4822L68.7279 42.6447ZM57.1981 46.0928C57.2901 46.0414 57.373 45.9753 57.4436 45.8971L58.6184 44.601H65.8296L61.3299 47.1326L58.4502 47.6901C58.3473 47.7107 58.2482 47.7473 58.1567 47.7987L54.7478 49.7169C54.6592 49.7619 54.5642 49.793 54.4661 49.8089C54.4079 49.8213 54.3485 49.8278 54.289 49.8284C54.2235 49.8306 54.1579 49.8257 54.0934 49.8138C54.0343 49.8031 53.9764 49.787 53.9202 49.7658C53.8494 49.7413 53.7818 49.7085 53.7187 49.668C53.6897 49.6496 53.6616 49.6297 53.6346 49.6083C53.5502 49.5382 53.4784 49.4542 53.4224 49.3599L53.4135 49.3491V49.3403C53.3707 49.255 53.341 49.1636 53.3255 49.0694C53.3125 49.0079 53.3053 48.9453 53.304 48.8825C53.3012 48.8025 53.3077 48.7224 53.3236 48.6439C53.3236 48.6253 53.3294 48.6057 53.3353 48.5881C53.3669 48.4827 53.4162 48.3835 53.481 48.2946C53.4947 48.2751 53.5114 48.2585 53.526 48.2399C53.5992 48.1492 53.688 48.0724 53.7882 48.0129L57.1981 46.0928ZM54.3379 57.3174C54.3379 57.8362 54.1318 58.3338 53.7649 58.7007C53.398 59.0676 52.9004 59.2737 52.3816 59.2737C51.8627 59.2737 51.3651 59.0676 50.9982 58.7007C50.6313 58.3338 50.4252 57.8362 50.4252 57.3174V57.0317C50.4256 56.7279 50.4963 56.4283 50.6316 56.1563L52.3816 52.6563L54.1315 56.1553C54.2673 56.4289 54.338 56.7302 54.3379 57.0357V57.3174ZM73.3254 43.4194C73.2734 43.6059 73.1673 43.7728 73.0205 43.899C72.8737 44.0252 72.6927 44.1049 72.5005 44.1282C72.3083 44.1514 72.1135 44.1171 71.9408 44.0296C71.7681 43.9421 71.6253 43.8053 71.5304 43.6366L67.691 36.8186C67.5638 36.5924 67.5316 36.3249 67.6016 36.075C67.6716 35.825 67.838 35.6131 68.0642 35.4859C68.2904 35.3586 68.558 35.3265 68.8079 35.3964C69.0578 35.4664 69.2697 35.6328 69.397 35.8591L73.2354 42.6779C73.3623 42.9035 73.3946 43.1701 73.3254 43.4194ZM80.962 36.218C80.8589 36.5895 80.6833 36.9369 80.4452 37.2401C80.2071 37.5433 79.9113 37.7964 79.5749 37.9846L74.46 40.8644L71.5813 35.7505L76.6942 32.8707C77.2 32.5853 77.7791 32.4565 78.3582 32.5004C78.9373 32.5443 79.4903 32.7591 79.9473 33.1175C80.4042 33.4759 80.7446 33.9618 80.9252 34.5137C81.1058 35.0657 81.1186 35.6588 80.962 36.218Z" fill="white"/>
<path d="M44.5561 58.2955V59.2737C44.5577 60.8298 45.1765 62.3217 46.2769 63.422C47.3772 64.5224 48.8691 65.1412 50.4252 65.1428V63.1864C49.3875 63.1864 48.3923 62.7742 47.6585 62.0404C46.9247 61.3066 46.5125 60.3114 46.5125 59.2737V58.2955H44.5561Z" fill="white"/>
<path d="M66.0761 65.1428H64.1197V67.0991H66.0761V65.1428Z" fill="white"/>
<path d="M69.9888 65.1428H68.0324V67.0991H69.9888V65.1428Z" fill="white"/>
<path d="M69.9888 61.23H68.0324V63.1864H69.9888V61.23Z" fill="white"/>
<path d="M73.9015 65.1428H71.9451V67.0991H73.9015V65.1428Z" fill="white"/>
<path d="M73.9015 61.23H71.9451V63.1864H73.9015V61.23Z" fill="white"/>
<path d="M73.9015 57.3173H71.9451V59.2737H73.9015V57.3173Z" fill="white"/>
<path d="M40.6434 65.1428H38.6871V67.0991H40.6434V65.1428Z" fill="white"/>
<path d="M36.7307 65.1428H34.7743V67.0991H36.7307V65.1428Z" fill="white"/>
<path d="M36.7307 61.23H34.7743V63.1864H36.7307V61.23Z" fill="white"/>
<path d="M32.818 65.1428H30.8616V67.0991H32.818V65.1428Z" fill="white"/>
<path d="M32.818 61.23H30.8616V63.1864H32.818V61.23Z" fill="white"/>
<path d="M32.818 57.3173H30.8616V59.2737H32.818V57.3173Z" fill="white"/>
<path d="M34.7743 52.4264C34.7743 51.846 34.6022 51.2787 34.2798 50.7961C33.9573 50.3135 33.499 49.9374 32.9628 49.7153C32.4266 49.4932 31.8366 49.435 31.2673 49.5483C30.6981 49.6615 30.1752 49.941 29.7648 50.3514C29.3544 50.7618 29.0749 51.2847 28.9617 51.8539C28.8484 52.4232 28.9065 53.0132 29.1287 53.5494C29.3508 54.0856 29.7269 54.544 30.2095 54.8664C30.6921 55.1889 31.2594 55.361 31.8398 55.361C32.6181 55.361 33.3645 55.0518 33.9148 54.5015C34.4652 53.9511 34.7743 53.2047 34.7743 52.4264ZM31.8398 53.4046C31.6463 53.4046 31.4572 53.3472 31.2964 53.2398C31.1355 53.1323 31.0101 52.9795 30.9361 52.8008C30.8621 52.622 30.8427 52.4253 30.8804 52.2356C30.9182 52.0458 31.0113 51.8716 31.1481 51.7348C31.2849 51.598 31.4592 51.5048 31.649 51.467C31.8387 51.4293 32.0354 51.4487 32.2141 51.5227C32.3929 51.5967 32.5457 51.7221 32.6531 51.883C32.7606 52.0438 32.818 52.233 32.818 52.4264C32.818 52.6859 32.7149 52.9347 32.5315 53.1181C32.348 53.3016 32.0992 53.4046 31.8398 53.4046Z" fill="white"/>
<path d="M73.3987 48.5137H72.4479C71.796 48.5145 71.1709 48.7738 70.7099 49.2348C70.2489 49.6958 69.9896 50.3209 69.9888 50.9729V52.9018C69.9896 53.5538 70.2489 54.1788 70.7099 54.6398C71.1709 55.1009 71.796 55.3602 72.4479 55.361H73.3987C74.0507 55.3602 74.6757 55.1009 75.1367 54.6398C75.5978 54.1788 75.8571 53.5538 75.8579 52.9018V50.9729C75.8571 50.3209 75.5978 49.6958 75.1367 49.2348C74.6757 48.7738 74.0507 48.5145 73.3987 48.5137ZM73.9015 52.9018C73.9015 52.9679 73.8885 53.0332 73.8632 53.0942C73.838 53.1552 73.8009 53.2107 73.7542 53.2573C73.7076 53.304 73.6521 53.3411 73.5911 53.3663C73.5301 53.3916 73.4647 53.4046 73.3987 53.4046H72.4479C72.3146 53.4046 72.1867 53.3516 72.0924 53.2573C71.9981 53.1631 71.9451 53.0352 71.9451 52.9018V50.9729C71.9451 50.8395 71.9981 50.7116 72.0924 50.6173C72.1867 50.523 72.3146 50.4701 72.4479 50.4701H73.3987C73.5321 50.4701 73.66 50.523 73.7542 50.6173C73.8485 50.7116 73.9015 50.8395 73.9015 50.9729V52.9018Z" fill="white"/>
<circle cx="55.9999" cy="56.621" r="49.4999" stroke="white"/>
<defs>
<filter id="filter0_f" x="0" y="0.621094" width="112" height="112" filterUnits="userSpaceOnUse" color-interpolation-filters="sRGB">
<feFlood flood-opacity="0" result="BackgroundImageFix"/>
<feBlend mode="normal" in="SourceGraphic" in2="BackgroundImageFix" result="shape"/>
<feGaussianBlur stdDeviation="3" result="effect1_foregroundBlur"/>
</filter>
<filter id="filter1_f" x="0" y="0.621094" width="112" height="112" filterUnits="userSpaceOnUse" color-interpolation-filters="sRGB">
<feFlood flood-opacity="0" result="BackgroundImageFix"/>
<feBlend mode="normal" in="SourceGraphic" in2="BackgroundImageFix" result="shape"/>
<feGaussianBlur stdDeviation="3" result="effect1_foregroundBlur"/>
</filter>
<filter id="filter2_f" x="22.9053" y="24.4996" width="66.191" height="62.294" filterUnits="userSpaceOnUse" color-interpolation-filters="sRGB">
<feFlood flood-opacity="0" result="BackgroundImageFix"/>
<feBlend mode="normal" in="SourceGraphic" in2="BackgroundImageFix" result="shape"/>
<feGaussianBlur stdDeviation="3" result="effect1_foregroundBlur"/>
</filter>
<linearGradient id="paint0_linear" x1="50" y1="0" x2="50" y2="99.9999" gradientUnits="userSpaceOnUse">
<stop stop-color="#066E8D"/>
<stop offset="1" stop-color="#066E8D" stop-opacity="0"/>
</linearGradient>
</defs>
</svg>
