<svg width="58" height="67" viewBox="0 0 58 67" fill="none" xmlns="http://www.w3.org/2000/svg">
<path fill-rule="evenodd" clip-rule="evenodd" d="M0 12.3336H57.9997V38.656H0V12.3336ZM4.18035 9.39315C6.92856 9.39315 8.49619 8.37111 8.55443 6.46898H5.80592C5.72877 7.27119 5.24454 7.60765 4.18035 7.60765C3.329 7.60765 2.86418 7.24539 2.86418 6.46898V2.94997C2.86418 2.14757 3.3481 1.78531 4.18035 1.78531C5.22544 1.78531 5.69005 2.12177 5.76729 2.94997H8.5156C8.41884 1.03508 6.90935 0 4.19997 0C1.54842 0 0 1.03508 0 2.94997V6.46898C0 8.37111 1.54842 9.39315 4.18035 9.39315ZM15.2312 9.23787H18.0762L14.8249 0.181082H11.8831L8.63178 9.23787H11.4768L11.9218 7.73704H14.7862L15.2312 9.23787ZM12.4638 5.99019L12.7733 4.95539C12.967 4.30847 13.1797 3.20864 13.3154 2.47117H13.3928C13.5283 3.20864 13.7606 4.30847 13.9347 4.95539L14.2442 5.99019H12.4638ZM27.6583 0.181082L25.5296 3.60965C25.2512 4.05801 24.7941 4.85181 24.639 5.18827H24.5618C24.4068 4.85181 23.9498 4.0583 23.6714 3.60965L21.5426 0.181082H18.775V9.23787H21.4457V7.01252C21.4457 5.91134 21.3102 4.81306 21.252 3.71333L21.349 3.68734L22.5682 6.06797L23.2456 7.29718H25.9551L26.6326 6.06797L27.852 3.68734L27.9487 3.71333C27.8711 4.81306 27.7358 5.91086 27.7358 7.01252V9.23787H30.4259V0.181082H27.6583ZM37.836 9.23787H40.681L37.4294 0.181082H34.4879L31.2365 9.23787H34.0812L34.5266 7.73704H37.3908L37.836 9.23787ZM35.0684 5.99019L35.378 4.95539C35.5717 4.30847 35.7849 3.20864 35.9201 2.47117H35.9975C36.1328 3.20864 36.3474 4.31378 36.5392 4.95539L36.8488 5.99019H35.0684ZM45.3087 0.181082H41.3796V9.23787H44.1278V6.32665H45.3087C48.1146 6.32665 49.7792 5.18827 49.7792 3.26044C49.7792 1.31975 48.1146 0.181082 45.3087 0.181082ZM45.2696 4.58009H44.1278V1.92783H45.2696C46.3729 1.92783 46.9536 2.38044 46.9536 3.26044C46.9536 4.12719 46.3729 4.58009 45.2696 4.58009ZM55.1549 9.23787H58L54.7484 0.181082H51.8068L48.5554 9.23787H51.4003L51.8454 7.73704H54.7097L55.1549 9.23787ZM52.3873 5.99019L52.697 4.95539C52.8905 4.30847 53.1034 3.20864 53.2389 2.47117H53.3162C53.4518 3.20864 53.6666 4.31533 53.8584 4.95539L54.1679 5.99019H52.3873ZM0 41.7693H58L49.9022 48.5595H8.10647L0 41.7693ZM46.746 51.6692L39.4291 57.8045H18.5903L11.266 51.6692H46.746ZM36.2732 60.9142L28.9996 67L21.75 60.9142H36.2732ZM3.30907 32.3037V15.4409H6.93945V22.0824H13.9997V15.4409H17.6301V32.3037H13.9997V24.932H6.93945V32.3037H3.30907ZM21.1924 15.4409H35.4382V32.3037H31.8078V18.2905H24.8226V32.3037H21.1924V15.4409ZM38.9407 15.4409H42.5711V29.4541H49.5564V15.4409H53.1866V29.4541H54.6889V35.4786H51.6596V32.3037H38.9407V15.4409Z" fill="#07A7D8"/>
</svg>
