<svg width="113" height="113" viewBox="0 0 113 113" fill="none" xmlns="http://www.w3.org/2000/svg">
<g filter="url(#filter0_f)">
<path d="M52.1242 49.8699V48.8366C52.1242 47.7159 51.2122 46.8039 50.0915 46.8039H48.7364V40.0284C49.4837 40.0284 50.0915 39.4206 50.0915 38.6732V37.3181C50.0915 36.5708 49.4837 35.963 48.7364 35.963H43.3159C42.5686 35.963 41.9608 36.5708 41.9608 37.3181V38.6732C41.9608 39.4206 42.5686 40.0284 43.3159 40.0284V41.3835H39.9281V37.9957H35.8628V43.4161C35.8628 44.5368 36.7748 45.4488 37.8955 45.4488H43.3159V46.8039H41.9608C40.8401 46.8039 39.9281 47.7159 39.9281 48.8366V49.8699C37.5635 50.71 35.8628 52.9636 35.8628 55.6122V74.5838C35.8628 76.4518 37.3826 77.9715 39.2506 77.9715H52.8017C54.6697 77.9715 56.1895 76.4518 56.1895 74.5838V55.6122C56.1895 52.9636 54.4888 50.71 52.1242 49.8699ZM43.3159 37.3181H48.7364V38.6732H43.3159V37.3181ZM37.8955 44.0937C37.5221 44.0937 37.2179 43.7895 37.2179 43.4161V39.3508H38.573V42.7386H43.3159V44.0937H37.8955ZM44.671 40.0284H47.3813V46.8039H44.671V40.0284ZM41.9608 50.8693H48.0588V49.5142H41.9608C41.7318 49.5142 41.5062 49.5291 41.2832 49.5541V48.8366C41.2832 48.4633 41.5875 48.159 41.9608 48.159H50.0915C50.4648 48.159 50.769 48.4633 50.769 48.8366V49.5541C50.5461 49.5291 50.3205 49.5142 50.0915 49.5142H49.4139V50.8693H50.0915C51.9785 50.8693 53.6073 51.9798 54.3703 53.5795H37.682C38.445 51.9798 40.0738 50.8693 41.9608 50.8693ZM54.8344 55.6122V72.5511H37.2179V55.6122C37.2179 55.3818 37.2403 55.1568 37.2721 54.9346H54.7802C54.812 55.1568 54.8344 55.3818 54.8344 55.6122ZM52.8017 76.6164H39.2506C38.1299 76.6164 37.2179 75.7044 37.2179 74.5838V73.9062H54.8344V74.5838C54.8344 75.7044 53.9224 76.6164 52.8017 76.6164Z" fill="#07A7D8"/>
<path d="M73.1284 46.8039H70.4182V44.5924C70.6614 44.4223 70.8884 44.2306 71.0958 44.0185V44.0937H75.1611V37.3181H71.0958V37.3927C70.2339 36.5118 69.0346 35.963 67.708 35.963C65.3236 35.963 63.3499 37.7335 63.0193 40.0284H60.9324C59.0644 40.0284 57.5446 41.5481 57.5446 43.4161V44.7713H58.8997V43.4161C58.8997 42.2955 59.8117 41.3835 60.9324 41.3835H63.0193C63.2103 42.7088 63.9469 43.8579 64.9977 44.5924V46.8039H62.2875C59.6721 46.8039 57.5446 48.9315 57.5446 51.5468V74.5838C57.5446 76.4518 59.0644 77.9715 60.9324 77.9715H74.4835C76.3516 77.9715 77.8713 76.4518 77.8713 74.5838V51.5468C77.8713 48.9315 75.7438 46.8039 73.1284 46.8039ZM73.806 38.6732V42.7386H71.9867C72.2815 42.1213 72.4509 41.4343 72.4509 40.7059C72.4509 39.9775 72.2815 39.2905 71.9867 38.6732H73.806ZM64.3202 40.7059C64.3202 38.8379 65.8399 37.3181 67.708 37.3181C69.576 37.3181 71.0958 38.8379 71.0958 40.7059C71.0958 42.5739 69.576 44.0937 67.708 44.0937C65.8399 44.0937 64.3202 42.5739 64.3202 40.7059ZM66.3529 45.2489C66.7824 45.3777 67.2371 45.4488 67.708 45.4488C68.1789 45.4488 68.6335 45.3777 69.0631 45.2489V46.8039H66.3529V45.2489ZM62.2875 48.159H73.1284C74.9965 48.159 76.5162 49.6788 76.5162 51.5468V52.2244H58.8997V51.5468C58.8997 49.6788 60.4195 48.159 62.2875 48.159ZM76.5162 53.5795V71.196H58.8997V53.5795H76.5162ZM74.4835 76.6164H60.9324C59.8117 76.6164 58.8997 75.7044 58.8997 74.5838V72.5511H76.5162V74.5838C76.5162 75.7044 75.6042 76.6164 74.4835 76.6164Z" fill="#07A7D8"/>
<path d="M43.6533 70.8199C44.339 71.07 45.066 71.196 45.7856 71.196C45.854 71.196 45.9218 71.1946 45.9896 71.1926C46.0018 71.1926 46.0133 71.196 46.0261 71.196C46.0424 71.196 46.0573 71.1912 46.0736 71.1912C46.8826 71.2102 47.6652 71.0876 48.399 70.8199C52.8383 69.2019 52.4399 64.0362 51.6092 61.5313L51.4053 60.9154L50.7812 61.0929C50.3191 61.2237 49.6558 61.5408 49.1002 62.0673C48.7371 60.7433 47.9985 59.2818 46.5838 57.9199L46.0261 57.3576L45.4685 57.9199C44.0538 59.2818 43.3152 60.7433 42.9521 62.0673C42.3958 61.5408 41.7325 61.2237 41.2711 61.0929L40.647 60.9154L40.4431 61.5313C39.6124 64.0369 39.214 69.2026 43.6533 70.8199ZM44.671 68.4857C44.671 67.7384 45.2788 67.1306 46.0261 67.1306C46.7735 67.1306 47.3813 67.7384 47.3813 68.4857C47.3813 69.2216 46.7904 69.8199 46.0587 69.8375C46.0397 69.8368 46.0221 69.8388 46.0031 69.8382C46.0018 69.8382 46.0004 69.8382 45.999 69.8382C45.2646 69.8232 44.671 69.2236 44.671 68.4857ZM41.5346 62.6838C42.0313 62.9772 42.6384 63.5213 42.6384 64.4204H43.9935C43.9935 62.4738 44.6771 60.7494 46.0261 59.2866C47.3752 60.7494 48.0588 62.4738 48.0588 64.4204H49.4139C49.4139 63.5213 50.017 62.9792 50.5136 62.6845C50.6498 63.3011 50.8029 64.2449 50.7623 65.2538C50.6864 67.1496 49.9634 68.4824 48.6185 69.2317C48.6876 68.9932 48.7364 68.7459 48.7364 68.4857C48.7364 66.9911 47.5208 65.7755 46.0261 65.7755C44.5315 65.7755 43.3159 66.9911 43.3159 68.4857C43.3159 68.7453 43.364 68.9912 43.4325 69.229C40.7398 67.7235 41.1864 64.2144 41.5346 62.6838Z" fill="#07A7D8"/>
<path d="M65.3352 68.1097C66.0209 68.3597 66.7479 68.4857 67.4674 68.4857C67.5359 68.4857 67.6036 68.4844 67.6714 68.4824C67.6836 68.4824 67.6951 68.4857 67.708 68.4857C67.7242 68.4857 67.7398 68.481 67.7561 68.481C68.563 68.4993 69.347 68.3773 70.0808 68.1097C74.5201 66.4917 74.1217 61.326 73.291 58.8211L73.0871 58.2052L72.4631 58.3827C72.001 58.5135 71.3376 58.8306 70.782 59.357C70.4189 58.0331 69.6803 56.5709 68.2649 55.2083L67.708 54.648L67.151 55.209C65.7363 56.5709 64.9971 58.0331 64.6339 59.3577C64.0776 58.8312 63.4143 58.5141 62.9529 58.3834L62.3288 58.2059L62.1249 58.8218C61.2942 61.3267 60.8958 66.4924 65.3352 68.1097ZM66.3529 65.7755C66.3529 65.0282 66.9606 64.4204 67.708 64.4204C68.4553 64.4204 69.0631 65.0282 69.0631 65.7755C69.0631 66.5113 68.4729 67.109 67.7418 67.1272C67.7229 67.1266 67.7046 67.1286 67.6856 67.1279C67.6843 67.1279 67.6829 67.1279 67.6815 67.1279C66.9464 67.113 66.3529 66.5134 66.3529 65.7755ZM63.2164 59.9736C63.7131 60.267 64.3202 60.8111 64.3202 61.7102H65.6753C65.6753 59.7629 66.3583 58.0385 67.708 56.5757C69.0577 58.0385 69.7406 59.7629 69.7406 61.7102H71.0958C71.0958 60.8111 71.6988 60.269 72.1954 59.9743C72.3316 60.5909 72.4847 61.5347 72.4441 62.5436C72.3682 64.4394 71.6453 65.7721 70.3003 66.5215C70.3694 66.283 70.4182 66.0357 70.4182 65.7755C70.4182 64.2808 69.2027 63.0653 67.708 63.0653C66.2133 63.0653 64.9977 64.2808 64.9977 65.7755C64.9977 66.035 65.0459 66.281 65.1143 66.5188C62.4217 65.0133 62.8682 61.5042 63.2164 59.9736Z" fill="#07A7D8"/>
<path d="M68.3855 38.6732H67.0304V42.061H68.3855V38.6732Z" fill="#07A7D8"/>
</g>
<path d="M52.1242 49.8699V48.8366C52.1242 47.7159 51.2122 46.8039 50.0915 46.8039H48.7364V40.0284C49.4837 40.0284 50.0915 39.4206 50.0915 38.6732V37.3181C50.0915 36.5708 49.4837 35.963 48.7364 35.963H43.3159C42.5686 35.963 41.9608 36.5708 41.9608 37.3181V38.6732C41.9608 39.4206 42.5686 40.0284 43.3159 40.0284V41.3835H39.9281V37.9957H35.8628V43.4161C35.8628 44.5368 36.7748 45.4488 37.8955 45.4488H43.3159V46.8039H41.9608C40.8401 46.8039 39.9281 47.7159 39.9281 48.8366V49.8699C37.5635 50.71 35.8628 52.9636 35.8628 55.6122V74.5838C35.8628 76.4518 37.3826 77.9715 39.2506 77.9715H52.8017C54.6697 77.9715 56.1895 76.4518 56.1895 74.5838V55.6122C56.1895 52.9636 54.4888 50.71 52.1242 49.8699ZM43.3159 37.3181H48.7364V38.6732H43.3159V37.3181ZM37.8955 44.0937C37.5221 44.0937 37.2179 43.7895 37.2179 43.4161V39.3508H38.573V42.7386H43.3159V44.0937H37.8955ZM44.671 40.0284H47.3813V46.8039H44.671V40.0284ZM41.9608 50.8693H48.0588V49.5142H41.9608C41.7318 49.5142 41.5062 49.5291 41.2832 49.5541V48.8366C41.2832 48.4633 41.5875 48.159 41.9608 48.159H50.0915C50.4648 48.159 50.769 48.4633 50.769 48.8366V49.5541C50.5461 49.5291 50.3205 49.5142 50.0915 49.5142H49.4139V50.8693H50.0915C51.9785 50.8693 53.6073 51.9798 54.3703 53.5795H37.682C38.445 51.9798 40.0738 50.8693 41.9608 50.8693ZM54.8344 55.6122V72.5511H37.2179V55.6122C37.2179 55.3818 37.2403 55.1568 37.2721 54.9346H54.7802C54.812 55.1568 54.8344 55.3818 54.8344 55.6122ZM52.8017 76.6164H39.2506C38.1299 76.6164 37.2179 75.7044 37.2179 74.5838V73.9062H54.8344V74.5838C54.8344 75.7044 53.9224 76.6164 52.8017 76.6164Z" fill="white"/>
<path d="M73.1284 46.8039H70.4182V44.5924C70.6614 44.4223 70.8884 44.2306 71.0958 44.0185V44.0937H75.1611V37.3181H71.0958V37.3927C70.2339 36.5118 69.0346 35.963 67.708 35.963C65.3236 35.963 63.3499 37.7335 63.0193 40.0284H60.9324C59.0644 40.0284 57.5446 41.5481 57.5446 43.4161V44.7713H58.8997V43.4161C58.8997 42.2955 59.8117 41.3835 60.9324 41.3835H63.0193C63.2103 42.7088 63.9469 43.8579 64.9977 44.5924V46.8039H62.2875C59.6721 46.8039 57.5446 48.9315 57.5446 51.5468V74.5838C57.5446 76.4518 59.0644 77.9715 60.9324 77.9715H74.4835C76.3516 77.9715 77.8713 76.4518 77.8713 74.5838V51.5468C77.8713 48.9315 75.7438 46.8039 73.1284 46.8039ZM73.806 38.6732V42.7386H71.9867C72.2815 42.1213 72.4509 41.4343 72.4509 40.7059C72.4509 39.9775 72.2815 39.2905 71.9867 38.6732H73.806ZM64.3202 40.7059C64.3202 38.8379 65.8399 37.3181 67.708 37.3181C69.576 37.3181 71.0958 38.8379 71.0958 40.7059C71.0958 42.5739 69.576 44.0937 67.708 44.0937C65.8399 44.0937 64.3202 42.5739 64.3202 40.7059ZM66.3529 45.2489C66.7824 45.3777 67.2371 45.4488 67.708 45.4488C68.1789 45.4488 68.6335 45.3777 69.0631 45.2489V46.8039H66.3529V45.2489ZM62.2875 48.159H73.1284C74.9965 48.159 76.5162 49.6788 76.5162 51.5468V52.2244H58.8997V51.5468C58.8997 49.6788 60.4195 48.159 62.2875 48.159ZM76.5162 53.5795V71.196H58.8997V53.5795H76.5162ZM74.4835 76.6164H60.9324C59.8117 76.6164 58.8997 75.7044 58.8997 74.5838V72.5511H76.5162V74.5838C76.5162 75.7044 75.6042 76.6164 74.4835 76.6164Z" fill="white"/>
<path d="M43.6533 70.8199C44.339 71.07 45.066 71.196 45.7856 71.196C45.854 71.196 45.9218 71.1946 45.9896 71.1926C46.0018 71.1926 46.0133 71.196 46.0261 71.196C46.0424 71.196 46.0573 71.1912 46.0736 71.1912C46.8826 71.2102 47.6652 71.0876 48.399 70.8199C52.8383 69.2019 52.4399 64.0362 51.6092 61.5313L51.4053 60.9154L50.7812 61.0929C50.3191 61.2237 49.6558 61.5408 49.1002 62.0673C48.7371 60.7433 47.9985 59.2818 46.5838 57.9199L46.0261 57.3576L45.4685 57.9199C44.0538 59.2818 43.3152 60.7433 42.9521 62.0673C42.3958 61.5408 41.7325 61.2237 41.2711 61.0929L40.647 60.9154L40.4431 61.5313C39.6124 64.0369 39.214 69.2026 43.6533 70.8199ZM44.671 68.4857C44.671 67.7384 45.2788 67.1306 46.0261 67.1306C46.7735 67.1306 47.3813 67.7384 47.3813 68.4857C47.3813 69.2216 46.7904 69.8199 46.0587 69.8375C46.0397 69.8368 46.0221 69.8388 46.0031 69.8382C46.0018 69.8382 46.0004 69.8382 45.999 69.8382C45.2646 69.8232 44.671 69.2236 44.671 68.4857ZM41.5346 62.6838C42.0313 62.9772 42.6384 63.5213 42.6384 64.4204H43.9935C43.9935 62.4738 44.6771 60.7494 46.0261 59.2866C47.3752 60.7494 48.0588 62.4738 48.0588 64.4204H49.4139C49.4139 63.5213 50.017 62.9792 50.5136 62.6845C50.6498 63.3011 50.8029 64.2449 50.7623 65.2538C50.6864 67.1496 49.9634 68.4824 48.6185 69.2317C48.6876 68.9932 48.7364 68.7459 48.7364 68.4857C48.7364 66.9911 47.5208 65.7755 46.0261 65.7755C44.5315 65.7755 43.3159 66.9911 43.3159 68.4857C43.3159 68.7453 43.364 68.9912 43.4325 69.229C40.7398 67.7235 41.1864 64.2144 41.5346 62.6838Z" fill="white"/>
<path d="M65.3352 68.1097C66.0209 68.3597 66.7479 68.4857 67.4674 68.4857C67.5359 68.4857 67.6036 68.4844 67.6714 68.4824C67.6836 68.4824 67.6951 68.4857 67.708 68.4857C67.7242 68.4857 67.7398 68.481 67.7561 68.481C68.563 68.4993 69.347 68.3773 70.0808 68.1097C74.5201 66.4917 74.1217 61.326 73.291 58.8211L73.0871 58.2052L72.4631 58.3827C72.001 58.5135 71.3376 58.8306 70.782 59.357C70.4189 58.0331 69.6803 56.5709 68.2649 55.2083L67.708 54.648L67.151 55.209C65.7363 56.5709 64.9971 58.0331 64.6339 59.3577C64.0776 58.8312 63.4143 58.5141 62.9529 58.3834L62.3288 58.2059L62.1249 58.8218C61.2942 61.3267 60.8958 66.4924 65.3352 68.1097ZM66.3529 65.7755C66.3529 65.0282 66.9606 64.4204 67.708 64.4204C68.4553 64.4204 69.0631 65.0282 69.0631 65.7755C69.0631 66.5113 68.4729 67.109 67.7418 67.1272C67.7229 67.1266 67.7046 67.1286 67.6856 67.1279C67.6843 67.1279 67.6829 67.1279 67.6815 67.1279C66.9464 67.113 66.3529 66.5134 66.3529 65.7755ZM63.2164 59.9736C63.7131 60.267 64.3202 60.8111 64.3202 61.7102H65.6753C65.6753 59.7629 66.3583 58.0385 67.708 56.5757C69.0577 58.0385 69.7406 59.7629 69.7406 61.7102H71.0958C71.0958 60.8111 71.6988 60.269 72.1954 59.9743C72.3316 60.5909 72.4847 61.5347 72.4441 62.5436C72.3682 64.4394 71.6453 65.7721 70.3003 66.5215C70.3694 66.283 70.4182 66.0357 70.4182 65.7755C70.4182 64.2808 69.2027 63.0653 67.708 63.0653C66.2133 63.0653 64.9977 64.2808 64.9977 65.7755C64.9977 66.035 65.0459 66.281 65.1143 66.5188C62.4217 65.0133 62.8682 61.5042 63.2164 59.9736Z" fill="white"/>
<path d="M68.3855 38.6732H67.0304V42.061H68.3855V38.6732Z" fill="white"/>
<g filter="url(#filter1_f)">
<circle cx="56.8672" cy="56.9673" r="49.5" stroke="#38A7C9"/>
</g>
<circle cx="56.8672" cy="56.9673" r="49.5" stroke="white"/>
<defs>
<filter id="filter0_f" x="29.8628" y="29.963" width="54.0085" height="54.0085" filterUnits="userSpaceOnUse" color-interpolation-filters="sRGB">
<feFlood flood-opacity="0" result="BackgroundImageFix"/>
<feBlend mode="normal" in="SourceGraphic" in2="BackgroundImageFix" result="shape"/>
<feGaussianBlur stdDeviation="3" result="effect1_foregroundBlur"/>
</filter>
<filter id="filter1_f" x="0.867188" y="0.967285" width="112" height="112" filterUnits="userSpaceOnUse" color-interpolation-filters="sRGB">
<feFlood flood-opacity="0" result="BackgroundImageFix"/>
<feBlend mode="normal" in="SourceGraphic" in2="BackgroundImageFix" result="shape"/>
<feGaussianBlur stdDeviation="3" result="effect1_foregroundBlur"/>
</filter>
</defs>
</svg>
