<svg width="33" height="31" viewBox="0 0 33 31" fill="none" xmlns="http://www.w3.org/2000/svg">
<g filter="url(#filter0_d)">
<path d="M17.7583 7.28483C17.5499 7.29248 17.3874 7.46138 17.3952 7.66231C17.4031 7.86324 17.579 8.02085 17.7864 8.01248C19.4239 7.94823 21.0574 8.5907 22.2711 9.76098C23.4849 10.9316 24.1458 12.5078 24.0845 14.0857C24.0766 14.2867 24.2393 14.4556 24.4476 14.4632C24.4523 14.4634 24.4573 14.4634 24.462 14.4634C24.6639 14.4634 24.8313 14.3092 24.8389 14.113C24.908 12.3334 24.1666 10.5594 22.8049 9.24628C21.4432 7.93313 19.6026 7.21786 17.7583 7.28483Z" fill="white"/>
<path d="M20.3961 11.5694C21.0657 12.2151 21.4571 13.066 21.5279 14.03C21.5421 14.2219 21.7078 14.3682 21.904 14.3682C21.9129 14.3682 21.922 14.3678 21.9312 14.3673C22.1392 14.3531 22.2959 14.1789 22.2811 13.9784C22.1972 12.837 21.73 11.826 20.93 11.0547C20.1299 10.2832 19.0817 9.83251 17.8981 9.7517C17.6905 9.73933 17.5095 9.88857 17.495 10.0891C17.4803 10.2899 17.6369 10.4639 17.8449 10.4781C18.8441 10.5461 19.7262 10.9238 20.3961 11.5694Z" fill="white"/>
<path d="M22.0747 17.4311C21.6598 17.0311 21.1083 16.8109 20.5218 16.8109C19.9352 16.8109 19.3837 17.0311 18.9688 17.4311L18.2939 18.0818C17.9812 18.3834 17.4858 18.4214 17.116 18.1721C16.4302 17.7094 15.7779 17.1811 15.1772 16.6017C14.5758 16.0217 14.0279 15.3927 13.5489 14.7322C13.2904 14.3757 13.3296 13.8979 13.6426 13.5963L14.3173 12.9455C15.1736 12.1199 15.1736 10.7764 14.3173 9.95081L12.7923 8.48023C12.3776 8.08037 11.8262 7.85996 11.2394 7.85996C10.6528 7.85996 10.1013 8.08037 9.68666 8.48023L8.99136 9.15055C8.13111 9.98048 7.72212 11.1453 7.89727 12.2666C8.13847 13.8116 8.73469 15.3905 9.62061 16.8313C10.2565 17.871 11.0391 18.8418 11.9468 19.7171C12.8542 20.5922 13.8609 21.3467 14.9386 21.9597C16.4336 22.8146 18.0707 23.3894 19.6726 23.622C19.8502 23.6478 20.0288 23.6606 20.2071 23.6606C21.1965 23.6606 22.1753 23.27 22.9042 22.5667L23.5993 21.8964C24.0141 21.4965 24.2425 20.9647 24.2425 20.3989C24.2425 19.8334 24.0141 19.3016 23.5993 18.9014L22.0747 17.4311ZM23.0657 21.3819L22.3704 22.0522C21.6789 22.7194 20.7126 23.037 19.7853 22.9023C18.2784 22.6836 16.7357 22.141 15.3229 21.3333C14.2993 20.7511 13.343 20.0341 12.4805 19.2026C11.6178 18.3706 10.8744 17.4484 10.2704 16.4609C9.43319 15.0995 8.87076 13.6116 8.64372 12.1583C8.50424 11.2645 8.83377 10.3325 9.5253 9.66543L10.2204 8.99512C10.7825 8.45329 11.6965 8.45329 12.2584 8.99512L13.7833 10.4657C14.3452 11.0075 14.3452 11.8891 13.7833 12.431L13.1086 13.0818C12.5364 13.6335 12.4614 14.5034 12.9303 15.1497C13.4346 15.845 14.011 16.5069 14.6432 17.1168C15.2749 17.7262 15.9615 18.2818 16.6834 18.7689C17.354 19.2211 18.256 19.1487 18.8279 18.5969L19.5028 17.9462C19.7749 17.6838 20.1369 17.5392 20.5218 17.5392C20.9066 17.5392 21.2686 17.6838 21.5407 17.9462L23.0657 19.4166C23.3379 19.6791 23.4877 20.0281 23.4877 20.3992C23.4877 20.7703 23.3379 21.1192 23.0657 21.3819Z" fill="white"/>
<path d="M14.6432 17.1168C14.011 16.5069 13.4346 15.845 12.9303 15.1497C12.4614 14.5034 12.5364 13.6335 13.1086 13.0818L13.7833 12.431C14.3452 11.8891 14.3452 11.0075 13.7833 10.4657L12.2584 8.99512C11.6965 8.45329 10.7825 8.45329 10.2204 8.99512L9.5253 9.66543C8.83377 10.3325 8.50424 11.2645 8.64372 12.1583C8.87076 13.6116 9.43319 15.0995 10.2704 16.4609C10.8744 17.4484 11.6178 18.3706 12.4805 19.2026C13.343 20.0341 14.2993 20.7511 15.3229 21.3333C16.7357 22.141 18.2784 22.6836 19.7853 22.9023C20.7126 23.037 21.6789 22.7194 22.3704 22.0522L23.0657 21.3819C23.3379 21.1192 23.4877 20.7703 23.4877 20.3992C23.4877 20.0281 23.3379 19.6791 23.0657 19.4166L21.5407 17.9462C21.2686 17.6838 20.9066 17.5392 20.5218 17.5392C20.1369 17.5392 19.7749 17.6838 19.5028 17.9462L18.8279 18.5969C18.256 19.1487 17.354 19.2211 16.6834 18.7689C15.9615 18.2818 15.2749 17.7262 14.6432 17.1168ZM14.6432 17.1168L14.9103 16.8595M17.7583 7.28483C17.5499 7.29248 17.3874 7.46138 17.3952 7.66231C17.4031 7.86324 17.579 8.02085 17.7864 8.01248C19.4239 7.94823 21.0574 8.5907 22.2711 9.76098C23.4849 10.9316 24.1458 12.5078 24.0845 14.0857C24.0766 14.2867 24.2393 14.4556 24.4476 14.4632C24.4523 14.4634 24.4573 14.4634 24.462 14.4634C24.6639 14.4634 24.8313 14.3092 24.8389 14.113C24.908 12.3334 24.1666 10.5594 22.8049 9.24628C21.4432 7.93313 19.6026 7.21786 17.7583 7.28483ZM20.3961 11.5694C21.0657 12.2151 21.4571 13.066 21.5279 14.03C21.5421 14.2219 21.7078 14.3682 21.904 14.3682C21.9129 14.3682 21.922 14.3678 21.9312 14.3673C22.1392 14.3531 22.2959 14.1789 22.2811 13.9784C22.1972 12.837 21.73 11.826 20.93 11.0547C20.1299 10.2832 19.0817 9.83251 17.8981 9.7517C17.6905 9.73933 17.5095 9.88857 17.495 10.0891C17.4803 10.2899 17.6369 10.4639 17.8449 10.4781C18.8441 10.5461 19.7262 10.9238 20.3961 11.5694ZM22.0747 17.4311C21.6598 17.0311 21.1083 16.8109 20.5218 16.8109C19.9352 16.8109 19.3837 17.0311 18.9688 17.4311L18.2939 18.0818C17.9812 18.3834 17.4858 18.4214 17.116 18.1721C16.4302 17.7094 15.7779 17.1811 15.1772 16.6017C14.5758 16.0217 14.0279 15.3927 13.5489 14.7322C13.2904 14.3757 13.3296 13.8979 13.6426 13.5963L14.3173 12.9455C15.1736 12.1199 15.1736 10.7764 14.3173 9.95081L12.7923 8.48023C12.3776 8.08037 11.8262 7.85996 11.2394 7.85996C10.6528 7.85996 10.1013 8.08037 9.68666 8.48023L8.99136 9.15055C8.13111 9.98048 7.72212 11.1453 7.89727 12.2666C8.13847 13.8116 8.73469 15.3905 9.62061 16.8313C10.2565 17.871 11.0391 18.8418 11.9468 19.7171C12.8542 20.5922 13.8609 21.3467 14.9386 21.9597C16.4336 22.8146 18.0707 23.3894 19.6726 23.622C19.8502 23.6478 20.0288 23.6606 20.2071 23.6606C21.1965 23.6606 22.1753 23.27 22.9042 22.5667L23.5993 21.8964C24.0141 21.4965 24.2425 20.9647 24.2425 20.3989C24.2425 19.8334 24.0141 19.3016 23.5993 18.9014L22.0747 17.4311Z" stroke="white" stroke-width="0.5"/>
</g>
<defs>
<filter id="filter0_d" x="0.607422" y="0.0305176" width="31.4859" height="30.88" filterUnits="userSpaceOnUse" color-interpolation-filters="sRGB">
<feFlood flood-opacity="0" result="BackgroundImageFix"/>
<feColorMatrix in="SourceAlpha" type="matrix" values="0 0 0 0 0 0 0 0 0 0 0 0 0 0 0 0 0 0 127 0"/>
<feOffset/>
<feGaussianBlur stdDeviation="3.5"/>
<feColorMatrix type="matrix" values="0 0 0 0 0 0 0 0 0 0.765517 0 0 0 0 1 0 0 0 1 0"/>
<feBlend mode="normal" in2="BackgroundImageFix" result="effect1_dropShadow"/>
<feBlend mode="normal" in="SourceGraphic" in2="effect1_dropShadow" result="shape"/>
</filter>
</defs>
</svg>
