<svg width="546" height="1074" viewBox="0 0 546 1074" fill="none" xmlns="http://www.w3.org/2000/svg">
<mask id="mask0" mask-type="alpha" maskUnits="userSpaceOnUse" x="-6" y="0" width="552" height="1074">
<rect x="-6" width="552" height="1074" fill="#C4C4C4"/>
</mask>
<g mask="url(#mask0)">
<g filter="url(#filter0_f)">
<path d="M468.533 759.322L356.396 736.887L228.455 721.131L179.728 604.05L260.219 465.811L249.572 350.16L245.437 350.52L255.957 464.775L175.074 603.684L225.602 725.089L355.795 741.122L467.784 763.525L468.533 759.322Z" fill="#04324F"/>
<path d="M177.843 602.481L40.8614 541.539L39.6963 390.849L35.5469 390.838L36.7328 544.348L176.232 606.412L177.843 602.481Z" fill="#04324F"/>
<path d="M224.106 722.178L170.929 826.57L53.075 881.376L12.5136 1014.3L16.4872 1015.63L56.4952 884.517L173.961 829.893L227.797 724.206L224.108 722.177L224.106 722.178Z" fill="#04324F"/>
<path d="M56.7223 883.229L24.5932 783.919L-81.3721 740.312L-77.0866 609.699L-182.174 559.627L-336.986 625.812L-335.36 629.774L-182.224 564.305L-81.3332 612.378L-85.6238 743.16L21.2718 787.15L52.7818 884.549L56.7223 883.229Z" fill="#04324F"/>
<path d="M386.812 496.411L259.001 462.952L258.017 467.109L385.828 500.568" fill="#04324F"/>
<path d="M241.615 802.879L169.045 827.564L224.853 865.431L226.548 862.749L176.147 828.549L242.618 805.937L241.615 802.879Z" fill="#04324F"/>
<path d="M384.784 498.707L409.693 584.611L468.45 651.204L470.739 649.057L412.464 583.011L387.762 497.815L384.784 498.707Z" fill="#04324F"/>
<path d="M37.6493 392.473L121.319 414.142L122.048 411.021L38.3798 389.354" fill="#04324F"/>
<path d="M24.7659 785.427L51.6557 700.792L48.6908 699.76L21.8009 784.396L24.7659 785.427Z" fill="#04324F"/>
<path d="M129.587 918.589L55.4085 881.63L54.0752 884.523L128.256 921.482" fill="#04324F"/>
<path d="M435.837 687.845L470.245 650.673L468.732 649.179L434.324 686.351" fill="#04324F"/>
<path d="M362.74 597.906L411.74 584.826L427.314 545.365L425.383 544.536L410.199 583.012L362.2 595.827L362.74 597.906Z" fill="#04324F"/>
<path d="M259.389 465.939L297.289 411.525L295.593 410.259L257.694 464.673" fill="#04324F"/>
<path d="M248.93 351.326L314.448 306.068L313.276 304.275L247.761 349.534" fill="#04324F"/>
<path d="M39.0874 391.123L39.8766 311.759L37.799 311.715L37.0098 391.079L39.0874 391.123Z" fill="#04324F"/>
<path d="M14.5178 1014.12L-33.2638 985.795L-34.2839 987.651L13.4967 1015.98" fill="#04324F"/>
<path d="M458.55 743.189C467.862 737.817 479.711 741.293 485.017 750.955C490.322 760.618 487.072 772.805 477.761 778.177C468.448 783.55 456.599 780.074 451.293 770.412C445.988 760.749 449.237 748.562 458.55 743.189Z" fill="#04324F"/>
<path d="M346.201 721.152C355.512 715.78 367.363 719.258 372.668 728.92C377.973 738.581 374.724 750.77 365.413 756.142C356.1 761.515 344.249 758.037 338.945 748.377C333.639 738.714 336.888 726.525 346.201 721.152Z" fill="#04324F"/>
<path d="M216.89 705.759C226.203 700.386 238.05 703.862 243.356 713.525C248.661 723.187 245.413 735.373 236.1 740.746C226.787 746.119 214.94 742.643 209.634 732.98C204.329 723.318 207.577 711.132 216.89 705.759Z" fill="#04324F"/>
<path d="M45.0407 865.597C54.3536 860.224 66.2043 863.702 71.5098 873.364C76.8142 883.025 73.5655 895.214 64.2525 900.587C54.9414 905.958 43.0907 902.481 37.7863 892.82C32.4808 883.158 35.7296 870.969 45.0407 865.597Z" fill="#04324F"/>
<path d="M4.38714 997.507C13.7001 992.134 25.5489 995.612 30.8544 1005.27C36.1598 1014.94 32.9119 1027.12 23.599 1032.5C14.2879 1037.87 2.43817 1034.39 -2.86729 1024.73C-8.17275 1015.07 -4.92399 1002.88 4.38714 997.507Z" fill="#04324F"/>
<path d="M13.5837 767.452C22.8948 762.08 34.7455 765.558 40.05 775.218C45.3554 784.881 42.1067 797.069 32.7956 802.441C23.4826 807.814 11.632 804.337 6.32651 794.675C1.02208 785.014 4.2708 772.825 13.5837 767.452Z" fill="#04324F"/>
<path d="M163.015 810.75C172.326 805.378 184.176 808.854 189.481 818.516C194.787 828.179 191.537 840.366 182.226 845.738C172.913 851.111 161.063 847.635 155.758 837.973C150.452 828.31 153.702 816.123 163.015 810.75Z" fill="#04324F"/>
<path d="M167.451 586.61C176.763 581.238 188.612 584.713 193.918 594.376C199.223 604.038 195.973 616.225 186.662 621.597C177.349 626.97 165.5 623.495 160.194 613.832C154.889 604.17 158.138 591.983 167.451 586.61Z" fill="#04324F"/>
<path d="M248.848 447.867C258.159 442.495 270.01 445.973 275.315 455.635C280.62 465.296 277.371 477.485 268.06 482.856C258.747 488.229 246.896 484.752 241.592 475.091C236.286 465.429 239.535 453.24 248.848 447.867Z" fill="#04324F"/>
<path d="M376.713 480.813C386.024 475.441 397.875 478.918 403.181 488.581C408.485 498.241 405.236 510.43 395.925 515.802C386.612 521.175 374.761 517.698 369.457 508.037C364.152 498.375 367.4 486.186 376.713 480.813Z" fill="#04324F"/>
<path d="M463.246 638.536C469.327 635.027 477.063 637.297 480.527 643.606C483.991 649.916 481.871 657.874 475.791 661.382C469.71 664.891 461.971 662.62 458.507 656.311C455.042 650.002 457.165 642.044 463.246 638.536Z" fill="#04324F"/>
<path d="M404.689 572.315C410.77 568.807 418.509 571.078 421.973 577.387C425.437 583.696 423.315 591.654 417.234 595.162C411.153 598.67 403.417 596.4 399.952 590.091C396.488 583.782 398.608 575.823 404.689 572.315Z" fill="#04324F"/>
<path d="M236.009 792.889C242.09 789.381 249.829 791.652 253.293 797.961C256.757 804.27 254.635 812.228 248.554 815.736C242.473 819.245 234.735 816.976 231.271 810.666C227.807 804.357 229.928 796.398 236.009 792.889Z" fill="#04324F"/>
<path d="M432.57 682.629C435.004 681.225 438.104 682.135 439.49 684.66C440.878 687.187 440.028 690.375 437.594 691.78C435.158 693.185 432.06 692.274 430.673 689.747C429.286 687.222 430.134 684.035 432.57 682.629Z" fill="#04324F"/>
<path d="M423.929 540.359C426.365 538.954 429.464 539.861 430.851 542.388C432.239 544.916 431.388 548.102 428.952 549.507C426.518 550.912 423.419 550.004 422.032 547.477C420.644 544.95 421.495 541.763 423.929 540.359Z" fill="#04324F"/>
<path d="M359.901 592.264C362.337 590.859 365.435 591.769 366.822 594.295C368.209 596.822 367.361 600.009 364.925 601.414C362.49 602.82 359.392 601.909 358.004 599.382C356.617 596.857 357.466 593.669 359.901 592.264Z" fill="#04324F"/>
<path d="M293.988 406.294C296.422 404.889 299.521 405.797 300.908 408.324C302.296 410.851 301.445 414.038 299.011 415.442C296.575 416.847 293.476 415.939 292.089 413.412C290.701 410.885 291.552 407.699 293.988 406.294Z" fill="#04324F"/>
<path d="M311.278 300.531C313.714 299.126 316.814 300.036 318.202 302.563C319.588 305.088 318.738 308.276 316.303 309.682C313.869 311.086 310.769 310.176 309.382 307.651C307.995 305.124 308.845 301.935 311.278 300.531Z" fill="#04324F"/>
<path d="M36.4436 307.118C38.8792 305.713 41.9763 306.622 43.3639 309.149C44.7504 311.674 43.9024 314.862 41.4667 316.267C39.0311 317.673 35.9329 316.762 34.5464 314.237C33.1589 311.709 34.0079 308.524 36.4436 307.118Z" fill="#04324F"/>
<path d="M219.343 852.436C225.424 848.927 233.163 851.198 236.627 857.507C240.091 863.816 237.97 871.776 231.889 875.284C225.808 878.792 218.071 876.521 214.606 870.212C211.142 863.902 213.262 855.944 219.343 852.436Z" fill="#04324F"/>
<path d="M44.1336 688.968C50.2146 685.46 57.9524 687.729 61.4166 694.038C64.8809 700.347 62.7593 708.307 56.6783 711.815C50.5974 715.324 42.8586 713.053 39.3943 706.744C35.9301 700.434 38.0527 692.476 44.1336 688.968Z" fill="#04324F"/>
<path d="M122.65 908.312C128.73 904.804 136.469 907.074 139.934 913.384C143.398 919.693 141.276 927.652 135.195 931.161C129.114 934.669 121.375 932.398 117.911 926.089C114.447 919.78 116.569 911.82 122.65 908.312Z" fill="#04324F"/>
<path d="M115.343 400.941C121.424 397.433 129.163 399.703 132.627 406.013C136.091 412.322 133.97 420.281 127.889 423.79C121.808 427.298 114.069 425.027 110.605 418.718C107.141 412.409 109.262 404.449 115.343 400.941Z" fill="#04324F"/>
<path d="M238.642 332.927C247.955 327.554 259.803 331.031 265.108 340.693C270.414 350.356 267.166 362.542 257.853 367.915C248.54 373.288 236.692 369.811 231.386 360.149C226.081 350.486 229.329 338.3 238.642 332.927Z" fill="#04324F"/>
<path d="M28.3072 373.612C37.6201 368.239 49.4708 371.716 54.7762 381.379C60.0807 391.039 56.832 403.228 47.5191 408.601C38.2079 413.973 26.3572 410.496 21.0528 400.835C15.7473 391.172 18.9961 378.984 28.3072 373.612Z" fill="#04324F"/>
<path d="M24.229 516.947C38.1975 508.888 55.9721 514.104 63.9297 528.596C71.8874 543.089 67.0147 561.371 53.0462 569.43C39.0778 577.489 21.3032 572.273 13.3455 557.78C5.38784 543.288 10.2605 525.006 24.229 516.947Z" fill="#04324F"/>
<path d="M-76.7078 425.561L38.3599 392.72L37.4991 389.609L-77.5694 422.453" fill="#04324F"/>
<path d="M-79.4396 609.403L-77.8913 612.227L39.3106 544.508L37.7623 541.684L-79.4396 609.403Z" fill="#04324F"/>
<path d="M78.5858 1003.06L94.4027 1032.4L90.7807 1034.5L74.9473 1005.13C76.2703 1004.6 77.4875 1003.9 78.5858 1003.06ZM56.6622 1000.22L33.3297 1015.45C33.3641 1013.84 33.2133 1012.23 32.8682 1010.63L54.4121 996.575C54.5904 996.97 54.7823 997.354 54.9875 997.729C55.4765 998.62 56.0379 999.452 56.6622 1000.22ZM6.17323 1033.16L-26.4424 1054.44C-26.6532 1053.98 -26.8824 1053.53 -27.13 1053.07C-27.5808 1052.25 -28.0777 1051.48 -28.6159 1050.75L2.12616 1030.69C3.38275 1031.68 4.74349 1032.51 6.17323 1033.16ZM-58.9056 1075.63L-169.714 1147.92L-171.486 1148.61C-171.616 1148.34 -171.752 1148.08 -171.895 1147.82C-172.384 1146.92 -172.945 1146.09 -173.567 1145.32L-61.2334 1072.03C-61.1377 1072.22 -61.0392 1072.41 -60.936 1072.59C-60.3378 1073.68 -59.6569 1074.7 -58.9056 1075.63Z" fill="#04324F"/>
<path d="M32.9581 1010.65C33.3032 1012.25 33.454 1013.87 33.4195 1015.47L6.26216 1033.19C4.83237 1032.54 3.47159 1031.71 2.21496 1030.71L32.9581 1010.65Z" fill="#04324F"/>
<path d="M62.3728 642.133C62.6975 643.081 63.0973 643.983 63.5622 644.83C63.7807 645.228 64.0153 645.612 64.2605 645.985L-22.6418 690.69C-22.9666 689.742 -23.3653 688.842 -23.8312 687.994C-24.0487 687.597 -24.2815 687.212 -24.5267 686.839L62.3728 642.133ZM-41.9982 712.058L-57.2489 749.763L-61.1325 748.166L-45.8457 710.366C-44.6393 711.097 -43.3471 711.667 -41.9982 712.058ZM-58.8479 753.717L-80.6185 807.545C-81.8239 806.816 -83.1171 806.245 -84.4651 805.855L-62.7307 752.118L-58.8479 753.717Z" fill="#04324F"/>
<path d="M-9.95514 850.561C-10.6041 851.817 -11.0945 853.159 -11.4102 854.556L-74.7952 829.428C-74.1481 828.173 -73.6559 826.83 -73.341 825.436L-9.95514 850.561ZM0.585299 874.526L-21.3024 934.801C-22.5267 934.119 -23.8315 933.601 -25.1883 933.26L-3.30062 872.986C-2.07629 873.668 -0.770432 874.188 0.585299 874.526ZM55.0591 981.747C54.3929 982.993 53.8816 984.328 53.5469 985.716L28.5174 975.355L29.7618 971.274L55.0591 981.747ZM25.8894 969.672L24.6449 973.752L-14.7601 957.441C-14.0939 956.194 -13.5845 954.861 -13.249 953.47L25.8894 969.672Z" fill="#04324F"/>
<path d="M29.713 971.315L28.4658 975.403L24.5841 973.797L25.8314 969.709L29.713 971.315Z" fill="#04324F"/>
<path d="M285.441 869.845C285.725 870.598 286.059 871.319 286.435 872.006C286.747 872.574 287.088 873.117 287.456 873.636L249.655 894.825C249.37 894.071 249.037 893.351 248.661 892.665C248.349 892.097 248.008 891.553 247.64 891.035L285.441 869.845Z" fill="#04324F"/>
<path d="M254.108 523.36C253.183 524.426 252.398 525.611 251.776 526.88L232.731 513.322L234.864 509.66L254.108 523.36ZM231.424 507.21L229.292 510.874L175.083 472.277C176.009 471.211 176.792 470.027 177.416 468.757L231.424 507.21Z" fill="#04324F"/>
<path d="M234.856 509.703L232.72 513.369L229.276 510.918L231.411 507.25L234.856 509.703Z" fill="#04324F"/>
<path d="M147.976 467.069C148.281 467.917 148.648 468.725 149.068 469.491C149.334 469.977 149.621 470.443 149.929 470.895L57.7564 520.509C56.5816 519.445 55.3348 518.486 54.0303 517.638L147.976 467.069Z" fill="#04324F"/>
<path d="M57.7802 520.731L50.0893 524.868C49.7821 524.022 49.4154 523.215 48.9988 522.452C48.733 521.967 48.4438 521.501 48.1378 521.053L54.0597 517.868C55.3622 518.713 56.6071 519.67 57.7802 520.731Z" fill="#04324F"/>
<path d="M21.1271 519.044C19.9513 519.937 18.8578 520.911 17.8488 521.952L-16.971 499.224C-16.0871 498.119 -15.3523 496.904 -14.7743 495.606L21.1271 519.044Z" fill="#04324F"/>
<path d="M22.5785 519.966C21.6948 521.071 20.9569 522.29 20.3814 523.588L17.9324 521.989C18.9433 520.947 20.0387 519.971 21.2166 519.076L22.5785 519.966Z" fill="#04324F"/>
<path d="M66.8004 172.637L61.6863 248.165C60.335 247.868 58.9409 247.749 57.5354 247.821L62.6495 172.293C63.9998 172.588 65.395 172.71 66.8004 172.637ZM47.9858 276.814L5.98054 314.979C5.18946 313.768 4.25415 312.685 3.21184 311.744L45.2154 273.581C46.0083 274.791 46.9425 275.872 47.9858 276.814ZM-15.7949 338.161L-27.4146 352.664C-28.3739 351.602 -29.459 350.679 -30.6348 349.913L-19.0162 335.407C-18.0559 336.471 -16.9706 337.394 -15.7949 338.161Z" fill="#04324F"/>
<path d="M125.567 308.924C124.644 309.994 123.865 311.181 123.245 312.454L70.6535 275.274C71.5752 274.205 72.3549 273.016 72.976 271.745L125.567 308.924Z" fill="#04324F"/>
<path d="M60.4037 1003.55L0.305117 1083.46C-0.425212 1082.67 -1.26079 1082 -2.1712 1081.47L57.9274 1001.56C58.6916 1002.3 59.5215 1002.97 60.4037 1003.55Z" fill="#04324F"/>
<path d="M76.8743 653.182L64.6012 742.814C63.6087 742.497 62.5692 742.329 61.5124 742.329L73.7837 652.698C74.7902 652.962 75.8266 653.124 76.8743 653.182ZM53.6598 746.003C52.9763 746.817 52.4163 747.73 51.9976 748.71L39.2807 740.312L40.2793 737.168L53.6598 746.003ZM37.5573 735.37L36.5586 738.515L9.39135 720.574C10.074 719.762 10.634 718.849 11.0528 717.869L37.5573 735.37Z" fill="#04324F"/>
<path d="M40.1604 737.271L39.1626 740.413L36.4427 738.617L37.4406 735.475L40.1604 737.271Z" fill="#04324F"/>
<path d="M-3.15148 723.49L-14.1133 740.307C-14.8896 739.573 -15.7646 738.963 -16.7083 738.496L-5.74543 721.68C-4.96913 722.414 -4.09415 723.025 -3.15148 723.49ZM-31.2517 711.433L-22.9323 737.554C-23.4606 737.644 -23.9905 737.775 -24.5143 737.951C-24.9932 738.114 -25.4529 738.308 -25.8943 738.53L-34.2119 712.408C-33.6758 712.289 -33.1394 712.139 -32.6055 711.96C-32.1421 711.803 -31.6899 711.626 -31.2517 711.433Z" fill="#04324F"/>
<path d="M110.032 762.73C109.662 763.726 109.433 764.781 109.364 765.865L71.2705 756.884C71.6398 755.888 71.8682 754.831 71.9369 753.747L110.032 762.73Z" fill="#04324F"/>
<path d="M28.4578 571.267L23.6015 596.294C22.6271 595.919 21.5964 595.692 20.5435 595.628L25.5291 569.944C26.4837 570.439 27.4623 570.879 28.4578 571.267Z" fill="#04324F"/>
<path d="M33.0454 548.21L28.5681 571.283C27.5723 570.895 26.5935 570.456 25.6386 569.96L29.4577 550.28L33.0454 548.21Z" fill="#04324F"/>
<path d="M33.2901 546.851L33.0437 548.12L29.452 550.193L30.2281 546.184C31.2224 546.507 32.246 546.732 33.2901 546.851Z" fill="#04324F"/>
<path d="M10.2485 602.264C9.84696 603.249 9.58743 604.297 9.48212 605.375L-17.7206 598.003C-17.3209 597.019 -17.0586 595.972 -16.9562 594.893L10.2485 602.264Z" fill="#04324F"/>
<path d="M158.173 477.178L133.568 540.433C132.668 539.88 131.695 539.466 130.677 539.208L155.282 475.952C156.206 476.454 157.172 476.865 158.173 477.178ZM227.568 668.806C227.643 669.132 227.732 669.455 227.838 669.779C228.058 670.455 228.338 671.095 228.666 671.694C228.686 671.729 228.705 671.765 228.725 671.801L210.538 679.123L209.305 676.159L227.568 668.806ZM205.449 677.711L206.682 680.675L172.165 694.571C172.091 694.246 172.001 693.921 171.895 693.598C171.675 692.921 171.397 692.281 171.068 691.682C171.049 691.646 171.027 691.612 171.008 691.576L205.449 677.711Z" fill="#04324F"/>
<path d="M209.085 676.03L210.321 679L206.457 680.554L205.222 677.585L209.085 676.03Z" fill="#04324F"/>
<path d="M130.03 560.488L130.739 581.411L127.576 580.004L126.918 560.568C127.936 560.7 128.985 560.679 130.03 560.488ZM130.898 586.13L132.479 632.808C131.458 632.675 130.41 632.697 129.365 632.889L127.735 584.722L130.898 586.13Z" fill="#04324F"/>
<path d="M130.849 581.429L131.009 586.149L127.844 584.741L127.685 580.022L130.849 581.429Z" fill="#04324F"/>
<path d="M157.725 686.981C156.739 687.383 155.84 687.926 155.05 688.582L135.11 653.554C136.098 653.153 136.997 652.609 137.786 651.952L157.725 686.981Z" fill="#04324F"/>
<path d="M87.7295 352.379C87.2898 353.346 86.9889 354.383 86.8441 355.454L39.6885 340.591L39.7222 337.247L87.7295 352.379ZM37.6479 336.592L37.6161 339.935L7.46059 330.429C7.85072 329.442 8.14652 328.412 8.34592 327.354L37.6479 336.592Z" fill="#04324F"/>
<path d="M39.6564 337.239L39.6228 340.582L37.5512 339.927L37.583 336.585L39.6564 337.239Z" fill="#04324F"/>
<path d="M149.142 243.593C149.198 244.528 149.371 245.469 149.676 246.401C149.714 246.52 149.754 246.635 149.796 246.752L74.6157 262.504C74.4998 261.45 74.2839 260.393 73.9613 259.345L149.142 243.593Z" fill="#04324F"/>
<path d="M247.35 644.664L242.658 656.708C242.042 656.371 241.397 656.097 240.727 655.891L245.419 643.848C245.986 644.278 246.649 644.563 247.35 644.664Z" fill="#04324F"/>
<path d="M164.798 707.328L175.8 759.297C175.31 759.274 174.807 759.34 174.316 759.505C174.128 759.569 173.946 759.644 173.772 759.733L162.771 707.766C163.449 707.691 164.126 707.546 164.798 707.328Z" fill="#04324F"/>
<path d="M109.225 714.305L70.2623 747.115C69.8712 746.512 69.4266 745.953 68.9384 745.45L107.901 712.638C107.948 712.741 107.999 712.843 108.052 712.94C108.352 713.486 108.755 713.947 109.225 714.305ZM66.8439 762.46L80.5964 793.587C80.399 793.622 80.2005 793.672 80.0038 793.739C79.5181 793.903 79.0824 794.15 78.7048 794.459L64.9524 763.331C65.6226 763.1 66.2542 762.807 66.8439 762.46Z" fill="#04324F"/>
<path d="M268.57 550.752L273.201 601.149C272.556 601.038 271.876 601.081 271.212 601.303C271.187 601.313 271.16 601.321 271.135 601.331L266.503 550.934C267.189 550.92 267.88 550.859 268.57 550.752Z" fill="#04324F"/>
<path d="M50.1237 156.58C50.1442 157.29 50.2088 158.007 50.3199 158.721L18.832 161.435C18.9338 160.765 18.8857 160.062 18.6612 159.371C18.6542 159.345 18.6455 159.32 18.6357 159.294L50.1237 156.58Z" fill="#04324F"/>
<path d="M256.328 855.673L242.469 886.324C241.86 885.974 241.229 885.666 240.581 885.4L254.442 854.748C254.987 855.212 255.636 855.531 256.328 855.673Z" fill="#04324F"/>
<path d="M237.757 917.04L241.75 947.039L239.807 948.16L235.7 917.313C236.383 917.268 237.071 917.18 237.757 917.04Z" fill="#04324F"/>
<path d="M219.269 905.405C219.322 905.585 219.377 905.763 219.435 905.943C219.602 906.451 219.788 906.947 219.995 907.428L195.684 916.501C195.653 916.192 195.589 915.88 195.489 915.572C195.399 915.3 195.287 915.043 195.155 914.802C195.094 914.691 195.03 914.583 194.961 914.479L219.269 905.405Z" fill="#04324F"/>
<path d="M83.0454 981.531C83.5498 982.449 83.9785 983.434 84.3168 984.47C86.5951 991.466 84.1192 998.879 78.6933 1002.99C77.5978 1003.82 76.3835 1004.51 75.0637 1005.04C74.7884 1005.15 74.5118 1005.25 74.2282 1005.35C69.4866 1006.95 64.5233 1006.13 60.587 1003.55C59.706 1002.98 58.8772 1002.31 58.114 1001.57C57.6588 1001.12 57.2272 1000.65 56.8221 1000.15C56.1993 999.384 55.6392 998.554 55.1513 997.666C54.9465 997.293 54.7551 996.909 54.5772 996.516C54.3161 995.941 54.0827 995.343 53.8818 994.725C52.8664 991.607 52.7949 988.405 53.5096 985.448C53.8451 984.057 54.3575 982.72 55.0252 981.471C56.8947 977.979 59.9979 975.186 63.9704 973.847C71.3723 971.354 79.3206 974.743 83.0454 981.531Z" fill="#04324F"/>
<path d="M18.3796 850.402C18.8839 851.32 19.3116 852.303 19.6499 853.339C22.4831 862.039 17.9674 871.387 9.56239 874.22C6.63328 875.206 3.61663 875.271 0.811905 874.569C-0.547017 874.23 -1.85596 873.709 -3.08317 873.025C-5.72161 871.556 -7.97791 869.335 -9.51551 866.535C-10.0198 865.617 -10.4474 864.634 -10.784 863.597C-11.7727 860.561 -11.8676 857.447 -11.2125 854.559C-10.896 853.159 -10.4046 851.814 -9.75414 850.556C-7.89815 846.965 -4.74843 844.084 -0.695451 842.718C6.70538 840.223 14.6548 843.614 18.3796 850.402Z" fill="#04324F"/>
<path d="M84.753 795.594C84.8847 795.834 84.9968 796.09 85.0847 796.363C85.8259 798.636 84.6449 801.082 82.4461 801.823C80.5108 802.475 78.4321 801.588 77.4573 799.813C77.3256 799.573 77.2153 799.316 77.1256 799.044C76.5493 797.271 77.1388 795.398 78.4654 794.304C78.8429 793.995 79.2786 793.748 79.7642 793.584C79.9608 793.518 80.1593 793.468 80.3567 793.433C82.1108 793.122 83.877 793.999 84.753 795.594Z" fill="#04324F"/>
<path d="M115.472 708.726C115.604 708.966 115.716 709.222 115.806 709.494C116.545 711.768 115.366 714.213 113.167 714.954C111.828 715.405 110.419 715.117 109.351 714.309C108.881 713.951 108.478 713.49 108.178 712.944C108.125 712.847 108.074 712.745 108.027 712.642C107.961 712.492 107.9 712.337 107.848 712.174C107.105 709.902 108.288 707.457 110.485 706.715C112.421 706.063 114.498 706.95 115.472 708.726Z" fill="#04324F"/>
<path d="M179.189 761.576C179.321 761.816 179.433 762.072 179.521 762.345C180.26 764.619 179.081 767.064 176.882 767.805C174.947 768.457 172.868 767.571 171.894 765.795C171.762 765.555 171.651 765.298 171.562 765.026C170.885 762.948 171.813 760.726 173.655 759.795C173.83 759.706 174.012 759.631 174.2 759.566C174.693 759.401 175.196 759.335 175.687 759.358C177.122 759.424 178.462 760.252 179.189 761.576Z" fill="#04324F"/>
<path d="M260.796 849.26C260.928 849.5 261.041 849.758 261.128 850.029C261.87 852.304 260.688 854.748 258.49 855.489C257.785 855.727 257.061 855.76 256.378 855.621C255.686 855.479 255.037 855.16 254.493 854.697C254.1 854.363 253.763 853.952 253.504 853.48C253.372 853.24 253.259 852.982 253.17 852.712C252.43 850.436 253.61 847.993 255.809 847.252C257.744 846.6 259.823 847.487 260.796 849.26Z" fill="#04324F"/>
<path d="M195.141 914.983C195.273 915.223 195.385 915.48 195.474 915.751C195.574 916.059 195.638 916.37 195.669 916.678C195.877 918.656 194.735 920.572 192.836 921.211C190.9 921.863 188.822 920.977 187.847 919.201C187.715 918.961 187.603 918.705 187.515 918.432C186.774 916.159 187.955 913.713 190.154 912.973C191.967 912.361 193.908 913.102 194.947 914.661C195.016 914.764 195.08 914.873 195.141 914.983Z" fill="#04324F"/>
<path d="M251.502 638.249C251.634 638.489 251.747 638.747 251.836 639.017C252.576 641.293 251.394 643.737 249.197 644.476C248.569 644.688 247.926 644.739 247.309 644.647C246.609 644.546 245.946 644.262 245.379 643.831C244.91 643.472 244.507 643.011 244.209 642.467C244.077 642.227 243.965 641.971 243.878 641.7C243.136 639.425 244.318 636.98 246.515 636.238C248.449 635.587 250.528 636.473 251.502 638.249Z" fill="#04324F"/>
<path d="M276.053 603.281C276.185 603.521 276.297 603.777 276.385 604.05C277.126 606.323 275.945 608.769 273.748 609.508C271.812 610.161 269.734 609.274 268.759 607.499C268.627 607.259 268.515 607.003 268.425 606.731C267.694 604.484 268.839 602.071 270.986 601.299C271.012 601.289 271.039 601.281 271.064 601.271C271.729 601.048 272.41 601.006 273.056 601.117C274.295 601.333 275.413 602.115 276.053 603.281Z" fill="#04324F"/>
<path d="M18.3311 158.627C18.4505 158.845 18.5539 159.076 18.6375 159.32C18.6472 159.346 18.656 159.371 18.6629 159.396C18.8872 160.086 18.9353 160.789 18.8336 161.458C18.5962 162.997 17.5591 164.341 16.0271 164.857C14.0917 165.509 12.0131 164.622 11.0383 162.847C10.9065 162.607 10.7934 162.349 10.7065 162.078C9.96426 159.803 11.1465 157.359 13.3435 156.62C15.2788 155.967 17.3573 156.854 18.3311 158.627Z" fill="#04324F"/>
<path d="M70.5475 747.8C70.8769 748.399 71.1554 749.041 71.3771 749.718C71.8297 751.105 71.9942 752.518 71.9061 753.887C71.8374 754.971 71.6091 756.028 71.2398 757.024C70.4006 759.278 68.835 761.222 66.7291 762.465C66.1396 762.812 65.5081 763.105 64.8381 763.336C64.8216 763.34 64.8061 763.347 64.7896 763.352C59.9556 764.98 54.7652 762.767 52.3322 758.336C52.0018 757.734 51.7234 757.093 51.5035 756.415C50.6357 753.751 50.8239 750.992 51.834 748.625C52.2525 747.645 52.8123 746.733 53.4954 745.919C54.6825 744.511 56.2418 743.404 58.0909 742.781C59.1691 742.418 60.2639 742.246 61.3444 742.247C62.4008 742.247 63.4398 742.415 64.4318 742.731C66.0778 743.255 67.591 744.191 68.8229 745.46C69.3109 745.963 69.7553 746.522 70.1463 747.125C70.2881 747.345 70.4209 747.569 70.5475 747.8Z" fill="#04324F"/>
<path d="M128.993 761.458C129.323 762.057 129.599 762.7 129.823 763.376C131.67 769.058 128.721 775.163 123.234 777.01C118.4 778.639 113.209 776.426 110.776 771.995C110.446 771.393 110.168 770.752 109.946 770.075C109.495 768.686 109.329 767.274 109.417 765.905C109.485 764.822 109.715 763.766 110.084 762.771C111.162 759.868 113.446 757.482 116.535 756.44C121.367 754.812 126.559 757.025 128.993 761.458Z" fill="#04324F"/>
<path d="M170.658 691.755C170.988 692.355 171.266 692.996 171.486 693.674C171.592 693.997 171.683 694.323 171.757 694.648C172.993 700.036 170.073 705.563 164.898 707.308C164.865 707.32 164.831 707.332 164.796 707.342C164.123 707.56 163.444 707.705 162.765 707.781C158.608 708.242 154.521 706.076 152.443 702.291C152.114 701.691 151.833 701.051 151.612 700.371C150.177 695.959 151.633 691.294 154.928 688.561C155.721 687.903 156.623 687.358 157.613 686.955C157.806 686.878 158.001 686.805 158.2 686.737C162.994 685.122 168.141 687.288 170.598 691.649C170.617 691.685 170.639 691.719 170.658 691.755Z" fill="#04324F"/>
<path d="M246.854 661.047C247.183 661.647 247.464 662.289 247.684 662.967C249.533 668.648 246.584 674.75 241.097 676.601C236.301 678.217 231.156 676.052 228.699 671.689C228.679 671.654 228.66 671.618 228.64 671.582C228.311 670.983 228.031 670.342 227.811 669.665C227.704 669.341 227.615 669.017 227.54 668.69C226.305 663.304 229.222 657.773 234.398 656.031C236.503 655.32 238.675 655.34 240.659 655.956C241.328 656.162 241.974 656.436 242.589 656.772C244.341 657.731 245.838 659.197 246.854 661.047Z" fill="#04324F"/>
<path d="M29.0812 601.23C29.4105 601.83 29.6908 602.47 29.9107 603.148C31.7616 608.828 28.812 614.933 23.3233 616.782C18.4893 618.411 13.3007 616.196 10.8677 611.765C10.5373 611.163 10.2571 610.523 10.0372 609.845C9.54679 608.341 9.39348 606.806 9.5354 605.327C9.6407 604.249 9.90022 603.201 10.3017 602.216C11.4255 599.463 13.6535 597.212 16.6247 596.211C17.9031 595.78 19.2059 595.618 20.4757 595.695C21.5289 595.759 22.5599 595.986 23.5345 596.361C25.833 597.242 27.8253 598.938 29.0812 601.23Z" fill="#04324F"/>
<path d="M140.295 638.377C140.625 638.977 140.903 639.618 141.125 640.295C142.56 644.707 141.103 649.375 137.809 652.105C137.017 652.765 136.115 653.31 135.123 653.712C134.932 653.79 134.737 653.863 134.538 653.929C129.705 655.559 124.513 653.344 122.08 648.913C121.751 648.313 121.471 647.67 121.251 646.992C119.401 641.312 122.351 635.209 127.839 633.359C128.313 633.199 128.79 633.076 129.269 632.99C130.315 632.799 131.364 632.776 132.386 632.91C135.65 633.334 138.623 635.331 140.295 638.377Z" fill="#04324F"/>
<path d="M137.472 544.692C137.801 545.292 138.08 545.933 138.3 546.611C140.15 552.291 137.201 558.396 131.712 560.245C131.238 560.405 130.761 560.527 130.283 560.615C129.237 560.806 128.187 560.827 127.168 560.695C123.902 560.271 120.928 558.272 119.257 555.228C118.926 554.627 118.648 553.985 118.426 553.308C116.577 547.627 119.526 541.525 125.013 539.675C126.94 539.025 128.922 538.987 130.764 539.455C131.783 539.713 132.758 540.128 133.659 540.682C135.215 541.635 136.545 543.003 137.472 544.692Z" fill="#04324F"/>
<path d="M10.4905 708.417C10.8208 709.019 11.0994 709.661 11.3211 710.337C12.1871 713.002 11.9978 715.759 10.9888 718.129C10.5702 719.108 10.0105 720.021 9.32811 720.832C8.14207 722.242 6.58091 723.35 4.73179 723.972C2.06325 724.87 -0.71521 724.597 -3.07835 723.426C-4.02139 722.961 -4.89672 722.35 -5.67333 721.616C-6.47364 720.856 -7.17112 719.962 -7.72483 718.954C-8.05417 718.354 -8.33264 717.713 -8.55434 717.036C-10.4034 711.355 -7.45566 705.251 -1.96686 703.402C2.86712 701.773 8.05748 703.986 10.4905 708.417Z" fill="#04324F"/>
<path d="M106.291 351.522C106.621 352.122 106.9 352.765 107.122 353.442C108.971 359.123 106.02 365.226 100.533 367.077C95.7004 368.704 90.51 366.491 88.076 362.058C87.7466 361.458 87.4681 360.817 87.2464 360.14C86.71 358.488 86.5768 356.802 86.7947 355.193C86.9395 354.122 87.2405 353.085 87.6801 352.118C88.8506 349.545 91.0053 347.46 93.8338 346.507C98.6678 344.878 103.858 347.091 106.291 351.522Z" fill="#04324F"/>
<path d="M168.708 237.528C169.038 238.128 169.319 238.77 169.539 239.448C171.389 245.126 168.439 251.231 162.952 253.081C158.118 254.71 152.929 252.496 150.495 248.063C150.223 247.568 149.985 247.044 149.786 246.495C149.744 246.379 149.704 246.263 149.665 246.145C149.362 245.214 149.188 244.275 149.133 243.342C148.847 238.581 151.663 234.056 156.253 232.511C161.087 230.882 166.277 233.096 168.708 237.528Z" fill="#04324F"/>
<path d="M248.552 892.664C248.927 893.348 249.259 894.065 249.543 894.817C249.642 895.074 249.734 895.336 249.82 895.602C252.653 904.302 248.138 913.651 239.733 916.483C239.098 916.696 238.459 916.867 237.818 916.995C237.131 917.135 236.442 917.224 235.758 917.268C229.637 917.663 223.72 914.378 220.656 908.798C220.399 908.329 220.161 907.844 219.945 907.342C219.739 906.861 219.552 906.367 219.386 905.86C219.328 905.681 219.273 905.503 219.22 905.324C216.741 896.78 221.242 887.754 229.474 884.979C233.182 883.731 237.026 883.956 240.408 885.35C241.056 885.615 241.686 885.923 242.295 886.273C244.328 887.437 246.127 889.055 247.534 891.04C247.901 891.556 248.241 892.098 248.552 892.664Z" fill="#04324F"/>
<path d="M314.347 855.774C314.852 856.694 315.28 857.677 315.618 858.713C318.451 867.413 313.934 876.759 305.529 879.592C298.745 881.88 291.501 879.22 287.47 873.533C287.103 873.017 286.763 872.475 286.452 871.909C286.077 871.225 285.744 870.506 285.461 869.756C285.361 869.498 285.269 869.235 285.183 868.969C282.351 860.271 286.866 850.923 295.271 848.09C302.673 845.597 310.622 848.986 314.347 855.774Z" fill="#04324F"/>
<path d="M91.7463 628.665C92.2517 629.585 92.6783 630.566 93.0176 631.604C95.8508 640.304 91.334 649.65 82.929 652.483C80.9986 653.135 79.0321 653.384 77.113 653.277C76.0657 653.219 75.0298 653.057 74.0238 652.793C70.2173 651.8 66.81 649.39 64.5493 645.953C64.3045 645.581 64.0703 645.198 63.8521 644.8C63.3879 643.955 62.9888 643.055 62.6646 642.109C62.636 642.027 62.6094 641.943 62.5826 641.86C59.7523 633.161 64.2662 623.814 72.6712 620.981C80.0731 618.487 88.0197 621.878 91.7463 628.665Z" fill="#04324F"/>
<path d="M48.9336 522.403C49.3497 523.165 49.7159 523.971 50.0227 524.816C50.0849 524.99 50.1452 525.165 50.202 525.342C53.0352 534.041 48.5194 543.39 40.1134 546.221C38.472 546.775 36.8041 547.039 35.1588 547.04L39.4115 544.587L37.8677 541.775L30.1626 546.221C26.3776 544.946 23.0772 542.25 21.0394 538.539C20.534 537.618 20.1065 536.636 19.7681 535.599C18.4141 531.439 18.7403 527.129 20.3677 523.456C20.9426 522.159 21.68 520.941 22.5628 519.837C24.41 517.53 26.8909 515.718 29.8567 514.721C36.7317 512.403 44.0756 515.163 48.0737 521.006C48.3793 521.454 48.6681 521.92 48.9336 522.403Z" fill="#04324F"/>
<path d="M37.79 541.67L39.3365 544.487L35.0759 546.946C34.4801 546.946 33.8844 546.912 33.2972 546.845C32.2523 546.726 31.2279 546.501 30.2328 546.177C30.1788 546.161 30.1256 546.142 30.0706 546.125L37.79 541.67Z" fill="#04324F"/>
<path d="M176.99 453.369C177.494 454.288 177.922 455.27 178.259 456.31C179.689 460.698 179.247 465.252 177.378 469.05C176.754 470.321 175.97 471.507 175.043 472.574C173.248 474.642 170.917 476.263 168.171 477.189C164.939 478.278 161.601 478.244 158.558 477.297C157.556 476.984 156.588 476.573 155.662 476.07C153.423 474.852 151.452 473.094 149.953 470.903C149.647 470.453 149.361 469.988 149.095 469.505C148.677 468.742 148.31 467.936 148.006 467.092C147.941 466.918 147.881 466.743 147.824 466.566C144.991 457.866 149.508 448.519 157.913 445.687C165.314 443.191 173.263 446.582 176.99 453.369Z" fill="#04324F"/>
<path d="M280.126 526.355C280.631 527.274 281.058 528.256 281.398 529.295C284.228 537.994 279.712 547.342 271.309 550.173C270.454 550.462 269.591 550.671 268.728 550.806C268.038 550.913 267.346 550.974 266.659 550.988C260.78 551.109 255.183 547.865 252.232 542.491C251.727 541.57 251.299 540.588 250.963 539.55C249.533 535.162 249.975 530.608 251.843 526.808C252.466 525.538 253.251 524.352 254.178 523.284C255.972 521.219 258.303 519.598 261.05 518.673C268.452 516.176 276.4 519.568 280.126 526.355Z" fill="#04324F"/>
<path d="M6.40838 316.138C6.91268 317.056 7.34025 318.038 7.67779 319.078C8.59565 321.898 8.74285 324.787 8.23392 327.499C8.03451 328.557 7.73868 329.587 7.34852 330.574C5.65177 334.876 2.20828 338.4 -2.41077 339.957C-7.13871 341.549 -12.0905 340.741 -16.0232 338.179C-17.1979 337.413 -18.2823 336.491 -19.2418 335.428C-20.0966 334.482 -20.8519 333.427 -21.4859 332.273C-21.9902 331.354 -22.4188 330.37 -22.7553 329.333C-25.5885 320.633 -21.0718 311.286 -12.6686 308.455C-7.08381 306.573 -1.18999 308.04 2.9679 311.787C4.00937 312.726 4.94392 313.808 5.73437 315.018C5.97298 315.379 6.1974 315.753 6.40838 316.138Z" fill="#04324F"/>
<path d="M80.2004 148.137C80.7058 149.058 81.1333 150.04 81.4717 151.077C84.3039 159.774 79.7863 169.124 71.3831 171.955C70.0041 172.42 68.606 172.681 67.2184 172.754C65.8141 172.826 64.4201 172.705 63.0709 172.409C58.6106 171.426 54.6342 168.512 52.3062 164.272C51.8019 163.354 51.3743 162.372 51.0367 161.332C50.748 160.443 50.5333 159.545 50.3931 158.648C50.282 157.935 50.2175 157.219 50.197 156.51C49.9964 149.417 54.2657 142.765 61.1253 140.454C68.5272 137.96 76.4756 141.349 80.2004 148.137Z" fill="#04324F"/>
<path d="M72.5238 256.249C73.0281 257.167 73.4557 258.15 73.7922 259.187C73.8241 259.28 73.8541 259.373 73.8814 259.466C74.2034 260.512 74.419 261.568 74.5348 262.619C74.8963 265.868 74.3037 269.078 72.9376 271.88C72.3158 273.152 71.5352 274.343 70.6124 275.413C68.8122 277.498 66.4682 279.135 63.7047 280.068C58.1217 281.948 52.2279 280.481 48.07 276.735C47.0276 275.793 46.0941 274.713 45.3018 273.504C45.065 273.142 44.8406 272.768 44.6296 272.384C44.1242 271.463 43.6967 270.481 43.3583 269.445C40.5251 260.745 45.0437 251.398 53.4459 248.564C54.8259 248.101 56.224 247.84 57.6116 247.767C59.0159 247.695 60.4089 247.815 61.7591 248.112C66.2194 249.095 70.1958 252.009 72.5238 256.249Z" fill="#04324F"/>
<path d="M151.519 311.787C152.024 312.705 152.452 313.69 152.791 314.726C155.623 323.424 151.107 332.772 142.702 335.605C135.3 338.099 127.352 334.71 123.625 327.922C123.121 327.004 122.692 326.02 122.356 324.982C120.932 320.613 121.364 316.079 123.211 312.291C123.832 311.017 124.612 309.829 125.537 308.757C127.337 306.672 129.681 305.036 132.444 304.103C139.846 301.61 147.795 304.999 151.519 311.787Z" fill="#04324F"/>
</g>
</g>
<defs>
<filter id="filter0_f" x="-775.068" y="-135.809" width="1272.63" height="1318.56" filterUnits="userSpaceOnUse" color-interpolation-filters="sRGB">
<feFlood flood-opacity="0" result="BackgroundImageFix"/>
<feBlend mode="normal" in="SourceGraphic" in2="BackgroundImageFix" result="shape"/>
<feGaussianBlur stdDeviation="5" result="effect1_foregroundBlur"/>
</filter>
</defs>
</svg>
