<svg width="113" height="114" viewBox="0 0 113 114" fill="none" xmlns="http://www.w3.org/2000/svg">
<g filter="url(#filter0_f)">
<circle r="50" transform="matrix(1 0 -2.58096e-08 -1 56.9335 57.2179)" fill="url(#paint0_linear)"/>
<circle r="49.5" transform="matrix(1 0 -2.58096e-08 -1 56.9335 57.2179)" stroke="#38A7C9"/>
</g>
<g filter="url(#filter1_f)">
<path d="M73.1948 68.1396H63.709C62.0734 68.1396 60.7047 69.3056 60.3897 70.8498H52.1906V66.7844H53.5457V62.7191H52.1906V55.7945L58.9851 54.0958C59.08 55.1291 59.9411 55.9435 60.9988 55.9435C61.5212 55.9435 61.9935 55.7396 62.3539 55.415V60.0089H63.709V64.0742H65.7417V66.7844H67.0968V64.0742H69.1295V60.0089H74.5499V55.415C74.9104 55.7403 75.3827 55.9435 75.9051 55.9435C77.0257 55.9435 77.9377 55.0315 77.9377 53.9109C77.9377 52.7902 77.0257 51.8782 75.9051 51.8782C75.3827 51.8782 74.9104 52.0821 74.5499 52.4067V45.1026H71.8397V43.7475H73.1948V41.7148C73.1948 40.5942 72.2828 39.6822 71.1622 39.6822H65.7417C64.621 39.6822 63.709 40.5942 63.709 41.7148V43.7475H65.0641V45.1026H62.3539V45.997L52.1906 48.943V46.4577H50.8355V43.7475H52.1906C52.9379 43.7475 53.5457 43.1397 53.5457 42.3924V41.0373C53.5457 40.2899 52.9379 39.6822 52.1906 39.6822H50.8355V37.6495C50.8355 36.5288 49.9235 35.6168 48.8028 35.6168H47.4477C46.327 35.6168 45.415 36.5288 45.415 37.6495V39.6822H44.0599C43.3125 39.6822 42.7048 40.2899 42.7048 41.0373V42.3924C42.7048 43.1397 43.3125 43.7475 44.0599 43.7475H45.415V46.4577H44.0599V62.7191H42.7048V64.0742H39.8699C39.6652 63.5003 39.2133 63.0484 38.6394 62.8438V60.0089H37.2843V62.8438C36.4977 63.1243 35.9292 63.8696 35.9292 64.7518C35.9292 65.634 36.4977 66.3793 37.2843 66.6598V69.4947H38.6394V66.6598C39.2133 66.4552 39.6652 66.0032 39.8699 65.4293H42.7048V66.7844H44.0599V70.8498H41.3497V74.9151H44.2083L44.8858 77.6254H51.3646L52.0422 74.9151H67.2452L67.9228 77.6254H74.4016L75.0791 74.9151H77.9377V70.8498H76.5142C76.1991 69.3056 74.8305 68.1396 73.1948 68.1396ZM37.9619 65.4293C37.5885 65.4293 37.2843 65.1258 37.2843 64.7518C37.2843 64.3778 37.5885 64.0742 37.9619 64.0742C38.3352 64.0742 38.6394 64.3778 38.6394 64.7518C38.6394 65.1258 38.3352 65.4293 37.9619 65.4293ZM63.709 69.4947H73.1948C74.077 69.4947 74.8223 70.0631 75.1028 70.8498H61.801C62.0815 70.0631 62.8269 69.4947 63.709 69.4947ZM60.9988 54.5884C60.6255 54.5884 60.3213 54.2849 60.3213 53.9109C60.3213 53.5368 60.6255 53.2333 60.9988 53.2333C61.3721 53.2333 61.6764 53.5368 61.6764 53.9109C61.6764 54.2849 61.3721 54.5884 60.9988 54.5884ZM67.7744 62.7191H65.0641V60.0089H67.7744V62.7191ZM63.709 58.6538V54.5884H65.1326C65.4476 56.1326 66.8156 57.2986 68.4519 57.2986C70.0882 57.2986 71.4562 56.1326 71.7713 54.5884H73.1948V58.6538H63.709ZM66.4193 53.9109C66.4193 52.7902 67.3313 51.8782 68.4519 51.8782C69.5726 51.8782 70.4846 52.7902 70.4846 53.9109C70.4846 55.0315 69.5726 55.9435 68.4519 55.9435C67.3313 55.9435 66.4193 55.0315 66.4193 53.9109ZM75.9051 53.2333C76.2784 53.2333 76.5826 53.5368 76.5826 53.9109C76.5826 54.2849 76.2784 54.5884 75.9051 54.5884C75.5317 54.5884 75.2275 54.2849 75.2275 53.9109C75.2275 53.5368 75.5317 53.2333 75.9051 53.2333ZM65.0641 41.7148C65.0641 41.3408 65.3684 41.0373 65.7417 41.0373H71.1622C71.5355 41.0373 71.8397 41.3408 71.8397 41.7148V42.3924H65.0641V41.7148ZM66.4193 43.7475H70.4846V45.1026H66.4193V43.7475ZM73.1948 46.4577V53.2333H71.7713C71.4562 51.6892 70.0882 50.5231 68.4519 50.5231C66.8156 50.5231 65.4476 51.6892 65.1326 53.2333H63.709V46.4577H73.1948ZM62.3539 47.409V52.4074C61.9935 52.0821 61.5212 51.8789 60.9988 51.8789C60.391 51.8789 59.8503 52.1526 59.4777 52.5774L52.1906 54.3987V50.355L62.3539 47.409ZM46.7701 37.6495C46.7701 37.2755 47.0743 36.9719 47.4477 36.9719H48.8028C49.1761 36.9719 49.4803 37.2755 49.4803 37.6495V39.6822H46.7701V37.6495ZM44.0599 41.0373H52.1906L52.1912 42.3924H44.0599V41.0373ZM46.7701 43.7475H49.4803V46.4577H46.7701V43.7475ZM45.415 47.8128H50.8355V62.7191H45.415V47.8128ZM44.0599 64.0742H52.1906V65.4293H44.0599V64.0742ZM45.415 66.7844H50.8355V70.8498H45.415V66.7844ZM50.3063 76.2702H45.9442L45.6054 74.9151H50.6451L50.3063 76.2702ZM73.3432 76.2702H68.9811L68.6423 74.9151H73.682L73.3432 76.2702ZM76.5826 73.56H42.7048V72.2049H76.5826V73.56Z" fill="#07A7D8"/>
<path d="M68.4519 54.5884C68.8261 54.5884 69.1295 54.2851 69.1295 53.9109C69.1295 53.5367 68.8261 53.2333 68.4519 53.2333C68.0777 53.2333 67.7744 53.5367 67.7744 53.9109C67.7744 54.2851 68.0777 54.5884 68.4519 54.5884Z" fill="#07A7D8"/>
<path d="M66.4193 47.8128H65.0641V49.168H66.4193V47.8128Z" fill="#07A7D8"/>
<path d="M69.1295 47.8128H67.7744V49.168H69.1295V47.8128Z" fill="#07A7D8"/>
<path d="M71.8397 47.8128H70.4846V49.168H71.8397V47.8128Z" fill="#07A7D8"/>
</g>
<path d="M73.1948 68.1396H63.709C62.0734 68.1396 60.7047 69.3056 60.3897 70.8498H52.1906V66.7844H53.5457V62.7191H52.1906V55.7945L58.9851 54.0958C59.08 55.1291 59.9411 55.9435 60.9988 55.9435C61.5212 55.9435 61.9935 55.7396 62.3539 55.415V60.0089H63.709V64.0742H65.7417V66.7844H67.0968V64.0742H69.1295V60.0089H74.5499V55.415C74.9104 55.7403 75.3827 55.9435 75.9051 55.9435C77.0257 55.9435 77.9377 55.0315 77.9377 53.9109C77.9377 52.7902 77.0257 51.8782 75.9051 51.8782C75.3827 51.8782 74.9104 52.0821 74.5499 52.4067V45.1026H71.8397V43.7475H73.1948V41.7148C73.1948 40.5942 72.2828 39.6822 71.1622 39.6822H65.7417C64.621 39.6822 63.709 40.5942 63.709 41.7148V43.7475H65.0641V45.1026H62.3539V45.997L52.1906 48.943V46.4577H50.8355V43.7475H52.1906C52.9379 43.7475 53.5457 43.1397 53.5457 42.3924V41.0373C53.5457 40.2899 52.9379 39.6822 52.1906 39.6822H50.8355V37.6495C50.8355 36.5288 49.9235 35.6168 48.8028 35.6168H47.4477C46.327 35.6168 45.415 36.5288 45.415 37.6495V39.6822H44.0599C43.3125 39.6822 42.7048 40.2899 42.7048 41.0373V42.3924C42.7048 43.1397 43.3125 43.7475 44.0599 43.7475H45.415V46.4577H44.0599V62.7191H42.7048V64.0742H39.8699C39.6652 63.5003 39.2133 63.0484 38.6394 62.8438V60.0089H37.2843V62.8438C36.4977 63.1243 35.9292 63.8696 35.9292 64.7518C35.9292 65.634 36.4977 66.3793 37.2843 66.6598V69.4947H38.6394V66.6598C39.2133 66.4552 39.6652 66.0032 39.8699 65.4293H42.7048V66.7844H44.0599V70.8498H41.3497V74.9151H44.2083L44.8858 77.6254H51.3646L52.0422 74.9151H67.2452L67.9228 77.6254H74.4016L75.0791 74.9151H77.9377V70.8498H76.5142C76.1991 69.3056 74.8305 68.1396 73.1948 68.1396ZM37.9619 65.4293C37.5885 65.4293 37.2843 65.1258 37.2843 64.7518C37.2843 64.3778 37.5885 64.0742 37.9619 64.0742C38.3352 64.0742 38.6394 64.3778 38.6394 64.7518C38.6394 65.1258 38.3352 65.4293 37.9619 65.4293ZM63.709 69.4947H73.1948C74.077 69.4947 74.8223 70.0631 75.1028 70.8498H61.801C62.0815 70.0631 62.8269 69.4947 63.709 69.4947ZM60.9988 54.5884C60.6255 54.5884 60.3213 54.2849 60.3213 53.9109C60.3213 53.5368 60.6255 53.2333 60.9988 53.2333C61.3721 53.2333 61.6764 53.5368 61.6764 53.9109C61.6764 54.2849 61.3721 54.5884 60.9988 54.5884ZM67.7744 62.7191H65.0641V60.0089H67.7744V62.7191ZM63.709 58.6538V54.5884H65.1326C65.4476 56.1326 66.8156 57.2986 68.4519 57.2986C70.0882 57.2986 71.4562 56.1326 71.7713 54.5884H73.1948V58.6538H63.709ZM66.4193 53.9109C66.4193 52.7902 67.3313 51.8782 68.4519 51.8782C69.5726 51.8782 70.4846 52.7902 70.4846 53.9109C70.4846 55.0315 69.5726 55.9435 68.4519 55.9435C67.3313 55.9435 66.4193 55.0315 66.4193 53.9109ZM75.9051 53.2333C76.2784 53.2333 76.5826 53.5368 76.5826 53.9109C76.5826 54.2849 76.2784 54.5884 75.9051 54.5884C75.5317 54.5884 75.2275 54.2849 75.2275 53.9109C75.2275 53.5368 75.5317 53.2333 75.9051 53.2333ZM65.0641 41.7148C65.0641 41.3408 65.3684 41.0373 65.7417 41.0373H71.1622C71.5355 41.0373 71.8397 41.3408 71.8397 41.7148V42.3924H65.0641V41.7148ZM66.4193 43.7475H70.4846V45.1026H66.4193V43.7475ZM73.1948 46.4577V53.2333H71.7713C71.4562 51.6892 70.0882 50.5231 68.4519 50.5231C66.8156 50.5231 65.4476 51.6892 65.1326 53.2333H63.709V46.4577H73.1948ZM62.3539 47.409V52.4074C61.9935 52.0821 61.5212 51.8789 60.9988 51.8789C60.391 51.8789 59.8503 52.1526 59.4777 52.5774L52.1906 54.3987V50.355L62.3539 47.409ZM46.7701 37.6495C46.7701 37.2755 47.0743 36.9719 47.4477 36.9719H48.8028C49.1761 36.9719 49.4803 37.2755 49.4803 37.6495V39.6822H46.7701V37.6495ZM44.0599 41.0373H52.1906L52.1912 42.3924H44.0599V41.0373ZM46.7701 43.7475H49.4803V46.4577H46.7701V43.7475ZM45.415 47.8128H50.8355V62.7191H45.415V47.8128ZM44.0599 64.0742H52.1906V65.4293H44.0599V64.0742ZM45.415 66.7844H50.8355V70.8498H45.415V66.7844ZM50.3063 76.2702H45.9442L45.6054 74.9151H50.6451L50.3063 76.2702ZM73.3432 76.2702H68.9811L68.6423 74.9151H73.682L73.3432 76.2702ZM76.5826 73.56H42.7048V72.2049H76.5826V73.56Z" fill="white"/>
<path d="M68.4519 54.5884C68.8261 54.5884 69.1295 54.2851 69.1295 53.9109C69.1295 53.5367 68.8261 53.2333 68.4519 53.2333C68.0777 53.2333 67.7744 53.5367 67.7744 53.9109C67.7744 54.2851 68.0777 54.5884 68.4519 54.5884Z" fill="white"/>
<path d="M66.4193 47.8128H65.0641V49.168H66.4193V47.8128Z" fill="white"/>
<path d="M69.1295 47.8128H67.7744V49.168H69.1295V47.8128Z" fill="white"/>
<path d="M71.8397 47.8128H70.4846V49.168H71.8397V47.8128Z" fill="white"/>
<g filter="url(#filter2_f)">
<circle cx="56.9336" cy="56.6211" r="49.5" stroke="#38A7C9"/>
</g>
<circle cx="56.9336" cy="56.6211" r="49.5" stroke="white"/>
<defs>
<filter id="filter0_f" x="0.933594" y="1.21802" width="112" height="112" filterUnits="userSpaceOnUse" color-interpolation-filters="sRGB">
<feFlood flood-opacity="0" result="BackgroundImageFix"/>
<feBlend mode="normal" in="SourceGraphic" in2="BackgroundImageFix" result="shape"/>
<feGaussianBlur stdDeviation="3" result="effect1_foregroundBlur"/>
</filter>
<filter id="filter1_f" x="29.9292" y="29.6168" width="54.0085" height="54.0085" filterUnits="userSpaceOnUse" color-interpolation-filters="sRGB">
<feFlood flood-opacity="0" result="BackgroundImageFix"/>
<feBlend mode="normal" in="SourceGraphic" in2="BackgroundImageFix" result="shape"/>
<feGaussianBlur stdDeviation="3" result="effect1_foregroundBlur"/>
</filter>
<filter id="filter2_f" x="0.933594" y="0.621094" width="112" height="112" filterUnits="userSpaceOnUse" color-interpolation-filters="sRGB">
<feFlood flood-opacity="0" result="BackgroundImageFix"/>
<feBlend mode="normal" in="SourceGraphic" in2="BackgroundImageFix" result="shape"/>
<feGaussianBlur stdDeviation="3" result="effect1_foregroundBlur"/>
</filter>
<linearGradient id="paint0_linear" x1="50" y1="0" x2="50" y2="99.9999" gradientUnits="userSpaceOnUse">
<stop stop-color="#066E8D"/>
<stop offset="1" stop-color="#066E8D" stop-opacity="0"/>
</linearGradient>
</defs>
</svg>
