<svg width="1475" height="364" viewBox="0 0 1475 364" fill="none" xmlns="http://www.w3.org/2000/svg">
<g opacity="0.2" filter="url(#filter0_f)">
<mask id="path-1-outside-1" maskUnits="userSpaceOnUse" x="20.7773" y="20.8438" width="1434" height="323" fill="black">
<rect fill="white" x="20.7773" y="20.8438" width="1434" height="323"/>
<path d="M93.543 139.812H57.8438L51.6094 160H23.7773L63.4102 51.9375H87.9023L127.832 160H99.8516L93.543 139.812ZM64.0781 119.699H87.3086L75.6562 82.2188L64.0781 119.699ZM235.218 160H209.315V114.875H170.944V160H144.893V51.9375H170.944V94.8359H209.315V51.9375H235.218V160ZM323.603 139.812H287.904L281.67 160H253.838L293.47 51.9375H317.963L357.892 160H329.912L323.603 139.812ZM294.138 119.699H317.369L305.717 82.2188L294.138 119.699ZM467.208 51.9375V160H441.157V72.0508H416.887L415.106 108.344C414.364 120.862 412.632 130.857 409.911 138.328C407.189 145.799 403.305 151.267 398.258 154.73C393.261 158.145 386.433 159.901 377.774 160H370.797V139.961L374.434 139.59C379.63 138.848 383.39 135.681 385.715 130.09C388.041 124.449 389.55 114.974 390.243 101.664L392.098 51.9375H467.208ZM555.964 51.9375H582.015V160H555.964V91.8672L517.148 160H491.097V51.9375H517.148V120.145L555.964 51.9375ZM689.698 72.0508H657.264V160H631.213V72.0508H599.373V51.9375H689.698V72.0508ZM773.259 51.9375H799.31V160H773.259V91.8672L734.443 160H708.392V51.9375H734.443V120.145L773.259 51.9375ZM912.336 51.9375V160H886.36V120.07L878.715 121.035L869.141 121.629C854.594 121.629 843.461 118.487 835.742 112.203C828.024 105.87 824.115 96.9141 824.016 85.3359V51.9375H850.067V84.9648C850.067 90.8529 851.477 95.1081 854.297 97.7305C857.167 100.303 862.115 101.59 869.141 101.59L871.367 101.516C877.453 101.219 882.451 100.749 886.36 100.105V51.9375H912.336ZM1004.73 114.207H963.761V139.961H1012.15V160H937.71V51.9375H1012.3V72.0508H963.761V94.8359H1004.73V114.207ZM1119.31 123.41C1118.97 130.931 1116.94 137.586 1113.23 143.375C1109.52 149.115 1104.3 153.568 1097.57 156.734C1090.89 159.901 1083.24 161.484 1074.63 161.484C1060.43 161.484 1049.25 156.858 1041.09 147.605C1032.92 138.353 1028.84 125.29 1028.84 108.418V103.074C1028.84 92.4857 1030.67 83.2331 1034.33 75.3164C1038.04 67.3503 1043.36 61.2148 1050.29 56.9102C1057.22 52.556 1065.23 50.3789 1074.34 50.3789C1087.45 50.3789 1097.99 53.8424 1105.96 60.7695C1113.92 67.6471 1118.45 77.1471 1119.54 89.2695H1093.56C1093.36 82.6888 1091.71 77.9635 1088.59 75.0938C1085.47 72.224 1080.72 70.7891 1074.34 70.7891C1067.86 70.7891 1063.11 73.2135 1060.09 78.0625C1057.07 82.9115 1055.49 90.6549 1055.34 101.293V108.938C1055.34 120.466 1056.77 128.704 1059.64 133.652C1062.56 138.6 1067.56 141.074 1074.63 141.074C1080.62 141.074 1085.2 139.664 1088.37 136.844C1091.53 134.023 1093.21 129.546 1093.41 123.41H1119.31ZM1178.98 117.25H1166.66V160H1140.61V51.9375H1166.66V93.7227H1176.68L1197.46 51.9375H1229L1199.31 101.812L1232.71 160H1201.91L1178.98 117.25ZM1311.67 51.9375H1337.72V160H1311.67V91.8672L1272.86 160H1246.8V51.9375H1272.86V120.145L1311.67 51.9375ZM1426.18 51.9375H1452.23V160H1426.18V91.8672L1387.37 160H1361.31V51.9375H1387.37V120.145L1426.18 51.9375ZM1434.42 22.8438C1434.42 29.6224 1431.92 35.1146 1426.92 39.3203C1421.93 43.526 1415.27 45.6289 1406.96 45.6289C1398.65 45.6289 1391.99 43.526 1386.99 39.3203C1382 35.1146 1379.5 29.6224 1379.5 22.8438H1396.49C1396.49 25.8125 1397.41 28.138 1399.24 29.8203C1401.12 31.4531 1403.69 32.2695 1406.96 32.2695C1410.23 32.2695 1412.75 31.4779 1414.53 29.8945C1416.36 28.2617 1417.28 25.9115 1417.28 22.8438H1434.42ZM123.676 263.195C123.676 273.734 121.721 283.061 117.812 291.176C113.904 299.29 108.337 305.549 101.113 309.953C93.9388 314.307 85.75 316.484 76.5469 316.484C67.3438 316.484 59.1797 314.382 52.0547 310.176C44.9297 305.921 39.3633 299.859 35.3555 291.992C31.3971 284.125 29.319 275.095 29.1211 264.902V258.816C29.1211 248.228 31.0508 238.901 34.9102 230.836C38.819 222.721 44.3854 216.462 51.6094 212.059C58.8828 207.655 67.1458 205.453 76.3984 205.453C85.5521 205.453 93.7161 207.63 100.891 211.984C108.065 216.339 113.632 222.548 117.59 230.613C121.598 238.629 123.626 247.832 123.676 258.223V263.195ZM97.1797 258.668C97.1797 247.931 95.3737 239.792 91.7617 234.25C88.1992 228.659 83.0781 225.863 76.3984 225.863C63.3359 225.863 56.4336 235.66 55.6914 255.254L55.6172 263.195C55.6172 273.784 57.3737 281.923 60.8867 287.613C64.3997 293.303 69.6198 296.148 76.5469 296.148C83.1276 296.148 88.1992 293.353 91.7617 287.762C95.3242 282.171 97.1302 274.13 97.1797 263.641V258.668ZM224.679 227.051H192.245V315H166.194V227.051H134.354V206.938H224.679V227.051ZM339.857 341.57H316.478V315H257.623V341.496H233.502L231.646 294.961H239.291C243.299 292.289 246.515 287.712 248.939 281.23C251.413 274.699 253.17 265.348 254.209 253.176L257.549 206.938H331.099V294.961H342.603L339.857 341.57ZM268.756 294.961H305.123V227.051H282.115L280.111 254.066C278.627 271.582 274.842 285.214 268.756 294.961ZM427.723 269.207H386.755V294.961H435.145V315H360.704V206.938H435.294V227.051H386.755V249.836H427.723V269.207ZM545.796 206.938V315H519.746V227.051H495.476L493.695 263.344C492.953 275.862 491.221 285.857 488.5 293.328C485.778 300.799 481.894 306.267 476.847 309.73C471.85 313.145 465.022 314.901 456.363 315H449.386V294.961L453.023 294.59C458.218 293.848 461.979 290.681 464.304 285.09C466.63 279.449 468.139 269.974 468.832 256.664L470.687 206.938H545.796Z"/>
</mask>
<path d="M93.543 139.812H57.8438L51.6094 160H23.7773L63.4102 51.9375H87.9023L127.832 160H99.8516L93.543 139.812ZM64.0781 119.699H87.3086L75.6562 82.2188L64.0781 119.699ZM235.218 160H209.315V114.875H170.944V160H144.893V51.9375H170.944V94.8359H209.315V51.9375H235.218V160ZM323.603 139.812H287.904L281.67 160H253.838L293.47 51.9375H317.963L357.892 160H329.912L323.603 139.812ZM294.138 119.699H317.369L305.717 82.2188L294.138 119.699ZM467.208 51.9375V160H441.157V72.0508H416.887L415.106 108.344C414.364 120.862 412.632 130.857 409.911 138.328C407.189 145.799 403.305 151.267 398.258 154.73C393.261 158.145 386.433 159.901 377.774 160H370.797V139.961L374.434 139.59C379.63 138.848 383.39 135.681 385.715 130.09C388.041 124.449 389.55 114.974 390.243 101.664L392.098 51.9375H467.208ZM555.964 51.9375H582.015V160H555.964V91.8672L517.148 160H491.097V51.9375H517.148V120.145L555.964 51.9375ZM689.698 72.0508H657.264V160H631.213V72.0508H599.373V51.9375H689.698V72.0508ZM773.259 51.9375H799.31V160H773.259V91.8672L734.443 160H708.392V51.9375H734.443V120.145L773.259 51.9375ZM912.336 51.9375V160H886.36V120.07L878.715 121.035L869.141 121.629C854.594 121.629 843.461 118.487 835.742 112.203C828.024 105.87 824.115 96.9141 824.016 85.3359V51.9375H850.067V84.9648C850.067 90.8529 851.477 95.1081 854.297 97.7305C857.167 100.303 862.115 101.59 869.141 101.59L871.367 101.516C877.453 101.219 882.451 100.749 886.36 100.105V51.9375H912.336ZM1004.73 114.207H963.761V139.961H1012.15V160H937.71V51.9375H1012.3V72.0508H963.761V94.8359H1004.73V114.207ZM1119.31 123.41C1118.97 130.931 1116.94 137.586 1113.23 143.375C1109.52 149.115 1104.3 153.568 1097.57 156.734C1090.89 159.901 1083.24 161.484 1074.63 161.484C1060.43 161.484 1049.25 156.858 1041.09 147.605C1032.92 138.353 1028.84 125.29 1028.84 108.418V103.074C1028.84 92.4857 1030.67 83.2331 1034.33 75.3164C1038.04 67.3503 1043.36 61.2148 1050.29 56.9102C1057.22 52.556 1065.23 50.3789 1074.34 50.3789C1087.45 50.3789 1097.99 53.8424 1105.96 60.7695C1113.92 67.6471 1118.45 77.1471 1119.54 89.2695H1093.56C1093.36 82.6888 1091.71 77.9635 1088.59 75.0938C1085.47 72.224 1080.72 70.7891 1074.34 70.7891C1067.86 70.7891 1063.11 73.2135 1060.09 78.0625C1057.07 82.9115 1055.49 90.6549 1055.34 101.293V108.938C1055.34 120.466 1056.77 128.704 1059.64 133.652C1062.56 138.6 1067.56 141.074 1074.63 141.074C1080.62 141.074 1085.2 139.664 1088.37 136.844C1091.53 134.023 1093.21 129.546 1093.41 123.41H1119.31ZM1178.98 117.25H1166.66V160H1140.61V51.9375H1166.66V93.7227H1176.68L1197.46 51.9375H1229L1199.31 101.812L1232.71 160H1201.91L1178.98 117.25ZM1311.67 51.9375H1337.72V160H1311.67V91.8672L1272.86 160H1246.8V51.9375H1272.86V120.145L1311.67 51.9375ZM1426.18 51.9375H1452.23V160H1426.18V91.8672L1387.37 160H1361.31V51.9375H1387.37V120.145L1426.18 51.9375ZM1434.42 22.8438C1434.42 29.6224 1431.92 35.1146 1426.92 39.3203C1421.93 43.526 1415.27 45.6289 1406.96 45.6289C1398.65 45.6289 1391.99 43.526 1386.99 39.3203C1382 35.1146 1379.5 29.6224 1379.5 22.8438H1396.49C1396.49 25.8125 1397.41 28.138 1399.24 29.8203C1401.12 31.4531 1403.69 32.2695 1406.96 32.2695C1410.23 32.2695 1412.75 31.4779 1414.53 29.8945C1416.36 28.2617 1417.28 25.9115 1417.28 22.8438H1434.42ZM123.676 263.195C123.676 273.734 121.721 283.061 117.812 291.176C113.904 299.29 108.337 305.549 101.113 309.953C93.9388 314.307 85.75 316.484 76.5469 316.484C67.3438 316.484 59.1797 314.382 52.0547 310.176C44.9297 305.921 39.3633 299.859 35.3555 291.992C31.3971 284.125 29.319 275.095 29.1211 264.902V258.816C29.1211 248.228 31.0508 238.901 34.9102 230.836C38.819 222.721 44.3854 216.462 51.6094 212.059C58.8828 207.655 67.1458 205.453 76.3984 205.453C85.5521 205.453 93.7161 207.63 100.891 211.984C108.065 216.339 113.632 222.548 117.59 230.613C121.598 238.629 123.626 247.832 123.676 258.223V263.195ZM97.1797 258.668C97.1797 247.931 95.3737 239.792 91.7617 234.25C88.1992 228.659 83.0781 225.863 76.3984 225.863C63.3359 225.863 56.4336 235.66 55.6914 255.254L55.6172 263.195C55.6172 273.784 57.3737 281.923 60.8867 287.613C64.3997 293.303 69.6198 296.148 76.5469 296.148C83.1276 296.148 88.1992 293.353 91.7617 287.762C95.3242 282.171 97.1302 274.13 97.1797 263.641V258.668ZM224.679 227.051H192.245V315H166.194V227.051H134.354V206.938H224.679V227.051ZM339.857 341.57H316.478V315H257.623V341.496H233.502L231.646 294.961H239.291C243.299 292.289 246.515 287.712 248.939 281.23C251.413 274.699 253.17 265.348 254.209 253.176L257.549 206.938H331.099V294.961H342.603L339.857 341.57ZM268.756 294.961H305.123V227.051H282.115L280.111 254.066C278.627 271.582 274.842 285.214 268.756 294.961ZM427.723 269.207H386.755V294.961H435.145V315H360.704V206.938H435.294V227.051H386.755V249.836H427.723V269.207ZM545.796 206.938V315H519.746V227.051H495.476L493.695 263.344C492.953 275.862 491.221 285.857 488.5 293.328C485.778 300.799 481.894 306.267 476.847 309.73C471.85 313.145 465.022 314.901 456.363 315H449.386V294.961L453.023 294.59C458.218 293.848 461.979 290.681 464.304 285.09C466.63 279.449 468.139 269.974 468.832 256.664L470.687 206.938H545.796Z" stroke="white" stroke-width="4" mask="url(#path-1-outside-1)"/>
</g>
<g opacity="0.6" filter="url(#filter1_f)">
<mask id="path-2-outside-2" maskUnits="userSpaceOnUse" x="21.7773" y="21.8438" width="1432" height="321" fill="black">
<rect fill="white" x="21.7773" y="21.8438" width="1432" height="321"/>
<path d="M93.543 139.812H57.8438L51.6094 160H23.7773L63.4102 51.9375H87.9023L127.832 160H99.8516L93.543 139.812ZM64.0781 119.699H87.3086L75.6562 82.2188L64.0781 119.699ZM235.218 160H209.315V114.875H170.944V160H144.893V51.9375H170.944V94.8359H209.315V51.9375H235.218V160ZM323.603 139.812H287.904L281.67 160H253.838L293.47 51.9375H317.963L357.892 160H329.912L323.603 139.812ZM294.138 119.699H317.369L305.717 82.2188L294.138 119.699ZM467.208 51.9375V160H441.157V72.0508H416.887L415.106 108.344C414.364 120.862 412.632 130.857 409.911 138.328C407.189 145.799 403.305 151.267 398.258 154.73C393.261 158.145 386.433 159.901 377.774 160H370.797V139.961L374.434 139.59C379.63 138.848 383.39 135.681 385.715 130.09C388.041 124.449 389.55 114.974 390.243 101.664L392.098 51.9375H467.208ZM555.964 51.9375H582.015V160H555.964V91.8672L517.148 160H491.097V51.9375H517.148V120.145L555.964 51.9375ZM689.698 72.0508H657.264V160H631.213V72.0508H599.373V51.9375H689.698V72.0508ZM773.259 51.9375H799.31V160H773.259V91.8672L734.443 160H708.392V51.9375H734.443V120.145L773.259 51.9375ZM912.336 51.9375V160H886.36V120.07L878.715 121.035L869.141 121.629C854.594 121.629 843.461 118.487 835.742 112.203C828.024 105.87 824.115 96.9141 824.016 85.3359V51.9375H850.067V84.9648C850.067 90.8529 851.477 95.1081 854.297 97.7305C857.167 100.303 862.115 101.59 869.141 101.59L871.367 101.516C877.453 101.219 882.451 100.749 886.36 100.105V51.9375H912.336ZM1004.73 114.207H963.761V139.961H1012.15V160H937.71V51.9375H1012.3V72.0508H963.761V94.8359H1004.73V114.207ZM1119.31 123.41C1118.97 130.931 1116.94 137.586 1113.23 143.375C1109.52 149.115 1104.3 153.568 1097.57 156.734C1090.89 159.901 1083.24 161.484 1074.63 161.484C1060.43 161.484 1049.25 156.858 1041.09 147.605C1032.92 138.353 1028.84 125.29 1028.84 108.418V103.074C1028.84 92.4857 1030.67 83.2331 1034.33 75.3164C1038.04 67.3503 1043.36 61.2148 1050.29 56.9102C1057.22 52.556 1065.23 50.3789 1074.34 50.3789C1087.45 50.3789 1097.99 53.8424 1105.96 60.7695C1113.92 67.6471 1118.45 77.1471 1119.54 89.2695H1093.56C1093.36 82.6888 1091.71 77.9635 1088.59 75.0938C1085.47 72.224 1080.72 70.7891 1074.34 70.7891C1067.86 70.7891 1063.11 73.2135 1060.09 78.0625C1057.07 82.9115 1055.49 90.6549 1055.34 101.293V108.938C1055.34 120.466 1056.77 128.704 1059.64 133.652C1062.56 138.6 1067.56 141.074 1074.63 141.074C1080.62 141.074 1085.2 139.664 1088.37 136.844C1091.53 134.023 1093.21 129.546 1093.41 123.41H1119.31ZM1178.98 117.25H1166.66V160H1140.61V51.9375H1166.66V93.7227H1176.68L1197.46 51.9375H1229L1199.31 101.812L1232.71 160H1201.91L1178.98 117.25ZM1311.67 51.9375H1337.72V160H1311.67V91.8672L1272.86 160H1246.8V51.9375H1272.86V120.145L1311.67 51.9375ZM1426.18 51.9375H1452.23V160H1426.18V91.8672L1387.37 160H1361.31V51.9375H1387.37V120.145L1426.18 51.9375ZM1434.42 22.8438C1434.42 29.6224 1431.92 35.1146 1426.92 39.3203C1421.93 43.526 1415.27 45.6289 1406.96 45.6289C1398.65 45.6289 1391.99 43.526 1386.99 39.3203C1382 35.1146 1379.5 29.6224 1379.5 22.8438H1396.49C1396.49 25.8125 1397.41 28.138 1399.24 29.8203C1401.12 31.4531 1403.69 32.2695 1406.96 32.2695C1410.23 32.2695 1412.75 31.4779 1414.53 29.8945C1416.36 28.2617 1417.28 25.9115 1417.28 22.8438H1434.42ZM123.676 263.195C123.676 273.734 121.721 283.061 117.812 291.176C113.904 299.29 108.337 305.549 101.113 309.953C93.9388 314.307 85.75 316.484 76.5469 316.484C67.3438 316.484 59.1797 314.382 52.0547 310.176C44.9297 305.921 39.3633 299.859 35.3555 291.992C31.3971 284.125 29.319 275.095 29.1211 264.902V258.816C29.1211 248.228 31.0508 238.901 34.9102 230.836C38.819 222.721 44.3854 216.462 51.6094 212.059C58.8828 207.655 67.1458 205.453 76.3984 205.453C85.5521 205.453 93.7161 207.63 100.891 211.984C108.065 216.339 113.632 222.548 117.59 230.613C121.598 238.629 123.626 247.832 123.676 258.223V263.195ZM97.1797 258.668C97.1797 247.931 95.3737 239.792 91.7617 234.25C88.1992 228.659 83.0781 225.863 76.3984 225.863C63.3359 225.863 56.4336 235.66 55.6914 255.254L55.6172 263.195C55.6172 273.784 57.3737 281.923 60.8867 287.613C64.3997 293.303 69.6198 296.148 76.5469 296.148C83.1276 296.148 88.1992 293.353 91.7617 287.762C95.3242 282.171 97.1302 274.13 97.1797 263.641V258.668ZM224.679 227.051H192.245V315H166.194V227.051H134.354V206.938H224.679V227.051ZM339.857 341.57H316.478V315H257.623V341.496H233.502L231.646 294.961H239.291C243.299 292.289 246.515 287.712 248.939 281.23C251.413 274.699 253.17 265.348 254.209 253.176L257.549 206.938H331.099V294.961H342.603L339.857 341.57ZM268.756 294.961H305.123V227.051H282.115L280.111 254.066C278.627 271.582 274.842 285.214 268.756 294.961ZM427.723 269.207H386.755V294.961H435.145V315H360.704V206.938H435.294V227.051H386.755V249.836H427.723V269.207ZM545.796 206.938V315H519.746V227.051H495.476L493.695 263.344C492.953 275.862 491.221 285.857 488.5 293.328C485.778 300.799 481.894 306.267 476.847 309.73C471.85 313.145 465.022 314.901 456.363 315H449.386V294.961L453.023 294.59C458.218 293.848 461.979 290.681 464.304 285.09C466.63 279.449 468.139 269.974 468.832 256.664L470.687 206.938H545.796Z"/>
</mask>
<path d="M93.543 139.812H57.8438L51.6094 160H23.7773L63.4102 51.9375H87.9023L127.832 160H99.8516L93.543 139.812ZM64.0781 119.699H87.3086L75.6562 82.2188L64.0781 119.699ZM235.218 160H209.315V114.875H170.944V160H144.893V51.9375H170.944V94.8359H209.315V51.9375H235.218V160ZM323.603 139.812H287.904L281.67 160H253.838L293.47 51.9375H317.963L357.892 160H329.912L323.603 139.812ZM294.138 119.699H317.369L305.717 82.2188L294.138 119.699ZM467.208 51.9375V160H441.157V72.0508H416.887L415.106 108.344C414.364 120.862 412.632 130.857 409.911 138.328C407.189 145.799 403.305 151.267 398.258 154.73C393.261 158.145 386.433 159.901 377.774 160H370.797V139.961L374.434 139.59C379.63 138.848 383.39 135.681 385.715 130.09C388.041 124.449 389.55 114.974 390.243 101.664L392.098 51.9375H467.208ZM555.964 51.9375H582.015V160H555.964V91.8672L517.148 160H491.097V51.9375H517.148V120.145L555.964 51.9375ZM689.698 72.0508H657.264V160H631.213V72.0508H599.373V51.9375H689.698V72.0508ZM773.259 51.9375H799.31V160H773.259V91.8672L734.443 160H708.392V51.9375H734.443V120.145L773.259 51.9375ZM912.336 51.9375V160H886.36V120.07L878.715 121.035L869.141 121.629C854.594 121.629 843.461 118.487 835.742 112.203C828.024 105.87 824.115 96.9141 824.016 85.3359V51.9375H850.067V84.9648C850.067 90.8529 851.477 95.1081 854.297 97.7305C857.167 100.303 862.115 101.59 869.141 101.59L871.367 101.516C877.453 101.219 882.451 100.749 886.36 100.105V51.9375H912.336ZM1004.73 114.207H963.761V139.961H1012.15V160H937.71V51.9375H1012.3V72.0508H963.761V94.8359H1004.73V114.207ZM1119.31 123.41C1118.97 130.931 1116.94 137.586 1113.23 143.375C1109.52 149.115 1104.3 153.568 1097.57 156.734C1090.89 159.901 1083.24 161.484 1074.63 161.484C1060.43 161.484 1049.25 156.858 1041.09 147.605C1032.92 138.353 1028.84 125.29 1028.84 108.418V103.074C1028.84 92.4857 1030.67 83.2331 1034.33 75.3164C1038.04 67.3503 1043.36 61.2148 1050.29 56.9102C1057.22 52.556 1065.23 50.3789 1074.34 50.3789C1087.45 50.3789 1097.99 53.8424 1105.96 60.7695C1113.92 67.6471 1118.45 77.1471 1119.54 89.2695H1093.56C1093.36 82.6888 1091.71 77.9635 1088.59 75.0938C1085.47 72.224 1080.72 70.7891 1074.34 70.7891C1067.86 70.7891 1063.11 73.2135 1060.09 78.0625C1057.07 82.9115 1055.49 90.6549 1055.34 101.293V108.938C1055.34 120.466 1056.77 128.704 1059.64 133.652C1062.56 138.6 1067.56 141.074 1074.63 141.074C1080.62 141.074 1085.2 139.664 1088.37 136.844C1091.53 134.023 1093.21 129.546 1093.41 123.41H1119.31ZM1178.98 117.25H1166.66V160H1140.61V51.9375H1166.66V93.7227H1176.68L1197.46 51.9375H1229L1199.31 101.812L1232.71 160H1201.91L1178.98 117.25ZM1311.67 51.9375H1337.72V160H1311.67V91.8672L1272.86 160H1246.8V51.9375H1272.86V120.145L1311.67 51.9375ZM1426.18 51.9375H1452.23V160H1426.18V91.8672L1387.37 160H1361.31V51.9375H1387.37V120.145L1426.18 51.9375ZM1434.42 22.8438C1434.42 29.6224 1431.92 35.1146 1426.92 39.3203C1421.93 43.526 1415.27 45.6289 1406.96 45.6289C1398.65 45.6289 1391.99 43.526 1386.99 39.3203C1382 35.1146 1379.5 29.6224 1379.5 22.8438H1396.49C1396.49 25.8125 1397.41 28.138 1399.24 29.8203C1401.12 31.4531 1403.69 32.2695 1406.96 32.2695C1410.23 32.2695 1412.75 31.4779 1414.53 29.8945C1416.36 28.2617 1417.28 25.9115 1417.28 22.8438H1434.42ZM123.676 263.195C123.676 273.734 121.721 283.061 117.812 291.176C113.904 299.29 108.337 305.549 101.113 309.953C93.9388 314.307 85.75 316.484 76.5469 316.484C67.3438 316.484 59.1797 314.382 52.0547 310.176C44.9297 305.921 39.3633 299.859 35.3555 291.992C31.3971 284.125 29.319 275.095 29.1211 264.902V258.816C29.1211 248.228 31.0508 238.901 34.9102 230.836C38.819 222.721 44.3854 216.462 51.6094 212.059C58.8828 207.655 67.1458 205.453 76.3984 205.453C85.5521 205.453 93.7161 207.63 100.891 211.984C108.065 216.339 113.632 222.548 117.59 230.613C121.598 238.629 123.626 247.832 123.676 258.223V263.195ZM97.1797 258.668C97.1797 247.931 95.3737 239.792 91.7617 234.25C88.1992 228.659 83.0781 225.863 76.3984 225.863C63.3359 225.863 56.4336 235.66 55.6914 255.254L55.6172 263.195C55.6172 273.784 57.3737 281.923 60.8867 287.613C64.3997 293.303 69.6198 296.148 76.5469 296.148C83.1276 296.148 88.1992 293.353 91.7617 287.762C95.3242 282.171 97.1302 274.13 97.1797 263.641V258.668ZM224.679 227.051H192.245V315H166.194V227.051H134.354V206.938H224.679V227.051ZM339.857 341.57H316.478V315H257.623V341.496H233.502L231.646 294.961H239.291C243.299 292.289 246.515 287.712 248.939 281.23C251.413 274.699 253.17 265.348 254.209 253.176L257.549 206.938H331.099V294.961H342.603L339.857 341.57ZM268.756 294.961H305.123V227.051H282.115L280.111 254.066C278.627 271.582 274.842 285.214 268.756 294.961ZM427.723 269.207H386.755V294.961H435.145V315H360.704V206.938H435.294V227.051H386.755V249.836H427.723V269.207ZM545.796 206.938V315H519.746V227.051H495.476L493.695 263.344C492.953 275.862 491.221 285.857 488.5 293.328C485.778 300.799 481.894 306.267 476.847 309.73C471.85 313.145 465.022 314.901 456.363 315H449.386V294.961L453.023 294.59C458.218 293.848 461.979 290.681 464.304 285.09C466.63 279.449 468.139 269.974 468.832 256.664L470.687 206.938H545.796Z" stroke="white" stroke-width="2" mask="url(#path-2-outside-2)"/>
</g>
<defs>
<filter id="filter0_f" x="0.913574" y="0.84375" width="1473.32" height="362.727" filterUnits="userSpaceOnUse" color-interpolation-filters="sRGB">
<feFlood flood-opacity="0" result="BackgroundImageFix"/>
<feBlend mode="normal" in="SourceGraphic" in2="BackgroundImageFix" result="shape"/>
<feGaussianBlur stdDeviation="10" result="effect1_foregroundBlur"/>
</filter>
<filter id="filter1_f" x="19.3455" y="18.8438" width="1436.89" height="326.727" filterUnits="userSpaceOnUse" color-interpolation-filters="sRGB">
<feFlood flood-opacity="0" result="BackgroundImageFix"/>
<feBlend mode="normal" in="SourceGraphic" in2="BackgroundImageFix" result="shape"/>
<feGaussianBlur stdDeviation="1.5" result="effect1_foregroundBlur"/>
</filter>
</defs>
</svg>
