<svg width="1528" height="294" viewBox="0 0 1528 294" fill="none" xmlns="http://www.w3.org/2000/svg">
<g opacity="0.6" filter="url(#filter0_f)">
<mask id="path-1-outside-1" maskUnits="userSpaceOnUse" x="21.2028" y="21.0928" width="1485" height="252" fill="black">
<rect fill="white" x="21.2028" y="21.0928" width="1485" height="252"/>
<path d="M297.098 56.3262C297.098 62.5664 295.941 68.0889 293.627 72.8936C291.312 77.6982 288.016 81.4043 283.739 84.0117C279.491 86.5898 274.642 87.8789 269.193 87.8789C263.744 87.8789 258.91 86.6338 254.691 84.1436C250.472 81.624 247.176 78.0352 244.803 73.377C242.46 68.7188 241.229 63.3721 241.112 57.3369V53.7334C241.112 47.4639 242.255 41.9414 244.54 37.166C246.854 32.3613 250.15 28.6553 254.427 26.0479C258.734 23.4404 263.627 22.1367 269.105 22.1367C274.525 22.1367 279.359 23.4258 283.607 26.0039C287.855 28.582 291.151 32.2588 293.495 37.0342C295.868 41.7803 297.069 47.2295 297.098 53.3818V56.3262ZM281.41 53.6455C281.41 47.2881 280.34 42.4688 278.202 39.1875C276.092 35.877 273.06 34.2217 269.105 34.2217C261.371 34.2217 257.284 40.0225 256.844 51.624L256.8 56.3262C256.8 62.5957 257.84 67.415 259.921 70.7842C262.001 74.1533 265.091 75.8379 269.193 75.8379C273.089 75.8379 276.092 74.1826 278.202 70.8721C280.311 67.5615 281.38 62.8008 281.41 56.5898V53.6455ZM356.903 34.9248H337.698V87H322.274V34.9248H303.421V23.0156H356.903V34.9248ZM425.1 102.732H411.258V87H376.409V102.688H362.127L361.028 75.1348H365.555C367.928 73.5527 369.832 70.8428 371.267 67.0049C372.732 63.1377 373.772 57.6006 374.388 50.3936L376.365 23.0156H419.915V75.1348H426.726L425.1 102.732ZM383.001 75.1348H404.534V34.9248H390.911L389.724 50.9209C388.846 61.292 386.604 69.3633 383.001 75.1348ZM477.126 59.8857H452.869V75.1348H481.521V87H437.444V23.0156H481.609V34.9248H452.869V48.416H477.126V59.8857ZM547.038 23.0156V87H531.613V34.9248H517.243L516.189 56.4141C515.749 63.8262 514.724 69.7441 513.112 74.168C511.501 78.5918 509.201 81.8291 506.213 83.8799C503.254 85.9014 499.211 86.9414 494.084 87H489.953V75.1348L492.106 74.915C495.183 74.4756 497.409 72.6006 498.786 69.29C500.163 65.9502 501.057 60.3398 501.467 52.459L502.565 23.0156H547.038ZM627.404 23.0156H642.828V87H627.404V46.6582L604.42 87H588.995V23.0156H604.42V63.4014L627.404 23.0156ZM711.158 87H695.821V60.2812H673.101V87H657.677V23.0156H673.101V48.416H695.821V23.0156H711.158V87ZM778.125 65.335C777.92 69.7881 776.719 73.7285 774.522 77.1562C772.325 80.5547 769.234 83.1914 765.249 85.0664C761.294 86.9414 756.768 87.8789 751.67 87.8789C743.262 87.8789 736.641 85.1396 731.807 79.6611C726.973 74.1826 724.556 66.4482 724.556 56.458V53.2939C724.556 47.0244 725.64 41.5459 727.808 36.8584C730.005 32.1416 733.155 28.5088 737.256 25.96C741.358 23.3818 746.104 22.0928 751.495 22.0928C759.258 22.0928 765.498 24.1436 770.215 28.2451C774.932 32.3174 777.613 37.9424 778.257 45.1201H762.876C762.759 41.2236 761.778 38.4258 759.932 36.7266C758.086 35.0273 755.274 34.1777 751.495 34.1777C747.657 34.1777 744.844 35.6133 743.057 38.4844C741.27 41.3555 740.332 45.9404 740.245 52.2393V56.7656C740.245 63.5918 741.094 68.4697 742.793 71.3994C744.522 74.3291 747.481 75.7939 751.67 75.7939C755.215 75.7939 757.925 74.959 759.8 73.2891C761.675 71.6191 762.671 68.9678 762.789 65.335H778.125ZM844.565 87H829.141V34.9248H806.157V87H790.732V23.0156H844.565V87ZM899.272 59.8857H875.014V75.1348H903.667V87H859.589V23.0156H903.755V34.9248H875.014V48.416H899.272V59.8857ZM937.983 61.6875H930.688V87H915.263V23.0156H930.688V47.7568H936.62L948.925 23.0156H967.602L950.024 52.5469L969.799 87H951.562L937.983 61.6875ZM977.968 23.0156H993.305V75.1348H1016.29V23.0156H1031.76V75.2666H1041.56L1040.68 102.425H1026.13V87H977.968V23.0156ZM1091.39 23.0156H1106.81V87H1091.39V46.6582L1068.4 87H1052.98V23.0156H1068.4V63.4014L1091.39 23.0156ZM1175.84 56.3262C1175.84 62.5664 1174.69 68.0889 1172.37 72.8936C1170.06 77.6982 1166.76 81.4043 1162.48 84.0117C1158.24 86.5898 1153.39 87.8789 1147.94 87.8789C1142.49 87.8789 1137.65 86.6338 1133.44 84.1436C1129.22 81.624 1125.92 78.0352 1123.55 73.377C1121.2 68.7188 1119.97 63.3721 1119.86 57.3369V53.7334C1119.86 47.4639 1121 41.9414 1123.28 37.166C1125.6 32.3613 1128.89 28.6553 1133.17 26.0479C1137.48 23.4404 1142.37 22.1367 1147.85 22.1367C1153.27 22.1367 1158.1 23.4258 1162.35 26.0039C1166.6 28.582 1169.9 32.2588 1172.24 37.0342C1174.61 41.7803 1175.81 47.2295 1175.84 53.3818V56.3262ZM1160.15 53.6455C1160.15 47.2881 1159.08 42.4688 1156.95 39.1875C1154.84 35.877 1151.8 34.2217 1147.85 34.2217C1140.12 34.2217 1136.03 40.0225 1135.59 51.624L1135.54 56.3262C1135.54 62.5957 1136.58 67.415 1138.67 70.7842C1140.75 74.1533 1143.84 75.8379 1147.94 75.8379C1151.83 75.8379 1154.84 74.1826 1156.95 70.8721C1159.06 67.5615 1160.12 62.8008 1160.15 56.5898V53.6455ZM1242.68 87H1227.34V60.2812H1204.62V87H1189.2V23.0156H1204.62V48.416H1227.34V23.0156H1242.68V87ZM1311.36 87H1296.02V60.2812H1273.3V87H1257.88V23.0156H1273.3V48.416H1296.02V23.0156H1311.36V87ZM1380.74 56.3262C1380.74 62.5664 1379.59 68.0889 1377.27 72.8936C1374.96 77.6982 1371.66 81.4043 1367.38 84.0117C1363.14 86.5898 1358.29 87.8789 1352.84 87.8789C1347.39 87.8789 1342.56 86.6338 1338.34 84.1436C1334.12 81.624 1330.82 78.0352 1328.45 73.377C1326.11 68.7188 1324.87 63.3721 1324.76 57.3369V53.7334C1324.76 47.4639 1325.9 41.9414 1328.19 37.166C1330.5 32.3613 1333.8 28.6553 1338.07 26.0479C1342.38 23.4404 1347.27 22.1367 1352.75 22.1367C1358.17 22.1367 1363 23.4258 1367.25 26.0039C1371.5 28.582 1374.8 32.2588 1377.14 37.0342C1379.51 41.7803 1380.71 47.2295 1380.74 53.3818V56.3262ZM1365.06 53.6455C1365.06 47.2881 1363.99 42.4688 1361.85 39.1875C1359.74 35.877 1356.71 34.2217 1352.75 34.2217C1345.02 34.2217 1340.93 40.0225 1340.49 51.624L1340.45 56.3262C1340.45 62.5957 1341.49 67.415 1343.57 70.7842C1345.65 74.1533 1348.74 75.8379 1352.84 75.8379C1356.74 75.8379 1359.74 74.1826 1361.85 70.8721C1363.96 67.5615 1365.03 62.8008 1365.06 56.5898V53.6455ZM1437.25 34.9248H1409.43V87H1394.01V23.0156H1437.25V34.9248ZM1500.88 56.3262C1500.88 62.5664 1499.72 68.0889 1497.41 72.8936C1495.09 77.6982 1491.8 81.4043 1487.52 84.0117C1483.27 86.5898 1478.42 87.8789 1472.97 87.8789C1467.53 87.8789 1462.69 86.6338 1458.47 84.1436C1454.25 81.624 1450.96 78.0352 1448.58 73.377C1446.24 68.7188 1445.01 63.3721 1444.89 57.3369V53.7334C1444.89 47.4639 1446.04 41.9414 1448.32 37.166C1450.64 32.3613 1453.93 28.6553 1458.21 26.0479C1462.52 23.4404 1467.41 22.1367 1472.89 22.1367C1478.31 22.1367 1483.14 23.4258 1487.39 26.0039C1491.64 28.582 1494.93 32.2588 1497.28 37.0342C1499.65 41.7803 1500.85 47.2295 1500.88 53.3818V56.3262ZM1485.19 53.6455C1485.19 47.2881 1484.12 42.4688 1481.98 39.1875C1479.87 35.877 1476.84 34.2217 1472.89 34.2217C1465.15 34.2217 1461.07 40.0225 1460.63 51.624L1460.58 56.3262C1460.58 62.5957 1461.62 67.415 1463.7 70.7842C1465.78 74.1533 1468.87 75.8379 1472.97 75.8379C1476.87 75.8379 1479.87 74.1826 1481.98 70.8721C1484.09 67.5615 1485.16 62.8008 1485.19 56.5898V53.6455ZM44.9225 153.688H37.6276V179H22.2028V115.016H37.6276V139.757H43.5602L55.8649 115.016H74.5416L56.9635 144.547L76.7389 179H58.5016L44.9225 153.688ZM138.74 148.326C138.74 154.566 137.583 160.089 135.269 164.894C132.954 169.698 129.658 173.404 125.381 176.012C121.133 178.59 116.284 179.879 110.835 179.879C105.386 179.879 100.552 178.634 96.3332 176.144C92.1145 173.624 88.8186 170.035 86.4455 165.377C84.1018 160.719 82.8713 155.372 82.7541 149.337V145.733C82.7541 139.464 83.8967 133.941 86.1819 129.166C88.4963 124.361 91.7922 120.655 96.0696 118.048C100.376 115.44 105.269 114.137 110.747 114.137C116.167 114.137 121.001 115.426 125.249 118.004C129.497 120.582 132.793 124.259 135.137 129.034C137.51 133.78 138.711 139.229 138.74 145.382V148.326ZM123.052 145.646C123.052 139.288 121.983 134.469 119.844 131.188C117.735 127.877 114.702 126.222 110.747 126.222C103.013 126.222 98.926 132.022 98.4865 143.624L98.4426 148.326C98.4426 154.596 99.4826 159.415 101.563 162.784C103.643 166.153 106.734 167.838 110.835 167.838C114.732 167.838 117.735 166.183 119.844 162.872C121.953 159.562 123.023 154.801 123.052 148.59V145.646ZM205.576 179H190.239V152.281H167.519V179H152.095V115.016H167.519V140.416H190.239V115.016H205.576V179ZM269.687 126.925H250.483V179H235.058V126.925H216.205V115.016H269.687V126.925ZM297.06 157.291V179H281.635V115.016H307.167C312.06 115.016 316.381 115.924 320.131 117.74C323.91 119.527 326.825 122.091 328.876 125.431C330.956 128.741 331.996 132.506 331.996 136.725C331.996 142.965 329.755 147.96 325.272 151.71C320.819 155.431 314.696 157.291 306.903 157.291H297.06ZM297.06 145.382H307.167C310.155 145.382 312.426 144.635 313.979 143.141C315.561 141.646 316.352 139.537 316.352 136.812C316.352 133.824 315.546 131.437 313.935 129.649C312.323 127.862 310.126 126.954 307.343 126.925H297.06V145.382ZM399.842 148.326C399.842 154.566 398.685 160.089 396.371 164.894C394.056 169.698 390.76 173.404 386.483 176.012C382.235 178.59 377.386 179.879 371.937 179.879C366.488 179.879 361.654 178.634 357.435 176.144C353.216 173.624 349.921 170.035 347.547 165.377C345.204 160.719 343.973 155.372 343.856 149.337V145.733C343.856 139.464 344.999 133.941 347.284 129.166C349.598 124.361 352.894 120.655 357.172 118.048C361.478 115.44 366.371 114.137 371.849 114.137C377.269 114.137 382.103 115.426 386.351 118.004C390.599 120.582 393.895 124.259 396.239 129.034C398.612 133.78 399.813 139.229 399.842 145.382V148.326ZM384.154 145.646C384.154 139.288 383.085 134.469 380.946 131.188C378.837 127.877 375.804 126.222 371.849 126.222C364.115 126.222 360.028 132.022 359.589 143.624L359.545 148.326C359.545 154.596 360.585 159.415 362.665 162.784C364.745 166.153 367.836 167.838 371.937 167.838C375.834 167.838 378.837 166.183 380.946 162.872C383.055 159.562 384.125 154.801 384.154 148.59V145.646ZM465.623 115.016V179H450.198V126.925H435.828L434.774 148.414C434.334 155.826 433.309 161.744 431.697 166.168C430.086 170.592 427.786 173.829 424.798 175.88C421.839 177.901 417.796 178.941 412.669 179H408.538V167.135L410.692 166.915C413.768 166.476 415.994 164.601 417.371 161.29C418.748 157.95 419.642 152.34 420.052 144.459L421.151 115.016H465.623ZM508.201 179V156.544H499.324L488.513 179H471.77L484.91 151.314C479.197 147.594 476.341 142.13 476.341 134.923C476.341 128.595 478.421 123.702 482.581 120.245C486.741 116.759 492.732 115.016 500.555 115.016H523.67V179H508.201ZM491.721 136.285C491.721 139.537 492.381 141.896 493.699 143.36C495.017 144.825 497.229 145.558 500.335 145.558H508.201V126.925H500.423C497.346 126.925 495.12 127.73 493.743 129.342C492.395 130.924 491.721 133.238 491.721 136.285ZM602.893 115.016H618.317V179H602.893V138.658L579.909 179H564.484V115.016H579.909V155.401L602.893 115.016ZM683.61 153.688H676.315V179H660.89V115.016H676.315V139.757H682.247L694.552 115.016H713.229L695.651 144.547L715.426 179H697.189L683.61 153.688ZM777.428 148.326C777.428 154.566 776.27 160.089 773.956 164.894C771.641 169.698 768.346 173.404 764.068 176.012C759.82 178.59 754.971 179.879 749.522 179.879C744.073 179.879 739.239 178.634 735.02 176.144C730.802 173.624 727.506 170.035 725.133 165.377C722.789 160.719 721.558 155.372 721.441 149.337V145.733C721.441 139.464 722.584 133.941 724.869 129.166C727.183 124.361 730.479 120.655 734.757 118.048C739.063 115.44 743.956 114.137 749.434 114.137C754.854 114.137 759.688 115.426 763.936 118.004C768.184 120.582 771.48 124.259 773.824 129.034C776.197 133.78 777.398 139.229 777.428 145.382V148.326ZM761.739 145.646C761.739 139.288 760.67 134.469 758.531 131.188C756.422 127.877 753.389 126.222 749.434 126.222C741.7 126.222 737.613 132.022 737.174 143.624L737.13 148.326C737.13 154.596 738.17 159.415 740.25 162.784C742.33 166.153 745.421 167.838 749.522 167.838C753.419 167.838 756.422 166.183 758.531 162.872C760.64 159.562 761.71 154.801 761.739 148.59V145.646ZM806.206 157.291V179H790.782V115.016H816.314C821.206 115.016 825.528 115.924 829.278 117.74C833.057 119.527 835.972 122.091 838.023 125.431C840.103 128.741 841.143 132.506 841.143 136.725C841.143 142.965 838.902 147.96 834.419 151.71C829.966 155.431 823.843 157.291 816.05 157.291H806.206ZM806.206 145.382H816.314C819.302 145.382 821.573 144.635 823.125 143.141C824.707 141.646 825.498 139.537 825.498 136.812C825.498 133.824 824.693 131.437 823.081 129.649C821.47 127.862 819.273 126.954 816.49 126.925H806.206V145.382ZM870.229 157.291V179H854.805V115.016H880.337C885.229 115.016 889.551 115.924 893.301 117.74C897.08 119.527 899.995 122.091 902.046 125.431C904.126 128.741 905.166 132.506 905.166 136.725C905.166 142.965 902.925 147.96 898.442 151.71C893.989 155.431 887.866 157.291 880.073 157.291H870.229ZM870.229 145.382H880.337C883.325 145.382 885.596 144.635 887.148 143.141C888.73 141.646 889.521 139.537 889.521 136.812C889.521 133.824 888.716 131.437 887.104 129.649C885.493 127.862 883.296 126.954 880.513 126.925H870.229V145.382ZM973.012 148.326C973.012 154.566 971.855 160.089 969.541 164.894C967.226 169.698 963.93 173.404 959.653 176.012C955.405 178.59 950.556 179.879 945.107 179.879C939.658 179.879 934.824 178.634 930.605 176.144C926.386 173.624 923.09 170.035 920.717 165.377C918.374 160.719 917.143 155.372 917.026 149.337V145.733C917.026 139.464 918.169 133.941 920.454 129.166C922.768 124.361 926.064 120.655 930.341 118.048C934.648 115.44 939.541 114.137 945.019 114.137C950.439 114.137 955.273 115.426 959.521 118.004C963.769 120.582 967.065 124.259 969.409 129.034C971.782 133.78 972.983 139.229 973.012 145.382V148.326ZM957.324 145.646C957.324 139.288 956.255 134.469 954.116 131.188C952.006 127.877 948.974 126.222 945.019 126.222C937.285 126.222 933.198 132.022 932.758 143.624L932.714 148.326C932.714 154.596 933.755 159.415 935.835 162.784C937.915 166.153 941.005 167.838 945.107 167.838C949.004 167.838 952.006 166.183 954.116 162.872C956.225 159.562 957.295 154.801 957.324 148.59V145.646ZM1017.52 132.77C1017.52 130.748 1016.73 129.122 1015.15 127.892C1013.6 126.661 1011.49 126.046 1008.82 126.046C1006.33 126.046 1004.33 126.646 1002.8 127.848C1001.31 129.02 1000.56 130.572 1000.56 132.506H985.18C985.18 128.99 986.176 125.841 988.168 123.058C990.19 120.274 993.031 118.106 996.694 116.554C1000.36 114.972 1004.4 114.181 1008.82 114.181C1016.44 114.181 1022.36 115.777 1026.58 118.971C1030.82 122.164 1032.95 126.632 1032.95 132.374C1032.95 135.304 1032.08 137.984 1030.36 140.416C1028.66 142.818 1026.3 144.723 1023.28 146.129C1026.74 147.359 1029.37 149.234 1031.19 151.754C1033.04 154.244 1033.96 157.35 1033.96 161.07C1033.96 166.812 1031.67 171.383 1027.1 174.781C1022.53 178.15 1016.44 179.835 1008.82 179.835C1001.76 179.835 995.903 178.18 991.244 174.869C986.586 171.529 984.257 166.988 984.257 161.246H999.726C999.726 163.15 1000.58 164.762 1002.27 166.08C1003.97 167.369 1006.16 168.014 1008.82 168.014C1011.69 168.014 1014.02 167.34 1015.81 165.992C1017.6 164.645 1018.49 162.887 1018.49 160.719C1018.49 157.555 1017.73 155.328 1016.21 154.039C1014.68 152.721 1012.46 152.062 1009.53 152.062H1001.31V140.636H1010.05C1015.03 140.489 1017.52 137.867 1017.52 132.77ZM1085.99 115.016H1101.41V179H1085.99V138.658L1063 179H1047.58V115.016H1063V155.401L1085.99 115.016ZM1170.44 148.326C1170.44 154.566 1169.29 160.089 1166.97 164.894C1164.66 169.698 1161.36 173.404 1157.08 176.012C1152.84 178.59 1147.99 179.879 1142.54 179.879C1137.09 179.879 1132.25 178.634 1128.04 176.144C1123.82 173.624 1120.52 170.035 1118.15 165.377C1115.8 160.719 1114.57 155.372 1114.46 149.337V145.733C1114.46 139.464 1115.6 133.941 1117.88 129.166C1120.2 124.361 1123.49 120.655 1127.77 118.048C1132.08 115.44 1136.97 114.137 1142.45 114.137C1147.87 114.137 1152.7 115.426 1156.95 118.004C1161.2 120.582 1164.5 124.259 1166.84 129.034C1169.21 133.78 1170.41 139.229 1170.44 145.382V148.326ZM1154.75 145.646C1154.75 139.288 1153.68 134.469 1151.55 131.188C1149.44 127.877 1146.4 126.222 1142.45 126.222C1134.72 126.222 1130.63 132.022 1130.19 143.624L1130.14 148.326C1130.14 154.596 1131.18 159.415 1133.27 162.784C1135.35 166.153 1138.44 167.838 1142.54 167.838C1146.43 167.838 1149.44 166.183 1151.55 162.872C1153.66 159.562 1154.72 154.801 1154.75 148.59V145.646ZM1237.28 179H1221.94V152.281H1199.22V179H1183.8V115.016H1199.22V140.416H1221.94V115.016H1237.28V179ZM1305.96 179H1290.62V152.281H1267.9V179H1252.48V115.016H1267.9V140.416H1290.62V115.016H1305.96V179ZM1375.34 148.326C1375.34 154.566 1374.19 160.089 1371.87 164.894C1369.56 169.698 1366.26 173.404 1361.98 176.012C1357.74 178.59 1352.89 179.879 1347.44 179.879C1341.99 179.879 1337.16 178.634 1332.94 176.144C1328.72 173.624 1325.42 170.035 1323.05 165.377C1320.71 160.719 1319.47 155.372 1319.36 149.337V145.733C1319.36 139.464 1320.5 133.941 1322.79 129.166C1325.1 124.361 1328.4 120.655 1332.67 118.048C1336.98 115.44 1341.87 114.137 1347.35 114.137C1352.77 114.137 1357.6 115.426 1361.85 118.004C1366.1 120.582 1369.4 124.259 1371.74 129.034C1374.11 133.78 1375.31 139.229 1375.34 145.382V148.326ZM1359.66 145.646C1359.66 139.288 1358.59 134.469 1356.45 131.188C1354.34 127.877 1351.31 126.222 1347.35 126.222C1339.62 126.222 1335.53 132.022 1335.09 143.624L1335.05 148.326C1335.05 154.596 1336.09 159.415 1338.17 162.784C1340.25 166.153 1343.34 167.838 1347.44 167.838C1351.34 167.838 1354.34 166.183 1356.45 162.872C1358.56 159.562 1359.63 154.801 1359.66 148.59V145.646ZM1431.85 126.925H1404.04V179H1388.61V115.016H1431.85V126.925ZM1495.48 148.326C1495.48 154.566 1494.32 160.089 1492.01 164.894C1489.69 169.698 1486.4 173.404 1482.12 176.012C1477.87 178.59 1473.02 179.879 1467.57 179.879C1462.13 179.879 1457.29 178.634 1453.07 176.144C1448.85 173.624 1445.56 170.035 1443.18 165.377C1440.84 160.719 1439.61 155.372 1439.49 149.337V145.733C1439.49 139.464 1440.64 133.941 1442.92 129.166C1445.24 124.361 1448.53 120.655 1452.81 118.048C1457.12 115.44 1462.01 114.137 1467.49 114.137C1472.91 114.137 1477.74 115.426 1481.99 118.004C1486.24 120.582 1489.53 124.259 1491.88 129.034C1494.25 133.78 1495.45 139.229 1495.48 145.382V148.326ZM1479.79 145.646C1479.79 139.288 1478.72 134.469 1476.58 131.188C1474.47 127.877 1471.44 126.222 1467.49 126.222C1459.75 126.222 1455.67 132.022 1455.23 143.624L1455.18 148.326C1455.18 154.596 1456.22 159.415 1458.3 162.784C1460.38 166.153 1463.47 167.838 1467.57 167.838C1471.47 167.838 1474.47 166.183 1476.58 162.872C1478.69 159.562 1479.76 154.801 1479.79 148.59V145.646ZM805.19 207.016L819.473 251.532L833.711 207.016H854.014V271H838.545V256.059L840.039 225.473L824.57 271H814.375L798.862 225.429L800.356 256.059V271H784.932V207.016H805.19ZM923.442 240.326C923.442 246.566 922.285 252.089 919.97 256.894C917.656 261.698 914.36 265.404 910.083 268.012C905.835 270.59 900.986 271.879 895.537 271.879C890.088 271.879 885.254 270.634 881.035 268.144C876.816 265.624 873.52 262.035 871.147 257.377C868.803 252.719 867.573 247.372 867.456 241.337V237.733C867.456 231.464 868.598 225.941 870.883 221.166C873.198 216.361 876.494 212.655 880.771 210.048C885.078 207.44 889.97 206.137 895.449 206.137C900.869 206.137 905.703 207.426 909.951 210.004C914.199 212.582 917.495 216.259 919.839 221.034C922.212 225.78 923.413 231.229 923.442 237.382V240.326ZM907.754 237.646C907.754 231.288 906.684 226.469 904.546 223.188C902.436 219.877 899.404 218.222 895.449 218.222C887.714 218.222 883.628 224.022 883.188 235.624L883.144 240.326C883.144 246.596 884.184 251.415 886.264 254.784C888.344 258.153 891.435 259.838 895.537 259.838C899.433 259.838 902.436 258.183 904.546 254.872C906.655 251.562 907.724 246.801 907.754 240.59V237.646ZM990.278 271H974.941V244.281H952.221V271H936.796V207.016H952.221V232.416H974.941V207.016H990.278V271ZM1043.01 207.016H1058.43V271H1043.01V230.658L1020.02 271H1004.6V207.016H1020.02V247.401L1043.01 207.016ZM1122.19 218.925H1102.99V271H1087.56V218.925H1068.71V207.016H1122.19V218.925ZM1187.09 240.326C1187.09 246.566 1185.94 252.089 1183.62 256.894C1181.31 261.698 1178.01 265.404 1173.73 268.012C1169.49 270.59 1164.64 271.879 1159.19 271.879C1153.74 271.879 1148.9 270.634 1144.69 268.144C1140.47 265.624 1137.17 262.035 1134.8 257.377C1132.45 252.719 1131.22 247.372 1131.11 241.337V237.733C1131.11 231.464 1132.25 225.941 1134.53 221.166C1136.85 216.361 1140.14 212.655 1144.42 210.048C1148.73 207.44 1153.62 206.137 1159.1 206.137C1164.52 206.137 1169.35 207.426 1173.6 210.004C1177.85 212.582 1181.15 216.259 1183.49 221.034C1185.86 225.78 1187.06 231.229 1187.09 237.382V240.326ZM1171.4 237.646C1171.4 231.288 1170.33 226.469 1168.2 223.188C1166.09 219.877 1163.05 218.222 1159.1 218.222C1151.37 218.222 1147.28 224.022 1146.84 235.624L1146.79 240.326C1146.79 246.596 1147.83 251.415 1149.92 254.784C1152 258.153 1155.09 259.838 1159.19 259.838C1163.08 259.838 1166.09 258.183 1168.2 254.872C1170.31 251.562 1171.38 246.801 1171.4 240.59V237.646ZM1215.87 249.291V271H1200.45V207.016H1225.98C1230.87 207.016 1235.19 207.924 1238.94 209.74C1242.72 211.527 1245.64 214.091 1247.69 217.431C1249.77 220.741 1250.81 224.506 1250.81 228.725C1250.81 234.965 1248.57 239.96 1244.08 243.71C1239.63 247.431 1233.51 249.291 1225.72 249.291H1215.87ZM1215.87 237.382H1225.98C1228.97 237.382 1231.24 236.635 1232.79 235.141C1234.37 233.646 1235.16 231.537 1235.16 228.812C1235.16 225.824 1234.36 223.437 1232.75 221.649C1231.14 219.862 1228.94 218.954 1226.15 218.925H1215.87V237.382ZM1302 207.016H1317.42V271H1302V230.658L1279.02 271H1263.59V207.016H1279.02V247.401L1302 207.016ZM1385.75 271H1370.42V244.281H1347.7V271H1332.27V207.016H1347.7V232.416H1370.42V207.016H1385.75V271ZM1444.11 218.925H1416.29V271H1400.87V207.016H1444.11V218.925ZM1483.83 259.047H1462.69L1459 271H1442.52L1465.99 207.016H1480.49L1504.13 271H1487.56L1483.83 259.047ZM1466.38 247.138H1480.14L1473.24 224.945L1466.38 247.138Z"/>
</mask>
<path d="M297.098 56.3262C297.098 62.5664 295.941 68.0889 293.627 72.8936C291.312 77.6982 288.016 81.4043 283.739 84.0117C279.491 86.5898 274.642 87.8789 269.193 87.8789C263.744 87.8789 258.91 86.6338 254.691 84.1436C250.472 81.624 247.176 78.0352 244.803 73.377C242.46 68.7188 241.229 63.3721 241.112 57.3369V53.7334C241.112 47.4639 242.255 41.9414 244.54 37.166C246.854 32.3613 250.15 28.6553 254.427 26.0479C258.734 23.4404 263.627 22.1367 269.105 22.1367C274.525 22.1367 279.359 23.4258 283.607 26.0039C287.855 28.582 291.151 32.2588 293.495 37.0342C295.868 41.7803 297.069 47.2295 297.098 53.3818V56.3262ZM281.41 53.6455C281.41 47.2881 280.34 42.4688 278.202 39.1875C276.092 35.877 273.06 34.2217 269.105 34.2217C261.371 34.2217 257.284 40.0225 256.844 51.624L256.8 56.3262C256.8 62.5957 257.84 67.415 259.921 70.7842C262.001 74.1533 265.091 75.8379 269.193 75.8379C273.089 75.8379 276.092 74.1826 278.202 70.8721C280.311 67.5615 281.38 62.8008 281.41 56.5898V53.6455ZM356.903 34.9248H337.698V87H322.274V34.9248H303.421V23.0156H356.903V34.9248ZM425.1 102.732H411.258V87H376.409V102.688H362.127L361.028 75.1348H365.555C367.928 73.5527 369.832 70.8428 371.267 67.0049C372.732 63.1377 373.772 57.6006 374.388 50.3936L376.365 23.0156H419.915V75.1348H426.726L425.1 102.732ZM383.001 75.1348H404.534V34.9248H390.911L389.724 50.9209C388.846 61.292 386.604 69.3633 383.001 75.1348ZM477.126 59.8857H452.869V75.1348H481.521V87H437.444V23.0156H481.609V34.9248H452.869V48.416H477.126V59.8857ZM547.038 23.0156V87H531.613V34.9248H517.243L516.189 56.4141C515.749 63.8262 514.724 69.7441 513.112 74.168C511.501 78.5918 509.201 81.8291 506.213 83.8799C503.254 85.9014 499.211 86.9414 494.084 87H489.953V75.1348L492.106 74.915C495.183 74.4756 497.409 72.6006 498.786 69.29C500.163 65.9502 501.057 60.3398 501.467 52.459L502.565 23.0156H547.038ZM627.404 23.0156H642.828V87H627.404V46.6582L604.42 87H588.995V23.0156H604.42V63.4014L627.404 23.0156ZM711.158 87H695.821V60.2812H673.101V87H657.677V23.0156H673.101V48.416H695.821V23.0156H711.158V87ZM778.125 65.335C777.92 69.7881 776.719 73.7285 774.522 77.1562C772.325 80.5547 769.234 83.1914 765.249 85.0664C761.294 86.9414 756.768 87.8789 751.67 87.8789C743.262 87.8789 736.641 85.1396 731.807 79.6611C726.973 74.1826 724.556 66.4482 724.556 56.458V53.2939C724.556 47.0244 725.64 41.5459 727.808 36.8584C730.005 32.1416 733.155 28.5088 737.256 25.96C741.358 23.3818 746.104 22.0928 751.495 22.0928C759.258 22.0928 765.498 24.1436 770.215 28.2451C774.932 32.3174 777.613 37.9424 778.257 45.1201H762.876C762.759 41.2236 761.778 38.4258 759.932 36.7266C758.086 35.0273 755.274 34.1777 751.495 34.1777C747.657 34.1777 744.844 35.6133 743.057 38.4844C741.27 41.3555 740.332 45.9404 740.245 52.2393V56.7656C740.245 63.5918 741.094 68.4697 742.793 71.3994C744.522 74.3291 747.481 75.7939 751.67 75.7939C755.215 75.7939 757.925 74.959 759.8 73.2891C761.675 71.6191 762.671 68.9678 762.789 65.335H778.125ZM844.565 87H829.141V34.9248H806.157V87H790.732V23.0156H844.565V87ZM899.272 59.8857H875.014V75.1348H903.667V87H859.589V23.0156H903.755V34.9248H875.014V48.416H899.272V59.8857ZM937.983 61.6875H930.688V87H915.263V23.0156H930.688V47.7568H936.62L948.925 23.0156H967.602L950.024 52.5469L969.799 87H951.562L937.983 61.6875ZM977.968 23.0156H993.305V75.1348H1016.29V23.0156H1031.76V75.2666H1041.56L1040.68 102.425H1026.13V87H977.968V23.0156ZM1091.39 23.0156H1106.81V87H1091.39V46.6582L1068.4 87H1052.98V23.0156H1068.4V63.4014L1091.39 23.0156ZM1175.84 56.3262C1175.84 62.5664 1174.69 68.0889 1172.37 72.8936C1170.06 77.6982 1166.76 81.4043 1162.48 84.0117C1158.24 86.5898 1153.39 87.8789 1147.94 87.8789C1142.49 87.8789 1137.65 86.6338 1133.44 84.1436C1129.22 81.624 1125.92 78.0352 1123.55 73.377C1121.2 68.7188 1119.97 63.3721 1119.86 57.3369V53.7334C1119.86 47.4639 1121 41.9414 1123.28 37.166C1125.6 32.3613 1128.89 28.6553 1133.17 26.0479C1137.48 23.4404 1142.37 22.1367 1147.85 22.1367C1153.27 22.1367 1158.1 23.4258 1162.35 26.0039C1166.6 28.582 1169.9 32.2588 1172.24 37.0342C1174.61 41.7803 1175.81 47.2295 1175.84 53.3818V56.3262ZM1160.15 53.6455C1160.15 47.2881 1159.08 42.4688 1156.95 39.1875C1154.84 35.877 1151.8 34.2217 1147.85 34.2217C1140.12 34.2217 1136.03 40.0225 1135.59 51.624L1135.54 56.3262C1135.54 62.5957 1136.58 67.415 1138.67 70.7842C1140.75 74.1533 1143.84 75.8379 1147.94 75.8379C1151.83 75.8379 1154.84 74.1826 1156.95 70.8721C1159.06 67.5615 1160.12 62.8008 1160.15 56.5898V53.6455ZM1242.68 87H1227.34V60.2812H1204.62V87H1189.2V23.0156H1204.62V48.416H1227.34V23.0156H1242.68V87ZM1311.36 87H1296.02V60.2812H1273.3V87H1257.88V23.0156H1273.3V48.416H1296.02V23.0156H1311.36V87ZM1380.74 56.3262C1380.74 62.5664 1379.59 68.0889 1377.27 72.8936C1374.96 77.6982 1371.66 81.4043 1367.38 84.0117C1363.14 86.5898 1358.29 87.8789 1352.84 87.8789C1347.39 87.8789 1342.56 86.6338 1338.34 84.1436C1334.12 81.624 1330.82 78.0352 1328.45 73.377C1326.11 68.7188 1324.87 63.3721 1324.76 57.3369V53.7334C1324.76 47.4639 1325.9 41.9414 1328.19 37.166C1330.5 32.3613 1333.8 28.6553 1338.07 26.0479C1342.38 23.4404 1347.27 22.1367 1352.75 22.1367C1358.17 22.1367 1363 23.4258 1367.25 26.0039C1371.5 28.582 1374.8 32.2588 1377.14 37.0342C1379.51 41.7803 1380.71 47.2295 1380.74 53.3818V56.3262ZM1365.06 53.6455C1365.06 47.2881 1363.99 42.4688 1361.85 39.1875C1359.74 35.877 1356.71 34.2217 1352.75 34.2217C1345.02 34.2217 1340.93 40.0225 1340.49 51.624L1340.45 56.3262C1340.45 62.5957 1341.49 67.415 1343.57 70.7842C1345.65 74.1533 1348.74 75.8379 1352.84 75.8379C1356.74 75.8379 1359.74 74.1826 1361.85 70.8721C1363.96 67.5615 1365.03 62.8008 1365.06 56.5898V53.6455ZM1437.25 34.9248H1409.43V87H1394.01V23.0156H1437.25V34.9248ZM1500.88 56.3262C1500.88 62.5664 1499.72 68.0889 1497.41 72.8936C1495.09 77.6982 1491.8 81.4043 1487.52 84.0117C1483.27 86.5898 1478.42 87.8789 1472.97 87.8789C1467.53 87.8789 1462.69 86.6338 1458.47 84.1436C1454.25 81.624 1450.96 78.0352 1448.58 73.377C1446.24 68.7188 1445.01 63.3721 1444.89 57.3369V53.7334C1444.89 47.4639 1446.04 41.9414 1448.32 37.166C1450.64 32.3613 1453.93 28.6553 1458.21 26.0479C1462.52 23.4404 1467.41 22.1367 1472.89 22.1367C1478.31 22.1367 1483.14 23.4258 1487.39 26.0039C1491.64 28.582 1494.93 32.2588 1497.28 37.0342C1499.65 41.7803 1500.85 47.2295 1500.88 53.3818V56.3262ZM1485.19 53.6455C1485.19 47.2881 1484.12 42.4688 1481.98 39.1875C1479.87 35.877 1476.84 34.2217 1472.89 34.2217C1465.15 34.2217 1461.07 40.0225 1460.63 51.624L1460.58 56.3262C1460.58 62.5957 1461.62 67.415 1463.7 70.7842C1465.78 74.1533 1468.87 75.8379 1472.97 75.8379C1476.87 75.8379 1479.87 74.1826 1481.98 70.8721C1484.09 67.5615 1485.16 62.8008 1485.19 56.5898V53.6455ZM44.9225 153.688H37.6276V179H22.2028V115.016H37.6276V139.757H43.5602L55.8649 115.016H74.5416L56.9635 144.547L76.7389 179H58.5016L44.9225 153.688ZM138.74 148.326C138.74 154.566 137.583 160.089 135.269 164.894C132.954 169.698 129.658 173.404 125.381 176.012C121.133 178.59 116.284 179.879 110.835 179.879C105.386 179.879 100.552 178.634 96.3332 176.144C92.1145 173.624 88.8186 170.035 86.4455 165.377C84.1018 160.719 82.8713 155.372 82.7541 149.337V145.733C82.7541 139.464 83.8967 133.941 86.1819 129.166C88.4963 124.361 91.7922 120.655 96.0696 118.048C100.376 115.44 105.269 114.137 110.747 114.137C116.167 114.137 121.001 115.426 125.249 118.004C129.497 120.582 132.793 124.259 135.137 129.034C137.51 133.78 138.711 139.229 138.74 145.382V148.326ZM123.052 145.646C123.052 139.288 121.983 134.469 119.844 131.188C117.735 127.877 114.702 126.222 110.747 126.222C103.013 126.222 98.926 132.022 98.4865 143.624L98.4426 148.326C98.4426 154.596 99.4826 159.415 101.563 162.784C103.643 166.153 106.734 167.838 110.835 167.838C114.732 167.838 117.735 166.183 119.844 162.872C121.953 159.562 123.023 154.801 123.052 148.59V145.646ZM205.576 179H190.239V152.281H167.519V179H152.095V115.016H167.519V140.416H190.239V115.016H205.576V179ZM269.687 126.925H250.483V179H235.058V126.925H216.205V115.016H269.687V126.925ZM297.06 157.291V179H281.635V115.016H307.167C312.06 115.016 316.381 115.924 320.131 117.74C323.91 119.527 326.825 122.091 328.876 125.431C330.956 128.741 331.996 132.506 331.996 136.725C331.996 142.965 329.755 147.96 325.272 151.71C320.819 155.431 314.696 157.291 306.903 157.291H297.06ZM297.06 145.382H307.167C310.155 145.382 312.426 144.635 313.979 143.141C315.561 141.646 316.352 139.537 316.352 136.812C316.352 133.824 315.546 131.437 313.935 129.649C312.323 127.862 310.126 126.954 307.343 126.925H297.06V145.382ZM399.842 148.326C399.842 154.566 398.685 160.089 396.371 164.894C394.056 169.698 390.76 173.404 386.483 176.012C382.235 178.59 377.386 179.879 371.937 179.879C366.488 179.879 361.654 178.634 357.435 176.144C353.216 173.624 349.921 170.035 347.547 165.377C345.204 160.719 343.973 155.372 343.856 149.337V145.733C343.856 139.464 344.999 133.941 347.284 129.166C349.598 124.361 352.894 120.655 357.172 118.048C361.478 115.44 366.371 114.137 371.849 114.137C377.269 114.137 382.103 115.426 386.351 118.004C390.599 120.582 393.895 124.259 396.239 129.034C398.612 133.78 399.813 139.229 399.842 145.382V148.326ZM384.154 145.646C384.154 139.288 383.085 134.469 380.946 131.188C378.837 127.877 375.804 126.222 371.849 126.222C364.115 126.222 360.028 132.022 359.589 143.624L359.545 148.326C359.545 154.596 360.585 159.415 362.665 162.784C364.745 166.153 367.836 167.838 371.937 167.838C375.834 167.838 378.837 166.183 380.946 162.872C383.055 159.562 384.125 154.801 384.154 148.59V145.646ZM465.623 115.016V179H450.198V126.925H435.828L434.774 148.414C434.334 155.826 433.309 161.744 431.697 166.168C430.086 170.592 427.786 173.829 424.798 175.88C421.839 177.901 417.796 178.941 412.669 179H408.538V167.135L410.692 166.915C413.768 166.476 415.994 164.601 417.371 161.29C418.748 157.95 419.642 152.34 420.052 144.459L421.151 115.016H465.623ZM508.201 179V156.544H499.324L488.513 179H471.77L484.91 151.314C479.197 147.594 476.341 142.13 476.341 134.923C476.341 128.595 478.421 123.702 482.581 120.245C486.741 116.759 492.732 115.016 500.555 115.016H523.67V179H508.201ZM491.721 136.285C491.721 139.537 492.381 141.896 493.699 143.36C495.017 144.825 497.229 145.558 500.335 145.558H508.201V126.925H500.423C497.346 126.925 495.12 127.73 493.743 129.342C492.395 130.924 491.721 133.238 491.721 136.285ZM602.893 115.016H618.317V179H602.893V138.658L579.909 179H564.484V115.016H579.909V155.401L602.893 115.016ZM683.61 153.688H676.315V179H660.89V115.016H676.315V139.757H682.247L694.552 115.016H713.229L695.651 144.547L715.426 179H697.189L683.61 153.688ZM777.428 148.326C777.428 154.566 776.27 160.089 773.956 164.894C771.641 169.698 768.346 173.404 764.068 176.012C759.82 178.59 754.971 179.879 749.522 179.879C744.073 179.879 739.239 178.634 735.02 176.144C730.802 173.624 727.506 170.035 725.133 165.377C722.789 160.719 721.558 155.372 721.441 149.337V145.733C721.441 139.464 722.584 133.941 724.869 129.166C727.183 124.361 730.479 120.655 734.757 118.048C739.063 115.44 743.956 114.137 749.434 114.137C754.854 114.137 759.688 115.426 763.936 118.004C768.184 120.582 771.48 124.259 773.824 129.034C776.197 133.78 777.398 139.229 777.428 145.382V148.326ZM761.739 145.646C761.739 139.288 760.67 134.469 758.531 131.188C756.422 127.877 753.389 126.222 749.434 126.222C741.7 126.222 737.613 132.022 737.174 143.624L737.13 148.326C737.13 154.596 738.17 159.415 740.25 162.784C742.33 166.153 745.421 167.838 749.522 167.838C753.419 167.838 756.422 166.183 758.531 162.872C760.64 159.562 761.71 154.801 761.739 148.59V145.646ZM806.206 157.291V179H790.782V115.016H816.314C821.206 115.016 825.528 115.924 829.278 117.74C833.057 119.527 835.972 122.091 838.023 125.431C840.103 128.741 841.143 132.506 841.143 136.725C841.143 142.965 838.902 147.96 834.419 151.71C829.966 155.431 823.843 157.291 816.05 157.291H806.206ZM806.206 145.382H816.314C819.302 145.382 821.573 144.635 823.125 143.141C824.707 141.646 825.498 139.537 825.498 136.812C825.498 133.824 824.693 131.437 823.081 129.649C821.47 127.862 819.273 126.954 816.49 126.925H806.206V145.382ZM870.229 157.291V179H854.805V115.016H880.337C885.229 115.016 889.551 115.924 893.301 117.74C897.08 119.527 899.995 122.091 902.046 125.431C904.126 128.741 905.166 132.506 905.166 136.725C905.166 142.965 902.925 147.96 898.442 151.71C893.989 155.431 887.866 157.291 880.073 157.291H870.229ZM870.229 145.382H880.337C883.325 145.382 885.596 144.635 887.148 143.141C888.73 141.646 889.521 139.537 889.521 136.812C889.521 133.824 888.716 131.437 887.104 129.649C885.493 127.862 883.296 126.954 880.513 126.925H870.229V145.382ZM973.012 148.326C973.012 154.566 971.855 160.089 969.541 164.894C967.226 169.698 963.93 173.404 959.653 176.012C955.405 178.59 950.556 179.879 945.107 179.879C939.658 179.879 934.824 178.634 930.605 176.144C926.386 173.624 923.09 170.035 920.717 165.377C918.374 160.719 917.143 155.372 917.026 149.337V145.733C917.026 139.464 918.169 133.941 920.454 129.166C922.768 124.361 926.064 120.655 930.341 118.048C934.648 115.44 939.541 114.137 945.019 114.137C950.439 114.137 955.273 115.426 959.521 118.004C963.769 120.582 967.065 124.259 969.409 129.034C971.782 133.78 972.983 139.229 973.012 145.382V148.326ZM957.324 145.646C957.324 139.288 956.255 134.469 954.116 131.188C952.006 127.877 948.974 126.222 945.019 126.222C937.285 126.222 933.198 132.022 932.758 143.624L932.714 148.326C932.714 154.596 933.755 159.415 935.835 162.784C937.915 166.153 941.005 167.838 945.107 167.838C949.004 167.838 952.006 166.183 954.116 162.872C956.225 159.562 957.295 154.801 957.324 148.59V145.646ZM1017.52 132.77C1017.52 130.748 1016.73 129.122 1015.15 127.892C1013.6 126.661 1011.49 126.046 1008.82 126.046C1006.33 126.046 1004.33 126.646 1002.8 127.848C1001.31 129.02 1000.56 130.572 1000.56 132.506H985.18C985.18 128.99 986.176 125.841 988.168 123.058C990.19 120.274 993.031 118.106 996.694 116.554C1000.36 114.972 1004.4 114.181 1008.82 114.181C1016.44 114.181 1022.36 115.777 1026.58 118.971C1030.82 122.164 1032.95 126.632 1032.95 132.374C1032.95 135.304 1032.08 137.984 1030.36 140.416C1028.66 142.818 1026.3 144.723 1023.28 146.129C1026.74 147.359 1029.37 149.234 1031.19 151.754C1033.04 154.244 1033.96 157.35 1033.96 161.07C1033.96 166.812 1031.67 171.383 1027.1 174.781C1022.53 178.15 1016.44 179.835 1008.82 179.835C1001.76 179.835 995.903 178.18 991.244 174.869C986.586 171.529 984.257 166.988 984.257 161.246H999.726C999.726 163.15 1000.58 164.762 1002.27 166.08C1003.97 167.369 1006.16 168.014 1008.82 168.014C1011.69 168.014 1014.02 167.34 1015.81 165.992C1017.6 164.645 1018.49 162.887 1018.49 160.719C1018.49 157.555 1017.73 155.328 1016.21 154.039C1014.68 152.721 1012.46 152.062 1009.53 152.062H1001.31V140.636H1010.05C1015.03 140.489 1017.52 137.867 1017.52 132.77ZM1085.99 115.016H1101.41V179H1085.99V138.658L1063 179H1047.58V115.016H1063V155.401L1085.99 115.016ZM1170.44 148.326C1170.44 154.566 1169.29 160.089 1166.97 164.894C1164.66 169.698 1161.36 173.404 1157.08 176.012C1152.84 178.59 1147.99 179.879 1142.54 179.879C1137.09 179.879 1132.25 178.634 1128.04 176.144C1123.82 173.624 1120.52 170.035 1118.15 165.377C1115.8 160.719 1114.57 155.372 1114.46 149.337V145.733C1114.46 139.464 1115.6 133.941 1117.88 129.166C1120.2 124.361 1123.49 120.655 1127.77 118.048C1132.08 115.44 1136.97 114.137 1142.45 114.137C1147.87 114.137 1152.7 115.426 1156.95 118.004C1161.2 120.582 1164.5 124.259 1166.84 129.034C1169.21 133.78 1170.41 139.229 1170.44 145.382V148.326ZM1154.75 145.646C1154.75 139.288 1153.68 134.469 1151.55 131.188C1149.44 127.877 1146.4 126.222 1142.45 126.222C1134.72 126.222 1130.63 132.022 1130.19 143.624L1130.14 148.326C1130.14 154.596 1131.18 159.415 1133.27 162.784C1135.35 166.153 1138.44 167.838 1142.54 167.838C1146.43 167.838 1149.44 166.183 1151.55 162.872C1153.66 159.562 1154.72 154.801 1154.75 148.59V145.646ZM1237.28 179H1221.94V152.281H1199.22V179H1183.8V115.016H1199.22V140.416H1221.94V115.016H1237.28V179ZM1305.96 179H1290.62V152.281H1267.9V179H1252.48V115.016H1267.9V140.416H1290.62V115.016H1305.96V179ZM1375.34 148.326C1375.34 154.566 1374.19 160.089 1371.87 164.894C1369.56 169.698 1366.26 173.404 1361.98 176.012C1357.74 178.59 1352.89 179.879 1347.44 179.879C1341.99 179.879 1337.16 178.634 1332.94 176.144C1328.72 173.624 1325.42 170.035 1323.05 165.377C1320.71 160.719 1319.47 155.372 1319.36 149.337V145.733C1319.36 139.464 1320.5 133.941 1322.79 129.166C1325.1 124.361 1328.4 120.655 1332.67 118.048C1336.98 115.44 1341.87 114.137 1347.35 114.137C1352.77 114.137 1357.6 115.426 1361.85 118.004C1366.1 120.582 1369.4 124.259 1371.74 129.034C1374.11 133.78 1375.31 139.229 1375.34 145.382V148.326ZM1359.66 145.646C1359.66 139.288 1358.59 134.469 1356.45 131.188C1354.34 127.877 1351.31 126.222 1347.35 126.222C1339.62 126.222 1335.53 132.022 1335.09 143.624L1335.05 148.326C1335.05 154.596 1336.09 159.415 1338.17 162.784C1340.25 166.153 1343.34 167.838 1347.44 167.838C1351.34 167.838 1354.34 166.183 1356.45 162.872C1358.56 159.562 1359.63 154.801 1359.66 148.59V145.646ZM1431.85 126.925H1404.04V179H1388.61V115.016H1431.85V126.925ZM1495.48 148.326C1495.48 154.566 1494.32 160.089 1492.01 164.894C1489.69 169.698 1486.4 173.404 1482.12 176.012C1477.87 178.59 1473.02 179.879 1467.57 179.879C1462.13 179.879 1457.29 178.634 1453.07 176.144C1448.85 173.624 1445.56 170.035 1443.18 165.377C1440.84 160.719 1439.61 155.372 1439.49 149.337V145.733C1439.49 139.464 1440.64 133.941 1442.92 129.166C1445.24 124.361 1448.53 120.655 1452.81 118.048C1457.12 115.44 1462.01 114.137 1467.49 114.137C1472.91 114.137 1477.74 115.426 1481.99 118.004C1486.24 120.582 1489.53 124.259 1491.88 129.034C1494.25 133.78 1495.45 139.229 1495.48 145.382V148.326ZM1479.79 145.646C1479.79 139.288 1478.72 134.469 1476.58 131.188C1474.47 127.877 1471.44 126.222 1467.49 126.222C1459.75 126.222 1455.67 132.022 1455.23 143.624L1455.18 148.326C1455.18 154.596 1456.22 159.415 1458.3 162.784C1460.38 166.153 1463.47 167.838 1467.57 167.838C1471.47 167.838 1474.47 166.183 1476.58 162.872C1478.69 159.562 1479.76 154.801 1479.79 148.59V145.646ZM805.19 207.016L819.473 251.532L833.711 207.016H854.014V271H838.545V256.059L840.039 225.473L824.57 271H814.375L798.862 225.429L800.356 256.059V271H784.932V207.016H805.19ZM923.442 240.326C923.442 246.566 922.285 252.089 919.97 256.894C917.656 261.698 914.36 265.404 910.083 268.012C905.835 270.59 900.986 271.879 895.537 271.879C890.088 271.879 885.254 270.634 881.035 268.144C876.816 265.624 873.52 262.035 871.147 257.377C868.803 252.719 867.573 247.372 867.456 241.337V237.733C867.456 231.464 868.598 225.941 870.883 221.166C873.198 216.361 876.494 212.655 880.771 210.048C885.078 207.44 889.97 206.137 895.449 206.137C900.869 206.137 905.703 207.426 909.951 210.004C914.199 212.582 917.495 216.259 919.839 221.034C922.212 225.78 923.413 231.229 923.442 237.382V240.326ZM907.754 237.646C907.754 231.288 906.684 226.469 904.546 223.188C902.436 219.877 899.404 218.222 895.449 218.222C887.714 218.222 883.628 224.022 883.188 235.624L883.144 240.326C883.144 246.596 884.184 251.415 886.264 254.784C888.344 258.153 891.435 259.838 895.537 259.838C899.433 259.838 902.436 258.183 904.546 254.872C906.655 251.562 907.724 246.801 907.754 240.59V237.646ZM990.278 271H974.941V244.281H952.221V271H936.796V207.016H952.221V232.416H974.941V207.016H990.278V271ZM1043.01 207.016H1058.43V271H1043.01V230.658L1020.02 271H1004.6V207.016H1020.02V247.401L1043.01 207.016ZM1122.19 218.925H1102.99V271H1087.56V218.925H1068.71V207.016H1122.19V218.925ZM1187.09 240.326C1187.09 246.566 1185.94 252.089 1183.62 256.894C1181.31 261.698 1178.01 265.404 1173.73 268.012C1169.49 270.59 1164.64 271.879 1159.19 271.879C1153.74 271.879 1148.9 270.634 1144.69 268.144C1140.47 265.624 1137.17 262.035 1134.8 257.377C1132.45 252.719 1131.22 247.372 1131.11 241.337V237.733C1131.11 231.464 1132.25 225.941 1134.53 221.166C1136.85 216.361 1140.14 212.655 1144.42 210.048C1148.73 207.44 1153.62 206.137 1159.1 206.137C1164.52 206.137 1169.35 207.426 1173.6 210.004C1177.85 212.582 1181.15 216.259 1183.49 221.034C1185.86 225.78 1187.06 231.229 1187.09 237.382V240.326ZM1171.4 237.646C1171.4 231.288 1170.33 226.469 1168.2 223.188C1166.09 219.877 1163.05 218.222 1159.1 218.222C1151.37 218.222 1147.28 224.022 1146.84 235.624L1146.79 240.326C1146.79 246.596 1147.83 251.415 1149.92 254.784C1152 258.153 1155.09 259.838 1159.19 259.838C1163.08 259.838 1166.09 258.183 1168.2 254.872C1170.31 251.562 1171.38 246.801 1171.4 240.59V237.646ZM1215.87 249.291V271H1200.45V207.016H1225.98C1230.87 207.016 1235.19 207.924 1238.94 209.74C1242.72 211.527 1245.64 214.091 1247.69 217.431C1249.77 220.741 1250.81 224.506 1250.81 228.725C1250.81 234.965 1248.57 239.96 1244.08 243.71C1239.63 247.431 1233.51 249.291 1225.72 249.291H1215.87ZM1215.87 237.382H1225.98C1228.97 237.382 1231.24 236.635 1232.79 235.141C1234.37 233.646 1235.16 231.537 1235.16 228.812C1235.16 225.824 1234.36 223.437 1232.75 221.649C1231.14 219.862 1228.94 218.954 1226.15 218.925H1215.87V237.382ZM1302 207.016H1317.42V271H1302V230.658L1279.02 271H1263.59V207.016H1279.02V247.401L1302 207.016ZM1385.75 271H1370.42V244.281H1347.7V271H1332.27V207.016H1347.7V232.416H1370.42V207.016H1385.75V271ZM1444.11 218.925H1416.29V271H1400.87V207.016H1444.11V218.925ZM1483.83 259.047H1462.69L1459 271H1442.52L1465.99 207.016H1480.49L1504.13 271H1487.56L1483.83 259.047ZM1466.38 247.138H1480.14L1473.24 224.945L1466.38 247.138Z" stroke="white" stroke-width="2" mask="url(#path-1-outside-1)"/>
</g>
<g opacity="0.2" filter="url(#filter1_f)">
<mask id="path-2-outside-2" maskUnits="userSpaceOnUse" x="20.2028" y="20.0928" width="1487" height="254" fill="black">
<rect fill="white" x="20.2028" y="20.0928" width="1487" height="254"/>
<path d="M297.098 56.3262C297.098 62.5664 295.941 68.0889 293.627 72.8936C291.312 77.6982 288.016 81.4043 283.739 84.0117C279.491 86.5898 274.642 87.8789 269.193 87.8789C263.744 87.8789 258.91 86.6338 254.691 84.1436C250.472 81.624 247.176 78.0352 244.803 73.377C242.46 68.7188 241.229 63.3721 241.112 57.3369V53.7334C241.112 47.4639 242.255 41.9414 244.54 37.166C246.854 32.3613 250.15 28.6553 254.427 26.0479C258.734 23.4404 263.627 22.1367 269.105 22.1367C274.525 22.1367 279.359 23.4258 283.607 26.0039C287.855 28.582 291.151 32.2588 293.495 37.0342C295.868 41.7803 297.069 47.2295 297.098 53.3818V56.3262ZM281.41 53.6455C281.41 47.2881 280.34 42.4688 278.202 39.1875C276.092 35.877 273.06 34.2217 269.105 34.2217C261.371 34.2217 257.284 40.0225 256.844 51.624L256.8 56.3262C256.8 62.5957 257.84 67.415 259.921 70.7842C262.001 74.1533 265.091 75.8379 269.193 75.8379C273.089 75.8379 276.092 74.1826 278.202 70.8721C280.311 67.5615 281.38 62.8008 281.41 56.5898V53.6455ZM356.903 34.9248H337.698V87H322.274V34.9248H303.421V23.0156H356.903V34.9248ZM425.1 102.732H411.258V87H376.409V102.688H362.127L361.028 75.1348H365.555C367.928 73.5527 369.832 70.8428 371.267 67.0049C372.732 63.1377 373.772 57.6006 374.388 50.3936L376.365 23.0156H419.915V75.1348H426.726L425.1 102.732ZM383.001 75.1348H404.534V34.9248H390.911L389.724 50.9209C388.846 61.292 386.604 69.3633 383.001 75.1348ZM477.126 59.8857H452.869V75.1348H481.521V87H437.444V23.0156H481.609V34.9248H452.869V48.416H477.126V59.8857ZM547.038 23.0156V87H531.613V34.9248H517.243L516.189 56.4141C515.749 63.8262 514.724 69.7441 513.112 74.168C511.501 78.5918 509.201 81.8291 506.213 83.8799C503.254 85.9014 499.211 86.9414 494.084 87H489.953V75.1348L492.106 74.915C495.183 74.4756 497.409 72.6006 498.786 69.29C500.163 65.9502 501.057 60.3398 501.467 52.459L502.565 23.0156H547.038ZM627.404 23.0156H642.828V87H627.404V46.6582L604.42 87H588.995V23.0156H604.42V63.4014L627.404 23.0156ZM711.158 87H695.821V60.2812H673.101V87H657.677V23.0156H673.101V48.416H695.821V23.0156H711.158V87ZM778.125 65.335C777.92 69.7881 776.719 73.7285 774.522 77.1562C772.325 80.5547 769.234 83.1914 765.249 85.0664C761.294 86.9414 756.768 87.8789 751.67 87.8789C743.262 87.8789 736.641 85.1396 731.807 79.6611C726.973 74.1826 724.556 66.4482 724.556 56.458V53.2939C724.556 47.0244 725.64 41.5459 727.808 36.8584C730.005 32.1416 733.155 28.5088 737.256 25.96C741.358 23.3818 746.104 22.0928 751.495 22.0928C759.258 22.0928 765.498 24.1436 770.215 28.2451C774.932 32.3174 777.613 37.9424 778.257 45.1201H762.876C762.759 41.2236 761.778 38.4258 759.932 36.7266C758.086 35.0273 755.274 34.1777 751.495 34.1777C747.657 34.1777 744.844 35.6133 743.057 38.4844C741.27 41.3555 740.332 45.9404 740.245 52.2393V56.7656C740.245 63.5918 741.094 68.4697 742.793 71.3994C744.522 74.3291 747.481 75.7939 751.67 75.7939C755.215 75.7939 757.925 74.959 759.8 73.2891C761.675 71.6191 762.671 68.9678 762.789 65.335H778.125ZM844.565 87H829.141V34.9248H806.157V87H790.732V23.0156H844.565V87ZM899.272 59.8857H875.014V75.1348H903.667V87H859.589V23.0156H903.755V34.9248H875.014V48.416H899.272V59.8857ZM937.983 61.6875H930.688V87H915.263V23.0156H930.688V47.7568H936.62L948.925 23.0156H967.602L950.024 52.5469L969.799 87H951.562L937.983 61.6875ZM977.968 23.0156H993.305V75.1348H1016.29V23.0156H1031.76V75.2666H1041.56L1040.68 102.425H1026.13V87H977.968V23.0156ZM1091.39 23.0156H1106.81V87H1091.39V46.6582L1068.4 87H1052.98V23.0156H1068.4V63.4014L1091.39 23.0156ZM1175.84 56.3262C1175.84 62.5664 1174.69 68.0889 1172.37 72.8936C1170.06 77.6982 1166.76 81.4043 1162.48 84.0117C1158.24 86.5898 1153.39 87.8789 1147.94 87.8789C1142.49 87.8789 1137.65 86.6338 1133.44 84.1436C1129.22 81.624 1125.92 78.0352 1123.55 73.377C1121.2 68.7188 1119.97 63.3721 1119.86 57.3369V53.7334C1119.86 47.4639 1121 41.9414 1123.28 37.166C1125.6 32.3613 1128.89 28.6553 1133.17 26.0479C1137.48 23.4404 1142.37 22.1367 1147.85 22.1367C1153.27 22.1367 1158.1 23.4258 1162.35 26.0039C1166.6 28.582 1169.9 32.2588 1172.24 37.0342C1174.61 41.7803 1175.81 47.2295 1175.84 53.3818V56.3262ZM1160.15 53.6455C1160.15 47.2881 1159.08 42.4688 1156.95 39.1875C1154.84 35.877 1151.8 34.2217 1147.85 34.2217C1140.12 34.2217 1136.03 40.0225 1135.59 51.624L1135.54 56.3262C1135.54 62.5957 1136.58 67.415 1138.67 70.7842C1140.75 74.1533 1143.84 75.8379 1147.94 75.8379C1151.83 75.8379 1154.84 74.1826 1156.95 70.8721C1159.06 67.5615 1160.12 62.8008 1160.15 56.5898V53.6455ZM1242.68 87H1227.34V60.2812H1204.62V87H1189.2V23.0156H1204.62V48.416H1227.34V23.0156H1242.68V87ZM1311.36 87H1296.02V60.2812H1273.3V87H1257.88V23.0156H1273.3V48.416H1296.02V23.0156H1311.36V87ZM1380.74 56.3262C1380.74 62.5664 1379.59 68.0889 1377.27 72.8936C1374.96 77.6982 1371.66 81.4043 1367.38 84.0117C1363.14 86.5898 1358.29 87.8789 1352.84 87.8789C1347.39 87.8789 1342.56 86.6338 1338.34 84.1436C1334.12 81.624 1330.82 78.0352 1328.45 73.377C1326.11 68.7188 1324.87 63.3721 1324.76 57.3369V53.7334C1324.76 47.4639 1325.9 41.9414 1328.19 37.166C1330.5 32.3613 1333.8 28.6553 1338.07 26.0479C1342.38 23.4404 1347.27 22.1367 1352.75 22.1367C1358.17 22.1367 1363 23.4258 1367.25 26.0039C1371.5 28.582 1374.8 32.2588 1377.14 37.0342C1379.51 41.7803 1380.71 47.2295 1380.74 53.3818V56.3262ZM1365.06 53.6455C1365.06 47.2881 1363.99 42.4688 1361.85 39.1875C1359.74 35.877 1356.71 34.2217 1352.75 34.2217C1345.02 34.2217 1340.93 40.0225 1340.49 51.624L1340.45 56.3262C1340.45 62.5957 1341.49 67.415 1343.57 70.7842C1345.65 74.1533 1348.74 75.8379 1352.84 75.8379C1356.74 75.8379 1359.74 74.1826 1361.85 70.8721C1363.96 67.5615 1365.03 62.8008 1365.06 56.5898V53.6455ZM1437.25 34.9248H1409.43V87H1394.01V23.0156H1437.25V34.9248ZM1500.88 56.3262C1500.88 62.5664 1499.72 68.0889 1497.41 72.8936C1495.09 77.6982 1491.8 81.4043 1487.52 84.0117C1483.27 86.5898 1478.42 87.8789 1472.97 87.8789C1467.53 87.8789 1462.69 86.6338 1458.47 84.1436C1454.25 81.624 1450.96 78.0352 1448.58 73.377C1446.24 68.7188 1445.01 63.3721 1444.89 57.3369V53.7334C1444.89 47.4639 1446.04 41.9414 1448.32 37.166C1450.64 32.3613 1453.93 28.6553 1458.21 26.0479C1462.52 23.4404 1467.41 22.1367 1472.89 22.1367C1478.31 22.1367 1483.14 23.4258 1487.39 26.0039C1491.64 28.582 1494.93 32.2588 1497.28 37.0342C1499.65 41.7803 1500.85 47.2295 1500.88 53.3818V56.3262ZM1485.19 53.6455C1485.19 47.2881 1484.12 42.4688 1481.98 39.1875C1479.87 35.877 1476.84 34.2217 1472.89 34.2217C1465.15 34.2217 1461.07 40.0225 1460.63 51.624L1460.58 56.3262C1460.58 62.5957 1461.62 67.415 1463.7 70.7842C1465.78 74.1533 1468.87 75.8379 1472.97 75.8379C1476.87 75.8379 1479.87 74.1826 1481.98 70.8721C1484.09 67.5615 1485.16 62.8008 1485.19 56.5898V53.6455ZM44.9225 153.688H37.6276V179H22.2028V115.016H37.6276V139.757H43.5602L55.8649 115.016H74.5416L56.9635 144.547L76.7389 179H58.5016L44.9225 153.688ZM138.74 148.326C138.74 154.566 137.583 160.089 135.269 164.894C132.954 169.698 129.658 173.404 125.381 176.012C121.133 178.59 116.284 179.879 110.835 179.879C105.386 179.879 100.552 178.634 96.3332 176.144C92.1145 173.624 88.8186 170.035 86.4455 165.377C84.1018 160.719 82.8713 155.372 82.7541 149.337V145.733C82.7541 139.464 83.8967 133.941 86.1819 129.166C88.4963 124.361 91.7922 120.655 96.0696 118.048C100.376 115.44 105.269 114.137 110.747 114.137C116.167 114.137 121.001 115.426 125.249 118.004C129.497 120.582 132.793 124.259 135.137 129.034C137.51 133.78 138.711 139.229 138.74 145.382V148.326ZM123.052 145.646C123.052 139.288 121.983 134.469 119.844 131.188C117.735 127.877 114.702 126.222 110.747 126.222C103.013 126.222 98.926 132.022 98.4865 143.624L98.4426 148.326C98.4426 154.596 99.4826 159.415 101.563 162.784C103.643 166.153 106.734 167.838 110.835 167.838C114.732 167.838 117.735 166.183 119.844 162.872C121.953 159.562 123.023 154.801 123.052 148.59V145.646ZM205.576 179H190.239V152.281H167.519V179H152.095V115.016H167.519V140.416H190.239V115.016H205.576V179ZM269.687 126.925H250.483V179H235.058V126.925H216.205V115.016H269.687V126.925ZM297.06 157.291V179H281.635V115.016H307.167C312.06 115.016 316.381 115.924 320.131 117.74C323.91 119.527 326.825 122.091 328.876 125.431C330.956 128.741 331.996 132.506 331.996 136.725C331.996 142.965 329.755 147.96 325.272 151.71C320.819 155.431 314.696 157.291 306.903 157.291H297.06ZM297.06 145.382H307.167C310.155 145.382 312.426 144.635 313.979 143.141C315.561 141.646 316.352 139.537 316.352 136.812C316.352 133.824 315.546 131.437 313.935 129.649C312.323 127.862 310.126 126.954 307.343 126.925H297.06V145.382ZM399.842 148.326C399.842 154.566 398.685 160.089 396.371 164.894C394.056 169.698 390.76 173.404 386.483 176.012C382.235 178.59 377.386 179.879 371.937 179.879C366.488 179.879 361.654 178.634 357.435 176.144C353.216 173.624 349.921 170.035 347.547 165.377C345.204 160.719 343.973 155.372 343.856 149.337V145.733C343.856 139.464 344.999 133.941 347.284 129.166C349.598 124.361 352.894 120.655 357.172 118.048C361.478 115.44 366.371 114.137 371.849 114.137C377.269 114.137 382.103 115.426 386.351 118.004C390.599 120.582 393.895 124.259 396.239 129.034C398.612 133.78 399.813 139.229 399.842 145.382V148.326ZM384.154 145.646C384.154 139.288 383.085 134.469 380.946 131.188C378.837 127.877 375.804 126.222 371.849 126.222C364.115 126.222 360.028 132.022 359.589 143.624L359.545 148.326C359.545 154.596 360.585 159.415 362.665 162.784C364.745 166.153 367.836 167.838 371.937 167.838C375.834 167.838 378.837 166.183 380.946 162.872C383.055 159.562 384.125 154.801 384.154 148.59V145.646ZM465.623 115.016V179H450.198V126.925H435.828L434.774 148.414C434.334 155.826 433.309 161.744 431.697 166.168C430.086 170.592 427.786 173.829 424.798 175.88C421.839 177.901 417.796 178.941 412.669 179H408.538V167.135L410.692 166.915C413.768 166.476 415.994 164.601 417.371 161.29C418.748 157.95 419.642 152.34 420.052 144.459L421.151 115.016H465.623ZM508.201 179V156.544H499.324L488.513 179H471.77L484.91 151.314C479.197 147.594 476.341 142.13 476.341 134.923C476.341 128.595 478.421 123.702 482.581 120.245C486.741 116.759 492.732 115.016 500.555 115.016H523.67V179H508.201ZM491.721 136.285C491.721 139.537 492.381 141.896 493.699 143.36C495.017 144.825 497.229 145.558 500.335 145.558H508.201V126.925H500.423C497.346 126.925 495.12 127.73 493.743 129.342C492.395 130.924 491.721 133.238 491.721 136.285ZM602.893 115.016H618.317V179H602.893V138.658L579.909 179H564.484V115.016H579.909V155.401L602.893 115.016ZM683.61 153.688H676.315V179H660.89V115.016H676.315V139.757H682.247L694.552 115.016H713.229L695.651 144.547L715.426 179H697.189L683.61 153.688ZM777.428 148.326C777.428 154.566 776.27 160.089 773.956 164.894C771.641 169.698 768.346 173.404 764.068 176.012C759.82 178.59 754.971 179.879 749.522 179.879C744.073 179.879 739.239 178.634 735.02 176.144C730.802 173.624 727.506 170.035 725.133 165.377C722.789 160.719 721.558 155.372 721.441 149.337V145.733C721.441 139.464 722.584 133.941 724.869 129.166C727.183 124.361 730.479 120.655 734.757 118.048C739.063 115.44 743.956 114.137 749.434 114.137C754.854 114.137 759.688 115.426 763.936 118.004C768.184 120.582 771.48 124.259 773.824 129.034C776.197 133.78 777.398 139.229 777.428 145.382V148.326ZM761.739 145.646C761.739 139.288 760.67 134.469 758.531 131.188C756.422 127.877 753.389 126.222 749.434 126.222C741.7 126.222 737.613 132.022 737.174 143.624L737.13 148.326C737.13 154.596 738.17 159.415 740.25 162.784C742.33 166.153 745.421 167.838 749.522 167.838C753.419 167.838 756.422 166.183 758.531 162.872C760.64 159.562 761.71 154.801 761.739 148.59V145.646ZM806.206 157.291V179H790.782V115.016H816.314C821.206 115.016 825.528 115.924 829.278 117.74C833.057 119.527 835.972 122.091 838.023 125.431C840.103 128.741 841.143 132.506 841.143 136.725C841.143 142.965 838.902 147.96 834.419 151.71C829.966 155.431 823.843 157.291 816.05 157.291H806.206ZM806.206 145.382H816.314C819.302 145.382 821.573 144.635 823.125 143.141C824.707 141.646 825.498 139.537 825.498 136.812C825.498 133.824 824.693 131.437 823.081 129.649C821.47 127.862 819.273 126.954 816.49 126.925H806.206V145.382ZM870.229 157.291V179H854.805V115.016H880.337C885.229 115.016 889.551 115.924 893.301 117.74C897.08 119.527 899.995 122.091 902.046 125.431C904.126 128.741 905.166 132.506 905.166 136.725C905.166 142.965 902.925 147.96 898.442 151.71C893.989 155.431 887.866 157.291 880.073 157.291H870.229ZM870.229 145.382H880.337C883.325 145.382 885.596 144.635 887.148 143.141C888.73 141.646 889.521 139.537 889.521 136.812C889.521 133.824 888.716 131.437 887.104 129.649C885.493 127.862 883.296 126.954 880.513 126.925H870.229V145.382ZM973.012 148.326C973.012 154.566 971.855 160.089 969.541 164.894C967.226 169.698 963.93 173.404 959.653 176.012C955.405 178.59 950.556 179.879 945.107 179.879C939.658 179.879 934.824 178.634 930.605 176.144C926.386 173.624 923.09 170.035 920.717 165.377C918.374 160.719 917.143 155.372 917.026 149.337V145.733C917.026 139.464 918.169 133.941 920.454 129.166C922.768 124.361 926.064 120.655 930.341 118.048C934.648 115.44 939.541 114.137 945.019 114.137C950.439 114.137 955.273 115.426 959.521 118.004C963.769 120.582 967.065 124.259 969.409 129.034C971.782 133.78 972.983 139.229 973.012 145.382V148.326ZM957.324 145.646C957.324 139.288 956.255 134.469 954.116 131.188C952.006 127.877 948.974 126.222 945.019 126.222C937.285 126.222 933.198 132.022 932.758 143.624L932.714 148.326C932.714 154.596 933.755 159.415 935.835 162.784C937.915 166.153 941.005 167.838 945.107 167.838C949.004 167.838 952.006 166.183 954.116 162.872C956.225 159.562 957.295 154.801 957.324 148.59V145.646ZM1017.52 132.77C1017.52 130.748 1016.73 129.122 1015.15 127.892C1013.6 126.661 1011.49 126.046 1008.82 126.046C1006.33 126.046 1004.33 126.646 1002.8 127.848C1001.31 129.02 1000.56 130.572 1000.56 132.506H985.18C985.18 128.99 986.176 125.841 988.168 123.058C990.19 120.274 993.031 118.106 996.694 116.554C1000.36 114.972 1004.4 114.181 1008.82 114.181C1016.44 114.181 1022.36 115.777 1026.58 118.971C1030.82 122.164 1032.95 126.632 1032.95 132.374C1032.95 135.304 1032.08 137.984 1030.36 140.416C1028.66 142.818 1026.3 144.723 1023.28 146.129C1026.74 147.359 1029.37 149.234 1031.19 151.754C1033.04 154.244 1033.96 157.35 1033.96 161.07C1033.96 166.812 1031.67 171.383 1027.1 174.781C1022.53 178.15 1016.44 179.835 1008.82 179.835C1001.76 179.835 995.903 178.18 991.244 174.869C986.586 171.529 984.257 166.988 984.257 161.246H999.726C999.726 163.15 1000.58 164.762 1002.27 166.08C1003.97 167.369 1006.16 168.014 1008.82 168.014C1011.69 168.014 1014.02 167.34 1015.81 165.992C1017.6 164.645 1018.49 162.887 1018.49 160.719C1018.49 157.555 1017.73 155.328 1016.21 154.039C1014.68 152.721 1012.46 152.062 1009.53 152.062H1001.31V140.636H1010.05C1015.03 140.489 1017.52 137.867 1017.52 132.77ZM1085.99 115.016H1101.41V179H1085.99V138.658L1063 179H1047.58V115.016H1063V155.401L1085.99 115.016ZM1170.44 148.326C1170.44 154.566 1169.29 160.089 1166.97 164.894C1164.66 169.698 1161.36 173.404 1157.08 176.012C1152.84 178.59 1147.99 179.879 1142.54 179.879C1137.09 179.879 1132.25 178.634 1128.04 176.144C1123.82 173.624 1120.52 170.035 1118.15 165.377C1115.8 160.719 1114.57 155.372 1114.46 149.337V145.733C1114.46 139.464 1115.6 133.941 1117.88 129.166C1120.2 124.361 1123.49 120.655 1127.77 118.048C1132.08 115.44 1136.97 114.137 1142.45 114.137C1147.87 114.137 1152.7 115.426 1156.95 118.004C1161.2 120.582 1164.5 124.259 1166.84 129.034C1169.21 133.78 1170.41 139.229 1170.44 145.382V148.326ZM1154.75 145.646C1154.75 139.288 1153.68 134.469 1151.55 131.188C1149.44 127.877 1146.4 126.222 1142.45 126.222C1134.72 126.222 1130.63 132.022 1130.19 143.624L1130.14 148.326C1130.14 154.596 1131.18 159.415 1133.27 162.784C1135.35 166.153 1138.44 167.838 1142.54 167.838C1146.43 167.838 1149.44 166.183 1151.55 162.872C1153.66 159.562 1154.72 154.801 1154.75 148.59V145.646ZM1237.28 179H1221.94V152.281H1199.22V179H1183.8V115.016H1199.22V140.416H1221.94V115.016H1237.28V179ZM1305.96 179H1290.62V152.281H1267.9V179H1252.48V115.016H1267.9V140.416H1290.62V115.016H1305.96V179ZM1375.34 148.326C1375.34 154.566 1374.19 160.089 1371.87 164.894C1369.56 169.698 1366.26 173.404 1361.98 176.012C1357.74 178.59 1352.89 179.879 1347.44 179.879C1341.99 179.879 1337.16 178.634 1332.94 176.144C1328.72 173.624 1325.42 170.035 1323.05 165.377C1320.71 160.719 1319.47 155.372 1319.36 149.337V145.733C1319.36 139.464 1320.5 133.941 1322.79 129.166C1325.1 124.361 1328.4 120.655 1332.67 118.048C1336.98 115.44 1341.87 114.137 1347.35 114.137C1352.77 114.137 1357.6 115.426 1361.85 118.004C1366.1 120.582 1369.4 124.259 1371.74 129.034C1374.11 133.78 1375.31 139.229 1375.34 145.382V148.326ZM1359.66 145.646C1359.66 139.288 1358.59 134.469 1356.45 131.188C1354.34 127.877 1351.31 126.222 1347.35 126.222C1339.62 126.222 1335.53 132.022 1335.09 143.624L1335.05 148.326C1335.05 154.596 1336.09 159.415 1338.17 162.784C1340.25 166.153 1343.34 167.838 1347.44 167.838C1351.34 167.838 1354.34 166.183 1356.45 162.872C1358.56 159.562 1359.63 154.801 1359.66 148.59V145.646ZM1431.85 126.925H1404.04V179H1388.61V115.016H1431.85V126.925ZM1495.48 148.326C1495.48 154.566 1494.32 160.089 1492.01 164.894C1489.69 169.698 1486.4 173.404 1482.12 176.012C1477.87 178.59 1473.02 179.879 1467.57 179.879C1462.13 179.879 1457.29 178.634 1453.07 176.144C1448.85 173.624 1445.56 170.035 1443.18 165.377C1440.84 160.719 1439.61 155.372 1439.49 149.337V145.733C1439.49 139.464 1440.64 133.941 1442.92 129.166C1445.24 124.361 1448.53 120.655 1452.81 118.048C1457.12 115.44 1462.01 114.137 1467.49 114.137C1472.91 114.137 1477.74 115.426 1481.99 118.004C1486.24 120.582 1489.53 124.259 1491.88 129.034C1494.25 133.78 1495.45 139.229 1495.48 145.382V148.326ZM1479.79 145.646C1479.79 139.288 1478.72 134.469 1476.58 131.188C1474.47 127.877 1471.44 126.222 1467.49 126.222C1459.75 126.222 1455.67 132.022 1455.23 143.624L1455.18 148.326C1455.18 154.596 1456.22 159.415 1458.3 162.784C1460.38 166.153 1463.47 167.838 1467.57 167.838C1471.47 167.838 1474.47 166.183 1476.58 162.872C1478.69 159.562 1479.76 154.801 1479.79 148.59V145.646ZM805.19 207.016L819.473 251.532L833.711 207.016H854.014V271H838.545V256.059L840.039 225.473L824.57 271H814.375L798.862 225.429L800.356 256.059V271H784.932V207.016H805.19ZM923.442 240.326C923.442 246.566 922.285 252.089 919.97 256.894C917.656 261.698 914.36 265.404 910.083 268.012C905.835 270.59 900.986 271.879 895.537 271.879C890.088 271.879 885.254 270.634 881.035 268.144C876.816 265.624 873.52 262.035 871.147 257.377C868.803 252.719 867.573 247.372 867.456 241.337V237.733C867.456 231.464 868.598 225.941 870.883 221.166C873.198 216.361 876.494 212.655 880.771 210.048C885.078 207.44 889.97 206.137 895.449 206.137C900.869 206.137 905.703 207.426 909.951 210.004C914.199 212.582 917.495 216.259 919.839 221.034C922.212 225.78 923.413 231.229 923.442 237.382V240.326ZM907.754 237.646C907.754 231.288 906.684 226.469 904.546 223.188C902.436 219.877 899.404 218.222 895.449 218.222C887.714 218.222 883.628 224.022 883.188 235.624L883.144 240.326C883.144 246.596 884.184 251.415 886.264 254.784C888.344 258.153 891.435 259.838 895.537 259.838C899.433 259.838 902.436 258.183 904.546 254.872C906.655 251.562 907.724 246.801 907.754 240.59V237.646ZM990.278 271H974.941V244.281H952.221V271H936.796V207.016H952.221V232.416H974.941V207.016H990.278V271ZM1043.01 207.016H1058.43V271H1043.01V230.658L1020.02 271H1004.6V207.016H1020.02V247.401L1043.01 207.016ZM1122.19 218.925H1102.99V271H1087.56V218.925H1068.71V207.016H1122.19V218.925ZM1187.09 240.326C1187.09 246.566 1185.94 252.089 1183.62 256.894C1181.31 261.698 1178.01 265.404 1173.73 268.012C1169.49 270.59 1164.64 271.879 1159.19 271.879C1153.74 271.879 1148.9 270.634 1144.69 268.144C1140.47 265.624 1137.17 262.035 1134.8 257.377C1132.45 252.719 1131.22 247.372 1131.11 241.337V237.733C1131.11 231.464 1132.25 225.941 1134.53 221.166C1136.85 216.361 1140.14 212.655 1144.42 210.048C1148.73 207.44 1153.62 206.137 1159.1 206.137C1164.52 206.137 1169.35 207.426 1173.6 210.004C1177.85 212.582 1181.15 216.259 1183.49 221.034C1185.86 225.78 1187.06 231.229 1187.09 237.382V240.326ZM1171.4 237.646C1171.4 231.288 1170.33 226.469 1168.2 223.188C1166.09 219.877 1163.05 218.222 1159.1 218.222C1151.37 218.222 1147.28 224.022 1146.84 235.624L1146.79 240.326C1146.79 246.596 1147.83 251.415 1149.92 254.784C1152 258.153 1155.09 259.838 1159.19 259.838C1163.08 259.838 1166.09 258.183 1168.2 254.872C1170.31 251.562 1171.38 246.801 1171.4 240.59V237.646ZM1215.87 249.291V271H1200.45V207.016H1225.98C1230.87 207.016 1235.19 207.924 1238.94 209.74C1242.72 211.527 1245.64 214.091 1247.69 217.431C1249.77 220.741 1250.81 224.506 1250.81 228.725C1250.81 234.965 1248.57 239.96 1244.08 243.71C1239.63 247.431 1233.51 249.291 1225.72 249.291H1215.87ZM1215.87 237.382H1225.98C1228.97 237.382 1231.24 236.635 1232.79 235.141C1234.37 233.646 1235.16 231.537 1235.16 228.812C1235.16 225.824 1234.36 223.437 1232.75 221.649C1231.14 219.862 1228.94 218.954 1226.15 218.925H1215.87V237.382ZM1302 207.016H1317.42V271H1302V230.658L1279.02 271H1263.59V207.016H1279.02V247.401L1302 207.016ZM1385.75 271H1370.42V244.281H1347.7V271H1332.27V207.016H1347.7V232.416H1370.42V207.016H1385.75V271ZM1444.11 218.925H1416.29V271H1400.87V207.016H1444.11V218.925ZM1483.83 259.047H1462.69L1459 271H1442.52L1465.99 207.016H1480.49L1504.13 271H1487.56L1483.83 259.047ZM1466.38 247.138H1480.14L1473.24 224.945L1466.38 247.138Z"/>
</mask>
<path d="M297.098 56.3262C297.098 62.5664 295.941 68.0889 293.627 72.8936C291.312 77.6982 288.016 81.4043 283.739 84.0117C279.491 86.5898 274.642 87.8789 269.193 87.8789C263.744 87.8789 258.91 86.6338 254.691 84.1436C250.472 81.624 247.176 78.0352 244.803 73.377C242.46 68.7188 241.229 63.3721 241.112 57.3369V53.7334C241.112 47.4639 242.255 41.9414 244.54 37.166C246.854 32.3613 250.15 28.6553 254.427 26.0479C258.734 23.4404 263.627 22.1367 269.105 22.1367C274.525 22.1367 279.359 23.4258 283.607 26.0039C287.855 28.582 291.151 32.2588 293.495 37.0342C295.868 41.7803 297.069 47.2295 297.098 53.3818V56.3262ZM281.41 53.6455C281.41 47.2881 280.34 42.4688 278.202 39.1875C276.092 35.877 273.06 34.2217 269.105 34.2217C261.371 34.2217 257.284 40.0225 256.844 51.624L256.8 56.3262C256.8 62.5957 257.84 67.415 259.921 70.7842C262.001 74.1533 265.091 75.8379 269.193 75.8379C273.089 75.8379 276.092 74.1826 278.202 70.8721C280.311 67.5615 281.38 62.8008 281.41 56.5898V53.6455ZM356.903 34.9248H337.698V87H322.274V34.9248H303.421V23.0156H356.903V34.9248ZM425.1 102.732H411.258V87H376.409V102.688H362.127L361.028 75.1348H365.555C367.928 73.5527 369.832 70.8428 371.267 67.0049C372.732 63.1377 373.772 57.6006 374.388 50.3936L376.365 23.0156H419.915V75.1348H426.726L425.1 102.732ZM383.001 75.1348H404.534V34.9248H390.911L389.724 50.9209C388.846 61.292 386.604 69.3633 383.001 75.1348ZM477.126 59.8857H452.869V75.1348H481.521V87H437.444V23.0156H481.609V34.9248H452.869V48.416H477.126V59.8857ZM547.038 23.0156V87H531.613V34.9248H517.243L516.189 56.4141C515.749 63.8262 514.724 69.7441 513.112 74.168C511.501 78.5918 509.201 81.8291 506.213 83.8799C503.254 85.9014 499.211 86.9414 494.084 87H489.953V75.1348L492.106 74.915C495.183 74.4756 497.409 72.6006 498.786 69.29C500.163 65.9502 501.057 60.3398 501.467 52.459L502.565 23.0156H547.038ZM627.404 23.0156H642.828V87H627.404V46.6582L604.42 87H588.995V23.0156H604.42V63.4014L627.404 23.0156ZM711.158 87H695.821V60.2812H673.101V87H657.677V23.0156H673.101V48.416H695.821V23.0156H711.158V87ZM778.125 65.335C777.92 69.7881 776.719 73.7285 774.522 77.1562C772.325 80.5547 769.234 83.1914 765.249 85.0664C761.294 86.9414 756.768 87.8789 751.67 87.8789C743.262 87.8789 736.641 85.1396 731.807 79.6611C726.973 74.1826 724.556 66.4482 724.556 56.458V53.2939C724.556 47.0244 725.64 41.5459 727.808 36.8584C730.005 32.1416 733.155 28.5088 737.256 25.96C741.358 23.3818 746.104 22.0928 751.495 22.0928C759.258 22.0928 765.498 24.1436 770.215 28.2451C774.932 32.3174 777.613 37.9424 778.257 45.1201H762.876C762.759 41.2236 761.778 38.4258 759.932 36.7266C758.086 35.0273 755.274 34.1777 751.495 34.1777C747.657 34.1777 744.844 35.6133 743.057 38.4844C741.27 41.3555 740.332 45.9404 740.245 52.2393V56.7656C740.245 63.5918 741.094 68.4697 742.793 71.3994C744.522 74.3291 747.481 75.7939 751.67 75.7939C755.215 75.7939 757.925 74.959 759.8 73.2891C761.675 71.6191 762.671 68.9678 762.789 65.335H778.125ZM844.565 87H829.141V34.9248H806.157V87H790.732V23.0156H844.565V87ZM899.272 59.8857H875.014V75.1348H903.667V87H859.589V23.0156H903.755V34.9248H875.014V48.416H899.272V59.8857ZM937.983 61.6875H930.688V87H915.263V23.0156H930.688V47.7568H936.62L948.925 23.0156H967.602L950.024 52.5469L969.799 87H951.562L937.983 61.6875ZM977.968 23.0156H993.305V75.1348H1016.29V23.0156H1031.76V75.2666H1041.56L1040.68 102.425H1026.13V87H977.968V23.0156ZM1091.39 23.0156H1106.81V87H1091.39V46.6582L1068.4 87H1052.98V23.0156H1068.4V63.4014L1091.39 23.0156ZM1175.84 56.3262C1175.84 62.5664 1174.69 68.0889 1172.37 72.8936C1170.06 77.6982 1166.76 81.4043 1162.48 84.0117C1158.24 86.5898 1153.39 87.8789 1147.94 87.8789C1142.49 87.8789 1137.65 86.6338 1133.44 84.1436C1129.22 81.624 1125.92 78.0352 1123.55 73.377C1121.2 68.7188 1119.97 63.3721 1119.86 57.3369V53.7334C1119.86 47.4639 1121 41.9414 1123.28 37.166C1125.6 32.3613 1128.89 28.6553 1133.17 26.0479C1137.48 23.4404 1142.37 22.1367 1147.85 22.1367C1153.27 22.1367 1158.1 23.4258 1162.35 26.0039C1166.6 28.582 1169.9 32.2588 1172.24 37.0342C1174.61 41.7803 1175.81 47.2295 1175.84 53.3818V56.3262ZM1160.15 53.6455C1160.15 47.2881 1159.08 42.4688 1156.95 39.1875C1154.84 35.877 1151.8 34.2217 1147.85 34.2217C1140.12 34.2217 1136.03 40.0225 1135.59 51.624L1135.54 56.3262C1135.54 62.5957 1136.58 67.415 1138.67 70.7842C1140.75 74.1533 1143.84 75.8379 1147.94 75.8379C1151.83 75.8379 1154.84 74.1826 1156.95 70.8721C1159.06 67.5615 1160.12 62.8008 1160.15 56.5898V53.6455ZM1242.68 87H1227.34V60.2812H1204.62V87H1189.2V23.0156H1204.62V48.416H1227.34V23.0156H1242.68V87ZM1311.36 87H1296.02V60.2812H1273.3V87H1257.88V23.0156H1273.3V48.416H1296.02V23.0156H1311.36V87ZM1380.74 56.3262C1380.74 62.5664 1379.59 68.0889 1377.27 72.8936C1374.96 77.6982 1371.66 81.4043 1367.38 84.0117C1363.14 86.5898 1358.29 87.8789 1352.84 87.8789C1347.39 87.8789 1342.56 86.6338 1338.34 84.1436C1334.12 81.624 1330.82 78.0352 1328.45 73.377C1326.11 68.7188 1324.87 63.3721 1324.76 57.3369V53.7334C1324.76 47.4639 1325.9 41.9414 1328.19 37.166C1330.5 32.3613 1333.8 28.6553 1338.07 26.0479C1342.38 23.4404 1347.27 22.1367 1352.75 22.1367C1358.17 22.1367 1363 23.4258 1367.25 26.0039C1371.5 28.582 1374.8 32.2588 1377.14 37.0342C1379.51 41.7803 1380.71 47.2295 1380.74 53.3818V56.3262ZM1365.06 53.6455C1365.06 47.2881 1363.99 42.4688 1361.85 39.1875C1359.74 35.877 1356.71 34.2217 1352.75 34.2217C1345.02 34.2217 1340.93 40.0225 1340.49 51.624L1340.45 56.3262C1340.45 62.5957 1341.49 67.415 1343.57 70.7842C1345.65 74.1533 1348.74 75.8379 1352.84 75.8379C1356.74 75.8379 1359.74 74.1826 1361.85 70.8721C1363.96 67.5615 1365.03 62.8008 1365.06 56.5898V53.6455ZM1437.25 34.9248H1409.43V87H1394.01V23.0156H1437.25V34.9248ZM1500.88 56.3262C1500.88 62.5664 1499.72 68.0889 1497.41 72.8936C1495.09 77.6982 1491.8 81.4043 1487.52 84.0117C1483.27 86.5898 1478.42 87.8789 1472.97 87.8789C1467.53 87.8789 1462.69 86.6338 1458.47 84.1436C1454.25 81.624 1450.96 78.0352 1448.58 73.377C1446.24 68.7188 1445.01 63.3721 1444.89 57.3369V53.7334C1444.89 47.4639 1446.04 41.9414 1448.32 37.166C1450.64 32.3613 1453.93 28.6553 1458.21 26.0479C1462.52 23.4404 1467.41 22.1367 1472.89 22.1367C1478.31 22.1367 1483.14 23.4258 1487.39 26.0039C1491.64 28.582 1494.93 32.2588 1497.28 37.0342C1499.65 41.7803 1500.85 47.2295 1500.88 53.3818V56.3262ZM1485.19 53.6455C1485.19 47.2881 1484.12 42.4688 1481.98 39.1875C1479.87 35.877 1476.84 34.2217 1472.89 34.2217C1465.15 34.2217 1461.07 40.0225 1460.63 51.624L1460.58 56.3262C1460.58 62.5957 1461.62 67.415 1463.7 70.7842C1465.78 74.1533 1468.87 75.8379 1472.97 75.8379C1476.87 75.8379 1479.87 74.1826 1481.98 70.8721C1484.09 67.5615 1485.16 62.8008 1485.19 56.5898V53.6455ZM44.9225 153.688H37.6276V179H22.2028V115.016H37.6276V139.757H43.5602L55.8649 115.016H74.5416L56.9635 144.547L76.7389 179H58.5016L44.9225 153.688ZM138.74 148.326C138.74 154.566 137.583 160.089 135.269 164.894C132.954 169.698 129.658 173.404 125.381 176.012C121.133 178.59 116.284 179.879 110.835 179.879C105.386 179.879 100.552 178.634 96.3332 176.144C92.1145 173.624 88.8186 170.035 86.4455 165.377C84.1018 160.719 82.8713 155.372 82.7541 149.337V145.733C82.7541 139.464 83.8967 133.941 86.1819 129.166C88.4963 124.361 91.7922 120.655 96.0696 118.048C100.376 115.44 105.269 114.137 110.747 114.137C116.167 114.137 121.001 115.426 125.249 118.004C129.497 120.582 132.793 124.259 135.137 129.034C137.51 133.78 138.711 139.229 138.74 145.382V148.326ZM123.052 145.646C123.052 139.288 121.983 134.469 119.844 131.188C117.735 127.877 114.702 126.222 110.747 126.222C103.013 126.222 98.926 132.022 98.4865 143.624L98.4426 148.326C98.4426 154.596 99.4826 159.415 101.563 162.784C103.643 166.153 106.734 167.838 110.835 167.838C114.732 167.838 117.735 166.183 119.844 162.872C121.953 159.562 123.023 154.801 123.052 148.59V145.646ZM205.576 179H190.239V152.281H167.519V179H152.095V115.016H167.519V140.416H190.239V115.016H205.576V179ZM269.687 126.925H250.483V179H235.058V126.925H216.205V115.016H269.687V126.925ZM297.06 157.291V179H281.635V115.016H307.167C312.06 115.016 316.381 115.924 320.131 117.74C323.91 119.527 326.825 122.091 328.876 125.431C330.956 128.741 331.996 132.506 331.996 136.725C331.996 142.965 329.755 147.96 325.272 151.71C320.819 155.431 314.696 157.291 306.903 157.291H297.06ZM297.06 145.382H307.167C310.155 145.382 312.426 144.635 313.979 143.141C315.561 141.646 316.352 139.537 316.352 136.812C316.352 133.824 315.546 131.437 313.935 129.649C312.323 127.862 310.126 126.954 307.343 126.925H297.06V145.382ZM399.842 148.326C399.842 154.566 398.685 160.089 396.371 164.894C394.056 169.698 390.76 173.404 386.483 176.012C382.235 178.59 377.386 179.879 371.937 179.879C366.488 179.879 361.654 178.634 357.435 176.144C353.216 173.624 349.921 170.035 347.547 165.377C345.204 160.719 343.973 155.372 343.856 149.337V145.733C343.856 139.464 344.999 133.941 347.284 129.166C349.598 124.361 352.894 120.655 357.172 118.048C361.478 115.44 366.371 114.137 371.849 114.137C377.269 114.137 382.103 115.426 386.351 118.004C390.599 120.582 393.895 124.259 396.239 129.034C398.612 133.78 399.813 139.229 399.842 145.382V148.326ZM384.154 145.646C384.154 139.288 383.085 134.469 380.946 131.188C378.837 127.877 375.804 126.222 371.849 126.222C364.115 126.222 360.028 132.022 359.589 143.624L359.545 148.326C359.545 154.596 360.585 159.415 362.665 162.784C364.745 166.153 367.836 167.838 371.937 167.838C375.834 167.838 378.837 166.183 380.946 162.872C383.055 159.562 384.125 154.801 384.154 148.59V145.646ZM465.623 115.016V179H450.198V126.925H435.828L434.774 148.414C434.334 155.826 433.309 161.744 431.697 166.168C430.086 170.592 427.786 173.829 424.798 175.88C421.839 177.901 417.796 178.941 412.669 179H408.538V167.135L410.692 166.915C413.768 166.476 415.994 164.601 417.371 161.29C418.748 157.95 419.642 152.34 420.052 144.459L421.151 115.016H465.623ZM508.201 179V156.544H499.324L488.513 179H471.77L484.91 151.314C479.197 147.594 476.341 142.13 476.341 134.923C476.341 128.595 478.421 123.702 482.581 120.245C486.741 116.759 492.732 115.016 500.555 115.016H523.67V179H508.201ZM491.721 136.285C491.721 139.537 492.381 141.896 493.699 143.36C495.017 144.825 497.229 145.558 500.335 145.558H508.201V126.925H500.423C497.346 126.925 495.12 127.73 493.743 129.342C492.395 130.924 491.721 133.238 491.721 136.285ZM602.893 115.016H618.317V179H602.893V138.658L579.909 179H564.484V115.016H579.909V155.401L602.893 115.016ZM683.61 153.688H676.315V179H660.89V115.016H676.315V139.757H682.247L694.552 115.016H713.229L695.651 144.547L715.426 179H697.189L683.61 153.688ZM777.428 148.326C777.428 154.566 776.27 160.089 773.956 164.894C771.641 169.698 768.346 173.404 764.068 176.012C759.82 178.59 754.971 179.879 749.522 179.879C744.073 179.879 739.239 178.634 735.02 176.144C730.802 173.624 727.506 170.035 725.133 165.377C722.789 160.719 721.558 155.372 721.441 149.337V145.733C721.441 139.464 722.584 133.941 724.869 129.166C727.183 124.361 730.479 120.655 734.757 118.048C739.063 115.44 743.956 114.137 749.434 114.137C754.854 114.137 759.688 115.426 763.936 118.004C768.184 120.582 771.48 124.259 773.824 129.034C776.197 133.78 777.398 139.229 777.428 145.382V148.326ZM761.739 145.646C761.739 139.288 760.67 134.469 758.531 131.188C756.422 127.877 753.389 126.222 749.434 126.222C741.7 126.222 737.613 132.022 737.174 143.624L737.13 148.326C737.13 154.596 738.17 159.415 740.25 162.784C742.33 166.153 745.421 167.838 749.522 167.838C753.419 167.838 756.422 166.183 758.531 162.872C760.64 159.562 761.71 154.801 761.739 148.59V145.646ZM806.206 157.291V179H790.782V115.016H816.314C821.206 115.016 825.528 115.924 829.278 117.74C833.057 119.527 835.972 122.091 838.023 125.431C840.103 128.741 841.143 132.506 841.143 136.725C841.143 142.965 838.902 147.96 834.419 151.71C829.966 155.431 823.843 157.291 816.05 157.291H806.206ZM806.206 145.382H816.314C819.302 145.382 821.573 144.635 823.125 143.141C824.707 141.646 825.498 139.537 825.498 136.812C825.498 133.824 824.693 131.437 823.081 129.649C821.47 127.862 819.273 126.954 816.49 126.925H806.206V145.382ZM870.229 157.291V179H854.805V115.016H880.337C885.229 115.016 889.551 115.924 893.301 117.74C897.08 119.527 899.995 122.091 902.046 125.431C904.126 128.741 905.166 132.506 905.166 136.725C905.166 142.965 902.925 147.96 898.442 151.71C893.989 155.431 887.866 157.291 880.073 157.291H870.229ZM870.229 145.382H880.337C883.325 145.382 885.596 144.635 887.148 143.141C888.73 141.646 889.521 139.537 889.521 136.812C889.521 133.824 888.716 131.437 887.104 129.649C885.493 127.862 883.296 126.954 880.513 126.925H870.229V145.382ZM973.012 148.326C973.012 154.566 971.855 160.089 969.541 164.894C967.226 169.698 963.93 173.404 959.653 176.012C955.405 178.59 950.556 179.879 945.107 179.879C939.658 179.879 934.824 178.634 930.605 176.144C926.386 173.624 923.09 170.035 920.717 165.377C918.374 160.719 917.143 155.372 917.026 149.337V145.733C917.026 139.464 918.169 133.941 920.454 129.166C922.768 124.361 926.064 120.655 930.341 118.048C934.648 115.44 939.541 114.137 945.019 114.137C950.439 114.137 955.273 115.426 959.521 118.004C963.769 120.582 967.065 124.259 969.409 129.034C971.782 133.78 972.983 139.229 973.012 145.382V148.326ZM957.324 145.646C957.324 139.288 956.255 134.469 954.116 131.188C952.006 127.877 948.974 126.222 945.019 126.222C937.285 126.222 933.198 132.022 932.758 143.624L932.714 148.326C932.714 154.596 933.755 159.415 935.835 162.784C937.915 166.153 941.005 167.838 945.107 167.838C949.004 167.838 952.006 166.183 954.116 162.872C956.225 159.562 957.295 154.801 957.324 148.59V145.646ZM1017.52 132.77C1017.52 130.748 1016.73 129.122 1015.15 127.892C1013.6 126.661 1011.49 126.046 1008.82 126.046C1006.33 126.046 1004.33 126.646 1002.8 127.848C1001.31 129.02 1000.56 130.572 1000.56 132.506H985.18C985.18 128.99 986.176 125.841 988.168 123.058C990.19 120.274 993.031 118.106 996.694 116.554C1000.36 114.972 1004.4 114.181 1008.82 114.181C1016.44 114.181 1022.36 115.777 1026.58 118.971C1030.82 122.164 1032.95 126.632 1032.95 132.374C1032.95 135.304 1032.08 137.984 1030.36 140.416C1028.66 142.818 1026.3 144.723 1023.28 146.129C1026.74 147.359 1029.37 149.234 1031.19 151.754C1033.04 154.244 1033.96 157.35 1033.96 161.07C1033.96 166.812 1031.67 171.383 1027.1 174.781C1022.53 178.15 1016.44 179.835 1008.82 179.835C1001.76 179.835 995.903 178.18 991.244 174.869C986.586 171.529 984.257 166.988 984.257 161.246H999.726C999.726 163.15 1000.58 164.762 1002.27 166.08C1003.97 167.369 1006.16 168.014 1008.82 168.014C1011.69 168.014 1014.02 167.34 1015.81 165.992C1017.6 164.645 1018.49 162.887 1018.49 160.719C1018.49 157.555 1017.73 155.328 1016.21 154.039C1014.68 152.721 1012.46 152.062 1009.53 152.062H1001.31V140.636H1010.05C1015.03 140.489 1017.52 137.867 1017.52 132.77ZM1085.99 115.016H1101.41V179H1085.99V138.658L1063 179H1047.58V115.016H1063V155.401L1085.99 115.016ZM1170.44 148.326C1170.44 154.566 1169.29 160.089 1166.97 164.894C1164.66 169.698 1161.36 173.404 1157.08 176.012C1152.84 178.59 1147.99 179.879 1142.54 179.879C1137.09 179.879 1132.25 178.634 1128.04 176.144C1123.82 173.624 1120.52 170.035 1118.15 165.377C1115.8 160.719 1114.57 155.372 1114.46 149.337V145.733C1114.46 139.464 1115.6 133.941 1117.88 129.166C1120.2 124.361 1123.49 120.655 1127.77 118.048C1132.08 115.44 1136.97 114.137 1142.45 114.137C1147.87 114.137 1152.7 115.426 1156.95 118.004C1161.2 120.582 1164.5 124.259 1166.84 129.034C1169.21 133.78 1170.41 139.229 1170.44 145.382V148.326ZM1154.75 145.646C1154.75 139.288 1153.68 134.469 1151.55 131.188C1149.44 127.877 1146.4 126.222 1142.45 126.222C1134.72 126.222 1130.63 132.022 1130.19 143.624L1130.14 148.326C1130.14 154.596 1131.18 159.415 1133.27 162.784C1135.35 166.153 1138.44 167.838 1142.54 167.838C1146.43 167.838 1149.44 166.183 1151.55 162.872C1153.66 159.562 1154.72 154.801 1154.75 148.59V145.646ZM1237.28 179H1221.94V152.281H1199.22V179H1183.8V115.016H1199.22V140.416H1221.94V115.016H1237.28V179ZM1305.96 179H1290.62V152.281H1267.9V179H1252.48V115.016H1267.9V140.416H1290.62V115.016H1305.96V179ZM1375.34 148.326C1375.34 154.566 1374.19 160.089 1371.87 164.894C1369.56 169.698 1366.26 173.404 1361.98 176.012C1357.74 178.59 1352.89 179.879 1347.44 179.879C1341.99 179.879 1337.16 178.634 1332.94 176.144C1328.72 173.624 1325.42 170.035 1323.05 165.377C1320.71 160.719 1319.47 155.372 1319.36 149.337V145.733C1319.36 139.464 1320.5 133.941 1322.79 129.166C1325.1 124.361 1328.4 120.655 1332.67 118.048C1336.98 115.44 1341.87 114.137 1347.35 114.137C1352.77 114.137 1357.6 115.426 1361.85 118.004C1366.1 120.582 1369.4 124.259 1371.74 129.034C1374.11 133.78 1375.31 139.229 1375.34 145.382V148.326ZM1359.66 145.646C1359.66 139.288 1358.59 134.469 1356.45 131.188C1354.34 127.877 1351.31 126.222 1347.35 126.222C1339.62 126.222 1335.53 132.022 1335.09 143.624L1335.05 148.326C1335.05 154.596 1336.09 159.415 1338.17 162.784C1340.25 166.153 1343.34 167.838 1347.44 167.838C1351.34 167.838 1354.34 166.183 1356.45 162.872C1358.56 159.562 1359.63 154.801 1359.66 148.59V145.646ZM1431.85 126.925H1404.04V179H1388.61V115.016H1431.85V126.925ZM1495.48 148.326C1495.48 154.566 1494.32 160.089 1492.01 164.894C1489.69 169.698 1486.4 173.404 1482.12 176.012C1477.87 178.59 1473.02 179.879 1467.57 179.879C1462.13 179.879 1457.29 178.634 1453.07 176.144C1448.85 173.624 1445.56 170.035 1443.18 165.377C1440.84 160.719 1439.61 155.372 1439.49 149.337V145.733C1439.49 139.464 1440.64 133.941 1442.92 129.166C1445.24 124.361 1448.53 120.655 1452.81 118.048C1457.12 115.44 1462.01 114.137 1467.49 114.137C1472.91 114.137 1477.74 115.426 1481.99 118.004C1486.24 120.582 1489.53 124.259 1491.88 129.034C1494.25 133.78 1495.45 139.229 1495.48 145.382V148.326ZM1479.79 145.646C1479.79 139.288 1478.72 134.469 1476.58 131.188C1474.47 127.877 1471.44 126.222 1467.49 126.222C1459.75 126.222 1455.67 132.022 1455.23 143.624L1455.18 148.326C1455.18 154.596 1456.22 159.415 1458.3 162.784C1460.38 166.153 1463.47 167.838 1467.57 167.838C1471.47 167.838 1474.47 166.183 1476.58 162.872C1478.69 159.562 1479.76 154.801 1479.79 148.59V145.646ZM805.19 207.016L819.473 251.532L833.711 207.016H854.014V271H838.545V256.059L840.039 225.473L824.57 271H814.375L798.862 225.429L800.356 256.059V271H784.932V207.016H805.19ZM923.442 240.326C923.442 246.566 922.285 252.089 919.97 256.894C917.656 261.698 914.36 265.404 910.083 268.012C905.835 270.59 900.986 271.879 895.537 271.879C890.088 271.879 885.254 270.634 881.035 268.144C876.816 265.624 873.52 262.035 871.147 257.377C868.803 252.719 867.573 247.372 867.456 241.337V237.733C867.456 231.464 868.598 225.941 870.883 221.166C873.198 216.361 876.494 212.655 880.771 210.048C885.078 207.44 889.97 206.137 895.449 206.137C900.869 206.137 905.703 207.426 909.951 210.004C914.199 212.582 917.495 216.259 919.839 221.034C922.212 225.78 923.413 231.229 923.442 237.382V240.326ZM907.754 237.646C907.754 231.288 906.684 226.469 904.546 223.188C902.436 219.877 899.404 218.222 895.449 218.222C887.714 218.222 883.628 224.022 883.188 235.624L883.144 240.326C883.144 246.596 884.184 251.415 886.264 254.784C888.344 258.153 891.435 259.838 895.537 259.838C899.433 259.838 902.436 258.183 904.546 254.872C906.655 251.562 907.724 246.801 907.754 240.59V237.646ZM990.278 271H974.941V244.281H952.221V271H936.796V207.016H952.221V232.416H974.941V207.016H990.278V271ZM1043.01 207.016H1058.43V271H1043.01V230.658L1020.02 271H1004.6V207.016H1020.02V247.401L1043.01 207.016ZM1122.19 218.925H1102.99V271H1087.56V218.925H1068.71V207.016H1122.19V218.925ZM1187.09 240.326C1187.09 246.566 1185.94 252.089 1183.62 256.894C1181.31 261.698 1178.01 265.404 1173.73 268.012C1169.49 270.59 1164.64 271.879 1159.19 271.879C1153.74 271.879 1148.9 270.634 1144.69 268.144C1140.47 265.624 1137.17 262.035 1134.8 257.377C1132.45 252.719 1131.22 247.372 1131.11 241.337V237.733C1131.11 231.464 1132.25 225.941 1134.53 221.166C1136.85 216.361 1140.14 212.655 1144.42 210.048C1148.73 207.44 1153.62 206.137 1159.1 206.137C1164.52 206.137 1169.35 207.426 1173.6 210.004C1177.85 212.582 1181.15 216.259 1183.49 221.034C1185.86 225.78 1187.06 231.229 1187.09 237.382V240.326ZM1171.4 237.646C1171.4 231.288 1170.33 226.469 1168.2 223.188C1166.09 219.877 1163.05 218.222 1159.1 218.222C1151.37 218.222 1147.28 224.022 1146.84 235.624L1146.79 240.326C1146.79 246.596 1147.83 251.415 1149.92 254.784C1152 258.153 1155.09 259.838 1159.19 259.838C1163.08 259.838 1166.09 258.183 1168.2 254.872C1170.31 251.562 1171.38 246.801 1171.4 240.59V237.646ZM1215.87 249.291V271H1200.45V207.016H1225.98C1230.87 207.016 1235.19 207.924 1238.94 209.74C1242.72 211.527 1245.64 214.091 1247.69 217.431C1249.77 220.741 1250.81 224.506 1250.81 228.725C1250.81 234.965 1248.57 239.96 1244.08 243.71C1239.63 247.431 1233.51 249.291 1225.72 249.291H1215.87ZM1215.87 237.382H1225.98C1228.97 237.382 1231.24 236.635 1232.79 235.141C1234.37 233.646 1235.16 231.537 1235.16 228.812C1235.16 225.824 1234.36 223.437 1232.75 221.649C1231.14 219.862 1228.94 218.954 1226.15 218.925H1215.87V237.382ZM1302 207.016H1317.42V271H1302V230.658L1279.02 271H1263.59V207.016H1279.02V247.401L1302 207.016ZM1385.75 271H1370.42V244.281H1347.7V271H1332.27V207.016H1347.7V232.416H1370.42V207.016H1385.75V271ZM1444.11 218.925H1416.29V271H1400.87V207.016H1444.11V218.925ZM1483.83 259.047H1462.69L1459 271H1442.52L1465.99 207.016H1480.49L1504.13 271H1487.56L1483.83 259.047ZM1466.38 247.138H1480.14L1473.24 224.945L1466.38 247.138Z" stroke="white" stroke-width="4" mask="url(#path-2-outside-2)"/>
</g>
<defs>
<filter id="filter0_f" x="18.2028" y="18.0928" width="1490.36" height="257.786" filterUnits="userSpaceOnUse" color-interpolation-filters="sRGB">
<feFlood flood-opacity="0" result="BackgroundImageFix"/>
<feBlend mode="normal" in="SourceGraphic" in2="BackgroundImageFix" result="shape"/>
<feGaussianBlur stdDeviation="1.5" result="effect1_foregroundBlur"/>
</filter>
<filter id="filter1_f" x="0.202759" y="0.0927734" width="1526.8" height="293.786" filterUnits="userSpaceOnUse" color-interpolation-filters="sRGB">
<feFlood flood-opacity="0" result="BackgroundImageFix"/>
<feBlend mode="normal" in="SourceGraphic" in2="BackgroundImageFix" result="shape"/>
<feGaussianBlur stdDeviation="10" result="effect1_foregroundBlur"/>
</filter>
</defs>
</svg>
