<svg width="1214" height="364" viewBox="0 0 1214 364" fill="none" xmlns="http://www.w3.org/2000/svg">
<g opacity="0.2" filter="url(#filter0_f)">
<mask id="path-1-outside-1" maskUnits="userSpaceOnUse" x="20.6719" y="20.8438" width="1174" height="323" fill="black">
<rect fill="white" x="20.6719" y="20.8438" width="1174" height="323"/>
<path d="M112.996 72.0508H80.5625V160H54.5117V72.0508H22.6719V51.9375H112.996V72.0508ZM200.194 114.207H159.225V139.961H207.616V160H133.175V51.9375H207.765V72.0508H159.225V94.8359H200.194V114.207ZM267.65 87.8594L285.314 51.9375H315.076L284.869 105.523L315.892 160H285.834L267.65 123.41L249.467 160H219.482L250.431 105.523L220.299 51.9375H249.986L267.65 87.8594ZM423.872 160H397.969V114.875H359.598V160H333.547V51.9375H359.598V94.8359H397.969V51.9375H423.872V160ZM512.925 51.9375H538.976V160H512.925V91.8672L474.109 160H448.058V51.9375H474.109V120.145L512.925 51.9375ZM652.002 51.9375V160H626.026V120.07L618.381 121.035L608.807 121.629C594.26 121.629 583.127 118.487 575.409 112.203C567.69 105.87 563.781 96.9141 563.682 85.3359V51.9375H589.733V84.9648C589.733 90.8529 591.143 95.1081 593.963 97.7305C596.833 100.303 601.781 101.59 608.807 101.59L611.034 101.516C617.12 101.219 622.117 100.749 626.026 100.105V51.9375H652.002ZM744.396 114.207H703.427V139.961H751.818V160H677.376V51.9375H751.966V72.0508H703.427V94.8359H744.396V114.207ZM858.981 123.41C858.634 130.931 856.606 137.586 852.895 143.375C849.184 149.115 843.964 153.568 837.235 156.734C830.555 159.901 822.91 161.484 814.301 161.484C800.1 161.484 788.918 156.858 780.754 147.605C772.59 138.353 768.508 125.29 768.508 108.418V103.074C768.508 92.4857 770.339 83.2331 774 75.3164C777.711 67.3503 783.03 61.2148 789.957 56.9102C796.884 52.556 804.9 50.3789 814.004 50.3789C827.116 50.3789 837.655 53.8424 845.621 60.7695C853.587 67.6471 858.115 77.1471 859.203 89.2695H833.227C833.029 82.6888 831.371 77.9635 828.254 75.0938C825.137 72.224 820.387 70.7891 814.004 70.7891C807.522 70.7891 802.772 73.2135 799.754 78.0625C796.736 82.9115 795.153 90.6549 795.004 101.293V108.938C795.004 120.466 796.439 128.704 799.309 133.652C802.228 138.6 807.225 141.074 814.301 141.074C820.288 141.074 824.865 139.664 828.031 136.844C831.198 134.023 832.88 129.546 833.078 123.41H858.981ZM918.644 117.25H906.323V160H880.273V51.9375H906.323V93.7227H916.343L937.124 51.9375H968.667L938.98 101.812L972.378 160H941.577L918.644 117.25ZM1051.34 51.9375H1077.39V160H1051.34V91.8672L1012.52 160H986.471V51.9375H1012.52V120.145L1051.34 51.9375ZM1165.85 51.9375H1191.9V160H1165.85V91.8672L1127.03 160H1100.98V51.9375H1127.03V120.145L1165.85 51.9375ZM1174.09 22.8438C1174.09 29.6224 1171.59 35.1146 1166.59 39.3203C1161.59 43.526 1154.94 45.6289 1146.63 45.6289C1138.31 45.6289 1131.66 43.526 1126.66 39.3203C1121.66 35.1146 1119.16 29.6224 1119.16 22.8438H1136.16C1136.16 25.8125 1137.08 28.138 1138.91 29.8203C1140.79 31.4531 1143.36 32.2695 1146.63 32.2695C1149.89 32.2695 1152.41 31.4779 1154.2 29.8945C1156.03 28.2617 1156.94 25.9115 1156.94 22.8438H1174.09ZM119.676 263.195C119.676 273.734 117.721 283.061 113.812 291.176C109.904 299.29 104.337 305.549 97.1133 309.953C89.9388 314.307 81.75 316.484 72.5469 316.484C63.3438 316.484 55.1797 314.382 48.0547 310.176C40.9297 305.921 35.3633 299.859 31.3555 291.992C27.3971 284.125 25.319 275.095 25.1211 264.902V258.816C25.1211 248.228 27.0508 238.901 30.9102 230.836C34.819 222.721 40.3854 216.462 47.6094 212.059C54.8828 207.655 63.1458 205.453 72.3984 205.453C81.5521 205.453 89.7161 207.63 96.8906 211.984C104.065 216.339 109.632 222.548 113.59 230.613C117.598 238.629 119.626 247.832 119.676 258.223V263.195ZM93.1797 258.668C93.1797 247.931 91.3737 239.792 87.7617 234.25C84.1992 228.659 79.0781 225.863 72.3984 225.863C59.3359 225.863 52.4336 235.66 51.6914 255.254L51.6172 263.195C51.6172 273.784 53.3737 281.923 56.8867 287.613C60.3997 293.303 65.6198 296.148 72.5469 296.148C79.1276 296.148 84.1992 293.353 87.7617 287.762C91.3242 282.171 93.1302 274.13 93.1797 263.641V258.668ZM220.679 227.051H188.245V315H162.194V227.051H130.354V206.938H220.679V227.051ZM335.857 341.57H312.478V315H253.623V341.496H229.502L227.646 294.961H235.291C239.299 292.289 242.515 287.712 244.939 281.23C247.413 274.699 249.17 265.348 250.209 253.176L253.549 206.938H327.099V294.961H338.603L335.857 341.57ZM264.756 294.961H301.123V227.051H278.115L276.111 254.066C274.627 271.582 270.842 285.214 264.756 294.961ZM423.723 269.207H382.755V294.961H431.145V315H356.704V206.938H431.294V227.051H382.755V249.836H423.723V269.207ZM541.796 206.938V315H515.746V227.051H491.476L489.695 263.344C488.953 275.862 487.221 285.857 484.5 293.328C481.778 300.799 477.894 306.267 472.847 309.73C467.85 313.145 461.022 314.901 452.363 315H445.386V294.961L449.023 294.59C454.218 293.848 457.979 290.681 460.304 285.09C462.63 279.449 464.139 269.974 464.832 256.664L466.687 206.938H541.796Z"/>
</mask>
<path d="M112.996 72.0508H80.5625V160H54.5117V72.0508H22.6719V51.9375H112.996V72.0508ZM200.194 114.207H159.225V139.961H207.616V160H133.175V51.9375H207.765V72.0508H159.225V94.8359H200.194V114.207ZM267.65 87.8594L285.314 51.9375H315.076L284.869 105.523L315.892 160H285.834L267.65 123.41L249.467 160H219.482L250.431 105.523L220.299 51.9375H249.986L267.65 87.8594ZM423.872 160H397.969V114.875H359.598V160H333.547V51.9375H359.598V94.8359H397.969V51.9375H423.872V160ZM512.925 51.9375H538.976V160H512.925V91.8672L474.109 160H448.058V51.9375H474.109V120.145L512.925 51.9375ZM652.002 51.9375V160H626.026V120.07L618.381 121.035L608.807 121.629C594.26 121.629 583.127 118.487 575.409 112.203C567.69 105.87 563.781 96.9141 563.682 85.3359V51.9375H589.733V84.9648C589.733 90.8529 591.143 95.1081 593.963 97.7305C596.833 100.303 601.781 101.59 608.807 101.59L611.034 101.516C617.12 101.219 622.117 100.749 626.026 100.105V51.9375H652.002ZM744.396 114.207H703.427V139.961H751.818V160H677.376V51.9375H751.966V72.0508H703.427V94.8359H744.396V114.207ZM858.981 123.41C858.634 130.931 856.606 137.586 852.895 143.375C849.184 149.115 843.964 153.568 837.235 156.734C830.555 159.901 822.91 161.484 814.301 161.484C800.1 161.484 788.918 156.858 780.754 147.605C772.59 138.353 768.508 125.29 768.508 108.418V103.074C768.508 92.4857 770.339 83.2331 774 75.3164C777.711 67.3503 783.03 61.2148 789.957 56.9102C796.884 52.556 804.9 50.3789 814.004 50.3789C827.116 50.3789 837.655 53.8424 845.621 60.7695C853.587 67.6471 858.115 77.1471 859.203 89.2695H833.227C833.029 82.6888 831.371 77.9635 828.254 75.0938C825.137 72.224 820.387 70.7891 814.004 70.7891C807.522 70.7891 802.772 73.2135 799.754 78.0625C796.736 82.9115 795.153 90.6549 795.004 101.293V108.938C795.004 120.466 796.439 128.704 799.309 133.652C802.228 138.6 807.225 141.074 814.301 141.074C820.288 141.074 824.865 139.664 828.031 136.844C831.198 134.023 832.88 129.546 833.078 123.41H858.981ZM918.644 117.25H906.323V160H880.273V51.9375H906.323V93.7227H916.343L937.124 51.9375H968.667L938.98 101.812L972.378 160H941.577L918.644 117.25ZM1051.34 51.9375H1077.39V160H1051.34V91.8672L1012.52 160H986.471V51.9375H1012.52V120.145L1051.34 51.9375ZM1165.85 51.9375H1191.9V160H1165.85V91.8672L1127.03 160H1100.98V51.9375H1127.03V120.145L1165.85 51.9375ZM1174.09 22.8438C1174.09 29.6224 1171.59 35.1146 1166.59 39.3203C1161.59 43.526 1154.94 45.6289 1146.63 45.6289C1138.31 45.6289 1131.66 43.526 1126.66 39.3203C1121.66 35.1146 1119.16 29.6224 1119.16 22.8438H1136.16C1136.16 25.8125 1137.08 28.138 1138.91 29.8203C1140.79 31.4531 1143.36 32.2695 1146.63 32.2695C1149.89 32.2695 1152.41 31.4779 1154.2 29.8945C1156.03 28.2617 1156.94 25.9115 1156.94 22.8438H1174.09ZM119.676 263.195C119.676 273.734 117.721 283.061 113.812 291.176C109.904 299.29 104.337 305.549 97.1133 309.953C89.9388 314.307 81.75 316.484 72.5469 316.484C63.3438 316.484 55.1797 314.382 48.0547 310.176C40.9297 305.921 35.3633 299.859 31.3555 291.992C27.3971 284.125 25.319 275.095 25.1211 264.902V258.816C25.1211 248.228 27.0508 238.901 30.9102 230.836C34.819 222.721 40.3854 216.462 47.6094 212.059C54.8828 207.655 63.1458 205.453 72.3984 205.453C81.5521 205.453 89.7161 207.63 96.8906 211.984C104.065 216.339 109.632 222.548 113.59 230.613C117.598 238.629 119.626 247.832 119.676 258.223V263.195ZM93.1797 258.668C93.1797 247.931 91.3737 239.792 87.7617 234.25C84.1992 228.659 79.0781 225.863 72.3984 225.863C59.3359 225.863 52.4336 235.66 51.6914 255.254L51.6172 263.195C51.6172 273.784 53.3737 281.923 56.8867 287.613C60.3997 293.303 65.6198 296.148 72.5469 296.148C79.1276 296.148 84.1992 293.353 87.7617 287.762C91.3242 282.171 93.1302 274.13 93.1797 263.641V258.668ZM220.679 227.051H188.245V315H162.194V227.051H130.354V206.938H220.679V227.051ZM335.857 341.57H312.478V315H253.623V341.496H229.502L227.646 294.961H235.291C239.299 292.289 242.515 287.712 244.939 281.23C247.413 274.699 249.17 265.348 250.209 253.176L253.549 206.938H327.099V294.961H338.603L335.857 341.57ZM264.756 294.961H301.123V227.051H278.115L276.111 254.066C274.627 271.582 270.842 285.214 264.756 294.961ZM423.723 269.207H382.755V294.961H431.145V315H356.704V206.938H431.294V227.051H382.755V249.836H423.723V269.207ZM541.796 206.938V315H515.746V227.051H491.476L489.695 263.344C488.953 275.862 487.221 285.857 484.5 293.328C481.778 300.799 477.894 306.267 472.847 309.73C467.85 313.145 461.022 314.901 452.363 315H445.386V294.961L449.023 294.59C454.218 293.848 457.979 290.681 460.304 285.09C462.63 279.449 464.139 269.974 464.832 256.664L466.687 206.938H541.796Z" stroke="white" stroke-width="4" mask="url(#path-1-outside-1)"/>
</g>
<g opacity="0.6" filter="url(#filter1_f)">
<mask id="path-2-outside-2" maskUnits="userSpaceOnUse" x="21.6719" y="21.8438" width="1172" height="321" fill="black">
<rect fill="white" x="21.6719" y="21.8438" width="1172" height="321"/>
<path d="M112.996 72.0508H80.5625V160H54.5117V72.0508H22.6719V51.9375H112.996V72.0508ZM200.194 114.207H159.225V139.961H207.616V160H133.175V51.9375H207.765V72.0508H159.225V94.8359H200.194V114.207ZM267.65 87.8594L285.314 51.9375H315.076L284.869 105.523L315.892 160H285.834L267.65 123.41L249.467 160H219.482L250.431 105.523L220.299 51.9375H249.986L267.65 87.8594ZM423.872 160H397.969V114.875H359.598V160H333.547V51.9375H359.598V94.8359H397.969V51.9375H423.872V160ZM512.925 51.9375H538.976V160H512.925V91.8672L474.109 160H448.058V51.9375H474.109V120.145L512.925 51.9375ZM652.002 51.9375V160H626.026V120.07L618.381 121.035L608.807 121.629C594.26 121.629 583.127 118.487 575.409 112.203C567.69 105.87 563.781 96.9141 563.682 85.3359V51.9375H589.733V84.9648C589.733 90.8529 591.143 95.1081 593.963 97.7305C596.833 100.303 601.781 101.59 608.807 101.59L611.034 101.516C617.12 101.219 622.117 100.749 626.026 100.105V51.9375H652.002ZM744.396 114.207H703.427V139.961H751.818V160H677.376V51.9375H751.966V72.0508H703.427V94.8359H744.396V114.207ZM858.981 123.41C858.634 130.931 856.606 137.586 852.895 143.375C849.184 149.115 843.964 153.568 837.235 156.734C830.555 159.901 822.91 161.484 814.301 161.484C800.1 161.484 788.918 156.858 780.754 147.605C772.59 138.353 768.508 125.29 768.508 108.418V103.074C768.508 92.4857 770.339 83.2331 774 75.3164C777.711 67.3503 783.03 61.2148 789.957 56.9102C796.884 52.556 804.9 50.3789 814.004 50.3789C827.116 50.3789 837.655 53.8424 845.621 60.7695C853.587 67.6471 858.115 77.1471 859.203 89.2695H833.227C833.029 82.6888 831.371 77.9635 828.254 75.0938C825.137 72.224 820.387 70.7891 814.004 70.7891C807.522 70.7891 802.772 73.2135 799.754 78.0625C796.736 82.9115 795.153 90.6549 795.004 101.293V108.938C795.004 120.466 796.439 128.704 799.309 133.652C802.228 138.6 807.225 141.074 814.301 141.074C820.288 141.074 824.865 139.664 828.031 136.844C831.198 134.023 832.88 129.546 833.078 123.41H858.981ZM918.644 117.25H906.323V160H880.273V51.9375H906.323V93.7227H916.343L937.124 51.9375H968.667L938.98 101.812L972.378 160H941.577L918.644 117.25ZM1051.34 51.9375H1077.39V160H1051.34V91.8672L1012.52 160H986.471V51.9375H1012.52V120.145L1051.34 51.9375ZM1165.85 51.9375H1191.9V160H1165.85V91.8672L1127.03 160H1100.98V51.9375H1127.03V120.145L1165.85 51.9375ZM1174.09 22.8438C1174.09 29.6224 1171.59 35.1146 1166.59 39.3203C1161.59 43.526 1154.94 45.6289 1146.63 45.6289C1138.31 45.6289 1131.66 43.526 1126.66 39.3203C1121.66 35.1146 1119.16 29.6224 1119.16 22.8438H1136.16C1136.16 25.8125 1137.08 28.138 1138.91 29.8203C1140.79 31.4531 1143.36 32.2695 1146.63 32.2695C1149.89 32.2695 1152.41 31.4779 1154.2 29.8945C1156.03 28.2617 1156.94 25.9115 1156.94 22.8438H1174.09ZM119.676 263.195C119.676 273.734 117.721 283.061 113.812 291.176C109.904 299.29 104.337 305.549 97.1133 309.953C89.9388 314.307 81.75 316.484 72.5469 316.484C63.3438 316.484 55.1797 314.382 48.0547 310.176C40.9297 305.921 35.3633 299.859 31.3555 291.992C27.3971 284.125 25.319 275.095 25.1211 264.902V258.816C25.1211 248.228 27.0508 238.901 30.9102 230.836C34.819 222.721 40.3854 216.462 47.6094 212.059C54.8828 207.655 63.1458 205.453 72.3984 205.453C81.5521 205.453 89.7161 207.63 96.8906 211.984C104.065 216.339 109.632 222.548 113.59 230.613C117.598 238.629 119.626 247.832 119.676 258.223V263.195ZM93.1797 258.668C93.1797 247.931 91.3737 239.792 87.7617 234.25C84.1992 228.659 79.0781 225.863 72.3984 225.863C59.3359 225.863 52.4336 235.66 51.6914 255.254L51.6172 263.195C51.6172 273.784 53.3737 281.923 56.8867 287.613C60.3997 293.303 65.6198 296.148 72.5469 296.148C79.1276 296.148 84.1992 293.353 87.7617 287.762C91.3242 282.171 93.1302 274.13 93.1797 263.641V258.668ZM220.679 227.051H188.245V315H162.194V227.051H130.354V206.938H220.679V227.051ZM335.857 341.57H312.478V315H253.623V341.496H229.502L227.646 294.961H235.291C239.299 292.289 242.515 287.712 244.939 281.23C247.413 274.699 249.17 265.348 250.209 253.176L253.549 206.938H327.099V294.961H338.603L335.857 341.57ZM264.756 294.961H301.123V227.051H278.115L276.111 254.066C274.627 271.582 270.842 285.214 264.756 294.961ZM423.723 269.207H382.755V294.961H431.145V315H356.704V206.938H431.294V227.051H382.755V249.836H423.723V269.207ZM541.796 206.938V315H515.746V227.051H491.476L489.695 263.344C488.953 275.862 487.221 285.857 484.5 293.328C481.778 300.799 477.894 306.267 472.847 309.73C467.85 313.145 461.022 314.901 452.363 315H445.386V294.961L449.023 294.59C454.218 293.848 457.979 290.681 460.304 285.09C462.63 279.449 464.139 269.974 464.832 256.664L466.687 206.938H541.796Z"/>
</mask>
<path d="M112.996 72.0508H80.5625V160H54.5117V72.0508H22.6719V51.9375H112.996V72.0508ZM200.194 114.207H159.225V139.961H207.616V160H133.175V51.9375H207.765V72.0508H159.225V94.8359H200.194V114.207ZM267.65 87.8594L285.314 51.9375H315.076L284.869 105.523L315.892 160H285.834L267.65 123.41L249.467 160H219.482L250.431 105.523L220.299 51.9375H249.986L267.65 87.8594ZM423.872 160H397.969V114.875H359.598V160H333.547V51.9375H359.598V94.8359H397.969V51.9375H423.872V160ZM512.925 51.9375H538.976V160H512.925V91.8672L474.109 160H448.058V51.9375H474.109V120.145L512.925 51.9375ZM652.002 51.9375V160H626.026V120.07L618.381 121.035L608.807 121.629C594.26 121.629 583.127 118.487 575.409 112.203C567.69 105.87 563.781 96.9141 563.682 85.3359V51.9375H589.733V84.9648C589.733 90.8529 591.143 95.1081 593.963 97.7305C596.833 100.303 601.781 101.59 608.807 101.59L611.034 101.516C617.12 101.219 622.117 100.749 626.026 100.105V51.9375H652.002ZM744.396 114.207H703.427V139.961H751.818V160H677.376V51.9375H751.966V72.0508H703.427V94.8359H744.396V114.207ZM858.981 123.41C858.634 130.931 856.606 137.586 852.895 143.375C849.184 149.115 843.964 153.568 837.235 156.734C830.555 159.901 822.91 161.484 814.301 161.484C800.1 161.484 788.918 156.858 780.754 147.605C772.59 138.353 768.508 125.29 768.508 108.418V103.074C768.508 92.4857 770.339 83.2331 774 75.3164C777.711 67.3503 783.03 61.2148 789.957 56.9102C796.884 52.556 804.9 50.3789 814.004 50.3789C827.116 50.3789 837.655 53.8424 845.621 60.7695C853.587 67.6471 858.115 77.1471 859.203 89.2695H833.227C833.029 82.6888 831.371 77.9635 828.254 75.0938C825.137 72.224 820.387 70.7891 814.004 70.7891C807.522 70.7891 802.772 73.2135 799.754 78.0625C796.736 82.9115 795.153 90.6549 795.004 101.293V108.938C795.004 120.466 796.439 128.704 799.309 133.652C802.228 138.6 807.225 141.074 814.301 141.074C820.288 141.074 824.865 139.664 828.031 136.844C831.198 134.023 832.88 129.546 833.078 123.41H858.981ZM918.644 117.25H906.323V160H880.273V51.9375H906.323V93.7227H916.343L937.124 51.9375H968.667L938.98 101.812L972.378 160H941.577L918.644 117.25ZM1051.34 51.9375H1077.39V160H1051.34V91.8672L1012.52 160H986.471V51.9375H1012.52V120.145L1051.34 51.9375ZM1165.85 51.9375H1191.9V160H1165.85V91.8672L1127.03 160H1100.98V51.9375H1127.03V120.145L1165.85 51.9375ZM1174.09 22.8438C1174.09 29.6224 1171.59 35.1146 1166.59 39.3203C1161.59 43.526 1154.94 45.6289 1146.63 45.6289C1138.31 45.6289 1131.66 43.526 1126.66 39.3203C1121.66 35.1146 1119.16 29.6224 1119.16 22.8438H1136.16C1136.16 25.8125 1137.08 28.138 1138.91 29.8203C1140.79 31.4531 1143.36 32.2695 1146.63 32.2695C1149.89 32.2695 1152.41 31.4779 1154.2 29.8945C1156.03 28.2617 1156.94 25.9115 1156.94 22.8438H1174.09ZM119.676 263.195C119.676 273.734 117.721 283.061 113.812 291.176C109.904 299.29 104.337 305.549 97.1133 309.953C89.9388 314.307 81.75 316.484 72.5469 316.484C63.3438 316.484 55.1797 314.382 48.0547 310.176C40.9297 305.921 35.3633 299.859 31.3555 291.992C27.3971 284.125 25.319 275.095 25.1211 264.902V258.816C25.1211 248.228 27.0508 238.901 30.9102 230.836C34.819 222.721 40.3854 216.462 47.6094 212.059C54.8828 207.655 63.1458 205.453 72.3984 205.453C81.5521 205.453 89.7161 207.63 96.8906 211.984C104.065 216.339 109.632 222.548 113.59 230.613C117.598 238.629 119.626 247.832 119.676 258.223V263.195ZM93.1797 258.668C93.1797 247.931 91.3737 239.792 87.7617 234.25C84.1992 228.659 79.0781 225.863 72.3984 225.863C59.3359 225.863 52.4336 235.66 51.6914 255.254L51.6172 263.195C51.6172 273.784 53.3737 281.923 56.8867 287.613C60.3997 293.303 65.6198 296.148 72.5469 296.148C79.1276 296.148 84.1992 293.353 87.7617 287.762C91.3242 282.171 93.1302 274.13 93.1797 263.641V258.668ZM220.679 227.051H188.245V315H162.194V227.051H130.354V206.938H220.679V227.051ZM335.857 341.57H312.478V315H253.623V341.496H229.502L227.646 294.961H235.291C239.299 292.289 242.515 287.712 244.939 281.23C247.413 274.699 249.17 265.348 250.209 253.176L253.549 206.938H327.099V294.961H338.603L335.857 341.57ZM264.756 294.961H301.123V227.051H278.115L276.111 254.066C274.627 271.582 270.842 285.214 264.756 294.961ZM423.723 269.207H382.755V294.961H431.145V315H356.704V206.938H431.294V227.051H382.755V249.836H423.723V269.207ZM541.796 206.938V315H515.746V227.051H491.476L489.695 263.344C488.953 275.862 487.221 285.857 484.5 293.328C481.778 300.799 477.894 306.267 472.847 309.73C467.85 313.145 461.022 314.901 452.363 315H445.386V294.961L449.023 294.59C454.218 293.848 457.979 290.681 460.304 285.09C462.63 279.449 464.139 269.974 464.832 256.664L466.687 206.938H541.796Z" stroke="white" stroke-width="2" mask="url(#path-2-outside-2)"/>
</g>
<defs>
<filter id="filter0_f" x="0.671875" y="0.84375" width="1213.23" height="362.727" filterUnits="userSpaceOnUse" color-interpolation-filters="sRGB">
<feFlood flood-opacity="0" result="BackgroundImageFix"/>
<feBlend mode="normal" in="SourceGraphic" in2="BackgroundImageFix" result="shape"/>
<feGaussianBlur stdDeviation="10" result="effect1_foregroundBlur"/>
</filter>
<filter id="filter1_f" x="18.6719" y="18.8438" width="1177.23" height="326.727" filterUnits="userSpaceOnUse" color-interpolation-filters="sRGB">
<feFlood flood-opacity="0" result="BackgroundImageFix"/>
<feBlend mode="normal" in="SourceGraphic" in2="BackgroundImageFix" result="shape"/>
<feGaussianBlur stdDeviation="1.5" result="effect1_foregroundBlur"/>
</filter>
</defs>
</svg>
