<svg width="264" height="53" viewBox="0 0 264 53" fill="none" xmlns="http://www.w3.org/2000/svg">
<g opacity="0.6" filter="url(#filter0_f)">
<path d="M15.1797 2.09375V1.59375H14.8889L14.7451 1.84644L15.1797 2.09375ZM19.9785 2.09375H20.4785V1.59375H19.9785V2.09375ZM19.9785 22V22.5H20.4785V22H19.9785ZM15.1797 22H14.6797V22.5H15.1797V22ZM15.1797 9.44922H15.6797V7.56152L14.7452 9.20171L15.1797 9.44922ZM8.0293 22V22.5H8.31989L8.46374 22.2475L8.0293 22ZM3.23047 22H2.73047V22.5H3.23047V22ZM3.23047 2.09375V1.59375H2.73047V2.09375H3.23047ZM8.0293 2.09375H8.5293V1.59375H8.0293V2.09375ZM8.0293 14.6582H7.5293V16.5477L8.46385 14.9055L8.0293 14.6582ZM15.1797 2.59375H19.9785V1.59375H15.1797V2.59375ZM19.4785 2.09375V22H20.4785V2.09375H19.4785ZM19.9785 21.5H15.1797V22.5H19.9785V21.5ZM15.6797 22V9.44922H14.6797V22H15.6797ZM14.7452 9.20171L7.59486 21.7525L8.46374 22.2475L15.6141 9.69673L14.7452 9.20171ZM8.0293 21.5H3.23047V22.5H8.0293V21.5ZM3.73047 22V2.09375H2.73047V22H3.73047ZM3.23047 2.59375H8.0293V1.59375H3.23047V2.59375ZM7.5293 2.09375V14.6582H8.5293V2.09375H7.5293ZM8.46385 14.9055L15.6142 2.34106L14.7451 1.84644L7.59474 14.4109L8.46385 14.9055ZM40.7034 15.2598L41.2029 15.2828L41.227 14.7598H40.7034V15.2598ZM39.5823 18.9375L40.0022 19.209L40.0033 19.2073L39.5823 18.9375ZM36.6976 21.3984L36.4847 20.946L36.4834 20.9466L36.6976 21.3984ZM25.0491 6.40039L24.5959 6.18926L24.5953 6.1905L25.0491 6.40039ZM27.9886 3.00977L28.2525 3.43445L28.2547 3.43308L27.9886 3.00977ZM38.2425 3.7207L37.9144 4.09801L37.9158 4.09917L38.2425 3.7207ZM40.7445 8.9707V9.4707H41.2914L41.2425 8.92599L40.7445 8.9707ZM35.9593 8.9707L35.4595 8.98573L35.4741 9.4707H35.9593V8.9707ZM35.0433 6.35938L34.7046 6.72722L35.0433 6.35938ZM28.9183 11.1855L28.4183 11.1786V11.1855H28.9183ZM29.7113 17.1465L29.2787 17.3974L29.2806 17.4006L29.7113 17.1465ZM35.932 15.2598V14.7598H35.4478L35.4322 15.2436L35.932 15.2598ZM40.204 15.2368C40.1438 16.543 39.7932 17.6821 39.1614 18.6677L40.0033 19.2073C40.7387 18.0601 41.1355 16.7474 41.2029 15.2828L40.204 15.2368ZM39.1625 18.666C38.534 19.638 37.6474 20.3988 36.4847 20.946L36.9105 21.8508C38.2269 21.2314 39.2635 20.3516 40.0022 19.209L39.1625 18.666ZM36.4834 20.9466C35.33 21.4934 33.997 21.7734 32.473 21.7734V22.7734C34.1209 22.7734 35.6042 22.4701 36.9118 21.8502L36.4834 20.9466ZM32.473 21.7734C29.9766 21.7734 28.0624 20.9661 26.6682 19.386L25.9184 20.0476C27.532 21.8763 29.7376 22.7734 32.473 22.7734V21.7734ZM26.6682 19.386C25.2704 17.8018 24.5374 15.5293 24.5374 12.498H23.5374C23.5374 15.683 24.3084 18.223 25.9184 20.0476L26.6682 19.386ZM24.5374 12.498V11.5137H23.5374V12.498H24.5374ZM24.5374 11.5137C24.5374 9.62042 24.8647 7.99029 25.503 6.61028L24.5953 6.1905C23.8846 7.72716 23.5374 9.50588 23.5374 11.5137H24.5374ZM25.5024 6.61153C26.1483 5.225 27.0654 4.17213 28.2525 3.43444L27.7247 2.58509C26.3597 3.43334 25.3172 4.64088 24.5959 6.18926L25.5024 6.61153ZM28.2547 3.43308C29.4422 2.68663 30.8244 2.30664 32.4183 2.30664V1.30664C30.658 1.30664 29.087 1.72874 27.7225 2.58645L28.2547 3.43308ZM32.4183 2.30664C34.7433 2.30664 36.5585 2.91891 37.9144 4.09801L38.5706 3.3434C36.9917 1.97041 34.924 1.30664 32.4183 1.30664V2.30664ZM37.9158 4.09917C39.2696 5.26799 40.0556 6.88982 40.2465 9.01542L41.2425 8.92599C41.0323 6.58544 40.1503 4.70727 38.5692 3.34224L37.9158 4.09917ZM40.7445 8.4707H35.9593V9.4707H40.7445V8.4707ZM36.4591 8.95567C36.4208 7.68175 36.0983 6.65101 35.3819 5.99153L34.7046 6.72722C35.1367 7.12503 35.4249 7.83518 35.4595 8.98573L36.4591 8.95567ZM35.3819 5.99153C34.6782 5.34364 33.6576 5.06641 32.4183 5.06641V6.06641C33.5305 6.06641 34.2599 6.31781 34.7046 6.72722L35.3819 5.99153ZM32.4183 5.06641C31.0791 5.06641 30.0297 5.58018 29.3688 6.64203L30.2178 7.17047C30.6688 6.44586 31.3694 6.06641 32.4183 6.06641V5.06641ZM29.3688 6.64203C28.7387 7.65425 28.446 9.19444 28.4183 11.1786L29.4182 11.1925C29.4452 9.25739 29.7358 7.94471 30.2178 7.17047L29.3688 6.64203ZM28.4183 11.1855V12.5938H29.4183V11.1855H28.4183ZM28.4183 12.5938C28.4183 14.7328 28.6799 16.3648 29.2787 17.3973L30.1438 16.8956C29.6853 16.1052 29.4183 14.7021 29.4183 12.5938H28.4183ZM29.2806 17.4006C29.9302 18.5015 31.0404 19.0137 32.473 19.0137V18.0137C31.2988 18.0137 30.5678 17.6144 30.1419 16.8924L29.2806 17.4006ZM32.473 19.0137C33.6482 19.0137 34.6283 18.737 35.3348 18.1078L34.6697 17.361C34.2096 17.7708 33.5034 18.0137 32.473 18.0137V19.0137ZM35.3348 18.1078C36.059 17.4628 36.3928 16.4811 36.4317 15.2759L35.4322 15.2436C35.3982 16.2988 35.1122 16.9669 34.6697 17.361L35.3348 18.1078ZM35.932 15.7598H40.7034V14.7598H35.932V15.7598ZM61.3737 22V22.5H61.8737V22H61.3737ZM56.5748 22H56.0748V22.5H56.5748V22ZM56.5748 5.79883H57.0748V5.29883H56.5748V5.79883ZM49.4245 5.79883V5.29883H48.9245V5.79883H49.4245ZM49.4245 22V22.5H49.9245V22H49.4245ZM44.6256 22H44.1256V22.5H44.6256V22ZM44.6256 2.09375V1.59375H44.1256V2.09375H44.6256ZM61.3737 2.09375H61.8737V1.59375H61.3737V2.09375ZM61.3737 21.5H56.5748V22.5H61.3737V21.5ZM57.0748 22V5.79883H56.0748V22H57.0748ZM56.5748 5.29883H49.4245V6.29883H56.5748V5.29883ZM48.9245 5.79883V22H49.9245V5.79883H48.9245ZM49.4245 21.5H44.6256V22.5H49.4245V21.5ZM45.1256 22V2.09375H44.1256V22H45.1256ZM44.6256 2.59375H61.3737V1.59375H44.6256V2.59375ZM60.8737 2.09375V22H61.8737V2.09375H60.8737ZM70.8466 8.94336H70.3466V9.44336H70.8466V8.94336ZM77.5048 9.75L77.3021 10.207L77.5048 9.75ZM80.2939 12.0332L79.8761 12.3079L79.8791 12.3123L80.2939 12.0332ZM79.0908 20.168L78.7697 19.7846L78.7686 19.7856L79.0908 20.168ZM66.0341 22H65.5341V22.5H66.0341V22ZM66.0341 2.09375V1.59375H65.5341V2.09375H66.0341ZM70.8466 2.09375H71.3466V1.59375H70.8466V2.09375ZM87.5127 22V22.5H88.0127V22H87.5127ZM82.7275 22H82.2275V22.5H82.7275V22ZM82.7275 2.09375V1.59375H82.2275V2.09375H82.7275ZM87.5127 2.09375H88.0127V1.59375H87.5127V2.09375ZM70.8466 12.6348V12.1348H70.3466V12.6348H70.8466ZM70.8466 18.3086H70.3466V18.8086H70.8466V18.3086ZM75.6181 17.4883L75.2733 17.1262L75.2704 17.129L75.6181 17.4883ZM70.8466 9.44336H73.3213V8.44336H70.8466V9.44336ZM73.3213 9.44336C74.8412 9.44336 76.1646 9.70244 77.3021 10.207L77.7076 9.29295C76.4206 8.72204 74.9549 8.44336 73.3213 8.44336V9.44336ZM77.3021 10.207C78.438 10.7109 79.2881 11.4135 79.8761 12.3079L80.7117 11.7585C80.0054 10.6842 78.9962 9.86457 77.7076 9.29295L77.3021 10.207ZM79.8791 12.3123C80.4754 13.1986 80.7783 14.2209 80.7783 15.3965H81.7783C81.7783 14.0382 81.4249 12.8183 80.7087 11.7541L79.8791 12.3123ZM80.7783 15.3965C80.7783 17.2133 80.1108 18.6615 78.7697 19.7846L79.4118 20.5513C80.9875 19.2317 81.7783 17.4989 81.7783 15.3965H80.7783ZM78.7686 19.7856C77.4332 20.911 75.6084 21.5 73.2392 21.5V22.5C75.7737 22.5 77.8499 21.8676 79.413 20.5503L78.7686 19.7856ZM73.2392 21.5H66.0341V22.5H73.2392V21.5ZM66.5341 22V2.09375H65.5341V22H66.5341ZM66.0341 2.59375H70.8466V1.59375H66.0341V2.59375ZM70.3466 2.09375V8.94336H71.3466V2.09375H70.3466ZM87.5127 21.5H82.7275V22.5H87.5127V21.5ZM83.2275 22V2.09375H82.2275V22H83.2275ZM82.7275 2.59375H87.5127V1.59375H82.7275V2.59375ZM87.0127 2.09375V22H88.0127V2.09375H87.0127ZM70.3466 12.6348V18.3086H71.3466V12.6348H70.3466ZM70.8466 18.8086H73.3076V17.8086H70.8466V18.8086ZM73.3076 18.8086C74.3798 18.8086 75.2863 18.5052 75.9658 17.8476L75.2704 17.129C74.8198 17.5651 74.1859 17.8086 73.3076 17.8086V18.8086ZM75.963 17.8503C76.6459 17.1999 76.9795 16.3579 76.9795 15.3691H75.9795C75.9795 16.1121 75.7388 16.6829 75.2733 17.1262L75.963 17.8503ZM76.9795 15.3691C76.9795 14.4196 76.6456 13.6177 75.9636 13.0127L75.3 13.7608C75.7482 14.1584 75.9795 14.678 75.9795 15.3691H76.9795ZM75.9636 13.0127C75.2806 12.4068 74.3644 12.1348 73.2802 12.1348V13.1348C74.2012 13.1348 74.8528 13.3641 75.3 13.7608L75.9636 13.0127ZM73.2802 12.1348H70.8466V13.1348H73.2802V12.1348ZM107.363 5.79883V6.29883H107.863V5.79883H107.363ZM101.388 5.79883V5.29883H100.888V5.79883H101.388ZM101.388 22V22.5H101.888V22H101.388ZM96.5891 22H96.0891V22.5H96.5891V22ZM96.5891 5.79883H97.0891V5.29883H96.5891V5.79883ZM90.7239 5.79883H90.2239V6.29883H90.7239V5.79883ZM90.7239 2.09375V1.59375H90.2239V2.09375H90.7239ZM107.363 2.09375H107.863V1.59375H107.363V2.09375ZM107.363 5.29883H101.388V6.29883H107.363V5.29883ZM100.888 5.79883V22H101.888V5.79883H100.888ZM101.388 21.5H96.5891V22.5H101.388V21.5ZM97.0891 22V5.79883H96.0891V22H97.0891ZM96.5891 5.29883H90.7239V6.29883H96.5891V5.29883ZM91.2239 5.79883V2.09375H90.2239V5.79883H91.2239ZM90.7239 2.59375H107.363V1.59375H90.7239V2.59375ZM106.863 2.09375V5.79883H107.863V2.09375H106.863ZM120.746 18.2812L121.223 18.1321L121.113 17.7812H120.746V18.2812ZM114.17 18.2812V17.7812H113.801L113.692 18.1337L114.17 18.2812ZM113.021 22V22.5H113.39L113.499 22.1475L113.021 22ZM107.894 22L107.425 21.8278L107.178 22.5H107.894V22ZM115.195 2.09375V1.59375H114.846L114.726 1.92158L115.195 2.09375ZM119.707 2.09375L120.176 1.92045L120.055 1.59375H119.707V2.09375ZM127.062 22V22.5H127.78L127.531 21.8267L127.062 22ZM121.908 22L121.431 22.1491L121.54 22.5H121.908V22ZM115.318 14.5762L114.84 14.4286L114.64 15.0762H115.318V14.5762ZM119.597 14.5762V15.0762H120.276L120.075 14.4277L119.597 14.5762ZM117.451 7.67188L117.928 7.52344L117.449 5.98276L116.973 7.5243L117.451 7.67188ZM120.746 17.7812H114.17V18.7812H120.746V17.7812ZM113.692 18.1337L112.543 21.8525L113.499 22.1475L114.647 18.4288L113.692 18.1337ZM113.021 21.5H107.894V22.5H113.021V21.5ZM108.364 22.1722L115.664 2.26592L114.726 1.92158L107.425 21.8278L108.364 22.1722ZM115.195 2.59375H119.707V1.59375H115.195V2.59375ZM119.238 2.26705L126.593 22.1733L127.531 21.8267L120.176 1.92045L119.238 2.26705ZM127.062 21.5H121.908V22.5H127.062V21.5ZM122.385 21.8509L121.223 18.1321L120.268 18.4304L121.431 22.1491L122.385 21.8509ZM115.318 15.0762H119.597V14.0762H115.318V15.0762ZM120.075 14.4277L117.928 7.52344L116.973 7.82031L119.12 14.7246L120.075 14.4277ZM116.973 7.5243L114.84 14.4286L115.796 14.7237L117.929 7.81945L116.973 7.5243ZM144.191 5.79883V6.29883H144.691V5.79883H144.191ZM138.217 5.79883V5.29883H137.717V5.79883H138.217ZM138.217 22V22.5H138.717V22H138.217ZM133.418 22H132.918V22.5H133.418V22ZM133.418 5.79883H133.918V5.29883H133.418V5.79883ZM127.553 5.79883H127.053V6.29883H127.553V5.79883ZM127.553 2.09375V1.59375H127.053V2.09375H127.553ZM144.191 2.09375H144.691V1.59375H144.191V2.09375ZM144.191 5.29883H138.217V6.29883H144.191V5.29883ZM137.717 5.79883V22H138.717V5.79883H137.717ZM138.217 21.5H133.418V22.5H138.217V21.5ZM133.918 22V5.79883H132.918V22H133.918ZM133.418 5.29883H127.553V6.29883H133.418V5.29883ZM128.053 5.79883V2.09375H127.053V5.79883H128.053ZM127.553 2.59375H144.191V1.59375H127.553V2.59375ZM143.691 2.09375V5.79883H144.691V2.09375H143.691ZM160.254 13.5645V14.0645H160.754V13.5645H160.254ZM152.707 13.5645V13.0645H152.207V13.5645H152.707ZM152.707 18.3086H152.207V18.8086H152.707V18.3086ZM161.621 18.3086H162.121V17.8086H161.621V18.3086ZM161.621 22V22.5H162.121V22H161.621ZM147.908 22H147.408V22.5H147.908V22ZM147.908 2.09375V1.59375H147.408V2.09375H147.908ZM161.649 2.09375H162.149V1.59375H161.649V2.09375ZM161.649 5.79883V6.29883H162.149V5.79883H161.649ZM152.707 5.79883V5.29883H152.207V5.79883H152.707ZM152.707 9.99609H152.207V10.4961H152.707V9.99609ZM160.254 9.99609H160.754V9.49609H160.254V9.99609ZM160.254 13.0645H152.707V14.0645H160.254V13.0645ZM152.207 13.5645V18.3086H153.207V13.5645H152.207ZM152.707 18.8086H161.621V17.8086H152.707V18.8086ZM161.121 18.3086V22H162.121V18.3086H161.121ZM161.621 21.5H147.908V22.5H161.621V21.5ZM148.408 22V2.09375H147.408V22H148.408ZM147.908 2.59375H161.649V1.59375H147.908V2.59375ZM161.149 2.09375V5.79883H162.149V2.09375H161.149ZM161.649 5.29883H152.707V6.29883H161.649V5.29883ZM152.207 5.79883V9.99609H153.207V5.79883H152.207ZM152.707 10.4961H160.254V9.49609H152.707V10.4961ZM159.754 9.99609V13.5645H160.754V9.99609H159.754ZM182.004 2.09375H182.504V1.59375H182.004V2.09375ZM182.004 22V22.5H182.504V22H182.004ZM177.206 22H176.706V22.5H177.206V22ZM177.206 5.79883H177.706V5.29883H177.206V5.79883ZM172.735 5.79883V5.29883H172.259L172.236 5.77432L172.735 5.79883ZM172.407 12.4844L172.906 12.514L172.906 12.5089L172.407 12.4844ZM169.303 21.0293L169.585 21.4422L169.586 21.4416L169.303 21.0293ZM165.53 22V22.5L165.536 22.5L165.53 22ZM164.245 22H163.745V22.5H164.245V22ZM164.245 18.3086L164.194 17.8112L163.745 17.857V18.3086H164.245ZM164.915 18.2402L164.965 18.7377L164.975 18.7366L164.985 18.7352L164.915 18.2402ZM166.993 16.4902L167.454 16.6823L167.455 16.6808L166.993 16.4902ZM167.827 11.2539L168.326 11.2799L168.326 11.2725L167.827 11.2539ZM168.169 2.09375V1.59375H167.687L167.669 2.07511L168.169 2.09375ZM181.504 2.09375V22H182.504V2.09375H181.504ZM182.004 21.5H177.206V22.5H182.004V21.5ZM177.706 22V5.79883H176.706V22H177.706ZM177.206 5.29883H172.735V6.29883H177.206V5.29883ZM172.236 5.77432L171.907 12.4599L172.906 12.5089L173.234 5.82334L172.236 5.77432ZM171.908 12.4548C171.772 14.7369 171.458 16.5243 170.98 17.8367L171.92 18.1789C172.444 16.7387 172.768 14.8439 172.906 12.514L171.908 12.4548ZM170.98 17.8367C170.504 19.1443 169.842 20.0534 169.02 20.617L169.586 21.4416C170.624 20.7292 171.393 19.624 171.92 18.1789L170.98 17.8367ZM169.021 20.6164C168.21 21.1705 167.061 21.4825 165.524 21.5L165.536 22.5C167.189 22.4811 168.555 22.1459 169.585 21.4422L169.021 20.6164ZM165.53 21.5H164.245V22.5H165.53V21.5ZM164.745 22V18.3086H163.745V22H164.745ZM164.295 18.806L164.965 18.7377L164.864 17.7428L164.194 17.8112L164.295 18.806ZM164.985 18.7352C166.147 18.5693 166.971 17.8453 167.454 16.6823L166.531 16.2982C166.158 17.1951 165.597 17.6377 164.844 17.7453L164.985 18.7352ZM167.455 16.6808C167.918 15.557 168.198 13.7374 168.326 11.2799L167.327 11.2279C167.2 13.6741 166.924 15.3453 166.53 16.2997L167.455 16.6808ZM168.326 11.2725L168.668 2.11239L167.669 2.07511L167.327 11.2353L168.326 11.2725ZM168.169 2.59375H182.004V1.59375H168.169V2.59375ZM191.505 8.94336H191.005V9.44336H191.505V8.94336ZM198.163 9.75L197.96 10.207L198.163 9.75ZM200.952 12.0332L200.534 12.3079L200.537 12.3123L200.952 12.0332ZM199.749 20.168L199.428 19.7846L199.427 19.7856L199.749 20.168ZM186.692 22H186.192V22.5H186.692V22ZM186.692 2.09375V1.59375H186.192V2.09375H186.692ZM191.505 2.09375H192.005V1.59375H191.505V2.09375ZM191.505 12.6348V12.1348H191.005V12.6348H191.505ZM191.505 18.3086H191.005V18.8086H191.505V18.3086ZM196.276 17.4883L195.931 17.1262L195.929 17.129L196.276 17.4883ZM191.505 9.44336H193.979V8.44336H191.505V9.44336ZM193.979 9.44336C195.499 9.44336 196.823 9.70244 197.96 10.207L198.366 9.29295C197.079 8.72204 195.613 8.44336 193.979 8.44336V9.44336ZM197.96 10.207C199.096 10.7109 199.946 11.4135 200.534 12.3079L201.37 11.7585C200.664 10.6842 199.654 9.86457 198.366 9.29295L197.96 10.207ZM200.537 12.3123C201.134 13.1986 201.436 14.2209 201.436 15.3965H202.436C202.436 14.0382 202.083 12.8183 201.367 11.7541L200.537 12.3123ZM201.436 15.3965C201.436 17.2133 200.769 18.6615 199.428 19.7846L200.07 20.5513C201.646 19.2317 202.436 17.4989 202.436 15.3965H201.436ZM199.427 19.7856C198.091 20.911 196.267 21.5 193.897 21.5V22.5C196.432 22.5 198.508 21.8676 200.071 20.5503L199.427 19.7856ZM193.897 21.5H186.692V22.5H193.897V21.5ZM187.192 22V2.09375H186.192V22H187.192ZM186.692 2.59375H191.505V1.59375H186.692V2.59375ZM191.005 2.09375V8.94336H192.005V2.09375H191.005ZM191.005 12.6348V18.3086H192.005V12.6348H191.005ZM191.505 18.8086H193.966V17.8086H191.505V18.8086ZM193.966 18.8086C195.038 18.8086 195.944 18.5052 196.624 17.8476L195.929 17.129C195.478 17.5651 194.844 17.8086 193.966 17.8086V18.8086ZM196.621 17.8503C197.304 17.1999 197.638 16.3579 197.638 15.3691H196.638C196.638 16.1121 196.397 16.6829 195.931 17.1262L196.621 17.8503ZM197.638 15.3691C197.638 14.4196 197.304 13.6177 196.622 13.0127L195.958 13.7608C196.406 14.1584 196.638 14.678 196.638 15.3691H197.638ZM196.622 13.0127C195.939 12.4068 195.023 12.1348 193.938 12.1348V13.1348C194.859 13.1348 195.511 13.3641 195.958 13.7608L196.622 13.0127ZM193.938 12.1348H191.505V13.1348H193.938V12.1348ZM222.443 22V22.5H222.943V22H222.443ZM217.671 22H217.171V22.5H217.671V22ZM217.671 13.6875H218.171V13.1875H217.671V13.6875ZM210.603 13.6875V13.1875H210.103V13.6875H210.603ZM210.603 22V22.5H211.103V22H210.603ZM205.804 22H205.304V22.5H205.804V22ZM205.804 2.09375V1.59375H205.304V2.09375H205.804ZM210.603 2.09375H211.103V1.59375H210.603V2.09375ZM210.603 9.99609H210.103V10.4961H210.603V9.99609ZM217.671 9.99609V10.4961H218.171V9.99609H217.671ZM217.671 2.09375V1.59375H217.171V2.09375H217.671ZM222.443 2.09375H222.943V1.59375H222.443V2.09375ZM222.443 21.5H217.671V22.5H222.443V21.5ZM218.171 22V13.6875H217.171V22H218.171ZM217.671 13.1875H210.603V14.1875H217.671V13.1875ZM210.103 13.6875V22H211.103V13.6875H210.103ZM210.603 21.5H205.804V22.5H210.603V21.5ZM206.304 22V2.09375H205.304V22H206.304ZM205.804 2.59375H210.603V1.59375H205.804V2.59375ZM210.103 2.09375V9.99609H211.103V2.09375H210.103ZM210.603 10.4961H217.671V9.49609H210.603V10.4961ZM218.171 9.99609V2.09375H217.171V9.99609H218.171ZM217.671 2.59375H222.443V1.59375H217.671V2.59375ZM221.943 2.09375V22H222.943V2.09375H221.943ZM238.724 18.2812L239.201 18.1321L239.092 17.7812H238.724V18.2812ZM232.148 18.2812V17.7812H231.779L231.67 18.1337L232.148 18.2812ZM231 22V22.5H231.368L231.477 22.1475L231 22ZM225.873 22L225.403 21.8278L225.157 22.5H225.873V22ZM233.173 2.09375V1.59375H232.824L232.704 1.92158L233.173 2.09375ZM237.685 2.09375L238.154 1.92045L238.033 1.59375H237.685V2.09375ZM245.041 22V22.5H245.758L245.51 21.8267L245.041 22ZM239.886 22L239.409 22.1491L239.519 22.5H239.886V22ZM233.296 14.5762L232.819 14.4286L232.619 15.0762H233.296V14.5762ZM237.576 14.5762V15.0762H238.255L238.053 14.4277L237.576 14.5762ZM235.429 7.67188L235.907 7.52344L235.428 5.98276L234.951 7.5243L235.429 7.67188ZM238.724 17.7812H232.148V18.7812H238.724V17.7812ZM231.67 18.1337L230.522 21.8525L231.477 22.1475L232.626 18.4288L231.67 18.1337ZM231 21.5H225.873V22.5H231V21.5ZM226.342 22.1722L233.643 2.26592L232.704 1.92158L225.403 21.8278L226.342 22.1722ZM233.173 2.59375H237.685V1.59375H233.173V2.59375ZM237.216 2.26705L244.572 22.1733L245.51 21.8267L238.154 1.92045L237.216 2.26705ZM245.041 21.5H239.886V22.5H245.041V21.5ZM240.363 21.8509L239.201 18.1321L238.247 18.4304L239.409 22.1491L240.363 21.8509ZM233.296 15.0762H237.576V14.0762H233.296V15.0762ZM238.053 14.4277L235.907 7.52344L234.952 7.82031L237.098 14.7246L238.053 14.4277ZM234.951 7.5243L232.819 14.4286L233.774 14.7237L235.907 7.81945L234.951 7.5243ZM256.756 22H256.256V22.5H256.756V22ZM256.756 15.0137H257.256V14.5137H256.756V15.0137ZM253.994 15.0137V14.5137H253.68L253.543 14.7968L253.994 15.0137ZM250.631 22V22.5H250.945L251.081 22.2169L250.631 22ZM245.422 22L244.97 21.7856L244.631 22.5H245.422V22ZM249.51 13.3867L249.961 13.6011L250.149 13.2063L249.782 12.9677L249.51 13.3867ZM248.785 3.7207L249.105 4.10526L249.106 4.10393L248.785 3.7207ZM261.568 2.09375H262.068V1.59375H261.568V2.09375ZM261.568 22V22.5H262.068V22H261.568ZM256.756 11.5957V12.0957H257.256V11.5957H256.756ZM256.756 5.79883H257.256V5.29883H256.756V5.79883ZM252.258 6.55078L251.878 6.22596L251.877 6.22655L252.258 6.55078ZM257.256 22V15.0137H256.256V22H257.256ZM256.756 14.5137H253.994V15.5137H256.756V14.5137ZM253.543 14.7968L250.18 21.7831L251.081 22.2169L254.445 15.2306L253.543 14.7968ZM250.631 21.5H245.422V22.5H250.631V21.5ZM245.873 22.2144L249.961 13.6011L249.058 13.1723L244.97 21.7856L245.873 22.2144ZM249.782 12.9677C248.156 11.9086 247.344 10.3718 247.344 8.28711H246.344C246.344 10.6868 247.308 12.5497 249.237 13.8057L249.782 12.9677ZM247.344 8.28711C247.344 6.4389 247.945 5.06918 249.105 4.10526L248.465 3.33615C247.037 4.52327 246.344 6.19782 246.344 8.28711H247.344ZM249.106 4.10393C250.278 3.1219 252.01 2.59375 254.377 2.59375V1.59375C251.876 1.59375 249.881 2.15023 248.464 3.33748L249.106 4.10393ZM254.377 2.59375H261.568V1.59375H254.377V2.59375ZM261.068 2.09375V22H262.068V2.09375H261.068ZM261.568 21.5H256.756V22.5H261.568V21.5ZM251.129 8.71094C251.129 9.77106 251.34 10.6554 251.872 11.2466L252.616 10.5776C252.327 10.2574 252.129 9.67425 252.129 8.71094H251.129ZM251.872 11.2466C252.42 11.8554 253.281 12.0957 254.308 12.0957V11.0957C253.404 11.0957 252.888 10.8803 252.616 10.5776L251.872 11.2466ZM254.308 12.0957H256.756V11.0957H254.308V12.0957ZM257.256 11.5957V5.79883H256.256V11.5957H257.256ZM256.756 5.29883H254.336V6.29883H256.756V5.29883ZM254.336 5.29883C253.3 5.29883 252.438 5.57064 251.878 6.22596L252.638 6.87561C252.935 6.52832 253.457 6.29883 254.336 6.29883V5.29883ZM251.877 6.22655C251.352 6.84319 251.129 7.69816 251.129 8.71094H252.129C252.129 7.82788 252.325 7.24274 252.638 6.87501L251.877 6.22655ZM20.252 31.0938H20.752V30.5938H20.252V31.0938ZM20.252 51V51.5H20.752V51H20.252ZM15.4531 51H14.9531V51.5H15.4531V51ZM15.4531 34.7988H15.9531V34.2988H15.4531V34.7988ZM10.9824 34.7988V34.2988H10.5064L10.483 34.7743L10.9824 34.7988ZM10.6543 41.4844L11.1534 41.514L11.1537 41.5089L10.6543 41.4844ZM7.55078 50.0293L7.83283 50.4422L7.8337 50.4416L7.55078 50.0293ZM3.77734 51V51.5L3.78306 51.5L3.77734 51ZM2.49219 51H1.99219V51.5H2.49219V51ZM2.49219 47.3086L2.44143 46.8112L1.99219 46.857V47.3086H2.49219ZM3.16211 47.2402L3.21287 47.7377L3.22287 47.7366L3.23282 47.7352L3.16211 47.2402ZM5.24023 45.4902L5.7019 45.6823L5.70249 45.6808L5.24023 45.4902ZM6.07422 40.2539L6.5736 40.2799L6.57387 40.2725L6.07422 40.2539ZM6.41602 31.0938V30.5938H5.93432L5.91636 31.0751L6.41602 31.0938ZM19.752 31.0938V51H20.752V31.0938H19.752ZM20.252 50.5H15.4531V51.5H20.252V50.5ZM15.9531 51V34.7988H14.9531V51H15.9531ZM15.4531 34.2988H10.9824V35.2988H15.4531V34.2988ZM10.483 34.7743L10.1549 41.4599L11.1537 41.5089L11.4818 34.8233L10.483 34.7743ZM10.1552 41.4548C10.0199 43.7369 9.70549 45.5243 9.22746 46.8367L10.1671 47.1789C10.6916 45.7387 11.0153 43.8439 11.1534 41.514L10.1552 41.4548ZM9.22746 46.8367C8.75119 48.1443 8.08919 49.0534 7.26786 49.617L7.8337 50.4416C8.87175 49.7292 9.64074 48.624 10.1671 47.1789L9.22746 46.8367ZM7.26873 49.6164C6.45774 50.1705 5.30861 50.4825 3.77163 50.5L3.78306 51.5C5.43618 51.4811 6.80268 51.1459 7.83283 50.4422L7.26873 49.6164ZM3.77734 50.5H2.49219V51.5H3.77734V50.5ZM2.99219 51V47.3086H1.99219V51H2.99219ZM2.54294 47.806L3.21287 47.7377L3.11135 46.7428L2.44143 46.8112L2.54294 47.806ZM3.23282 47.7352C4.39423 47.5693 5.21815 46.8453 5.70189 45.6823L4.77858 45.2982C4.40554 46.1951 3.84405 46.6377 3.0914 46.7453L3.23282 47.7352ZM5.70249 45.6808C6.1658 44.557 6.44564 42.7374 6.57354 40.2799L5.57489 40.2279C5.44759 42.6741 5.17144 44.3453 4.77798 45.2997L5.70249 45.6808ZM6.57387 40.2725L6.91567 31.1124L5.91636 31.0751L5.57457 40.2353L6.57387 40.2725ZM6.41602 31.5938H20.252V30.5938H6.41602V31.5938ZM36.4788 47.2812L36.9561 47.1321L36.8464 46.7812H36.4788V47.2812ZM29.9027 47.2812V46.7812H29.5338L29.4249 47.1337L29.9027 47.2812ZM28.7542 51V51.5H29.1231L29.232 51.1475L28.7542 51ZM23.6273 51L23.1578 50.8278L22.9113 51.5H23.6273V51ZM30.928 31.0938V30.5938H30.5789L30.4586 30.9216L30.928 31.0938ZM35.4398 31.0938L35.9088 30.9204L35.7881 30.5938H35.4398V31.0938ZM42.7952 51V51.5H43.513L43.2642 50.8267L42.7952 51ZM37.6409 51L37.1637 51.1491L37.2733 51.5H37.6409V51ZM31.0511 43.5762L30.5734 43.4286L30.3733 44.0762H31.0511V43.5762ZM35.3304 43.5762V44.0762H36.0094L35.8078 43.4277L35.3304 43.5762ZM33.1839 36.6719L33.6614 36.5234L33.1824 34.9828L32.7062 36.5243L33.1839 36.6719ZM36.4788 46.7812H29.9027V47.7812H36.4788V46.7812ZM29.4249 47.1337L28.2765 50.8525L29.232 51.1475L30.3804 47.4288L29.4249 47.1337ZM28.7542 50.5H23.6273V51.5H28.7542V50.5ZM24.0967 51.1722L31.3975 31.2659L30.4586 30.9216L23.1578 50.8278L24.0967 51.1722ZM30.928 31.5938H35.4398V30.5938H30.928V31.5938ZM34.9708 31.2671L42.3262 51.1733L43.2642 50.8267L35.9088 30.9204L34.9708 31.2671ZM42.7952 50.5H37.6409V51.5H42.7952V50.5ZM38.1182 50.8509L36.9561 47.1321L36.0016 47.4304L37.1637 51.1491L38.1182 50.8509ZM31.0511 44.0762H35.3304V43.0762H31.0511V44.0762ZM35.8078 43.4277L33.6614 36.5234L32.7064 36.8203L34.8529 43.7246L35.8078 43.4277ZM32.7062 36.5243L30.5734 43.4286L31.5288 43.7237L33.6616 36.8195L32.7062 36.5243ZM59.3913 34.7988V35.2988H59.8913V34.7988H59.3913ZM50.7643 34.7988V34.2988H50.2643V34.7988H50.7643ZM50.7643 37.9434H50.2643V38.4434H50.7643V37.9434ZM57.4225 38.75L57.2197 39.207L57.4225 38.75ZM60.2116 41.0332L59.7937 41.3079L59.7967 41.3123L60.2116 41.0332ZM59.0084 49.168L58.6874 48.7846L58.6862 48.7856L59.0084 49.168ZM45.9381 51H45.4381V51.5H45.9381V51ZM45.9381 31.0938V30.5938H45.4381V31.0938H45.9381ZM59.3913 31.0938H59.8913V30.5938H59.3913V31.0938ZM50.7643 41.6348V41.1348H50.2643V41.6348H50.7643ZM50.7643 47.3086H50.2643V47.8086H50.7643V47.3086ZM55.5358 46.4883L55.1909 46.1262L55.1881 46.129L55.5358 46.4883ZM59.3913 34.2988H50.7643V35.2988H59.3913V34.2988ZM50.2643 34.7988V37.9434H51.2643V34.7988H50.2643ZM50.7643 38.4434H53.2389V37.4434H50.7643V38.4434ZM53.2389 38.4434C54.7589 38.4434 56.0823 38.7024 57.2197 39.207L57.6253 38.293C56.3383 37.722 54.8726 37.4434 53.2389 37.4434V38.4434ZM57.2197 39.207C58.3557 39.7109 59.2058 40.4135 59.7938 41.3079L60.6294 40.7585C59.9231 39.6842 58.9138 38.8646 57.6253 38.293L57.2197 39.207ZM59.7967 41.3123C60.3931 42.1986 60.6959 43.2209 60.6959 44.3965H61.6959C61.6959 43.0382 61.3425 41.8183 60.6264 40.7541L59.7967 41.3123ZM60.6959 44.3965C60.6959 46.2133 60.0284 47.6615 58.6874 48.7846L59.3295 49.5513C60.9051 48.2317 61.6959 46.4989 61.6959 44.3965H60.6959ZM58.6862 48.7856C57.3509 49.911 55.526 50.5 53.1569 50.5V51.5C55.6913 51.5 57.7675 50.8676 59.3307 49.5503L58.6862 48.7856ZM53.1569 50.5H45.9381V51.5H53.1569V50.5ZM46.4381 51V31.0938H45.4381V51H46.4381ZM45.9381 31.5938H59.3913V30.5938H45.9381V31.5938ZM58.8913 31.0938V34.7988H59.8913V31.0938H58.8913ZM50.2643 41.6348V47.3086H51.2643V41.6348H50.2643ZM50.7643 47.8086H53.2252V46.8086H50.7643V47.8086ZM53.2252 47.8086C54.2974 47.8086 55.2039 47.5052 55.8835 46.8476L55.1881 46.129C54.7374 46.5651 54.1036 46.8086 53.2252 46.8086V47.8086ZM55.8806 46.8503C56.5636 46.1999 56.8971 45.3579 56.8971 44.3691H55.8971C55.8971 45.1121 55.6564 45.6829 55.191 46.1262L55.8806 46.8503ZM56.8971 44.3691C56.8971 43.4197 56.5633 42.6177 55.8813 42.0127L55.2176 42.7608C55.6659 43.1584 55.8971 43.678 55.8971 44.3691H56.8971ZM55.8813 42.0127C55.1982 41.4068 54.2821 41.1348 53.1979 41.1348V42.1348C54.1189 42.1348 54.7705 42.3641 55.2176 42.7608L55.8813 42.0127ZM53.1979 41.1348H50.7643V42.1348H53.1979V41.1348ZM77.8193 50.0703L78.0787 50.4978L78.0796 50.4972L77.8193 50.0703ZM68.7822 50.1113L68.5258 50.5406L68.528 50.5419L68.7822 50.1113ZM65.706 46.7617L65.2594 46.9865L65.2605 46.9887L65.706 46.7617ZM64.5576 41.7715H64.0575L64.0577 41.7812L64.5576 41.7715ZM65.624 35.4961L65.1735 35.2791L65.173 35.2803L65.624 35.4961ZM68.7002 32.0371L68.4412 31.6094L68.4399 31.6102L68.7002 32.0371ZM77.7783 32.0234L77.5189 32.4509L77.7783 32.0234ZM80.8545 35.4551L80.4056 35.6754L80.4072 35.6787L80.8545 35.4551ZM81.9755 40.541H82.4756L82.4755 40.5386L81.9755 40.541ZM76.0966 36.125L75.6749 36.3937L75.6778 36.398L76.0966 36.125ZM69.4521 39.9941L68.9525 39.9752L68.9522 39.9823L68.9521 39.9895L69.4521 39.9941ZM69.4384 41.457L68.9384 41.4524V41.457H69.4384ZM70.4091 45.9551L69.9837 46.2177L70.4091 45.9551ZM76.0966 45.9824L75.675 45.7137L76.0966 45.9824ZM77.0947 41.5391L77.5947 41.5414V41.5391H77.0947ZM81.4755 41.457C81.4755 43.336 81.1273 44.9778 80.445 46.3943L81.3459 46.8283C82.1037 45.2552 82.4755 43.4609 82.4755 41.457H81.4755ZM80.445 46.3943C79.764 47.8082 78.8021 48.8857 77.559 49.6434L78.0796 50.4972C79.498 49.6326 80.5869 48.4041 81.3459 46.8283L80.445 46.3943ZM77.5599 49.6429C76.3239 50.393 74.9069 50.7734 73.2939 50.7734V51.7734C75.0716 51.7734 76.6714 51.3518 78.0787 50.4978L77.5599 49.6429ZM73.2939 50.7734C71.6777 50.7734 70.2634 50.4051 69.0364 49.6807L68.528 50.5419C69.9259 51.3671 71.5195 51.7734 73.2939 51.7734V50.7734ZM69.0386 49.6821C67.8121 48.9496 66.8499 47.9057 66.1515 46.5348L65.2605 46.9887C66.0387 48.5162 67.1272 49.7053 68.5258 50.5406L69.0386 49.6821ZM66.1527 46.537C65.462 45.1643 65.0927 43.5764 65.0575 41.7618L64.0577 41.7812C64.0954 43.7218 64.4917 45.4607 65.2594 46.9865L66.1527 46.537ZM65.0576 41.7715V40.6504H64.0576V41.7715H65.0576ZM65.0576 40.6504C65.0576 38.7609 65.4017 37.1189 66.075 35.7119L65.173 35.2803C64.4244 36.8446 64.0576 38.6388 64.0576 40.6504H65.0576ZM66.0744 35.7131C66.7555 34.2993 67.7174 33.2218 68.9604 32.464L68.4399 31.6102C67.0215 32.4748 65.9326 33.7033 65.1735 35.2791L66.0744 35.7131ZM68.9591 32.4648C70.214 31.7051 71.6451 31.3203 73.2666 31.3203V30.3203C71.4792 30.3203 69.866 30.7468 68.4412 31.6094L68.9591 32.4648ZM73.2666 31.3203C74.8699 31.3203 76.2825 31.7005 77.5189 32.4509L78.0377 31.596C76.6309 30.7422 75.0357 30.3203 73.2666 30.3203V31.3203ZM77.5189 32.4509C78.753 33.1999 79.7154 34.2691 80.4056 35.6754L81.3033 35.2348C80.5352 33.6697 79.4468 32.4511 78.0377 31.596L77.5189 32.4509ZM80.4072 35.6787C81.1061 37.0764 81.4667 38.6939 81.4756 40.5434L82.4755 40.5386C82.4661 38.56 82.0794 36.7869 81.3017 35.2315L80.4072 35.6787ZM81.4755 40.541V41.457H82.4755V40.541H81.4755ZM77.5947 40.623C77.5947 38.603 77.2574 36.9902 76.5155 35.852L75.6778 36.398C76.2666 37.3015 76.5947 38.6874 76.5947 40.623H77.5947ZM76.5183 35.8563C75.7694 34.681 74.6663 34.0801 73.2666 34.0801V35.0801C74.3278 35.0801 75.1114 35.5091 75.675 36.3937L76.5183 35.8563ZM73.2666 34.0801C71.9179 34.0801 70.8384 34.5969 70.0995 35.6456C69.383 36.6626 69.0224 38.1294 68.9525 39.9752L69.9518 40.0131C70.0186 38.2495 70.362 37.0093 70.917 36.2216C71.4496 35.4656 72.2089 35.0801 73.2666 35.0801V34.0801ZM68.9521 39.9895L68.9385 41.4524L69.9384 41.4617L69.9521 39.9988L68.9521 39.9895ZM68.9384 41.457C68.9384 43.451 69.2672 45.0572 69.9837 46.2177L70.8346 45.6924C70.2569 44.7566 69.9384 43.3641 69.9384 41.457H68.9384ZM69.9837 46.2177C70.7258 47.4198 71.8521 48.0273 73.2939 48.0273V47.0273C72.1837 47.0273 71.3867 46.5867 70.8346 45.6924L69.9837 46.2177ZM73.2939 48.0273C74.6785 48.0273 75.7711 47.4238 76.5183 46.2511L75.675 45.7137C75.1097 46.6009 74.3338 47.0273 73.2939 47.0273V48.0273ZM76.5183 46.2511C77.2468 45.1078 77.5854 43.5179 77.5947 41.5414L76.5947 41.5367C76.5858 43.4248 76.259 44.7972 75.675 45.7137L76.5183 46.2511ZM77.5947 41.5391V40.623H76.5947V41.5391H77.5947ZM90.929 44.2461V43.7461H90.429V44.2461H90.929ZM90.929 51V51.5H91.429V51H90.929ZM86.1302 51H85.6302V51.5H86.1302V51ZM86.1302 31.0938V30.5938H85.6302V31.0938H86.1302ZM98.1067 31.9414L97.8887 32.3914L97.893 32.3934L98.1067 31.9414ZM100.827 34.334L100.401 34.5956L100.404 34.6L100.827 34.334ZM99.7063 42.5098L100.027 42.8935L100.027 42.8933L99.7063 42.5098ZM90.929 40.541H90.429V41.041H90.929V40.541ZM96.1927 39.8438L95.8493 39.4802L95.846 39.4835L96.1927 39.8438ZM94.1282 34.7988L94.1335 34.2988H94.1282V34.7988ZM90.929 34.7988V34.2988H90.429V34.7988H90.929ZM90.429 44.2461V51H91.429V44.2461H90.429ZM90.929 50.5H86.1302V51.5H90.929V50.5ZM86.6302 51V31.0938H85.6302V51H86.6302ZM86.1302 31.5938H94.0735V30.5938H86.1302V31.5938ZM94.0735 31.5938C95.5332 31.5938 96.8009 31.8645 97.8888 32.3914L98.3247 31.4914C97.0792 30.8881 95.6581 30.5938 94.0735 30.5938V31.5938ZM97.893 32.3934C98.9871 32.9108 99.8176 33.6449 100.401 34.5956L101.254 34.0724C100.561 32.945 99.5779 32.084 98.3205 31.4894L97.893 32.3934ZM100.404 34.6C100.997 35.5439 101.298 36.6215 101.298 37.8477H102.298C102.298 36.4488 101.952 35.1839 101.251 34.068L100.404 34.6ZM101.298 37.8477C101.298 39.6525 100.658 41.0617 99.3855 42.1263L100.027 42.8933C101.544 41.6245 102.298 39.9257 102.298 37.8477H101.298ZM99.3857 42.1261C98.117 43.1861 96.3391 43.7461 93.9915 43.7461V44.7461C96.4928 44.7461 98.5248 44.1485 100.027 42.8935L99.3857 42.1261ZM93.9915 43.7461H90.929V44.7461H93.9915V43.7461ZM90.929 41.041H94.0735V40.041H90.929V41.041ZM94.0735 41.041C95.0819 41.041 95.9321 40.7884 96.5393 40.204L95.846 39.4835C95.4871 39.8288 94.9246 40.041 94.0735 40.041V41.041ZM96.536 40.2073C97.1522 39.6253 97.4309 38.8233 97.4309 37.875H96.4309C96.4309 38.622 96.2175 39.1325 95.8493 39.4802L96.536 40.2073ZM97.4309 37.875C97.4309 36.8528 97.1532 35.9803 96.5503 35.3117L95.8076 35.9813C96.2074 36.4247 96.4309 37.0378 96.4309 37.875H97.4309ZM96.5503 35.3117C95.9405 34.6353 95.1151 34.3092 94.1335 34.2989L94.1229 35.2988C94.8731 35.3067 95.4149 35.5457 95.8076 35.9813L96.5503 35.3117ZM94.1282 34.2988H90.929V35.2988H94.1282V34.2988ZM90.429 34.7988V40.541H91.429V34.7988H90.429ZM114.921 47.2812L115.399 47.1321L115.289 46.7812H114.921V47.2812ZM108.345 47.2812V46.7812H107.976L107.868 47.1337L108.345 47.2812ZM107.197 51V51.5H107.566L107.675 51.1475L107.197 51ZM102.07 51L101.601 50.8278L101.354 51.5H102.07V51ZM109.371 31.0938V30.5938H109.022L108.901 30.9216L109.371 31.0938ZM113.882 31.0938L114.351 30.9204L114.231 30.5938H113.882V31.0938ZM121.238 51V51.5H121.956L121.707 50.8267L121.238 51ZM116.084 51L115.606 51.1491L115.716 51.5H116.084V51ZM109.494 43.5762L109.016 43.4286L108.816 44.0762H109.494V43.5762ZM113.773 43.5762V44.0762H114.452L114.251 43.4277L113.773 43.5762ZM111.627 36.6719L112.104 36.5234L111.625 34.9828L111.149 36.5243L111.627 36.6719ZM114.921 46.7812H108.345V47.7812H114.921V46.7812ZM107.868 47.1337L106.719 50.8525L107.675 51.1475L108.823 47.4288L107.868 47.1337ZM107.197 50.5H102.07V51.5H107.197V50.5ZM102.539 51.1722L109.84 31.2659L108.901 30.9216L101.601 50.8278L102.539 51.1722ZM109.371 31.5938H113.882V30.5938H109.371V31.5938ZM113.413 31.2671L120.769 51.1733L121.707 50.8267L114.351 30.9204L113.413 31.2671ZM121.238 50.5H116.084V51.5H121.238V50.5ZM116.561 50.8509L115.399 47.1321L114.444 47.4304L115.606 51.1491L116.561 50.8509ZM109.494 44.0762H113.773V43.0762H109.494V44.0762ZM114.251 43.4277L112.104 36.5234L111.149 36.8203L113.296 43.7246L114.251 43.4277ZM111.149 36.5243L109.016 43.4286L109.971 43.7237L112.104 36.8195L111.149 36.5243ZM138.367 34.7988V35.2988H138.867V34.7988H138.367ZM132.393 34.7988V34.2988H131.893V34.7988H132.393ZM132.393 51V51.5H132.893V51H132.393ZM127.594 51H127.094V51.5H127.594V51ZM127.594 34.7988H128.094V34.2988H127.594V34.7988ZM121.728 34.7988H121.228V35.2988H121.728V34.7988ZM121.728 31.0938V30.5938H121.228V31.0938H121.728ZM138.367 31.0938H138.867V30.5938H138.367V31.0938ZM138.367 34.2988H132.393V35.2988H138.367V34.2988ZM131.893 34.7988V51H132.893V34.7988H131.893ZM132.393 50.5H127.594V51.5H132.393V50.5ZM128.094 51V34.7988H127.094V51H128.094ZM127.594 34.2988H121.728V35.2988H127.594V34.2988ZM122.228 34.7988V31.0938H121.228V34.7988H122.228ZM121.728 31.5938H138.367V30.5938H121.728V31.5938ZM137.867 31.0938V34.7988H138.867V31.0938H137.867ZM154.403 50.0703L154.662 50.4978L154.663 50.4972L154.403 50.0703ZM145.365 50.1113L145.109 50.5406L145.111 50.5419L145.365 50.1113ZM142.289 46.7617L141.843 46.9865L141.844 46.9887L142.289 46.7617ZM141.141 41.7715H140.641L140.641 41.7812L141.141 41.7715ZM142.207 35.4961L141.757 35.2791L141.756 35.2803L142.207 35.4961ZM145.283 32.0371L145.024 31.6094L145.023 31.6102L145.283 32.0371ZM154.362 32.0234L154.102 32.4509L154.362 32.0234ZM157.438 35.4551L156.989 35.6754L156.991 35.6787L157.438 35.4551ZM158.559 40.541H159.059V40.5386L158.559 40.541ZM152.68 36.125L152.258 36.3937L152.261 36.398L152.68 36.125ZM146.035 39.9941L145.536 39.9752L145.535 39.9823L145.535 39.9895L146.035 39.9941ZM146.022 41.457L145.522 41.4524V41.457H146.022ZM146.992 45.9551L146.567 46.2177L146.992 45.9551ZM152.68 45.9824L152.258 45.7137L152.68 45.9824ZM153.678 41.5391L154.178 41.5414V41.5391H153.678ZM158.059 41.457C158.059 43.336 157.711 44.9778 157.028 46.3943L157.929 46.8283C158.687 45.2552 159.059 43.4609 159.059 41.457H158.059ZM157.028 46.3943C156.347 47.8082 155.385 48.8857 154.142 49.6434L154.663 50.4972C156.081 49.6326 157.17 48.4041 157.929 46.8283L157.028 46.3943ZM154.143 49.6429C152.907 50.393 151.49 50.7734 149.877 50.7734V51.7734C151.655 51.7734 153.255 51.3518 154.662 50.4978L154.143 49.6429ZM149.877 50.7734C148.261 50.7734 146.847 50.4051 145.62 49.6807L145.111 50.5419C146.509 51.3671 148.103 51.7734 149.877 51.7734V50.7734ZM145.622 49.6821C144.395 48.9496 143.433 47.9057 142.735 46.5348L141.844 46.9887C142.622 48.5162 143.711 49.7053 145.109 50.5406L145.622 49.6821ZM142.736 46.537C142.045 45.1643 141.676 43.5764 141.641 41.7618L140.641 41.7812C140.679 43.7218 141.075 45.4607 141.843 46.9865L142.736 46.537ZM141.641 41.7715V40.6504H140.641V41.7715H141.641ZM141.641 40.6504C141.641 38.7609 141.985 37.1189 142.658 35.7119L141.756 35.2803C141.008 36.8446 140.641 38.6388 140.641 40.6504H141.641ZM142.658 35.7131C143.339 34.2993 144.301 33.2218 145.544 32.464L145.023 31.6102C143.605 32.4748 142.516 33.7033 141.757 35.2791L142.658 35.7131ZM145.542 32.4648C146.797 31.7051 148.228 31.3203 149.85 31.3203V30.3203C148.062 30.3203 146.449 30.7468 145.024 31.6094L145.542 32.4648ZM149.85 31.3203C151.453 31.3203 152.866 31.7005 154.102 32.4509L154.621 31.596C153.214 30.7422 151.619 30.3203 149.85 30.3203V31.3203ZM154.102 32.4509C155.336 33.1999 156.299 34.2691 156.989 35.6754L157.887 35.2348C157.118 33.6697 156.03 32.4511 154.621 31.596L154.102 32.4509ZM156.991 35.6787C157.689 37.0764 158.05 38.6939 158.059 40.5434L159.059 40.5386C159.049 38.56 158.663 36.7869 157.885 35.2315L156.991 35.6787ZM158.059 40.541V41.457H159.059V40.541H158.059ZM154.178 40.623C154.178 38.603 153.841 36.9902 153.099 35.852L152.261 36.398C152.85 37.3015 153.178 38.6874 153.178 40.623H154.178ZM153.102 35.8563C152.353 34.681 151.25 34.0801 149.85 34.0801V35.0801C150.911 35.0801 151.695 35.5091 152.258 36.3937L153.102 35.8563ZM149.85 34.0801C148.501 34.0801 147.422 34.5969 146.683 35.6456C145.966 36.6626 145.606 38.1294 145.536 39.9752L146.535 40.0131C146.602 38.2495 146.945 37.0093 147.5 36.2216C148.033 35.4656 148.792 35.0801 149.85 35.0801V34.0801ZM145.535 39.9895L145.522 41.4524L146.522 41.4617L146.535 39.9988L145.535 39.9895ZM145.522 41.457C145.522 43.451 145.85 45.0572 146.567 46.2177L147.418 45.6924C146.84 44.7566 146.522 43.3641 146.522 41.457H145.522ZM146.567 46.2177C147.309 47.4198 148.435 48.0273 149.877 48.0273V47.0273C148.767 47.0273 147.97 46.5867 147.418 45.6924L146.567 46.2177ZM149.877 48.0273C151.262 48.0273 152.354 47.4238 153.102 46.2511L152.258 45.7137C151.693 46.6009 150.917 47.0273 149.877 47.0273V48.0273ZM153.102 46.2511C153.83 45.1078 154.169 43.5179 154.178 41.5414L153.178 41.5367C153.169 43.4248 152.842 44.7972 152.258 45.7137L153.102 46.2511ZM154.178 41.5391V40.623H153.178V41.5391H154.178ZM167.512 44.2461V43.7461H167.012V44.2461H167.512ZM167.512 51V51.5H168.012V51H167.512ZM162.713 51H162.213V51.5H162.713V51ZM162.713 31.0938V30.5938H162.213V31.0938H162.713ZM174.69 31.9414L174.472 32.3914L174.476 32.3934L174.69 31.9414ZM177.411 34.334L176.985 34.5956L176.987 34.6L177.411 34.334ZM176.29 42.5098L176.61 42.8935L176.61 42.8933L176.29 42.5098ZM167.512 40.541H167.012V41.041H167.512V40.541ZM172.776 39.8438L172.433 39.4802L172.429 39.4835L172.776 39.8438ZM170.711 34.7988L170.717 34.2988H170.711V34.7988ZM167.512 34.7988V34.2988H167.012V34.7988H167.512ZM167.012 44.2461V51H168.012V44.2461H167.012ZM167.512 50.5H162.713V51.5H167.512V50.5ZM163.213 51V31.0938H162.213V51H163.213ZM162.713 31.5938H170.657V30.5938H162.713V31.5938ZM170.657 31.5938C172.117 31.5938 173.384 31.8645 174.472 32.3914L174.908 31.4914C173.662 30.8881 172.241 30.5938 170.657 30.5938V31.5938ZM174.476 32.3934C175.57 32.9108 176.401 33.6449 176.985 34.5956L177.837 34.0724C177.145 32.945 176.161 32.084 174.904 31.4894L174.476 32.3934ZM176.987 34.6C177.58 35.5439 177.881 36.6215 177.881 37.8477H178.881C178.881 36.4488 178.535 35.1839 177.834 34.068L176.987 34.6ZM177.881 37.8477C177.881 39.6525 177.241 41.0617 175.969 42.1263L176.61 42.8933C178.127 41.6245 178.881 39.9257 178.881 37.8477H177.881ZM175.969 42.1261C174.7 43.1861 172.922 43.7461 170.575 43.7461V44.7461C173.076 44.7461 175.108 44.1485 176.61 42.8935L175.969 42.1261ZM170.575 43.7461H167.512V44.7461H170.575V43.7461ZM167.512 41.041H170.657V40.041H167.512V41.041ZM170.657 41.041C171.665 41.041 172.515 40.7884 173.123 40.204L172.429 39.4835C172.07 39.8288 171.508 40.041 170.657 40.041V41.041ZM173.119 40.2073C173.735 39.6253 174.014 38.8233 174.014 37.875H173.014C173.014 38.622 172.801 39.1325 172.433 39.4802L173.119 40.2073ZM174.014 37.875C174.014 36.8528 173.736 35.9803 173.134 35.3117L172.391 35.9813C172.791 36.4247 173.014 37.0378 173.014 37.875H174.014ZM173.134 35.3117C172.524 34.6353 171.698 34.3092 170.717 34.2989L170.706 35.2988C171.456 35.3067 171.998 35.5457 172.391 35.9813L173.134 35.3117ZM170.711 34.2988H167.512V35.2988H170.711V34.2988ZM167.012 34.7988V40.541H168.012V34.7988H167.012ZM194.307 31.0938V30.5938H194.017L193.873 30.8464L194.307 31.0938ZM199.106 31.0938H199.606V30.5938H199.106V31.0938ZM199.106 51V51.5H199.606V51H199.106ZM194.307 51H193.807V51.5H194.307V51ZM194.307 38.4492H194.807V36.5615L193.873 38.2017L194.307 38.4492ZM187.157 51V51.5H187.448L187.592 51.2475L187.157 51ZM182.358 51H181.858V51.5H182.358V51ZM182.358 31.0938V30.5938H181.858V31.0938H182.358ZM187.157 31.0938H187.657V30.5938H187.157V31.0938ZM187.157 43.6582H186.657V45.5477L187.592 43.9055L187.157 43.6582ZM194.307 31.5938H199.106V30.5938H194.307V31.5938ZM198.606 31.0938V51H199.606V31.0938H198.606ZM199.106 50.5H194.307V51.5H199.106V50.5ZM194.807 51V38.4492H193.807V51H194.807ZM193.873 38.2017L186.723 50.7525L187.592 51.2475L194.742 38.6967L193.873 38.2017ZM187.157 50.5H182.358V51.5H187.157V50.5ZM182.858 51V31.0938H181.858V51H182.858ZM182.358 31.5938H187.157V30.5938H182.358V31.5938ZM186.657 31.0938V43.6582H187.657V31.0938H186.657ZM187.592 43.9055L194.742 31.3411L193.873 30.8464L186.723 43.4109L187.592 43.9055ZM212.298 51H211.798V51.5H212.298V51ZM212.298 44.0137H212.798V43.5137H212.298V44.0137ZM209.536 44.0137V43.5137H209.222L209.086 43.7968L209.536 44.0137ZM206.173 51V51.5H206.487L206.624 51.2169L206.173 51ZM200.964 51L200.512 50.7856L200.173 51.5H200.964V51ZM205.052 42.3867L205.504 42.6011L205.691 42.2063L205.325 41.9677L205.052 42.3867ZM204.327 32.7207L204.647 33.1053L204.648 33.1039L204.327 32.7207ZM217.111 31.0938H217.611V30.5938H217.111V31.0938ZM217.111 51V51.5H217.611V51H217.111ZM212.298 40.5957V41.0957H212.798V40.5957H212.298ZM212.298 34.7988H212.798V34.2988H212.298V34.7988ZM207.8 35.5508L207.42 35.226L207.419 35.2265L207.8 35.5508ZM212.798 51V44.0137H211.798V51H212.798ZM212.298 43.5137H209.536V44.5137H212.298V43.5137ZM209.086 43.7968L205.723 50.7831L206.624 51.2169L209.987 44.2306L209.086 43.7968ZM206.173 50.5H200.964V51.5H206.173V50.5ZM201.416 51.2144L205.504 42.6011L204.6 42.1723L200.512 50.7856L201.416 51.2144ZM205.325 41.9677C203.699 40.9086 202.886 39.3718 202.886 37.2871H201.886C201.886 39.6868 202.851 41.5497 204.779 42.8057L205.325 41.9677ZM202.886 37.2871C202.886 35.4389 203.487 34.0692 204.647 33.1053L204.008 32.3361C202.579 33.5233 201.886 35.1978 201.886 37.2871H202.886ZM204.648 33.1039C205.82 32.1219 207.552 31.5938 209.919 31.5938V30.5938C207.419 30.5938 205.423 31.1502 204.006 32.3375L204.648 33.1039ZM209.919 31.5938H217.111V30.5938H209.919V31.5938ZM216.611 31.0938V51H217.611V31.0938H216.611ZM217.111 50.5H212.298V51.5H217.111V50.5ZM206.671 37.7109C206.671 38.7711 206.883 39.6554 207.415 40.2466L208.158 39.5776C207.87 39.2574 207.671 38.6742 207.671 37.7109H206.671ZM207.415 40.2466C207.963 40.8554 208.823 41.0957 209.851 41.0957V40.0957C208.946 40.0957 208.43 39.8803 208.158 39.5776L207.415 40.2466ZM209.851 41.0957H212.298V40.0957H209.851V41.0957ZM212.798 40.5957V34.7988H211.798V40.5957H212.798ZM212.298 34.2988H209.878V35.2988H212.298V34.2988ZM209.878 34.2988C208.843 34.2988 207.98 34.5706 207.42 35.226L208.18 35.8756C208.477 35.5283 209 35.2988 209.878 35.2988V34.2988ZM207.419 35.2265C206.894 35.8432 206.671 36.6982 206.671 37.7109H207.671C207.671 36.8279 207.867 36.2427 208.181 35.875L207.419 35.2265Z" fill="white"/>
</g>
<defs>
<filter id="filter0_f" x="0.992188" y="0.306641" width="262.076" height="52.4668" filterUnits="userSpaceOnUse" color-interpolation-filters="sRGB">
<feFlood flood-opacity="0" result="BackgroundImageFix"/>
<feBlend mode="normal" in="SourceGraphic" in2="BackgroundImageFix" result="shape"/>
<feGaussianBlur stdDeviation="0.5" result="effect1_foregroundBlur"/>
</filter>
</defs>
</svg>
