<svg width="981" height="273" viewBox="0 0 981 273" fill="none" xmlns="http://www.w3.org/2000/svg">
<g opacity="0.6" filter="url(#filter0_f)">
<mask id="path-1-outside-1" maskUnits="userSpaceOnUse" x="21.3799" y="21.3086" width="938" height="230" fill="black">
<rect fill="white" x="21.3799" y="21.3086" width="938" height="230"/>
<path d="M103.249 71.6934C103.249 80.707 101.577 88.6839 98.2344 95.624C94.8913 102.564 90.1305 107.917 83.9521 111.684C77.8161 115.408 70.8125 117.27 62.9414 117.27C55.0703 117.27 48.0879 115.471 41.9941 111.874C35.9004 108.235 31.1396 103.051 27.7119 96.3223C24.3265 89.5938 22.5492 81.8708 22.3799 73.1533V67.9482C22.3799 58.8923 24.0303 50.9154 27.3311 44.0176C30.6742 37.0775 35.4349 31.7243 41.6133 27.958C47.834 24.1917 54.901 22.3086 62.8145 22.3086C70.6432 22.3086 77.6257 24.1706 83.7617 27.8945C89.8978 31.6185 94.6585 36.9294 98.0439 43.8271C101.472 50.6826 103.207 58.5537 103.249 67.4404V71.6934ZM80.5879 67.8213C80.5879 58.6383 79.0433 51.6771 75.9541 46.9375C72.9072 42.1556 68.5273 39.7646 62.8145 39.7646C51.6426 39.7646 45.7393 48.1436 45.1045 64.9014L45.041 71.6934C45.041 80.7493 46.5433 87.7106 49.5479 92.5771C52.5524 97.4437 57.0169 99.877 62.9414 99.877C68.5697 99.877 72.9072 97.486 75.9541 92.7041C79.001 87.9222 80.5456 81.0456 80.5879 72.0742V67.8213ZM189.633 40.7803H161.894V116H139.613V40.7803H112.382V23.5781H189.633V40.7803ZM288.141 138.725H268.146V116H217.809V138.661H197.179L195.592 98.8613H202.13C205.558 96.5762 208.309 92.6618 210.382 87.1182C212.498 81.5322 214 73.5342 214.889 63.124L217.746 23.5781H280.651V98.8613H290.49L288.141 138.725ZM227.33 98.8613H258.434V40.7803H238.756L237.042 63.8857C235.773 78.8662 232.536 90.5247 227.33 98.8613ZM363.29 76.835H328.251V98.8613H369.637V116H305.97V23.5781H369.764V40.7803H328.251V60.2676H363.29V76.835ZM464.273 23.5781V116H441.993V40.7803H421.236L419.713 71.8203C419.078 82.5267 417.597 91.0749 415.269 97.4648C412.942 103.855 409.62 108.531 405.304 111.493C401.029 114.413 395.19 115.915 387.784 116H381.817V98.8613L384.928 98.5439C389.371 97.9092 392.587 95.2008 394.576 90.4189C396.565 85.5947 397.856 77.4909 398.448 66.1074L400.035 23.5781H464.273ZM54.2451 156.578L74.875 220.88L95.4414 156.578H124.768V249H102.424V227.418L104.582 183.238L82.2383 249H67.5117L45.1045 183.175L47.2627 227.418V249H24.9824V156.578H54.2451ZM204.106 209.835H169.067V231.861H210.453V249H146.786V156.578H210.58V173.78H169.067V193.268H204.106V209.835ZM301.154 173.78H273.414V249H251.134V173.78H223.903V156.578H301.154V173.78ZM340.692 217.643V249H318.412V156.578H355.292C362.359 156.578 368.601 157.89 374.017 160.514C379.476 163.095 383.687 166.798 386.649 171.622C389.654 176.404 391.156 181.842 391.156 187.936C391.156 196.949 387.919 204.164 381.444 209.581C375.012 214.955 366.167 217.643 354.911 217.643H340.692ZM340.692 200.44H355.292C359.608 200.44 362.888 199.361 365.13 197.203C367.416 195.045 368.558 191.998 368.558 188.062C368.558 183.746 367.394 180.297 365.067 177.716C362.74 175.134 359.566 173.823 355.546 173.78H340.692V200.44ZM489.156 204.693C489.156 213.707 487.485 221.684 484.141 228.624C480.798 235.564 476.038 240.917 469.859 244.684C463.723 248.408 456.72 250.27 448.848 250.27C440.977 250.27 433.995 248.471 427.901 244.874C421.807 241.235 417.047 236.051 413.619 229.322C410.234 222.594 408.456 214.871 408.287 206.153V200.948C408.287 191.892 409.937 183.915 413.238 177.018C416.581 170.077 421.342 164.724 427.52 160.958C433.741 157.192 440.808 155.309 448.721 155.309C456.55 155.309 463.533 157.171 469.669 160.895C475.805 164.618 480.566 169.929 483.951 176.827C487.379 183.683 489.114 191.554 489.156 200.44V204.693ZM466.495 200.821C466.495 191.638 464.95 184.677 461.861 179.938C458.814 175.156 454.434 172.765 448.721 172.765C437.55 172.765 431.646 181.144 431.012 197.901L430.948 204.693C430.948 213.749 432.45 220.711 435.455 225.577C438.459 230.444 442.924 232.877 448.848 232.877C454.477 232.877 458.814 230.486 461.861 225.704C464.908 220.922 466.453 214.046 466.495 205.074V200.821ZM584.173 156.578V249H561.893V173.78H541.136L539.612 204.82C538.978 215.527 537.496 224.075 535.169 230.465C532.841 236.855 529.52 241.531 525.203 244.493C520.929 247.413 515.089 248.915 507.684 249H501.717V231.861L504.827 231.544C509.271 230.909 512.487 228.201 514.476 223.419C516.465 218.595 517.755 210.491 518.348 199.107L519.935 156.578H584.173ZM684.141 204.693C684.141 213.707 682.469 221.684 679.126 228.624C675.783 235.564 671.022 240.917 664.844 244.684C658.708 248.408 651.704 250.27 643.833 250.27C635.962 250.27 628.98 248.471 622.886 244.874C616.792 241.235 612.031 236.051 608.604 229.322C605.218 222.594 603.441 214.871 603.272 206.153V200.948C603.272 191.892 604.922 183.915 608.223 177.018C611.566 170.077 616.327 164.724 622.505 160.958C628.726 157.192 635.793 155.309 643.706 155.309C651.535 155.309 658.517 157.171 664.654 160.895C670.79 164.618 675.55 169.929 678.936 176.827C682.363 183.683 684.099 191.554 684.141 200.44V204.693ZM661.48 200.821C661.48 191.638 659.935 184.677 656.846 179.938C653.799 175.156 649.419 172.765 643.706 172.765C632.534 172.765 626.631 181.144 625.996 197.901L625.933 204.693C625.933 213.749 627.435 220.711 630.44 225.577C633.444 230.444 637.909 232.877 643.833 232.877C649.461 232.877 653.799 230.486 656.846 225.704C659.893 220.922 661.437 214.046 661.48 205.074V200.821ZM765.764 173.78H725.583V249H703.303V156.578H765.764V173.78ZM837.929 156.578H860.21V249H837.929V190.729L804.731 249H782.451V156.578H804.731V214.913L837.929 156.578ZM935.866 156.578H958.146V249H935.866V190.729L902.668 249H880.388V156.578H902.668V214.913L935.866 156.578Z"/>
</mask>
<path d="M103.249 71.6934C103.249 80.707 101.577 88.6839 98.2344 95.624C94.8913 102.564 90.1305 107.917 83.9521 111.684C77.8161 115.408 70.8125 117.27 62.9414 117.27C55.0703 117.27 48.0879 115.471 41.9941 111.874C35.9004 108.235 31.1396 103.051 27.7119 96.3223C24.3265 89.5938 22.5492 81.8708 22.3799 73.1533V67.9482C22.3799 58.8923 24.0303 50.9154 27.3311 44.0176C30.6742 37.0775 35.4349 31.7243 41.6133 27.958C47.834 24.1917 54.901 22.3086 62.8145 22.3086C70.6432 22.3086 77.6257 24.1706 83.7617 27.8945C89.8978 31.6185 94.6585 36.9294 98.0439 43.8271C101.472 50.6826 103.207 58.5537 103.249 67.4404V71.6934ZM80.5879 67.8213C80.5879 58.6383 79.0433 51.6771 75.9541 46.9375C72.9072 42.1556 68.5273 39.7646 62.8145 39.7646C51.6426 39.7646 45.7393 48.1436 45.1045 64.9014L45.041 71.6934C45.041 80.7493 46.5433 87.7106 49.5479 92.5771C52.5524 97.4437 57.0169 99.877 62.9414 99.877C68.5697 99.877 72.9072 97.486 75.9541 92.7041C79.001 87.9222 80.5456 81.0456 80.5879 72.0742V67.8213ZM189.633 40.7803H161.894V116H139.613V40.7803H112.382V23.5781H189.633V40.7803ZM288.141 138.725H268.146V116H217.809V138.661H197.179L195.592 98.8613H202.13C205.558 96.5762 208.309 92.6618 210.382 87.1182C212.498 81.5322 214 73.5342 214.889 63.124L217.746 23.5781H280.651V98.8613H290.49L288.141 138.725ZM227.33 98.8613H258.434V40.7803H238.756L237.042 63.8857C235.773 78.8662 232.536 90.5247 227.33 98.8613ZM363.29 76.835H328.251V98.8613H369.637V116H305.97V23.5781H369.764V40.7803H328.251V60.2676H363.29V76.835ZM464.273 23.5781V116H441.993V40.7803H421.236L419.713 71.8203C419.078 82.5267 417.597 91.0749 415.269 97.4648C412.942 103.855 409.62 108.531 405.304 111.493C401.029 114.413 395.19 115.915 387.784 116H381.817V98.8613L384.928 98.5439C389.371 97.9092 392.587 95.2008 394.576 90.4189C396.565 85.5947 397.856 77.4909 398.448 66.1074L400.035 23.5781H464.273ZM54.2451 156.578L74.875 220.88L95.4414 156.578H124.768V249H102.424V227.418L104.582 183.238L82.2383 249H67.5117L45.1045 183.175L47.2627 227.418V249H24.9824V156.578H54.2451ZM204.106 209.835H169.067V231.861H210.453V249H146.786V156.578H210.58V173.78H169.067V193.268H204.106V209.835ZM301.154 173.78H273.414V249H251.134V173.78H223.903V156.578H301.154V173.78ZM340.692 217.643V249H318.412V156.578H355.292C362.359 156.578 368.601 157.89 374.017 160.514C379.476 163.095 383.687 166.798 386.649 171.622C389.654 176.404 391.156 181.842 391.156 187.936C391.156 196.949 387.919 204.164 381.444 209.581C375.012 214.955 366.167 217.643 354.911 217.643H340.692ZM340.692 200.44H355.292C359.608 200.44 362.888 199.361 365.13 197.203C367.416 195.045 368.558 191.998 368.558 188.062C368.558 183.746 367.394 180.297 365.067 177.716C362.74 175.134 359.566 173.823 355.546 173.78H340.692V200.44ZM489.156 204.693C489.156 213.707 487.485 221.684 484.141 228.624C480.798 235.564 476.038 240.917 469.859 244.684C463.723 248.408 456.72 250.27 448.848 250.27C440.977 250.27 433.995 248.471 427.901 244.874C421.807 241.235 417.047 236.051 413.619 229.322C410.234 222.594 408.456 214.871 408.287 206.153V200.948C408.287 191.892 409.937 183.915 413.238 177.018C416.581 170.077 421.342 164.724 427.52 160.958C433.741 157.192 440.808 155.309 448.721 155.309C456.55 155.309 463.533 157.171 469.669 160.895C475.805 164.618 480.566 169.929 483.951 176.827C487.379 183.683 489.114 191.554 489.156 200.44V204.693ZM466.495 200.821C466.495 191.638 464.95 184.677 461.861 179.938C458.814 175.156 454.434 172.765 448.721 172.765C437.55 172.765 431.646 181.144 431.012 197.901L430.948 204.693C430.948 213.749 432.45 220.711 435.455 225.577C438.459 230.444 442.924 232.877 448.848 232.877C454.477 232.877 458.814 230.486 461.861 225.704C464.908 220.922 466.453 214.046 466.495 205.074V200.821ZM584.173 156.578V249H561.893V173.78H541.136L539.612 204.82C538.978 215.527 537.496 224.075 535.169 230.465C532.841 236.855 529.52 241.531 525.203 244.493C520.929 247.413 515.089 248.915 507.684 249H501.717V231.861L504.827 231.544C509.271 230.909 512.487 228.201 514.476 223.419C516.465 218.595 517.755 210.491 518.348 199.107L519.935 156.578H584.173ZM684.141 204.693C684.141 213.707 682.469 221.684 679.126 228.624C675.783 235.564 671.022 240.917 664.844 244.684C658.708 248.408 651.704 250.27 643.833 250.27C635.962 250.27 628.98 248.471 622.886 244.874C616.792 241.235 612.031 236.051 608.604 229.322C605.218 222.594 603.441 214.871 603.272 206.153V200.948C603.272 191.892 604.922 183.915 608.223 177.018C611.566 170.077 616.327 164.724 622.505 160.958C628.726 157.192 635.793 155.309 643.706 155.309C651.535 155.309 658.517 157.171 664.654 160.895C670.79 164.618 675.55 169.929 678.936 176.827C682.363 183.683 684.099 191.554 684.141 200.44V204.693ZM661.48 200.821C661.48 191.638 659.935 184.677 656.846 179.938C653.799 175.156 649.419 172.765 643.706 172.765C632.534 172.765 626.631 181.144 625.996 197.901L625.933 204.693C625.933 213.749 627.435 220.711 630.44 225.577C633.444 230.444 637.909 232.877 643.833 232.877C649.461 232.877 653.799 230.486 656.846 225.704C659.893 220.922 661.437 214.046 661.48 205.074V200.821ZM765.764 173.78H725.583V249H703.303V156.578H765.764V173.78ZM837.929 156.578H860.21V249H837.929V190.729L804.731 249H782.451V156.578H804.731V214.913L837.929 156.578ZM935.866 156.578H958.146V249H935.866V190.729L902.668 249H880.388V156.578H902.668V214.913L935.866 156.578Z" stroke="white" stroke-width="2" mask="url(#path-1-outside-1)"/>
</g>
<g opacity="0.2" filter="url(#filter1_f)">
<mask id="path-2-outside-2" maskUnits="userSpaceOnUse" x="20.3799" y="20.3086" width="940" height="232" fill="black">
<rect fill="white" x="20.3799" y="20.3086" width="940" height="232"/>
<path d="M103.249 71.6934C103.249 80.707 101.577 88.6839 98.2344 95.624C94.8913 102.564 90.1305 107.917 83.9521 111.684C77.8161 115.408 70.8125 117.27 62.9414 117.27C55.0703 117.27 48.0879 115.471 41.9941 111.874C35.9004 108.235 31.1396 103.051 27.7119 96.3223C24.3265 89.5938 22.5492 81.8708 22.3799 73.1533V67.9482C22.3799 58.8923 24.0303 50.9154 27.3311 44.0176C30.6742 37.0775 35.4349 31.7243 41.6133 27.958C47.834 24.1917 54.901 22.3086 62.8145 22.3086C70.6432 22.3086 77.6257 24.1706 83.7617 27.8945C89.8978 31.6185 94.6585 36.9294 98.0439 43.8271C101.472 50.6826 103.207 58.5537 103.249 67.4404V71.6934ZM80.5879 67.8213C80.5879 58.6383 79.0433 51.6771 75.9541 46.9375C72.9072 42.1556 68.5273 39.7646 62.8145 39.7646C51.6426 39.7646 45.7393 48.1436 45.1045 64.9014L45.041 71.6934C45.041 80.7493 46.5433 87.7106 49.5479 92.5771C52.5524 97.4437 57.0169 99.877 62.9414 99.877C68.5697 99.877 72.9072 97.486 75.9541 92.7041C79.001 87.9222 80.5456 81.0456 80.5879 72.0742V67.8213ZM189.633 40.7803H161.894V116H139.613V40.7803H112.382V23.5781H189.633V40.7803ZM288.141 138.725H268.146V116H217.809V138.661H197.179L195.592 98.8613H202.13C205.558 96.5762 208.309 92.6618 210.382 87.1182C212.498 81.5322 214 73.5342 214.889 63.124L217.746 23.5781H280.651V98.8613H290.49L288.141 138.725ZM227.33 98.8613H258.434V40.7803H238.756L237.042 63.8857C235.773 78.8662 232.536 90.5247 227.33 98.8613ZM363.29 76.835H328.251V98.8613H369.637V116H305.97V23.5781H369.764V40.7803H328.251V60.2676H363.29V76.835ZM464.273 23.5781V116H441.993V40.7803H421.236L419.713 71.8203C419.078 82.5267 417.597 91.0749 415.269 97.4648C412.942 103.855 409.62 108.531 405.304 111.493C401.029 114.413 395.19 115.915 387.784 116H381.817V98.8613L384.928 98.5439C389.371 97.9092 392.587 95.2008 394.576 90.4189C396.565 85.5947 397.856 77.4909 398.448 66.1074L400.035 23.5781H464.273ZM54.2451 156.578L74.875 220.88L95.4414 156.578H124.768V249H102.424V227.418L104.582 183.238L82.2383 249H67.5117L45.1045 183.175L47.2627 227.418V249H24.9824V156.578H54.2451ZM204.106 209.835H169.067V231.861H210.453V249H146.786V156.578H210.58V173.78H169.067V193.268H204.106V209.835ZM301.154 173.78H273.414V249H251.134V173.78H223.903V156.578H301.154V173.78ZM340.692 217.643V249H318.412V156.578H355.292C362.359 156.578 368.601 157.89 374.017 160.514C379.476 163.095 383.687 166.798 386.649 171.622C389.654 176.404 391.156 181.842 391.156 187.936C391.156 196.949 387.919 204.164 381.444 209.581C375.012 214.955 366.167 217.643 354.911 217.643H340.692ZM340.692 200.44H355.292C359.608 200.44 362.888 199.361 365.13 197.203C367.416 195.045 368.558 191.998 368.558 188.062C368.558 183.746 367.394 180.297 365.067 177.716C362.74 175.134 359.566 173.823 355.546 173.78H340.692V200.44ZM489.156 204.693C489.156 213.707 487.485 221.684 484.141 228.624C480.798 235.564 476.038 240.917 469.859 244.684C463.723 248.408 456.72 250.27 448.848 250.27C440.977 250.27 433.995 248.471 427.901 244.874C421.807 241.235 417.047 236.051 413.619 229.322C410.234 222.594 408.456 214.871 408.287 206.153V200.948C408.287 191.892 409.937 183.915 413.238 177.018C416.581 170.077 421.342 164.724 427.52 160.958C433.741 157.192 440.808 155.309 448.721 155.309C456.55 155.309 463.533 157.171 469.669 160.895C475.805 164.618 480.566 169.929 483.951 176.827C487.379 183.683 489.114 191.554 489.156 200.44V204.693ZM466.495 200.821C466.495 191.638 464.95 184.677 461.861 179.938C458.814 175.156 454.434 172.765 448.721 172.765C437.55 172.765 431.646 181.144 431.012 197.901L430.948 204.693C430.948 213.749 432.45 220.711 435.455 225.577C438.459 230.444 442.924 232.877 448.848 232.877C454.477 232.877 458.814 230.486 461.861 225.704C464.908 220.922 466.453 214.046 466.495 205.074V200.821ZM584.173 156.578V249H561.893V173.78H541.136L539.612 204.82C538.978 215.527 537.496 224.075 535.169 230.465C532.841 236.855 529.52 241.531 525.203 244.493C520.929 247.413 515.089 248.915 507.684 249H501.717V231.861L504.827 231.544C509.271 230.909 512.487 228.201 514.476 223.419C516.465 218.595 517.755 210.491 518.348 199.107L519.935 156.578H584.173ZM684.141 204.693C684.141 213.707 682.469 221.684 679.126 228.624C675.783 235.564 671.022 240.917 664.844 244.684C658.708 248.408 651.704 250.27 643.833 250.27C635.962 250.27 628.98 248.471 622.886 244.874C616.792 241.235 612.031 236.051 608.604 229.322C605.218 222.594 603.441 214.871 603.272 206.153V200.948C603.272 191.892 604.922 183.915 608.223 177.018C611.566 170.077 616.327 164.724 622.505 160.958C628.726 157.192 635.793 155.309 643.706 155.309C651.535 155.309 658.517 157.171 664.654 160.895C670.79 164.618 675.55 169.929 678.936 176.827C682.363 183.683 684.099 191.554 684.141 200.44V204.693ZM661.48 200.821C661.48 191.638 659.935 184.677 656.846 179.938C653.799 175.156 649.419 172.765 643.706 172.765C632.534 172.765 626.631 181.144 625.996 197.901L625.933 204.693C625.933 213.749 627.435 220.711 630.44 225.577C633.444 230.444 637.909 232.877 643.833 232.877C649.461 232.877 653.799 230.486 656.846 225.704C659.893 220.922 661.437 214.046 661.48 205.074V200.821ZM765.764 173.78H725.583V249H703.303V156.578H765.764V173.78ZM837.929 156.578H860.21V249H837.929V190.729L804.731 249H782.451V156.578H804.731V214.913L837.929 156.578ZM935.866 156.578H958.146V249H935.866V190.729L902.668 249H880.388V156.578H902.668V214.913L935.866 156.578Z"/>
</mask>
<path d="M103.249 71.6934C103.249 80.707 101.577 88.6839 98.2344 95.624C94.8913 102.564 90.1305 107.917 83.9521 111.684C77.8161 115.408 70.8125 117.27 62.9414 117.27C55.0703 117.27 48.0879 115.471 41.9941 111.874C35.9004 108.235 31.1396 103.051 27.7119 96.3223C24.3265 89.5938 22.5492 81.8708 22.3799 73.1533V67.9482C22.3799 58.8923 24.0303 50.9154 27.3311 44.0176C30.6742 37.0775 35.4349 31.7243 41.6133 27.958C47.834 24.1917 54.901 22.3086 62.8145 22.3086C70.6432 22.3086 77.6257 24.1706 83.7617 27.8945C89.8978 31.6185 94.6585 36.9294 98.0439 43.8271C101.472 50.6826 103.207 58.5537 103.249 67.4404V71.6934ZM80.5879 67.8213C80.5879 58.6383 79.0433 51.6771 75.9541 46.9375C72.9072 42.1556 68.5273 39.7646 62.8145 39.7646C51.6426 39.7646 45.7393 48.1436 45.1045 64.9014L45.041 71.6934C45.041 80.7493 46.5433 87.7106 49.5479 92.5771C52.5524 97.4437 57.0169 99.877 62.9414 99.877C68.5697 99.877 72.9072 97.486 75.9541 92.7041C79.001 87.9222 80.5456 81.0456 80.5879 72.0742V67.8213ZM189.633 40.7803H161.894V116H139.613V40.7803H112.382V23.5781H189.633V40.7803ZM288.141 138.725H268.146V116H217.809V138.661H197.179L195.592 98.8613H202.13C205.558 96.5762 208.309 92.6618 210.382 87.1182C212.498 81.5322 214 73.5342 214.889 63.124L217.746 23.5781H280.651V98.8613H290.49L288.141 138.725ZM227.33 98.8613H258.434V40.7803H238.756L237.042 63.8857C235.773 78.8662 232.536 90.5247 227.33 98.8613ZM363.29 76.835H328.251V98.8613H369.637V116H305.97V23.5781H369.764V40.7803H328.251V60.2676H363.29V76.835ZM464.273 23.5781V116H441.993V40.7803H421.236L419.713 71.8203C419.078 82.5267 417.597 91.0749 415.269 97.4648C412.942 103.855 409.62 108.531 405.304 111.493C401.029 114.413 395.19 115.915 387.784 116H381.817V98.8613L384.928 98.5439C389.371 97.9092 392.587 95.2008 394.576 90.4189C396.565 85.5947 397.856 77.4909 398.448 66.1074L400.035 23.5781H464.273ZM54.2451 156.578L74.875 220.88L95.4414 156.578H124.768V249H102.424V227.418L104.582 183.238L82.2383 249H67.5117L45.1045 183.175L47.2627 227.418V249H24.9824V156.578H54.2451ZM204.106 209.835H169.067V231.861H210.453V249H146.786V156.578H210.58V173.78H169.067V193.268H204.106V209.835ZM301.154 173.78H273.414V249H251.134V173.78H223.903V156.578H301.154V173.78ZM340.692 217.643V249H318.412V156.578H355.292C362.359 156.578 368.601 157.89 374.017 160.514C379.476 163.095 383.687 166.798 386.649 171.622C389.654 176.404 391.156 181.842 391.156 187.936C391.156 196.949 387.919 204.164 381.444 209.581C375.012 214.955 366.167 217.643 354.911 217.643H340.692ZM340.692 200.44H355.292C359.608 200.44 362.888 199.361 365.13 197.203C367.416 195.045 368.558 191.998 368.558 188.062C368.558 183.746 367.394 180.297 365.067 177.716C362.74 175.134 359.566 173.823 355.546 173.78H340.692V200.44ZM489.156 204.693C489.156 213.707 487.485 221.684 484.141 228.624C480.798 235.564 476.038 240.917 469.859 244.684C463.723 248.408 456.72 250.27 448.848 250.27C440.977 250.27 433.995 248.471 427.901 244.874C421.807 241.235 417.047 236.051 413.619 229.322C410.234 222.594 408.456 214.871 408.287 206.153V200.948C408.287 191.892 409.937 183.915 413.238 177.018C416.581 170.077 421.342 164.724 427.52 160.958C433.741 157.192 440.808 155.309 448.721 155.309C456.55 155.309 463.533 157.171 469.669 160.895C475.805 164.618 480.566 169.929 483.951 176.827C487.379 183.683 489.114 191.554 489.156 200.44V204.693ZM466.495 200.821C466.495 191.638 464.95 184.677 461.861 179.938C458.814 175.156 454.434 172.765 448.721 172.765C437.55 172.765 431.646 181.144 431.012 197.901L430.948 204.693C430.948 213.749 432.45 220.711 435.455 225.577C438.459 230.444 442.924 232.877 448.848 232.877C454.477 232.877 458.814 230.486 461.861 225.704C464.908 220.922 466.453 214.046 466.495 205.074V200.821ZM584.173 156.578V249H561.893V173.78H541.136L539.612 204.82C538.978 215.527 537.496 224.075 535.169 230.465C532.841 236.855 529.52 241.531 525.203 244.493C520.929 247.413 515.089 248.915 507.684 249H501.717V231.861L504.827 231.544C509.271 230.909 512.487 228.201 514.476 223.419C516.465 218.595 517.755 210.491 518.348 199.107L519.935 156.578H584.173ZM684.141 204.693C684.141 213.707 682.469 221.684 679.126 228.624C675.783 235.564 671.022 240.917 664.844 244.684C658.708 248.408 651.704 250.27 643.833 250.27C635.962 250.27 628.98 248.471 622.886 244.874C616.792 241.235 612.031 236.051 608.604 229.322C605.218 222.594 603.441 214.871 603.272 206.153V200.948C603.272 191.892 604.922 183.915 608.223 177.018C611.566 170.077 616.327 164.724 622.505 160.958C628.726 157.192 635.793 155.309 643.706 155.309C651.535 155.309 658.517 157.171 664.654 160.895C670.79 164.618 675.55 169.929 678.936 176.827C682.363 183.683 684.099 191.554 684.141 200.44V204.693ZM661.48 200.821C661.48 191.638 659.935 184.677 656.846 179.938C653.799 175.156 649.419 172.765 643.706 172.765C632.534 172.765 626.631 181.144 625.996 197.901L625.933 204.693C625.933 213.749 627.435 220.711 630.44 225.577C633.444 230.444 637.909 232.877 643.833 232.877C649.461 232.877 653.799 230.486 656.846 225.704C659.893 220.922 661.437 214.046 661.48 205.074V200.821ZM765.764 173.78H725.583V249H703.303V156.578H765.764V173.78ZM837.929 156.578H860.21V249H837.929V190.729L804.731 249H782.451V156.578H804.731V214.913L837.929 156.578ZM935.866 156.578H958.146V249H935.866V190.729L902.668 249H880.388V156.578H902.668V214.913L935.866 156.578Z" stroke="white" stroke-width="4" mask="url(#path-2-outside-2)"/>
</g>
<defs>
<filter id="filter0_f" x="18.3799" y="18.3086" width="943.766" height="235.961" filterUnits="userSpaceOnUse" color-interpolation-filters="sRGB">
<feFlood flood-opacity="0" result="BackgroundImageFix"/>
<feBlend mode="normal" in="SourceGraphic" in2="BackgroundImageFix" result="shape"/>
<feGaussianBlur stdDeviation="1.5" result="effect1_foregroundBlur"/>
</filter>
<filter id="filter1_f" x="0.379883" y="0.308594" width="979.766" height="271.961" filterUnits="userSpaceOnUse" color-interpolation-filters="sRGB">
<feFlood flood-opacity="0" result="BackgroundImageFix"/>
<feBlend mode="normal" in="SourceGraphic" in2="BackgroundImageFix" result="shape"/>
<feGaussianBlur stdDeviation="10" result="effect1_foregroundBlur"/>
</filter>
</defs>
</svg>
