<svg width="1427" height="291" viewBox="0 0 1427 291" fill="none" xmlns="http://www.w3.org/2000/svg">
<g opacity="0.2" filter="url(#filter0_f)">
<mask id="path-1-outside-1" maskUnits="userSpaceOnUse" x="10.4351" y="10.3789" width="1407" height="271" fill="black">
<rect fill="white" x="10.4351" y="10.3789" width="1407" height="271"/>
<path d="M77.3022 13.9375H103.353V122H77.3022V53.8672L38.4858 122H12.4351V13.9375H38.4858V82.1445L77.3022 13.9375ZM215.86 85.4102C215.513 92.931 213.485 99.5859 209.774 105.375C206.063 111.115 200.843 115.568 194.114 118.734C187.434 121.901 179.789 123.484 171.18 123.484C156.98 123.484 145.797 118.858 137.633 109.605C129.469 100.353 125.387 87.2904 125.387 70.418V65.0742C125.387 54.4857 127.218 45.2331 130.879 37.3164C134.59 29.3503 139.909 23.2148 146.836 18.9102C153.763 14.556 161.779 12.3789 170.883 12.3789C183.995 12.3789 194.534 15.8424 202.5 22.7695C210.467 29.6471 214.994 39.1471 216.082 51.2695H190.106C189.908 44.6888 188.25 39.9635 185.133 37.0938C182.016 34.224 177.266 32.7891 170.883 32.7891C164.401 32.7891 159.651 35.2135 156.633 40.0625C153.615 44.9115 152.032 52.6549 151.883 63.293V70.9375C151.883 82.4661 153.318 90.7044 156.188 95.6523C159.107 100.6 164.105 103.074 171.18 103.074C177.167 103.074 181.744 101.664 184.911 98.8438C188.077 96.0234 189.759 91.5456 189.957 85.4102H215.86ZM328.07 122H302.019V34.0508H263.202V122H237.152V13.9375H328.07V122ZM379.494 51.1211H392.928C401.488 51.1211 409.058 52.5807 415.639 55.5C422.22 58.4193 427.266 62.5508 430.779 67.8945C434.342 73.1888 436.123 79.2747 436.123 86.1523C436.123 96.7904 432.165 105.424 424.248 112.055C416.381 118.685 405.792 122 392.483 122H353.369V13.9375H379.494V51.1211ZM469.967 122H443.99V13.9375H469.967V122ZM379.494 71.1602V101.961H392.854C398.148 101.961 402.329 100.477 405.397 97.5078C408.514 94.5391 410.072 90.7044 410.072 86.0039C410.072 81.5508 408.539 77.9635 405.471 75.2422C402.403 72.5208 398.148 71.1602 392.705 71.1602H379.494ZM577.724 34.0508H545.29V122H519.239V34.0508H487.399V13.9375H577.724V34.0508ZM650.375 101.812H614.676L608.441 122H580.609L620.242 13.9375H644.734L684.664 122H656.683L650.375 101.812ZM620.91 81.6992H644.141L632.488 44.2188L620.91 81.6992ZM777.651 34.0508H745.218V122H719.167V34.0508H687.327V13.9375H777.651V34.0508ZM864.849 76.207H823.881V101.961H872.271V122H797.83V13.9375H872.42V34.0508H823.881V56.8359H864.849V76.207ZM982.922 13.9375V122H956.872V34.0508H932.602L930.821 70.3438C930.079 82.862 928.347 92.8568 925.626 100.328C922.904 107.799 919.02 113.267 913.973 116.73C908.976 120.145 902.148 121.901 893.489 122H886.512V101.961L890.149 101.59C895.344 100.848 899.105 97.681 901.43 92.0898C903.756 86.4492 905.265 76.974 905.958 63.6641L907.813 13.9375H982.922ZM1034.5 51.1211H1047.93C1056.49 51.1211 1064.06 52.5807 1070.64 55.5C1077.22 58.4193 1082.27 62.5508 1085.78 67.8945C1089.34 73.1888 1091.12 79.2747 1091.12 86.1523C1091.12 96.7904 1087.17 105.424 1079.25 112.055C1071.38 118.685 1060.79 122 1047.48 122H1008.37V13.9375H1034.5V51.1211ZM1034.5 71.1602V101.961H1047.85C1053.15 101.961 1057.33 100.477 1060.4 97.5078C1063.52 94.5391 1065.07 90.7044 1065.07 86.0039C1065.07 81.5508 1063.54 77.9635 1060.47 75.2422C1057.4 72.5208 1053.15 71.1602 1047.71 71.1602H1034.5ZM1202.44 122H1176.54V76.875H1138.17V122H1112.12V13.9375H1138.17V56.8359H1176.54V13.9375H1202.44V122ZM1290.83 101.812H1255.13L1248.9 122H1221.06L1260.7 13.9375H1285.19L1325.12 122H1297.14L1290.83 101.812ZM1261.36 81.6992H1284.59L1272.94 44.2188L1261.36 81.6992ZM1388.71 122V84.0742H1373.72L1355.46 122H1327.19L1349.38 75.2422C1339.73 68.9583 1334.91 59.7305 1334.91 47.5586C1334.91 36.8711 1338.42 28.6081 1345.45 22.7695C1352.47 16.8815 1362.59 13.9375 1375.8 13.9375H1414.84V122H1388.71ZM1360.88 49.8594C1360.88 55.3516 1362 59.3346 1364.22 61.8086C1366.45 64.2826 1370.18 65.5195 1375.43 65.5195H1388.71V34.0508H1375.58C1370.38 34.0508 1366.62 35.4115 1364.3 38.1328C1362.02 40.8047 1360.88 44.7135 1360.88 49.8594ZM346.179 168.938V277H320.128V189.051H295.859L294.077 225.344C293.335 237.862 291.603 247.857 288.882 255.328C286.161 262.799 282.277 268.267 277.23 271.73C272.232 275.145 265.404 276.901 256.745 277H249.769V256.961L253.406 256.59C258.601 255.848 262.361 252.681 264.687 247.09C267.012 241.449 268.521 231.974 269.214 218.664L271.07 168.938H346.179ZM434.268 256.812H398.568L392.334 277H364.502L404.135 168.938H428.627L468.557 277H440.576L434.268 256.812ZM404.803 236.699H428.033L416.381 199.219L404.803 236.699ZM558.649 189.051H511.817V206.121H525.251C533.811 206.121 541.381 207.581 547.962 210.5C554.543 213.419 559.59 217.551 563.103 222.895C566.665 228.189 568.446 234.275 568.446 241.152C568.446 251.79 564.488 260.424 556.571 267.055C548.704 273.685 538.116 277 524.806 277H485.618V168.938H558.649V189.051ZM511.817 226.16V256.961H525.177C530.471 256.961 534.652 255.477 537.72 252.508C540.837 249.539 542.396 245.704 542.396 241.004C542.396 236.551 540.862 232.964 537.794 230.242C534.726 227.521 530.471 226.16 525.028 226.16H511.817ZM681.25 225.195C681.25 235.734 679.295 245.061 675.387 253.176C671.478 261.29 665.911 267.549 658.687 271.953C651.513 276.307 643.324 278.484 634.121 278.484C624.918 278.484 616.754 276.382 609.629 272.176C602.504 267.921 596.937 261.859 592.93 253.992C588.971 246.125 586.893 237.095 586.695 226.902V220.816C586.695 210.228 588.625 200.901 592.484 192.836C596.393 184.721 601.96 178.462 609.183 174.059C616.457 169.655 624.72 167.453 633.973 167.453C643.126 167.453 651.29 169.63 658.465 173.984C665.639 178.339 671.206 184.548 675.164 192.613C679.172 200.629 681.2 209.832 681.25 220.223V225.195ZM654.754 220.668C654.754 209.931 652.948 201.792 649.336 196.25C645.773 190.659 640.652 187.863 633.973 187.863C620.91 187.863 614.008 197.66 613.266 217.254L613.191 225.195C613.191 235.784 614.948 243.923 618.461 249.613C621.974 255.303 627.194 258.148 634.121 258.148C640.702 258.148 645.773 255.353 649.336 249.762C652.898 244.171 654.704 236.13 654.754 225.641V220.668ZM729.854 240.336V277H703.803V168.938H746.925C755.188 168.938 762.486 170.471 768.819 173.539C775.202 176.557 780.125 180.887 783.589 186.527C787.102 192.118 788.858 198.477 788.858 205.602C788.858 216.141 785.073 224.577 777.503 230.91C769.982 237.194 759.641 240.336 746.479 240.336H729.854ZM729.854 220.223H746.925C751.971 220.223 755.806 218.961 758.428 216.438C761.1 213.914 762.436 210.352 762.436 205.75C762.436 200.703 761.076 196.671 758.354 193.652C755.633 190.634 751.922 189.1 747.221 189.051H729.854V220.223ZM860.099 256.812H824.4L818.166 277H790.334L829.966 168.938H854.459L894.388 277H866.408L860.099 256.812ZM830.634 236.699H853.865L842.213 199.219L830.634 236.699ZM987.375 189.051H954.942V277H928.891V189.051H897.051V168.938H987.375V189.051ZM1096.99 225.195C1096.99 235.734 1095.03 245.061 1091.12 253.176C1087.22 261.29 1081.65 267.549 1074.43 271.953C1067.25 276.307 1059.06 278.484 1049.86 278.484C1040.66 278.484 1032.49 276.382 1025.37 272.176C1018.24 267.921 1012.68 261.859 1008.67 253.992C1004.71 246.125 1002.63 237.095 1002.43 226.902V220.816C1002.43 210.228 1004.36 200.901 1008.22 192.836C1012.13 184.721 1017.7 178.462 1024.92 174.059C1032.19 169.655 1040.46 167.453 1049.71 167.453C1058.86 167.453 1067.03 169.63 1074.2 173.984C1081.38 178.339 1086.94 184.548 1090.9 192.613C1094.91 200.629 1096.94 209.832 1096.99 220.223V225.195ZM1070.49 220.668C1070.49 209.931 1068.69 201.792 1065.07 196.25C1061.51 190.659 1056.39 187.863 1049.71 187.863C1036.65 187.863 1029.75 197.66 1029 217.254L1028.93 225.195C1028.93 235.784 1030.69 243.923 1034.2 249.613C1037.71 255.303 1042.93 258.148 1049.86 258.148C1056.44 258.148 1061.51 255.353 1065.07 249.762C1068.64 244.171 1070.44 236.13 1070.49 225.641V220.668ZM1145.59 240.336V277H1119.54V168.938H1162.66C1170.93 168.938 1178.22 170.471 1184.56 173.539C1190.94 176.557 1195.86 180.887 1199.33 186.527C1202.84 192.118 1204.6 198.477 1204.6 205.602C1204.6 216.141 1200.81 224.577 1193.24 230.91C1185.72 237.194 1175.38 240.336 1162.22 240.336H1145.59ZM1145.59 220.223H1162.66C1167.71 220.223 1171.54 218.961 1174.17 216.438C1176.84 213.914 1178.17 210.352 1178.17 205.75C1178.17 200.703 1176.81 196.671 1174.09 193.652C1171.37 190.634 1167.66 189.1 1162.96 189.051H1145.59V220.223ZM1291.05 168.938H1317.1V277H1291.05V208.867L1252.24 277H1226.18V168.938H1252.24V237.145L1291.05 168.938ZM1388.71 277V239.074H1373.72L1355.46 277H1327.19L1349.38 230.242C1339.73 223.958 1334.91 214.73 1334.91 202.559C1334.91 191.871 1338.42 183.608 1345.45 177.77C1352.47 171.882 1362.59 168.938 1375.8 168.938H1414.84V277H1388.71ZM1360.88 204.859C1360.88 210.352 1362 214.335 1364.22 216.809C1366.45 219.283 1370.18 220.52 1375.43 220.52H1388.71V189.051H1375.58C1370.38 189.051 1366.62 190.411 1364.3 193.133C1362.02 195.805 1360.88 199.714 1360.88 204.859Z"/>
</mask>
<path d="M77.3022 13.9375H103.353V122H77.3022V53.8672L38.4858 122H12.4351V13.9375H38.4858V82.1445L77.3022 13.9375ZM215.86 85.4102C215.513 92.931 213.485 99.5859 209.774 105.375C206.063 111.115 200.843 115.568 194.114 118.734C187.434 121.901 179.789 123.484 171.18 123.484C156.98 123.484 145.797 118.858 137.633 109.605C129.469 100.353 125.387 87.2904 125.387 70.418V65.0742C125.387 54.4857 127.218 45.2331 130.879 37.3164C134.59 29.3503 139.909 23.2148 146.836 18.9102C153.763 14.556 161.779 12.3789 170.883 12.3789C183.995 12.3789 194.534 15.8424 202.5 22.7695C210.467 29.6471 214.994 39.1471 216.082 51.2695H190.106C189.908 44.6888 188.25 39.9635 185.133 37.0938C182.016 34.224 177.266 32.7891 170.883 32.7891C164.401 32.7891 159.651 35.2135 156.633 40.0625C153.615 44.9115 152.032 52.6549 151.883 63.293V70.9375C151.883 82.4661 153.318 90.7044 156.188 95.6523C159.107 100.6 164.105 103.074 171.18 103.074C177.167 103.074 181.744 101.664 184.911 98.8438C188.077 96.0234 189.759 91.5456 189.957 85.4102H215.86ZM328.07 122H302.019V34.0508H263.202V122H237.152V13.9375H328.07V122ZM379.494 51.1211H392.928C401.488 51.1211 409.058 52.5807 415.639 55.5C422.22 58.4193 427.266 62.5508 430.779 67.8945C434.342 73.1888 436.123 79.2747 436.123 86.1523C436.123 96.7904 432.165 105.424 424.248 112.055C416.381 118.685 405.792 122 392.483 122H353.369V13.9375H379.494V51.1211ZM469.967 122H443.99V13.9375H469.967V122ZM379.494 71.1602V101.961H392.854C398.148 101.961 402.329 100.477 405.397 97.5078C408.514 94.5391 410.072 90.7044 410.072 86.0039C410.072 81.5508 408.539 77.9635 405.471 75.2422C402.403 72.5208 398.148 71.1602 392.705 71.1602H379.494ZM577.724 34.0508H545.29V122H519.239V34.0508H487.399V13.9375H577.724V34.0508ZM650.375 101.812H614.676L608.441 122H580.609L620.242 13.9375H644.734L684.664 122H656.683L650.375 101.812ZM620.91 81.6992H644.141L632.488 44.2188L620.91 81.6992ZM777.651 34.0508H745.218V122H719.167V34.0508H687.327V13.9375H777.651V34.0508ZM864.849 76.207H823.881V101.961H872.271V122H797.83V13.9375H872.42V34.0508H823.881V56.8359H864.849V76.207ZM982.922 13.9375V122H956.872V34.0508H932.602L930.821 70.3438C930.079 82.862 928.347 92.8568 925.626 100.328C922.904 107.799 919.02 113.267 913.973 116.73C908.976 120.145 902.148 121.901 893.489 122H886.512V101.961L890.149 101.59C895.344 100.848 899.105 97.681 901.43 92.0898C903.756 86.4492 905.265 76.974 905.958 63.6641L907.813 13.9375H982.922ZM1034.5 51.1211H1047.93C1056.49 51.1211 1064.06 52.5807 1070.64 55.5C1077.22 58.4193 1082.27 62.5508 1085.78 67.8945C1089.34 73.1888 1091.12 79.2747 1091.12 86.1523C1091.12 96.7904 1087.17 105.424 1079.25 112.055C1071.38 118.685 1060.79 122 1047.48 122H1008.37V13.9375H1034.5V51.1211ZM1034.5 71.1602V101.961H1047.85C1053.15 101.961 1057.33 100.477 1060.4 97.5078C1063.52 94.5391 1065.07 90.7044 1065.07 86.0039C1065.07 81.5508 1063.54 77.9635 1060.47 75.2422C1057.4 72.5208 1053.15 71.1602 1047.71 71.1602H1034.5ZM1202.44 122H1176.54V76.875H1138.17V122H1112.12V13.9375H1138.17V56.8359H1176.54V13.9375H1202.44V122ZM1290.83 101.812H1255.13L1248.9 122H1221.06L1260.7 13.9375H1285.19L1325.12 122H1297.14L1290.83 101.812ZM1261.36 81.6992H1284.59L1272.94 44.2188L1261.36 81.6992ZM1388.71 122V84.0742H1373.72L1355.46 122H1327.19L1349.38 75.2422C1339.73 68.9583 1334.91 59.7305 1334.91 47.5586C1334.91 36.8711 1338.42 28.6081 1345.45 22.7695C1352.47 16.8815 1362.59 13.9375 1375.8 13.9375H1414.84V122H1388.71ZM1360.88 49.8594C1360.88 55.3516 1362 59.3346 1364.22 61.8086C1366.45 64.2826 1370.18 65.5195 1375.43 65.5195H1388.71V34.0508H1375.58C1370.38 34.0508 1366.62 35.4115 1364.3 38.1328C1362.02 40.8047 1360.88 44.7135 1360.88 49.8594ZM346.179 168.938V277H320.128V189.051H295.859L294.077 225.344C293.335 237.862 291.603 247.857 288.882 255.328C286.161 262.799 282.277 268.267 277.23 271.73C272.232 275.145 265.404 276.901 256.745 277H249.769V256.961L253.406 256.59C258.601 255.848 262.361 252.681 264.687 247.09C267.012 241.449 268.521 231.974 269.214 218.664L271.07 168.938H346.179ZM434.268 256.812H398.568L392.334 277H364.502L404.135 168.938H428.627L468.557 277H440.576L434.268 256.812ZM404.803 236.699H428.033L416.381 199.219L404.803 236.699ZM558.649 189.051H511.817V206.121H525.251C533.811 206.121 541.381 207.581 547.962 210.5C554.543 213.419 559.59 217.551 563.103 222.895C566.665 228.189 568.446 234.275 568.446 241.152C568.446 251.79 564.488 260.424 556.571 267.055C548.704 273.685 538.116 277 524.806 277H485.618V168.938H558.649V189.051ZM511.817 226.16V256.961H525.177C530.471 256.961 534.652 255.477 537.72 252.508C540.837 249.539 542.396 245.704 542.396 241.004C542.396 236.551 540.862 232.964 537.794 230.242C534.726 227.521 530.471 226.16 525.028 226.16H511.817ZM681.25 225.195C681.25 235.734 679.295 245.061 675.387 253.176C671.478 261.29 665.911 267.549 658.687 271.953C651.513 276.307 643.324 278.484 634.121 278.484C624.918 278.484 616.754 276.382 609.629 272.176C602.504 267.921 596.937 261.859 592.93 253.992C588.971 246.125 586.893 237.095 586.695 226.902V220.816C586.695 210.228 588.625 200.901 592.484 192.836C596.393 184.721 601.96 178.462 609.183 174.059C616.457 169.655 624.72 167.453 633.973 167.453C643.126 167.453 651.29 169.63 658.465 173.984C665.639 178.339 671.206 184.548 675.164 192.613C679.172 200.629 681.2 209.832 681.25 220.223V225.195ZM654.754 220.668C654.754 209.931 652.948 201.792 649.336 196.25C645.773 190.659 640.652 187.863 633.973 187.863C620.91 187.863 614.008 197.66 613.266 217.254L613.191 225.195C613.191 235.784 614.948 243.923 618.461 249.613C621.974 255.303 627.194 258.148 634.121 258.148C640.702 258.148 645.773 255.353 649.336 249.762C652.898 244.171 654.704 236.13 654.754 225.641V220.668ZM729.854 240.336V277H703.803V168.938H746.925C755.188 168.938 762.486 170.471 768.819 173.539C775.202 176.557 780.125 180.887 783.589 186.527C787.102 192.118 788.858 198.477 788.858 205.602C788.858 216.141 785.073 224.577 777.503 230.91C769.982 237.194 759.641 240.336 746.479 240.336H729.854ZM729.854 220.223H746.925C751.971 220.223 755.806 218.961 758.428 216.438C761.1 213.914 762.436 210.352 762.436 205.75C762.436 200.703 761.076 196.671 758.354 193.652C755.633 190.634 751.922 189.1 747.221 189.051H729.854V220.223ZM860.099 256.812H824.4L818.166 277H790.334L829.966 168.938H854.459L894.388 277H866.408L860.099 256.812ZM830.634 236.699H853.865L842.213 199.219L830.634 236.699ZM987.375 189.051H954.942V277H928.891V189.051H897.051V168.938H987.375V189.051ZM1096.99 225.195C1096.99 235.734 1095.03 245.061 1091.12 253.176C1087.22 261.29 1081.65 267.549 1074.43 271.953C1067.25 276.307 1059.06 278.484 1049.86 278.484C1040.66 278.484 1032.49 276.382 1025.37 272.176C1018.24 267.921 1012.68 261.859 1008.67 253.992C1004.71 246.125 1002.63 237.095 1002.43 226.902V220.816C1002.43 210.228 1004.36 200.901 1008.22 192.836C1012.13 184.721 1017.7 178.462 1024.92 174.059C1032.19 169.655 1040.46 167.453 1049.71 167.453C1058.86 167.453 1067.03 169.63 1074.2 173.984C1081.38 178.339 1086.94 184.548 1090.9 192.613C1094.91 200.629 1096.94 209.832 1096.99 220.223V225.195ZM1070.49 220.668C1070.49 209.931 1068.69 201.792 1065.07 196.25C1061.51 190.659 1056.39 187.863 1049.71 187.863C1036.65 187.863 1029.75 197.66 1029 217.254L1028.93 225.195C1028.93 235.784 1030.69 243.923 1034.2 249.613C1037.71 255.303 1042.93 258.148 1049.86 258.148C1056.44 258.148 1061.51 255.353 1065.07 249.762C1068.64 244.171 1070.44 236.13 1070.49 225.641V220.668ZM1145.59 240.336V277H1119.54V168.938H1162.66C1170.93 168.938 1178.22 170.471 1184.56 173.539C1190.94 176.557 1195.86 180.887 1199.33 186.527C1202.84 192.118 1204.6 198.477 1204.6 205.602C1204.6 216.141 1200.81 224.577 1193.24 230.91C1185.72 237.194 1175.38 240.336 1162.22 240.336H1145.59ZM1145.59 220.223H1162.66C1167.71 220.223 1171.54 218.961 1174.17 216.438C1176.84 213.914 1178.17 210.352 1178.17 205.75C1178.17 200.703 1176.81 196.671 1174.09 193.652C1171.37 190.634 1167.66 189.1 1162.96 189.051H1145.59V220.223ZM1291.05 168.938H1317.1V277H1291.05V208.867L1252.24 277H1226.18V168.938H1252.24V237.145L1291.05 168.938ZM1388.71 277V239.074H1373.72L1355.46 277H1327.19L1349.38 230.242C1339.73 223.958 1334.91 214.73 1334.91 202.559C1334.91 191.871 1338.42 183.608 1345.45 177.77C1352.47 171.882 1362.59 168.938 1375.8 168.938H1414.84V277H1388.71ZM1360.88 204.859C1360.88 210.352 1362 214.335 1364.22 216.809C1366.45 219.283 1370.18 220.52 1375.43 220.52H1388.71V189.051H1375.58C1370.38 189.051 1366.62 190.411 1364.3 193.133C1362.02 195.805 1360.88 199.714 1360.88 204.859Z" stroke="white" stroke-width="4" mask="url(#path-1-outside-1)"/>
</g>
<g opacity="0.6" filter="url(#filter1_f)">
<mask id="path-2-outside-2" maskUnits="userSpaceOnUse" x="11.4351" y="11.3789" width="1405" height="269" fill="black">
<rect fill="white" x="11.4351" y="11.3789" width="1405" height="269"/>
<path d="M77.3022 13.9375H103.353V122H77.3022V53.8672L38.4858 122H12.4351V13.9375H38.4858V82.1445L77.3022 13.9375ZM215.86 85.4102C215.513 92.931 213.485 99.5859 209.774 105.375C206.063 111.115 200.843 115.568 194.114 118.734C187.434 121.901 179.789 123.484 171.18 123.484C156.98 123.484 145.797 118.858 137.633 109.605C129.469 100.353 125.387 87.2904 125.387 70.418V65.0742C125.387 54.4857 127.218 45.2331 130.879 37.3164C134.59 29.3503 139.909 23.2148 146.836 18.9102C153.763 14.556 161.779 12.3789 170.883 12.3789C183.995 12.3789 194.534 15.8424 202.5 22.7695C210.467 29.6471 214.994 39.1471 216.082 51.2695H190.106C189.908 44.6888 188.25 39.9635 185.133 37.0938C182.016 34.224 177.266 32.7891 170.883 32.7891C164.401 32.7891 159.651 35.2135 156.633 40.0625C153.615 44.9115 152.032 52.6549 151.883 63.293V70.9375C151.883 82.4661 153.318 90.7044 156.188 95.6523C159.107 100.6 164.105 103.074 171.18 103.074C177.167 103.074 181.744 101.664 184.911 98.8438C188.077 96.0234 189.759 91.5456 189.957 85.4102H215.86ZM328.07 122H302.019V34.0508H263.202V122H237.152V13.9375H328.07V122ZM379.494 51.1211H392.928C401.488 51.1211 409.058 52.5807 415.639 55.5C422.22 58.4193 427.266 62.5508 430.779 67.8945C434.342 73.1888 436.123 79.2747 436.123 86.1523C436.123 96.7904 432.165 105.424 424.248 112.055C416.381 118.685 405.792 122 392.483 122H353.369V13.9375H379.494V51.1211ZM469.967 122H443.99V13.9375H469.967V122ZM379.494 71.1602V101.961H392.854C398.148 101.961 402.329 100.477 405.397 97.5078C408.514 94.5391 410.072 90.7044 410.072 86.0039C410.072 81.5508 408.539 77.9635 405.471 75.2422C402.403 72.5208 398.148 71.1602 392.705 71.1602H379.494ZM577.724 34.0508H545.29V122H519.239V34.0508H487.399V13.9375H577.724V34.0508ZM650.375 101.812H614.676L608.441 122H580.609L620.242 13.9375H644.734L684.664 122H656.683L650.375 101.812ZM620.91 81.6992H644.141L632.488 44.2188L620.91 81.6992ZM777.651 34.0508H745.218V122H719.167V34.0508H687.327V13.9375H777.651V34.0508ZM864.849 76.207H823.881V101.961H872.271V122H797.83V13.9375H872.42V34.0508H823.881V56.8359H864.849V76.207ZM982.922 13.9375V122H956.872V34.0508H932.602L930.821 70.3438C930.079 82.862 928.347 92.8568 925.626 100.328C922.904 107.799 919.02 113.267 913.973 116.73C908.976 120.145 902.148 121.901 893.489 122H886.512V101.961L890.149 101.59C895.344 100.848 899.105 97.681 901.43 92.0898C903.756 86.4492 905.265 76.974 905.958 63.6641L907.813 13.9375H982.922ZM1034.5 51.1211H1047.93C1056.49 51.1211 1064.06 52.5807 1070.64 55.5C1077.22 58.4193 1082.27 62.5508 1085.78 67.8945C1089.34 73.1888 1091.12 79.2747 1091.12 86.1523C1091.12 96.7904 1087.17 105.424 1079.25 112.055C1071.38 118.685 1060.79 122 1047.48 122H1008.37V13.9375H1034.5V51.1211ZM1034.5 71.1602V101.961H1047.85C1053.15 101.961 1057.33 100.477 1060.4 97.5078C1063.52 94.5391 1065.07 90.7044 1065.07 86.0039C1065.07 81.5508 1063.54 77.9635 1060.47 75.2422C1057.4 72.5208 1053.15 71.1602 1047.71 71.1602H1034.5ZM1202.44 122H1176.54V76.875H1138.17V122H1112.12V13.9375H1138.17V56.8359H1176.54V13.9375H1202.44V122ZM1290.83 101.812H1255.13L1248.9 122H1221.06L1260.7 13.9375H1285.19L1325.12 122H1297.14L1290.83 101.812ZM1261.36 81.6992H1284.59L1272.94 44.2188L1261.36 81.6992ZM1388.71 122V84.0742H1373.72L1355.46 122H1327.19L1349.38 75.2422C1339.73 68.9583 1334.91 59.7305 1334.91 47.5586C1334.91 36.8711 1338.42 28.6081 1345.45 22.7695C1352.47 16.8815 1362.59 13.9375 1375.8 13.9375H1414.84V122H1388.71ZM1360.88 49.8594C1360.88 55.3516 1362 59.3346 1364.22 61.8086C1366.45 64.2826 1370.18 65.5195 1375.43 65.5195H1388.71V34.0508H1375.58C1370.38 34.0508 1366.62 35.4115 1364.3 38.1328C1362.02 40.8047 1360.88 44.7135 1360.88 49.8594ZM346.179 168.938V277H320.128V189.051H295.859L294.077 225.344C293.335 237.862 291.603 247.857 288.882 255.328C286.161 262.799 282.277 268.267 277.23 271.73C272.232 275.145 265.404 276.901 256.745 277H249.769V256.961L253.406 256.59C258.601 255.848 262.361 252.681 264.687 247.09C267.012 241.449 268.521 231.974 269.214 218.664L271.07 168.938H346.179ZM434.268 256.812H398.568L392.334 277H364.502L404.135 168.938H428.627L468.557 277H440.576L434.268 256.812ZM404.803 236.699H428.033L416.381 199.219L404.803 236.699ZM558.649 189.051H511.817V206.121H525.251C533.811 206.121 541.381 207.581 547.962 210.5C554.543 213.419 559.59 217.551 563.103 222.895C566.665 228.189 568.446 234.275 568.446 241.152C568.446 251.79 564.488 260.424 556.571 267.055C548.704 273.685 538.116 277 524.806 277H485.618V168.938H558.649V189.051ZM511.817 226.16V256.961H525.177C530.471 256.961 534.652 255.477 537.72 252.508C540.837 249.539 542.396 245.704 542.396 241.004C542.396 236.551 540.862 232.964 537.794 230.242C534.726 227.521 530.471 226.16 525.028 226.16H511.817ZM681.25 225.195C681.25 235.734 679.295 245.061 675.387 253.176C671.478 261.29 665.911 267.549 658.687 271.953C651.513 276.307 643.324 278.484 634.121 278.484C624.918 278.484 616.754 276.382 609.629 272.176C602.504 267.921 596.937 261.859 592.93 253.992C588.971 246.125 586.893 237.095 586.695 226.902V220.816C586.695 210.228 588.625 200.901 592.484 192.836C596.393 184.721 601.96 178.462 609.183 174.059C616.457 169.655 624.72 167.453 633.973 167.453C643.126 167.453 651.29 169.63 658.465 173.984C665.639 178.339 671.206 184.548 675.164 192.613C679.172 200.629 681.2 209.832 681.25 220.223V225.195ZM654.754 220.668C654.754 209.931 652.948 201.792 649.336 196.25C645.773 190.659 640.652 187.863 633.973 187.863C620.91 187.863 614.008 197.66 613.266 217.254L613.191 225.195C613.191 235.784 614.948 243.923 618.461 249.613C621.974 255.303 627.194 258.148 634.121 258.148C640.702 258.148 645.773 255.353 649.336 249.762C652.898 244.171 654.704 236.13 654.754 225.641V220.668ZM729.854 240.336V277H703.803V168.938H746.925C755.188 168.938 762.486 170.471 768.819 173.539C775.202 176.557 780.125 180.887 783.589 186.527C787.102 192.118 788.858 198.477 788.858 205.602C788.858 216.141 785.073 224.577 777.503 230.91C769.982 237.194 759.641 240.336 746.479 240.336H729.854ZM729.854 220.223H746.925C751.971 220.223 755.806 218.961 758.428 216.438C761.1 213.914 762.436 210.352 762.436 205.75C762.436 200.703 761.076 196.671 758.354 193.652C755.633 190.634 751.922 189.1 747.221 189.051H729.854V220.223ZM860.099 256.812H824.4L818.166 277H790.334L829.966 168.938H854.459L894.388 277H866.408L860.099 256.812ZM830.634 236.699H853.865L842.213 199.219L830.634 236.699ZM987.375 189.051H954.942V277H928.891V189.051H897.051V168.938H987.375V189.051ZM1096.99 225.195C1096.99 235.734 1095.03 245.061 1091.12 253.176C1087.22 261.29 1081.65 267.549 1074.43 271.953C1067.25 276.307 1059.06 278.484 1049.86 278.484C1040.66 278.484 1032.49 276.382 1025.37 272.176C1018.24 267.921 1012.68 261.859 1008.67 253.992C1004.71 246.125 1002.63 237.095 1002.43 226.902V220.816C1002.43 210.228 1004.36 200.901 1008.22 192.836C1012.13 184.721 1017.7 178.462 1024.92 174.059C1032.19 169.655 1040.46 167.453 1049.71 167.453C1058.86 167.453 1067.03 169.63 1074.2 173.984C1081.38 178.339 1086.94 184.548 1090.9 192.613C1094.91 200.629 1096.94 209.832 1096.99 220.223V225.195ZM1070.49 220.668C1070.49 209.931 1068.69 201.792 1065.07 196.25C1061.51 190.659 1056.39 187.863 1049.71 187.863C1036.65 187.863 1029.75 197.66 1029 217.254L1028.93 225.195C1028.93 235.784 1030.69 243.923 1034.2 249.613C1037.71 255.303 1042.93 258.148 1049.86 258.148C1056.44 258.148 1061.51 255.353 1065.07 249.762C1068.64 244.171 1070.44 236.13 1070.49 225.641V220.668ZM1145.59 240.336V277H1119.54V168.938H1162.66C1170.93 168.938 1178.22 170.471 1184.56 173.539C1190.94 176.557 1195.86 180.887 1199.33 186.527C1202.84 192.118 1204.6 198.477 1204.6 205.602C1204.6 216.141 1200.81 224.577 1193.24 230.91C1185.72 237.194 1175.38 240.336 1162.22 240.336H1145.59ZM1145.59 220.223H1162.66C1167.71 220.223 1171.54 218.961 1174.17 216.438C1176.84 213.914 1178.17 210.352 1178.17 205.75C1178.17 200.703 1176.81 196.671 1174.09 193.652C1171.37 190.634 1167.66 189.1 1162.96 189.051H1145.59V220.223ZM1291.05 168.938H1317.1V277H1291.05V208.867L1252.24 277H1226.18V168.938H1252.24V237.145L1291.05 168.938ZM1388.71 277V239.074H1373.72L1355.46 277H1327.19L1349.38 230.242C1339.73 223.958 1334.91 214.73 1334.91 202.559C1334.91 191.871 1338.42 183.608 1345.45 177.77C1352.47 171.882 1362.59 168.938 1375.8 168.938H1414.84V277H1388.71ZM1360.88 204.859C1360.88 210.352 1362 214.335 1364.22 216.809C1366.45 219.283 1370.18 220.52 1375.43 220.52H1388.71V189.051H1375.58C1370.38 189.051 1366.62 190.411 1364.3 193.133C1362.02 195.805 1360.88 199.714 1360.88 204.859Z"/>
</mask>
<path d="M77.3022 13.9375H103.353V122H77.3022V53.8672L38.4858 122H12.4351V13.9375H38.4858V82.1445L77.3022 13.9375ZM215.86 85.4102C215.513 92.931 213.485 99.5859 209.774 105.375C206.063 111.115 200.843 115.568 194.114 118.734C187.434 121.901 179.789 123.484 171.18 123.484C156.98 123.484 145.797 118.858 137.633 109.605C129.469 100.353 125.387 87.2904 125.387 70.418V65.0742C125.387 54.4857 127.218 45.2331 130.879 37.3164C134.59 29.3503 139.909 23.2148 146.836 18.9102C153.763 14.556 161.779 12.3789 170.883 12.3789C183.995 12.3789 194.534 15.8424 202.5 22.7695C210.467 29.6471 214.994 39.1471 216.082 51.2695H190.106C189.908 44.6888 188.25 39.9635 185.133 37.0938C182.016 34.224 177.266 32.7891 170.883 32.7891C164.401 32.7891 159.651 35.2135 156.633 40.0625C153.615 44.9115 152.032 52.6549 151.883 63.293V70.9375C151.883 82.4661 153.318 90.7044 156.188 95.6523C159.107 100.6 164.105 103.074 171.18 103.074C177.167 103.074 181.744 101.664 184.911 98.8438C188.077 96.0234 189.759 91.5456 189.957 85.4102H215.86ZM328.07 122H302.019V34.0508H263.202V122H237.152V13.9375H328.07V122ZM379.494 51.1211H392.928C401.488 51.1211 409.058 52.5807 415.639 55.5C422.22 58.4193 427.266 62.5508 430.779 67.8945C434.342 73.1888 436.123 79.2747 436.123 86.1523C436.123 96.7904 432.165 105.424 424.248 112.055C416.381 118.685 405.792 122 392.483 122H353.369V13.9375H379.494V51.1211ZM469.967 122H443.99V13.9375H469.967V122ZM379.494 71.1602V101.961H392.854C398.148 101.961 402.329 100.477 405.397 97.5078C408.514 94.5391 410.072 90.7044 410.072 86.0039C410.072 81.5508 408.539 77.9635 405.471 75.2422C402.403 72.5208 398.148 71.1602 392.705 71.1602H379.494ZM577.724 34.0508H545.29V122H519.239V34.0508H487.399V13.9375H577.724V34.0508ZM650.375 101.812H614.676L608.441 122H580.609L620.242 13.9375H644.734L684.664 122H656.683L650.375 101.812ZM620.91 81.6992H644.141L632.488 44.2188L620.91 81.6992ZM777.651 34.0508H745.218V122H719.167V34.0508H687.327V13.9375H777.651V34.0508ZM864.849 76.207H823.881V101.961H872.271V122H797.83V13.9375H872.42V34.0508H823.881V56.8359H864.849V76.207ZM982.922 13.9375V122H956.872V34.0508H932.602L930.821 70.3438C930.079 82.862 928.347 92.8568 925.626 100.328C922.904 107.799 919.02 113.267 913.973 116.73C908.976 120.145 902.148 121.901 893.489 122H886.512V101.961L890.149 101.59C895.344 100.848 899.105 97.681 901.43 92.0898C903.756 86.4492 905.265 76.974 905.958 63.6641L907.813 13.9375H982.922ZM1034.5 51.1211H1047.93C1056.49 51.1211 1064.06 52.5807 1070.64 55.5C1077.22 58.4193 1082.27 62.5508 1085.78 67.8945C1089.34 73.1888 1091.12 79.2747 1091.12 86.1523C1091.12 96.7904 1087.17 105.424 1079.25 112.055C1071.38 118.685 1060.79 122 1047.48 122H1008.37V13.9375H1034.5V51.1211ZM1034.5 71.1602V101.961H1047.85C1053.15 101.961 1057.33 100.477 1060.4 97.5078C1063.52 94.5391 1065.07 90.7044 1065.07 86.0039C1065.07 81.5508 1063.54 77.9635 1060.47 75.2422C1057.4 72.5208 1053.15 71.1602 1047.71 71.1602H1034.5ZM1202.44 122H1176.54V76.875H1138.17V122H1112.12V13.9375H1138.17V56.8359H1176.54V13.9375H1202.44V122ZM1290.83 101.812H1255.13L1248.9 122H1221.06L1260.7 13.9375H1285.19L1325.12 122H1297.14L1290.83 101.812ZM1261.36 81.6992H1284.59L1272.94 44.2188L1261.36 81.6992ZM1388.71 122V84.0742H1373.72L1355.46 122H1327.19L1349.38 75.2422C1339.73 68.9583 1334.91 59.7305 1334.91 47.5586C1334.91 36.8711 1338.42 28.6081 1345.45 22.7695C1352.47 16.8815 1362.59 13.9375 1375.8 13.9375H1414.84V122H1388.71ZM1360.88 49.8594C1360.88 55.3516 1362 59.3346 1364.22 61.8086C1366.45 64.2826 1370.18 65.5195 1375.43 65.5195H1388.71V34.0508H1375.58C1370.38 34.0508 1366.62 35.4115 1364.3 38.1328C1362.02 40.8047 1360.88 44.7135 1360.88 49.8594ZM346.179 168.938V277H320.128V189.051H295.859L294.077 225.344C293.335 237.862 291.603 247.857 288.882 255.328C286.161 262.799 282.277 268.267 277.23 271.73C272.232 275.145 265.404 276.901 256.745 277H249.769V256.961L253.406 256.59C258.601 255.848 262.361 252.681 264.687 247.09C267.012 241.449 268.521 231.974 269.214 218.664L271.07 168.938H346.179ZM434.268 256.812H398.568L392.334 277H364.502L404.135 168.938H428.627L468.557 277H440.576L434.268 256.812ZM404.803 236.699H428.033L416.381 199.219L404.803 236.699ZM558.649 189.051H511.817V206.121H525.251C533.811 206.121 541.381 207.581 547.962 210.5C554.543 213.419 559.59 217.551 563.103 222.895C566.665 228.189 568.446 234.275 568.446 241.152C568.446 251.79 564.488 260.424 556.571 267.055C548.704 273.685 538.116 277 524.806 277H485.618V168.938H558.649V189.051ZM511.817 226.16V256.961H525.177C530.471 256.961 534.652 255.477 537.72 252.508C540.837 249.539 542.396 245.704 542.396 241.004C542.396 236.551 540.862 232.964 537.794 230.242C534.726 227.521 530.471 226.16 525.028 226.16H511.817ZM681.25 225.195C681.25 235.734 679.295 245.061 675.387 253.176C671.478 261.29 665.911 267.549 658.687 271.953C651.513 276.307 643.324 278.484 634.121 278.484C624.918 278.484 616.754 276.382 609.629 272.176C602.504 267.921 596.937 261.859 592.93 253.992C588.971 246.125 586.893 237.095 586.695 226.902V220.816C586.695 210.228 588.625 200.901 592.484 192.836C596.393 184.721 601.96 178.462 609.183 174.059C616.457 169.655 624.72 167.453 633.973 167.453C643.126 167.453 651.29 169.63 658.465 173.984C665.639 178.339 671.206 184.548 675.164 192.613C679.172 200.629 681.2 209.832 681.25 220.223V225.195ZM654.754 220.668C654.754 209.931 652.948 201.792 649.336 196.25C645.773 190.659 640.652 187.863 633.973 187.863C620.91 187.863 614.008 197.66 613.266 217.254L613.191 225.195C613.191 235.784 614.948 243.923 618.461 249.613C621.974 255.303 627.194 258.148 634.121 258.148C640.702 258.148 645.773 255.353 649.336 249.762C652.898 244.171 654.704 236.13 654.754 225.641V220.668ZM729.854 240.336V277H703.803V168.938H746.925C755.188 168.938 762.486 170.471 768.819 173.539C775.202 176.557 780.125 180.887 783.589 186.527C787.102 192.118 788.858 198.477 788.858 205.602C788.858 216.141 785.073 224.577 777.503 230.91C769.982 237.194 759.641 240.336 746.479 240.336H729.854ZM729.854 220.223H746.925C751.971 220.223 755.806 218.961 758.428 216.438C761.1 213.914 762.436 210.352 762.436 205.75C762.436 200.703 761.076 196.671 758.354 193.652C755.633 190.634 751.922 189.1 747.221 189.051H729.854V220.223ZM860.099 256.812H824.4L818.166 277H790.334L829.966 168.938H854.459L894.388 277H866.408L860.099 256.812ZM830.634 236.699H853.865L842.213 199.219L830.634 236.699ZM987.375 189.051H954.942V277H928.891V189.051H897.051V168.938H987.375V189.051ZM1096.99 225.195C1096.99 235.734 1095.03 245.061 1091.12 253.176C1087.22 261.29 1081.65 267.549 1074.43 271.953C1067.25 276.307 1059.06 278.484 1049.86 278.484C1040.66 278.484 1032.49 276.382 1025.37 272.176C1018.24 267.921 1012.68 261.859 1008.67 253.992C1004.71 246.125 1002.63 237.095 1002.43 226.902V220.816C1002.43 210.228 1004.36 200.901 1008.22 192.836C1012.13 184.721 1017.7 178.462 1024.92 174.059C1032.19 169.655 1040.46 167.453 1049.71 167.453C1058.86 167.453 1067.03 169.63 1074.2 173.984C1081.38 178.339 1086.94 184.548 1090.9 192.613C1094.91 200.629 1096.94 209.832 1096.99 220.223V225.195ZM1070.49 220.668C1070.49 209.931 1068.69 201.792 1065.07 196.25C1061.51 190.659 1056.39 187.863 1049.71 187.863C1036.65 187.863 1029.75 197.66 1029 217.254L1028.93 225.195C1028.93 235.784 1030.69 243.923 1034.2 249.613C1037.71 255.303 1042.93 258.148 1049.86 258.148C1056.44 258.148 1061.51 255.353 1065.07 249.762C1068.64 244.171 1070.44 236.13 1070.49 225.641V220.668ZM1145.59 240.336V277H1119.54V168.938H1162.66C1170.93 168.938 1178.22 170.471 1184.56 173.539C1190.94 176.557 1195.86 180.887 1199.33 186.527C1202.84 192.118 1204.6 198.477 1204.6 205.602C1204.6 216.141 1200.81 224.577 1193.24 230.91C1185.72 237.194 1175.38 240.336 1162.22 240.336H1145.59ZM1145.59 220.223H1162.66C1167.71 220.223 1171.54 218.961 1174.17 216.438C1176.84 213.914 1178.17 210.352 1178.17 205.75C1178.17 200.703 1176.81 196.671 1174.09 193.652C1171.37 190.634 1167.66 189.1 1162.96 189.051H1145.59V220.223ZM1291.05 168.938H1317.1V277H1291.05V208.867L1252.24 277H1226.18V168.938H1252.24V237.145L1291.05 168.938ZM1388.71 277V239.074H1373.72L1355.46 277H1327.19L1349.38 230.242C1339.73 223.958 1334.91 214.73 1334.91 202.559C1334.91 191.871 1338.42 183.608 1345.45 177.77C1352.47 171.882 1362.59 168.938 1375.8 168.938H1414.84V277H1388.71ZM1360.88 204.859C1360.88 210.352 1362 214.335 1364.22 216.809C1366.45 219.283 1370.18 220.52 1375.43 220.52H1388.71V189.051H1375.58C1370.38 189.051 1366.62 190.411 1364.3 193.133C1362.02 195.805 1360.88 199.714 1360.88 204.859Z" stroke="white" stroke-width="2" mask="url(#path-2-outside-2)"/>
</g>
<defs>
<filter id="filter0_f" x="0.435059" y="0.378906" width="1426.4" height="290.105" filterUnits="userSpaceOnUse" color-interpolation-filters="sRGB">
<feFlood flood-opacity="0" result="BackgroundImageFix"/>
<feBlend mode="normal" in="SourceGraphic" in2="BackgroundImageFix" result="shape"/>
<feGaussianBlur stdDeviation="5" result="effect1_foregroundBlur"/>
</filter>
<filter id="filter1_f" x="8.43506" y="8.37891" width="1410.4" height="274.105" filterUnits="userSpaceOnUse" color-interpolation-filters="sRGB">
<feFlood flood-opacity="0" result="BackgroundImageFix"/>
<feBlend mode="normal" in="SourceGraphic" in2="BackgroundImageFix" result="shape"/>
<feGaussianBlur stdDeviation="1.5" result="effect1_foregroundBlur"/>
</filter>
</defs>
</svg>
